<svg xmlns="http://www.w3.org/2000/svg" viewBox="0 0 450 300" width="100%" height="100%">
  <rect width="450" height="300" rx="16" fill="#F8F6F4" stroke="#D7E0CE" stroke-width="1.5"/>
  <text x="225.0" y="24" font-family="Arimo, sans-serif" font-size="13" font-weight="bold" fill="#2C3440" text-anchor="middle">Чрескожное всасывание L-AA</text>
  <rect x="71" y="80" width="67" height="149" fill="#D7E0CE" opacity="0.4"/>
  <line x1="70" y1="229" x2="200" y2="229" stroke="#2C3440" stroke-width="1.5"/>
  <line x1="70" y1="79"  x2="70"  y2="229" stroke="#2C3440" stroke-width="1.5"/>
  <text x="135" y="62" font-family="Arimo, sans-serif" font-size="11" font-weight="bold" fill="#2C3440" text-anchor="middle">Зависимость от pH</text>
  <text x="104" y="108" font-family="Arimo, sans-serif" font-size="9" fill="#6D8470" font-weight="bold" text-anchor="middle">Оптимум</text>
  <text x="104" y="120" font-family="Arimo, sans-serif" font-size="9" fill="#6D8470" font-weight="bold" text-anchor="middle">(pH &lt; 3.5)</text>
  <path d="M 70 94 Q 100 105 138 145 T 200 227" fill="none" stroke="#9E6A5A" stroke-width="2.5"/>
  <line x1="66" y1="94" x2="70" y2="94" stroke="#2C3440"/>
  <text x="63" y="98" font-family="Arimo, sans-serif" font-size="8" fill="#3D4A40" text-anchor="end">Max</text>
  <line x1="66" y1="229" x2="70" y2="229" stroke="#2C3440"/>
  <text x="63" y="233" font-family="Arimo, sans-serif" font-size="8" fill="#3D4A40" text-anchor="end">Min</text>
  <line x1="70" y1="229" x2="70" y2="233" stroke="#2C3440"/>
  <text x="70" y="243" font-family="Arimo, sans-serif" font-size="9" fill="#3D4A40" text-anchor="middle">2.0</text>
  <line x1="138" y1="229" x2="138" y2="233" stroke="#2C3440"/>
  <text x="138" y="243" font-family="Arimo, sans-serif" font-size="9" fill="#3D4A40" text-anchor="middle">3.5</text>
  <line x1="200" y1="229" x2="200" y2="233" stroke="#2C3440"/>
  <text x="200" y="243" font-family="Arimo, sans-serif" font-size="9" fill="#3D4A40" text-anchor="middle">5.0</text>
  <text x="135" y="258" font-family="Arimo, sans-serif" font-size="10" fill="#2C3440" text-anchor="middle">pH формулы</text>
  <line x1="225" y1="55" x2="225" y2="270" stroke="#D7E0CE" stroke-width="1" stroke-dasharray="4,4"/>
  <line x1="258" y1="229" x2="413" y2="229" stroke="#2C3440" stroke-width="1.5"/>
  <line x1="258" y1="79"  x2="258" y2="229" stroke="#2C3440" stroke-width="1.5"/>
  <text x="335" y="62" font-family="Arimo, sans-serif" font-size="11" font-weight="bold" fill="#2C3440" text-anchor="middle">Зависимость от конц.</text>
  <line x1="335" y1="79" x2="335" y2="229" stroke="#6D8470" stroke-width="1.5" stroke-dasharray="3,3"/>
  <path d="M 258 227 Q 300 120 335 92 Q 370 122 413 170" fill="none" stroke="#6D8470" stroke-width="2.5"/>
  <rect x="338" y="82" width="62" height="28" fill="#E6D2CA" rx="4" stroke="#9E6A5A" stroke-width="1"/>
  <text x="369" y="94" font-family="Arimo, sans-serif" font-size="9" font-weight="bold" fill="#9E6A5A" text-anchor="middle">Пик @20%</text>
  <text x="369" y="106" font-family="Arimo, sans-serif" font-size="8" fill="#3D4A40" text-anchor="middle">макс абсорб</text>
  <line x1="338" y1="92" x2="335" y2="92" stroke="#9E6A5A" stroke-width="1"/>
  <text x="387" y="155" font-family="Arimo, sans-serif" font-size="8" fill="#9E6A5A" text-anchor="middle">спад</text>
  <text x="387" y="166" font-family="Arimo, sans-serif" font-size="8" fill="#9E6A5A" text-anchor="middle">выше 20%</text>
  <line x1="254" y1="92" x2="258" y2="92" stroke="#2C3440"/>
  <text x="252" y="96" font-family="Arimo, sans-serif" font-size="8" fill="#3D4A40" text-anchor="end">Max</text>
  <line x1="254" y1="229" x2="258" y2="229" stroke="#2C3440"/>
  <text x="252" y="233" font-family="Arimo, sans-serif" font-size="8" fill="#3D4A40" text-anchor="end">Min</text>
  <line x1="258" y1="229" x2="258" y2="233" stroke="#2C3440"/>
  <text x="258" y="243" font-family="Arimo, sans-serif" font-size="9" fill="#3D4A40" text-anchor="middle">0%</text>
  <line x1="335" y1="229" x2="335" y2="233" stroke="#2C3440"/>
  <text x="335" y="243" font-family="Arimo, sans-serif" font-size="9" fill="#3D4A40" text-anchor="middle">20%</text>
  <line x1="413" y1="229" x2="413" y2="233" stroke="#2C3440"/>
  <text x="413" y="243" font-family="Arimo, sans-serif" font-size="9" fill="#3D4A40" text-anchor="middle">40%</text>
  <text x="335" y="258" font-family="Arimo, sans-serif" font-size="10" fill="#2C3440" text-anchor="middle">Концентрация L-AA</text>
  <text x="225.0" y="288" font-family="Arimo, sans-serif" font-size="8" fill="#6D8470" text-anchor="middle">Источник: Pinnell et al.,...</text>
</svg>