<svg xmlns="http://www.w3.org/2000/svg" viewBox="0 0 400 300" width="100%" height="100%">
  <rect width="400" height="300" rx="16" fill="#F8F6F4" stroke="#D7E0CE" stroke-width="1.5"/>
  <defs>
    <marker id="arrow" viewBox="0 0 10 10" refX="6" refY="5" markerWidth="6" markerHeight="6" orient="auto-start-reverse">
      <path d="M 0 1.5 L 8 5 L 0 8.5 z" fill="#2C3440"/>
    </marker>
  </defs>
  <text x="200.0" y="24" font-family="Arimo, sans-serif" font-size="13" font-weight="bold" fill="#2C3440" text-anchor="middle">Ниацинамид: Синтез церамидов</text>
  <text x="200.0" y="38" font-family="Arimo, sans-serif" font-size="10" fill="#6D8470" text-anchor="middle">Стимуляция липидов рогового слоя</text>
  <g transform="translate(24.0, 60)">
    <rect x="0" y="0" width="97.3" height="50" rx="6" fill="#E6D2CA" stroke="#6D8470" stroke-width="1.5"/>
    <text x="48.7" y="22" font-family="Arimo, sans-serif" font-size="10" font-weight="bold" fill="#2C3440" text-anchor="middle">Niacinamide</text>
    <text x="48.7" y="36" font-family="Arimo, sans-serif" font-size="8" fill="#6D8470" text-anchor="middle">Витамин B3</text>
  </g>
  <path d="M 121.3 85.0 L 145.3 85.0" fill="none" stroke="#2C3440" stroke-width="2" marker-end="url(#arrow)"/>
  <g transform="translate(151.3, 60)">
    <rect x="0" y="0" width="97.3" height="50" rx="6" fill="#D7E0CE" stroke="#6D8470" stroke-width="1.5"/>
    <text x="48.7" y="22" font-family="Arimo, sans-serif" font-size="10" font-weight="bold" fill="#2C3440" text-anchor="middle">Синтез церамидов</text>
    <text x="48.7" y="36" font-family="Arimo, sans-serif" font-size="8" fill="#6D8470" text-anchor="middle">стимуляция барьера</text>
  </g>
  <path d="M 248.7 85.0 L 272.7 85.0" fill="none" stroke="#2C3440" stroke-width="2" marker-end="url(#arrow)"/>
  <g transform="translate(278.7, 60)">
    <rect x="0" y="0" width="97.3" height="50" rx="6" fill="#F8F6F4" stroke="#2C3440" stroke-width="1.5"/>
    <text x="48.7" y="22" font-family="Arimo, sans-serif" font-size="10" font-weight="bold" fill="#2C3440" text-anchor="middle">Сфинголипиды</text>
    <text x="48.7" y="36" font-family="Arimo, sans-serif" font-size="8" fill="#6D8470" text-anchor="middle">&amp; Церамиды</text>
  </g>
  <path d="M 327 110 L 327 148" fill="none" stroke="#2C3440" stroke-width="2" marker-end="url(#arrow)"/>
  <rect x="30" y="155" width="340" height="108" rx="6" fill="#F8F6F4" stroke="#D7E0CE" stroke-width="1.5"/>
  <line x1="40" y1="168" x2="120" y2="168" stroke="#6D8470" stroke-width="2" stroke-dasharray="3,2"/>
  <text x="80" y="181" font-family="Arimo, sans-serif" font-size="9" fill="#3D4A40" text-anchor="middle">Corneocyte</text>
  <line x1="40" y1="190" x2="120" y2="190" stroke="#6D8470" stroke-width="1" stroke-dasharray="3,2"/>
  <line x1="40" y1="218" x2="120" y2="218" stroke="#6D8470" stroke-width="2" stroke-dasharray="3,2"/>
  <text x="80" y="231" font-family="Arimo, sans-serif" font-size="9" fill="#3D4A40" text-anchor="middle">Corneocyte</text>
  <line x1="40" y1="244" x2="120" y2="244" stroke="#6D8470" stroke-width="1" stroke-dasharray="3,2"/>
  <circle cx="143" cy="197" r="4" fill="#6D8470"/>
  <line x1="143" y1="201" x2="143" y2="209" stroke="#2C3440" stroke-width="1"/>
  <circle cx="143" cy="217" r="4" fill="#6D8470"/>
  <circle cx="157" cy="197" r="4" fill="#6D8470"/>
  <line x1="157" y1="201" x2="157" y2="209" stroke="#2C3440" stroke-width="1"/>
  <circle cx="157" cy="217" r="4" fill="#6D8470"/>
  <circle cx="171" cy="197" r="4" fill="#6D8470"/>
  <line x1="171" y1="201" x2="171" y2="209" stroke="#2C3440" stroke-width="1"/>
  <circle cx="171" cy="217" r="4" fill="#6D8470"/>
  <circle cx="185" cy="197" r="4" fill="#6D8470"/>
  <line x1="185" y1="201" x2="185" y2="209" stroke="#2C3440" stroke-width="1"/>
  <circle cx="185" cy="217" r="4" fill="#6D8470"/>
  <text x="200" y="175" font-family="Arimo, sans-serif" font-size="10" font-weight="bold" fill="#6D8470">Липидные пласты</text>
  <text x="200" y="191" font-family="Arimo, sans-serif" font-size="9" fill="#3D4A40">Церамиды &amp; липиды</text>
  <text x="200" y="207" font-family="Arimo, sans-serif" font-size="9" fill="#9E6A5A" font-weight="bold">Блокада TEWL</text>
  <text x="200" y="223" font-family="Arimo, sans-serif" font-size="8" fill="#6D8470">снижение испарения</text>
  <text x="200" y="235" font-family="Arimo, sans-serif" font-size="8" fill="#6D8470">воды кожей</text>
  <text x="200.0" y="288" font-family="Arimo, sans-serif" font-size="8" fill="#6D8470" text-anchor="middle">Источник: fact_0024 - Tanno 2000, PMID 10971556</text>
</svg>