<svg xmlns="http://www.w3.org/2000/svg" viewBox="0 0 400 300" width="100%" height="100%">
  <rect width="400" height="300" rx="16" fill="#F8F6F4" stroke="#D7E0CE" stroke-width="1.5"/>
  <defs>
    <marker id="arrow" viewBox="0 0 10 10" refX="6" refY="5" markerWidth="6" markerHeight="6" orient="auto-start-reverse">
      <path d="M 0 1.5 L 8 5 L 0 8.5 z" fill="#2C3440"/>
    </marker>
  </defs>
  <text x="200.0" y="24" font-family="Arimo, sans-serif" font-size="13" font-weight="bold" fill="#2C3440" text-anchor="middle">Стимуляция коллагена I/III</text>
  <text x="200.0" y="38" font-family="Arimo, sans-serif" font-size="10" fill="#6D8470" text-anchor="middle">Витамин C усиливает мРНК</text>
  <g transform="translate(24.0, 60)">
    <rect x="0" y="0" width="97.3" height="50" rx="6" fill="#E6D2CA" stroke="#6D8470" stroke-width="1.5"/>
    <text x="48.7" y="22" font-family="Arimo, sans-serif" font-size="10" font-weight="bold" fill="#2C3440" text-anchor="middle">L-Ascorbate</text>
    <text x="48.7" y="36" font-family="Arimo, sans-serif" font-size="8" fill="#6D8470" text-anchor="middle">Витамин C</text>
  </g>
  <path d="M 121.3 85.0 L 145.3 85.0" fill="none" stroke="#2C3440" stroke-width="2" marker-end="url(#arrow)"/>
  <g transform="translate(151.3, 60)">
    <rect x="0" y="0" width="97.3" height="50" rx="6" fill="#D7E0CE" stroke="#6D8470" stroke-width="1.5"/>
    <text x="48.7" y="22" font-family="Arimo, sans-serif" font-size="10" font-weight="bold" fill="#2C3440" text-anchor="middle">Экспрессия генов</text>
    <text x="48.7" y="36" font-family="Arimo, sans-serif" font-size="8" fill="#6D8470" text-anchor="middle">mRNA COL1A1/3</text>
  </g>
  <path d="M 248.7 85.0 L 272.7 85.0" fill="none" stroke="#2C3440" stroke-width="2" marker-end="url(#arrow)"/>
  <g transform="translate(278.7, 60)">
    <rect x="0" y="0" width="97.3" height="50" rx="6" fill="#F8F6F4" stroke="#2C3440" stroke-width="1.5"/>
    <text x="48.7" y="22" font-family="Arimo, sans-serif" font-size="10" font-weight="bold" fill="#2C3440" text-anchor="middle">Коллаген I / III</text>
    <text x="48.7" y="36" font-family="Arimo, sans-serif" font-size="8" fill="#6D8470" text-anchor="middle">Тройная спираль</text>
  </g>
  <text x="24" y="135" font-family="Arimo, sans-serif" font-size="9" fill="#6D8470" font-weight="bold">Транскрипция генов:</text>
  <ellipse cx="200" cy="220" rx="168" ry="60" fill="none" stroke="#6D8470" stroke-width="1.5" stroke-dasharray="5,4"/>
  <text x="200" y="152" font-family="Arimo, sans-serif" font-size="9" font-weight="bold" fill="#6D8470" letter-spacing="0.08em" text-anchor="middle">ЯДРО / NUCLEUS</text>
  <path d="M 38 213 Q 58 198 78 213 T 118 213 T 158 213" fill="none" stroke="#3D4A40" stroke-width="2.5"/>
  <path d="M 38 233 Q 58 248 78 233 T 118 233 T 158 233" fill="none" stroke="#6D8470" stroke-width="2.5"/>
  <line x1="58" y1="214" x2="58" y2="232" stroke="#3D4A40" stroke-width="1" opacity="0.5"/>
  <line x1="98" y1="214" x2="98" y2="232" stroke="#3D4A40" stroke-width="1" opacity="0.5"/>
  <line x1="138" y1="214" x2="138" y2="232" stroke="#3D4A40" stroke-width="1" opacity="0.5"/>
  <text x="98" y="252" font-family="Arimo, sans-serif" font-size="8" fill="#3D4A40" text-anchor="middle">ДНК - гены COL1A1/3</text>
  <path d="M 200 208 L 200 168" fill="none" stroke="#9E6A5A" stroke-width="1.5" stroke-dasharray="3,2" marker-end="url(#arrow)"/>
  <text x="210" y="190" font-family="Arimo, sans-serif" font-size="8" fill="#9E6A5A">мРНК</text>
  <path d="M 250 213 Q 270 198 290 213 T 330 213 T 360 213" fill="none" stroke="#3D4A40" stroke-width="2.5" opacity="0.5"/>
  <path d="M 250 233 Q 270 248 290 233 T 330 233 T 360 233" fill="none" stroke="#6D8470" stroke-width="2.5" opacity="0.5"/>
  <text x="305" y="252" font-family="Arimo, sans-serif" font-size="8" fill="#3D4A40" text-anchor="middle">Хроматин</text>
  <text x="200.0" y="288" font-family="Arimo, sans-serif" font-size="8" fill="#6D8470" text-anchor="middle">Источник: fact_0030/46 - Pinnell...</text>
</svg>