<svg xmlns="http://www.w3.org/2000/svg" viewBox="0 0 400 300" width="100%" height="100%">
  <!-- Background -->
  <rect width="400" height="300" rx="16" fill="#F8F6F4" stroke="#D7E0CE" stroke-width="1.5"/>
  
  <!-- Title / Header -->
  <text x="20" y="30" font-family="Arimo, sans-serif" font-size="14" font-weight="bold" fill="#1D291C">МЕХАНИЗМ RAR / RXR RECEPTORS</text>
  <text x="20" y="45" font-family="Arimo, sans-serif" font-size="10" fill="#6D8470">Связывание ретиноевой кислоты (RA) с рецепторами ядер</text>

  <!-- Cell & Nucleus Borders (Subtle representation) -->
  <!-- Nucleus Border -->
  <path d="M 100 280 C 100 120, 380 120, 380 280" fill="none" stroke="#6D8470" stroke-width="1.5" stroke-dasharray="4,4"/>
  <text x="290" y="185" font-family="Arimo, sans-serif" font-size="9" font-weight="bold" fill="#6D8470" letter-spacing="0.1em">ЯДРО / NUCLEUS</text>

  <!-- Cytoplasm area label -->
  <text x="30" y="90" font-family="Arimo, sans-serif" font-size="9" font-weight="bold" fill="#6D8470" letter-spacing="0.1em">ЦИТОПЛАЗМА</text>

  <!-- Molecule: Tretinoin (Active RA) entering -->
  <!-- RA Molecule Icon -->
  <g transform="translate(60, 110)">
    <circle cx="0" cy="0" r="14" fill="#6D8470" opacity="0.15"/>
    <polygon points="-6,-1 0,-7 6,-1 2,7 -2,7" fill="none" stroke="#1D291C" stroke-width="2"/>
    <circle cx="0" cy="0" r="3" fill="#9E6A5A"/>
    <text x="18" y="4" font-family="Arimo, sans-serif" font-size="11" font-weight="bold" fill="#1D291C">RA (Третиноин)</text>
  </g>
  
  <!-- Entry Arrow -->
  <path d="M 130 135 L 180 165" fill="none" stroke="#6D8470" stroke-width="2" marker-end="url(#arrow)"/>

  <!-- DNA Strand -->
  <g transform="translate(130, 230)">
    <!-- Main axis of DNA -->
    <line x1="0" y1="0" x2="220" y2="0" stroke="#3D4A40" stroke-width="3"/>
    <!-- Helix lines -->
    <path d="M 10 -15 Q 35 15, 60 -15 T 110 -15 T 160 -15 T 210 -15" fill="none" stroke="#6D8470" stroke-width="1.5"/>
    <path d="M 10 15 Q 35 -15, 60 15 T 110 15 T 160 15 T 210 15" fill="none" stroke="#6D8470" stroke-width="1.5"/>
    
    <!-- DNA connections -->
    <line x1="22" y1="-8" x2="22" y2="8" stroke="#3D4A40" stroke-width="1"/>
    <line x1="47" y1="-8" x2="47" y2="8" stroke="#3D4A40" stroke-width="1"/>
    <line x1="72" y1="-8" x2="72" y2="8" stroke="#3D4A40" stroke-width="1"/>
    <line x1="97" y1="-8" x2="97" y2="8" stroke="#3D4A40" stroke-width="1"/>
    <line x1="122" y1="-8" x2="122" y2="8" stroke="#3D4A40" stroke-width="1"/>
    <line x1="147" y1="-8" x2="147" y2="8" stroke="#3D4A40" stroke-width="1"/>
    <line x1="172" y1="-8" x2="172" y2="8" stroke="#3D4A40" stroke-width="1"/>
    <line x1="197" y1="-8" x2="197" y2="8" stroke="#3D4A40" stroke-width="1"/>

    <!-- RARE box -->
    <rect x="72" y="-9" width="76" height="18" rx="4" fill="#E6D2CA" stroke="#9E6A5A" stroke-width="1" opacity="0.9"/>
    <text x="110" y="3" font-family="Arimo, sans-serif" font-size="9" font-weight="bold" fill="#9E6A5A" text-anchor="middle">RARE Element</text>
  </g>

  <!-- Receptor Complex RAR / RXR -->
  <g transform="translate(240, 215)">
    <!-- RXR Receptor -->
    <rect x="-45" y="-25" width="40" height="30" rx="10" fill="#D7E0CE" stroke="#6D8470" stroke-width="1.5"/>
    <text x="-25" y="-6" font-family="Arimo, sans-serif" font-size="10" font-weight="bold" fill="#1D291C" text-anchor="middle">RXR</text>

    <!-- RAR Receptor -->
    <rect x="5" y="-25" width="40" height="30" rx="10" fill="#6D8470" stroke="#1D291C" stroke-width="1.5"/>
    <text x="25" y="-6" font-family="Arimo, sans-serif" font-size="10" font-weight="bold" fill="#F8F6F4" text-anchor="middle">RAR</text>

    <!-- Bound Ligand (RA) -->
    <circle cx="38" cy="-20" r="7" fill="#9E6A5A" stroke="#1D291C" stroke-width="1"/>
    <text x="38" y="-17" font-family="Arimo, sans-serif" font-size="8" font-weight="bold" fill="#F8F6F4" text-anchor="middle">L</text>
  </g>

  <!-- Transcription Activation -->
  <!-- Curved Arrow pointing up from complex -->
  <path d="M 260 170 Q 280 120, 320 120" fill="none" stroke="#1D291C" stroke-width="2" stroke-dasharray="2,2" marker-end="url(#arrow-dark)"/>
  
  <rect x="300" y="85" width="85" height="30" rx="6" fill="#D7E0CE" stroke="#6D8470" stroke-width="1"/>
  <text x="342" y="98" font-family="Arimo, sans-serif" font-size="9" font-weight="bold" fill="#1D291C" text-anchor="middle">ТРАНСКРИПЦИЯ</text>
  <text x="342" y="110" font-family="Arimo, sans-serif" font-size="8" fill="#3D4A40" text-anchor="middle">активация генов</text>

  <!-- Markers -->
  <defs>
    <marker id="arrow" viewBox="0 0 10 10" refX="6" refY="5" markerWidth="6" markerHeight="6" orient="auto-start-reverse">
      <path d="M 0 2 L 8 5 L 0 8 z" fill="#6D8470"/>
    </marker>
    <marker id="arrow-dark" viewBox="0 0 10 10" refX="6" refY="5" markerWidth="6" markerHeight="6" orient="auto-start-reverse">
      <path d="M 0 2 L 8 5 L 0 8 z" fill="#1D291C"/>
    </marker>
  </defs>
</svg>
