<svg xmlns="http://www.w3.org/2000/svg" viewBox="0 0 1230 469" width="1230" height="469">
  <g fill="#000000">
    <path d="M0 0 C9.103564510389333 7.013776916224153 15.431371857804038 15.878003086107157 17.12646484375 27.39111328125 C18.50491583583522 38.604371183195795 15.785570186760424 49.277783137207834 9.14697265625 58.45703125 C2.2460406651507014 67.23618678357363 -7.9248581955733925 71.82238279146357 -18.728515625 73.57080078125 C-18.55835937500001 74.02326171875 -18.388203125000018 74.47572265625 -18.212890625 74.94189453125 C-16.305566689018576 80.22783015186609 -14.908414583329659 85.61191331092084 -13.603515625 91.07080078125 C-13.56047302246094 91.24691390991211 -13.56047302246094 91.24691390991211 -13.3426513671875 92.13815307617188 C-11.3079179146672 100.5045982520063 -10.491837745487658 108.84287212734955 -10.478515625 117.44580078125 C-10.477840881347674 117.8475451660156 -10.477166137695349 118.24928955078127 -10.476470947265625 118.6632080078125 C-10.540831973921172 143.26957135758235 -17.602020491956182 164.74708143284792 -33.728515625 183.57080078125 C-30.576510104237343 188.01593677206913 -27.348170775744535 192.1235040974609 -23.42138671875 195.9091796875 C-19.962470326324194 199.26066440051602 -16.855202393752393 202.9119120093057 -13.728515625 206.57080078125 C-9.728515625 207.57080078125 -9.728515625 207.57080078125 -8.732421875 207.13330078125 C-1.791089050546418 204.42448797170715 4.8485731944279 204.79733817890383 11.66748046875 207.66845703125 C18.33925737273927 210.80934847290837 22.613533275366024 215.7886808311082 25.18896484375 222.664794921875 C27.412870374576414 229.49205635205954 27.192404272263957 235.97319281973415 24.03369140625 242.448974609375 C23.472202712495573 243.50727418532483 22.883832179695503 244.54119846743333 22.271484375 245.57080078125 C22.100200195312482 245.86470703124996 21.928916015624964 246.15861328125004 21.75244140625 246.46142578125 C18.55319178825016 251.67365186398553 13.094590502718574 255.00296990751423 7.271484375 256.57080078125 C0.6902373015232115 257.63705750135574 -7.137677572520261 257.82748196099885 -12.916015625 254.03564453125 C-19.00232342060343 249.40022095019583 -23.79751589287602 243.74407537632533 -24.9599609375 236.0361328125 C-25.102831642219456 234.45706184180693 -25.158304288413717 232.9062033875374 -25.166015625 231.32080078125 C-25.169882812499992 230.7630395507813 -25.173750000000013 230.20527832031246 -25.177734375 229.630615234375 C-25.019325613030333 223.84457019430556 -22.81975187928157 219.36386124998978 -19.728515625 214.57080078125 C-21.247268985385375 211.0672216006784 -23.32159267785974 208.59712655118054 -25.916015625 205.82080078125 C-26.725123023833987 204.93976180119122 -27.533710236599973 204.0582448438695 -28.341796875 203.17626953125 C-28.7435009765625 202.7397607421875 -29.145205078125002 202.303251953125 -29.55908203125 201.853515625 C-31.55745959102444 199.6615582765543 -33.49625778366462 197.41830693584836 -35.432373046875 195.17138671875 C-37.12419120309113 193.220215825672 -38.88291365632094 191.37772246914835 -40.728515625 189.57080078125 C-40.96336669921874 189.7514306640625 -41.198217773437506 189.932060546875 -41.440185546875 190.1181640625 C-62.06807777417794 205.7682735261092 -86.8452018717675 209.71299296105337 -112.08802795410156 206.44802856445313 C-131.45265581617195 203.7733187158133 -150.93851656504856 195.1491813840815 -163.149169921875 179.41357421875 C-180.30328037164583 156.70606588619992 -184.34148803328128 127.73194358930641 -180.63523864746094 100.06950378417969 C-177.72140457221295 79.75834122772171 -168.59847347087666 60.32364603786925 -152.080078125 47.5517578125 C-135.74578311269005 35.69641146866667 -117.02599578027059 31.14694781715218 -97.041015625 31.25830078125 C-96.43033233642578 31.25879425048828 -95.81964904785156 31.259287719726558 -95.19046020507813 31.259796142578125 C-84.38244387691668 31.28648696710266 -74.0221476660106 32.05104272851733 -63.728515625 35.57080078125 C-63.69935058593751 35.20954101562501 -63.67018554687502 34.84828125 -63.64013671875 34.47607421875 C-62.79884196852652 25.064274998935574 -60.72443258258667 17.653971795851234 -55.728515625 9.57080078125 C-55.53418945312501 9.246440429687496 -55.33986328125002 8.922080078125 -55.1396484375 8.587890625 C-50.78448155191751 1.5882277654547678 -41.480833640918064 -3.5390920244859387 -33.705810546875 -5.70361328125 C-22.2282708451022 -8.33904757743445 -9.702327106330472 -6.919458325013892 0 0 Z M-41.017578125 17.6953125 C-45.37035738882261 23.055568832440883 -47.20241566652953 29.703266281118744 -46.728515625 36.57080078125 C-45.86948903061676 42.287770874903885 -43.334176105541644 47.93941463313064 -38.728515625 51.57080078125 C-32.396641541539395 56.173022002143654 -25.85221519583959 57.737569147235746 -18.09326171875 56.8056640625 C-11.213693539806627 55.62173837589114 -6.463757099856139 51.12636402727675 -2.41943359375 45.646240234375 C1.0969640895089015 40.17283677333069 1.082441842247249 33.8546596897625 0.271484375 27.57080078125 C-1.0957376824766243 21.455054803720287 -5.620578140359896 16.806450893165042 -10.59912109375 13.27099609375 C-20.443095934901862 7.1679870482628445 -33.284045525724 9.049900734701112 -41.017578125 17.6953125 Z M-131.728515625 63.57080078125 C-132.02693359375002 63.778178710937496 -132.3253515625 63.98555664062499 -132.6328125 64.19921875 C-144.20362857173137 72.37365998655847 -150.28950681588623 87.09359889382597 -152.728515625 100.57080078125 C-152.8227783203125 101.08634521484376 -152.917041015625 101.60188964843749 -153.01416015625 102.133056640625 C-153.8495177155957 107.25055567815511 -153.9716100653037 112.3351002216479 -153.978515625 117.50830078125 C-153.97919036865233 117.96623016357421 -153.97986511230468 118.42415954589842 -153.98056030273438 118.89596557617188 C-153.93831708620831 137.098054341902 -149.60411998931247 156.8734430832801 -136.416015625 170.32080078125 C-135.22493493705235 171.4532768943921 -133.99363757770175 172.52205561860973 -132.728515625 173.57080078125 C-132.4160791015625 173.833447265625 -132.103642578125 174.09609375 -131.78173828125 174.36669921875 C-119.59352918189586 184.2814917389888 -103.13539328569783 186.5816554967419 -87.948974609375 185.169189453125 C-78.10791016640476 184.01697269492695 -68.56263551003991 180.77469918732208 -60.728515625 174.57080078125 C-60.17395376054202 174.17218843503957 -59.619258543921376 173.77376156832554 -59.064453125 173.37548828125 C-47.19640259707268 164.46375103323356 -41.525726404656865 148.5004818676523 -39.387451171875 134.3145294189453 C-36.54011547868387 113.83921513939441 -38.42030377809016 90.84592344592653 -51.017578125 73.72705078125 C-55.734655814771145 67.65985544882352 -60.698448679929754 62.70450954621165 -67.603515625 59.19580078125 C-67.82595947265625 59.082564697265624 -67.82595947265625 59.082564697265624 -68.95166015625 58.509521484375 C-77.64466046012149 54.458370204409675 -86.52993691952753 53.008983405605306 -96.041015625 53.13330078125 C-96.53886566162109 53.13634216308594 -97.03671569824218 53.139383544921884 -97.54965209960938 53.14251708984375 C-110.3900704023855 53.25797694070296 -121.14960723815506 55.99332642130855 -131.728515625 63.57080078125 Z M-11.966796875 223.38720703125 C-13.212784678318087 225.32328038717503 -13.856088146479237 226.6201441058692 -13.826171875 228.95361328125 C-13.822949218750011 229.39833984375002 -13.819726562500023 229.84306640625 -13.81640625 230.30126953125 C-13.808027343750041 230.76146484375 -13.799648437499968 231.22166015624998 -13.791015625 231.69580078125 C-13.786503906250005 232.16373046875003 -13.781992187500009 232.63166015625 -13.77734375 233.11376953125 C-13.736053460156427 237.16021793592216 -12.263835164328839 239.3335198059507 -9.728515625 242.57080078125 C-6.644006940294048 245.29424657644188 -2.8310555119275023 246.61024828016275 1.271484375 246.57080078125 C5.6993905266260185 245.67807776680928 8.23240183178325 244.62874723841537 11.208984375 241.19580078125 C11.486777343749964 240.87869140625003 11.764570312499984 240.56158203125 12.05078125 240.23486328125 C12.318261718750023 239.92548828125 12.585742187499989 239.61611328125002 12.861328125 239.29736328125 C13.107458496093727 239.0145751953125 13.353588867187511 238.73178710937498 13.607177734375 238.4404296875 C15.819007792095874 235.54497262553684 15.783482637916507 232.16745394852364 15.47705078125 228.6552734375 C14.904683461312914 225.6357299278082 13.004906458574169 223.0471180434988 11.271484375 220.57080078125 C2.978893826701892 214.9247816845364 -5.513857527785376 214.6471499407188 -11.966796875 223.38720703125 Z " transform="translate(275.728515625,45.42919921875)" />
    <path d="M0 0 C0.3203320312500182 0.006767578124993179 0.3203320312500182 0.006767578124993179 1.94140625 0.041015625 C6.6336503095494095 0.14606586513916398 6.962657065293058 0.39009423917583774 11.625 3.1875 C13.154039838716471 5.958884707673619 13.625 6.869664605379384 13.625 10.1875 C11.314999999999998 10.517499999999998 9.004999999999995 10.847499999999997 6.625 11.1875 C5.634999999999991 9.867500000000007 4.644999999999982 8.5475 3.625 7.1875 C-0.42953459690335194 6.114240841996178 -3.2681176660221922 6.327919976609294 -7.375 7.1875 C-7.045000000000016 9.167500000000004 -6.714999999999975 11.147500000000008 -6.375 13.1875 C-6.160894775390602 13.252758789062497 -6.160894775390602 13.252758789062497 -5.077392578125 13.5830078125 C-3.462240324756749 14.08118576613849 -1.850888165523088 14.589279921408007 -0.240966796875 15.10400390625 C0.45115856202141913 15.323110103295761 1.1445045219477947 15.538404109167487 1.839111328125 15.74951171875 C6.510630817294327 17.172891664186423 11.521884599001055 18.81296322893749 14.24853515625 23.18798828125 C14.873787158371385 24.848028292070268 14.727645352716593 26.564633104801004 14.6875 28.3125 C14.682988281250005 28.68503906250001 14.678476562500009 29.057578124999992 14.673828125 29.44140625 C14.616621592371985 33.90351579498474 14.372719092039347 32.56592136194098 10.625 38.1875 C6.702847346931605 40.020759433743336 3.4996937179051315 40.54263291259343 -0.8125 40.5 C-1.099880371093775 40.49790527343748 -1.099880371093775 40.49790527343748 -2.55419921875 40.4873046875 C-7.38828747092856 40.35795532920088 -10.782563920624511 39.6973086346145 -14.35546875 36.23828125 C-16.180833396427147 34.070125120675755 -16.881557748968646 31.950776605775644 -17.375 29.1875 C-16.055000000000007 29.022500000000008 -16.055000000000007 29.022500000000008 -9.375 28.1875 C-7.725000000000023 29.837500000000006 -6.074999999999989 31.48750000000001 -4.375 33.1875 C-3.828437500000007 33.1978125 -3.828437500000007 33.1978125 -1.0625 33.25 C-0.44761718749998636 33.261601562500005 0.16726562500002728 33.27320312500001 0.80078125 33.28515625 C2.596580205282919 33.189021402286784 3.958305874631151 32.83879278129797 5.625 32.1875 C5.954999999999984 30.867500000000007 6.285000000000025 29.547500000000014 6.625 28.1875 C4.625 25.1875 4.625 25.1875 3.203857421875 24.776123046875 C1.4508782526722257 24.26588287471 -0.2980754183857357 23.742863694394458 -2.046142578125 23.216064453125 C-2.8006512136661286 22.990599519680956 -3.556183832029035 22.76853044468851 -4.312744140625 22.550048828125 C-5.405433668566445 22.233838740606018 -6.493754168264445 21.90525425694625 -7.58203125 21.57421875 C-7.916527862548833 21.480333709716803 -8.251024475097665 21.386448669433605 -8.595657348632813 21.289718627929688 C-11.259629354448293 20.458523826285074 -12.588747314088607 19.24773832048814 -14.375 17.1875 C-15.922071237224657 13.816136668013371 -16.102498858471108 9.363670498383073 -14.92578125 5.84375 C-12.050637775879238 0.13424522869631517 -5.734211493511054 -0.23343867249157313 0 0 Z " transform="translate(420.375,110.8125)" />
    <path d="M0 0 C2.3100000000000023 0 4.6200000000000045 0 7 0 C7.329999999999984 5.280000000000001 7.660000000000025 10.560000000000002 8 16 C13.257153231116263 10.822500605718858 18.290627800819607 5.675397265678967 23 0 C25.970000000000027 0 28.939999999999998 0 32 0 C28.361366868249092 6.284911773024291 23.196199786908267 10.996801919462612 18 16 C19.41469782482477 19.02040970194662 21.06732694998402 21.64373577557265 23.0390625 24.328125 C23.324781188964835 24.721994018554682 23.61049987792967 25.115863037109364 23.904876708984375 25.52166748046875 C24.80883639871854 26.766471528222723 25.716834555397554 28.00826210971553 26.625 29.25 C27.2424579199685 30.098761673828704 27.85964811060876 30.947718184061728 28.4765625 31.796875 C29.9812894706169 33.866848480341844 31.48964303817627 35.9341313351095 33 38 C33 38.66 33 39.31999999999999 33 40 C30.360000000000014 40 27.720000000000027 40 25 40 C20.49684802388964 34.44648503194327 16.056850724273886 28.89023518620536 12 23 C11.339999999999975 23.329999999999984 11.339999999999975 23.329999999999984 8 25 C7.670000000000016 29.94999999999999 7.339999999999975 34.900000000000006 7 40 C4.689999999999998 40 2.3799999999999955 40 0 40 C0 26.80000000000001 0 13.599999999999994 0 0 Z " transform="translate(462,111)" />
    <path d="M0 0 C2.9700000000000273 0 5.940000000000055 0 9 0 C9 13.200000000000003 9 26.400000000000006 9 40 C6.029999999999973 40 3.0599999999999454 40 0 40 C0 26.80000000000001 0 13.599999999999994 0 0 Z " transform="translate(520,111)" />
    <path d="M0 0 C2.9700000000000273 0 5.940000000000055 0 9 0 C10.334743048875112 2.379211881295845 11.667945738841468 4.759181142180637 12.997802734375 7.14111328125 C13.447844966773232 7.946250783034387 13.898656166390879 8.750959082259115 14.350341796875 9.55517578125 C15.010482215571983 10.730889554884584 15.667560277732719 11.908276117070827 16.32421875 13.0859375 C16.42068443298342 13.256995086669917 16.42068443298342 13.256995086669917 16.908859252929688 14.122650146484375 C19.436866756453696 18.67210812523399 21.666399443207297 23.332798886414622 24 28 C24.33000000000004 18.75999999999999 24.659999999999968 9.519999999999996 25 0 C26.980000000000018 0 28.960000000000036 0 31 0 C31 13.200000000000003 31 26.400000000000006 31 40 C28.029999999999973 40 25.059999999999945 40 22 40 C17.379999999999995 31.090000000000003 12.759999999999991 22.180000000000007 8 13 C7.669999999999959 21.909999999999997 7.340000000000032 30.819999999999993 7 40 C5.019999999999982 40 3.0399999999999636 40 1 40 C0.6699999999999591 39.670000000000016 0.34000000000003183 39.34 0 39 C0 26.129999999999995 0 13.259999999999991 0 0 Z " transform="translate(556,111)" />
    <path d="M0 0 C9.57000000000005 0 19.139999999999986 0 29 0 C29 1.980000000000004 29 3.9599999999999937 29 6 C28.66999999999996 6.329999999999998 28.340000000000032 6.659999999999997 28 7 C21.399999999999977 7 14.799999999999955 7 8 7 C8 9.969999999999999 8 12.939999999999998 8 16 C14.269999999999982 16 20.539999999999964 16 27 16 C27 18.310000000000002 27 20.620000000000005 27 23 C20.730000000000018 23 14.460000000000036 23 8 23 C8 26.30000000000001 8 29.599999999999994 8 33 C15.259999999999991 33 22.519999999999982 33 30 33 C30 34.97999999999999 30 36.96000000000001 30 39 C29.66999999999996 39.329999999999984 29.340000000000032 39.66 29 40 C19.42999999999995 40 9.860000000000014 40 0 40 C0 26.80000000000001 0 13.599999999999994 0 0 Z " transform="translate(651,111)" />
    <path d="M0 0 C22.863636363636374 0 22.863636363636374 0 28.875 5.75 C32.581961417255 10.804947387165981 33.81703684713091 16.82115884357225 33 23 C31.798491669811597 28.95484391716164 29.86359658958395 33.2083145008836 25 37 C24.752500000000055 37.20625000000001 24.752500000000055 37.20625000000001 23.5 38.25 C18.920451554400984 40.53977422279951 13.675283973171986 40.12120587399025 8.6875 40.0625 C7.939456133778094 40.05747304143662 7.191408982961093 40.05291225694998 6.443359375 40.048828125 C1.016207030249575 40.016207030249575 1.016207030249575 40.016207030249575 0 39 C0 26.129999999999995 0 13.259999999999991 0 0 Z M8 7 C8 15.579999999999998 8 24.159999999999997 8 33 C18.8026315789474 33 18.8026315789474 33 23 29 C25.911856828497548 25.019974586174158 25.183200135009088 19.671603442732277 25 15 C24.594681531482706 14.223139602008416 24.17496348070165 13.453790531690714 23.75 12.6875 C23.633984374999955 12.472871093750001 23.633984374999955 12.472871093750001 23.046875 11.38671875 C22 10 22 10 18 7 C14.700000000000045 7 11.399999999999977 7 8 7 Z " transform="translate(707,111)" />
    <path d="M0 0 C2.6399999999999864 0 5.279999999999973 0 8 0 C8.330000000000041 9.569999999999993 8.659999999999968 19.139999999999986 9 29 C9.659999999999968 29.99000000000001 10.32000000000005 30.97999999999999 11 32 C13.309999999999945 32.329999999999984 15.620000000000005 32.66 18 33 C23 28 23 28 24 0 C26.639999999999986 0 29.279999999999973 0 32 0 C32.07471317348427 3.859414341063527 32.12886370740364 7.718398540677981 32.164794921875 11.578369140625 C32.17978908119403 12.888665192085966 32.20019151943018 14.198911851676073 32.226318359375 15.509033203125 C32.509221411107205 30.070219689340547 32.509221411107205 30.070219689340547 29 35 C25.43653305704902 38.63706694865738 22.194206822619435 40.104353482964854 17.128173828125 40.240234375 C11.897739290971572 40.27568893888514 8.43957679915843 39.9405256242689 4 37 C-1.4033919245373454 30.833615021856843 -0.47503796626460826 23.31763125261324 -0.274658203125 15.61248779296875 C-0.23325044080411317 13.849275577109424 -0.2153681024474281 12.085827048360272 -0.1953125 10.322265625 C-0.1528050090112174 6.8808794570127105 -0.08263927745883848 3.440654532661142 0 0 Z " transform="translate(766,111)" />
    <path d="M0 0 C0.31259765624997726 0.0016113281249943157 0.31259765624997726 0.0016113281249943157 1.89453125 0.009765625 C2.5455078124999773 0.018144531250001705 3.1964843749999545 0.02652343750000341 3.8671875 0.03515625 C4.525898437500018 0.03966796874999545 5.184609375000036 0.044179687500005116 5.86328125 0.048828125 C10.68953870428561 0.08380100510352406 12.831620106282685 1.1522925132561852 16.7421875 4.09765625 C19.025821151714467 6.573683945631757 19.7421875 7.649785856139374 19.7421875 11.09765625 C17.432187500000055 11.427656249999998 15.122187499999995 11.757656249999997 12.7421875 12.09765625 C12.25390625 11.593098958333329 12.25390625 11.593098958333329 9.8125 9.0703125 C7.769335040528972 7.21356770106469 6.36745202311522 6.975367890801849 3.6171875 7.03515625 C2.668437499999982 7.0557812499999955 1.7196874999999636 7.076406250000005 0.7421875 7.09765625 C-4.2578125 11.09765625 -4.2578125 11.09765625 -5.2578125 14.09765625 C-5.371337890625 15.539794921875014 -5.371337890625 15.539794921875014 -5.35546875 17.015625 C-5.3522460937499545 17.54736328125 -5.349023437500023 18.0791015625 -5.345703125 18.626953125 C-5.341513671874964 18.900556640624984 -5.341513671874964 18.900556640624984 -5.3203125 20.28515625 C-5.3158007812500045 20.84396484375 -5.311289062500009 21.402773437500002 -5.306640625 21.978515625 C-5.267963684126244 26.503717707228475 -5.079947702158165 26.39409757973644 -2.2578125 31.09765625 C1.7421875 33.09765625 1.7421875 33.09765625 8.7421875 32.09765625 C10.392187499999977 30.11765625000001 12.042187499999955 28.137656249999992 13.7421875 26.09765625 C15.722187500000018 26.757656249999997 17.702187500000036 27.417656249999993 19.7421875 28.09765625 C18.734577149923894 33.135708000380504 18.734577149923894 33.135708000380504 16.4921875 35.47265625 C16.07453124999995 35.913515625 15.656875000000014 36.354375000000005 15.2265625 36.80859375 C11.885458166872468 39.71007909192656 8.876348858822894 40.484960509207355 4.4921875 40.47265625 C4.253187255859416 40.47330078125 4.253187255859416 40.47330078125 3.043701171875 40.4765625 C-1.7358565466225855 40.33605771321939 -5.293748890250754 38.641926303248795 -9.2578125 36.09765625 C-9.910007400600875 35.017742833191136 -10.554436408215793 33.934262772402235 -11.1953125 32.84765625 C-11.377714843750027 32.5473046875 -11.560117187500055 32.246953125000005 -11.748046875 31.9375 C-14.868195565311453 26.604882238376774 -15.293514480273643 19.739699602762556 -13.958984375 13.75830078125 C-12.773518916566331 9.58589683134393 -11.725316377416107 6.481851383725726 -8.3828125 3.66015625 C-8.113398437499995 3.4300585937500045 -7.843984374999991 3.199960937499995 -7.56640625 2.962890625 C-4.927728844456055 0.7425401252129973 -3.472233329597884 -0.03156575754179869 0 0 Z " transform="translate(838.2578125,110.90234375)" />
    <path d="M0 0 C3.2999999999999545 0 6.600000000000023 0 10 0 C11.696576506287897 5.067168661067441 13.391891751356184 10.13475442716745 15.084968566894531 15.203093528747559 C15.871118386731155 17.556316625192466 16.657827182012284 19.909349794206605 17.44580078125 22.261962890625 C18.205719427935264 24.53088125132726 18.964186259033795 26.80028007805842 19.721633911132813 29.070024490356445 C20.011377628022046 29.93740297190797 20.301650765687214 30.8046047824958 20.592453002929688 31.671628952026367 C20.998570525529544 32.88275958952232 21.402828659960846 34.09449553437537 21.806640625 35.306396484375 C21.928200225830096 35.66748001098634 22.049759826660193 36.02856353759765 22.175003051757813 36.40058898925781 C23 38.885947838719915 23 38.885947838719915 23 40 C20.360000000000014 40 17.720000000000027 40 15 40 C14.504999999999995 38.514999999999986 14.504999999999995 38.514999999999986 12 31 C9.690000000000055 30.835000000000008 9.690000000000055 30.835000000000008 -2 30 C-2.990000000000009 33.30000000000001 -3.980000000000018 36.599999999999994 -5 40 C-7.309999999999945 40 -9.620000000000005 40 -12 40 C-11.400253769619667 34.751474531149114 -10.20444950333001 30.06990212137663 -8.49609375 25.09765625 C-8.250370630056977 24.367970908247855 -8.005187302172203 23.63810359291662 -7.7605133056640625 22.908065795898438 C-7.123064629869759 21.010806165199256 -6.478441021793401 19.11606558661674 -5.8321533203125 17.2218017578125 C-5.170754013389228 15.278928507626802 -4.516361099696496 13.333698690073405 -3.861328125 11.388671875 C-2.5809597443687835 7.590136664808412 -1.2923387788448508 3.7944793474657246 0 0 Z M5 8 C2.6815616437288554 12.946001826711694 1.2147232582753986 17.673905713715328 0 23 C3.2999999999999545 23 6.600000000000023 23 10 23 C9.548962082625621 21.060536955290274 9.089518302955298 19.123737349337517 8.625 17.1875 C8.498671875000014 16.640292968750003 8.372343750000027 16.093085937500007 8.2421875 15.529296875 C7.539685386709721 12.631475657677797 6.884004060839175 10.33452677103979 5 8 Z " transform="translate(895,111)" />
    <path d="M0 0 C10.230000000000018 0 20.460000000000036 0 31 0 C31 2.3100000000000023 31 4.6200000000000045 31 7 C27.039999999999964 7 23.08000000000004 7 19 7 C19 17.889999999999986 19 28.78 19 40 C16.690000000000055 40 14.379999999999995 40 12 40 C12 29.110000000000014 12 18.22 12 7 C8.039999999999964 7 4.080000000000041 7 0 7 C0 4.689999999999998 0 2.3799999999999955 0 0 Z " transform="translate(937,111)" />
    <path d="M0 0 C2.6399999999999864 0 5.279999999999973 0 8 0 C8 13.200000000000003 8 26.400000000000006 8 40 C5.360000000000014 40 2.7200000000000273 40 0 40 C0 26.80000000000001 0 13.599999999999994 0 0 Z " transform="translate(993,111)" />
    <path d="M0 0 C4.165820002484679 2.4093495075746034 6.945647697375989 6.181571505506767 8.378662109375 10.72900390625 C9.81911297937927 17.14860313239967 9.698040360851564 25.143319706225213 6.405517578125 30.98193359375 C3.977052319552058 34.49982191254318 0.01690025661719119 37.93887833990851 -4.207275390625 38.86962890625 C-9.447205092392323 39.411577339675574 -15.325078654415165 39.76860953713182 -19.933837890625 36.90478515625 C-25.81539419955334 32.123765457274544 -27.52184882491315 27.353041431944746 -28.426025390625 20.11962890625 C-28.730341226181963 14.641943866224864 -27.28178514269848 8.725537331604443 -24.035400390625 4.25634765625 C-18.071866456391945 -1.9832758119752896 -7.980946832049085 -3.75354875637467 0 0 Z M-17.207275390625 7.86962890625 C-20.24824155708211 12.81119892674262 -21.170768472502232 17.120521425958287 -20.207275390625 22.86962890625 C-19.032076988726885 26.56310959793001 -17.134756240465777 29.360359606386396 -14.207275390625 31.86962890625 C-7.207275390625 32.86962890625 -7.207275390625 32.86962890625 -4.332275390625 31.11962890625 C-3.798603515625018 30.794785156249986 -3.2649316406250364 30.46994140625 -2.715087890625 30.13525390625 C-0.43070676177853784 28.21779409861719 0.62939391235318 26.41526955985543 0.945556640625 23.42333984375 C0.9890423137103426 21.816869116207243 0.9676781986145215 20.225828929489325 0.917724609375 18.61962890625 C0.9087011718750091 18.065332031249994 0.8996777343750182 17.51103515624999 0.890380859375 16.93994140625 C0.8151204271887309 12.574836339450854 -0.4886606532136284 10.382340731908783 -3.207275390625 6.86962890625 C-7.757062985939001 2.954273844147025 -12.626564569136235 5.121202413356684 -17.207275390625 7.86962890625 Z " transform="translate(1055.207275390625,112.13037109375)" />
    <path d="M0 0 C2.9700000000000273 0 5.940000000000055 0 9 0 C13.61999999999989 8.909999999999997 18.24000000000001 17.819999999999993 23 27 C23.329999999999927 18.090000000000003 23.660000000000082 9.180000000000007 24 0 C26.309999999999945 0 28.61999999999989 0 31 0 C31 12.870000000000005 31 25.74000000000001 31 39 C30.670000000000073 39.329999999999984 30.339999999999918 39.66 30 40 C27.3599999999999 40 24.720000000000027 40 22 40 C20.825141427525296 37.94269209975556 19.65251782341511 35.884340342275834 18.484375 33.8232421875 C18.089968037420704 33.1286055659061 17.694527291292616 32.43455447022902 17.2978515625 31.7412109375 C13.598729625039368 25.272490010966152 10.342295989592913 18.684591979186024 7 12 C6.670000000000073 21.24000000000001 6.339999999999918 30.47999999999999 6 40 C4.019999999999982 40 2.0399999999999636 40 0 40 C0 26.80000000000001 0 13.599999999999994 0 0 Z " transform="translate(1091,111)" />
    <path d="M0 0 C2.9700000000000273 0 5.939999999999998 0 9 0 C14 5 14 5 14 11 C11.288730416516046 14.615026111311892 8.61502611131192 17.288730416516074 5 20 C6.649999999999977 22.310000000000002 8.300000000000011 24.620000000000005 10 27 C10.660000000000025 25.514999999999986 10.660000000000025 25.514999999999986 14 18 C15.980000000000018 18.659999999999997 17.95999999999998 19.319999999999993 20 20 C18.680000000000007 23.960000000000008 17.360000000000014 27.920000000000016 16 32 C17.980000000000018 32.66 19.95999999999998 33.31999999999999 22 34 C22 35.650000000000006 22 37.30000000000001 22 39 C21.670000000000016 39.329999999999984 21.340000000000032 39.66 21 40 C12.553530751708479 39.03644646924829 12.553530751708479 39.03644646924829 9 38 C8.718984374999991 38.163710937500014 8.718984374999991 38.163710937500014 7.296875 38.9921875 C4.906923095132925 40.18716345243354 2.879004490736122 40.23632592306049 0.25 40.125 C-0.16121093750001592 40.11597656250001 -0.572421874999975 40.10695312499999 -0.99609375 40.09765625 C-4.33217459389158 40.02007297456066 -6.332850734301871 39.032113726246195 -9 37 C-12.881687573508145 31.905285059770534 -11.846635451781424 30.619719066032616 -11 23 C-8.666666666666686 20.666666666666657 -6.333333333333314 18.333333333333343 -4 16 C-4.163710937500014 15.591367187499998 -4.327421875000027 15.182734374999995 -4.49609375 14.76171875 C-5.0847554661563095 12.703684378011758 -5.112390810665033 10.934778330597169 -5.0625 8.8125 C-5.0579882812500045 8.444472656250014 -5.053476562500009 8.076445312499999 -5.048828125 7.697265625 C-5.013980263157919 5.01398026315789 -5.013980263157919 5.01398026315789 0 0 Z M2 5 C1.670000000000016 5.3300000000000125 1.339999999999975 5.659999999999997 1 6 C1 8.310000000000002 1 10.620000000000005 1 13 C1.329999999999984 13.164999999999992 1.329999999999984 13.164999999999992 3 14 C4.649999999999977 12.680000000000007 6.300000000000011 11.360000000000014 8 10 C7.670000000000016 8.349999999999994 7.339999999999975 6.699999999999989 7 5 C5.350000000000023 5 3.6999999999999886 5 2 5 Z M-2 22 C-5 26 -5 26 -5 32 C-4.175000000000011 32.495000000000005 -4.175000000000011 32.495000000000005 0 35 C1.9800000000000182 34.34 3.9599999999999795 33.68000000000001 6 33 C3.6899999999999977 29.370000000000005 1.3799999999999955 25.74000000000001 -1 22 C-1.329999999999984 22 -1.660000000000025 22 -2 22 Z " transform="translate(416,178)" />
    <path d="M0 0 C1.8696140491733786 1.821675227399652 3.1185751918815185 3.832739884377901 4.21875 6.1875 C4.21875 6.847499999999997 4.21875 7.507499999999993 4.21875 8.1875 C1.9087500000000546 8.517500000000013 -0.40125000000000455 8.847499999999997 -2.78125 9.1875 C-3.26953125 8.682942708333343 -3.26953125 8.682942708333343 -5.7109375 6.16015625 C-7.9055119376995435 4.165816706251178 -9.447209566499737 4.0702029549351835 -12.40625 4.125 C-13.037890625000045 4.134023437499991 -13.669531249999977 4.14304687500001 -14.3203125 4.15234375 C-15.78125 4.1875 -15.78125 4.1875 -19.78125 7.1875 C-21.753980221181735 14.780382505987205 -22.087591509588094 19.98820800331623 -18.78125 27.1875 C-15.78125 29.1875 -15.78125 29.1875 -7.78125 29.1875 C-7.141875000000027 28.568749999999994 -6.502500000000055 27.94999999999999 -5.84375 27.3125 C-5.484101562499973 26.964453125000006 -5.124453124999945 26.61640625000001 -4.75390625 26.2578125 C-3.78125 25.1875 -3.78125 25.1875 -2.78125 23.1875 C-0.47125000000005457 23.847499999999997 1.8387500000000045 24.507499999999993 4.21875 25.1875 C3.2121550782163695 30.220474608917982 3.1143962294916037 30.304155126181456 -0.09375 33.125 C-0.24811523437494998 33.26389648437498 -0.24811523437494998 33.26389648437498 -1.029296875 33.966796875 C-5.013632204970463 37.447847742237286 -9.026891413228554 37.615089790876596 -14.14453125 37.46484375 C-18.375190739140862 37.155508516345094 -22.493146560010132 35.535279439111065 -25.49267578125 32.45751953125 C-30.705632486843058 26.180367519680118 -30.3457862631019 18.6870655359308 -29.96044921875 10.97265625 C-29.498102612526054 6.366827387998114 -27.730216284077585 3.0488722937819546 -24.390625 -0.140625 C-17.479913169238728 -5.30547278930581 -6.874250485272341 -5.193878144427998 0 0 Z " transform="translate(528.78125,180.8125)" />
    <path d="M0 0 C2.9700000000000273 0 5.940000000000055 0 9 0 C11.933116499797393 7.164607963954609 14.616088364379834 14.382063478360834 17.14697265625 21.697998046875 C17.75824856330439 23.46129393260881 18.3770567328055 25.221837805280813 18.99609375 26.982421875 C19.388477944078545 28.111820457452097 19.780421871191606 29.241372119794732 20.171875 30.37109375 C20.356190795898442 30.892957611084 20.540506591796884 31.414821472167972 20.73040771484375 31.952499389648438 C20.814045715331986 32.19651741027832 20.814045715331986 32.19651741027832 21.2373046875 33.431396484375 C21.385123901367137 33.8564598083496 21.53294311523439 34.281523132324224 21.68524169921875 34.71946716308594 C22 36 22 36 22 39 C19.690000000000055 39 17.379999999999995 39 15 39 C13.67999999999995 36.03 12.360000000000014 33.06 11 30 C6.710000000000036 29.670000000000016 2.419999999999959 29.340000000000003 -2 29 C-2.990000000000009 32.30000000000001 -3.980000000000018 35.599999999999994 -5 39 C-7.639999999999986 39 -10.279999999999973 39 -13 39 C-11.454356782569107 34.209792034487975 -9.907365140897127 29.42002535039643 -8.35799503326416 24.63102149963379 C-7.6386154779104345 22.40728105950376 -6.919828667382603 20.183352662550107 -6.202392578125 17.958984375 C-5.510009692315066 15.812366561918878 -4.816074954712008 13.666256173816492 -4.121061325073242 11.520488739013672 C-3.856171724724277 10.701744137802109 -3.591841826057248 9.882818237203537 -3.3280811309814453 9.063709259033203 C-2.9585634149992757 7.916499588105694 -2.587061154759567 6.769950586859551 -2.215087890625 5.62353515625 C-2.160781097412155 5.454141769409176 -2.160781097412155 5.454141769409176 -1.885955810546875 4.5969085693359375 C-1.3567553203434954 2.9729074782927682 -0.7682756732181133 1.5365513464363403 0 0 Z M4 7 C3.3263574804140035 9.101997569426288 2.6623311354096586 11.206913518849774 2 13.3125 C1.8092187500000136 13.907402343749993 1.6184375000000273 14.502304687499986 1.421875 15.115234375 C1.2414062499999545 15.692089843750011 1.0609375000000227 16.268945312499994 0.875 16.86328125 C0.7074218750000227 17.39219970703124 0.5398437500000455 17.921118164062506 0.3671875 18.466064453125 C0 20 0 20 0 23 C3.2999999999999545 23 6.600000000000023 23 10 23 C8.350000000000023 17.72 6.7000000000000455 12.439999999999998 5 7 C4.669999999999959 7 4.340000000000032 7 4 7 Z " transform="translate(570,178)" />
    <path d="M0 0 C3.6712499999999864 -0.06187499999998636 7.342499999999973 -0.12375000000000114 11.125 -0.1875 C11.698068847656259 -0.20115600585938864 11.698068847656259 -0.20115600585938864 14.59814453125 -0.270263671875 C20.258135211875356 -0.34722537787027363 24.163433707204604 -0.18811722760392513 29 3 C32 8 32 8 32 16 C29.85666092504664 19.965177288663796 28.89332142511705 21.08000893116221 25 24 C27.639999999999986 28.289999999999992 30.279999999999973 32.579999999999984 33 37 C33 37.66 33 38.31999999999999 33 39 C30.360000000000014 39 27.720000000000027 39 25 39 C17 26 17 26 17 24 C14.029999999999973 24 11.059999999999945 24 8 24 C8 28.94999999999999 8 33.900000000000006 8 39 C5.360000000000014 39 2.7200000000000273 39 0 39 C0 26.129999999999995 0 13.259999999999991 0 0 Z M8 6 C8 9.960000000000008 8 13.919999999999987 8 18 C12.289999999999964 18 16.58000000000004 18 21 18 C21.99000000000001 17.00999999999999 22.980000000000018 16.02000000000001 24 15 C24 13.02000000000001 24 11.039999999999992 24 9 C19 6 19 6 8 6 Z " transform="translate(618,178)" />
    <path d="M0 0 C9.57000000000005 0 19.139999999999986 0 29 0 C29 1.9799999999999898 29 3.960000000000008 29 6 C22.399999999999977 6.3300000000000125 15.799999999999955 6.659999999999997 9 7 C8.669999999999959 9.969999999999999 8.340000000000032 12.939999999999998 8 16 C14.269999999999982 16 20.539999999999964 16 27 16 C27 18.310000000000002 27 20.620000000000005 27 23 C20.730000000000018 23 14.460000000000036 23 8 23 C8 26.30000000000001 8 29.599999999999994 8 33 C15.259999999999991 33 22.519999999999982 33 30 33 C30 34.97999999999999 30 36.96000000000001 30 39 C20.100000000000023 39 10.200000000000045 39 0 39 C0 26.129999999999995 0 13.259999999999991 0 0 Z " transform="translate(677,178)" />
  </g>
</svg>