<svg xmlns="http://www.w3.org/2000/svg" viewBox="0 0 654 597" width="654" height="597">
  <g fill="#000000">
    <path d="M0 0 C0.8946574502528506 0.7532794828054961 1.7867750116698176 1.509590567631534 2.67578125 2.26953125 C3.0542822265625205 2.5861572265625057 3.432783203124984 2.902783203124997 3.82275390625 3.22900390625 C16.957032549813334 14.427322547077125 25.16445249173347 32.25563325921175 26.67578125 49.26953125 C28.202757734162503 69.34188342084599 22.37645917667635 88.28738408970986 9.44873046875 103.73583984375 C-2.0815106886577155 116.8445996758621 -18.727416394765612 126.49117420533165 -36.32421875 128.26953125 C-37.663996885073516 128.31619578428916 -38.98300695524597 128.30298551245417 -40.32421875 128.26953125 C-40.143588867187475 128.6390087890625 -39.96295898437501 129.008486328125 -39.77685546875 129.38916015625 C-20.91732262601556 168.59744985014703 -17.975315884063036 218.5740226204374 -34.05517578125 275.40234375 C-40.779999363558204 294.46306508068113 -51.38791099482199 311.64763753231114 -65.32421875 326.26953125 C-63.84058597440236 329.8714142890232 -61.520931124359265 332.4448245729058 -58.87298583984375 335.24176025390625 C-57.86906221650685 336.3022757751018 -56.87526817843565 337.37207235409636 -55.88092041015625 338.4415588378906 C-55.3838056437591 338.97616912533977 -54.88620912216237 339.510331866561 -54.38812255859375 340.0440368652344 C-52.44857865079109 342.12466376220283 -50.55899305289404 344.2426428645591 -48.69921875 346.39453125 C-45.02915785994435 350.6281184006359 -41.27585852755328 354.78500350646436 -37.52099609375 358.943359375 C-35.432056429256534 361.2581533891837 -33.34713909730192 363.5765670168978 -31.26171875 365.89453125 C-30.500017197933573 366.7409008944906 -29.738300096631576 367.5872565456816 -28.9765625 368.43359375 C-27.32421875 370.26953125 -27.32421875 370.26953125 -27.32421875 372.26953125 C-26.839531249999993 372.003984375 -26.354843749999986 371.7384375 -25.85546875 371.46484375 C-15.138891411922543 365.7385110107647 -1.7308054444962977 363.88253988527003 10.11328125 367.45703125 C11.670939801801751 367.98855454729727 13.173440736003158 368.59830083565487 14.67578125 369.26953125 C15.052509765625018 369.4358203125 15.42923828124998 369.602109375 15.8173828125 369.7734375 C26.224761472130638 374.55640301166005 33.587018713597445 382.10055153829717 38.67578125 392.26953125 C38.848354492187525 392.61435546875 39.02092773437499 392.9591796875 39.19873046875 393.314453125 C44.35414678183747 403.89130310479146 44.30206850432819 417.57916835933554 40.652587890625 428.67236328125 C36.143398681663655 440.6881036223307 26.706191163596316 449.836890373865 15.265625 455.2265625 C9.186283446605046 457.7978997046713 3.5141996426892206 458.6803062793243 -3.01171875 458.64453125 C-3.404399414062482 458.643655090332 -3.7970800781250205 458.642778930664 -4.20166015625 458.6418762207031 C-17.020876869326685 458.5480184574765 -27.322312637830066 454.12568796417656 -36.546875 445.16796875 C-45.31674294232954 436.1463246265057 -49.767893928533624 425.1124313371318 -49.69921875 412.58203125 C-49.698342590332004 412.1890182495117 -49.697466430664065 411.79600524902344 -49.696563720703125 411.3910827636719 C-49.6071419188749 399.16566818915715 -45.321497258443 390.16955935891013 -38.32421875 380.26953125 C-42.49903639932393 375.4637926054406 -46.721390381661536 370.70489848080086 -50.98828125 365.980712890625 C-53.55049634134298 363.1400197607526 -56.077477880053266 360.2718534256411 -58.58544921875 357.38330078125 C-61.16168011332974 354.4291242654597 -63.804727375851144 351.53756687505745 -66.44921875 348.64453125 C-69.84272472657597 344.9309552366309 -73.17709004680387 341.19516021135513 -76.32421875 337.26953125 C-79.92898448665369 339.19127722218957 -83.33303566294899 341.2325406172047 -86.6279296875 343.64794921875 C-120.8661553316565 368.59294218806406 -167.34530224202047 373.23119203235336 -208.32421875 367.26953125 C-221.78097641926706 365.1243396165962 -234.86586586884476 361.82415517831544 -247.32421875 356.26953125 C-247.65145935058592 356.1249346923828 -247.97869995117188 355.98033813476565 -248.31585693359375 355.83135986328125 C-262.5384390022806 349.5208143833036 -274.94287490146894 341.14797756550337 -286.18603515625 330.3564453125 C-287.3052193736395 329.28767479859647 -288.44358460787737 328.24311853448626 -289.5859375 327.19921875 C-311.7684520321259 306.4987568754068 -322.8750995191268 276.3858798655528 -328.32421875 247.26953125 C-328.3897595214844 246.92871520996096 -328.4553002929688 246.58789916992185 -328.5228271484375 246.23675537109375 C-337.0312612826791 201.93451221575367 -330.81694598443755 149.5378893481005 -305.3036193847656 111.61610412597656 C-293.3258068162655 94.12968811758807 -277.99700544867966 80.25660453549094 -259.32421875 70.26953125 C-258.9976428222656 70.09357421875 -258.67106689453124 69.91761718750001 -258.3345947265625 69.736328125 C-233.63426909549406 56.4835308818472 -205.84254936773976 52.045653439904754 -178.07421875 52.01953125 C-177.4218121337891 52.01885650634766 -176.7694055175781 52.018181762695306 -176.09722900390625 52.017486572265625 C-157.9253142141829 52.03103946159004 -140.62599615048794 54.46651296681716 -123.0859375 59.18359375 C-122.73191360473629 59.27829452514648 -122.3778897094727 59.37299530029297 -122.01313781738281 59.47056579589844 C-120.35663976472495 59.928710288958115 -118.8241560218197 60.42213611079768 -117.32421875 61.26953125 C-117.40438232421877 60.847604980468745 -117.48454589843749 60.425678710937504 -117.567138671875 59.990966796875 C-118.32820463348196 55.49578549882365 -118.29390757534077 51.605880145891334 -117.63671875 47.08203125 C-117.54422851562504 46.432021484375 -117.45173828124996 45.78201171875 -117.3564453125 45.1123046875 C-114.55114727523 26.529123707481062 -104.43589816555152 9.529477102262632 -89.32421875 -1.73046875 C-88.93041015624999 -2.0240527343749974 -88.53660156249998 -2.317636718750002 -88.130859375 -2.6201171875 C-80.78317237835978 -7.957158052501455 -72.99952588807992 -11.160793930642186 -64.32421875 -13.73046875 C-64.10604492187497 -13.796855468750003 -64.10604492187497 -13.796855468750003 -63.001953125 -14.1328125 C-41.683339109043686 -20.34347255702164 -16.821019797744952 -13.688888602482606 0 0 Z M-79.255859375 30.46728515625 C-81.22572555933448 33.26311667634101 -82.82957293278741 36.19803409562816 -84.32421875 39.26953125 C-84.50210937500003 39.615322265625 -84.68 39.96111328124999 -84.86328125 40.3173828125 C-89.16285567355976 48.976247971057916 -88.84162652980848 61.51089550508772 -85.986328125 70.589111328125 C-82.2953300526865 80.54849415598386 -74.08974783384764 89.75578294605657 -64.44921875 94.39453125 C-64.29904296874997 94.47251953124999 -64.29904296874997 94.47251953124999 -63.5390625 94.8671875 C-54.030678182637814 99.5631650608197 -42.120591444984996 99.98370574000842 -32.07421875 96.76953125 C-20.723056668769857 92.69884831378789 -12.35030176261921 84.8191166387235 -7.18701171875 74.093017578125 C-2.2745427535118665 63.10123506696857 -2.1324201754442242 51.54276266952955 -6.32421875 40.26953125 C-11.177771502921132 28.975837646181958 -19.68370849257235 21.49655869325167 -30.888671875 16.82421875 C-34.31180734123444 15.501537835155673 -37.676144734071556 14.654855940296969 -41.32421875 14.26953125 C-41.6804833984375 14.231020507812502 -42.036748046875005 14.192509765625005 -42.40380859375 14.15283203125 C-56.20629138458207 12.908193610004048 -70.79623946285301 19.591264378211946 -79.255859375 30.46728515625 Z M-251.32421875 120.26953125 C-251.7027197265625 120.64158691406249 -252.08122070312498 121.013642578125 -252.47119140625 121.39697265625 C-268.67388090838944 137.42054444855466 -275.8466485472582 160.29962664007653 -279.32421875 182.26953125 C-279.37578125 182.59046752929686 -279.37578125 182.59046752929686 -279.63671875 184.214599609375 C-280.7837980226937 192.25612640218304 -280.5714898557701 200.47567073009753 -280.57421875 208.58203125 C-280.57451332092285 208.98292968750002 -280.5748078918457 209.38382812499998 -280.57511138916016 209.796875 C-280.57661579944715 222.48332941171486 -280.33004255269753 234.8775040940816 -277.32421875 247.26953125 C-277.2271160888672 247.67437744140625 -277.1300134277344 248.0792236328125 -277.02996826171875 248.496337890625 C-270.85480318375375 273.92190356162746 -257.68825825359886 299.2679830543136 -234.9921875 313.6875 C-208.62214432782292 329.58928406791017 -177.3743820620848 333.1341810465407 -147.505126953125 326.004150390625 C-125.56149227627242 320.3125111859272 -105.05776181954013 307.53747154511547 -93.1748046875 287.74951171875 C-72.58969721653307 251.93237007437523 -68.58841422732701 206.21688178280323 -79.140625 166.421875 C-84.02446863070497 148.55564902115702 -91.89468456505881 132.59541423557852 -105.115234375 119.48583984375 C-106.15730900737435 118.43745215827161 -107.14697992371879 117.36873368766453 -108.12109375 116.2578125 C-121.60641715691304 101.16199384198649 -145.66571263913363 93.4651154657933 -165.32421875 92.26953125 C-197.84308619654354 90.60185731828591 -227.85573914278322 96.4461407980616 -251.32421875 120.26953125 Z M-18.32421875 390.26953125 C-18.815351562499984 390.55828125 -19.306484375000025 390.84703125 -19.8125 391.14453125 C-24.170854754756874 394.1670435257447 -28.046268723096546 399.9197176484869 -29.154296875 405.1396484375 C-30.40441784845001 413.452234450613 -29.935341475259406 421.15985452100233 -25.11572265625 428.2265625 C-22.918659360352706 431.1216440546185 -20.363858710335705 433.30320096523735 -17.32421875 435.26953125 C-16.813750000000027 435.60855468750003 -16.303281249999998 435.947578125 -15.77734375 436.296875 C-10.016261332167574 439.39131778383575 -2.2002199453903017 439.41218318389514 4.0634765625 437.9443359375 C9.278577763376234 436.3043921015703 13.201768811572208 433.489813027053 16.67578125 429.26953125 C17.044453125000018 428.86734375000003 17.41312499999998 428.46515625 17.79296875 428.05078125 C22.605612629460666 422.5706904091543 23.340765099745283 416.46002766847977 23.046875 409.3671875 C22.44811997882198 402.4996165631429 18.872405019231167 396.8517573223877 13.80078125 392.33203125 C7.050002193807643 386.82151160180575 0.777599512874076 385.2885067801253 -7.85498046875 386.04931640625 C-11.702184659260865 386.62594953683174 -15.025326314670224 388.2755973441342 -18.32421875 390.26953125 Z " transform="translate(462.32421875,62.73046875)" />
  </g>
</svg>