<svg xmlns="http://www.w3.org/2000/svg" viewBox="0 0 1794 711" width="1794" height="711">
  <g fill="#000000">
    <path d="M0 0 C8.358890707739647 7.529193407860376 13.352440663436482 17.770732413681515 14 29 C14.312607964819335 41.738774566390816 10.269505202821392 53.31804172278123 1.48046875 62.68359375 C-5.606302612171021 69.61214882129451 -15.17912985961766 73.74214292137799 -25 74 C-24.833952636718777 74.41548095703126 -24.667905273437555 74.8309619140625 -24.496826171875 75.259033203125 C-13.211438230006024 103.98725453693572 -11.481855715997199 138.24714437127807 -24 167 C-28.01735017101919 175.64898452421681 -33.223002605157944 183.26113683487176 -40 190 C-38.42244287758831 193.73035606846508 -36.070410553070815 196.31946315299626 -33.3125 199.25 C-32.41221672475399 200.22345579108594 -31.512480652803333 201.1974179271208 -30.61328125 202.171875 C-30.17064941406261 202.64947265625 -29.72801757812499 203.1270703125 -29.27197265625 203.619140625 C-27.487733973284776 205.55611835836862 -25.73667213088106 207.52037373681952 -24 209.5 C-23.721965332031232 209.81356445312497 -23.443930664062464 210.12712890625 -23.157470703125 210.4501953125 C-21.60876088274722 212.2187687735243 -20.259305317196095 214.01417238442167 -19 216 C-18.082990960441975 215.85633525046921 -17.166409280724338 215.70994208724528 -16.25 215.5625 C-15.739531250000027 215.48128906249997 -15.229062500000055 215.400078125 -14.703125 215.31640625 C-13 215 -13 215 -11.0859375 214.484375 C-3.32818473585462 212.51717767454994 4.113676598601614 214.17942075439043 11 218 C17.363437736550623 221.89166228002978 21.19586816928677 227.86830982871055 23 235 C23.302186274918085 237.112984512229 23.38143245188303 239.1794989556165 23.375 241.3125 C23.37338867187509 241.87646484375 23.371777343749955 242.4404296875 23.3701171875 243.021484375 C23.21473912251645 248.37745767384524 21.760058720900815 252.46418662109693 19 257 C18.734453125000073 257.4782421875 18.468906249999918 257.956484375 18.1953125 258.44921875 C16.143716430126233 261.5461518649999 13.169641451930602 263.3355044516594 10.0625 265.25 C9.643393554687464 265.5086987304687 9.224287109374927 265.7673974609375 8.79248046875 266.033935546875 C3.060355631834227 269.3696982917753 -3.789766088638089 270.02412455348775 -10.234375 268.5390625 C-18.219140369534898 266.36186935195974 -24.294330584603358 261.89082506260223 -28.5419921875 254.803955078125 C-32.044424441367255 248.59041550475348 -31.932484053894996 240.94682618529043 -31 234 C-30.00727256485152 230.7310484162124 -28.374756280364636 227.83521884268976 -26.458984375 225.0205078125 C-25.84271775543357 223.6502979881451 -25.926404654622957 222.48347189038634 -26 221 C-26.193721923828207 220.79375 -26.193721923828207 220.79375 -27.174072265625 219.75 C-41.34285988842407 204.65670998091446 -41.34285988842407 204.65670998091446 -47 198 C-47.959278424645845 198.53999116619133 -48.917324934291855 199.0821703544604 -49.875 199.625 C-50.191062011718714 199.8017626953125 -50.50712402343743 199.978525390625 -50.832763671875 200.16064453125 C-52.624997485732365 201.17381495765483 -54.35944518502174 202.22741721294267 -56.05859375 203.390625 C-76.89045331710759 217.32805366513412 -105.59737331641816 218.94493256334385 -129.6279296875 214.480712890625 C-151.2901493315718 210.17889363600693 -169.82851802337348 197.84197793483827 -182.6171875 179.7734375 C-189.9866733007085 168.7039291633057 -193.92782278604773 155.00909052759232 -196 142 C-196.09426269531252 141.41065673828126 -196.18852539062505 140.82131347656252 -196.28564453125 140.214111328125 C-197.11749723216042 134.38295782451627 -197.24311027288275 128.57179405831664 -197.25 122.6875 C-197.25067474365233 122.16520812988281 -197.25134948730465 121.64291625976563 -197.25204467773438 121.10479736328125 C-197.2011365804443 96.06277126266042 -190.94529115324508 71.46720599555056 -173 53 C-162.62232545934035 42.7496840938457 -149.06241295914435 35.65945778728633 -135 32 C-134.59491210937495 31.889624023437506 -134.18982421875 31.77924804687501 -133.7724609375 31.66552734375 C-114.55054574899964 26.64251658461515 -90.78613281696607 27.667595679674378 -72 34 C-71.99065429687494 33.68885253906251 -71.9813085937501 33.37770507812499 -71.9716796875 33.05712890625 C-71.49656653538977 20.364154989581806 -67.54618070378933 9.128305978754412 -58.234130859375 0.13818359375 C-41.501894395113595 -14.962753210264538 -17.02656448068842 -14.182088729773639 0 0 Z M-48.19091796875 16.02197265625 C-52.37826649419003 21.083686051818233 -54.426977645779516 27.439582461387687 -54 34 C-53.09783357986157 41.38848190383416 -49.71898857620363 47.26891459272625 -44 52 C-38.74120530329765 55.903241911918144 -32.25930245241443 57.64218416281935 -25.75634765625 56.84814453125 C-18.494587935911113 55.59264583489568 -12.685263180905622 51.96511436109648 -8.28857421875 46.04150390625 C-4.629319718602346 40.52313468691747 -3.2443028261495783 34.005599800644575 -4.37109375 27.48828125 C-5.946310139476736 20.406585536896273 -9.84947450298364 14.676388535680587 -15.91796875 10.65234375 C-26.878651894186078 4.170693225177246 -39.761832725652994 6.7439147987403345 -48.19091796875 16.02197265625 Z M-151 70 C-159.0566373659999 79.63645367825461 -163.66146915417096 90.73282781219115 -166 103 C-166.095712890625 103.4988671875 -166.19142578125002 103.997734375 -166.2900390625 104.51171875 C-167.23211884243972 110.14393764942457 -167.24347394199594 115.80253014012061 -167.25 121.5 C-167.25067474365233 122.03090240478514 -167.25134948730465 122.56180480957033 -167.25204467773438 123.10879516601563 C-167.21325255279623 142.38848126026573 -162.5517543339928 162.42542099753985 -148.75 176.75 C-141.1950423733856 184.02858306925327 -132.0607420356016 188.3825711777297 -122 191 C-121.81679199218752 191.0515625 -121.81679199218752 191.0515625 -120.8896484375 191.3125 C-105.19245618539026 195.15783143533747 -86.05948577890967 192.03834217671192 -72.36376953125 183.87548828125 C-58.73217272656734 175.1245204793181 -51.18421028209514 160.43452731383445 -47.733917236328125 144.9791717529297 C-43.498553818489654 124.75968755387959 -44.46274414117511 101.57290764262976 -54 83 C-54.220268554687436 82.56107421875001 -54.44053710937487 82.12214843750002 -54.66748046875 81.669921875 C-60.91911768290856 69.4844503551729 -70.95850618171903 60.51388660549438 -83.9912109375 56.216064453125 C-105.88707246660658 49.39330391620561 -135.00081748627053 51.60094010921114 -151 70 Z M-17.5 233.25 C-19.678495207194374 237.04358648149366 -19.621567052742193 241.69228400818588 -19 246 C-16.870330077508015 252.29630025592456 -13.291708128044093 253.8541459359779 -7 257 C2 256 2 256 5.375 253.25 C5.7222412109374545 252.97317382812503 6.069482421874909 252.69634765625 6.42724609375 252.4111328125 C9.233212373324477 250.06338260743195 10.918111421208323 247.57610610969436 11.3359375 243.88671875 C11.364971494055226 243.1541052977347 11.37756863252389 242.42068404604697 11.375 241.6875 C11.376289062500064 241.30086181640627 11.377578125000127 240.91422363281254 11.37890625 240.515869140625 C11.227733256227793 236.33713837527534 9.391352370428876 233.32013655001515 7 230 C-1.727287566007135 225.03829336348832 -11.180012074521983 223.79242941648306 -17.5 233.25 Z " transform="translate(1105,119)" />
    <path d="M0 0 C20.15831694487497 -1.1601909033021514 44.10928728991098 1.6739737889421065 59.748046875 15.359375 C66.49923392116489 21.611503709615135 70.43549706284125 29.387670561797677 73.708984375 37.8828125 C73.7736791992188 38.04998779296875 73.7736791992188 38.04998779296875 74.10107421875 38.89599609375 C74.49469125941732 40.65207930031829 74.41315174113242 42.31126153140906 74.373046875 44.109375 C71.20865349129008 44.68638483829895 68.04284698916103 45.25510474376085 64.8759765625 45.818359375 C63.80109802700645 46.01050922717582 62.72654390502544 46.204483864781196 61.65234375 46.400390625 C60.0991467683948 46.68331498224407 58.54486176584237 46.95943277292088 56.990234375 47.234375 C56.51810516357409 47.3218701171875 56.04597595214841 47.409365234375 55.559539794921875 47.49951171875 C52.14059984534015 48.09469573063893 48.839686735512714 48.20501429658694 45.373046875 48.109375 C45.2727920532227 47.81501052856444 45.1725372314454 47.520646057128914 45.069244384765625 47.21736145019531 C42.12158881785558 38.63120658771709 38.74369177074004 32.47118843056208 30.435546875 28.296875 C14.725618133179523 20.917526971013416 -4.87404157492324 21.157159505660587 -21.22412109375 26.6455078125 C-27.522935571565768 29.082536601444474 -32.53649005599573 32.41965890868903 -35.365234375 38.765625 C-37.47275428203443 45.073847850987704 -37.59727721344757 52.065448334702864 -34.779296875 58.1640625 C-30.427175507266156 66.18091783854373 -20.91620274302818 69.9205055431363 -12.64059066772461 72.40556716918945 C-7.839958920032814 73.76769093884315 -2.9698761023241786 74.87313462455057 1.892486572265625 75.98928833007813 C4.359588266220953 76.55599835499362 6.822155405666308 77.1408755769151 9.283935546875 77.730224609375 C9.694242944717416 77.82845173835756 10.104550342559833 77.92667886734009 10.527291297912598 78.02788257598877 C11.351083085585515 78.22523603270844 12.17485087733803 78.42268968075877 12.998594284057617 78.6202449798584 C14.216844223271892 78.9122015623646 15.435308591221201 79.20324781213543 16.653823852539063 79.49409484863281 C56.79325950938983 89.08389462380012 56.79325950938983 89.08389462380012 68.373046875 102.109375 C68.64793945312499 102.4131103515625 68.92283203124998 102.71684570312499 69.2060546875 103.02978515625 C78.37115457839968 113.4280271593799 80.04099051163416 125.77023857871143 79.50927734375 139.205078125 C78.61250477579961 151.74060864473734 72.67300500375222 162.76933733000328 63.373046875 171.109375 C46.66486349738534 184.63283102469882 24.2606688827359 187.33791812065897 3.498046875 187.359375 C2.9072232055664244 187.36004974365233 2.316399536132849 187.36072448730465 1.707672119140625 187.36141967773438 C-21.464723136955627 187.31965917561388 -44.00895411824877 183.27803202004452 -61.302734375 166.58984375 C-67.50051607070395 160.22929716774502 -74.44628670417546 149.6681887308947 -74.666259765625 140.46484375 C-74.65328857421878 140.01753906249996 -74.64031738281255 139.57023437500004 -74.626953125 139.109375 C-70.97984661672808 138.39336450583278 -67.33190358776051 137.6817420141707 -63.683349609375 136.97314453125 C-62.44259324191012 136.73163871968598 -61.202030872637806 136.4891339727211 -59.961669921875 136.24560546875 C-58.177423310103904 135.895472973849 -56.392506875823756 135.5489543272813 -54.607421875 135.203125 C-54.33080467224113 135.1484405517578 -54.33080467224113 135.1484405517578 -52.93095397949219 134.8717041015625 C-52.41064102172845 134.7716003417969 -51.890328063964944 134.67149658203124 -51.354248046875 134.568359375 C-50.899022674560456 134.4795349121094 -50.44379730224614 134.39071044921877 -49.97477722167969 134.2991943359375 C-48.510015383196105 134.09290620073313 -47.10426661917563 134.07750017221895 -45.626953125 134.109375 C-45.51214599609375 134.43099609374997 -45.3973388671875 134.7526171875 -45.279052734375 135.083984375 C-41.35304204718864 145.83975766945082 -37.05690987433832 153.1903514008655 -26.422119140625 158.16015625 C-24.835638336851616 158.846306186089 -23.240321076933697 159.4892744124893 -21.626953125 160.109375 C-21.16675781250001 160.28871582031252 -20.706562500000018 160.46805664062504 -20.232421875 160.65283203125 C-4.150883371881264 166.48644488162483 19.06759772716032 165.30097649643915 34.72119140625 158.52587890625 C41.25270458439786 155.3923232853109 46.09913425535092 150.1295698620586 48.548583984375 143.281982421875 C50.5682066142931 136.75550959724262 49.91980474928664 130.09277621816966 46.8603515625 124.01171875 C42.38095131265436 115.7171980468791 34.454366300826905 112.95460674898254 25.877151489257813 110.34770202636719 C16.491146243114144 107.55666664695912 6.982475941376379 105.26179012673808 -2.541595458984375 102.99798583984375 C-48.85011638288438 91.99069264816853 -48.85011638288438 91.99069264816853 -60.349853515625 74.257080078125 C-65.08594727006516 66.50048041054845 -66.03918737434333 59.278106028302034 -66.001953125 50.359375 C-66.00168121337902 50.115042266845705 -66.00168121337902 50.115042266845705 -66.00030517578125 48.878570556640625 C-65.96165595609978 41.33718021551692 -65.44466588747218 34.777297975550596 -61.626953125 28.109375 C-61.51979980468741 27.912229003906248 -61.51979980468741 27.912229003906248 -60.9775390625 26.91455078125 C-54.072372393327214 14.486255895613567 -42.437108467551525 7.923736359864364 -29.126953125 3.859375 C-19.648433275998286 1.1891228533072535 -9.78012886443139 0.6574876547516908 0 0 Z " transform="translate(1185.626953125,147.890625)" />
    <path d="M0 0 C9.240000000000002 0 18.480000000000004 0 28 0 C30.02125000000001 3.1762500000000102 32.042500000000004 6.352499999999992 34.125 9.625 C34.81110351562501 10.703059082031245 35.49720703125 11.781118164062491 36.2041015625 12.891845703125 C39.01588005961543 17.30993025806879 41.827499404451686 21.72811457725581 44.637054443359375 26.147613525390625 C46.049476334371974 28.369386480188922 47.46219505621289 30.590970610279697 48.875 32.8125 C49.15792907714844 33.257427978515636 49.440858154296876 33.702355957031244 49.73236083984375 34.1607666015625 C53.17439612100887 39.57269842411853 56.62459821070104 44.97929803237042 60.0859375 50.37890625 C60.43014739990235 50.91589141845702 60.77435729980468 51.45287658691407 61.128997802734375 52.006134033203125 C61.473308410644535 52.54326019287109 61.817619018554694 53.08038635253905 62.17236328125 53.6337890625 C68.84829303820396 64.04828640606655 75.48561196230042 74.48357431119894 82 85 C85.29778500363648 81.16823201534766 87.9644722354032 77.04572573572244 90.62835693359375 72.76278686523438 C91.66919841457464 71.08955314135392 92.71709212646795 69.420771480903 93.76443481445313 67.75160217285156 C94.3216434613824 66.86342081665242 94.8785026527164 65.9750201390869 95.43502807617188 65.08641052246094 C98.55652417815082 60.10408500534351 101.7151214238857 55.14553542604557 104.875 50.1875 C105.75916586852387 48.799511367969444 106.64323715861107 47.41146252869379 107.52729797363281 46.023406982421875 C108.12156301553159 45.09037492832215 108.7158725782287 44.157371228848035 109.31022644042969 43.224395751953125 C111.4137512457653 39.92202007527095 113.51414120813672 36.61766417839016 115.61328125 33.3125 C122.68945525426022 22.17338497410657 129.81473609197963 11.069190344788154 137 0 C146.24 0 155.48 0 165 0 C159.2405945405476 10.36692982701436 159.2405945405476 10.36692982701436 155.9971160888672 15.124984741210938 C154.71787681429896 17.007741611780972 153.4457910989109 18.89514814081062 152.17635440826416 20.78452777862549 C151.62550239640646 21.60427291029592 151.07425638885994 22.42375341463986 150.52262783050537 23.242976188659668 C147.41567679273555 27.859383336088854 144.35362184453606 32.50516869156641 141.29296875 37.15234375 C140.71505737456576 38.02922208444048 140.13712036193863 38.906083523063415 139.5591583251953 39.782928466796875 C138.07388118471727 42.03660926984966 136.5892119672786 44.29068990627658 135.1047019958496 46.54487609863281 C133.85648090704854 48.44009932134804 132.6078841896198 50.3350749617415 131.3593111038208 52.23006629943848 C124.90136555691265 62.03170291254938 118.44793248152882 71.83630465841031 112 81.64453125 C111.74862274169922 82.02691137313843 111.49724548339844 82.40929149627686 111.23825073242188 82.80325889587402 C86.35031155859315 120.66360826353281 95.90696729403709 113.07048565318127 95 182 C86.75 182 78.5 182 70 182 C69.67 157.25 69.34 132.5 69 107 C57.653863180262036 88.84618108841926 57.653863180262036 88.84618108841926 52.7247314453125 81.54022216796875 C51.030064943992045 79.02724922077451 49.34527068643855 76.50766545660977 47.66015625 73.98828125 C47.29441497802733 73.44163818359374 46.928673706054695 72.8949951171875 46.551849365234375 72.331787109375 C41.817860927460856 65.24899559828219 37.15561350771574 58.11885398828437 32.48423767089844 50.99469757080078 C24.555546987865895 38.90360493241948 16.590047323493863 26.838218544921176 8.5625 14.8125 C8.3419645690918 14.4821248626709 8.121429138183593 14.151749725341801 7.8942108154296875 13.811363220214844 C5.264868393747278 9.872863360254257 2.633559568006362 5.935681506015527 0 2 C0 1.3400000000000034 0 0.6800000000000068 0 0 Z " transform="translate(36,150)" />
    <path d="M0 0 C10.889999999999986 0 21.779999999999973 0 33 0 C44.75580973806507 30.267220547325934 56.48331452919632 60.54507472347211 68.10688400268555 90.86336708068848 C70.42218095201673 96.9023324916285 72.74846385678302 102.93671586351934 75.09619331359863 108.96314430236816 C80.48740095466644 122.81336615880434 85.21112747861878 136.6259478630995 89 151 C89.17557434082033 150.42203674316409 89.35114868164061 149.8440734863281 89.53204345703125 149.24859619140625 C95.11966022086199 130.95561410812132 101.6621786531465 113.09463253426077 108.4371246099472 95.21697062253952 C109.92229112163511 91.29729515155145 111.40056814306888 87.3750317836735 112.87852787971497 83.4526344537735 C115.27922222394301 77.08171981438471 117.68392605837607 70.71233085871924 120.0919349193573 64.34417760372162 C123.09867965199408 56.39241687115981 126.09408334994038 48.43646335268758 129.0811882019043 40.47730553150177 C130.60540988916512 36.416057604661205 132.131700519216 32.35558763210082 133.65821838378906 28.295202255249023 C134.74598665819377 25.401768803415678 135.83315814519835 22.50811493076253 136.9188232421875 19.6138916015625 C137.9186067897399 16.949135764809824 138.9210517520326 14.285396904999203 139.92566299438477 11.622457504272461 C140.2887781184353 10.658608933104404 140.65095038237104 9.694404550442243 141.01211166381836 8.729822158813477 C141.49857143754934 7.430981521184236 141.9883291795784 6.133434633834895 142.47900390625 4.836181640625 C142.62006938934326 4.457130546569829 142.76113487243651 4.0780794525146575 142.90647506713867 3.687541961669922 C143.8858231314959 1.114176868504103 143.8858231314959 1.114176868504103 145 0 C155.56 0 166.12 0 177 0 C177 60.06 177 120.12 177 182 C169.40999999999997 182 161.82 182 154 182 C154 132.5 154 83 154 32 C150.7 41.900000000000006 147.39999999999998 51.80000000000001 144 62 C141.49666523061694 68.79220222373837 138.99445159208278 75.57362315244723 136.38092041015625 82.32244873046875 C135.1952184848626 85.38908518000125 134.01866309819707 88.45918838735125 132.84326171875 91.52978515625 C131.57488255528477 94.84243278356712 130.30612023710887 98.15492811689171 129.03451538085938 101.46633911132813 C125.80926738084673 109.8677817684092 122.61423779065228 118.28036454158257 119.4317512512207 126.69806861877441 C118.93063005978229 128.0234149038431 118.42930381955762 129.34868358081138 117.927969455719 130.67394924163818 C115.84890976552077 136.1699069447908 113.77015916938342 141.66598086005365 111.6944580078125 147.1632080078125 C110.55600434909155 150.17790139173167 109.41554302671705 153.1918286240874 108.27374649047852 156.20525741577148 C107.85663934679945 157.30714547157515 107.44022826289961 158.40929734795333 107.02462387084961 159.5117530822754 C104.1719375488828 167.07796365393057 101.14122632474312 174.5483478017636 98 182 C91.73000000000002 182 85.45999999999998 182 79 182 C78.529169921875 180.75766601562498 78.05833984374999 179.51533203125 77.5732421875 178.2353515625 C75.30053128401966 172.23958802278003 73.02557205449483 166.24467814567362 70.75 160.25 C70.53997974395753 159.6966736984253 70.32995948791506 159.14334739685057 70.11357498168945 158.5732536315918 C63.907077927448825 142.2226044603495 57.659551043727504 125.88831364321226 51.36787986755371 109.5702543258667 C41.391733856468136 83.69545226611967 41.391733856468136 83.69545226611967 36.80078125 71.609375 C36.598252410888676 71.07797912597658 36.39572357177735 70.54658325195311 36.18705749511719 69.99908447265625 C30.93705757639418 56.13152535402827 26.52793195426517 42.14978735707868 22 28 C22 78.82 22 129.64 22 182 C14.740000000000009 182 7.47999999999999 182 0 182 C0 121.94 0 61.879999999999995 0 0 Z " transform="translate(247,150)" />
    <path d="M0 0 C98.28961776859501 0 98.28961776859501 0 109.1875 4.1875 C109.75936035156246 4.401806640625011 110.33122070312504 4.616113281249994 110.92041015625 4.8369140625 C124.60585598983096 10.219729197043392 133.73600432415196 18.866168062038383 139.81640625 32.2109375 C142.31331276480864 37.967105949713186 143.5593136863315 43.74334246026217 144 50 C144.01434082031255 50.193037109374984 144.01434082031255 50.193037109374984 144.0869140625 51.169921875 C145.1066037223162 67.30425193538349 140.80193134198544 82.47119534108487 130.25 94.875 C124.39202883423889 101.26721124265822 116.81932965108695 105.40677113841923 108.9375 108.8125 C108.49180664062499 109.00747070312502 108.04611328124997 109.20244140624999 107.5869140625 109.4033203125 C98.0857940395947 113.23758013669027 88.3388050085822 113.27631768615151 78.2421875 113.1953125 C77.00138529935043 113.19236377724178 75.76058059003367 113.19032845889097 74.519775390625 113.189208984375 C69.97147843897392 113.17881769155554 65.42323510339077 113.15089562990295 60.875 113.125 C50.68624999999997 113.08375000000001 40.497499999999945 113.04250000000002 30 113 C30 135.44 30 157.88 30 181 C20.100000000000023 181 10.200000000000045 181 0 181 C0 121.26999999999998 0 61.53999999999999 0 0 Z M30 23 C30 45.110000000000014 30 67.22 30 90 C38.80687499999999 90.08249999999998 47.61374999999998 90.16500000000002 56.6875 90.25 C58.06401733398434 90.26820800781249 58.06401733398434 90.26820800781249 65.030029296875 90.3603515625 C68.4625244140608 90.37841796875 68.4625244140608 90.37841796875 70.08308410644531 90.38177490234375 C71.18507909894322 90.38780952534944 72.2870523402596 90.40164558585406 73.38887023925781 90.42230224609375 C83.64590753434231 90.60452898755369 96.12977047895731 89.38441288394125 104 82 C110.90445216657815 75.28880221976371 113.98320518199455 67.77646693539964 114.292724609375 58.14111328125 C114.40254237494776 48.33343777318055 112.63090603712965 39.97456412701641 105.84716796875 32.578125 C96.68406498176694 23.44872759415665 82.2900365862804 22.905155581254235 70.11711502075195 22.883981704711914 C68.65877466407846 22.88684785400858 67.20050802595983 22.894393619194204 65.7421875 22.90234375 C64.8190924167568 22.90381996911404 63.89599648497949 22.904836474524075 62.972900390625 22.9053955078125 C59.60692055882055 22.910569635514065 56.2409588207704 22.924530166175174 52.875 22.9375 C49.100625000000036 22.947812499999998 49.100625000000036 22.947812499999998 30 23 Z " transform="translate(551,151)" />
    <path d="M0 0 C15.633749999999964 -0.06187499999998636 31.26750000000004 -0.12375000000000114 47.375 -0.1875 C52.275209960937445 -0.21481201171874886 57.175419921875005 -0.24212402343749773 62.22412109375 -0.270263671875 C68.300048828125 -0.2838134765625 68.300048828125 -0.2838134765625 71.16226196289063 -0.2863311767578125 C73.12241220463693 -0.2890783721714172 75.08230804492632 -0.3001228277736061 77.04238891601563 -0.3167266845703125 C87.11585092030282 -0.3981076415676057 97.0061690658631 -0.3253641573760149 106.96337890625 1.346435546875 C107.32330389738081 1.4059186136722701 107.68322888851162 1.4654016804695118 108.05406069755554 1.5266872644424438 C119.29772357093259 3.443820881486374 129.69706025799667 8.095232532348149 138 16 C138.16024658203128 16.150659179687494 138.16024658203128 16.150659179687494 138.97119140625 16.9130859375 C148.66925227078355 26.288704880706405 152.0581949921027 38.69346159469316 152.302490234375 51.830902099609375 C152.44530534332978 66.72765003458161 148.03535189353113 79.91638604644538 137.515625 90.67578125 C131.08787076146632 96.84288246232549 120.59605629542546 103.81844342880589 111.35546875 104.039306640625 C110.90816406249996 104.02633544921875 110.46085937500004 104.0133642578125 110 104 C119.54921786990383 118.65154784196966 129.11140943022667 133.29453739434285 138.68438720703125 147.93057250976563 C141.4084624235711 152.09539277394936 144.13208472753 156.26050898275753 146.85546875 160.42578125 C147.05449546813963 160.73018190383914 147.25352218627927 161.03458255767822 147.45858001708984 161.34820747375488 C148.44262724466034 162.85325906732555 149.42666809254592 164.3583148319492 150.41070556640625 165.86337280273438 C152.23340047344914 168.651127975566 154.05615691897992 171.4388429116346 155.87890625 174.2265625 C156.48901393228925 175.15966779847906 157.09912138300592 176.09277324837126 157.709228515625 177.02587890625 C157.95995620727535 177.40934478759766 158.21068389892582 177.79281066894532 158.46900939941406 178.18789672851563 C159 179 159 179 159 181 C148.11 181 137.22000000000003 181 126 181 C121.77202353547466 174.9600336221066 117.7395933432224 169.1117710076839 114.03106689453125 162.78668212890625 C112.75381178265661 160.61069420918574 111.4608931215605 158.44404683683285 110.16796875 156.27734375 C110.03604125976563 156.0561486816406 110.03604125976563 156.0561486816406 109.368408203125 154.936767578125 C106.6884443467352 150.45647250101615 103.92145393941144 146.03328837778872 101.125 141.625 C100.88516387939455 141.24686157226563 100.64532775878911 140.86872314453126 100.39822387695313 140.4791259765625 C98.88382317446542 138.09341149671025 97.3653549829528 135.71030329523853 95.8460693359375 133.32769775390625 C93.976030712078 130.39313202134122 92.11034478507759 127.45579474846386 90.24362182617188 124.51911926269531 C87.16537142885215 119.67752298842856 84.08221766755912 114.83908173806788 81 110 C63.84000000000003 109.67000000000002 46.67999999999995 109.34000000000003 29 109 C29 132.76 29 156.51999999999998 29 181 C19.42999999999995 181 9.860000000000014 181 0 181 C0 121.26999999999998 0 61.53999999999999 0 0 Z M29 23 C29 43.46000000000001 29 63.920000000000016 29 85 C45.06747630845473 85.16121213687413 45.06747630845473 85.16121213687413 51.875 85.1953125 C56.549009660108936 85.21891573882729 61.22272797023834 85.24644061184222 65.896484375 85.3017578125 C69.30257986084894 85.34205159181414 72.70843576098719 85.3675314334248 76.11476302146912 85.37635397911072 C77.91291396679185 85.38149877464897 79.71038049227627 85.39328755295182 81.50830841064453 85.42292022705078 C94.14570031589756 85.62278927588372 105.4916281667804 83.93412178607662 115 75 C115.20947265625 74.8053515625 115.20947265625 74.8053515625 116.26953125 73.8203125 C122.3040967305219 67.26591553613724 122.66594795569836 58.03277788339983 122.3515625 49.59765625 C122.00262647740419 44.78911703214274 120.61771312593362 41.01108195041644 118 37 C117.91169921874996 36.856672363281234 117.91169921874996 36.856672363281234 117.46484375 36.13134765625 C113.63729818797049 30.102963396053497 106.83436214831147 26.53117967160165 100.0625 24.75 C90.95012917850227 22.9313947355173 81.81538750704556 22.861109871860833 72.5546875 22.90234375 C71.43302459699703 22.903818685349023 70.3113609988111 22.90483598827356 69.189697265625 22.9053955078125 C65.08478750735185 22.910584495207644 60.97989259630083 22.924545387270797 56.875 22.9375 C47.67624999999998 22.958124999999995 38.477499999999964 22.97874999999999 29 23 Z " transform="translate(727,151)" />
    <path d="M0 0 C9.569999999999936 0 19.1400000000001 0 29 0 C29.329999999999927 28.379999999999995 29.660000000000082 56.75999999999999 30 86 C57 59.00000000000003 57 59.00000000000003 64 51 C65.89114975160464 49.052093052968985 67.77862402621531 47.117109574355965 69.71163940429688 45.21319580078125 C70.5988380926276 44.339202788561806 71.48248516861213 43.46173660973517 72.365478515625 42.58349609375 C74.5558700278093 40.40621032121737 76.75179619794449 38.234536750248935 78.9476318359375 36.062744140625 C81.11382988519881 33.91974836753977 83.27768419351492 31.77442907477652 85.4375 29.625 C85.73488004684441 29.329119873046864 86.03226009368905 29.033239746093756 86.33865165710449 28.7283935546875 C89.91820108829666 25.160470303455497 93.3962774247666 21.553606306655894 96.66639709472656 17.696044921875 C99.87511264082696 13.921430605316033 103.41450451101446 10.478410598151811 106.9375 7 C109.26812500000005 4.689999999999998 111.59875000000011 2.3799999999999955 114 0 C125.54999999999995 0 137.0999999999999 0 149 0 C145.2168482911909 4.413676993610636 141.49429659353086 8.648197529405167 137.381103515625 12.716552734375 C136.84948515383485 13.246243461470925 136.3181002530116 13.776168582917677 135.78692626953125 14.306304931640625 C134.6573261867652 15.432784382268096 133.52620306984522 16.557701713432124 132.39380073547363 17.681364059448242 C130.59489044379757 19.46653792570484 128.79999207878404 21.25571167832487 127.00559997558594 23.045425415039063 C122.87184714425439 27.16723008438231 118.73306485444368 31.283972060390283 114.59417724609375 35.40061950683594 C110.79780877337475 39.176687504568406 107.00257613635495 42.95387983874045 103.21140998601913 46.735171854496 C101.72332779370095 48.21913631351225 100.23421690428904 49.70203466839598 98.74249458312988 51.18234062194824 C92.84231064516894 57.037764534293046 87.01795287722302 62.88946104409058 81.65158462524414 69.2475757598877 C80.05385050501172 71.0925761401021 78.30966744568923 72.79816823653434 76.5625 74.5 C76.21251953125011 74.84546875000001 75.86253906249999 75.19093750000002 75.501953125 75.546875 C74.67035592651109 76.36708045604382 73.83649816534853 77.18479928108604 73 78 C76.98591207343839 83.56682234729155 81.31930803818614 88.80343362568729 85.759033203125 94.008544921875 C88.71364650062151 97.47351578182042 91.62949327212937 100.96462132249354 94.5 104.5 C98.01546517641327 108.82532712031588 101.59910582502107 113.08767542254549 105.20901489257813 117.33401489257813 C108.32659284483725 121.0026003655471 111.40435112584373 124.6984546605857 114.4375 128.4375 C117.88764286122569 132.68767598846642 121.42666928233666 136.8536380937237 125 141 C128.94285875067635 145.5751486826618 132.8274688655565 150.1870225171299 136.630126953125 154.880126953125 C139.36078535552542 158.24240817098905 142.15433614338258 161.54606726278962 144.96539306640625 164.8409423828125 C157 178.9496397176908 157 178.9496397176908 157 181 C145.1199999999999 181 133.24 181 121 181 C110.68138586956275 168.3883605072433 110.68138586956275 168.3883605072433 105.75 162.3125 C105.19858910657604 161.63344616512973 104.6471561567987 160.95441024015008 104.095703125 160.275390625 C102.96020294725372 158.87718367121704 101.82479364141659 157.47890300709088 100.689453125 156.08056640625 C99.0381665927755 154.04687042458454 97.38636590871056 152.01359258234476 95.734375 149.98046875 C95.4670556640624 149.65147583007808 95.19973632812503 149.32248291015628 94.92431640625 148.9835205078125 C94.1162201673576 147.9890061715654 93.30811240629805 146.99450119913263 92.5 146 C89.48611959522759 142.290976783392 86.47228388729604 138.58191808186297 83.45986938476563 134.8717041015625 C82.33448651452454 133.48566076889347 81.20897446863455 132.09972236814525 80.08343505859375 130.71380615234375 C79.52890163215261 130.03094422882793 78.97441738527255 129.3480423649313 78.41998291015625 128.66510009765625 C75.81093991148532 125.45151093070808 73.20081501471441 122.23904033011598 70.5703125 119.04296875 C64.59707053031889 111.785368923926 58.78355235165509 104.40900581460969 53 97 C44.64669060923893 101.17665469538056 37.518644953909416 107.45994582343513 30 113 C29.670000000000073 135.44 29.339999999999918 157.88 29 181 C19.430000000000064 181 9.8599999999999 181 0 181 C0 121.26999999999998 0 61.53999999999999 0 0 Z " transform="translate(1296,151)" />
    <path d="M0 0 C9.900000000000091 0 19.799999999999955 0 30 0 C30 60.06 30 120.12 30 182 C20.09999999999991 182 10.200000000000045 182 0 182 C0 121.94 0 61.879999999999995 0 0 Z " transform="translate(1478,151)" />
    <path d="M0 0 C11.220000000000027 0 22.440000000000055 0 34 0 C40.88212025316466 10.323180379746873 40.88212025316466 10.323180379746873 43.0859375 13.99609375 C43.344444885254006 14.422778472900404 43.602952270507785 14.84946319580078 43.869293212890625 15.289077758789063 C44.42036859976338 16.198968908067172 44.97060213540772 17.10937042308163 45.52001953125 18.020263671875 C47.03753790949668 20.53573888196135 48.56207770057085 23.046956867698043 50.0859375 25.55859375 C50.40447692871089 26.083916931152345 50.723016357421784 26.60924011230469 51.05120849609375 27.150482177734375 C54.672585672052946 33.11769668752294 58.336386820200914 39.05866174299865 62 45 C67.31378866110435 53.620447014444835 72.6003878439069 62.256665434605424 77.85751342773438 70.91177368164063 C82.8091929827965 79.0624269416623 87.80308702930233 87.18648905975797 92.80929565429688 95.30374145507813 C96.74341000805953 101.68434449179603 100.66074144329764 108.07446129197513 104.546875 114.484375 C104.73635396957388 114.79684991836547 104.925832939148 115.10932483673093 105.12105369567871 115.4312686920166 C106.78979765088184 118.18352689216891 108.45799176461537 120.93611616415183 110.12197875976563 123.69125366210938 C111.13374920071283 125.36636334845707 112.14692365540827 127.04061821816373 113.16015625 128.71484375 C113.44505920410165 129.18794982910157 113.72996215820308 129.66105590820314 114.02349853515625 130.14849853515625 C117.26010890713928 135.49243817925253 120.64271935601505 140.72427327373794 124 146 C124 97.82 124 49.639999999999986 124 0 C132.57999999999993 0 141.16000000000008 0 150 0 C150 59.73000000000002 150 119.46000000000004 150 181 C138.45000000000005 181 126.90000000000009 181 115 181 C107.045417059378 169.6363100848257 107.045417059378 169.6363100848257 104.0003662109375 164.29803466796875 C102.96344271278599 162.48246280452798 101.90863775562002 160.67727454746796 100.85546875 158.87109375 C100.62973175048819 158.48342834472658 100.40399475097661 158.09576293945315 100.17141723632813 157.69635009765625 C97.26321893163163 152.7163278799348 94.25485600651041 147.79706728014344 91.25 142.875 C90.95379760742185 142.38950683593748 90.6575952148437 141.90401367187496 90.3524169921875 141.40380859375 C88.83613575981917 138.91863859767182 87.31900084000108 136.43399167221355 85.80126953125 133.94970703125 C83.21045890334244 129.70825012181007 80.62625947545348 125.46277057077424 78.0423583984375 121.21710205078125 C77.18232954421023 119.80400451955654 76.32212860321965 118.39101184543244 75.4619140625 116.97802734375 C71.16562633056287 109.92004342303568 66.8764738952068 102.85773721029716 62.589141845703125 95.7943115234375 C60.42768397410555 92.23332970736095 58.26574438179887 88.67264029012654 56.10377502441406 85.11196899414063 C55.92908471107489 84.82426069259645 55.754394397735496 84.53655239105223 55.5744104385376 84.24012565612793 C55.40096827507023 83.95447305679323 55.227526111602856 83.66882045745848 55.048828125 83.37451171875 C53.729601598600766 81.201791248754 52.41060009025091 79.02893446609062 51.091796875 76.85595703125 C49.591124045157585 74.38350193852011 48.08946795306383 71.91164633148293 46.587158203125 69.440185546875 C46.0547832613222 68.5640724536718 45.52268777844415 67.68778943857382 44.990966796875 66.811279296875 C38.73279311351098 56.49599666966293 32.35089583589479 46.25913942721456 26 36 C26 83.85 26 131.7 26 181 C17.420000000000073 181 8.839999999999918 181 0 181 C0 121.26999999999998 0 61.53999999999999 0 0 Z " transform="translate(1549,151)" />
    <path d="M0 0 C0.5725854492187636 0.0012890625000068212 1.1451708984375273 0.0025781250000136424 1.735107421875 0.00390625 C6.156735131639948 0.10489988791039195 8.873169048147133 0.7826730615865927 12.5625 3.3125 C15.5625 8.3125 15.5625 8.3125 15.5625 11.3125 C14.077499999999986 11.47750000000002 14.077499999999986 11.47750000000002 6.5625 12.3125 C6.232499999999959 11.322499999999991 5.902500000000032 10.332499999999982 5.5625 9.3125 C3.6693807432064887 8.070140487729248 1.7458727279686173 8.163767687739494 -0.4375 8.1875 C-0.79328124999995 8.18363281249998 -1.1490625000000136 8.179765625000016 -1.515625 8.17578125 C-3.5556809183383393 8.183393398949022 -4.565180674725298 8.376340337362649 -6.4375 9.3125 C-6.4375 11.292500000000018 -6.4375 13.27249999999998 -6.4375 15.3125 C-5.984233398437482 15.407487792968766 -5.530966796874964 15.502475585937475 -5.06396484375 15.600341796875 C-3.3493858545947433 15.96856325962375 -1.6398369274838842 16.352485482919292 0.06884765625 16.746826171875 C0.8024960720761101 16.91286576314775 1.5375311554545306 17.07291660249581 2.27392578125 17.226318359375 C7.796535324594515 18.382826633458706 11.664087201265147 20.09248947147887 15.5625 24.3125 C16.479580581044843 25.745588509923095 16.684292200653772 26.78704595423534 16.66015625 28.4765625 C16.656933593749955 28.87617187500001 16.653710937500023 29.275781250000023 16.650390625 29.6875 C16.646201171874964 29.89375000000001 16.646201171874964 29.89375000000001 16.625 30.9375 C16.620488281250005 31.357734375000007 16.61597656250001 31.777968750000014 16.611328125 32.2109375 C16.5581093458718 36.894190063281826 16.334979016852458 35.65378147472126 12.5625 41.3125 C4.962604323654318 44.26801498524554 -1.712962286246011 45.78894879738709 -9.631103515625 42.808837890625 C-13.209707505851156 41.22980465915714 -15.287653078403991 38.506262974870936 -17.4375 35.3125 C-17.4375 33.99250000000001 -17.4375 32.672500000000014 -17.4375 31.3125 C-16.11749999999995 31.14749999999998 -16.11749999999995 31.14749999999998 -9.4375 30.3125 C-8.777500000000032 31.962499999999977 -8.11749999999995 33.61250000000001 -7.4375 35.3125 C2.3284574468085566 36.88696808510639 2.3284574468085566 36.88696808510639 6.5625 34.3125 C7.5625 31.3125 7.5625 31.3125 6.5625 28.3125 C0.6224999999999454 26.332499999999982 -5.3174999999999955 24.35250000000002 -11.4375 22.3125 C-15.4375 17.3125 -15.4375 17.3125 -15.4375 7.3125 C-11.147643090642646 1.2749236090526779 -7.3316627898294655 -0.06825111542531204 0 0 Z " transform="translate(566.4375,467.6875)" />
    <path d="M0 0 C2.9700000000000273 0 5.940000000000055 0 9 0 C9 14.189999999999998 9 28.379999999999995 9 43 C6.029999999999973 43 3.0599999999999454 43 0 43 C0 28.810000000000002 0 14.620000000000005 0 0 Z " transform="translate(675,468)" />
    <path d="M0 0 C3.4003954521708692 2.126500990738066 6.229502479150142 5.182804097538792 7.25 9.125 C7.332499999999982 9.681874999999991 7.414999999999964 10.238749999999982 7.5 10.8125 C4.708740401556042 12.47537805864738 2.751566042609511 13.044754717329226 -0.5 12.8125 C-1.82000000000005 11.162500000000023 -3.1399999999999864 9.512499999999989 -4.5 7.8125 C-9.071950601451249 6.837501889027692 -12.33497586614692 6.490067188035823 -16.5 8.8125 C-19.405912727034888 14.191897964927648 -20.914958563456594 19.833193436217073 -19.1923828125 25.89501953125 C-17.89320976569661 29.548730606446497 -16.83449368313495 31.589504211243366 -13.5 33.8125 C-10.860000000000014 33.8125 -8.220000000000027 33.8125 -5.5 33.8125 C-4.716249999999945 33.02875 -3.9325000000000045 32.245000000000005 -3.125 31.4375 C-1.5833333333333712 29.895833333333314 -0.04166666666674246 28.35416666666663 1.5 26.8125 C3.8099999999999454 27.80250000000001 6.119999999999891 28.792500000000018 8.5 29.8125 C5.96375172196872 35.95917229734624 3.7520733060734983 39.476026323914084 -2.52734375 42.26953125 C-3.5383183950908688 42.59495227309793 -4.440937116270675 42.72300172813556 -5.5 42.8125 C-5.989843749999977 42.864062500000045 -6.4796874999999545 42.91562499999998 -6.984375 42.96875 C-12.259486539634509 43.259123112273414 -16.628867228053423 41.66816962740819 -21.5 39.8125 C-22.2969203003438 38.89999583930103 -23.087322269983588 37.982932403614655 -23.875 37.0625 C-23.985859375000018 36.936171875000014 -23.985859375000018 36.936171875000014 -24.546875 36.296875 C-27.92123787761591 32.32703632045184 -28.89291681237455 28.74133385168784 -29.25 23.5625 C-29.290202636718732 22.986208496093752 -29.330405273437464 22.409916992187505 -29.371826171875 21.816162109375 C-29.719080748800366 15.31311379871255 -28.82433500917216 9.502122676485385 -24.8046875 4.1328125 C-18.62730577302011 -2.1185498464647026 -7.995849953659217 -3.531162162275905 0 0 Z " transform="translate(1025.5,469.1875)" />
    <path d="M0 0 C2.9700000000000273 0 5.940000000000055 0 9 0 C9 14.189999999999998 9 28.379999999999995 9 43 C6.029999999999973 43 3.0599999999999454 43 0 43 C0 28.810000000000002 0 14.620000000000005 0 0 Z " transform="translate(1178,468)" />
    <path d="M0 0 C3.932230259158132 2.4728566491024253 6.747139428136279 6.370877921291424 8.2158203125 10.739501953125 C9.612132917211511 17.212041318108504 9.745019083873558 25.505644552136573 6.5712890625 31.427001953125 C6.411445312500064 31.67256835937502 6.411445312500064 31.67256835937502 5.6025390625 32.915283203125 C5.262226562500018 33.45797851562497 4.921914062500036 34.000673828125 4.5712890625 34.559814453125 C1.4257369144493168 38.927456118154964 -2.245962804031933 40.829699206218606 -7.3974609375 41.915283203125 C-12.693921304550258 42.74791452720274 -17.759378819416497 41.52878560644831 -22.3974609375 38.915283203125 C-26.251663938421416 36.106794194701706 -28.879398023445447 32.43512385511207 -30.3974609375 27.915283203125 C-30.84402173564672 24.977439142028288 -30.68405586368317 21.99941974097254 -30.5849609375 19.040283203125 C-30.56987433704262 18.248642232884208 -30.55619299165778 17.456973183882837 -30.5439453125 16.665283203125 C-30.440003064863504 10.564566215184186 -28.38443670915285 6.006759584864824 -24.0576171875 1.528564453125 C-17.66645951173132 -3.6970325522906933 -7.216076052647622 -3.925530690898597 0 0 Z M-19.6474609375 9.290283203125 C-21.229531390552893 11.48476802510163 -22.1774581530633 13.220249093776204 -22.3974609375 15.915283203125 C-22.449023437500045 16.41801757812499 -22.50058593750009 16.920751953124977 -22.5537109375 17.438720703125 C-22.82738015777477 22.47879550985266 -21.37471243090613 26.384081864069287 -19.3974609375 30.915283203125 C-14.3974609375 33.915283203125 -14.3974609375 33.915283203125 -7.3974609375 33.915283203125 C-0.6853610784301054 28.321866653900145 -0.6853610784301054 28.321866653900145 -0.236328125 24.568359375 C0.1300180809835183 12.70257615678105 0.1300180809835183 12.70257615678105 -3.3974609375 7.915283203125 C-4.330916808027723 7.407773215265252 -5.269437659923369 6.909572808858741 -6.2099609375 6.415283203125 C-6.732031250000091 6.1368457031250045 -7.2541015624999545 5.858408203125009 -7.7919921875 5.571533203125 C-12.321107722909801 3.7202159039793514 -16.647064717491503 5.744360397660444 -19.6474609375 9.290283203125 Z " transform="translate(1246.3974609375,470.084716796875)" />
    <path d="M0 0 C0.6226171875000546 0.009023437499990905 1.2452343750001091 0.01804687499998181 1.88671875 0.02734375 C3.803199974980089 0.07459945143784807 4.636430051737307 0.8972219627670484 6.25 1.9375 C6.7952734375001 2.2855468750000227 7.340546874999973 2.6335937499999886 7.90234375 2.9921875 C9.84260279001478 4.4648494860499 9.84260279001478 4.4648494860499 10.3125 6.0625 C10.41015625 7.5703125 10.41015625 7.5703125 10.375 9.1875 C10.365976562500009 9.726328125000009 10.356953125000018 10.265156250000018 10.34765625 10.8203125 C10.279205383207682 13.238909793325263 8.811973813663599 15.237278426816317 7.3125 17.0625 C5.148949250920623 18.70491278890654 2.7302533444189976 19.83081433397524 0.3125 21.0625 C1.962500000000091 23.702499999999986 3.6124999999999545 26.342499999999973 5.3125 29.0625 C5.972500000000082 27.577499999999986 5.972500000000082 27.577499999999986 9.3125 20.0625 C11.292500000000018 20.392499999999984 13.272500000000036 20.722500000000025 15.3125 21.0625 C16.3125 24.0625 16.3125 24.0625 15.9453125 24.85693359375 C15.397130869866032 26.048701541570324 14.854773420336869 27.243032871420155 14.3125 28.4375 C14.1217187499999 28.850000000000023 13.930937500000027 29.26249999999999 13.734375 29.6875 C13.553906249999955 30.08710937500001 13.373437499999909 30.486718750000023 13.1875 30.8984375 C13.019921874999909 31.2650146484375 12.852343750000045 31.631591796875 12.6796875 32.00927734375 C12.3125 33.0625 12.3125 33.0625 12.3125 35.0625 C14.622499999999945 35.392499999999984 16.93249999999989 35.72249999999997 19.3125 36.0625 C19.3125 38.3725 19.3125 40.682500000000005 19.3125 43.0625 C9.546542553191557 43.44547872340428 9.546542553191557 43.44547872340428 5.3125 41.0625 C5.117851562499936 41.17658203125001 5.117851562499936 41.17658203125001 4.1328125 41.75390625 C-1.3252939316851098 44.558417158446446 -5.7432697559152075 44.05519841098396 -11.6875 43.0625 C-12.503568898694311 42.44216718401833 -13.31523660381572 41.81604155964442 -14.125 41.1875 C-14.351230468749918 41.01347656249999 -14.351230468749918 41.01347656249999 -15.49609375 40.1328125 C-16.986118332442857 38.79423303905145 -17.61655255573328 37.83544570463374 -17.801025390625 35.82568359375 C-17.795788574218705 35.37531738281251 -17.79055175781241 34.92495117187502 -17.78515625 34.4609375 C-17.781933593749955 33.97109375000002 -17.77871093749991 33.48124999999999 -17.775390625 32.9765625 C-17.767011718749927 32.468671874999984 -17.758632812500082 31.960781250000025 -17.75 31.4375 C-17.74548828124989 30.921875 -17.74097656250001 30.40625 -17.736328125 29.875 C-17.706435791805234 26.64662801496047 -17.345788152236082 25.62091832170563 -15.3125 23.125 C-15.201640624999982 22.986103515625018 -15.201640624999982 22.986103515625018 -14.640625 22.283203125 C-13.362864993233643 20.72358429321173 -12.533290895649543 19.98539544782477 -10.6875 19.0625 C-10.6875 14.77249999999998 -10.6875 10.482500000000016 -10.6875 6.0625 C-5.750697026022408 -0.10850371747210374 -5.750697026022408 -0.10850371747210374 0 0 Z M-2.6875 6.0625 C-4.6875 11.0625 -4.6875 11.0625 -3.6875 15.0625 C-2.037499999999909 14.732500000000016 -0.3875000000000455 14.402499999999975 1.3125 14.0625 C1.9725000000000819 13.072499999999991 2.6324999999999363 12.082499999999982 3.3125 11.0625 C2.9825000000000728 9.412500000000023 2.652499999999918 7.762499999999989 2.3125 6.0625 C0.662499999999909 6.0625 -0.9874999999999545 6.0625 -2.6875 6.0625 Z M-7.6875 25.0625 C-8.18249999999989 25.722500000000025 -8.18249999999989 25.722500000000025 -10.6875 29.0625 C-9.6875 35.0625 -9.6875 35.0625 -7.6875 37.0625 C-5.377500000000055 37.0625 -3.067500000000109 37.0625 -0.6875 37.0625 C-0.6875 33.0625 -0.6875 33.0625 -5.6875 25.0625 C-6.347500000000082 25.0625 -7.007499999999936 25.0625 -7.6875 25.0625 Z " transform="translate(1396.6875,467.9375)" />
    <path d="M0 0 C2.424939723432317 2.0752618949750854 4.367569651910571 4.49798170880689 6.24609375 7.06640625 C5.916093750000073 8.386406249999993 5.586093749999918 9.706406249999986 5.24609375 11.06640625 C3.266093749999982 11.396406249999984 1.2860937499999636 11.726406250000025 -0.75390625 12.06640625 C-2.403906250000091 10.416406250000023 -4.0539062499999545 8.766406249999989 -5.75390625 7.06640625 C-11.75390625 6.06640625 -11.75390625 6.06640625 -16.75390625 8.06640625 C-20.125244162342597 12.561523466456833 -20.927437411260826 16.507624717612032 -20.75390625 22.06640625 C-20.182115119874197 25.2067373777071 -19.004294074035442 28.141770322594823 -17.75390625 31.06640625 C-15.099208666584445 32.613526326537226 -13.147507349467787 33.31231398459494 -10.00390625 33.19140625 C-9.390312499999936 33.17335937500002 -8.7767187500001 33.15531249999998 -8.14453125 33.13671875 C-6.180709041874707 33.03742436869027 -5.71315731850359 32.06045970524701 -4.31640625 30.69140625 C-3.8639453124999363 30.250546874999998 -3.4114843750001 29.809687499999995 -2.9453125 29.35546875 C-1.75390625 28.06640625 -1.75390625 28.06640625 -0.75390625 26.06640625 C1.5560937499999454 26.726406250000025 3.866093749999891 27.386406249999993 6.24609375 28.06640625 C6.411093749999964 28.561406250000005 6.411093749999964 28.561406250000005 7.24609375 31.06640625 C2.1008069642650753 37.92678863097973 -0.7264277919612141 41.05097791365654 -8.5625 42.37109375 C-13.839216094657559 42.59044915347306 -18.99530370440516 41.07655074058846 -23.265625 37.96484375 C-27.37536763030289 34.13895721728562 -29.949702553042926 29.624578284601057 -30.15234375 23.97265625 C-30.16753147147824 22.87414983149779 -30.163883229216253 21.77862342436225 -30.14501953125 20.68017578125 C-30.128911789531003 19.566789149091846 -30.14494412487261 18.457027690115126 -30.1640625 17.34375 C-30.180772284546947 12.246203650624523 -29.283472729852974 8.05300132198181 -25.89990234375 4.05810546875 C-25.055775138252557 3.2235110380181027 -24.1876913070339 2.4858469388104254 -23.25390625 1.75390625 C-22.958710937499973 1.503183593750009 -22.663515624999945 1.2524609375000182 -22.359375 0.994140625 C-16.874540470555075 -3.512122105138701 -6.001635901838881 -3.6864647824351096 0 0 Z " transform="translate(1504.75390625,469.93359375)" />
    <path d="M0 0 C2.9700000000000273 0 5.940000000000055 0 9 0 C9.330000000000041 5.610000000000014 9.659999999999968 11.220000000000027 10 17 C10.990000000000009 15.865625000000023 11.980000000000018 14.731249999999989 13 13.5625 C16.972406212815713 9.016993928254522 20.98507952089176 4.507980888823283 25 0 C28.629999999999995 0 32.25999999999999 0 36 0 C31.10984377306943 5.76787657535408 26.07669634599938 11.395964788400875 21 17 C22.61989916439927 20.649323398450065 24.875709387071424 23.788759659912103 27.20361328125 27.008544921875 C27.869463874222674 27.929840015060904 28.530769680713888 28.85425810467791 29.19140625 29.779296875 C31.694253563934808 33.270442602637445 34.271478403524156 36.67994719304431 37 40 C37 40.65999999999997 37 41.31999999999999 37 42 C33.700000000000045 42 30.399999999999977 42 27 42 C26.156953124999973 40.86820312499998 25.313906249999945 39.736406250000016 24.4453125 38.5703125 C23.624900381315797 37.47122588715331 22.803932498627432 36.37255659822091 21.98291015625 35.27392578125 C21.413968313296323 34.51199057551872 20.84560242978489 33.74962493592426 20.27783203125 32.98681640625 C19.46018214224671 31.888502107010936 18.640452422102157 30.791768146230027 17.8203125 29.6953125 C17.56814971923825 29.355654602050777 17.315986938476613 29.015996704101553 17.056182861328125 28.666046142578125 C15.798287022369095 26.988587881262504 14.538568263801722 25.43642265292698 13 24 C12.340000000000032 24.329999999999984 12.340000000000032 24.329999999999984 9 26 C9 31.279999999999973 9 36.56 9 42 C6.029999999999973 42 3.0599999999999454 42 0 42 C0 28.139999999999986 0 14.279999999999973 0 0 Z " transform="translate(611,469)" />
    <path d="M0 0 C3.2999999999999545 0 6.600000000000023 0 10 0 C11.655443015551555 3.022516064066963 13.309437308574047 6.045818828720087 14.962158203125 9.06982421875 C15.523294805796468 10.096077494379472 16.084810304576763 11.122123699136523 16.646728515625 12.14794921875 C17.459521538509648 13.631928657865672 18.270898447242985 15.116675081893106 19.08203125 16.6015625 C19.32903274536136 17.051817932128927 19.576034240722606 17.502073364257797 19.830520629882813 17.965972900390625 C21.637028692949798 21.27762011055529 23.310010951747245 24.62002190349449 25 28 C25.33000000000004 18.75999999999999 25.659999999999968 9.519999999999982 26 0 C28.309999999999945 0 30.620000000000005 0 33 0 C33 13.860000000000014 33 27.720000000000027 33 42 C29.700000000000045 42 26.399999999999977 42 23 42 C18.379999999999995 33.09000000000003 13.759999999999991 24.180000000000007 9 15 C8.669999999999959 15.329999999999984 8.340000000000032 15.660000000000025 8 16 C8 24.579999999999984 8 33.15999999999997 8 42 C5.360000000000014 42 2.7200000000000273 42 0 42 C0 28.139999999999986 0 14.279999999999973 0 0 Z " transform="translate(714,469)" />
    <path d="M0 0 C10.230000000000018 0 20.460000000000036 0 31 0 C31 2.3100000000000023 31 4.6200000000000045 31 7 C23.74000000000001 7 16.480000000000018 7 9 7 C9 10.300000000000011 9 13.600000000000023 9 17 C15.600000000000023 17 22.200000000000045 17 29 17 C29 19.310000000000002 29 21.620000000000005 29 24 C22.399999999999977 24 15.799999999999955 24 9 24 C9 27.629999999999995 9 31.25999999999999 9 35 C16.590000000000032 35 24.17999999999995 35 32 35 C32 37.31 32 39.620000000000005 32 42 C21.440000000000055 42 10.879999999999995 42 0 42 C0 28.139999999999986 0 14.279999999999973 0 0 Z " transform="translate(810,469)" />
    <path d="M0 0 C22 0 22 0 30 5 C34.7700060375887 11.115392355882932 35.464029874853054 17.78888135428093 34.8515625 25.42578125 C34.05079473513035 31.58160153083952 30.697712889684794 36.074255961926724 26 40 C21 42 21 42 0 42 C0 28.139999999999986 0 14.279999999999973 0 0 Z M8 7 C8 16.24000000000001 8 25.480000000000018 8 35 C18.950617283950578 35 18.950617283950578 35 22.96484375 31.05078125 C25.901571142418447 27.354303487403683 26.27426611319936 23.490236074520453 26.234375 18.8828125 C25.829997680870974 15.634314702996846 24.481335888263175 12.900949447848632 23 10 C18 7 18 7 8 7 Z " transform="translate(871,469)" />
    <path d="M0 0 C2.6399999999999864 0 5.279999999999973 0 8 0 C8.019819335937541 0.7864892578124909 8.039638671874968 1.5729785156249818 8.06005859375 2.38330078125 C8.136611191663178 5.324523201292891 8.225247682394752 8.265282583975647 8.3173828125 11.2060546875 C8.35546892258435 12.474515811496758 8.390355961715613 13.743077459052017 8.421875 15.01171875 C8.467972980000127 16.844113455006777 8.525886261390383 18.675828145848698 8.5859375 20.5078125 C8.597488708496144 21.067436828613268 8.609039916992174 21.627061157226535 8.620941162109375 22.203643798828125 C8.763942007107744 26.090759013276283 9.587773771675643 29.379609952656267 11 33 C12.94802354965384 34.07850345948265 14.390873809622576 34.10387270722924 16.625 34.0625 C17.256640625000045 34.05347656250001 17.888281249999977 34.04445312500002 18.5390625 34.03515625 C20 34 20 34 24 30 C24.831423097524294 26.316292681787445 25.195497571529927 22.812485322670625 25.31640625 19.04296875 C25.337187347412055 18.49514236450193 25.357968444824223 17.947315979003918 25.379379272460938 17.382888793945313 C25.444206219096714 15.651206905574895 25.503444690696597 13.91938733610283 25.5625 12.1875 C25.605749031611822 11.00584574678544 25.649365244210344 9.824204872044731 25.693359375 8.642578125 C25.79981776082252 5.761855993493896 25.90126831635257 2.8809968781362727 26 0 C28.639999999999986 0 31.279999999999973 0 34 0 C34.06816589022105 3.93824061144079 34.12303656016695 7.876150509169861 34.155436515808105 11.814821243286133 C34.17099841928564 13.64435112096379 34.19205596143843 15.473451573453247 34.226318359375 17.302734375 C34.25926049237887 19.072896346600032 34.27692397343958 20.84264915831426 34.28463172912598 22.613094329833984 C34.29275602690552 23.606793900799573 34.3161189336754 24.6003320788181 34.33988952636719 25.593780517578125 C34.341882410350536 31.048348266396317 32.718832948451904 35.05286025188673 29.25 39.25 C25.44288126465335 42.72417679271177 19.82112824065655 43.39396570601639 14.84375 43.26953125 C10.452017733816888 42.62751954159614 5.904191791767516 41.11573315803986 3.0625 37.6875 C2.7028515624999727 37.2582421875 2.3432031249999454 36.828984375000005 1.97265625 36.38671875 C0.25303990270936083 33.935056889404905 -0.1252089994451353 31.677876859616617 -0.113525390625 28.721923828125 C-0.11344985961909515 28.081486358642564 -0.11337432861330399 27.44104888916013 -0.1132965087890625 26.781204223632813 C-0.108191046662796 26.089812426799767 -0.10297507101154224 25.39842143839911 -0.09765625 24.70703125 C-0.09578917676401488 23.993872064920026 -0.09436663936128298 23.280711589829025 -0.0933685302734375 22.567550659179688 C-0.08956609292454232 20.69833786621956 -0.07975554273559737 18.829203832920655 -0.06866455078125 16.96002197265625 C-0.05840128715692572 15.049530691465577 -0.053860419778288815 13.13902657881971 -0.048828125 11.228515625 C-0.03813094567578901 7.485637167434049 -0.020552891777811055 3.7428396919167426 0 0 Z " transform="translate(934,469)" />
    <path d="M0 0 C3.630000000000109 0 7.259999999999991 0 11 0 C12.699788589616674 5.0315550538387015 14.395732619111186 10.064361253208347 16.08496856689453 15.099469184875488 C16.869523819617143 17.43748765613236 17.65574152230829 19.774919101309024 18.44580078125 22.111083984375 C19.20836930588439 24.366163446519238 19.966515195701277 26.62268552061863 20.721633911132813 28.88027000427246 C21.010313895959143 29.740772356437674 21.30057615128453 30.600745581196975 21.592453002929688 31.460168838500977 C22.001399986200568 32.66519304970882 22.404650349609483 33.87198600621889 22.806640625 35.079345703125 C22.928200225830096 35.43323867797852 23.049759826660193 35.787131652832045 23.175003051757813 36.15174865722656 C23.879071876201124 38.29049991567945 24 39.66055769552338 24 42 C21.3599999999999 42 18.720000000000027 42 16 42 C14.680000000000064 38.69999999999999 13.3599999999999 35.39999999999998 12 32 C9.690000000000055 31.83499999999998 9.690000000000055 31.83499999999998 -2 31 C-2.9374999999997726 35.37499999999932 -2.9374999999997726 35.37499999999932 -3.226318359375 36.74365234375 C-3.265675048828143 36.92387939453124 -3.265675048828143 36.92387939453124 -3.46484375 37.8359375 C-3.54339599609375 38.2025146484375 -3.6219482421875 38.569091796875 -3.702880859375 38.94677734375 C-4 40 -4 40 -5 42 C-7.970000000000027 42 -10.940000000000055 42 -14 42 C-11.840247963300499 33.48614671481573 -9.111083966268552 25.20465905726661 -6.2166748046875 16.91796875 C-5.754634012927909 15.592098210731194 -5.296394442950941 14.26492719025407 -4.83820915222168 12.93772029876709 C-4.287032901204611 11.342015778174812 -3.733371518680542 9.747179973203231 -3.1796875 8.15234375 C-2.9755221557616096 7.562834320068362 -2.7713568115234466 6.973324890136723 -2.561004638671875 6.3659515380859375 C-2.3705557250975744 5.82100540161133 -2.180106811523501 5.276059265136723 -1.98388671875 4.714599609375 C-1.8175070190429778 4.237037200927716 -1.6511273193359557 3.759474792480489 -1.479705810546875 3.2674407958984375 C-1 2 -1 2 0 0 Z M5 8 C4.1749999999999545 10.639999999999986 4.1749999999999545 10.639999999999986 0 24 C3.2999999999999545 24 6.599999999999909 24 10 24 C8.836170842573665 18.59650748337822 7.599620665888324 13.292361990332381 6 8 C5.670000000000073 8 5.339999999999918 8 5 8 Z " transform="translate(1073,469)" />
    <path d="M0 0 C10.8900000000001 0 21.779999999999973 0 33 0 C33 2.3100000000000023 33 4.6200000000000045 33 7 C29.039999999999964 7 25.079999999999927 7 21 7 C21 18.55000000000001 21 30.100000000000023 21 42 C18.029999999999973 42 15.059999999999945 42 12 42 C12 30.44999999999999 12 18.899999999999977 12 7 C8.039999999999964 7 4.079999999999927 7 0 7 C0 4.689999999999998 0 2.3799999999999955 0 0 Z " transform="translate(1118,469)" />
    <path d="M0 0 C3.2999999999999545 0 6.599999999999909 0 10 0 C11.655443015551555 3.022516064066963 13.309437308573933 6.045818828720087 14.962158203125 9.06982421875 C15.523294805796468 10.096077494379472 16.08481030457665 11.122123699136523 16.646728515625 12.14794921875 C17.45952153850976 13.631928657865672 18.27089844724287 15.116675081893106 19.08203125 16.6015625 C19.329032745361246 17.051817932128927 19.57603424072272 17.502073364257797 19.830520629882813 17.965972900390625 C21.637028692949798 21.27762011055529 23.310010951747245 24.62002190349449 25 28 C25.329999999999927 18.75999999999999 25.660000000000082 9.519999999999982 26 0 C28.309999999999945 0 30.61999999999989 0 33 0 C33 13.860000000000014 33 27.720000000000027 33 42 C29.700000000000045 42 26.40000000000009 42 23 42 C18.38000000000011 33.09000000000003 13.759999999999991 24.180000000000007 9 15 C8.670000000000073 15.329999999999984 8.339999999999918 15.660000000000025 8 16 C8 24.579999999999984 8 33.15999999999997 8 42 C5.3599999999999 42 2.7200000000000273 42 0 42 C0 28.139999999999986 0 14.279999999999973 0 0 Z " transform="translate(1284,469)" />
    <path d="M0 0 C3.630000000000109 0 7.259999999999991 0 11 0 C12.82699068922875 5.327913007285474 14.652696201200115 10.656261564050226 16.476119995117188 15.985396385192871 C17.32278868223443 18.459699465927656 18.17002724231952 20.933804379143567 19.0185546875 23.407470703125 C19.83685303442394 25.793079283516192 20.653672017086592 28.179189564531725 21.469451904296875 30.56566047668457 C21.781514124088517 31.477704127148 22.094116063171214 32.38956328696548 22.407257080078125 33.30123710632324 C22.844534078280503 34.574613425851055 23.27991655401388 35.84862226338481 23.71484375 37.122802734375 C23.845754089355523 37.50258773803711 23.976664428711047 37.882372741699214 24.111541748046875 38.27366638183594 C25 40.885947838719915 25 40.885947838719915 25 42 C22.029999999999973 42 19.059999999999945 42 16 42 C15.50500000000011 40.74187499999999 15.009999999999991 39.483749999999986 14.5 38.1875 C14.34337890625011 37.79715576171873 14.186757812499991 37.40681152343751 14.025390625 37.004638671875 C13.903574218750009 36.68728759765622 13.781757812500018 36.3699365234375 13.65625 36.04296875 C13.530566406250045 35.72352294921876 13.404882812500091 35.40407714843752 13.275390625 35.074951171875 C13 34 13 34 13 31 C8.38000000000011 31.329999999999984 3.759999999999991 31.660000000000025 -1 32 C-1.6600000000000819 33.64999999999998 -1.6600000000000819 33.64999999999998 -5 42 C-7.970000000000027 42 -10.940000000000055 42 -14 42 C-12.471783875408619 37.26155351784047 -10.942078345071195 32.52359481967409 -9.409807205200195 27.786458015441895 C-8.698231836861396 25.58636764504223 -7.987289479340689 23.386077067423116 -7.27783203125 21.185302734375 C-6.5920588694700655 19.05808032474397 -5.904573010443983 16.93141825814638 -5.215938568115234 14.805120468139648 C-4.954619112295177 13.997243953767622 -4.693898369516546 13.189173503099255 -4.433811187744141 12.380899429321289 C-4.067036638545915 11.241437429010148 -3.698062056371782 10.102708630356517 -3.32861328125 8.964111328125 C-3.2235949707030613 8.636110382080062 -3.11857666015635 8.308109436035181 -3.0103759765625 7.9701690673828125 C-2.122875891843023 5.247433590463004 -1.0712677892120155 2.678169473030323 0 0 Z M5 8 C4.32635748041389 10.10199756942626 3.6623311354096586 12.206913518849774 3 14.3125 C2.8092187499999 14.907402343749993 2.6184375000000273 15.502304687499986 2.421875 16.115234375 C2.2414062499999545 16.69208984375001 2.060937499999909 17.268945312500023 1.875 17.86328125 C1.707421874999909 18.39219970703124 1.5398437500000455 18.921118164062477 1.3671875 19.466064453125 C1 21 1 21 1 24 C3.9700000000000273 24 6.940000000000055 24 10 24 C9.395062296202696 18.313585584305827 7.931573500968852 13.357383106460645 6 8 C5.670000000000073 8 5.339999999999918 8 5 8 Z " transform="translate(1551,469)" />
    <path d="M0 0 C27 0 27 0 33 4 C34.997473998525265 8.119790121958431 35.235897362548485 11.452423066425808 35 16 C34.429047212729984 16.965760565701487 33.84256076857491 17.922344610521975 33.25 18.875 C32.9251562500001 19.408671874999982 32.60031249999997 19.94234375000002 32.265625 20.4921875 C31 22 31 22 27 24 C30.299999999999955 29.610000000000014 33.59999999999991 35.22000000000003 37 41 C37 41.329999999999984 37 41.65999999999997 37 42 C33.700000000000045 42 30.40000000000009 42 27 42 C24 37 21 32 18 27 C15.029999999999973 26.670000000000016 12.059999999999945 26.339999999999975 9 26 C9 31.279999999999973 9 36.56 9 42 C6.029999999999973 42 3.0599999999999454 42 0 42 C0 28.139999999999986 0 14.279999999999973 0 0 Z M9 7 C9 10.95999999999998 9 14.920000000000016 9 19 C10.897500000000036 19.04124999999999 12.795000000000073 19.082499999999982 14.75 19.125 C15.340068359374982 19.143208007812518 15.930136718749964 19.16141601562498 16.5380859375 19.18017578125 C19.940861959250697 19.21578889964104 22.093433058175833 18.79191262918289 25 17 C25.329999999999927 14.689999999999998 25.660000000000082 12.379999999999995 26 10 C25.00999999999999 9.009999999999991 24.019999999999982 8.019999999999982 23 7 C18.38000000000011 7 13.759999999999991 7 9 7 Z " transform="translate(1603,469)" />
    <path d="M0 0 C10.230000000000018 0 20.460000000000036 0 31 0 C31 2.3100000000000023 31 4.6200000000000045 31 7 C23.74000000000001 7 16.480000000000018 7 9 7 C9 10.300000000000011 9 13.600000000000023 9 17 C15.599999999999909 17 22.200000000000045 17 29 17 C29 19.310000000000002 29 21.620000000000005 29 24 C22.40000000000009 24 15.799999999999955 24 9 24 C9 27.629999999999995 9 31.25999999999999 9 35 C16.589999999999918 35 24.180000000000064 35 32 35 C32 37.31 32 39.620000000000005 32 42 C21.440000000000055 42 10.88000000000011 42 0 42 C0 28.139999999999986 0 14.279999999999973 0 0 Z " transform="translate(1667,469)" />
  </g>
</svg>