<svg xmlns="http://www.w3.org/2000/svg" viewBox="0 0 1720 785" width="1720" height="785">
  <g fill="#000000">
    <path d="M0 0 C6.511200050888419 4.536543181198624 10.39965337933404 11.212575245969447 11.988037109375 18.9150390625 C13.567351272489532 28.417361899424463 12.11675737157259 37.06305683696306 6.56298828125 45.046142578125 C2.13557319380061 50.79582116782373 -4.204135921658917 55.18824305538962 -11.23486328125 57.082275390625 C-13.29444727565749 57.34025203058158 -15.18075085958958 57.37226773250646 -17.23486328125 57.082275390625 C-16.980917968749964 57.56954101562499 -16.72697265625004 58.056806640624984 -16.46533203125 58.558837890625 C-7.916857277361373 75.75160363589706 -6.917132215549941 100.35442024145175 -12.73876953125 118.607177734375 C-12.902480468750014 119.09395996093747 -13.066191406250027 119.5807421875 -13.23486328125 120.082275390625 C-13.401152343750027 120.59354980468748 -13.567441406250055 121.10482421874997 -13.73876953125 121.631591796875 C-16.491087319827784 129.7942527939257 -20.88207846736441 136.3868054557014 -26.23486328125 143.082275390625 C-26.23486328125 150.72151412585288 -16.271886730852884 158.43165448985621 -11.23486328125 164.082275390625 C-10.943535156249936 164.0112158203125 -10.652207031249986 163.94015624999997 -10.35205078125 163.866943359375 C-2.2989914615418456 161.97080242678646 3.6189163414089762 161.47005608309763 10.95263671875 165.769775390625 C15.379285376675284 168.99905187058687 18.846063980941835 173.6310338007557 19.76513671875 179.082275390625 C20.562073975428007 185.51907630994765 18.73700977885801 191.53025042353522 15.07763671875 196.832275390625 C11.259579495028333 201.06658697332387 6.321642380988919 203.20047423716323 0.68212890625 203.5576171875 C-4.863995168837619 203.65412968432702 -9.915177355934247 202.75091954281834 -14.23486328125 199.082275390625 C-19.421558013431536 193.85632999560528 -21.45511256562645 188.94004152086757 -21.56494140625 181.66845703125 C-21.45601235111917 177.23776771380483 -19.49814588418019 173.7904214409615 -17.23486328125 170.082275390625 C-18.160837266847807 165.98153345440625 -20.474180167684494 163.62448776251392 -23.4091796875 160.825927734375 C-25.634853112686756 158.70210519916031 -27.688590803119155 156.49613632916282 -29.67236328125 154.144775390625 C-29.93114257812499 153.8381396484375 -30.189921874999982 153.53150390625 -30.45654296875 153.215576171875 C-31.051730236263893 152.50649504452815 -31.643694172073197 151.79470995809447 -32.23486328125 151.082275390625 C-35.612898337133856 151.71949563980309 -37.888688056117985 153.0188609536308 -40.73486328125 154.894775390625 C-57.046244513764805 165.02327376310723 -78.82125921153931 166.2031221168287 -97.30384826660156 162.11070251464844 C-104.93834461567383 160.31201051193204 -111.69137610785049 157.3741559329863 -118.23486328125 153.082275390625 C-118.431767578125 152.95683349609374 -118.431767578125 152.95683349609374 -119.42822265625 152.322021484375 C-132.5110546165604 143.80284070619962 -140.2040741521206 129.4190304408575 -143.71142578125 114.5185546875 C-147.99814695534258 93.68645564845099 -146.56522818380358 69.6387792608324 -134.998779296875 51.356689453125 C-134.01838512939332 49.88155498827888 -132.99383690765274 48.446111403223 -131.93603515625 47.025634765625 C-131.30505711388867 46.17671444679348 -130.69802964619862 45.31011742240034 -130.09423828125 44.441650390625 C-121.48247889473191 32.91887374669227 -105.77061955738884 26.762675489948037 -92.02783203125 24.519775390625 C-87.44191579662379 23.905251419404237 -82.85653013464662 23.843133441831384 -78.23486328125 23.832275390625 C-77.77931060791013 23.829938964843734 -77.32375793457027 23.827602539062497 -76.85440063476563 23.8251953125 C-68.34099071468108 23.808813704624555 -60.465288958150495 24.910598159386694 -52.23486328125 27.082275390625 C-52.17540527343749 26.705305175781234 -52.11594726562498 26.328334960937497 -52.0546875 25.93994140625 C-50.66013433808416 17.504564131272787 -49.00624302860683 10.558399790000493 -43.23486328125 4.082275390625 C-42.977211914062536 3.7888525390625034 -42.71956054687496 3.495429687500007 -42.4541015625 3.193115234375 C-31.159439979816057 -9.136713072145653 -13.220875683407371 -8.42869347182264 0 0 Z M-36.23486328125 17.082275390625 C-38.40081297326503 20.71109162855589 -39.1276779212169 24.923017761704045 -38.23486328125 29.082275390625 C-36.65706646238493 33.771518247665426 -34.93183489708508 37.59132831507546 -30.92236328125 40.519775390625 C-30.613632812499986 40.749873046874995 -30.304902343749973 40.97997070312499 -29.98681640625 41.217041015625 C-25.279482705228247 44.63605180899873 -19.89533694624015 44.89854015881809 -14.23486328125 44.082275390625 C-9.04178578327435 42.62060826876916 -5.086624622518229 38.50132705581339 -2.23486328125 34.082275390625 C-0.9095096006967651 31.28339184163059 -1.1219485887273777 28.423672271474743 -1.17236328125 25.394775390625 C-1.1929882812499955 23.64165039062499 -1.213613281249991 21.888525390625006 -1.23486328125 20.082275390625 C-6.344103700171559 12.418414762242719 -9.608875591106198 8.517906056822824 -18.10986328125 6.676025390625 C-25.862193702707827 6.245340367210673 -32.20071205383738 10.810558502663582 -36.23486328125 17.082275390625 Z M-109.97705078125 53.668212890625 C-121.7161693079189 65.91645081961815 -123.82799317916226 81.52573377396465 -123.51220703125 97.820556640625 C-123.1021917731988 111.54815901901532 -118.58904473946689 125.64191623697445 -108.546142578125 135.364013671875 C-98.04440198808084 144.73540114214092 -85.8954000180114 146.99947911109632 -72.26736450195313 146.3447265625 C-61.1365717406012 145.6199154310815 -50.99435145922416 140.55770784813376 -43.48486328125 132.394775390625 C-32.29349433828793 119.24920658964999 -30.91732720562095 100.83733802099994 -32.11834716796875 84.3443603515625 C-33.35024889738236 71.00058666857961 -38.70338684114779 58.65381680454641 -49.103515625 49.934326171875 C-52.493647282378106 47.38111955032781 -56.31478514027333 45.65506237439638 -60.23486328125 44.082275390625 C-60.80720703124996 43.84766601562501 -61.37955078125003 43.61305664062499 -61.96923828125 43.371337890625 C-78.37497803890722 37.767397082316336 -97.72420219700348 41.552267642515346 -109.97705078125 53.668212890625 Z M-10.23486328125 175.082275390625 C-12.853465754558897 179.0101791005884 -12.388113081061078 182.4847813962923 -12.23486328125 187.082275390625 C-7.23486328125 193.082275390625 -7.23486328125 193.082275390625 -0.23486328125 195.082275390625 C0.8582617187499864 194.64915039062498 1.9513867187499727 194.21602539062496 3.07763671875 193.769775390625 C3.4157739257811954 193.64046630859377 3.7539111328125045 193.5111572265625 4.102294921875 193.3779296875 C6.754098010782172 192.2824686734798 7.5359652887653965 191.3114468206096 9.76513671875 189.082275390625 C10.808838518235916 179.6889591952522 10.808838518235916 179.6889591952522 7.76513671875 175.082275390625 C2.2679118163524663 168.74313316083328 -3.700243492188065 171.34820693973245 -10.23486328125 175.082275390625 Z " transform="translate(996.23486328125,162.917724609375)" />
    <path d="M0 0 C0.5282940673828307 -0.0006747436523539818 1.0565881347656614 -0.001349487304679542 1.60089111328125 -0.002044677734375 C16.778287739103234 0.02861615070204948 32.538080345522985 1.5296015348564538 44.03515625 12.59765625 C49.427895710303346 18.20705316508017 51.69359052465711 24.835139642542288 53.5625 32.25 C46.12808913281924 34.19351350081121 39.26699016918087 35.42599089218942 31.5625 35.25 C31.44769287109375 34.97325439453124 31.3328857421875 34.696508789062506 31.214599609375 34.411376953125 C28.233094541877108 27.412778101475283 25.513840216844073 22.850454262876696 18.447265625 19.7626953125 C7.145428407275631 15.232620064073274 -7.841898190105667 15.841269973028432 -19.25634765625 19.72119140625 C-21.211572939749658 20.596556839085906 -22.822205415086955 21.857897335173647 -24.4375 23.25 C-25.097500000000082 23.25 -25.757499999999936 23.25 -26.4375 23.25 C-26.570273437499964 23.587734374999997 -26.703046874999927 23.925468749999993 -26.83984375 24.2734375 C-27.016445312500082 24.719453125 -27.193046874999936 25.165468750000002 -27.375 25.625 C-27.549023437499955 26.065859375000002 -27.72304687499991 26.506718750000005 -27.90234375 26.9609375 C-28.4375 28.25 -28.4375 28.25 -28.96484375 29.16796875 C-29.535396894990754 30.474111073656474 -29.551691597713898 31.429522596600833 -29.53515625 32.8515625 C-29.53354492187509 33.09648437499999 -29.53354492187509 33.09648437499999 -29.525390625 34.3359375 C-29.517011718749927 34.843828125000016 -29.508632812500082 35.35171875 -29.5 35.875 C-29.49548828124989 36.390625 -29.49097656250001 36.90625 -29.486328125 37.4375 C-29.45967504032933 40.31603314443481 -29.33008007006515 41.50771403127527 -27.8125 44 C-27.51085937500011 44.51046875 -27.20921874999999 45.0209375 -26.8984375 45.546875 C-23.59945331593235 49.93680002844221 -18.13998055500474 51.99926683103308 -13.0625 53.5 C-12.746236572265616 53.597163085937495 -12.429973144531232 53.69432617187499 -12.1041259765625 53.79443359375 C-6.68735282907619 55.45711736435538 -1.1971923350142788 56.82430197921235 4.3046875 58.171875 C5.00503836640155 58.3440024180407 5.705386245232376 58.51614199232438 6.405731201171875 58.68829345703125 C9.57387457650907 59.46553962074262 12.74317540316747 60.23585062942027 15.919270515441895 60.980003356933594 C38.7660876434461 66.35113477040534 38.7660876434461 66.35113477040534 46 73.5 C46.20169799804694 73.6899353027344 46.20169799804694 73.6899353027344 47.222412109375 74.651123046875 C54.05709950638834 81.38076772555195 56.75548360109792 88.73806056629428 56.868927001953125 98.18844604492188 C56.92766122694411 109.05959031169988 55.151814915858495 117.49139388125809 47.536376953125 125.748046875 C34.29294346250026 138.7473496788799 14.450960705725947 140.34842268195393 -3.1246337890625 140.271484375 C-19.650612464784672 140.00104530043677 -36.96316123878364 136.4411533932099 -49.023193359375 124.282470703125 C-53.996214385938515 118.72983653198162 -56.998660854339505 111.44419572830265 -58.4375 104.25 C-51.50750000000005 102.93 -44.577499999999986 101.61000000000001 -37.4375 100.25 C-37.014687500000036 101.09562499999998 -37.014687500000036 101.09562499999998 -34.875 105.375 C-30.347669222539707 113.84232544473423 -25.23892780319602 117.49739220449487 -16.18359375 120.48828125 C-10.723068612823909 122.09748294305888 -5.360083381760887 122.45563775661634 0.3125 122.4375 C0.6632156372070313 122.4368957519531 1.0139312744140625 122.43629150390626 1.375274658203125 122.4356689453125 C10.508385960277337 122.39311574057541 22.160276586700093 121.5436181361082 29.1640625 114.83203125 C33.092417959599516 110.6038223274478 34.895635514960986 106.15121472088651 34.946533203125 100.42041015625 C34.750111944177206 96.19884868221408 32.62747164697976 92.82498893157003 30.5625 89.25 C24.947774589398932 85.32259638089505 19.666179621737683 83.04560155814903 13.0625 81.3125 C12.15607624167501 81.06350832472202 11.249913599314368 80.81356443163332 10.343994140625 80.562744140625 C4.820628993300943 79.04889035988373 -0.7356435428032455 77.67707144896974 -6.301239013671875 76.32841491699219 C-35.326560997947354 69.29426724109231 -35.326560997947354 69.29426724109231 -45.75 57.875 C-45.98058105468749 57.6315283203125 -46.21116210937498 57.388056640624995 -46.44873046875 57.13720703125 C-51.15222905987093 51.57664183425254 -51.99026362116126 44.35400841889816 -51.875 37.375 C-51.87195861816406 36.98259124755859 -51.868917236328116 36.590182495117176 -51.86578369140625 36.185882568359375 C-51.790630784979385 29.61467943684974 -51.03027892231967 23.90807236146182 -47.4375 18.25 C-47.233828124999945 17.924995117187507 -47.030156250000005 17.599990234375014 -46.8203125 17.26513671875 C-40.25627015742134 7.3431004925836305 -28.01922264297741 3.2095204018567074 -16.887939453125 0.93310546875 C-11.297964314314413 -0.0028825805521250913 -5.653971611606039 0.006501857971471736 0 0 Z " transform="translate(1061.4375,186.75)" />
    <path d="M0 0 C6.930000000000007 0 13.860000000000014 0 21 0 C22.546875 2.5575000000000045 24.09375 5.115000000000009 25.6875 7.75 C30.300188971017576 15.328685594181678 35.06537012605315 22.79528006310727 39.927978515625 30.215576171875 C42.93306637349707 34.804504453692715 45.90562558211974 39.4111860350005 48.83203125 44.05078125 C49.149951324462904 44.554089660644536 49.46787139892578 45.05739807128907 49.79542541503906 45.575958251953125 C51.34153964249367 48.02452192138506 52.88342274449843 50.47559777009016 54.419189453125 52.9306640625 C54.979817087637315 53.819764500260135 55.54060018570203 54.70876693465098 56.1015625 55.59765625 C56.35102127075194 55.999868927001955 56.600480041503914 56.40208160400391 56.85749816894531 56.81648254394531 C58.358830745946875 59.18515174550623 59.94340256799262 61.0899760613882 62 63 C68.72551331464598 52.703776750579664 75.41195416774701 42.384821762311475 82 32 C86.73473013262094 24.53888535633058 91.50123560371492 17.099520845133014 96.3125 9.6875 C96.59552978515626 9.250588378906258 96.87855957031252 8.813676757812487 97.170166015625 8.363525390625 C97.96234207013163 7.141197971035496 98.75623253238348 5.9200048080477075 99.55078125 4.69921875 C99.6681388092041 4.518012313842775 99.6681388092041 4.518012313842775 100.26203918457031 3.6009979248046875 C101.10927717933748 2.303176793346978 101.90073717380488 1.0992628261951154 103 0 C109.60000000000002 0 116.19999999999999 0 123 0 C120.75032016227789 5.624199594305281 120.75032016227789 5.624199594305281 119.397216796875 7.623291015625 C119.08948837280275 8.083138885498045 118.7817599487305 8.54298675537109 118.46470642089844 9.016769409179688 C118.29715095520021 9.262146987915031 118.29715095520021 9.262146987915031 117.44921875 10.50390625 C116.89088785941902 11.334941912032434 116.33256132801847 12.165980513634452 115.77436923980713 12.997109413146973 C115.16973932905825 13.89560159994906 114.56290517176797 14.792567625088736 113.9554443359375 15.68914794921875 C111.96886194599557 18.621974818929232 109.9972187943701 21.564843928642745 108.02439498901367 24.506935119628906 C107.54340650161822 25.224105069909342 107.06224588881156 25.94115960707279 106.5809211730957 26.658103942871094 C99.40212826645643 37.3517006302346 92.33200308409084 48.11717806657731 85.25 58.875 C83.06375000000003 62.19562500000001 83.06375000000003 62.19562500000001 72 79 C71.67000000000002 98.13999999999999 71.34000000000003 117.27999999999997 71 137 C64.73000000000002 137 58.46000000000001 137 52 137 C51.83500000000001 127.43 51.83500000000001 127.43 51 79 C48.25687500000001 74.895625 45.513750000000016 70.79124999999999 42.6875 66.5625 C32.61383414475026 51.47035930673624 32.61383414475026 51.47035930673624 27.75 43.875 C22.05608213876218 34.98455951853913 16.173058423095654 26.218482890415828 10.3125 17.4375 C10.05764328002931 17.055642929077152 9.802786560058593 16.673785858154304 9.540206909179688 16.280357360839844 C6.362092797139837 11.518931407905427 3.181951421323447 6.758862377281304 0 2 C0 1.3400000000000034 0 0.6800000000000068 0 0 Z " transform="translate(197,188)" />
    <path d="M0 0 C8.25 0 16.5 0 25 0 C26.197539062500027 3.156914062499993 27.395078124999998 6.313828124999986 28.62890625 9.56640625 C30.056206175482316 13.32713144898986 31.483945520941347 17.087689689262675 32.91171646118164 20.848236083984375 C33.560773944987034 22.55795330567034 34.209649763759444 24.267739380927367 34.858489990234375 25.9775390625 C39.34026667713164 37.78661450163952 43.82936544178034 49.59245322702105 48.390625 61.37109375 C48.7312686991346 62.25166103176076 49.07188083044963 63.132240526092914 49.41246032714844 64.01283264160156 C52.03100072442902 70.78116414114555 52.03100072442902 70.78116414114555 53.220001220703125 73.82522583007813 C57.254418995165054 84.1548419707376 60.95146981688413 94.55280938579273 64.38021850585938 105.099365234375 C65.2404233342881 107.73728717610231 66.11823829223636 110.36921766566223 67 113 C67.12644393920897 112.57401016235349 67.25288787841794 112.14802032470703 67.38316345214844 111.70912170410156 C71.7879769041819 97.01673387728965 77.07454825648654 82.68095572789974 82.47472983598709 68.32998156547546 C83.32940961010394 66.05844804822522 84.18190779455335 63.78610572727831 85.03305053710938 61.51324462890625 C85.09402419060467 61.35042885184288 85.09402419060467 61.35042885184288 85.40258783102036 60.526482343673706 C85.64923183169986 59.86787178112246 85.89587535484293 59.209261039737726 86.14251840114594 58.550650119781494 C89.08435527569651 50.69641214445397 92.03972058809114 42.84730523296895 95 35 C95.19862640380859 34.47330467224123 95.39725280761718 33.946609344482425 95.60189819335938 33.403953552246094 C97.86024813833836 27.4159433947149 100.12484200846006 21.430363928900988 102.4032096862793 15.449939727783203 C102.81112463745018 14.378612183810276 103.21826430951006 13.306992541489649 103.62527465820313 12.235321044921875 C104.35724359420624 10.309129656640465 105.09410638379995 8.384855080377093 105.83203125 6.4609375 C106.04136291503903 5.909777679443351 106.25069458007812 5.358617858886731 106.46636962890625 4.7907562255859375 C106.56138763427737 4.544507522583018 106.56138763427737 4.544507522583018 107.042236328125 3.29833984375 C107.20460281372073 2.8745101928710994 107.3669692993164 2.450680541992199 107.53425598144531 2.014007568359375 C108 1 108 1 109 0 C116.92000000000002 0 124.84000000000003 0 133 0 C133 45.21000000000001 133 90.42000000000002 133 137 C127.38999999999999 137 121.77999999999997 137 116 137 C116 99.05000000000001 116 61.099999999999994 116 22 C112.69999999999999 31.900000000000006 109.39999999999998 41.80000000000001 106 52 C103.83572718088271 57.84145780101136 101.6632236897745 63.65974158902617 99.37549591064453 69.45076751708984 C98.10817512371284 72.66751372603488 96.8602381331907 75.8919019240218 95.60791778564453 79.11450958251953 C95.11329168073297 80.38669192207044 94.61779227867606 81.65853184869104 94.12225341796875 82.93035888671875 C91.4663402639273 89.75528655828919 88.87147179663344 96.60252840982821 86.29296875 103.45703125 C86.09723455429076 103.97709054946898 85.90150035858153 104.49714984893797 85.6998348236084 105.03296852111816 C83.770086547039 110.160775282558 81.84380523320198 115.28986926508077 79.92251682281494 120.4208517074585 C79.21353285603288 122.31257827719213 78.50241818916328 124.20349888059354 77.79078102111816 126.09422874450684 C77.45866884978528 126.9782345930928 77.12756719495928 127.86262080048903 76.79752159118652 128.74740028381348 C76.346135523219 129.95737127556794 75.89148535480217 131.1660658485714 75.43603515625 132.37451171875 C75.30419798851011 132.7305223941803 75.17236082077028 133.0865330696106 75.03652858734131 133.45333194732666 C74.49280267329289 134.88709671355622 74.09734032962109 135.9026596703789 73 137 C68.70999999999998 137 64.42000000000002 137 60 137 C53.61275971088662 121.13522103132743 47.32927019684354 105.23487825433199 41.195068359375 89.2705078125 C40.35689821595048 87.08939288852298 39.51669910883925 84.90907793525605 38.674560546875 82.7294921875 C34.041227131316305 70.73690374494663 29.48584075692645 58.72110422569176 25.12890625 46.625 C24.94742475509645 46.12201385498048 24.7659432601929 45.61902770996093 24.578962326049805 45.100799560546875 C24.403046207427963 44.61241607666017 24.227130088806177 44.12403259277343 24.045883178710938 43.620849609375 C23.894083166122414 43.19944198608397 23.742283153533947 42.778034362792965 23.585883140563965 42.34385681152344 C21.298323506267252 35.919428552080404 19.158369263813768 29.475107791441303 17 23 C16.670000000000016 60.620000000000005 16.339999999999975 98.24000000000001 16 137 C10.720000000000027 137 5.439999999999998 137 0 137 C0 91.78999999999996 0 46.579999999999984 0 0 Z " transform="translate(355,188)" />
    <path d="M0 0 C5.527500000000032 -0.041249999999990905 5.527500000000032 -0.041249999999990905 33.5 -0.25 C35.228310546875036 -0.26820800781248977 35.228310546875036 -0.26820800781248977 43.974609375 -0.3603515625 C48.2822265625 -0.37841796875 48.2822265625 -0.37841796875 50.3155517578125 -0.38177490234375 C51.69929069475211 -0.3854176428277185 53.082380114794205 -0.4000517445828393 54.4659423828125 -0.42230224609375 C62.44087185610647 -0.5445877675764166 69.89392840840992 -0.12411871030505495 77.658203125 1.8173828125 C77.9869250774384 1.8982058668136688 78.31564702987669 1.979028921127309 78.65433025360107 2.0623011589050293 C87.86163765560855 4.38243947484699 97.0173588185919 9.670414097797732 102 18 C108.05275266092588 28.537197587714985 109.77879064905574 41.46886439207731 106.84765625 53.3125 C103.866400487688 63.473644797968745 98.38059491786305 72.42246406630443 89.06640625 77.75 C73.78107812158703 85.93951296328083 58.19641486119497 85.13981419456638 41.3125 85.0625 C34.93937500000004 85.041875 28.566249999999968 85.02125000000001 22 85 C22 101.82999999999998 22 118.65999999999997 22 136 C14.740000000000009 136 7.480000000000018 136 0 136 C0 91.12 0 46.24000000000001 0 0 Z M22 17 C22 33.5 22 50 22 67 C29.239374999999995 67.08249999999998 36.47874999999999 67.16499999999996 43.9375 67.25 C45.071190185546925 67.26820800781252 45.071190185546925 67.26820800781252 50.808349609375 67.3603515625 C53.624145507812386 67.37841796875 53.624145507812386 67.37841796875 54.95143127441406 67.38177490234375 C55.8586161455346 67.38783010949317 56.76577334246258 67.40171292697516 57.67274475097656 67.42230224609375 C65.90063108337563 67.59938971270856 73.56489284781287 65.84392598444066 79.94140625 60.26171875 C83.20201394880598 56.37545938943052 85.64063106676122 51.07608618199714 86 46 C86.02578125000002 45.714472656249995 86.02578125000002 45.714472656249995 86.15625 44.26953125 C86.48209146223871 37.46759072576566 85.29068613360903 30.226279906017794 80.69140625 24.961669921875 C74.85527041958949 18.990978737596663 66.98573743828103 17.03041380172192 58.80665874481201 16.89405059814453 C56.75896798939368 16.88067345900359 54.71173151524613 16.889434824278936 52.6640625 16.90234375 C51.87589590425853 16.9038178136706 51.08772832220825 16.904835657268222 50.299560546875 16.9053955078125 C47.408025235635705 16.910594594532085 44.516511011737975 16.924555671328477 41.625 16.9375 C38.38687500000003 16.947812499999998 38.38687500000003 16.947812499999998 22 17 Z " transform="translate(583,189)" />
    <path d="M0 0 C12.08624999999995 -0.06187499999998636 24.172500000000014 -0.12375000000000114 36.625 -0.1875 C40.413071289062486 -0.21481201171874886 44.20114257812497 -0.24212402343749773 48.10400390625 -0.270263671875 C52.801513671875 -0.2838134765625 52.801513671875 -0.2838134765625 55.014495849609375 -0.2863311767578125 C56.52985359102297 -0.2890781060302743 58.04488216427649 -0.30012065787681763 59.560150146484375 -0.3167266845703125 C75.4585891837529 -0.482980555559692 92.37105917941165 0.6615044228420004 104.47265625 12.35546875 C111.5417748870525 19.717469891789165 114.2414796654624 29.625694104380614 114.3125 39.6875 C114.12301253037174 48.57288326331849 111.85822263194166 55.57063405610123 107 63 C106.81598632812506 63.2900390625 106.63197265625001 63.580078125 106.4423828125 63.87890625 C101.24275404634477 71.83693327102867 91.76956612410947 75.48874790940658 83 78 C83.17637496948237 78.27692687988281 83.35274993896485 78.55385375976562 83.53446960449219 78.83917236328125 C86.5487810969613 83.57252026936646 89.5624610025933 88.30624161997304 92.56410217285156 93.04763793945313 C98.54307094654075 102.49195430567636 104.54405185606811 111.91287592528897 110.781982421875 121.188720703125 C119 133.41359265046594 119 133.41359265046594 119 136 C111.08000000000004 136 103.15999999999997 136 95 136 C90.48137727810683 129.66820841375227 86.22802121444352 123.28186927123107 82.22930908203125 116.61233520507813 C80.73811173849924 114.12528395223228 79.23532508072219 111.64523547263036 77.734375 109.1640625 C77.4285549926758 108.65780838012694 77.1227349853516 108.15155426025387 76.80764770507813 107.62995910644531 C71.6137053760799 99.04046229063198 66.29344492035648 90.5283279272411 61 82 C54.565000000000055 81.83500000000004 54.565000000000055 81.83500000000004 22 81 C22 99.14999999999998 22 117.30000000000001 22 136 C14.740000000000009 136 7.480000000000018 136 0 136 C0 91.12 0 46.24000000000001 0 0 Z M22 17 C22 32.50999999999999 22 48.02000000000001 22 64 C29.713750000000005 64.06187499999999 37.42750000000001 64.12375 45.375 64.1875 C47.78989746093748 64.21481201171875 50.204794921874964 64.2421240234375 52.69287109375 64.270263671875 C55.694580078126364 64.2838134765625 55.694580078126364 64.2838134765625 57.110015869140625 64.28633117675781 C58.076285547621296 64.2908688784758 59.04254077195685 64.30127222648849 60.008697509765625 64.31672668457031 C67.90206348962249 64.43642044487751 77.30491393667864 64.05321907907467 83.572021484375 58.552001953125 C83.71482543945308 58.40935913085937 83.71482543945308 58.40935913085937 84.4375 57.6875 C84.76113525390622 57.384812011718736 85.08477050781244 57.0821240234375 85.418212890625 56.770263671875 C90.12188971079502 52.177007435388475 92.19340106923505 46.31355870858715 92.3125 39.8125 C92.3337347088326 34.17350509891318 90.51001026666404 28.66144147365074 86.6796875 24.4296875 C80.64488302722361 18.92251620517132 72.1213675350266 16.818286739386792 64.117919921875 16.886474609375 C63.65144452095035 16.886354074478163 63.184969120025585 16.886233539581298 62.70435810089111 16.886109352111816 C61.21301099810705 16.886848321467312 59.72179312631749 16.894429423882542 58.23046875 16.90234375 C57.30228739455583 16.90381632833075 56.37410520595972 16.904835091210884 55.4459228515625 16.9053955078125 C52.02643580079814 16.910611793975278 48.60696659491259 16.924573041208873 45.1875 16.9375 C37.53562499999998 16.958124999999995 29.883749999999964 16.97874999999999 22 17 Z " transform="translate(715,189)" />
    <path d="M0 0 C7.259999999999991 0 14.519999999999982 0 22 0 C22.329999999999927 21.120000000000005 22.660000000000082 42.24000000000001 23 64 C28.279999999999973 58.389999999999986 33.559999999999945 52.78 39 47 C43.33517034483134 42.62489717070281 47.678742628862665 38.263153616802924 52.0625 33.9375 C54.181697114446706 31.845774557770454 56.29869722733292 29.75188266805023 58.41015625 27.65234375 C58.66120180129997 27.402798118591306 58.91224735260016 27.153252487182613 59.17090034484863 26.89614486694336 C62.448912836860245 23.630780143940967 65.59457367065284 20.28924105821568 68.59548950195313 16.766952514648438 C71.6844392526632 13.153483088161408 75.05500641991762 9.836337104469578 78.4375 6.5 C80.60312500000009 4.35499999999999 82.76874999999995 2.210000000000008 85 0 C93.57999999999993 0 102.16000000000008 0 111 0 C107.31626956271816 4.297685510162069 103.7255540284691 8.42019068771279 99.72900390625 12.384521484375 C99.23529889466954 12.877943111432018 98.74181656248197 13.371587627129514 98.24853515625 13.865432739257813 C96.93297768716457 15.181272292801054 95.61440310136982 16.49404734501448 94.29518175125122 17.806212186813354 C92.90804386212267 19.18701662027962 91.52381607977532 20.5707327407234 90.13925170898438 21.954116821289063 C87.52776411293507 24.56252012582408 84.91374264569663 27.168368132406897 82.29875600337982 29.773263037204742 C79.31722104786809 32.7435457034519 76.33859064199214 35.71673404704913 73.36017727851868 38.69014632701874 C67.24330003722662 44.79662504360917 61.12286140020433 50.89952162411251 55 57 C55.1409912109375 57.62583480834962 55.281982421875 58.25166961669922 55.42724609375 58.89646911621094 C55.46689987182617 59.07248515605926 55.46689987182617 59.07248515605926 55.667572021484375 59.96323299407959 C56.23546374532589 61.73435768954943 57.38417338572822 62.93585391544107 58.625 64.28515625 C58.88761627197255 64.58245132446291 59.15023254394532 64.87974639892576 59.420806884765625 65.18605041503906 C59.982836484439986 65.82093493970146 60.548004023507474 66.45305329653135 61.11602783203125 67.08258056640625 C62.61993881850799 68.74972762764241 64.1008211320293 70.43721729507831 65.5859375 72.12109375 C65.88229095458973 72.45568603515625 66.1786444091797 72.7902783203125 66.48397827148438 73.135009765625 C68.93659098949252 75.90897346378011 71.2999081072162 78.74289977575847 73.625 81.625 C76.86475737042292 85.62920288255066 80.16359855940777 89.57644924466376 83.5 93.5 C86.85492174367346 97.44593974126855 90.17442443044638 101.41484512078 93.4375 105.4375 C97.15419446614032 110.0177967201289 100.9830368384496 114.49326863366457 104.83578491210938 118.95877075195313 C118 134.2288828905721 118 134.2288828905721 118 136 C109.08999999999992 136 100.18000000000006 136 91 136 C82.76965608563296 126.02382555834293 74.56375956906595 116.03055278204675 66.42070007324219 105.983154296875 C64.5126824980589 103.62973804969596 62.5991933685425 101.28084069211343 60.68359375 98.93359375 C53.69275324495766 90.36302186362991 46.79759673677859 81.72471850992179 40 73 C35 75 35 75 23 84 C22.670000000000073 101.15999999999997 22.339999999999918 118.32 22 136 C14.740000000000009 136 7.480000000000018 136 0 136 C0 91.12 0 46.24000000000001 0 0 Z " transform="translate(1142,189)" />
    <path d="M0 0 C7.589999999999918 0 15.180000000000064 0 23 0 C23 44.879999999999995 23 89.75999999999999 23 136 C15.410000000000082 136 7.819999999999936 136 0 136 C0 91.12 0 46.24000000000001 0 0 Z " transform="translate(1278,189)" />
    <path d="M0 0 C8.25 0 16.5 0 25 0 C31.882120253164658 10.323180379746873 31.882120253164658 10.323180379746873 34.0859375 13.99609375 C34.344444885254006 14.422778472900404 34.602952270507785 14.84946319580078 34.869293212890625 15.289077758789063 C35.42036859976338 16.198968908067172 35.97060213540772 17.10937042308163 36.52001953125 18.020263671875 C38.03753790949668 20.53573888196135 39.56207770057085 23.046956867698043 41.0859375 25.55859375 C41.40447692871089 26.083916931152345 41.723016357421784 26.60924011230469 42.05120849609375 27.150482177734375 C45.672585672052946 33.11769668752294 49.336386820200914 39.05866174299865 53 45 C57.738099378078005 52.68651846033447 62.46046946446518 60.38204740209878 67.1488037109375 68.09902954101563 C72.12730046846514 76.29305831800605 77.11235117766296 84.48318451544287 82.12329864501953 92.65741920471191 C83.0212804310072 94.12231448101022 83.91835192586223 95.5877462459834 84.81298828125 97.0546875 C85.80495511262393 98.68003381360552 86.80045797711637 100.3031604496507 87.796875 101.92578125 C88.09205017089835 102.41109817504883 88.38722534179692 102.89641510009767 88.69134521484375 103.39643859863281 C88.82912384033193 103.61997764587403 88.82912384033193 103.61997764587403 89.5263671875 104.751220703125 C89.76393737792978 105.13929397583007 90.00150756835933 105.52736724853514 90.24627685546875 105.92720031738281 C91.06131436228975 107.08727080875997 91.98876029225175 108.00992367975812 93 109 C92.97021843910215 108.56817728042603 92.94043687820431 108.13635456085206 92.90975284576416 107.69144630432129 C92.08540892413976 95.3837957535369 91.86159008708592 83.1320050033097 91.89860606193542 70.79936170578003 C91.90499716587578 68.29704047230007 91.90545551359696 65.794717052914 91.90663146972656 63.292388916015625 C91.9096995436878 58.58619477880535 91.91784970276763 53.880024779987195 91.92798095941544 49.17384111881256 C91.93928545268773 43.80230803565098 91.94468809162277 38.43077359846606 91.94967639446259 33.0592315196991 C91.96003793381988 22.039471348128984 91.97832465750184 11.019744126030304 92 0 C98.59999999999991 0 105.20000000000005 0 112 0 C112 44.879999999999995 112 89.75999999999999 112 136 C103.42000000000007 136 94.83999999999992 136 86 136 C79.15435231180209 125.25493274257525 72.41344427413173 114.45904365977509 65.8125 103.5625 C65.72327081680305 103.41520698547362 65.72327081680305 103.41520698547362 65.2717170715332 102.66981506347656 C63.61865744203533 99.94067426249148 61.966621293988055 97.2109147397502 60.31556701660156 94.48056030273438 C57.79127114937546 90.30617773057213 55.262760940948965 86.13438030106738 52.73046875 81.96484375 C52.55546844482433 81.67668478012087 52.38046813964843 81.38852581024173 52.200164794921875 81.09163475036621 C51.14235062690773 79.34986762099231 50.08439522133472 77.60818631511609 49.026390075683594 75.86653518676758 C47.45098394077968 73.27312601663664 45.87578776819214 70.67958938006916 44.30078125 68.0859375 C44.1270196533203 67.79980905532835 43.95325805664061 67.5136806106567 43.77423095703125 67.21888160705566 C41.339671452981065 63.209724158075005 38.9083920552805 59.19859245132503 36.479339599609375 55.18609619140625 C35.11408622361978 52.93089786043606 33.74796666981433 50.6762246342133 32.38165855407715 48.42166519165039 C31.272971742301706 46.59202862731445 30.165425913734225 44.76170828589875 29.058772087097168 42.93084144592285 C28.210820226992837 41.52876924018915 27.361122926157122 40.127755180551844 26.51171875 38.7265625 C26.214524383544813 38.23402984619139 25.917330017089853 37.74149719238281 25.611129760742188 37.234039306640625 C23.49584740388582 33.74971607261156 21.26649163032539 30.3997374454882 19 27 C19 62.97 19 98.94 19 136 C12.730000000000018 136 6.460000000000036 136 0 136 C0 91.12 0 46.24000000000001 0 0 Z " transform="translate(1332,189)" />
  </g>
</svg>