<svg xmlns="http://www.w3.org/2000/svg" viewBox="0 0 1125 867" width="1125" height="867">
  <g fill="#000000">
    <path d="M0 0 C3.869822020297079 2.416769025376013 6.431142202822912 6.592923697048832 7.60302734375 10.93115234375 C8.854253721922873 18.14308216238517 7.798712926100734 25.525878040625685 3.52490234375 31.60693359375 C0.9488778451406006 34.95077084958544 -1.7728965132770327 37.930196725791006 -6.11572265625 38.55224609375 C-12.681234836803014 39.30389756290242 -18.20939831822784 38.56747257217026 -23.58837890625 34.41552734375 C-27.265659038842955 31.01699147776756 -29.110616658943286 27.495935545647257 -29.41650390625 22.46630859375 C-29.43565428092859 21.370114732835745 -29.439134375222352 20.27355291756598 -29.42822265625 19.17724609375 C-29.424033203124964 18.603613281250006 -29.41984375000004 18.029980468749997 -29.41552734375 17.43896484375 C-29.293645598019452 12.864509535904972 -28.610210193704233 9.466011023204132 -26.11572265625 5.55224609375 C-25.976503906249945 5.317636718749995 -25.976503906249945 5.317636718749995 -25.27197265625 4.13037109375 C-19.631971652566904 -4.1351476185442095 -8.204894579614006 -4.283594312993287 0 0 Z M-19.11572265625 8.55224609375 C-21.730934203046786 11.635442864710441 -22.223480803775487 16.616334095150137 -22.11572265625 20.55224609375 C-21.311333739564475 25.89906653995415 -19.687827394095507 27.894562303473563 -15.11572265625 31.55224609375 C-7.11572265625 31.55224609375 -7.11572265625 31.55224609375 -4.74072265625 29.42724609375 C-0.8375375419973352 25.479832252990192 0.031956655845078785 21.568954132351195 0.00927734375 16.17724609375 C-0.06430202255648965 12.58317704723855 -1.0084476343256483 10.514774994865377 -3.11572265625 7.55224609375 C-8.515300597328519 2.5977946496062287 -14.037028298186897 3.9526738449381895 -19.11572265625 8.55224609375 Z " transform="translate(607.11572265625,83.44775390625)" />
    <path d="M0 0 C0.932397236373049 1.5059336807400285 1.1201993810149133 2.6244482808342724 1.09765625 4.3828125 C1.0944335937499545 4.827539062499994 1.0912109375000227 5.272265625000003 1.087890625 5.73046875 C1.0837011718749636 5.9605664062499955 1.0837011718749636 5.9605664062499955 1.0625 7.125 C1.0579882812500045 7.592929687500003 1.053476562500009 8.060859375000007 1.048828125 8.54296875 C1.0011705375045494 13.213412324553545 0.9799444785620608 12.02506940179748 -3 17 C-3.659999999999968 17 -4.32000000000005 17 -5 17 C-1.7000000000000455 21.620000000000005 1.6000000000000227 26.24000000000001 5 31 C4.669999999999959 31.99000000000001 4.340000000000032 32.97999999999999 4 34 C1.6900000000000546 34 -0.6200000000000045 34 -3 34 C-12 22 -12 22 -12 20 C-14.970000000000027 20.33 -17.940000000000055 20.659999999999997 -21 21 C-20.66999999999996 25.950000000000003 -20.340000000000032 30.900000000000006 -20 36 C-21.154999999999973 36.16499999999999 -21.154999999999973 36.16499999999999 -27 37 C-29.472860262891004 34.52713973710901 -28.815652443875365 28.2200190759703 -29.17345428466797 24.73176670074463 C-29.352640720100226 22.9863607191472 -29.533435826859204 21.24115643642456 -29.71826171875 19.496337890625 C-30.511863384178923 11.99382404881996 -31.280225542385438 4.554413580140519 -31 -3 C-28.584446965160964 -3.3158621686081204 -26.167677375136805 -3.618254373338786 -23.7490234375 -3.909423828125 C-22.93022848781493 -4.009772622779522 -22.11183841617469 -4.113495317389194 -21.2939453125 -4.220947265625 C-13.148229288253674 -5.286695123834136 -6.3799726725494565 -5.731516433700193 0 0 Z M-23 3 C-22.66999999999996 6.960000000000008 -22.340000000000032 10.920000000000002 -22 15 C-9 13 -9 13 -6 10 C-7 4 -7 4 -9 2 C-10.395970248802655 1.9726280343372053 -11.791386166386246 1.9529877921320065 -13.1875 1.9375 C-13.574863281250032 1.9291210937499983 -13.96222656249995 1.9207421874999966 -14.361328125 1.912109375 C-17.483509519650966 1.8863062229780923 -19.81003150287779 2.362006300575544 -23 3 Z " transform="translate(547,86)" />
    <path d="M0 0 C6.941670163659239 5.784725136382704 6.941670163659239 5.784725136382704 8 11 C7.984736596153027 15.775264917842975 7.223275723006964 19.17279860821094 3.84375 22.62109375 C0.33445760564387683 25.56815796145753 -4.694783011075458 26.6681052663495 -9 28 C-8.855624999999975 28.591679687500005 -8.711250000000007 29.183359374999995 -8.5625 29.79296875 C-7.582422107557818 33.9237961594109 -6.724191513425296 37.724968458092235 -7 42 C-8.154999999999973 42.16499999999999 -8.154999999999973 42.16499999999999 -14 43 C-15.085620336550846 39.62311484364744 -16.169946106300642 36.245817477059916 -17.253173828125 32.8681640625 C-17.620348121404618 31.723849591082953 -17.98785047469562 30.579640321396084 -18.355712890625 29.435546875 C-19.580207349160446 25.626751014889777 -20.79551580190332 21.815171921817353 -22 18 C-22.078542175292966 17.75207702636719 -22.078542175292966 17.75207702636719 -22.47601318359375 16.4974365234375 C-22.90956801624276 15.122177570577136 -23.33682902814502 13.745144685789242 -23.76171875 12.3671875 C-23.888676300048814 11.965976867675778 -24.01563385009763 11.564766235351556 -24.146438598632813 11.151397705078125 C-24.790260759610703 9.035358794312941 -25.141253621564204 7.239560574075156 -25 5 C-8.39143730886849 -0.7492354740061131 -8.39143730886849 -0.7492354740061131 0 0 Z M-16 9 C-15.009999999999991 12.960000000000008 -14.019999999999982 16.92 -13 21 C-5 20 -5 20 0 16 C-1 9 -1 9 -3 7 C-7.805199214041693 6.683173678195061 -11.429735235567989 7.5375152753817645 -16 9 Z " transform="translate(480,93)" />
    <path d="M0 0 C3.7282653208120564 1.8767708479342247 6.338420872821985 4.236511137951155 8.57080078125 7.820068359375 C8.57080078125 9.470068359375006 8.57080078125 11.120068359374997 8.57080078125 12.820068359375 C6.260800781250055 12.820068359375 3.9508007812499955 12.820068359375 1.57080078125 12.820068359375 C0.9108007812500318 10.840068359374996 0.25080078124995 8.860068359374992 -0.42919921875 6.820068359375 C-3.7291992187499545 6.490068359375002 -7.029199218750023 6.160068359375003 -10.42919921875 5.820068359375 C-10.594199218749964 6.603818359374998 -10.759199218750041 7.3875683593749955 -10.92919921875 8.195068359375 C-10.975605468750018 8.415498046875001 -10.975605468750018 8.415498046875001 -11.21044921875 9.531005859375 C-11.42919921875 10.820068359375 -11.42919921875 10.820068359375 -11.42919921875 12.820068359375 C-11.161074218749945 12.894833984374998 -10.892949218750005 12.969599609374995 -10.61669921875 13.046630859375 C-5.188895111971874 14.867801974149245 -0.4365667569335301 18.81270082119147 3.57080078125 22.820068359375 C4.57080078125 28.820068359375 4.57080078125 28.820068359375 1.57080078125 36.820068359375 C-3.7287099915016597 39.92222100683941 -7.694368123006939 40.74721442128603 -13.69873046875 39.316162109375 C-19.157670261173962 37.82396125702496 -23.125874385258044 35.57812466665129 -26.17138671875 30.609130859375 C-27.88398485068103 27.301235837426105 -27.345789930118485 27.40302191621757 -26.42919921875 22.820068359375 C-24.119199218750055 23.150068359375 -21.809199218749995 23.480068359374997 -19.42919921875 23.820068359375 C-18.769199218750032 25.800068359375004 -18.10919921874995 27.780068359375008 -17.42919921875 29.820068359375 C-13.588097437857868 32.380802879969764 -9.87113485708619 32.014133508622706 -5.42919921875 31.820068359375 C-5.099199218749959 30.170068359374994 -4.769199218750032 28.520068359375003 -4.42919921875 26.820068359375 C-7.076196673060053 24.554078114397456 -9.726365228764166 22.316781499583243 -12.53857421875 20.257568359375 C-12.893710937500032 19.997338867187494 -13.24884765624995 19.737109375000003 -13.61474609375 19.468994140625 C-14.310768639534558 18.962941051144057 -15.009889856401514 18.461115672907894 -15.71240234375 17.964111328125 C-17.797426998403807 16.448012386893154 -19.13310211737337 15.055174585218438 -20.42919921875 12.820068359375 C-20.42919921875 6.238951387998426 -20.03939746385572 4.576570426831836 -16.42919921875 -0.179931640625 C-12.161202891644166 -2.8338657974164363 -4.411560043136319 -1.9087120754660134 0 0 Z " transform="translate(665.42919921875,95.179931640625)" />
    <path d="M0 0 C1.9800000000000182 0.9899999999999949 3.9600000000000364 1.980000000000004 6 3 C5.401955664932757 7.140889256731256 4.01177296793287 10.206287155352697 1.9375 13.8125 C0.9681249999999864 15.524374999999992 -0.0012500000000272848 17.236249999999984 -1 19 C5.600000000000023 16.689999999999998 12.200000000000045 14.379999999999995 19 12 C22.756355693750493 12.751271138750084 24.83210307348918 13.24005726304955 28 15 C28 15.659999999999997 28 16.319999999999993 28 17 C25.493404055935798 17.860319557250705 22.984864055973276 18.71461324616891 20.474365234375 19.5634765625 C19.621270350421923 19.852858776976973 18.76872179884981 20.14385694978995 17.916748046875 20.4365234375 C16.689403297385184 20.85781865799038 15.46018707571352 21.27319202585352 14.23046875 21.6875 C13.852224578857431 21.818742675781266 13.473980407714862 21.949985351562503 13.084274291992188 22.085205078125 C10.984252712824741 22.785652693474162 9.245466451186644 23.149076610867155 7 23 C7.121171874999959 23.513046874999986 7.242343750000032 24.02609375 7.3671875 24.5546875 C9.309732697112622 33.2668268246762 10.098544761371045 42.133274678565556 11 51 C10.227432239529207 50.71295901389624 9.45702605826807 50.42009848842139 8.6875 50.125 C8.258242187499945 49.96257812499999 7.8289843750000045 49.800156249999986 7.38671875 49.6328125 C6 49 6 49 3 47 C2.009999999999991 40.06999999999999 1.0199999999999818 33.139999999999986 0 26 C-1.9800000000000182 26 -3.9600000000000364 26 -6 26 C-6.123749999999973 26.43312499999999 -6.123749999999973 26.43312499999999 -6.75 28.625 C-7.92597980822427 32.20406898155227 -9.7851598842268 34.96803440462111 -12 38 C-13.980000000000018 37.34 -15.960000000000036 36.68000000000001 -18 36 C-18.33000000000004 35.34 -18.659999999999968 34.68000000000001 -19 34 C-17.117041479795603 30.450891154599645 -15.230623459377057 26.903651508236692 -13.339977264404297 23.358633041381836 C-12.461815939750863 21.71180268656198 -11.58478002376421 20.06439503569635 -10.71044921875 18.41552734375 C-9.863810045679315 16.818988127066007 -9.014041357193946 15.224149779866224 -8.162239074707031 13.630359649658203 C-7.686112742306591 12.737632962235026 -7.213094083189162 11.843250997622945 -6.74017333984375 10.948822021484375 C-4.693245341781903 7.127133927351949 -2.449911851953061 3.570817467615001 0 0 Z " transform="translate(708,113)" />
    <path d="M0 0 C3.3104917896642974 1.3942666376827617 4.972298896073539 2.845618591107325 6.98828125 5.78125 C7.2526196289062455 6.151422424316394 7.516958007812491 6.521594848632816 7.789306640625 6.902984619140625 C8.638586279183755 8.096410879743132 9.47558125181149 9.297881976964106 10.3125 10.5 C10.89208199071561 11.319371791169516 11.472406629558918 12.138218767662892 12.053466796875 12.95654296875 C13.460995870082343 14.942865575199107 14.85894078501832 16.935677081579115 16.2529296875 18.9315185546875 C17.299763734500516 20.428730713739043 18.353004907924515 21.921353645638675 19.40625 23.4140625 C20.947452572074155 25.602592668087738 22.478385911890427 27.797809428845028 24 30 C23.340000000000032 31.319999999999993 22.680000000000007 32.639999999999986 22 34 C21.340000000000032 34.16499999999999 21.340000000000032 34.16499999999999 18 35 C16.647801972498996 33.11696766113147 15.296963789779966 31.232969503615266 13.947265625 29.34814453125 C13.489937041614667 28.709870114802527 13.032266421114343 28.071840602230708 12.57421875 27.43408203125 C9.634439480764172 23.340310461151887 6.763578732227927 19.21572795291067 4 15 C6.571317029743852 23.696486864824692 9.283197433984185 32.34815277789858 12 41 C10.350000000000023 41.99000000000001 8.699999999999989 42.97999999999999 7 44 C4.669925095492033 42.22258337595798 2.3404424968598505 40.44439425883692 0.011474609375 38.66552734375 C-0.7787327946202822 38.062131341920974 -1.569093767521906 37.45893639311282 -2.359619140625 36.85595703125 C-6.609016055520044 33.614481585732335 -10.853525529725573 30.37296521842319 -15 27 C-10.328245595627436 34.25495978090794 -5.2284244705745095 41.14227692186165 0 48 C0 48.66 0 49.31999999999999 0 50 C-1.9800000000000182 50.99000000000001 -3.9599999999999795 51.97999999999999 -6 53 C-21.25401929260471 32.327974276527016 -21.25401929260471 32.327974276527016 -28 23 C-27.670000000000016 21.680000000000007 -27.339999999999975 20.360000000000014 -27 19 C-24.689999999999998 17.680000000000007 -22.379999999999995 16.360000000000014 -20 15 C-17.829594629724 16.615266136748232 -15.66090646743919 18.23280309426974 -13.49365234375 19.852294921875 C-12.759072618852315 20.400744777587562 -12.024059872862722 20.948615227180113 -11.28857421875 21.495849609375 C-10.219829089274413 22.291211775990178 -9.152759455662476 23.088779565795335 -8.0859375 23.88671875 C-7.766924743652339 24.12339767456055 -7.447911987304678 24.3600765991211 -7.119232177734375 24.603927612304688 C-3.9732595113652565 26.963035692584043 -1.0360483434211574 29.46995971381571 2 32 C0.5149999999999864 27.875 0.5149999999999864 27.875 -7 7 C-5 3 -5 3 0 0 Z M2 12 C3 14 3 14 3 14 Z " transform="translate(386,132)" />
    <path d="M0 0 C5 2 5 2 7 5 C6.874719238281273 5.1477185058593875 6.874719238281273 5.1477185058593875 6.24072265625 5.895263671875 C0.3800835062651231 12.823044145541928 -5.280743083584184 19.86712188225991 -10.7734375 27.08984375 C-12.806238525425897 29.76155041593691 -14.88862017609597 32.3900798407054 -17 35 C-19.209934697135168 34.00933961852559 -20.87286758442326 33.18705351575545 -22.572998046875 31.454345703125 C-22.840896453857454 31.182499542236314 -23.108794860839794 30.910653381347657 -23.384811401367188 30.630569458007813 C-23.587823638916007 30.422481536865234 -23.790835876464826 30.214393615722656 -24 30 C-23.65855957031249 29.583391113281266 -23.317119140624982 29.166782226562503 -22.96533203125 28.737548828125 C-16.52698733780494 20.875686208148778 -10.13589557745081 12.989268853035924 -3.98486328125 4.899658203125 C-3.603139648437491 4.3978100585937625 -3.221416015624982 3.8959619140624966 -2.828125 3.37890625 C-2.497158203124968 2.9413500976562545 -2.16619140625005 2.503793945312509 -1.8251953125 2.052978515625 C-1 1 -1 1 0 0 Z " transform="translate(762,148)" />
    <path d="M0 0 C2.359966180153151 1.8180101923387326 2.787121676182551 4.1334285319635455 3.55859375 6.875 C7.16328624326178 18.840035855120732 9.982135677049087 28.09859991939055 21 35 C19 39 19 39 15 41 C14.864245605468739 40.86891845703124 14.864245605468739 40.86891845703124 14.17724609375 40.20556640625 C12.919188927325138 39.001813865713956 11.647414456508557 37.81355906252662 10.375 36.625 C9.948320312500016 36.212500000000006 9.521640624999975 35.80000000000001 9.08203125 35.375 C5.898185916742477 32.42875506474675 3.189231851841555 31.02522701044535 -1 30 C-1.384362182617167 29.903058471679685 -1.768724365234391 29.80611694335937 -2.16473388671875 29.70623779296875 C-5.393188908201978 28.89299581606582 -8.63262796874318 28.130461766205286 -11.875 27.375 C-12.859434672790599 27.143482754818024 -13.843810207040917 26.911713895418643 -14.828125 26.6796875 C-17.218078254741272 26.116889238877263 -19.608805395242427 25.557499408250152 -22 25 C-20.680000000000007 23.02000000000001 -19.360000000000014 21.039999999999992 -18 19 C-11.284904217211533 19.470381105557635 -5.412919916350802 20.922575238365226 1 23 C-0.9800000000000182 17.72 -2.9599999999999795 12.439999999999998 -5 7 C-3.2724902833938927 3.544980566787814 -2.5928786441828606 2.3571624038025902 0 0 Z " transform="translate(333,175)" />
    <path d="M0 0 C4 1 4 1 8 5 C5.92026336656113 12.094437713882058 3.669686673952242 19.118271785989435 1.3125 26.125 C0.9887890072820937 27.091097834764696 0.6652206969752115 28.057243490226398 0.341796875 29.0234375 C-0.4371681172498256 31.349509627957076 -1.2180268698824648 33.67493750478798 -2 36 C0.421426480551645 33.58989447442238 2.83781496948518 31.17654936371713 5.2109375 28.71875 C9.515281849478242 24.28921681236386 13.789818892739618 20.333845788890102 19 17 C20.32000000000005 18.319999999999993 21.639999999999986 19.639999999999986 23 21 C21.43965313923661 24.94192891140213 18.82079042782061 27.243114553001448 15.6875 30 C15.16052842058275 30.471737820878644 14.634172671479291 30.94416437583419 14.1083984375 31.417236328125 C13.280054366308605 32.162242892660146 12.45124862029752 32.9066757772506 11.620391845703125 33.64888000488281 C8.590014287806412 36.3563925933301 5.607399885814289 39.114882304416994 2.626129150390625 41.876220703125 C1.4844727620182994 42.93337328344791 0.3414257118297428 43.98901564999585 -0.8016510009765625 45.04463195800781 C-1.8680397547813072 46.029459900017685 -2.9340243095859933 47.01472500085154 -4 48 C-5.32000000000005 48 -6.639999999999986 48 -8 48 C-9.32000000000005 46.349999999999994 -10.639999999999986 44.69999999999999 -12 43 C-11.334487441900365 39.29383450978321 -10.364174719453558 35.82355395126024 -9.15234375 32.26171875 C-8.976190338134757 31.736088409423814 -8.800036926269513 31.210458068847657 -8.618545532226563 30.668899536132813 C-8.061032964991682 29.007463535159815 -7.499341853098599 27.347476337318938 -6.9375 25.6875 C-6.556362417850096 24.55412997777168 -6.1755003238022255 23.420667273000902 -5.794921875 22.287109375 C-4.866463020384117 19.52366023818746 -3.934579013099892 16.76138495125818 -3 14 C-3.357150878906282 14.337331542968741 -3.71430175781245 14.67466308593751 -4.082275390625 15.022216796875 C-5.440772541338902 16.30317763852713 -6.80450299363622 17.578456248243498 -8.169677734375 18.852294921875 C-8.753744796758156 19.398669934292997 -9.336484921465853 19.94646776333812 -9.917724609375 20.495849609375 C-14.040393286965127 24.390076039895206 -18.30351996794218 27.819432923482168 -23 31 C-24.32000000000005 29.680000000000007 -25.639999999999986 28.360000000000014 -27 27 C-25.66557997799714 23.96663546217897 -24.374780867312325 22.181159633395566 -21.8125 20.125 C-17.441644112170593 16.46267160694589 -13.285389484018424 12.584416748106094 -9.125 8.6875 C-8.451596519137752 8.058086485045408 -7.778175605970887 7.428691620171975 -7.104736328125 6.79931640625 C-6.4681568185419565 6.203562589844779 -5.831677993411745 5.607701166332305 -5.1953125 5.01171875 C-4.902881622314453 4.737999420166005 -4.610450744628906 4.464280090332039 -4.3091583251953125 4.1822662353515625 C-2.8484607814922356 2.8110324988104765 -1.4068259638592053 1.4269970499791782 0 0 Z " transform="translate(792,175)" />
    <path d="M0 0 C4.321589504242809 0.6190289440590959 7.730074731713103 2.1904100021061765 11.56640625 4.2109375 C12.20021793353476 4.539071675436787 12.834288290715335 4.866706619760379 13.468597412109375 5.193878173828125 C15.156210568248014 6.066544009877646 16.839505300352243 6.947235580778852 18.521892547607422 7.829925537109375 C19.912996943544385 8.558591740389716 21.306517742314895 9.282571468274341 22.699978828430176 10.006717681884766 C33.896778294898525 15.827760562354001 45.00036486439626 21.813829177142736 56 28 C55.857862915609076 28.792338640647472 55.7111259094803 29.583852851074198 55.5625 30.375 C55.48128906249997 30.815859375000002 55.40007812499999 31.256718750000005 55.31640625 31.7109375 C55.01601867810109 32.93473871884731 54.6100144150476 33.90299928722533 54 35 C48.017050946371285 33.44072216480879 42.73658526609768 30.38181612410949 37.3125 27.5 C36.29171646000236 26.96175490119424 35.27071741928643 26.423918317227674 34.24951171875 25.886474609375 C32.17210529760183 24.792358382674422 30.096028130614457 23.6957803394277 28.02099609375 22.59716796875 C25.211934190060504 21.110623471349356 22.397903550578576 19.633750017568786 19.58203125 18.16015625 C18.32588542134488 17.50209199067126 17.069825142977322 16.84386483360788 15.813812255859375 16.185546875 C15.038039374199059 15.778970590775202 14.262184562032587 15.372550585659042 13.486236572265625 14.96630859375 C7.942926912580845 12.061672449268428 2.459382063987448 9.059398655910854 -3 6 C-2.009999999999991 4.02000000000001 -1.0200000000000102 2.039999999999992 0 0 Z " transform="translate(256,250)" />
    <path d="M0 0 C0.6599999999999682 1.9799999999999898 1.32000000000005 3.960000000000008 2 6 C-11.170540266960302 13.323654429497935 -24.47102610814113 20.36542379113297 -37.875 27.25 C-38.25077556610108 27.443010673522963 -38.62655113220217 27.636021347045926 -39.01371383666992 27.834880828857422 C-43.6734993252727 30.227774971828126 -48.33583318212811 32.61565820897272 -53 35 C-57 30 -57 30 -57 28 C-56.62876510620117 27.809228820800797 -56.257530212402344 27.618457641601537 -55.87504577636719 27.421905517578125 C-51.14514061737759 24.991009028395467 -46.41601160321591 22.55860608886394 -41.6875 20.125 C-41.49951025009159 20.028249816894515 -41.49951025009159 20.028249816894515 -40.54816818237305 19.53863525390625 C-29.14998790082302 13.671880408869356 -17.770473147158555 7.772733329696962 -6.447509765625 1.76171875 C-6.208670654296839 1.6360351562499886 -6.208670654296839 1.6360351562499886 -5 1 C-4.8330261230469205 0.9000976562500114 -4.8330261230469205 0.9000976562500114 -3.988037109375 0.39453125 C-3 0 -3 0 0 0 Z " transform="translate(872,250)" />
    <path d="M0 0 C7.531381832166744 5.948194504466073 12.936859656951583 12.991354867398115 16.467041015625 21.9130859375 C16.532702636718795 22.07703857421876 16.532702636718795 22.07703857421876 16.864990234375 22.90673828125 C20.901846539356256 33.62450684412437 19.05628982484302 46.71817750896878 14.467041015625 56.9130859375 C11.726811640508458 62.242055450060434 8.051872715503578 67.04543461525606 3.467041015625 70.9130859375 C3.326694335937532 71.0321630859375 3.326694335937532 71.0321630859375 2.616455078125 71.634765625 C-5.420372898830919 78.34487914226793 -13.06858886384532 81.47616025397059 -23.532958984375 81.9130859375 C-23.467700195312545 82.05294921874997 -23.467700195312545 82.05294921874997 -23.137451171875 82.7607421875 C-20.216232940436157 89.12500747630884 -17.952690464156262 95.43955421737422 -16.282958984375 102.2255859375 C-16.200418701171884 102.55711669921874 -16.117878417968768 102.88864746093748 -16.0328369140625 103.230224609375 C-14.331529347597666 110.12944976840924 -13.381185063708017 116.88266865502072 -13.329833984375 123.9990234375 C-13.322774353027398 124.65359024047848 -13.315714721679683 125.30815704345707 -13.308441162109375 125.98255920410156 C-13.288916481142223 128.08441285654214 -13.283749082141753 130.18615008899815 -13.282958984375 132.2880859375 C-13.28281169891352 132.46723352432252 -13.28281169891352 132.46723352432252 -13.282066345214844 133.37382888793945 C-13.28059343973996 144.46228767051025 -13.472098836970872 155.1695777208414 -16.532958984375 165.9130859375 C-16.627705078125018 166.25241149902342 -16.722451171875036 166.59173706054685 -16.820068359375 166.94134521484375 C-20.9202966679959 181.52747194099788 -27.769956435989002 195.0808679386421 -38.532958984375 205.9130859375 C-37.945090829030505 209.34215957557694 -36.82036804584436 211.076083135379 -34.400146484375 213.5224609375 C-34.08522247314454 213.8529644775391 -33.77029846191408 214.1834680175781 -33.445831298828125 214.52398681640625 C-32.439962080310806 215.57709375728484 -31.424559381144945 216.62034438767034 -30.407958984375 217.6630859375 C-29.090071255917564 219.0302162752804 -27.776347713403993 220.40130921740558 -26.462646484375 221.7724609375 C-26.13746032714846 222.1097521972656 -25.81227416992192 222.4470434570312 -25.47723388671875 222.7945556640625 C-22.812330246309898 225.5743044728278 -20.2738427885929 228.4518914498932 -17.797088623046875 231.40032958984375 C-17.52832916259763 231.7155255126953 -17.259569702148383 232.03072143554687 -16.982666015625 232.35546875 C-16.750000305175718 232.6328790283203 -16.51733459472655 232.9102893066406 -16.277618408203125 233.19610595703125 C-15.433813806662101 234.00854582870056 -14.598998639643924 234.44107925232203 -13.532958984375 234.9130859375 C-13.083076171875064 234.6965234375 -12.633193359375014 234.47996093749998 -12.169677734375 234.2568359375 C-5.221251878331373 231.15084907498124 2.1102671640342123 230.5837443142758 9.394775390625 232.993896484375 C16.94188397827861 235.8796416865922 22.956596439847885 240.77951984658074 26.364990234375 248.16015625 C29.395073912767316 255.2147387021904 30.110682647481326 264.4624040169715 27.34033203125 271.75537109375 C26.515213040982644 273.56893493027087 25.55714325154281 275.2468108376904 24.467041015625 276.9130859375 C24.263369140624945 277.23357910156255 24.059697265625005 277.554072265625 23.849853515625 277.88427734375 C19.692722050869975 284.1552588357223 12.780946253432148 288.12471560366635 5.472412109375 289.7431640625 C-3.005473881382045 291.1760462017828 -10.711366664543903 289.31247722394005 -17.763427734375 284.4404296875 C-24.201457119815927 279.5596292480883 -28.129176645868938 272.7722993632094 -29.378173828125 264.797607421875 C-30.27857877524866 256.74366979547415 -28.09168147844491 249.36723403807423 -23.302490234375 242.8740234375 C-23.048544921874964 242.55691406250003 -22.79459960937504 242.2398046875 -22.532958984375 241.9130859375 C-24.016909593642822 238.310431279162 -26.337317979965064 235.73671581237153 -28.98583984375 232.939208984375 C-29.983031455863966 231.885678863102 -30.969851516643985 230.82265841557273 -31.957305908203125 229.760009765625 C-32.451665136510314 229.22813790904434 -32.94651548857678 228.69672210083684 -33.441864013671875 228.165771484375 C-35.50979884282049 225.94758534259483 -37.53639489022419 223.695829797032 -39.532958984375 221.4130859375 C-39.79874755859373 221.111767578125 -40.064536132812464 220.81044921875002 -40.33837890625 220.5 C-42.18250774882563 218.38528791867168 -43.87526441222644 216.17625051295101 -45.532958984375 213.9130859375 C-47.88188883684711 215.009253201987 -50.04387452554329 216.213953177681 -52.204833984375 217.6474609375 C-76.45928374246114 233.65125852156046 -106.50523585923827 237.00642614813455 -134.727294921875 231.501953125 C-152.55107487552726 227.7848159731803 -167.6378213346984 219.71096655965022 -180.532958984375 206.9130859375 C-180.85748046875 206.5925927734375 -181.182001953125 206.272099609375 -181.516357421875 205.94189453125 C-192.2778199114091 195.0828093830595 -198.20598520510947 181.3295701591495 -202.532958984375 166.9130859375 C-202.6343518066406 166.57700317382813 -202.73574462890628 166.24092041015626 -202.8402099609375 165.8946533203125 C-208.58180363260465 146.43551988207088 -207.93432503823806 119.35481394830424 -202.532958984375 99.9130859375 C-202.449814453125 99.59847412109377 -202.449814453125 99.59847412109377 -202.029052734375 98.00634765625 C-196.36860056180882 76.9198600181528 -183.03698015873522 58.32325645139031 -164.12306213378906 47.15138244628906 C-157.9787125958951 43.62414834296567 -151.63540579830806 41.03875937920225 -144.845458984375 39.0380859375 C-144.51558990478514 38.94030853271482 -144.1857208251953 38.8425311279297 -143.84585571289063 38.741790771484375 C-132.80425051582063 35.53874794776357 -121.80906402912524 34.53691807945131 -110.345458984375 34.6005859375 C-110.02966888427738 34.60099884033201 -110.02966888427738 34.60099884033201 -108.43157958984375 34.60308837890625 C-95.5672434767364 34.64169073307869 -83.86118924315008 36.251747252183236 -71.532958984375 39.9130859375 C-71.55390624999995 39.612412109374986 -71.57485351562502 39.31173828124997 -71.596435546875 39.001953125 C-72.35176845334445 26.352517235644484 -69.16445325026211 15.792462514081308 -60.730712890625 6.16064453125 C-45.01384768054038 -10.209755228948183 -18.576567290247567 -13.689952770008404 0 0 Z M-47.615234375 19.97607421875 C-51.62248426143992 25.505639509947116 -54.81377544996565 32.87655792597616 -53.751708984375 39.80322265625 C-52.2116222676558 47.617100127461356 -49.18639640593267 54.20763885697761 -42.739501953125 59.11572265625 C-37.41927700810618 62.631678680214236 -30.003109917206075 65.15723832626509 -23.583740234375 64.140625 C-15.614666284000691 62.414979804426366 -8.627337759487773 58.54436192340006 -3.993896484375 51.7607421875 C-0.03592570050238919 45.306452326210206 0.8098760070502067 38.324234073566856 -0.532958984375 30.9130859375 C-2.731925061043171 22.659968983083786 -8.30273216831688 17.459002422963067 -15.146240234375 12.8193359375 C-25.78738583798338 7.115893132588269 -40.20663341204204 10.805469091664236 -47.615234375 19.97607421875 Z M-158.501220703125 79.03759765625 C-171.11829966059685 94.60943425770893 -174.7613667335279 113.41272163009785 -174.782958984375 132.9130859375 C-174.78329635620116 133.18832092285157 -174.78329635620116 133.18832092285157 -174.78500366210938 134.5811767578125 C-174.7432295520739 156.13037094023093 -169.31057085139867 176.69567756554432 -154.021240234375 192.5888671875 C-150.03236924757948 196.4787745883886 -145.40153587520183 199.2641969594414 -140.532958984375 201.9130859375 C-140.16767089843756 202.121591796875 -139.8023828125 202.33009765625002 -139.426025390625 202.544921875 C-123.99768878559632 211.2210751294163 -104.07667201329082 210.28583626262753 -87.532958984375 205.9130859375 C-79.97845262539147 203.60382981774387 -73.40731949995256 200.18873024100242 -67.532958984375 194.9130859375 C-67.16573730468747 194.5882421875 -66.79851562499994 194.26339843749997 -66.420166015625 193.9287109375 C-51.19832267439676 180.24500774102478 -45.49883436216737 160.79772401931496 -44.416259765625 140.8212890625 C-43.628338401989595 124.54932028752262 -45.292174339151416 107.6883306690101 -52.532958984375 92.9130859375 C-52.78561523437497 92.39665527343749 -53.038271484374945 91.88022460937498 -53.298583984375 91.34814453125 C-60.03733698525298 77.99038352767133 -69.85142105756347 69.36117439585371 -83.595458984375 63.6630859375 C-83.7768542480469 63.58747436523436 -83.7768542480469 63.58747436523436 -84.69482421875 63.204833984375 C-92.85172957385726 60.06510797179186 -101.00325019228274 59.50576422900792 -109.657958984375 59.5380859375 C-109.93241851806647 59.5383578491211 -109.93241851806647 59.5383578491211 -111.32135009765625 59.53973388671875 C-129.53971690716355 59.62252357120593 -146.24948481064968 64.80877881592187 -158.501220703125 79.03759765625 Z M-14.532958984375 251.9130859375 C-16.555633822950085 254.96083452703385 -16.793971810661446 257.5639773034586 -16.657958984375 261.1630859375 C-16.64893554687501 261.6219921874999 -16.639912109375018 262.0808984375001 -16.630615234375 262.5537109375 C-16.530219379876712 267.37271195341816 -13.686299794119918 270.9090547049675 -10.282958984375 274.2880859375 C-8.532958984375 275.9130859375 -8.532958984375 275.9130859375 1.467041015625 277.9130859375 C7.884238405899509 276.03218325414366 11.910726778136222 273.7161143354498 15.467041015625 267.9130859375 C17.16334483610217 264.01672746501026 17.122688515817003 259.30230987887774 16.006103515625 255.2333984375 C13.854671373198926 250.34838192587392 9.73700531531324 246.78053040076634 4.904541015625 244.6005859375 C-2.614735153831589 242.1180312656794 -9.913446297053042 245.8056403246735 -14.532958984375 251.9130859375 Z " transform="translate(652.532958984375,266.0869140625)" />
    <path d="M0 0 C0.4460156249999727 0.009023437499990905 0.8920312499999454 0.01804687499998181 1.3515625 0.02734375 C1.520429687500041 0.033144531250002274 1.520429687500041 0.033144531250002274 2.375 0.0625 C3.0910104941672216 3.7096065082720315 3.802632985829291 7.357549537239549 4.51123046875 11.006103515625 C4.752736280314025 12.246859883089826 4.995241027278894 13.487422252362137 5.23876953125 14.727783203125 C5.588902026151004 16.512029814896096 5.935420672718692 18.2969462491763 6.28125 20.08203125 C6.390618896484398 20.63526565551757 6.4999877929687955 21.188500061035143 6.6126708984375 21.758499145507813 C6.662722778320358 22.018655624389623 6.662722778320358 22.018655624389623 6.916015625 23.335205078125 C7.0048400878906705 23.79043045043943 7.093664550781227 24.245655822753918 7.1851806640625 24.714675903320313 C7.391468799266818 26.17943774180395 7.406874827781053 27.585186505824367 7.375 29.0625 C4.158887896039914 29.74006372828734 0.9422751560895222 30.415213542007507 -2.274658203125 31.0888671875 C-3.363635640626626 31.3171831147871 -4.452507133507424 31.54600508034315 -5.541259765625 31.775390625 C-11.240390741943884 32.97576186065885 -16.94336959322527 34.15322675742431 -22.66796875 35.2265625 C-23.11006179809567 35.311831970214826 -23.552154846191456 35.39710144042971 -24.007644653320313 35.484954833984375 C-26.591910724628633 35.95901041271935 -28.997538322919468 36.143718662269976 -31.625 36.0625 C-32.34277281330276 32.718971142663236 -33.05416604306981 29.374129934970085 -33.76123046875 26.0283203125 C-34.00229070062767 24.89129258791172 -34.24478651004301 23.754568201544714 -34.48876953125 22.6181640625 C-34.84008511662739 20.980603252291814 -35.18615001024966 19.342005477640043 -35.53125 17.703125 C-35.6406188964844 17.198799438476556 -35.749987792968795 16.69447387695311 -35.8626708984375 16.17486572265625 C-36.43954077361877 13.407631377747634 -36.74228941009312 10.889174783243107 -36.625 8.0625 C-34.64499999999998 7.732500000000016 -32.664999999999964 7.402499999999975 -30.625 7.0625 C-28.85966475153873 13.724142447023894 -27.285257372595993 20.195823325001243 -26.625 27.0625 C-23.654999999999973 26.402499999999975 -20.684999999999945 25.742500000000007 -17.625 25.0625 C-18.120000000000005 22.092499999999973 -18.120000000000005 22.092499999999973 -20.625 7.0625 C-20.29499999999996 6.732500000000016 -19.965000000000032 6.402499999999975 -19.625 6.0625 C-17.644999999999982 6.0625 -15.664999999999964 6.0625 -13.625 6.0625 C-13.193989413201052 8.14304312510643 -12.766877697540167 10.224338357328065 -12.34326171875 12.306396484375 C-12.198806855771068 13.013643615536978 -12.053314173961098 13.720679637644139 -11.90673828125 14.427490234375 C-11.695464957610056 15.447207398473779 -11.488014110754307 16.4676414392236 -11.28125 17.48828125 C-11.155566406250045 18.100988769531227 -11.029882812499977 18.71369628906251 -10.900390625 19.344970703125 C-10.625 21.0625 -10.625 21.0625 -10.625 24.0625 C-7.3250000000000455 23.732500000000016 -4.024999999999977 23.402499999999975 -0.625 23.0625 C-1.94500000000005 15.802500000000009 -3.2649999999999864 8.542500000000018 -4.625 1.0625 C-2.6910499859221773 0.09552499296108863 -2.049977049111021 -0.053946764450302 0 0 Z " transform="translate(880.625,330.9375)" />
    <path d="M0 0 C0 2.3100000000000023 0 4.6200000000000045 0 7 C-1.6500000000000057 7.660000000000025 -3.3000000000000114 8.319999999999993 -5 9 C-7.560734520594764 12.841101780892132 -7.194065149247706 16.55806436166381 -7 21 C-6.175000000000011 21.329999999999984 -6.175000000000011 21.329999999999984 -2 23 C1.1882040443389315 19.457551061845606 3.166954111488849 15.918229599762526 5.072998046875 11.56689453125 C5.265471191406277 11.150366210937477 5.457944335937498 10.733837890625011 5.65625 10.3046875 C5.819316406249982 9.933276367187489 5.9823828125000205 9.561865234374977 6.150390625 9.17919921875 C7 8 7 8 11 5 C14.300000000000011 5 17.600000000000023 5 21 5 C26.438547969842148 10.438547969842148 26.148239893938467 11.232198284231686 26.2021484375 17.86474609375 C26.149818567644843 22.906315923745183 25.671546631571573 27.347604240339308 21.91015625 31.08203125 C18.91864461393743 33.41349405532992 18.442675902823225 33 14 33 C14 30.689999999999998 14 28.379999999999995 14 26 C15.319999999999993 25.339999999999975 16.639999999999986 24.680000000000007 18 24 C19.093241834634114 21.813516330731773 19.11681035268134 20.2395892013555 19.0625 17.875 C19.057988281250005 17.502460937500018 19.05347656250001 17.12992187499998 19.048828125 16.74609375 C19.037091791106036 15.830659706269898 19.01915762622889 14.915308808714656 19 14 C18.17500000000001 13.83499999999998 18.17500000000001 13.83499999999998 14 13 C13.77860351562498 13.403154296875016 13.557207031250016 13.806308593749975 13.3291015625 14.2216796875 C12.492043587983176 15.738139556005535 11.648951766550454 17.25091461169336 10.8017578125 18.76171875 C10.438666694556048 19.412069566565094 10.077920525285037 20.063736058872564 9.7197265625 20.716796875 C7.5567669782229245 24.656041704465565 5.394862443581644 27.97214971248127 2 31 C-7 31 -7 31 -13 27 C-15.258342149184841 19.808048847980615 -15.61952924986744 13.017485256919826 -12.109375 6.10546875 C-10.549053826804567 3.5606592175265064 -8.91696496924257 1.3638306650368577 -6.08203125 0.234375 C-4.0310283122013 -0.2098855641441446 -2.0900797387407124 -0.11611554104115385 0 0 Z " transform="translate(256,332)" />
    <path d="M0 0 C12.870000000000005 0 25.74000000000001 0 39 0 C39 2.3100000000000023 39 4.6200000000000045 39 7 C34.05000000000001 7.660000000000025 29.100000000000023 8.319999999999993 24 9 C28.814852978656916 13.915162415712246 33.77031574064074 18.530997087456626 39 23 C39.16500000000002 24.485000000000014 39.16500000000002 24.485000000000014 40 32 C36.953153540289804 30.476576770144902 35.33174430788529 29.59271750519713 32.984375 27.3984375 C32.723682250976594 27.157110900878934 32.46298950195313 26.91578430175781 32.19439697265625 26.667144775390625 C31.375542324847345 25.907316387634694 30.562743425201234 25.141356166687956 29.75 24.375 C29.190495312111352 23.853746501665682 28.63060245054686 23.33290933563046 28.0703125 22.8125 C26.709030065359343 21.546438402277204 25.35309659136925 20.274813016233622 24 19 C20.503364796515996 19.611565643297126 18.40923187808164 20.95115520943716 15.671875 23.16015625 C15.278005981445318 23.46948593139649 14.884136962890636 23.778815612792982 14.47833251953125 24.097518920898438 C13.23058357715027 25.07973758834862 11.99029358006868 26.07089106050023 10.75 27.0625 C9.901519170551666 27.733026548615555 9.052565359069689 28.402955049315437 8.203125 29.072265625 C6.1298931039438855 30.707962802277564 4.062696423974245 32.35104154539982 2 34 C1.3400000000000034 34 0.6800000000000068 34 0 34 C0 31.029999999999973 0 28.060000000000002 0 25 C5.280000000000001 21.04000000000002 10.560000000000002 17.079999999999984 16 13 C15.340000000000003 11.680000000000007 14.680000000000007 10.360000000000014 14 9 C11.689999999999998 8.83499999999998 11.689999999999998 8.83499999999998 0 8 C0 5.360000000000014 0 2.7200000000000273 0 0 Z " transform="translate(237,392)" />
    <path d="M0 0 C0 2.6399999999999864 0 5.279999999999973 0 8 C-4.6200000000000045 10.639999999999986 -9.240000000000009 13.279999999999973 -14 16 C-14.330000000000041 18.970000000000027 -14.659999999999968 21.939999999999998 -15 25 C-10.049999999999955 25 -5.100000000000023 25 0 25 C0 27.639999999999986 0 30.279999999999973 0 33 C-13.368523405069482 33.13750481216641 -26.652514987583118 32.75343857749118 -40 32 C-40.36266874049659 8.716666860120938 -40.36266874049659 8.716666860120938 -36.03515625 3.0234375 C-34.728977738007984 1.732045914558796 -33.702334384373785 1.0696344325658629 -31.85498046875 0.886474609375 C-31.650744628906295 0.8890930175781477 -31.650744628906295 0.8890930175781477 -30.6171875 0.90234375 C-30.172460937499977 0.9055664062499886 -29.727734374999955 0.9087890624999773 -29.26953125 0.912109375 C-28.80933593750001 0.9204882812500159 -28.349140625000018 0.928867187499975 -27.875 0.9375 C-27.407070312499968 0.9420117187499955 -26.93914062500005 0.9465234374999909 -26.45703125 0.951171875 C-22.230203726424293 0.9943027680977252 -22.647995793813948 1.21120252371162 -18 4 C-17.66999999999996 5.319999999999993 -17.340000000000032 6.639999999999986 -17 8 C-16.687724609374982 7.828715820312482 -16.375449218749964 7.6574316406250205 -16.0537109375 7.48095703125 C-14.619555458225705 6.694878472846881 -13.184783159359426 5.909932262753898 -11.75 5.125 C-11.258867187499959 4.8555859374999955 -10.767734375000032 4.586171874999991 -10.26171875 4.30859375 C-8.844025616983345 3.533588170617577 -7.423134998619389 2.764960731581084 -6 2 C-5.6100585937499545 1.7882714843750023 -5.220117187500023 1.5765429687500045 -4.818359375 1.3583984375 C-3.045857001864192 0.42610822825321293 -2.0427809441979434 0 0 0 Z M-29 8 C-30.32000000000005 9.319999999999993 -31.639999999999986 10.639999999999986 -33 12 C-33 16.29000000000002 -33 20.579999999999984 -33 25 C-29.370000000000005 25 -25.74000000000001 25 -22 25 C-21.66999999999996 24.670000000000016 -21.340000000000032 24.339999999999975 -21 24 C-21 20.370000000000005 -21 16.74000000000001 -21 13 C-22.649999999999977 11.350000000000023 -24.299999999999955 9.699999999999989 -26 8 C-26.99000000000001 8 -27.980000000000018 8 -29 8 Z " transform="translate(891,391)" />
    <path d="M0 0 C0.16500000000002046 1.1549999999999727 0.16500000000002046 1.1549999999999727 1 7 C-5.250193470929389 8.685957412571497 -11.508522524008015 9.845439735596983 -17.900146484375 10.85986328125 C-19.564128150146246 11.125259681459681 -21.22634443246625 11.400235732512442 -22.888671875 11.67578125 C-28.3288695423972 12.558271753225142 -33.477633401999555 13.237691532195129 -39 13 C-39 10.689999999999998 -39 8.379999999999995 -39 6 C-18.374823446327582 2.0175670903954597 -18.374823446327582 2.0175670903954597 -11.0625 0.75 C-10.842553710937523 0.7101196289062273 -10.842553710937523 0.7101196289062273 -9.7294921875 0.50830078125 C-6.464137760127755 -0.04099932249988569 -3.310269302271479 -0.057821297856264664 0 0 Z " transform="translate(280,450)" />
    <path d="M0 0 C-1 7 -1 7 -2 8 C-5.2999999999999545 8.329999999999984 -8.600000000000023 8.660000000000025 -12 9 C-12.659999999999968 13.29000000000002 -13.32000000000005 17.579999999999984 -14 22 C-11.360000000000014 23.649999999999977 -8.720000000000027 25.30000000000001 -6 27 C-6.330000000000041 29.639999999999986 -6.659999999999968 32.27999999999997 -7 35 C-15.985008211065747 30.741209980882104 -24.499880833473185 25.863961918440282 -33.02665710449219 20.764923095703125 C-36.32496329103344 18.79642657050647 -39.65914179025776 16.895336552977938 -43 15 C-42.66999999999996 12.029999999999973 -42.34000000000003 9.060000000000002 -42 6 C-37.053108803135956 4.466708445834513 -32.32580727244442 3.5143529133035827 -27.16796875 2.9296875 C-26.44284081519811 2.8433315057441177 -25.717769460478394 2.756499238638014 -24.992752075195313 2.669219970703125 C-23.489771605069336 2.4894192866657363 -21.98643368429839 2.313228597003956 -20.482666015625 2.14013671875 C-18.557713737223708 1.9185639100882668 -16.633544957415324 1.690911159112943 -14.709574699401855 1.4609813690185547 C-12.862587276020236 1.2403944523429686 -11.01531351461665 1.022259005033277 -9.16796875 0.8046875 C-8.818498744964586 0.7634261703491347 -8.469028739929172 0.7221648406982695 -8.108968734741211 0.6796531677246094 C-7.121221888457512 0.5635930458250868 -6.133247197388187 0.4494770116481277 -5.145263671875 0.33544921875 C-4.58457687377927 0.27042205810545283 -4.023890075683539 0.2053948974609625 -3.4462127685546875 0.138397216796875 C-2 0 -2 0 0 0 Z M-24.2578125 9.4375 C-24.570410156249977 9.482617187500011 -24.570410156249977 9.482617187500011 -26.15234375 9.7109375 C-26.477832031250045 9.758632812500025 -26.477832031250045 9.758632812500025 -28.125 10 C-28.790345877965706 10.096483246537105 -29.455710283263898 10.192838821091755 -30.12109375 10.2890625 C-31.747582594235723 10.52478552090372 -33.373870395132144 10.761813505480973 -35 11 C-32.25497349837724 13.164601089867745 -29.434267616504144 14.999804031561837 -26.375 16.6875 C-26.177773437500036 16.799970703124984 -26.177773437500036 16.799970703124984 -25.1796875 17.369140625 C-24.798125000000027 17.581191406250014 -24.416562500000055 17.793242187500027 -24.0234375 18.01171875 C-23.852878417968782 18.10690795898438 -23.852878417968782 18.10690795898438 -22.98974609375 18.588623046875 C-22 19 -22 19 -20 19 C-19.66999999999996 15.699999999999989 -19.340000000000032 12.399999999999977 -19 9 C-20.822741609482023 9 -22.458076970403795 9.17572028660419 -24.2578125 9.4375 Z " transform="translate(888,455)" />
    <path d="M0 0 C0.6599999999999682 2.3100000000000023 1.3199999999999932 4.6200000000000045 2 7 C-4.74392082038014 15.21341329485989 -12.447823886795732 22.542499190047067 -20 30 C-19.70598800659178 29.899775390624995 -19.41197601318362 29.79955078124999 -19.109054565429688 29.6962890625 C-16.044833248215753 28.65273452304848 -12.978506971304 27.61555628083471 -9.910888671875 26.58203125 C-8.766782929163412 26.19563826365288 -7.623221234453354 25.807630405110388 -6.480224609375 25.41796875 C-4.835882518089591 24.857706168701554 -3.1896623966882203 24.303306889601743 -1.54296875 23.75 C-1.033481903076165 23.575009765624998 -0.5239950561523301 23.400019531249995 0.0009307861328125 23.2197265625 C0.4812022399902389 23.05956054687499 0.9614736938476653 22.899394531249982 1.456298828125 22.734375 C1.8759944152832304 22.592255859374973 2.295690002441404 22.450136718750002 2.7281036376953125 22.3037109375 C4 22 4 22 7 22 C7.659999999999968 23.980000000000018 8.319999999999993 25.95999999999998 9 28 C1.2527019795304568 31.27796385459021 -6.648135061930361 33.914394128069716 -14.6663818359375 36.44671630859375 C-16.29017632569645 36.96044576355439 -17.912596215393137 37.47848145698856 -19.53515625 37.99609375 C-22.688893096047934 39.001247220371624 -25.844025197180144 40.0018966102441 -29 41 C-29.99000000000001 38.02999999999997 -30.980000000000018 35.059999999999945 -32 32 C-31.0705859375 31.082187500000032 -30.141171874999998 30.16437499999995 -29.18359375 29.21875 C-28.25611985707593 28.299139038978524 -27.329560843654065 27.37861526611249 -26.403076171875 26.4580078125 C-25.77283482668946 25.83270641211874 -25.14168962587962 25.208314316705298 -24.509521484375 24.5849609375 C-19.77312342757324 19.912823668380327 -15.321334363008532 15.058312555661644 -11 10 C-11.266735229492213 10.087696533203143 -11.533470458984368 10.17539306640623 -11.80828857421875 10.2657470703125 C-14.596480368367224 11.181157659893586 -17.38727383201598 12.088274897344377 -20.1796875 12.99072265625 C-21.2200847250499 13.328140039871585 -22.25981115296412 13.667633364609571 -23.298828125 14.00927734375 C-24.796440024910567 14.501308839601847 -26.296342649268695 14.98570920571126 -27.796875 15.46875 C-28.257453002929708 15.621866455078134 -28.71803100585936 15.774982910156268 -29.19256591796875 15.9327392578125 C-31.90730019179918 16.79711124689004 -34.15081461911021 17.162810593193683 -37 17 C-37.33000000000001 15.019999999999982 -37.66 13.04000000000002 -38 11 C-30.563463638683686 7.905434602935884 -23.02656978132842 5.259696400641076 -15.375 2.75 C-14.264228569233637 2.3830980073761907 -13.153550929064238 2.015911944204049 -12.04296875 1.6484375 C-4.018683722761239 -1.0046709306902812 -4.018683722761239 -1.0046709306902812 0 0 Z " transform="translate(287,484)" />
    <path d="M0 0 C0 2.3100000000000023 0 4.6200000000000045 0 7 C-0.4705078125000455 7.170156249999991 -0.9410156249999773 7.340312499999982 -1.42578125 7.515625 C-5.301152449292886 8.9962554421395 -7.832295622814286 10.30215135656556 -10 14 C-10 19.8931951162142 -9.583913228951133 21.40158971244034 -5.84326171875 25.26904296875 C-2.3213409753984706 28.32191810065342 3.143815049645241 29.473750038406365 7.6796875 29.23828125 C9.733334019297672 28.867652736162313 11.227852437243882 28.090552346311483 13 27 C15.317108203099338 23.37951843265739 15.213455171823966 20.221668953851236 15 16 C14.009999999999991 14.350000000000023 13.019999999999982 12.700000000000045 12 11 C13.32000000000005 9.67999999999995 14.639999999999986 8.360000000000014 16 7 C20.43179847114834 9.21589923557417 21.316676302936003 10.523889260079727 23 15 C24.291652639239942 21.29680661629459 22.12040582111672 26.65042973111099 18.77490234375 31.9580078125 C17.008368367515914 34.33342274966674 14.67325298365256 35.769017526428 12 37 C2.424179213952698 37.73434208481956 -5.053318511933412 36.939219984574606 -12.65625 30.6953125 C-15.827744808981834 27.72664584740653 -18.179098601707437 24.39130160456341 -18.4296875 19.954833984375 C-18.432265625000014 19.598488769531286 -18.434843750000027 19.24214355468746 -18.4375 18.875 C-18.439433593749982 18.685548095703098 -18.439433593749982 18.685548095703098 -18.44921875 17.726806640625 C-18.250258454598907 12.635702831741469 -15.53896674924897 8.287882674928369 -13 4 C-8.534964654954251 1.040923321626451 -5.53807082523997 -0.540299592706333 0 0 Z " transform="translate(845,507)" />
    <path d="M0 0 C3.561563555827661 1.4532816808261941 5.260769752938302 3.2403786292226187 7.453125 6.3515625 C7.758209838867174 6.770457458496139 8.063294677734348 7.189352416992165 8.37762451171875 7.620941162109375 C9.342969961578774 8.950127562200805 10.29654169172727 10.287269100817298 11.25 11.625 C11.905487868976536 12.531801399769847 12.561730472228078 13.438057742593287 13.21875 14.34375 C18 20.944908952408582 18 20.944908952408582 18 24 C16.350000000000023 24.99000000000001 14.699999999999989 25.980000000000018 13 27 C2 12 2 12 2 10 C-0.6399999999999864 11.980000000000018 -3.2799999999999727 13.960000000000036 -6 16 C-2.6999999999999886 20.620000000000005 0.6000000000000227 25.24000000000001 4 30 C3.340000000000032 31.32000000000005 2.680000000000007 32.639999999999986 2 34 C1.5049999999999955 34.164999999999964 1.5049999999999955 34.164999999999964 -1 35 C-11 22 -11 22 -11 20 C-13.310000000000002 21.32000000000005 -15.620000000000005 22.639999999999986 -18 24 C-18 28 -18 28 -8 42 C-8.660000000000025 43.32000000000005 -9.319999999999993 44.639999999999986 -10 46 C-10.495000000000005 46.164999999999964 -10.495000000000005 46.164999999999964 -13 47 C-14.78391101806443 44.71152123719787 -16.56172720658452 42.41847687604593 -18.33447265625 40.121337890625 C-18.936080444086713 39.3434189137663 -19.539226493330034 38.56668667772135 -20.14404296875 37.791259765625 C-23.84408375368838 33.04502171065019 -27.202314497124178 28.339380640059744 -30 23 C-23.49652909165161 17.488378963600553 -16.841605967166288 12.337269382067234 -9.86083984375 7.45166015625 C-6.476157215131138 5.079744713485184 -3.188955415530927 2.6309334383946634 0 0 Z " transform="translate(322,566)" />
    <path d="M0 0 C3.707247358678387 3.707247358678387 3.859590666209783 7.522804145547752 4.06640625 12.64453125 C4.0631823193042464 13.763235201439784 4.0349425860058545 14.881837247812541 4 16 C6.639999999999986 16.33000000000004 9.279999999999973 16.659999999999968 12 17 C11.845312499999977 16.546249999999986 11.845312499999977 16.546249999999986 11.0625 14.25 C10.260284659779927 11.849043449837836 9.568991931031064 9.465631701134498 9 7 C10.649999999999977 6.340000000000032 12.299999999999955 5.67999999999995 14 5 C14.838579455456284 6.455534340541931 15.670938168105522 7.914058609742824 16.5 9.375 C16.738476562499955 9.787500000000023 16.976953125000023 10.200000000000045 17.22265625 10.625 C17.4482421875 11.024609374999955 17.673828125 11.424218750000023 17.90625 11.8359375 C18.11572265625 12.2025146484375 18.3251953125 12.569091796875 18.541015625 12.94677734375 C19 14 19 14 19 16 C19.337734374999968 15.795039062499995 19.67546875000005 15.590078124999991 20.0234375 15.37890625 C20.469453124999973 15.109492187499995 20.915468749999945 14.840078124999991 21.375 14.5625 C21.815859374999945 14.295664062500009 22.256718750000005 14.028828125000018 22.7109375 13.75390625 C23.783469533749212 13.126637515110247 24.888679693629797 12.555660153185045 26 12 C27.32000000000005 13.32000000000005 28.639999999999986 14.639999999999986 30 16 C27.47583069854568 19.694594173078485 25.365783840366248 21.801198699571614 21 23 C20.890429687500045 23.295839843749945 20.890429687500045 23.295839843749945 20.3359375 24.79296875 C18.16162156768314 30.321108558562514 15.997670431426968 33.68487861382016 11 37 C5 38 5 38 -2 34 C-4.338350014017124 29.907887475470034 -5.744844742476744 26.75554720196692 -5 22 C-4.484375 20.828125 -4.484375 20.828125 -4 20 C-4.38671875 19.90203125000005 -4.7734375 19.804062499999986 -5.171875 19.703125 C-9.174789716195846 18.553773249805204 -11.27447600761343 17.144835375830667 -14 14 C-14.912060510028255 9.43969744985884 -15.196931328109486 7.7632619972246175 -13 4 C-8.61247029075912 -0.6695851905492418 -7.002093116251785 -1.0002990166074142 0 0 Z M-7 5 C-7.659999999999968 5.659999999999968 -8.32000000000005 6.32000000000005 -9 7 C-8.669999999999959 8.649999999999977 -8.340000000000032 10.299999999999955 -8 12 C-5 14 -5 14 -2 14 C-2 11.690000000000055 -2 9.379999999999995 -2 7 C-2.659999999999968 6.340000000000032 -3.32000000000005 5.67999999999995 -4 5 C-4.990000000000009 5 -5.980000000000018 5 -7 5 Z M1 22 C2 28 2 28 5 31 C6.649999999999977 31 8.299999999999955 31 10 31 C14 26 14 26 14 23 C9.710000000000036 22.66999999999996 5.419999999999959 22.340000000000032 1 22 Z " transform="translate(792,593)" />
    <path d="M0 0 C6.392764944241492 3.464563487086366 13.728620356177998 9.445103238205661 16.6484375 16.31640625 C18.010286340628284 22.838149031230955 17.22958097795896 27.868975372121326 13.70849609375 33.359130859375 C10.964506330661663 37.398672376539025 6.302654627545962 42.36546218961496 1.3125 43.32421875 C-4.305913232142359 44.26682229446533 -9.107920728551278 44.21695084225348 -14 41 C-16.27783217328067 39.14786490814811 -18.228392234825662 36.98968079357189 -20.205078125 34.828125 C-21.95458739565487 33.00554040354382 -23.9746089498434 31.50270948882587 -26 30 C-24.407143378335775 26.196831099959013 -21.930997863065443 23.5320821865746 -19.125 20.5625 C-18.642287254425753 20.044937688715436 -18.160037177630954 19.526943521206135 -17.67822265625 19.008544921875 C-16.658024466733764 17.911916373455938 -15.635483045187016 16.817543112403996 -14.611328125 15.724609375 C-12.945343321625614 13.944536954396654 -11.291868038538382 12.153117324441382 -9.640625 10.359375 C-9.366407165527335 10.061556243896462 -9.09218933105467 9.763737487792923 -8.809661865234375 9.456893920898438 C-8.26531524928032 8.865643873125236 -7.720993223679045 8.274371184712322 -7.17669677734375 7.683074951171875 C-5.897636875627484 6.294123987477178 -4.6171679699448305 4.906479957814099 -3.3359375 3.51953125 C-2.9084521484375045 3.0565161132813046 -2.480966796875009 2.5935009765624955 -2.04052734375 2.116455078125 C-1.3723875251957907 1.3995608054248123 -0.6929459630331962 0.6929459630332531 0 0 Z M1 10 C-5.034839603238254 16.4311478099645 -10.877201580253086 22.800391410085354 -16 30 C-9 36 -9 36 -1 36 C3.3364696204450297 33.33898455109056 6.009422460070994 31.140799670670958 9 27 C10 19 10 19 8.3125 16.1875 C7.999257812499991 15.665429687500023 7.686015624999982 15.143359375000045 7.36328125 14.60546875 C5.771161319780617 12.405669457101453 3.346508863097938 11.261241441004358 1 10 Z " transform="translate(357,608)" />
    <path d="M0 0 C1.1549999999999727 0.6599999999999682 1.1549999999999727 0.6599999999999682 7 4 C6.148359741175909 5.58473718491814 5.2942568127435266 7.168028295622435 4.4375 8.75 C4.173000488281275 9.238635253906295 3.908500976562493 9.727270507812477 3.635986328125 10.230712890625 C2.161068848412924 12.935515007187405 0.6516609083660114 15.612933304250646 -0.921875 18.26171875 C-1.2369702148437227 18.79249023437501 -1.5520654296875023 19.323261718750018 -1.876708984375 19.8701171875 C-2.4889506981106138 20.895578132499395 -3.1054899193696883 21.91848852450869 -3.726806640625 22.9384765625 C-5.32647783624941 25.61814272747972 -6.439667887723829 27.92181190269048 -7 31 C-4 36 -4 36 -2 37 C-0.4921875 37.09765625 -0.4921875 37.09765625 1.125 37.0625 C1.6327294921874795 37.05146240234376 2.140458984375016 37.04042480468752 2.66357421875 37.029052734375 C4.8551909549743755 36.981408892283184 6.014525830745299 35.20422416925476 7.52099609375 33.69775390625 C10.494602145149315 30.44787752904665 12.582763739945904 26.46095675075196 14.8125 22.6875 C15.318992313287424 21.842697419175693 15.826149298226142 20.998292964318352 16.333984375 20.154296875 C17.563690816439134 18.10736795770174 18.784311400409933 16.055282510406414 20 14 C20.659999999999968 13.669999999999959 21.319999999999993 13.340000000000032 22 13 C22.82499999999999 13.495000000000005 22.82499999999999 13.495000000000005 27 16 C26.348347320977552 19.2545529172246 25.178149260133182 21.74759029223037 23.48828125 24.58984375 C23.362927474975606 24.80304512023929 23.362927474975606 24.80304512023929 22.728561401367188 25.881973266601563 C22.1975094970785 26.78027916499218 21.663665766543318 27.676939834661198 21.127197265625 28.572021484375 C20.32085007317471 29.923504806932556 19.532328250189494 31.28435217945048 18.744140625 32.646484375 C15.701244843134077 37.80302538757235 12.881366795679867 41.49449071194806 8 45 C-0.530691095826171 45 -5.815327108042425 44.889343423428386 -11.771484375 39.2724609375 C-16.240603542253837 34.34032491958476 -15 33.391347892159615 -15 25 C-13.668478809851479 22.72477932557149 -12.33621495608179 20.450023307026754 -11.002197265625 18.17626953125 C-10.550938818561974 17.406654239940394 -10.100076429770354 16.63680655137898 -9.649658203125 15.86669921875 C-6.521993874938801 10.519965786208218 -3.3118260680005847 5.234735577738775 0 0 Z " transform="translate(400,644)" />
    <path d="M0 0 C2.9489701254117335 3.479561911480914 5.369023014122035 7.083113812870238 7.63671875 11.03515625 C7.799173355102539 11.31542411804196 7.799173355102539 11.31542411804196 8.621292114257813 12.733749389648438 C9.302128558270738 13.909554974847993 9.979903366238204 15.087055661015597 10.655517578125 16.265869140625 C11.516709013117861 17.767792726813013 12.386081623875157 19.26479272697486 13.257845878601074 20.760598182678223 C14.097158535672861 22.203592366666726 14.929057470263501 23.650813698896286 15.76171875 25.09765625 C16.07211593627926 25.630044097900395 16.382513122558635 26.16243194580079 16.702316284179688 26.710952758789063 C16.845978775024378 26.963002243041956 16.845978775024378 26.963002243041956 17.572998046875 28.238525390625 C17.82518600463868 28.676449127197316 18.077373962402362 29.114372863769518 18.337203979492188 29.565567016601563 C19 31 19 31 20 35 C18.67999999999995 35.65999999999997 18.67999999999995 35.65999999999997 12 39 C11.730545654296861 38.82871582031248 11.730545654296861 38.82871582031248 10.366943359375 37.9619140625 C8.334589024393381 36.67060238995896 6.300904112857438 35.38139887245893 4.266845703125 34.0927734375 C3.3927931227093495 33.53864496962217 2.519084810882987 32.98397303039326 1.645751953125 32.4287109375 C0.37805665590622084 31.622855292452073 -0.8909349926324239 30.81907456821466 -2.16015625 30.015625 C-2.5396290588379316 29.77378479003903 -2.9191018676757494 29.531944580078175 -3.3100738525390625 29.28277587890625 C-6.817510029027517 27.06725938634895 -10.384923869663226 25.065757788763904 -14 23 C-9.379999999999995 30.590000000000032 -4.759999999999991 38.17999999999995 0 46 C-5 50 -5 50 -7 50 C-7.164290008544867 49.71709106445314 -7.328580017089848 49.434182128906286 -7.4978485107421875 49.1427001953125 C-9.232586972977174 46.156065103316564 -10.969183382733036 43.170515842641635 -12.706787109375 40.185546875 C-13.352105803859331 39.07644051036959 -13.99697500724153 37.96707247281256 -14.641357421875 36.857421875 C-18.329280024974764 30.50743237347001 -22.048221805797652 24.190004478108563 -26 18 C-24 14 -24 14 -20 12 C-16.68201399293389 12.648162506231984 -14.233237898220636 13.877443803662004 -11.375 15.65234375 C-10.946225585937555 15.91253799438482 -10.517451171874995 16.172732238769527 -10.07568359375 16.440811157226563 C-8.714090862191824 17.26818506235236 -7.356904233681348 18.102463450787468 -6 18.9375 C-4.642357662080485 19.767679943119674 -3.283821410904011 20.59635113588058 -1.92431640625 21.423477172851563 C-1.0815896077419893 21.93675155220876 -0.24004083234046902 22.45196705157184 0.60009765625 22.969467163085938 C0.9872998046874955 23.206337432861346 1.374501953124991 23.443207702636755 1.7734375 23.687255859375 C2.1077880859375 23.89297714233396 2.442138671875 24.098698425292923 2.78662109375 24.310653686523438 C4.486790829241841 25.276556203378505 6.251047215834774 26.12552360791733 8 27 C3.7100000000000364 20.07000000000005 -0.5800000000000409 13.139999999999986 -5 6 C-4.669999999999959 4.67999999999995 -4.340000000000032 3.3600000000000136 -4 2 C-2.67999999999995 1.3400000000000318 -1.3600000000000136 0.67999999999995 0 0 Z " transform="translate(724,646)" />
    <path d="M0 0 C3.810396553549026 1.9015238345821217 6.190050762756357 4.240154269134564 8.5751953125 7.81787109375 C8.74019531250002 9.13787109375005 8.74019531250002 9.13787109375005 9.5751953125 15.81787109375 C7.595195312499982 15.81787109375 5.6151953125000205 15.81787109375 3.5751953125 15.81787109375 C1.9251953125000227 13.177871093750014 0.27519531249998863 10.537871093750027 -1.4248046875 7.81787109375 C-6.4248046875 5.81787109375 -6.4248046875 5.81787109375 -12.4248046875 6.81787109375 C-16.48120606281202 11.154024288049072 -19.51033390601475 16.62693938652808 -19.3857421875 22.73193359375 C-18.668235620521784 27.05747318324711 -18.01057575931992 27.232100021930023 -14.4248046875 30.81787109375 C-12.114804687499998 31.14787109375004 -9.804804687499995 31.477871093749968 -7.4248046875 31.81787109375 C-6.104804687500007 30.82787109374999 -4.784804687500014 29.837871093749982 -3.4248046875 28.81787109375 C0.5751953125 29.81787109375 0.5751953125 29.81787109375 3.5751953125 33.81787109375 C-0.5102544342359465 38.04703012805953 -4.845724267768048 38.894101786779174 -10.4248046875 39.81787109375 C-16.180738779222054 38.24458244201264 -21.54595633167588 36.625099547853324 -25.4248046875 31.81787109375 C-28.221597403037777 26.623164889102668 -28.523206053881268 20.219835778197307 -27.10400390625 14.5322265625 C-25.275000713412737 8.987435595150146 -21.812864620103085 2.63997918620737 -16.5966796875 -0.31884765625 C-11.75966285352456 -2.552797612578047 -4.814205407528505 -2.068569538120755 0 0 Z " transform="translate(468.4248046875,677.18212890625)" />
    <path d="M0 0 C5.436856893741265 3.176170693938161 10.604384173228254 7.311745108936179 12.65234375 13.53515625 C14.314591608234423 20.539009585257304 14.471668000616432 26.480280303894688 11 33 C7.925599944170585 37.663806877145134 3.2863765665837263 39.77768658899481 -2 41 C-7.897375298665565 42.05586195303613 -12.046958407919874 39.88176965357388 -17 37 C-17.98407697599953 35.398797617782634 -18.961360289601316 33.793551377063295 -19.9375 32.1875 C-20.215292968749964 31.735683593749968 -20.49308593750004 31.28386718750005 -20.779296875 30.818359375 C-24.383167210023544 24.869802315985112 -24.970853372880356 18.89974653600484 -24 12 C-22.28623247421126 6.637362133325382 -19.039702465441792 4.306507747143883 -14.27978515625 1.788330078125 C-9.508224498401432 -0.5303632819718587 -5.18817575748983 -0.4967402321001373 0 0 Z M-16 12 C-17.512505198009762 18.46252220967824 -16.36074974643725 21.86205065926299 -14 28 C-7 34 -7 34 -1 34 C4.7634730538921985 30.54191616766468 4.7634730538921985 30.54191616766468 6 27 C7.0421591363317475 21.253236762513666 5.149862457782319 15.804212251357626 2 11 C0.5432924815372644 9.312185258579461 -1.113664001708571 8.205159110019508 -3 7 C-10 7 -10 7 -16 12 Z " transform="translate(670,677)" />
    <path d="M0 0 C0.7874284987198052 4.345784547429275 1.570114608870199 8.692389591543815 2.3469085693359375 13.040087699890137 C2.707825649604956 15.05929104568088 3.0703147567985525 17.078184624521555 3.4365234375 19.096435546875 C3.790466502447316 21.047428861002572 4.140114125690388 22.999149250706523 4.486907958984375 24.951425552368164 C4.6193555323188775 25.692787141940016 4.753298524352658 26.433883313495812 4.888824462890625 27.1746883392334 C5.614758768062188 31.148466545004453 6.165811441771666 34.94798289170615 6 39 C4.845000000000027 39.164999999999964 4.845000000000027 39.164999999999964 -1 40 C-4.417573612582032 27.209989662003522 -6.085680677865753 14.079000537307252 -8 1 C-5.302695235427677 -0.1357072692935617 -2.8692112530376335 -0.1020668034677783 0 0 Z " transform="translate(617,690)" />
    <path d="M0 0 C1.104027619974886 -0.027222598848652524 2.2082527718458778 -0.04649641698324558 3.3125 -0.0625 C3.9273828125000136 -0.07410156250000455 4.542265625000027 -0.0857031250000091 5.17578125 -0.09765625 C7 0 7 0 10 1 C12.309999999999945 14.529999999999973 14.620000000000005 28.059999999999945 17 42 C14.360000000000014 41.66999999999996 11.720000000000027 41.34000000000003 9 41 C8.340000000000032 37.700000000000045 7.67999999999995 34.39999999999998 7 31 C2.7100000000000364 30.340000000000032 -1.580000000000041 29.67999999999995 -6 29 C-6.824999999999989 30.485000000000014 -6.824999999999989 30.485000000000014 -11 38 C-13.310000000000002 37.66999999999996 -15.620000000000005 37.34000000000003 -18 37 C-16.628125074205002 32.567756527850634 -14.906080218684622 28.529752553640833 -12.8125 24.39453125 C-12.505972900395648 23.782673538723657 -12.199745251805439 23.170665728516042 -11.893798828125 22.558517456054688 C-11.257518876224196 21.28750683490091 -10.618612662070632 20.017866908929932 -9.9775390625 18.749267578125 C-9.159783330553523 17.130831033866343 -8.347388123813573 15.50977655983695 -7.5367584228515625 13.887761116027832 C-6.906936129302267 12.628389396103671 -6.275028923432501 11.370073493957307 -5.642425537109375 10.112096786499023 C-5.197437795759015 9.226802301999783 -4.753612707291097 8.340923721113654 -4.309814453125 7.4550323486328125 C-2.998916022563435 4.863793853559173 -1.6984737371341225 2.358703619709104 0 0 Z M3 8 C1.0199999999999818 11.960000000000036 -0.9600000000000364 15.919999999999959 -3 20 C-2.669999999999959 20.99000000000001 -2.340000000000032 21.980000000000018 -2 23 C0.6399999999999864 23.33000000000004 3.2799999999999727 23.659999999999968 6 24 C6.090593931029275 18.836145931328247 5.891979996620307 14.097028552116058 5 9 C4.340000000000032 8.669999999999959 3.67999999999995 8.340000000000032 3 8 Z " transform="translate(515,691)" />
    <path d="M0 0 C0 2.3099999999999454 0 4.6200000000000045 0 7 C-3.9600000000000364 7 -7.919999999999959 7 -12 7 C-11.927812499999959 7.873984374999964 -11.855625000000032 8.747968750000041 -11.78125 9.6484375 C-10.998427049413976 19.78327366774795 -10.895254092862729 29.839647007688882 -11 40 C-13.639999999999986 40 -16.279999999999973 40 -19 40 C-19 29.110000000000014 -19 18.220000000000027 -19 7 C-22.960000000000036 7 -26.91999999999996 7 -31 7 C-31 5.019999999999982 -31 3.0399999999999636 -31 1 C-20.633928411916713 0.08003168156471929 -10.397891342763273 -0.11329421559912589 0 0 Z " transform="translate(586,694)" />
  </g>
</svg>