<svg xmlns="http://www.w3.org/2000/svg" viewBox="0 0 89 99" width="89" height="99">
  <g fill="#000000" transform="scale(0.50000000, 0.50000000)">
    <path d="M0 0 C8.376519363737202 6.260666184203998 14.118911533944768 14.945313983958442 15.75048828125 25.4228515625 C16.844747739333343 34.305663634 15.475110478894749 42.71661807471378 10.552001953125 50.251953125 C8.814289592210741 53.01982966849586 8.58861288333344 55.19457220828585 8.875 58.43359375 C9.864999999999995 57.77359375 10.855000000000004 57.11359375000001 11.875 56.43359375 C13.525000000000006 56.43359375 15.175000000000011 56.43359375 16.875 56.43359375 C17.258334960937503 56.82216552734374 17.641669921875007 57.2107373046875 18.03662109375 57.611083984375 C19.46163643640324 59.05422087673743 20.889976297311932 60.49402820145639 22.3193359375 61.932861328125 C22.937108287792512 62.55565753541099 23.553979502742607 63.179348972924515 24.169921875 63.803955078125 C25.05622848261288 64.70241266342288 25.945742699120558 65.59758424085248 26.8359375 66.4921875 C27.10997406005859 66.77138534545898 27.38401062011718 67.05058319091796 27.666351318359375 67.33824157714844 C28.974765581532267 68.6470357662563 30.134512737223787 69.75428964954938 31.875 70.43359375 C31.875 71.09359375 31.875 71.75359375 31.875 72.43359375 C32.452499999999986 72.66046875 33.03 72.88734375000001 33.625 73.12109375 C36.82308230701574 74.70306328976935 39.61678076695219 78.08673059009283 40.875 81.43359375 C41.312693110845714 88.1915753814576 40.36417073154229 88.02956122986734 34.875 94.43359375 C32.235000000000014 94.43359375 29.595 94.43359375 26.875 94.43359375 C26.392890625000007 93.9398828125 25.910781250000014 93.446171875 25.4140625 92.9375 C24.77617567670029 92.29023248812234 24.13814742493929 91.64310433361902 23.5 90.99609375 C23.341445312500014 90.833349609375 23.341445312500014 90.833349609375 22.5390625 90.009765625 C22.22968750000001 89.69716796875 21.920312499999994 89.38457031249999 21.6015625 89.0625 C21.460168457031244 88.91848754882813 21.460168457031244 88.91848754882813 20.74462890625 88.189697265625 C19.83871451919623 87.40204514414677 18.96737992043697 86.9211886187008 17.875 86.43359375 C17.875 85.77359375 17.875 85.11359375 17.875 84.43359375 C17.606875000000002 84.33046875 17.606875000000002 84.33046875 16.25 83.80859375 C12.8743923761526 82.15721735847751 10.418177318682368 79.1293617078033 7.875 76.43359375 C7.875 75.77359375 7.875 75.11359375 7.875 74.43359375 C7.215000000000003 74.43359375 6.555000000000007 74.43359375 5.875 74.43359375 C2.875 68.43359375 2.875 68.43359375 3.875 62.43359375 C0.10865352218210944 63.02334195293234 -2.6846885401180884 64.09779406172481 -6 65.93359375 C-10.047519453042327 68.05333022531507 -13.503195679101196 69.28518718923719 -18.125 69.43359375 C-18.748906250000005 69.472265625 -19.37281250000001 69.5109375 -20.015625 69.55078125 C-30.624355534416082 69.92668115082577 -40.85951166051353 66.55791032098239 -48.775390625 59.3740234375 C-56.010437421248234 52.35177213525907 -60.14094351901531 44.04601620225205 -60.41748046875 33.951171875 C-60.5681808370805 22.13345927010603 -57.91153761650436 13.491932510533417 -50.125 4.43359375 C-49.465 4.43359375 -48.80500000000001 4.43359375 -48.125 4.43359375 C-48.125 3.7735937500000034 -48.125 3.1135937499999997 -48.125 2.43359375 C-33.85574002767912 -8.323152703165086 -15.227954539352027 -10.705337373563829 0 0 Z M-45.099609375 8.38134765625 C-51.15324472388858 15.073086951958516 -53.733315784648504 22.35346120603424 -53.625 31.24609375 C-53.622905273437496 31.64133239746093 -53.620810546875 32.036571044921885 -53.61865234375 32.44378662109375 C-53.5166993713585 41.78617172546858 -50.792477871071256 48.02956419189849 -44.3125 54.80859375 C-39.66518761871363 59.31223178893981 -33.72211109809011 62.988844687207404 -27.125 63.43359375 C-26.802734375 63.459374999999994 -26.802734375 63.459374999999994 -25.171875 63.58984375 C-16.031547284476062 64.08640078887152 -8.080879014057729 61.49395461235177 -1.16796875 55.453125 C4.274073759652026 50.300850283949245 8.083893438496773 43.945809806941085 8.875 36.43359375 C8.918828125000005 36.0238330078125 8.962656250000009 35.614072265625 9.0078125 35.19189453125 C9.836819299202318 25.875930625213925 7.38627461484414 16.262377842004994 1.359375 8.9296875 C-4.750544716945257 2.3219539899610027 -13.421279401866471 -0.04030277442694086 -22.0703125 -0.5234375 C-30.61064571796564 -0.7696405344918773 -38.910672843686655 2.362947953204298 -45.099609375 8.38134765625 Z M12.875 63.43359375 C11.885000000000005 64.42359375 10.894999999999996 65.41359375 9.875 66.43359375 C11.294597770205684 69.69074193341608 12.988122537028048 71.76665552031062 15.5625 74.18359375 C19.05161706221105 77.55710269970336 22.274192984134118 81.0848073808881 25.4296875 84.76953125 C26.5267148021116 86.04868500434281 27.65902361436838 87.26483974827642 28.875 88.43359375 C30.525000000000006 88.10359375000002 32.17500000000001 87.77359375 33.875 87.43359375 C34.204999999999984 86.11359375 34.535 84.79359375000001 34.875 83.43359375 C28.275000000000006 76.83359375 21.67500000000001 70.23359375 14.875 63.43359375 C14.215000000000003 63.43359375 13.555000000000007 63.43359375 12.875 63.43359375 Z " transform="translate(113.125,56.56640625)" />
    <path d="M0 0 C0.6599999999999966 0.6599999999999966 1.3199999999999932 1.3200000000000003 2 2 C1.6700000000000017 3.319999999999993 1.3400000000000034 4.640000000000001 1 6 C0.659687500000004 6.109570312499997 0.31937500000000796 6.219140624999994 -0.03125 6.33203125 C-1.0737999201203081 6.673078165358504 -2.113948915681547 7.021503886189464 -3.15234375 7.375 C-4.4335646068031025 7.8083939473329735 -5.71330949133386 8.22273607522095 -7.00390625 8.625 C-12.101273075895406 10.284128669674459 -15.798502130547476 12.431638068744533 -18.7109375 17.15234375 C-20.418250542617102 20.826778341719418 -20.624077792223687 25.01324605963549 -21 29 C-21.659999999999997 29.659999999999997 -22.319999999999993 30.319999999999993 -23 31 C-24.319999999999993 30.67 -25.64 30.340000000000003 -27 30 C-27.77585326796445 21.896643645704614 -26.407785669464147 15.513964915578057 -21.2373046875 9.0458984375 C-16.02151613607697 3.226521776981471 -7.79131977269158 -0.482575126206946 0 0 Z " transform="translate(92,61)" />
  </g>
</svg>