<svg xmlns="http://www.w3.org/2000/svg" viewBox="0 0 174 126" width="174" height="126">
  <g fill="#000000" transform="scale(0.50000000, 0.50000000)">
    <path d="M0 0 C0.42442382812498636 0.15033691406250682 0.8488476562500011 0.30067382812499943 1.2861328125 0.45556640625 C10.624476255382262 3.9601746429980977 17.646986532143018 11.422870393494264 24.41015625 18.50390625 C31.77742590574948 26.204087504358185 40.238396887063715 32.18620951077622 50.92578125 34.0859375 C51.39260818481446 34.16951507568359 51.8594351196289 34.25309265136718 52.34040832519531 34.339202880859375 C58.5804830350055 35.36563032584945 64.87801784500783 35.46267646070501 71.1875 35.625 C72.43817439554266 35.66330748310813 73.68882602384372 35.70236588800964 74.939453125 35.7421875 C77.95942884557621 35.83674932592743 80.97954910609496 35.9221685658145 84 36 C84.99000000000001 36.99000000000001 85.98000000000002 37.97999999999999 87 39 C86.34000000000003 40.650000000000006 85.68 42.3 85 44 C80.90464837521642 44.07053780919112 76.80956412512893 44.12332153124524 72.71374893188477 44.155436515808105 C70.8104075431288 44.17087587679703 68.90749125898407 44.19169391473011 67.00439453125 44.226318359375 C49.703453741862035 44.53248033396241 35.3981360441345 41.72928768165579 22.5 29.46875 C20.800337066850943 27.811578640179675 19.14218629108703 26.120281941322077 17.5 24.40625 C7.681812679372655 14.185520832958801 -3.36265104309291 7.278000204861954 -17.830078125 6.8330078125 C-30.48828874097316 6.650186338679205 -43.40713800355334 10.3338032946739 -52.77490234375 19.25146484375 C-56.755915115816606 23.322401669020934 -56.755915115816606 23.322401669020934 -58 26 C-58.66 26 -59.31999999999999 26 -60 26 C-60.66 27.319999999999993 -61.31999999999999 28.64 -62 30 C-62.66 30 -63.31999999999999 30 -64 30 C-64 30.659999999999997 -64 31.319999999999993 -64 32 C-78.45827804290387 41.5720792150385 -89.78151198112319 44.34143681837422 -106.91552734375 44.1373291015625 C-108.8466346102849 44.11657113711806 -110.77779681637199 44.10767257875911 -112.708984375 44.09765625 C-123.96577625120544 44.03422374879456 -123.96577625120544 44.03422374879456 -126 42 C-125.67 40.349999999999994 -125.34 38.7 -125 37 C-123.15014828885741 36.0750741444287 -122.52261492305803 35.870355729155094 -120.57666015625 35.826416015625 C-120.09500396728515 35.81292617797851 -119.61334777832032 35.79943634033202 -119.11709594726563 35.78553771972656 C-118.8567204284668 35.78031852722168 -118.8567204284668 35.78031852722168 -117.5390625 35.75390625 C-116.41535913992121 35.720887861511244 -115.29166139484676 35.68767793771636 -114.16796875 35.654296875 C-112.41330145528529 35.607534821992544 -110.65864161813566 35.56326826957729 -108.90380859375 35.523193359375 C-87.3727628015034 35.00819985503452 -87.3727628015034 35.00819985503452 -79.0625 30.6875 C-78.586513671875 30.448217773437506 -78.11052734375 30.208935546874997 -77.6201171875 29.96240234375 C-70.6728920029264 26.119591783131995 -65.29989146239899 19.80304571515839 -60 14 C-59.34 14 -58.68000000000001 14 -58 14 C-58 13.340000000000003 -58 12.680000000000007 -58 12 C-57.34 12 -56.68000000000001 12 -56 12 C-56 11.340000000000003 -56 10.680000000000007 -56 10 C-49.99352444072855 5.512642511309636 -44.12011812674294 1.4733381355126056 -37 -1 C-36.8337109375 -1.0585717773437437 -36.8337109375 -1.0585717773437437 -35.9921875 -1.35498046875 C-24.833827642468407 -5.050638039674595 -10.881949955199588 -3.919245632080262 0 0 Z " transform="translate(199,77)" />
    <path d="M0 0 C4.662621162007156 0 8.575120287338592 1.589625561403551 12.893402099609375 3.21221923828125 C27.02256242447976 8.4576016684899 38.020451147785195 8.672775493547533 51.9453125 2.59375 C52.44675781250001 2.3539843750000102 52.94820312499999 2.114218749999992 53.46484375 1.8671875 C65.83499773177175 -2.9418184975974384 78.97015679543432 1.5300935445366406 90.778076171875 5.81591796875 C94.13865277361646 7.0215011299871435 97.12192190650762 7.6053479537540625 100.6953125 7.59375 C101.2056201171875 7.592863769531249 101.71592773437499 7.591977539062498 102.24169921875 7.591064453125 C108.96994716593946 7.389564780641535 115.19020777708602 5.032197345578595 121.45166015625 2.73486328125 C133.28760816849615 -1.585750321317846 143.14698210370003 -0.4419555396122803 154.7578125 3.71875 C167.5268507514821 8.258184930042972 175.88282631578372 8.248466175553574 188.553466796875 3.442626953125 C192.34720472546508 2.018067880416993 195.95712331310176 0.9345179427198218 199.99609375 0.46484375 C200.36615036010744 0.420456695556652 200.73620697021488 0.37606964111327557 201.1174774169922 0.3303375244140625 C203.36899219919906 0.1225118519083992 205.04717286192584 0.3529121876156296 207.1328125 1.21875 C207.46281250000004 2.8687500000000057 207.79281249999997 4.518750000000011 208.1328125 6.21875 C204.25732456706862 8.795068682687315 200.61952590044973 10.116430174883249 196.1328125 11.28125 C189.29975278121134 13.09901909185723 189.29975278121134 13.09901909185723 186.5703125 14.27734375 C176.96043490991312 18.271033724887616 164.01537275252582 17.253577750131626 154.45751953125 13.70263671875 C151.81171468252109 12.736181648683527 149.12816447776163 11.887984793241202 146.4453125 11.03125 C145.9224365234375 10.852392578125006 145.399560546875 10.673535156250011 144.86083984375 10.4892578125 C138.31987778419352 8.378208088339903 132.7236685495717 9.009685328798838 126.3389892578125 11.184967041015625 C125.29272427217506 11.540628179183017 124.24256291870154 11.881604917368236 123.1904296875 12.219482421875 C120.21073598534889 13.180191321723129 117.24451890199822 14.174338593469116 114.29296875 15.21875 C102.5164049254409 19.287017503029517 93.13954381055362 16.994233557060795 81.91796875 12.62890625 C69.73660396152562 7.913568698490053 58.523702805512585 9.964147096918822 46.70654296875 14.62890625 C34.97208859784854 19.027051108842358 24.409531785230072 16.599164690329587 12.8857421875 12.7802734375 C9.164824591811254 11.588336046123374 5.390006436886765 10.571109352665871 1.625732421875 9.526123046875 C1.0673266601562545 9.369260253906248 0.5089208984374949 9.212397460937495 -0.06640625 9.05078125 C-0.5597143554687563 8.91389892578124 -1.0530224609374983 8.777016601562508 -1.561279296875 8.635986328125 C-2.8671875 8.21875 -2.8671875 8.21875 -4.8671875 7.21875 C-4.8671875 0.2753156565656525 -4.8671875 0.2753156565656525 0 0 Z " transform="translate(77.8671875,129.78125)" />
    <path d="M0 0 C0.20560546875000796 0.0045117187499954525 0.20560546875000796 0.0045117187499954525 1.24609375 0.02734375 C4.989912289283723 0.11440929742519756 4.366778228926663 0.21258367169500048 8.25 3.125 C7.920000000000002 4.444999999999993 7.590000000000003 5.764999999999986 7.25 7.125 C2.7587185386168898 8.613235277144696 -1.0031087310191253 9.437981841910812 -5.75 9.125 C-6.739999999999995 8.465000000000003 -7.730000000000004 7.805000000000007 -8.75 7.125 C-8.75 5.474999999999994 -8.75 3.8249999999999886 -8.75 2.125 C-5.680540642895792 0.33682872315489476 -3.522996843057811 -0.14918227674186824 0 0 Z " transform="translate(93.75,154.875)" />
    <path d="M0 0 C2 2 2 2 2 7 C-1 9 -1 9 -12 9 C-12.990000000000009 8.009999999999991 -13.97999999999999 7.02000000000001 -15 6 C-12.905022272376726 -2.3799109104931233 -9.019798539537277 0 0 0 Z " transform="translate(142,155)" />
    <path d="M0 0 C0.9900000000000091 0.9900000000000091 1.9799999999999898 1.9799999999999898 3 3 C2 7 2 7 0 9 C-11 9 -11 9 -14 7 C-13.669999999999987 5.349999999999994 -13.340000000000003 3.6999999999999886 -13 2 C-10 0 -10 0 0 0 Z " transform="translate(185,155)" />
    <path d="M0 0 C1.3199999999999932 1.3199999999999932 2.6399999999999864 2.6399999999999864 4 4 C2 8 2 8 0 9 C-1.14501953125 9.113525390625 -1.14501953125 9.113525390625 -2.3828125 9.09765625 C-2.8275390624999943 9.094433593750011 -3.2722656249999886 9.091210937499994 -3.73046875 9.087890625 C-4.190664062499991 9.079511718750013 -4.65085937500001 9.071132812499997 -5.125 9.0625 C-5.592929687500003 9.057988281250005 -6.060859375000007 9.053476562500009 -6.54296875 9.048828125 C-9.979355569948183 9.013762953367888 -9.979355569948183 9.013762953367888 -13 7 C-13 5.349999999999994 -13 3.6999999999999886 -13 2 C-10 0 -10 0 0 0 Z " transform="translate(227,155)" />
    <path d="M0 0 C0.49500000000000455 0.3300000000000125 0.9900000000000091 0.6599999999999966 1.5 1 C1.170000000000016 2.6500000000000057 0.839999999999975 4.300000000000011 0.5 6 C-2.5 8 -2.5 8 -11.5 8 C-12.490000000000009 7.340000000000003 -13.480000000000018 6.680000000000007 -14.5 6 C-14.5 4.349999999999994 -14.5 2.6999999999999886 -14.5 1 C-10.441604453750472 -1.7055970308330188 -4.444036997170372 -2.222018498585186 0 0 Z " transform="translate(271.5,156)" />
    <path d="M0 0 C12 0 12 0 15 2 C14 7 14 7 13 8 C2 9 2 9 -2 7 C-2 2 -2 2 0 0 Z " transform="translate(108,175)" />
    <path d="M0 0 C1.3199999999999932 1.3199999999999932 2.6399999999999864 2.6399999999999864 4 4 C3.3400000000000034 5.319999999999993 2.680000000000007 6.639999999999986 2 8 C-3.470115864024251 8.899530164306213 -7.810721848484491 9.462363358170109 -13 7 C-13 5.349999999999994 -13 3.6999999999999886 -13 2 C-10 0 -10 0 0 0 Z " transform="translate(163,175)" />
    <path d="M0 0 C0.4898437500000057 0.0032226562499886313 0.9796875000000114 0.006445312500005684 1.484375 0.009765625 C1.9922656249999875 0.018144531249987494 2.5001562500000034 0.02652343750000341 3.0234375 0.03515625 C3.5390625 0.03966796874999545 4.0546875 0.044179687499990905 4.5859375 0.048828125 C8.37786091549296 0.08393852699529702 8.37786091549296 0.08393852699529702 11.3984375 2.09765625 C11.3984375 3.7476562500000057 11.3984375 5.397656250000011 11.3984375 7.09765625 C8.328978142895778 8.885827526845105 6.171434343057797 9.371838526741868 2.6484375 9.22265625 C2.442832031249992 9.218144531250005 2.442832031249992 9.218144531250005 1.40234375 9.1953125 C-2.3414747892837227 9.108246952574802 -1.7183407289266768 9.010072578305 -5.6015625 6.09765625 C-5.2715624999999875 4.447656249999994 -4.941562500000003 2.7976562499999886 -4.6015625 1.09765625 C-2.6728613336593128 0.1333056668296706 -2.0434142846906695 -0.02376063121732841 0 0 Z " transform="translate(197.6015625,174.90234375)" />
    <path d="M0 0 C0.9900000000000091 0.9900000000000091 1.9799999999999898 1.9799999999999898 3 3 C2 7 2 7 1 8 C-10 9 -10 9 -15 6 C-12.905022272376726 -2.3799109104931233 -9.019798539537277 0 0 0 Z " transform="translate(250,175)" />
    <path d="M0 0 C68.63999999999999 0 137.28 0 208 0 C208.32999999999998 0.3300000000000125 208.32999999999998 0.3300000000000125 210 2 C209 7 209 7 208 8 C139.36 8 70.72 8 0 8 C-0.6599999999999966 6.349999999999994 -1.3199999999999932 4.699999999999989 -2 3 C-1.3400000000000034 2.009999999999991 -0.6800000000000068 1.0200000000000102 0 0 Z " transform="translate(75,196)" />
  </g>
</svg>