<svg xmlns="http://www.w3.org/2000/svg" viewBox="0 0 138 127" width="138" height="127">
  <g fill="#000000" transform="scale(0.50000000, 0.50000000)">
    <path d="M0 0 C1.699741270556899 0.17276058815496498 3.336812347246962 0.6161874647493022 5 1 C6.8400918378458755 6.849719717933766 7.288558711372417 12.295047059474967 7.205810546875 18.410888671875 C7.187295658070099 19.828141693593885 7.18530338372716 21.24474667591948 7.185546875 22.662109375 C7.1806386914863936 23.572922289139427 7.174813447722443 24.483730830071657 7.16796875 25.39453125 C7.166855926513676 25.81330032348633 7.165743103027353 26.232069396972655 7.1645965576171875 26.663528442382813 C7.1273459883341275 28.96627219767626 6.875242936086636 30.83262784156102 6 33 C7.909027065512646 32.398959893324125 9.810177777489685 31.77760076153254 11.706787109375 31.138427734375 C12.662460488446186 30.82082157030728 13.62319964369226 30.518588165472558 14.583984375 30.216796875 C19.420571335207256 28.57083796184046 23.12188061473401 26.32384221610343 25.694580078125 21.770751953125 C26.380459417468643 20.22173643176869 26.92834327085393 18.64669310340797 27.470703125 17.04296875 C28.523700555055512 14.2817754889656 28.523700555055512 14.2817754889656 29.94091796875 13.443359375 C31.025253445706568 13.100145369336751 31.864690277742483 12.943423103541988 33 13 C34.25 13.746093750000014 34.25 13.746093750000014 35 15 C35.692360487547944 20.20712783343354 32.84675932447303 24.860057750130565 29.8515625 28.859375 C25.025748767674173 34.74197426378446 18.487978295450034 37.60139748903689 11.24951171875 39.444580078125 C6.515954891751164 40.75804265314602 3.4397476052611182 43.49115850270235 0.943359375 47.711669921875 C0.057103336634781954 49.2979355574891 -0.7722184439610373 50.91214625946992 -1.59619140625 52.53143310546875 C-5.669314875496525 60.47317765371223 -10.66481898832157 66.69654385465338 -17.01953125 72.92529296875 C-17.92907879932376 73.9222621699759 -18.477749532406534 74.76527073589125 -19 76 C-19.659999999999997 76 -20.319999999999993 76 -21 76 C-21.25265625 76.5684765625 -21.505312500000002 77.136953125 -21.765625 77.72265625 C-22.82089330943269 79.83411854282102 -24.170746966958774 81.47520573302162 -25.71630859375 83.246337890625 C-34.89447625771432 93.8226912284809 -39.09243214777021 105.88303944876665 -39.25 119.6875 C-39.25475341796874 120.00259521484375 -39.25475341796874 120.00259521484375 -39.27880859375 121.59716796875 C-39.233879326162565 127.90889804131095 -37.536239650439924 132.50190493008841 -34.0625 137.6875 C-27.63220501982731 147.9134280657336 -26.602691314263694 158.564931198363 -29.241943359375 170.157470703125 C-29.410742167111252 170.87594404470374 -29.58008936320867 171.5942887806796 -29.75 172.3125 C-29.828320617675786 172.65711273193358 -29.906641235351557 173.0017254638672 -29.987335205078125 173.35678100585938 C-31.072070843487253 178.0281268098628 -32.62471177671732 181.50771558983666 -36 185 C-37.650000000000006 184.67 -39.3 184.34 -41 184 C-40.69718201128653 181.123229107222 -40.34098712126192 178.57237009839142 -39.04296875 175.97265625 C-34.95393063858458 167.67205518214914 -34.19610030468225 157.03381194786894 -36.6953125 148.046875 C-38.13071189559986 143.99548616611992 -40.4029595538472 140.69641051458254 -44.295654296875 138.66259765625 C-49.446582816587735 136.66007366219466 -54.606872446392856 138.28137970930348 -59.56805419921875 140.07937622070313 C-66.00110727858737 142.39607289677232 -71.77979034966428 143.60783725219326 -78.658447265625 143.546630859375 C-80.19015420996922 143.56503042373683 -81.52292647166078 143.59182976242815 -83 144 C-83.79124281229407 144.94702574559275 -84.12612758366829 145.80042439037283 -84.53759765625 146.959716796875 C-85.37057453222705 148.83369486896487 -87.02739341594621 149.6327038705863 -88.75 150.625 C-89.10779541015626 150.83664794921876 -89.4655908203125 151.0482958984375 -89.834228515625 151.266357421875 C-95.93689043835079 154.77835677932825 -101.09163580533783 155.27633456778648 -108 155 C-108.66 153.68 -109.32 152.36 -110 151 C-107.6062275602314 148.1336705413774 -105.94525684118089 147.56524972648634 -102.3125 147.125 C-98.57592643968935 146.5343246597182 -95.63000343012229 145.54645758695673 -92.4375 143.5 C-92.10339111328125 143.2861767578125 -91.7692822265625 143.072353515625 -91.425048828125 142.85205078125 C-89.82776344719336 141.76312613522197 -88.63170183949258 140.86914516890954 -88 139 C-88.28875 138.87625 -88.28875 138.87625 -89.75 138.25 C-92.28096655309884 136.9483600584063 -94.48744975688875 135.45789414505577 -96 133 C-96.32109946749262 130.9529908947345 -96.24625280376506 129.05210669804222 -96 127 C-91.87623503142838 127.42483991266232 -89.43651729326402 128.8496412060554 -86.3125 131.5 C-85.53888915859011 132.13679041160682 -84.76418905323642 132.77226037615895 -83.98828125 133.40625 C-83.65352783203124 133.68791015625 -83.3187744140625 133.9695703125 -82.973876953125 134.259765625 C-79.66557337499461 136.7743749127642 -75.64345275052708 136.55787101525135 -71.65966796875 136.2529296875 C-65.95608862327279 135.3837169481775 -60.378220524050334 133.0262634439308 -55 131 C-55 129 -55 129 -55.69921875 128.241455078125 C-56.02535156249999 128.00322021484374 -56.351484375 127.7649853515625 -56.6875 127.51953125 C-57.0574609375 127.24173828124998 -57.42742187499999 126.96394531250002 -57.80859375 126.677734375 C-58.201757812500006 126.39220703125 -58.594921875 126.10667968749999 -59 125.8125 C-59.752312750767004 125.2596438326214 -60.502201801408404 124.70347871708287 -61.25 124.14453125 C-61.46261474609375 123.98758789062501 -61.46261474609375 123.98758789062501 -62.53857421875 123.193359375 C-63.68592891085581 122.25646165782439 -64.68410529688413 121.32884850254766 -65.71533203125 120.275390625 C-71.01540766855385 114.9883651038171 -75.554366955554 113.71243414764703 -82.875 112.875 C-93.22269803465056 111.60347601166461 -101.88989873634445 108.7034229902863 -109.625 101.4375 C-110.0568359375 101.06431640625 -110.488671875 100.6911328125 -110.93359375 100.306640625 C-113.8521107824684 97.6429147620328 -113.8521107824684 97.6429147620328 -114.2685546875 95.83251953125 C-114.2734375 94.72265625 -114.2734375 94.72265625 -114 93 C-112.45285024442624 92.28508482858558 -111.66894462394768 91.9506813054389 -110 92 C-107.91282926949017 93.12392174808963 -106.18211750181021 94.6639546661877 -104.375 96.1875 C-95.96380781024357 102.93153905973891 -87.6088566656548 105.50270869779052 -77 107 C-77.08564208984376 106.68772460937498 -77.17128417968749 106.37544921875002 -77.259521484375 106.0537109375 C-77.65264009239323 104.6192659964261 -78.04507447811824 103.18463469860033 -78.4375 101.75 C-78.57220703125 101.2588671875 -78.7069140625 100.767734375 -78.845703125 100.26171875 C-79.11230330714179 99.28635222996911 -79.37630896063743 98.31027277271771 -79.6376953125 97.33349609375 C-79.93308761801732 96.24627724419769 -80.25048320030547 95.16505599898177 -80.57421875 94.0859375 C-81.16324113772396 91.69810788261542 -81.18593227165621 89.2704166056246 -81.28955078125 86.822509765625 C-81.75134054284848 76.29766139913617 -82.86894848846264 67.44830214124701 -90.8876953125 59.95556640625 C-94.34886958796845 56.98211686406748 -98.16024160713908 54.45372760233654 -102 52 C-101.76377111852891 50.53538093487924 -101.56636576053788 49.34985546544107 -101 48 C-99.70703125 47.1171875 -99.70703125 47.1171875 -98 47 C-96.43891274365362 47.50625698111185 -95.09207910299018 48.28498911756792 -93.6875 49.125 C-93.2915966796875 49.355097656249995 -92.895693359375 49.58519531249999 -92.48779296875 49.822265625 C-87.40087650055638 52.85417523738661 -82.28398826396135 56.29002934009664 -80 62 C-80 62.66 -80 63.31999999999999 -80 64 C-79.34 64 -78.68 64 -78 64 C-77.07459313513424 58.82763663030386 -76.86435017202788 53.68538553637117 -76.8125 48.4375 C-76.799609375 47.81286865234375 -76.78671875 47.188237304687505 -76.7734375 46.544677734375 C-76.76521605461356 42.62767284807248 -77.30733348227926 39.321573582060424 -78.556884765625 35.60546875 C-79.25511863571732 33.07566933968202 -79.17146642777963 30.60057415465782 -79 28 C-77.68 27.67 -76.36 27.340000000000003 -75 27 C-74.34621470799698 28.225467314777774 -73.70215202442597 29.454675856037134 -73.0625 30.6875 C-72.971298828125 30.857333984375003 -72.971298828125 30.857333984375003 -72.509765625 31.716796875 C-69.94287804054113 36.71055999385636 -69.77644305279378 41.77234142620601 -69.75 47.3125 C-69.74799591064453 47.6540512084961 -69.74599182128907 47.995602416992185 -69.74392700195313 48.347503662109375 C-69.73129740054424 57.262713521954225 -71.05728629433187 66.56527828946771 -74 75 C-55.55350330941795 63.914692489389665 -55.55350330941795 63.914692489389665 -52.625 55.8125 C-51.03033381835644 48.660663791416766 -51.63039263326996 40.78848673493164 -52.87890625 33.62109375 C-53.0134622800922 31.81977915360448 -52.680471923311615 30.658335279774235 -52 29 C-50.349999999999994 29.33 -48.7 29.659999999999997 -47 30 C-45.19513682510619 35.22449517769775 -44.63317008384354 39.93537509216526 -44.6875 45.4375 C-44.68899047851562 45.811620178222654 -44.690480957031255 46.18574035644531 -44.6920166015625 46.571197509765625 C-44.73247551258086 52.21536656291272 -45.10720201534744 57.02488622467081 -48 62 C-48.278437499999995 62.52464843749999 -48.556875000000005 63.04929687500001 -48.84375 63.58984375 C-52.49631908426679 69.77716982808984 -58.57305526573569 73.78266173829942 -64.3125 77.875 C-64.7451416015625 78.18558349609376 -65.177783203125 78.4961669921875 -65.62353515625 78.816162109375 C-66.0326513671875 79.10112548828126 -66.441767578125 79.3860888671875 -66.86328125 79.6796875 C-67.22719970703125 79.9347607421875 -67.5911181640625 80.189833984375 -67.966064453125 80.45263671875 C-69 81 -69 81 -71 81 C-73.78685660635989 85.72770317150339 -74.02173251743653 91.95564211848036 -72.6953125 97.2060546875 C-68.41881723533076 110.1773630285503 -57.03918778757321 119.72583321282428 -46 127 C-46.03609374999999 126.8659375 -46.03609374999999 126.8659375 -46.21875 126.1875 C-49.30751615134761 113.14604291653228 -44.829467605587226 98.96287611264943 -38.12890625 87.7763671875 C-33.834340221895346 80.86892294149463 -28.395754350331543 74.5493564444282 -22.888671875 68.591796875 C-18.7703824398793 64.11146001701154 -15.911994193214142 59.75773619196465 -15.9453125 53.484375 C-16.17998108177828 48.66825364473502 -16.97850587188023 43.89910653047821 -20 40 C-21.156516947507242 39.01634323681769 -22.3660132713823 38.14895092608631 -23.59765625 37.26171875 C-25.49492256869783 35.554707549611706 -26.836476424140216 33.61409131971293 -28.25 31.5 C-28.508215332031256 31.119968261718753 -28.766430664062497 30.7399365234375 -29.032470703125 30.348388671875 C-31.506240357650512 26.53682284054316 -32.17070429565021 23.24463997316245 -32.0625 18.75 C-32.057988281250005 18.386484374999995 -32.053476562499995 18.022968750000004 -32.048828125 17.6484375 C-32.037211202622416 16.765551399303504 -32.01928341594214 15.882751929795788 -32 15 C-30.680000000000007 14.340000000000003 -29.36 13.68 -28 13 C-25.979873982222273 15.543862392757134 -25.624045003877683 17.706947421115032 -25.1875 20.875 C-24.37975599627009 25.64662512107541 -22.854047876661028 27.987640740081034 -19 31 C-13.002037152260783 36.203052108882204 -10.226857074657289 42.49135127087925 -8 50 C-7.199638583450593 48.31649692896093 -6.411471870728349 46.62753084580669 -5.625 44.9375 C-5.4032812500000205 44.47150390625001 -5.181562499999984 44.0055078125 -4.953125 43.525390625 C-2.043856060890846 37.236235712514016 -0.6937438017420163 31.504512288887987 -0.83984375 24.5703125 C-0.8461368058230505 23.8876939273159 -0.851369294670576 23.20506485209077 -0.8556060791015625 22.522430419921875 C-0.8687276471886207 20.750511264207844 -0.8930952519060611 18.978956305190522 -0.92095947265625 17.20721435546875 C-0.9646049806765689 14.351574124073203 -0.9937872291156964 11.495821018702635 -1.0170001983642578 8.639949798583984 C-1.0272017935676274 7.646634601232506 -1.0445488681216943 6.6534011127086785 -1.0619964599609375 5.660186767578125 C-1.065261917114242 5.361199798583982 -1.065261917114242 5.361199798583982 -1.081787109375 3.84814453125 C-1.0900401306152503 3.3207669067382817 -1.0982931518554722 2.7933892822265634 -1.1067962646484375 2.250030517578125 C-1 1.0000000000000036 -1 1.0000000000000036 0 0 Z " transform="translate(140,23)" />
    <path d="M0 0 C-0.12309918574993617 2.2397367687805456 -0.26679237869643657 4.27919991115634 -1.92333984375 5.90771484375 C-3.1526070809272255 6.719750943998164 -4.408393673172441 7.456615172163879 -5.6875 8.1875 C-15.320489828232098 14.43486505954965 -17.896768216397447 24.120762223082608 -21.388671875 34.5185546875 C-23.06161097785335 39.47745479663544 -24.82973986124574 44.25388240478135 -27.1875 48.9375 C-27.4130859375 49.3904443359375 -27.638671875 49.843388671875005 -27.87109375 50.31005859375 C-29.55191553740417 53.51168207106565 -31.666190549969087 56.24626635826803 -34 59 C-24.702316460907895 60.61108086376754 -18.514315132244207 59.59767783145452 -10.707275390625 54.17724609375 C-7.22544187365412 51.66313946648506 -3.9848615253837636 49.148099259628935 -1.125 45.9375 C0.618799515845069 44.021236795774655 0.618799515845069 44.021236795774655 2.40234375 43.921875 C3.6884286467566483 44.164129218779635 4.784763185401516 44.529128925443274 6 45 C5.698213692465799 49.57546982390558 3.731222352304144 51.90456348845835 0.5 55 C0.055112304687497726 55.435703125 -0.38977539062500455 55.87140625000001 -0.84814453125 56.3203125 C-4.841398388534401 60.099970419470026 -9.049645533466162 62.68951633384535 -14 65 C-15.336345547165422 65.66076761922926 -16.66779153839235 66.33090875470828 -18 67 C-12.584748264084027 70.90301388413093 -8.662716616274167 72.57252481886735 -2 73 C-0.6315093523651854 73.26524116485058 0.6613632394531805 73.60956427817385 2 74 C2.9765625 76.92968750000003 2.9765625 76.92968750000003 3 78 C2.34375 79.109375 2.34375 79.109375 1 80 C-4.765703781830894 81.19317670770644 -10.917535455632873 80.45375100426816 -15.94921875 77.41796875 C-19.836897917749468 74.83071147061406 -23.430509521892162 71.80849583523423 -26.98193359375 68.784423828125 C-30.87031213956712 65.78841417159973 -36.35226437467037 66.47134003711886 -41 67 C-48.80074311233005 68.53036511911267 -54.86518864852843 74.73416079452676 -60.618408203125 79.8115234375 C-61.94134301609796 80.94954193362162 -63.29959220355889 82.01584650055403 -64.68359375 83.078125 C-66.802779231946 84.7545837099517 -68.3383761631969 86.49773210508116 -69.8125 88.75 C-70.02841796875 89.0658203125 -70.24433593750001 89.38164062499999 -70.466796875 89.70703125 C-70.98475429026337 90.46670212571962 -71.49347064600965 91.2326619148061 -72 92 C-71.79826171874998 91.92781250000002 -71.79826171874998 91.92781250000002 -70.77734375 91.5625 C-65.29563570267268 89.88656378170884 -60.06423655448296 89.85673559696485 -54.368896484375 90.07421875 C-50.44799059171973 90.18009288029629 -47.499920731726775 89.83013071235902 -44 88 C-44 87.34 -44 86.68 -44 86 C-42.349999999999994 86 -40.69999999999999 86 -39 86 C-37.87671526586621 88.33297598627789 -37.87671526586621 88.33297598627789 -38 90 C-40.42747451839 93.64665454556342 -43.77506176922739 95.97185850452615 -48 97 C-51.51698508161172 97.42011989374964 -55.09129166075036 97.40326216080175 -58.62890625 97.456298828125 C-64.48872204282105 97.56077438399228 -70.57605762293491 97.67641319226038 -75.057861328125 102.02685546875 C-77.54948705324861 105.57093312880272 -77.70417083351188 109.87817087986286 -78.0625 114.0625 C-78.8260658231585 122.52711760131132 -78.8260658231585 122.52711760131132 -81 126 C-82.32 126 -83.64 126 -85 126 C-88.42285176478839 119.95531613354683 -85.92558402693122 110.53458995278282 -84.25 104.25 C-84.09313720703125 103.64905517578126 -83.9362744140625 103.04811035156251 -83.774658203125 102.428955078125 C-81.69609092814423 95.12655445978731 -78.28493431656153 89.1727220732835 -73.735107421875 83.1650390625 C-69.18703315808526 77.14694648535323 -65.42039986891365 72.14344420211614 -66.41796875 64.234375 C-66.59463037290448 63.48527865138786 -66.78805791563897 62.73988865472313 -67 62 C-67.07516845703125 61.655014648437486 -67.1503369140625 61.310029296875 -67.227783203125 60.95458984375 C-68.00452317365 58.612472383392344 -69.34993151397339 57.66868188570288 -71.51802062988281 56.55322265625 C-73.6234531420842 55.538021496104506 -75.75530011870367 54.58730177200573 -77.896728515625 53.65087890625 C-82.97921442378617 51.402523012346464 -87.24658735991348 49.06300179200039 -90 44 C-90.06799619485753 42.12401764580859 -89.76364874593213 40.70875858000656 -89 39 C-87.21129349296608 39.07509836479913 -85.6432453279586 39.265002089730984 -84 40 C-83.43359375 41.109375 -83.43359375 41.109375 -83.0625 42.4375 C-82.53533716895566 44.16818552078709 -82.33591304224106 44.8145265410939 -80.7265625 45.703125 C-79.16205011815157 46.19550960748529 -77.59025351199153 46.599520509205064 -76 47 C-75.03530432100652 47.358315537911864 -74.076128100512 47.732083833121834 -73.125 48.125 C-72.9200390625 48.2087890625 -72.9200390625 48.2087890625 -71.8828125 48.6328125 C-71.7371484375 48.69339843750001 -71.7371484375 48.69339843750001 -71 49 C-71.10828125 48.75056640625 -71.10828125 48.75056640625 -71.65625 47.48828125 C-75.21309174447566 38.610944321913635 -75.3826220948884 28.76749265574952 -71.94921875 19.8046875 C-70.99032792377196 17.744463897831068 -69.76670227984374 16.4286852620165 -68 15 C-66.41807322193395 14.89947622480517 -65.51642100284519 15.424805826506997 -64 16 C-63.622859121058866 19.43617245257468 -64.013343461065 22.29978423360963 -65.1259765625 25.5400390625 C-68.87794695882201 36.47699079942973 -64.75788515804851 45.09577938112514 -60.6484375 55.33349609375 C-58.86824135935609 59.90865379557053 -58.86824135935609 59.90865379557053 -58.90234375 62.26171875 C-58.90556640624999 62.658105468749994 -58.908789062500006 63.05449218749999 -58.912109375 63.462890625 C-58.920488281250016 63.86701171875001 -58.9288671875 64.27113281250001 -58.9375 64.6875 C-58.942011718749995 65.10322265625001 -58.94652343749999 65.5189453125 -58.951171875 65.947265625 C-58.96286889869313 66.96490668630184 -58.9808013739555 67.98247281964123 -59 69 C-56.742688132227926 67.35067470979402 -54.506194090548405 65.67657917827242 -52.2841796875 63.97998046875 C-51.398887255240794 63.30439799287768 -50.51137727083923 62.63171490257798 -49.6220703125 61.96142578125 C-35.76590669589419 51.44838172306551 -35.76590669589419 51.44838172306551 -35 46 C-35.55371523465544 40.02239235315133 -39.86091076356493 34.438692584523125 -42.913818359375 29.46484375 C-47.232804059153295 22.409804951521608 -48.284626536101825 14.997834025607403 -46.77734375 6.787109375 C-46.21783858338739 4.600311012535201 -45.46024289390812 2.7568547317332133 -44 1 C-42.311991247322936 0.17609096595523965 -40.86849096634842 -0.05169737851556988 -39 0 C-38.80259611078429 0.7683566764857943 -38.617547310451585 1.5398919209735595 -38.4375 2.3125 C-38.38529296875001 2.527128906249999 -38.38529296875001 2.527128906249999 -38.12109375 3.61328125 C-38 5 -38 5 -38.453125 6.31640625 C-40.49210896874081 12.593564039480654 -39.58744214218487 20.072775346974822 -36.713134765625 25.901123046875 C-36.163239027544876 26.947636593129232 -35.58905843113723 27.975077863944094 -35 29 C-34.80792968750001 29.339345703125005 -34.615859375000014 29.678691406249996 -34.41796875 30.0283203125 C-33.545225776795974 31.56452605614993 -32.659774217246365 33.08429040809533 -31.734375 34.58984375 C-31 36 -31 36 -31 38 C-30.340000000000003 38 -29.680000000000007 38 -29 38 C-28.97949584960938 37.79338745117187 -28.97949584960938 37.79338745117187 -28.875732421875 36.747802734375 C-28.300168666489213 31.89507659466514 -27.04571878162031 27.61103441341922 -25.3125 23.0625 C-25.18028045654296 22.712056274414067 -25.04806091308592 22.36161254882812 -24.911834716796875 22.00054931640625 C-21.304581474820907 12.54105023535466 -15.393251752699143 3.815719897746064 -5.94580078125 -0.66943359375 C-3.8766742267772827 -1.392613086459363 -2.0181603821914393 -0.5606001061642871 0 0 Z " transform="translate(211,75)" />
  </g>
</svg>