<svg xmlns="http://www.w3.org/2000/svg" viewBox="0 0 130 128" width="130" height="128">
  <g fill="#000000" transform="scale(0.50000000, 0.50000000)">
    <path d="M0 0 C0.48662109375000284 -0.006123046874996874 0.48662109375000284 -0.006123046874996874 2.94921875 -0.037109375 C12.323163645217676 -0.05578257200242831 21.246804028405393 1.3576638197946735 30.125 4.375 C30.74858398437499 4.584230957031252 31.372167968750006 4.793461914062497 32.0146484375 5.009033203125 C39.69011375971925 7.706316729989851 47.066342599036716 11.540984752070045 53.75 16.1875 C53.75 16.847499999999997 53.75 17.5075 53.75 18.1875 C54.30171874999999 18.432421875000003 54.85343750000001 18.67734375 55.421875 18.9296875 C58.226394913895405 20.44488114475557 60.53103122758293 22.29834126460713 63 24.3125 C63.89203125 25.036953124999997 64.7840625 25.761406249999993 65.703125 26.5078125 C66.040859375 26.784960937500003 66.040859375 26.784960937500003 67.75 28.1875 C67.75 28.847499999999997 67.75 29.507499999999993 67.75 30.1875 C68.41 30.1875 69.07 30.1875 69.75 30.1875 C87.92252355860825 54.02031778178133 96.34341256008523 79.07528450321128 92.2890625 109.4140625 C91.63331282783301 112.76995788108985 90.80341387485208 115.9351347285936 89.75 119.1875 C89.5619580078125 119.77080078124999 89.37391601562501 120.3541015625 89.18017578125 120.955078125 C81.3255555937485 144.52518739091542 65.12895096658136 163.68610099124086 43.174072265625 175.383544921875 C20.58898164829418 186.65227634334371 -6.015000131533299 188.9195204128302 -30.08203125 180.96875 C-43.8199712536975 176.05944896264842 -55.295843154713566 167.6438435623595 -66.25 158.1875 C-66.25 157.5275 -66.25 156.8675 -66.25 156.1875 C-66.91 156.1875 -67.57 156.1875 -68.25 156.1875 C-87.22481911809554 133.12998414542898 -94.70908924331567 108.83740441457604 -92.0478515625 78.91455078125 C-91.4861989351781 74.56439222435102 -90.5020777356257 70.38739180178372 -89.25 66.1875 C-89.0619580078125 65.5479638671875 -88.873916015625 64.908427734375 -88.68017578125 64.24951171875 C-81.33286988162234 40.26701680532733 -64.06660751927188 21.46051036766417 -42.130859375 9.705810546875 C-28.598035929897748 2.835629608520385 -15.135573233920681 0.009866736136842746 0 0 Z M-57.25 31.1875 C-57.885507812499995 31.728906249999994 -58.521015625000004 32.2703125 -59.17578125 32.828125 C-72.10279147947232 44.5961618985541 -81.60729527425788 64.96699536561653 -83.25 82.1875 C-84.35262496482555 105.73135457044359 -80.33532860047076 127.98406515252069 -64.25 146.1875 C-61.00725419657418 149.61298752986698 -57.64585053534434 152.9146380152315 -54.25 156.1875 C-53.59 156.1875 -52.93000000000001 156.1875 -52.25 156.1875 C-52.25 156.8475 -52.25 157.5075 -52.25 158.1875 C-32.11520324556487 173.34319300171148 -8.47919681897929 177.89460759983058 16.34814453125 174.87109375 C24.963590742036956 173.35126337584276 33.0223686202641 170.25722436299571 40.75 166.1875 C41.531171874999984 165.81625 42.31234375 165.445 43.1171875 165.0625 C49.236676325710334 161.85227635372573 53.861716533484184 157.45865928132176 58.75 152.625 C59.40967773437501 151.9754736328125 60.06935546874999 151.325947265625 60.7490234375 150.65673828125 C63.957907549727736 147.3885541242622 66.49734861399881 144.71966230629593 67.75 140.1875 C68.41 140.1875 69.07 140.1875 69.75 140.1875 C74.13817391084274 132.60891676936342 78.08731311991815 125.14092193341821 80.6875 116.75 C80.88625732421875 116.11320312499998 81.0850146484375 115.47640625 81.289794921875 114.8203125 C87.37990607638446 94.01716316795174 84.02485806015343 70.52471345369938 73.88720703125 51.57470703125 C62.04608293885582 30.93619721183657 43.28159473039119 17.682892844931203 20.5625 11.25 C-6.690622187071128 4.425420480517843 -36.55757709432763 12.63340378569282 -57.25 31.1875 Z " transform="translate(125.25,42.8125)" />
    <path d="M0 0 C4 4 4 4 5 10 C3.477939912626752 12.629012878190153 2.156340361873802 14.843659638126198 0 17 C-2.6400000000000006 17 -5.280000000000001 17 -8 17 C-12 13 -12 13 -13 8 C-9.936011438671244 0.340028596678124 -8.298172914832762 0 0 0 Z " transform="translate(122,74)" />
    <path d="M0 0 C2 2 2 2 2 8 C1.0100000000000051 8.989999999999995 0.01999999999999602 9.980000000000004 -1 11 C-1.9899999999999949 10.835000000000008 -1.9899999999999949 10.835000000000008 -7 10 C-9 7 -9 7 -8 1 C-5 -1 -5 -1 0 0 Z " transform="translate(85,91)" />
    <path d="M0 0 C5.384615384615387 6.461538461538453 5.384615384615387 6.461538461538453 6 12 C4.943240837923497 17.178119894174813 2.8110943063948923 19.590073515330886 -1 23 C-7.808052029888131 23.851006503736016 -10.483596641601679 24.16573040696092 -16 21 C-19 17 -19 17 -19 7 C-13.157702795392623 -1.7634458069110508 -10.185473450413326 -2.5463683626033315 0 0 Z " transform="translate(173,94)" />
    <path d="M0 0 C2 2 2 2 2 9 C-1 11 -1 11 -6 11 C-6.990000000000009 10.010000000000005 -7.97999999999999 9.019999999999996 -9 8 C-8.669999999999987 5.689999999999998 -8.340000000000003 3.3799999999999955 -8 1 C-5 -1 -5 -1 0 0 Z " transform="translate(137,105)" />
    <path d="M0 0 C7 5 7 5 10 12 C9.535575113729891 16.73713383995505 9.08342760350024 20.197105955683043 6 24 C2.008243903296645 27.23999301217833 -1.8629651334054529 28.676648565303367 -7.01171875 28.38671875 C-11.861054991996085 27.44352761452336 -15.115805949183695 25.254985104384446 -17.9375 21.25 C-19 19 -19 19 -19 9 C-13.816571115190314 0.36095185865052315 -10.758045260137408 0 0 0 Z " transform="translate(105,109)" />
    <path d="M0 0 C1.980000000000004 0 3.9599999999999937 0 6 0 C6.989999999999995 1.3199999999999932 7.980000000000004 2.6400000000000006 9 4 C8.670000000000002 5.97999999999999 8.340000000000003 7.960000000000008 8 10 C5 12 5 12 0 12 C-0.990000000000002 11.009999999999991 -1.9799999999999969 10.02000000000001 -3 9 C-3 7.02000000000001 -3 5.039999999999992 -3 3 C-2.009999999999998 2.010000000000005 -1.0200000000000031 1.019999999999996 0 0 Z " transform="translate(64,123)" />
    <path d="M0 0 C2.3100000000000023 0.3300000000000125 4.6200000000000045 0.6599999999999966 7 1 C7.990000000000009 2.6500000000000057 8.97999999999999 4.300000000000011 10 6 C8 12 8 12 5 14 C-2 13 -2 13 -5 9 C-4 3 -4 3 0 0 Z " transform="translate(147,130)" />
    <path d="M0 0 C0.3300000000000125 2.3100000000000023 0.6599999999999966 4.6200000000000045 1 7 C-2 10 -2 10 -6 11 C-7.319999999999993 10.009999999999991 -8.639999999999986 9.02000000000001 -10 8 C-10 5.689999999999998 -10 3.3799999999999955 -10 1 C-7 -1 -7 -1 0 0 Z " transform="translate(189,136)" />
    <path d="M0 0 C3.8963595386502163 4.776182660280909 5.134695294592632 6.804016448739276 5 13 C1 19.571428571428584 1 19.571428571428584 -3 21 C-9.868847541921838 20.018736065439725 -10.83992256047621 19.5010673935831 -15 15 C-16.354396676792774 12.291206646414452 -16.065014507026333 9.990667323211284 -16 7 C-10.957008431060771 -0.5644873534088504 -8.4379634603646 -1.6545026392871875 0 0 Z " transform="translate(125,148)" />
    <path d="M0 0 C0.9100781250000125 0.009023437499990905 1.8201562499999966 0.018046875000010232 2.7578125 0.02734375 C3.4564843750000023 0.03894531250000455 4.1551562500000045 0.050546875000009095 4.875 0.0625 C10.875 7.0625 10.875 7.0625 10.875 14.0625 C6.66447368421052 20.979793233082717 6.66447368421052 20.979793233082717 2.875 22.0625 C-1.3207573669175758 22.31623910642267 -3.7703801757855615 22.367672845125185 -7.0625 19.6875 C-7.607773437499986 19.246640624999998 -8.153046875000001 18.805781249999995 -8.71484375 18.3515625 C-10.63715942774553 16.59432102172846 -11.105181852876228 15.501670140263002 -11.22265625 12.8984375 C-11.211054687499995 12.086328124999994 -11.199453124999991 11.274218749999989 -11.1875 10.4375 C-11.178476562500009 9.620234374999995 -11.16945312499999 8.802968749999991 -11.16015625 7.9609375 C-11.103933506731153 4.924909363481731 -9.013633530234813 3.3399698452831785 -7.125 1.0625 C-4.600245381915073 -0.19987730904244927 -2.8129953431152614 -0.03606404286045972 0 0 Z " transform="translate(162.125,156.9375)" />
    <path d="M0 0 C3 5 3 5 2 11 C0.01999999999999602 12.650000000000006 -1.960000000000008 14.300000000000011 -4 16 C-12 15 -12 15 -15 12 C-15 3 -15 3 -11.38671875 -0.80859375 C-7.054741522317144 -4.530433339981045 -5.527046828567066 -2.368734355100173 0 0 Z " transform="translate(92,163)" />
    <path d="M0 0 C1.6500000000000057 0.3300000000000125 3.3000000000000114 0.6599999999999966 5 1 C7 4 7 4 6 10 C5.340000000000003 10.659999999999997 4.680000000000007 11.319999999999993 4 12 C1.6899999999999977 11.669999999999987 -0.6200000000000045 11.340000000000003 -3 11 C-4.354396676792774 8.291206646414452 -4.0650145070263335 5.990667323211284 -4 3 C-2.680000000000007 2.009999999999991 -1.3599999999999994 1.0200000000000102 0 0 Z " transform="translate(128,186)" />
  </g>
</svg>