<svg xmlns="http://www.w3.org/2000/svg" viewBox="0 0 116 123" width="116" height="123">
  <g fill="#000000" transform="scale(0.50000000, 0.50000000)">
    <path d="M0 0 C0.6599999999999966 0.3299999999999983 0.6599999999999966 0.3299999999999983 4 2 C4 3.6499999999999986 4 5.299999999999997 4 7 C2.680000000000007 7.329999999999998 1.3600000000000136 7.659999999999997 0 8 C-0.05156249999998863 8.268124999999998 -0.05156249999998863 8.268124999999998 -0.3125 9.625 C-1.1897619198898326 12.655541177801197 -2.538638073683444 15.20435109748135 -4 18 C-4.659999999999997 18 -5.319999999999993 18 -6 18 C-6.103125000000006 18.948750000000004 -6.206250000000011 19.897500000000008 -6.3125 20.875 C-6.991091902586106 25.734915537638727 -8.508547604063608 30.338038737230292 -10 35 C-10.659999999999997 35 -11.319999999999993 35 -12 35 C-12.037382812499999 35.7386328125 -12.074765624999998 36.477265625 -12.11328125 37.23828125 C-12.583204803521028 44.48984667394197 -13.830565029914396 51.06872349180199 -16 58 C-16.659999999999997 58 -17.319999999999993 58 -18 58 C-18.060585937500008 58.36802734375 -18.060585937500008 58.36802734375 -18.3671875 60.23046875 C-18.534765625000006 61.20628906249999 -18.70234375000001 62.18210937500001 -18.875 63.1875 C-19.037421875000007 64.1504296875 -19.199843750000014 65.113359375 -19.3671875 66.10546875 C-19.980395166013693 68.91032603713677 -20.856663433257438 71.3722474705539 -22 74 C-21.340000000000003 74 -20.680000000000007 74 -20 74 C-19.86722656249998 73.2845703125 -19.734453125000016 72.569140625 -19.59765625 71.83203125 C-19.01226464563345 69.05811678486437 -18.268415557818997 66.3970072537576 -17.4375 63.6875 C-17.168085937499995 62.8044921875 -16.89867187499999 61.921484375000006 -16.62109375 61.01171875 C-16.416132812499995 60.3478515625 -16.21117187499999 59.683984374999994 -16 59 C-15.340000000000003 59 -14.680000000000007 59 -14 59 C-13.962617187500001 58.394140625000006 -13.925234375000002 57.78828125 -13.88671875 57.1640625 C-13.385923901550854 50.781383058981476 -12.04935313963125 45.0578363246962 -10 39 C-9.340000000000003 39 -8.680000000000007 39 -8 39 C-7.981308593749986 38.751855468749994 -7.981308593749986 38.751855468749994 -7.88671875 37.49609375 C-7.398215228202417 32.448224024758275 -6.190789464634122 28.572082360975543 -4 24 C-3.3400000000000034 24 -2.680000000000007 24 -2 24 C-1.9484375000000114 23.5565625 -1.9484375000000114 23.5565625 -1.6875 21.3125 C-0.9880929768955298 17.94262979776937 0.08742511154503063 15.82728461771606 2 13 C3.9799999999999898 12.670000000000002 5.960000000000008 12.340000000000003 8 12 C8.329999999999984 12.329999999999998 8.329999999999984 12.329999999999998 10 14 C9.669999999999987 15.980000000000004 9.340000000000003 17.960000000000008 9 20 C8.009999999999991 20.33 7.02000000000001 20.659999999999997 6 21 C5.948437500000011 21.350625000000008 5.948437500000011 21.350625000000008 5.6875 23.125 C4.889080228153404 26.463846318631283 3.6154499865803302 28.97981089465418 2 32 C1.3400000000000034 32 0.6800000000000068 32 0 32 C0.3300000000000125 33.650000000000006 0.6599999999999966 35.3 1 37 C1.3300000000000125 36.00999999999999 1.6599999999999966 35.02000000000001 2 34 C3.9355859935657804 33.327796492157006 5.8735437186248305 32.66241922780077 7.8125 32 C8.891445312499997 31.628749999999997 9.970390624999993 31.257499999999993 11.08203125 30.875 C14 30 14 30 17 30 C17.330000000000013 29.010000000000005 17.659999999999997 28.019999999999996 18 27 C20.310000000000002 27.33 22.620000000000005 27.659999999999997 25 28 C25.330000000000013 28.989999999999995 25.659999999999997 29.980000000000004 26 31 C25.340000000000003 31 24.680000000000007 31 24 31 C23.669999999999987 32.31999999999999 23.340000000000003 33.64 23 35 C22.17500000000001 35.16499999999999 22.17500000000001 35.16499999999999 18 36 C18 36.66 18 37.31999999999999 18 38 C17.00999999999999 38.16499999999999 17.00999999999999 38.16499999999999 12 39 C12 39.66 12 40.31999999999999 12 41 C11.009999999999991 41.33 11.009999999999991 41.33 6 43 C6 43.99000000000001 6 44.97999999999999 6 46 C9.794316939552232 44.549231758406506 13.382464428452124 42.845681414055036 17 41 C19.89677193650155 39.52205513443799 22.734802557255534 38.10427848526585 25.76171875 36.9140625 C28.12008282485695 35.95096094063433 29.349330138175674 34.91130194527028 31 33 C32.650000000000006 33.33 34.30000000000001 33.66 36 34 C36.33000000000001 35.650000000000006 36.66 37.3 37 39 C36.17500000000001 39.825 36.17500000000001 39.825 32 44 C30.680000000000007 44 29.360000000000014 44 28 44 C27.669999999999987 44.99000000000001 27.340000000000003 45.97999999999999 27 47 C24.087708674163906 48.17780435918877 21.169523219964304 49.340250745443626 18.25 50.5 C17.42500000000001 50.833867187500005 16.599999999999994 51.16773437500001 15.75 51.51171875 C14.950781250000006 51.827539062499994 14.151562500000011 52.143359375 13.328125 52.46875 C12.594970703125 52.76201171875 11.86181640625 53.055273437500006 11.1064453125 53.357421875 C9 54 9 54 5 54 C4.670000000000016 55.650000000000006 4.670000000000016 55.650000000000006 3 64 C2.009999999999991 64.33 1.0200000000000102 64.66 0 65 C0.08250000000001023 65.94875 0.16499999999999204 66.8975 0.25 67.875 C0.2735852636112952 73.66518221657005 -2.3990247603462365 79.05931978549711 -5.125 84.06640625 C-6.069160338007492 86.15283199693619 -6.212271190411116 87.48094904931071 -6.125 89.75 C-6.083750000000009 90.82249999999999 -6.042500000000018 91.89499999999998 -6 93 C-5.5049999999999955 93.16499999999999 -5.5049999999999955 93.16499999999999 -3 94 C-0.9913429201736221 100.50422292515208 0.3861434884379946 106.17813170426211 0 113 C1.3199999999999932 113.32999999999998 2.6399999999999864 113.66 4 114 C4 114.66 4 115.32 4 116 C5.0106250000000045 116.103125 6.021250000000009 116.20625000000001 7.0625 116.3125 C11.085680509864716 116.87081892789959 14.33473964199112 118.2795716686897 18 120 C18 120.66 18 121.32 18 122 C18.72187500000001 122.103125 19.443749999999994 122.20625000000001 20.1875 122.3125 C23.244919928032004 123.05986931574114 25.3832963472409 124.28045188532974 28 126 C28 126.66 28 127.32 28 128 C29.650000000000006 128.33 31.30000000000001 128.66 33 129 C33.99000000000001 129.99 34.97999999999999 130.98 36 132 C35.66999999999999 133.98 35.34 135.96 35 138 C33.349999999999994 138.33 31.69999999999999 138.66 30 139 C29.44312500000001 138.401875 28.88624999999999 137.80375 28.3125 137.1875 C26.000731354191004 135.00069182153203 23.76173924876241 133.55790419160957 21 132 C20.56171875000001 131.68546875 20.123437499999994 131.3709375 19.671875 131.046875 C17.48630663936919 129.6783415405396 15.213573916435223 128.81048334406566 12.8125 127.875 C11.911445312500007 127.521796875 11.010390625000014 127.16859375000001 10.08203125 126.8046875 C9.394960937500002 126.53914062500002 8.707890625000005 126.27359375 8 126 C8 125.34 8 124.68 8 124 C7.40574218750001 123.951015625 6.811484374999992 123.90203125 6.19921875 123.8515625 C0.5659460981235327 123.34342904151038 -4.913050005551611 122.52424246564169 -10.45703125 121.40234375 C-13 121 -13 121 -18 121 C-13.050000000000011 122.32 -8.099999999999994 123.63999999999999 -3 125 C-2.6699999999999875 125.99000000000001 -2.3400000000000034 126.98000000000002 -2 128 C-1.2162500000000023 127.91750000000002 -0.43250000000000455 127.83499999999998 0.375 127.75 C5.253053015384438 127.70309564408285 9.62349250183351 130.0625737557524 14 132 C14 132.66 14 133.32 14 134 C15.97999999999999 134.33 17.960000000000008 134.66 20 135 C24.87500000000003 139.62500000000003 24.87500000000003 139.62500000000003 26 143 C25.340000000000003 143.66 24.680000000000007 144.32 24 145 C21.689999999999998 145 19.379999999999995 145 17 145 C16.669999999999987 144.01 16.340000000000003 143.02 16 142 C15.298750000000013 141.87625 14.597499999999997 141.7525 13.875 141.625 C10.823436127476953 140.96161654945152 7.9465906227330265 140.0278804497906 5 139 C5 138.01 5 137.02 5 136 C3.680000000000007 136 2.3600000000000136 136 1 136 C0.6699999999999875 136.99 0.3400000000000034 137.98 0 139 C0.9900000000000091 139.33 1.9799999999999898 139.66 3 140 C6 145.75000000000006 6 145.75000000000006 6 148 C6.990000000000009 148.33 7.97999999999999 148.66 9 149 C10.35439667679276 151.70879335358552 10.06501450702632 154.00933267678877 10 157 C8.349999999999994 157.33 6.699999999999989 157.66 5 158 C-0.4285714285714448 153.85714285714283 -0.4285714285714448 153.85714285714283 -2 151 C-2 149.68 -2 148.36 -2 147 C-2.990000000000009 146.67 -3.9799999999999898 146.34 -5 146 C-5.508335911432937 144.7533666933907 -6.006311450735041 143.50250613424632 -6.5 142.25 C-6.639218749999998 141.901953125 -6.639218749999998 141.901953125 -7.34375 140.140625 C-8.01013160945405 137.96695165487608 -8.12203834104406 136.2577093093152 -8 134 C-8.659999999999997 133.67000000000002 -8.659999999999997 133.67000000000002 -12 132 C-12 132.66 -12 133.32 -12 134 C-11.340000000000003 134.33 -10.680000000000007 134.66 -10 135 C-9.32389576725302 136.89248818719798 -8.659495613175466 138.78916019679707 -8 140.6875 C-7.628749999999997 141.7432421875 -7.257499999999993 142.798984375 -6.875 143.88671875 C-6.060814296446921 146.78362056130268 -5.8229020395398265 149.01700622849899 -6 152 C-5.009999999999991 152 -4.019999999999982 152 -3 152 C0 157.75000000000006 0 157.75000000000006 0 160 C0.9900000000000091 160 1.9799999999999898 160 3 160 C4.35439667679276 162.70879335358552 4.065014507026319 165.00933267678874 4 168 C3.6699999999999875 168.33 3.3400000000000034 168.66 3 169 C-3 169 -3 169 -4.375 167.6875 C-6.937962022713009 165.02596251487495 -8 163.73617367452584 -8 160 C-8.990000000000009 159.67 -9.980000000000018 159.34 -11 159 C-12.983979680037521 154.9021372084939 -14.423908406436908 151.6629924708062 -14 147 C-14.990000000000009 146.67 -15.980000000000018 146.34 -17 146 C-17.48828125 144.27473958333334 -17.9765625 142.54947916666666 -18.46484375 140.82421875 C-18.939881166214974 139.2049306231942 -19.466356431274733 137.6009307061758 -20 136 C-20.484687500000007 135.9626171875 -20.969375000000014 135.925234375 -21.46875 135.88671875 C-26.70279491569599 135.3733797294221 -31.16501844683009 134.04457996530323 -36 132 C-36 131.34 -36 130.68 -36 130 C-37.99866686461493 129.65876419384622 -39.999025421681964 129.32743220372478 -42 129 C-42.29390624999999 128.940703125 -42.29390624999999 128.940703125 -43.78125 128.640625 C-47.95391274075703 127.87197660038686 -50.18121428486248 128.3354010985298 -54 130 C-57.31249999999997 130.125 -57.31249999999997 130.125 -60 130 C-60.33 130.99 -60.66 131.98 -61 133 C-62.74816858464071 133.50636607279247 -64.49862262711996 134.00484618777213 -66.25 134.5 C-66.73726562499999 134.63921875 -66.73726562499999 134.63921875 -69.203125 135.34375 C-71.61359070441475 135.9093341317621 -73.5463023551794 136.14021129398975 -76 136 C-76.012890625 136.24234375 -76.012890625 136.24234375 -76.078125 137.46875 C-76.48556615007224 142.28396359176293 -77.66161829823659 145.77691138212634 -79.96875 150.00390625 C-80.97751259517622 151.95647324293577 -81.68223810144485 153.85509072160505 -82.375 155.9375 C-84.10444799269776 160.79734547668698 -87.01698522960983 164.82957158314383 -90 169 C-95 170 -95 170 -97 169 C-97 167.02 -97 165.04 -97 163 C-96.00999999999999 162.67 -95.02000000000001 162.34 -94 162 C-93.91749999999999 161.29875 -93.83500000000001 160.5975 -93.75 159.875 C-92.9891001175148 156.9582171171401 -91.79212067920304 155.24013860867285 -90.0546875 152.82421875 C-87.95285953641097 149.1888348277923 -87.05376928113853 145.039448911031 -86 141 C-85.34 141 -84.68 141 -84 141 C-84.04124999999999 140.29875 -84.08250000000001 139.5975 -84.125 138.875 C-83.981445004032 135.57323509273598 -83.11807774217155 133.10577150603206 -82 130 C-81.30210490574515 127.67547249375116 -80.65457883355458 125.33705099167537 -80 123 C-79.66735320066651 121.833137399213 -79.33402259063874 120.6664695157462 -79 119.5 C-78.837578125 118.925078125 -78.67515625 118.35015625 -78.5078125 117.7578125 C-78.162088587807 116.56107588087042 -77.8021122517018 115.36838568008932 -77.4296875 114.1796875 C-76.34422031154595 110.64809706995936 -75.9121797095647 107.67590644250637 -76 104 C-76.1817578125 104.7734375 -76.36351562499999 105.546875 -76.55078125 106.34375 C-77.82478090805992 111.62268191647394 -79.16768067832167 116.7070653381046 -81.1875 121.74609375 C-82.27508843912135 124.76310591044722 -83.09203135249828 127.84642094577157 -83.9375 130.9375 C-86.65737453299116 140.70356156261428 -91.04645554856364 149.16617906160516 -96 158 C-96.66 158 -97.32 158 -98 158 C-98 158.66 -98 159.32 -98 160 C-99.97999999999999 159.67 -101.96000000000001 159.34 -104 159 C-103.125 152.24999999999997 -103.125 152.24999999999997 -102 150 C-101.34 150 -100.68 150 -100 150 C-100 148.35 -100 146.7 -100 145 C-101.32 144.67 -102.64 144.34 -104 144 C-103.67 141.69 -103.34 139.38 -103 137 C-103.66 136.67 -104.32 136.34 -105 136 C-105.33 136.99 -105.66 137.98 -106 139 C-107.32 139.33 -108.64 139.66 -110 140 C-110.33 140.66 -110.66 141.32 -111 142 C-117.75000000000003 142.125 -117.75000000000003 142.125 -120 141 C-120 140.34 -120 139.68 -120 139 C-119.34 139 -118.68 139 -118 139 C-117.83500000000001 138.34 -117.83500000000001 138.34 -117 135 C-116.67 134.67 -116.34 134.34 -116 134 C-114.35 134 -112.7 134 -111 134 C-111 133.01 -111 132.02 -111 131 C-103.7015945330296 127.55580865603645 -103.7015945330296 127.55580865603645 -100 128 C-100 126.35 -100 124.69999999999999 -100 123 C-100.99000000000001 123.16499999999999 -100.99000000000001 123.16499999999999 -106 124 C-106 124.99000000000001 -106 125.98000000000002 -106 127 C-107.24663330660931 127.50833591143294 -108.49749386575368 128.00631145073504 -109.75 128.5 C-110.098046875 128.63921875 -110.098046875 128.63921875 -111.859375 129.34375 C-114.03304834512404 130.01013160945408 -115.74229069068473 130.12203834104406 -118 130 C-118.33 130.99 -118.66 131.98 -119 133 C-124.09242082795558 136.05545249677334 -124.62701627228583 136.1074596745543 -130 136 C-130.66 135.67 -131.32 135.34 -132 135 C-131.34 133.02 -130.68 131.04 -130 129 C-128.68 128.67 -127.36 128.34 -126 128 C-126 127.34 -126 126.68 -126 126 C-121.17304683883337 123.25574236522505 -117.60384690047964 121.43961530995205 -112 122 C-112 121.00999999999999 -112 120.01999999999998 -112 119 C-107.90213720849388 117.01602031996245 -104.66299247080622 115.57609159356309 -100 116 C-99.87625 115.44312500000001 -99.7525 114.88625000000002 -99.625 114.3125 C-99 112.00000000000003 -99 112.00000000000003 -98 109.5625 C-97.01632356141383 107.04182912612293 -96.45620010938842 104.66116730476574 -96 102 C-95.34 102 -94.68 102 -94 102 C-93.9626171875 101.5153125 -93.925234375 101.03062499999999 -93.88671875 100.53125 C-93.37337972942211 95.29720508430398 -92.04457996530323 90.83498155316994 -90 86 C-89.34 86 -88.68 86 -88 86 C-88 83.36000000000001 -88 80.72 -88 78 C-88.66 78 -89.32 78 -90 78 C-90.67595315150868 76.58774073702654 -91.34040058966957 75.1699709527947 -92 73.75 C-92.37125 72.96109375 -92.7425 72.1721875 -93.125 71.359375 C-93.98705037747283 69.03491773217148 -94.17978376132946 67.44955374811386 -94 65 C-94.66 65 -95.32 65 -96 65 C-96.66 62.36 -97.32 59.72 -98 57 C-98.33 56.83500000000001 -98.33 56.83500000000001 -100 56 C-100 55.34 -100 54.68000000000001 -100 54 C-100.2784375 53.987109375 -100.2784375 53.987109375 -101.6875 53.921875 C-107.64505021512723 53.47908410563244 -111.8414579352625 51.919929470606135 -117 49 C-118.16317383851447 48.40973267896281 -119.32952094441923 47.82564543717086 -120.5 47.25 C-121.325 46.837500000000006 -122.15 46.425 -123 46 C-123 45.34 -123 44.68000000000001 -123 44 C-123.29906249999999 43.938125 -123.29906249999999 43.938125 -124.8125 43.625 C-126.91814064447665 43.023388387292385 -128.26396728399618 42.30202453700288 -130 41 C-130 40.00999999999999 -130 39.02000000000001 -130 38 C-130.66 38 -131.32 38 -132 38 C-132 36.68000000000001 -132 35.36 -132 34 C-130.35 33.34 -128.7 32.68000000000001 -127 32 C-126.00999999999999 32.66 -125.02 33.31999999999999 -124 34 C-124 34.66 -124 35.31999999999999 -124 36 C-123.278125 36.268125 -122.55625 36.536249999999995 -121.8125 36.8125 C-119 38 -119 38 -116.75 39.4375 C-113.71977063013864 41.15922123287578 -110.77554262962991 42.133043927404856 -107.46484375 43.1796875 C-104.88446201320613 44.03845162793456 -102.39009962837382 45.028897412997054 -99.875 46.0625 C-96.51321887445218 47.43211453263059 -93.20696148304789 48.57454764236576 -89.703125 49.5078125 C-87.12137694021774 50.253914003515064 -84.63991174249892 51.23961234994158 -82.1328125 52.203125 C-78.4584197038343 53.57597505571027 -74.72839405535518 54.78309360693268 -71 56 C-71 56.66 -71 57.31999999999999 -71 58 C-69.35 58 -67.7 58 -66 58 C-66 56.68000000000001 -66 55.36 -66 54 C-66.5710546875 53.98582031250001 -67.142109375 53.97164062499999 -67.73046875 53.95703125 C-73.62987863793124 53.61000713894522 -78.49766190811272 52.25485412556034 -83.95849609375 50.01123046875 C-87.85838179818585 48.41265440648638 -91.76521064683575 47.10962708712103 -95.8125 45.9375 C-100.25526651887645 44.61378066325395 -104.26574068072337 43.077334464187004 -108.34375 40.8828125 C-110.49367181832758 39.7368636062688 -112.72098543849002 38.85463046056624 -115 38 C-115 37.34 -115 36.68000000000001 -115 36 C-116.65 35.67 -118.3 35.34 -120 35 C-120.33 34.67 -120.66 34.34 -121 34 C-121 29 -121 29 -119 27 C-117.35 27 -115.7 27 -114 27 C-113.67 27.989999999999995 -113.34 28.980000000000004 -113 30 C-112.31937500000001 30.103125000000006 -111.63875 30.206249999999997 -110.9375 30.3125 C-107.37084011270015 31.14725018638933 -104.33777805978751 32.494727541664446 -101 34 C-101 34.66 -101 35.31999999999999 -101 36 C-98.69 36.33 -96.38 36.66 -94 37 C-94 36.34 -94 35.68000000000001 -94 35 C-94.99000000000001 34.67 -95.97999999999999 34.34 -97 34 C-100.42857142857143 27.714285714285722 -100.42857142857143 27.714285714285722 -100 24 C-100.66 24 -101.32 24 -102 24 C-103.60355101477572 20.49223215517813 -104.22036864061225 17.85645121071441 -104 14 C-102.35 13.340000000000003 -100.7 12.680000000000007 -99 12 C-95.05896411147091 16.378928765032327 -92.46942461957201 20.67294427044294 -90 26 C-89.33705771179099 27.335189029585862 -88.67139476556486 28.669041213637954 -88 30 C-87.00999999999999 30.33 -86.02000000000001 30.659999999999997 -85 31 C-85.337734375 30.408320312499995 -85.67546875 29.816640625000005 -86.0234375 29.20703125 C-88.27931159145467 25.210352585081736 -90.43719560581911 21.32776601465477 -92 17 C-92.37125 16.071875000000006 -92.7425 15.143749999999997 -93.125 14.1875 C-93.269375 13.826562499999994 -93.269375 13.826562499999994 -94 12 C-94.99000000000001 11.670000000000002 -95.97999999999999 11.340000000000003 -97 11 C-99 8 -99 8 -99 2 C-94 1 -94 1 -91.8125 1.9375 C-87.80254908582515 4.878130670394896 -86.17364454145138 8.60726887093449 -84 13 C-83.484375 14.010625000000005 -82.96875 15.021249999999995 -82.4375 16.0625 C-81.96312499999999 17.031875 -81.48875000000001 18.00125 -81 19 C-80.6583984375 19.638085937499994 -80.316796875 20.276171875000003 -79.96484375 20.93359375 C-77.81320523054754 25.0132237743382 -76.45991308763884 28.400869123611628 -76 33 C-75.01 33.16499999999999 -75.01 33.16499999999999 -70 34 C-70 34.66 -70 35.31999999999999 -70 36 C-69.13374999999999 36.103125000000006 -68.2675 36.20625 -67.375 36.3125 C-63.71162628249053 37.05874279430748 -61.254048265499776 38.21802118794059 -58 40 C-58 40.66 -58 41.31999999999999 -58 42 C-56.019999999999996 42.33 -54.040000000000006 42.66 -52 43 C-52 43.66 -52 44.31999999999999 -52 45 C-51.54109375 44.78343749999999 -51.0821875 44.56687500000001 -50.609375 44.34375 C-44.51493848857645 41.57820738137082 -44.51493848857645 41.57820738137082 -41 42 C-41 41.34 -41 40.68000000000001 -41 40 C-39.27477300216428 39.32320341941295 -37.54461061186659 38.658979995003406 -35.8125 38 C-34.849570312500006 37.62875 -33.886640625 37.25749999999999 -32.89453125 36.875 C-30.07817642150947 36.023632278566964 -27.918355609142623 35.82927352926404 -25 36 C-25 35.34 -25 34.68000000000001 -25 34 C-23.019999999999982 33.34 -21.04000000000002 32.68000000000001 -19 32 C-18.00999999999999 28.700000000000003 -17.019999999999982 25.400000000000006 -16 22 C-15.340000000000003 22 -14.680000000000007 22 -14 22 C-13.896874999999994 21.133749999999992 -13.793749999999989 20.2675 -13.6875 19.375 C-12.941257205692523 15.711626282490514 -11.781978812059407 13.254048265499776 -10 10 C-9.340000000000003 10 -8.680000000000007 10 -8 10 C-7.670000000000016 8.68 -7.340000000000003 7.359999999999999 -7 6 C-6.340000000000003 6 -5.680000000000007 6 -5 6 C-4.670000000000016 4.68 -4.340000000000003 3.3599999999999994 -4 2 C-2.680000000000007 1.3400000000000034 -1.3600000000000136 0.6799999999999997 0 0 Z M-1 38 C0 40 0 40 0 40 Z M-82 40 C-82.66 40.66 -83.32 41.31999999999999 -84 42 C-83.3709375 42.181757812499995 -82.741875 42.36351562499999 -82.09375 42.55078125 C-69.50364963503648 46.24817518248176 -69.50364963503648 46.24817518248176 -64 49 C-62.00039988003999 49.0399920023992 -59.999527577647825 49.04346799081843 -58 49 C-59 47 -59 47 -61.19921875 46.12890625 C-62.939195459859576 45.427576725384355 -64.67254700371005 44.70925782058211 -66.39453125 43.96484375 C-71.68139888896499 41.718565577063345 -76.26848283373593 40.42455682713067 -82 40 Z M-24 41 C-24.659999999999997 41.66 -25.319999999999993 42.31999999999999 -26 43 C-27.994994809826125 43.72987614993639 -29.972294468962033 44.37510961622101 -32 45 C-33.62605793154776 45.538482479778466 -35.25102587377347 46.08026537183268 -36.875 46.625 C-37.5625 46.85416666666666 -37.5625 46.85416666666666 -41 48 C-41 48.66 -41 49.31999999999999 -41 50 C-41.68062499999999 50.103125000000006 -42.36125 50.20625 -43.0625 50.3125 C-46.62915988729985 51.14725018638933 -49.662221940212476 52.494727541664446 -53 54 C-53.27585937500001 54.46019531249999 -53.55171874999999 54.920390624999996 -53.8359375 55.39453125 C-55.47565177061803 57.65601636820138 -57.5834498691716 58.66453808559483 -60 60 C-60.33 60.989999999999995 -60.66 61.980000000000004 -61 63 C-61.989999999999995 63 -62.980000000000004 63 -64 63 C-66.24779749777062 65.05233684579056 -67.00222420244678 66.00667260734033 -68 69 C-68.21656250000001 69.1134375 -68.21656250000001 69.1134375 -69.3125 69.6875 C-71.56181374119923 71.43696624315496 -72.63367087163502 73.52759491057766 -74 76 C-74.33 76.16499999999999 -74.33 76.16499999999999 -76 77 C-76.66 78.97999999999999 -77.32 80.96000000000001 -78 83 C-78.33 83.16499999999999 -78.33 83.16499999999999 -80 84 C-80 85.32 -80 86.63999999999999 -80 88 C-80.66 88 -81.32 88 -82 88 C-84.85095465165989 95.37425700401411 -87.1889023044879 102.81875806572151 -89.336669921875 110.423583984375 C-89.53881103515624 111.13200439453124 -89.7409521484375 111.8404248046875 -89.94921875 112.5703125 C-90.12799560546875 113.2072705078125 -90.30677246093751 113.84422851562499 -90.490966796875 114.50048828125 C-91 116 -91 116 -92 117 C-92 120.95999999999998 -92 124.92000000000002 -92 129 C-90.55104766124342 126.10209532248683 -89.61573471243699 123.98434462378705 -88.81640625 120.953125 C-88.61080078124999 120.19 -88.4051953125 119.426875 -88.193359375 118.640625 C-87.98517578125 117.85171875 -87.7769921875 117.0628125 -87.5625 116.25 C-86.16587041428988 110.9630741234948 -84.64137941459255 105.82902732046642 -82.662841796875 100.728515625 C-81.89226512786844 98.71905602405474 -81.25148553431178 96.68345246988159 -80.625 94.625 C-78.31736931684887 87.65378060639685 -75.54323419271512 80.96979617277907 -70 76 C-69.690625 75.360625 -69.38125 74.72125 -69.0625 74.0625 C-67.85169670035717 71.71211712422273 -66.26208077981005 70.10843599020075 -64.35546875 68.296875 C-63.45734079208417 67.4375710172102 -62.583877877426815 66.5516702828004 -61.73828125 65.640625 C-59.053171010644505 62.760696036653414 -56.75713364306404 61.18081343067726 -53 60 C-53 59.34 -53 58.68000000000001 -53 58 C-52.00999999999999 58 -51.02000000000001 58 -50 58 C-50 57.34 -50 56.68000000000001 -50 56 C-49.566874999999996 55.8659375 -49.566874999999996 55.8659375 -47.375 55.1875 C-44.74802931803599 54.31184310601199 -42.35663349301453 53.199092058528734 -39.8984375 51.91796875 C-37.30998348848446 50.66635004072808 -34.659025816926246 49.59315505806967 -32 48.5 C-27.903927642620715 46.81368165386499 -23.916454005289438 45.06701739168054 -20 43 C-20 42.34 -20 41.68000000000001 -20 41 C-21.319999999999993 41 -22.639999999999986 41 -24 41 Z M-3 41 C-3.3300000000000125 43.97 -3.6599999999999966 46.94 -4 50 C-4.659999999999997 50 -5.319999999999993 50 -6 50 C-6.67247291619455 52.602702689606716 -7.336959935205499 55.207379745418905 -8 57.8125 C-8.190781249999986 58.55048828125 -8.381562500000001 59.288476562499994 -8.578125 60.048828125 C-8.758593749999989 60.76103515625 -8.939062500000006 61.473242187500006 -9.125 62.20703125 C-9.208789062499989 62.534332275390625 -9.208789062499989 62.534332275390625 -9.6328125 64.190673828125 C-10 66 -10 66 -10 69 C-10.659999999999997 69 -11.319999999999993 69 -12 69 C-12.670337551576608 70.95714624433526 -13.336395026668754 72.9155718017179 -14 74.875 C-14.371250000000003 75.965546875 -14.742500000000007 77.05609375 -15.125 78.1796875 C-16 81 -16 81 -16 83 C-16.659999999999997 83 -17.319999999999993 83 -18 83 C-18.329999999999984 84.97999999999999 -18.659999999999997 86.96000000000001 -19 89 C-18.00999999999999 88.00999999999999 -17.019999999999982 87.02000000000001 -16 86 C-16 85.34 -16 84.68 -16 84 C-15.340000000000003 84 -14.680000000000007 84 -14 84 C-12.680000000000007 80.69999999999999 -11.360000000000014 77.4 -10 74 C-9.670000000000016 73.83500000000001 -9.670000000000016 73.83500000000001 -8 73 C-7.330060073646536 69.87569239132766 -6.66460636354708 66.75044614208625 -6 63.625 C-5.809218750000014 62.735546875 -5.618437499999999 61.846093749999994 -5.421875 60.9296875 C-5.241406250000011 60.07890625 -5.060937499999994 59.228125000000006 -4.875 58.3515625 C-4.791210937500011 57.95880126953125 -4.791210937500011 57.95880126953125 -4.3671875 55.97119140625 C-4 54 -4 54 -4 52 C-3.3400000000000034 52 -2.680000000000007 52 -2 52 C-1.670000000000016 48.370000000000005 -1.3400000000000034 44.74000000000001 -1 41 C-1.6599999999999966 41 -2.319999999999993 41 -3 41 Z M-31 54 C-31 54.66 -31 55.31999999999999 -31 56 C-31.680624999999992 56.103125000000006 -32.36125 56.20625 -33.0625 56.3125 C-36.629159887299835 57.14725018638933 -39.66222194021249 58.49472754166446 -43 60 C-43.33 60.66 -43.66 61.31999999999999 -44 62 C-46.64 62.99000000000001 -49.28 63.980000000000004 -52 65 C-53.31999999999999 66.98 -54.64 68.96000000000001 -56 71 C-51 70 -51 70 -49.3125 68.125 C-46.93354822495965 65.93893620671967 -45.03642903634312 65.01214301211438 -42 64 C-41.67 63.34 -41.34 62.68000000000001 -41 62 C-37.098728063911835 60.480023921004616 -33.251266968069075 59.02462500476955 -29.1875 58 C-26.16841614990622 57.052836439186265 -24.897021304115697 56.454968746502686 -23 54 C-23 53.34 -23 52.68000000000001 -23 52 C-25.883957366545246 52 -28.294778152112826 53.0590532703001 -31 54 Z M-89 59 C-87.86919451130572 63.11936285167204 -86.67146905973246 67.06010864491634 -85 71 C-84.34 71 -83.68 71 -83 71 C-82.67 71.99 -82.34 72.98 -82 74 C-81 70 -81 70 -81.9375 68.375 C-83.17827439376778 65.60150429628379 -83.59096750457947 62.99957163308392 -84 60 C-85.65 59.67 -87.3 59.34 -89 59 Z M-34 66 C-34.495000000000005 66.66 -34.495000000000005 66.66 -37 70 C-34.69 70.66 -32.379999999999995 71.32 -30 72 C-28.680000000000007 70.02 -27.360000000000014 68.04 -26 66 C-28.639999999999986 66 -31.28 66 -34 66 Z M-58 71 C-58.66 71.66 -59.31999999999999 72.32 -60 73 C-58.68000000000001 72.67 -57.36 72.34 -56 72 C-56.66 71.67 -57.31999999999999 71.34 -58 71 Z M-61 74 C-61.33 74.99 -61.66 75.98000000000002 -62 77 C-61.010000000000005 76.67000000000002 -60.019999999999996 76.34 -59 76 C-59 75.34 -59 74.68 -59 74 C-59.66 74 -60.31999999999999 74 -61 74 Z M-43 72 C-43 72.99 -43 73.98 -43 75 C-44.650000000000006 75 -46.3 75 -48 75 C-52.05465488773177 77.20109836762583 -54.86219001438151 79.68288658663187 -58 83 C-58.33 84.65 -58.66 86.30000000000001 -59 88 C-58.34 88.32999999999998 -58.34 88.32999999999998 -55 90 C-53.9247480588775 92.65228812143553 -52.90543848638967 95.28368454083099 -52 98 C-50.68000000000001 96.35 -49.36 94.69999999999999 -48 93 C-46.019999999999996 93.32999999999998 -44.03999999999999 93.66 -42 94 C-41.32880451010851 92.54374549961042 -40.663181928401855 91.08492132849574 -40 89.625 C-39.814375 89.21894531250001 -39.814375 89.21894531250001 -38.875 87.1640625 C-38 85 -38 85 -38 83 C-37.34 83 -36.68000000000001 83 -36 83 C-36 82.34 -36 81.68 -36 81 C-36.66 81 -37.31999999999999 81 -38 81 C-38 80.00999999999999 -38 79.01999999999998 -38 78 C-38.989999999999995 77.67000000000002 -39.980000000000004 77.34 -41 77 C-41.33 75.35 -41.66 73.7 -42 72 C-42.33 72 -42.66 72 -43 72 Z M-24 75 C-24.659999999999997 76.98000000000002 -25.319999999999993 78.95999999999998 -26 81 C-26.329999999999984 81.16500000000002 -26.329999999999984 81.16500000000002 -28 82 C-28 82.99000000000001 -28 83.98000000000002 -28 85 C-27.340000000000003 85 -26.680000000000007 85 -26 85 C-25.504999999999995 84.071875 -25.00999999999999 83.14375000000001 -24.5 82.1875 C-24.221562500000005 81.6654296875 -23.94312500000001 81.14335937499999 -23.65625 80.60546875 C-23 79 -23 79 -23 76 C-22.340000000000003 75.67000000000002 -21.680000000000007 75.34 -21 75 C-21.99000000000001 75 -22.980000000000018 75 -24 75 Z M-64 77 C-64 80 -64 80 -64 80 Z M-67 82 C-66.67 83.32 -66.34 84.63999999999999 -66 86 C-65.67 84.68 -65.34 83.36000000000001 -65 82 C-65.66 82 -66.32 82 -67 82 Z M-30 86 C-30.33 87.32 -30.659999999999997 88.63999999999999 -31 90 C-31.989999999999995 90.32999999999998 -32.980000000000004 90.66 -34 91 C-34.398320312500005 91.47050781249999 -34.796640624999995 91.941015625 -35.20703125 92.42578125 C-35.736835937500004 93.0483984375 -36.26664062500001 93.671015625 -36.8125 94.3125 C-37.334570312500006 94.92738281250001 -37.856640625 95.542265625 -38.39453125 96.17578125 C-42.490909090909085 100.83030303030301 -42.490909090909085 100.83030303030301 -46 102 C-46.495000000000005 102.495 -46.989999999999995 102.99000000000001 -47.5 103.5 C-49 105 -49 105 -52 106 C-52 106.66 -52 107.32 -52 108 C-52.989999999999995 108.32999999999998 -53.980000000000004 108.66 -55 109 C-54.67 109.66 -54.34 110.32 -54 111 C-53.010000000000005 110.67000000000002 -52.019999999999996 110.34 -51 110 C-50.67 109.34 -50.34 108.68 -50 108 C-49.734453125 107.87882812499998 -49.734453125 107.87882812499998 -48.390625 107.265625 C-44.260073763776006 105.30587441347035 -41.02889452546458 103.53371027970866 -38 100 C-38 99.34 -38 98.68 -38 98 C-37.34 98 -36.68000000000001 98 -36 98 C-29.29612756264237 90.88610478359908 -29.29612756264237 90.88610478359908 -29 86 C-29.33 86 -29.659999999999997 86 -30 86 Z M-70 87 C-72.49087457652783 91.44025467989741 -73.49327030716528 94.93270307165272 -74 100 C-73.34 100 -72.68 100 -72 100 C-68.55580865603645 91.7380410022779 -68.55580865603645 91.7380410022779 -69 87 C-69.33 87 -69.66 87 -70 87 Z M-20 89 C-20.659999999999997 90.32 -21.319999999999993 91.63999999999999 -22 93 C-22.99000000000001 93.32999999999998 -23.980000000000018 93.66 -25 94 C-25.329999999999984 95.65 -25.659999999999997 97.30000000000001 -26 99 C-26.659999999999997 99 -27.319999999999993 99 -28 99 C-28 99.66 -28 100.32 -28 101 C-26.680000000000007 100.34 -25.360000000000014 99.68 -24 99 C-23.670000000000016 97.68 -23.340000000000003 96.36000000000001 -23 95 C-22.00999999999999 95 -21.019999999999982 95 -20 95 C-19.670000000000016 93.01999999999998 -19.340000000000003 91.04000000000002 -19 89 C-19.329999999999984 89 -19.659999999999997 89 -20 89 Z M-13 96 C-12.670000000000016 100.62 -12.340000000000003 105.24000000000001 -12 110 C-11.340000000000003 110 -10.680000000000007 110 -10 110 C-9.670000000000016 110.99000000000001 -9.340000000000003 111.98000000000002 -9 113 C-8.340000000000003 113 -7.680000000000007 113 -7 113 C-7.329999999999984 110.03 -7.659999999999997 107.06 -8 104 C-8.659999999999997 104 -9.319999999999993 104 -10 104 C-10.329999999999984 101.36000000000001 -10.659999999999997 98.72 -11 96 C-11.659999999999997 96 -12.319999999999993 96 -13 96 Z M-54 98 C-56.31 98.66 -58.620000000000005 99.32 -61 100 C-61.989999999999995 99.67000000000002 -62.980000000000004 99.34 -64 99 C-64.99 99.99000000000001 -65.98 100.98000000000002 -67 102 C-67 103.32 -67 104.63999999999999 -67 106 C-65.88625 105.71125 -64.7725 105.42250000000001 -63.625 105.125 C-62.998515624999996 104.962578125 -62.372031250000006 104.80015624999999 -61.7265625 104.6328125 C-60 104 -60 104 -58 102 C-56.350084177231395 101.29289321881345 -54.68437744323347 100.62056011066497 -53 100 C-53.33 99.34 -53.66 98.68 -54 98 Z M-30 101 C-30.33 102.32 -30.659999999999997 103.63999999999999 -31 105 C-32.31999999999999 105.32999999999998 -33.64 105.66 -35 106 C-34.010000000000005 106.32999999999998 -33.019999999999996 106.66 -32 107 C-31.010000000000005 106.00999999999999 -30.019999999999996 105.01999999999998 -29 104 C-29.33 103.00999999999999 -29.659999999999997 102.01999999999998 -30 101 Z M-22 106 C-22 107.32 -22 108.63999999999999 -22 110 C-21.340000000000003 110.32999999999998 -21.340000000000003 110.32999999999998 -18 112 C-18.659999999999997 110.01999999999998 -19.319999999999993 108.04000000000002 -20 106 C-20.659999999999997 106 -21.319999999999993 106 -22 106 Z M-37 108 C-37 108.66 -37 109.32 -37 110 C-36.34 110 -35.68000000000001 110 -35 110 C-35 109.34 -35 108.68 -35 108 C-35.66 108 -36.31999999999999 108 -37 108 Z M-41 111 C-41.33 111.16500000000002 -41.33 111.16500000000002 -43 112 C-43 112.66 -43 113.32 -43 114 C-46.62197193803935 115.49140020978092 -50.2756661761087 116.78742619687262 -54 118 C-54 118.32999999999998 -54 118.66 -54 119 C-48.49978490181418 119.53660635104251 -45.434318588911395 117.93872001158624 -41 115 C-41 114.34 -41 113.68 -41 113 C-40.010000000000005 112.67000000000002 -39.019999999999996 112.34 -38 112 C-38.989999999999995 111.67000000000002 -39.980000000000004 111.34 -41 111 Z M-65 112 C-65 112.66 -65 113.32 -65 114 C-66.65 114 -68.3 114 -70 114 C-70 114.66 -70 115.32 -70 116 C-68.02000000000001 116 -66.04 116 -64 116 C-63.67 115.34 -63.34 114.68 -63 114 C-60.69 113.34 -58.379999999999995 112.68 -56 112 C-59.325347565198726 110.89155081160044 -61.62182575387436 111.1554564384686 -65 112 Z M-30 114 C-30 114.99000000000001 -30 115.98000000000002 -30 117 C-26.17010893978818 118.80230167539378 -23.21878191988958 119.1962224148786 -19 119 C-26.30769230769232 114 -26.30769230769232 114 -30 114 Z M-63.125 121.5 C-63.783710937500004 121.64308593750002 -64.44242187500001 121.78617187499998 -65.12109375 121.93359375 C-66.7477964279163 122.28722476693832 -68.37395147600944 122.64337316967308 -70 123 C-70.99000000000001 124.65 -71.97999999999999 126.30000000000001 -73 128 C-72.00999999999999 128 -71.02000000000001 128 -70 128 C-70 127.34 -70 126.68 -70 126 C-69.7215625 125.93941406250002 -69.7215625 125.93941406250002 -68.3125 125.6328125 C-63.18510422537851 124.50686410354595 -58.08537545487482 123.30252123367364 -53 122 C-53.33 121.34 -53.66 120.68 -54 120 C-57.11757293159636 120 -60.09276111514204 120.83350788867477 -63.125 121.5 Z M-37 121 C-36.67 121.99000000000001 -36.34 122.98000000000002 -36 124 C-34.845 124.495 -34.845 124.495 -29 127 C-29 127.32999999999998 -29 127.66 -29 128 C-25.69999999999999 128.33 -22.400000000000006 128.66 -19 129 C-19.329999999999984 128.34 -19.659999999999997 127.68 -20 127 C-21.650000000000006 126.67000000000002 -23.30000000000001 126.34 -25 126 C-25.329999999999984 125.34 -25.659999999999997 124.68 -26 124 C-29.629999999999995 123.00999999999999 -33.260000000000005 122.01999999999998 -37 121 Z M-94 132 C-94.33 133.65 -94.66 135.3 -95 137 C-94.34 136.34 -93.68 135.68 -93 135 C-93.33 134.01 -93.66 133.02 -94 132 Z " transform="translate(157,53)" />
    <path d="M0 0 C0.33 0.16499999999999204 0.33 0.16499999999999204 2 1 C2.8755703141702154 7.543113293731466 3.354885404170503 12.766479812489848 1 19 C0.6699999999999999 19 0.33999999999999997 19 0 19 C0 12.72999999999999 0 6.460000000000008 0 0 Z " transform="translate(0,227)" />
  </g>
</svg>