<svg xmlns="http://www.w3.org/2000/svg" viewBox="0 0 135 111" width="135" height="111">
  <g fill="#000000" transform="scale(0.50000000, 0.50000000)">
    <path d="M0 0 C-0.42603603631823717 5.187675077077969 -1.7550675713069666 9.339208364489632 -3.839019775390625 14.051055908203125 C-4.654585583811809 15.900915809211831 -5.438296226665926 17.764009733204723 -6.21875 19.62890625 C-6.374187774658196 20.000292205810545 -6.529625549316393 20.37167816162109 -6.6897735595703125 20.754318237304688 C-8.874754487299924 26.039516622955972 -10.478180367417167 31.491785014776973 -12 37 C-12.204355623487771 37.707051907589296 -12.408774724012602 38.41408547444355 -12.61328125 39.12109375 C-15.46153883626991 49.57919984920477 -16.333810155975385 60.18351001656329 -16.2607421875 70.986328125 C-16.249887126056336 72.89484529154907 -16.260785593565004 74.80244607546054 -16.2734375 76.7109375 C-16.278591346823816 82.28129652370728 -16.278567344485765 87.30419406627162 -14.4140625 92.5947265625 C-13.726068935396682 94.9296858536891 -14.009403466574582 97.0647784980691 -14.375 99.4375 C-14.431718750000016 99.88287109375 -14.488437500000003 100.3282421875 -14.546875 100.787109375 C-14.907500351995083 103.58195585296187 -15.643773605753239 104.8123709711072 -17.375 106.9375 C-17.596718750000008 107.21529296875 -17.818437500000016 107.4930859375 -18.046875 107.779296875 C-20.268229166666657 110.49065563725492 -20.268229166666657 110.49065563725492 -22 111 C-23.726562499999957 111.09765625 -23.726562499999957 111.09765625 -25.625 111.0625 C-26.256640625000003 111.05347656250001 -26.888281250000006 111.04445312500002 -27.5390625 111.03515625 C-30.355273891588965 110.96738645715428 -32.85387310829768 108.70925627761534 -35 107 C-38.02793887259104 103.08475303287679 -38.347762220143665 99.8686710820113 -38 95 C-37.618032195791656 92.66975616300573 -37.0864229358089 90.38724011303886 -36.520355224609375 88.0965576171875 C-35.163710607993195 82.59402297848645 -33.96392696733686 77.0849394206368 -33.08984375 71.484375 C-30.09922037226916 52.38059795317834 -25.144935768691766 34.13641422931819 -16 17 C-15.915798034667972 16.842210693359377 -15.915798034667972 16.842210693359377 -15.48968505859375 16.043701171875 C-14.267682714783604 13.765195123247395 -13.018742520068514 11.502784389636624 -11.75 9.25 C-11.58323760986329 8.952548828125 -11.416475219726578 8.65509765625 -11.244659423828125 8.3486328125 C-6.530147676371769 0 -6.530147676371769 0 0 0 Z M-20 40 C-23.395395364349383 53.44719456672439 -26.538904856306914 66.85507247923772 -28.7060546875 80.560791015625 C-29.381922616697224 84.78461360744531 -30.1283051063634 88.71765213964618 -31.607421875 92.750244140625 C-32.20290920574705 94.64595287575818 -32.224575507553084 96.40646881221969 -32.125 98.375 C-32.115976562499995 98.7294921875 -32.106953125000004 99.083984375 -32.09765625 99.44921875 C-32.029513888888886 101.97048611111111 -32.029513888888886 101.97048611111111 -29 105 C-23 105 -23 105 -21.5625 103.625 C-21.29566406250001 103.369765625 -21.02882812499999 103.11453125 -20.75390625 102.8515625 C-18.865641952854162 100.71870438198033 -18.72723973287509 98.72211061443562 -18.77880859375 95.953125 C-18.996502507792144 94.03088293340261 -19.448335813317243 92.46254336325262 -20.070159912109375 90.645751953125 C-21.985580189019146 85.0201311586375 -22.47838269915185 79.90726519669803 -22.375 74 C-22.372341308593747 73.5551123046875 -22.369682617187493 73.110224609375 -22.366943359375 72.65185546875 C-22.31043016939182 64.49366932502508 -21.23368602317558 56.67584358499664 -19.65625 48.6875 C-19.083835585180395 45.74791347389518 -18.80597750170611 42.98938367741698 -19 40 C-19.329999999999984 40 -19.659999999999997 40 -20 40 Z " transform="translate(150,19)" />
    <path d="M0 0 C21.450000000000003 0 42.900000000000006 0 65 0 C65.33 0.49500000000000455 65.33 0.49500000000000455 67 3 C51.65037097806234 18.34962902193766 23.70483051484348 6.649922088470262 2 7 C2 7.989999999999995 2 8.980000000000004 2 10 C22.790000000000006 10.329999999999998 43.58000000000001 10.659999999999997 65 11 C65.16499999999999 11.659999999999997 65.16499999999999 11.659999999999997 66 15 C65.34 15.659999999999997 64.68 16.319999999999993 64 17 C43.209999999999994 17 22.419999999999987 17 1 17 C1 19.310000000000002 1 21.620000000000005 1 24 C1.5220703124999986 24.086367187500002 2.044140624999997 24.172734375000005 2.58203125 24.26171875 C7.294473695409835 25.13294485447642 11.31951504679374 26.51057314031239 15.625 28.625 C20.20731186712804 30.809599685409594 24.034754689862808 32.396037355142724 29.0859375 30.61767578125 C31.030779175079374 29.853281213486 32.91607359085616 28.995714081761506 34.7890625 28.0703125 C39.23844911481102 25.900414594254727 42.86232439498596 24.611337103529706 47.875 24.625 C48.39876220703124 24.62443603515625 48.92252441406251 24.6238720703125 49.462158203125 24.623291015625 C54.56533440144821 24.767519779222397 58.34872993215885 26.348729932158832 62 30 C62.31050673273931 34.32409375962885 62.27745689587226 37.871387967186166 60.5 41.875 C58.31958873147795 46.95628420110492 57.99713892152316 52.53358888091701 59.5390625 57.86328125 C61.32996157833199 61.82884349487799 63.73386962807116 64.10973449674225 67.75 65.6875 C72.3839260176301 66.621759277748 77.58612272251304 66.56163030593223 81.62109375 64.1015625 C84.79318666929237 61.56748260413471 86.60097167709475 58.097115519268726 87.3515625 54.15234375 C87.56191890313511 49.49581791696396 86.35737910702318 45.44551505064342 85.00439453125 41.021240234375 C83.85437619836927 37.057510380379355 83.8616651239779 34.01845926113826 85 30 C87.6624698055748 26.59336161522728 90.56965279346593 24.87126066853284 94.861572265625 24.13671875 C101.69870954445452 23.315617125263884 106.00525799782739 25.006988898344545 111.945068359375 28.00927734375 C117.01182973777657 30.53958428787773 121.30394531942744 31.92897029125217 127 31 C129.18137043153664 30.255458448155764 131.08211033280458 29.23187931395165 133.0625 28.0625 C137.53261260471714 25.612561624296404 140.85416572013463 24.233901558175702 146 24 C146 21.689999999999998 146 19.379999999999995 146 17 C126.19999999999999 17 106.4 17 86 17 C86 12 86 12 87 11 C96.57 10.835000000000008 96.57 10.835000000000008 145 10 C145.33 8.680000000000007 145.66 7.359999999999999 146 6 C127.52000000000001 6 109.03999999999999 6 90 6 C89.67000000000002 5.670000000000002 89.67000000000002 5.670000000000002 88 4 C88 3.010000000000005 88 2.019999999999996 88 1 C89.53501070274217 0.11033439808959145 90.63755880790265 -0.12414634623810628 92.40444946289063 -0.1202545166015625 C92.88680557250979 -0.12162918090820085 93.36916168212889 -0.1230038452148392 93.86613464355469 -0.124420166015625 C94.12903541564941 -0.12262252807617813 94.12903541564941 -0.12262252807617813 95.45947265625 -0.113525390625 C96.01571823120116 -0.11367141723633267 96.57196380615233 -0.11381744384765113 97.14506530761719 -0.1139678955078125 C98.984770623782 -0.11327088742315539 100.8243748568704 -0.10548846372027754 102.6640625 -0.09765625 C103.93915755894318 -0.0957913161818027 105.21425333401058 -0.09436776837314653 106.48934936523438 -0.0933685302734375 C109.50320185476585 -0.08993970647436811 112.51701091316664 -0.08205717507850352 115.53084599971771 -0.07201904058456421 C118.96250274085122 -0.06083763324596703 122.39416122579911 -0.05534234691978668 125.82583165168762 -0.05032360553741455 C146.9809970111224 -0.019002988877602434 146.9809970111224 -0.019002988877602434 151 4 C151.0467296259177 16.70851184662328 151.0819935475534 29.417010808179583 151.10362434387207 42.12559127807617 C151.11393504496897 48.026465075267765 151.12799138881394 53.92728547589573 151.15087890625 59.828125 C151.17081915432644 64.97155583610902 151.18371793938132 70.11494799858693 151.18817698955536 75.25841641426086 C151.19078331427315 77.98161942320456 151.19690488027192 80.70471179689946 151.2114601135254 83.4278793334961 C151.22505415788245 85.99203662815444 151.22921902644762 88.55603790537992 151.22621536254883 91.1202278137207 C151.22676471762986 92.06028974702889 151.2307315036682 93.00035699954788 151.23841094970703 93.94038772583008 C151.2484015656729 95.22662289114751 151.24595495788748 96.51227349351774 151.24050903320313 97.79852294921875 C151.2463347160816 98.1681845164299 151.25216039896011 98.53784608364106 151.2581626176834 98.91870951652527 C151.22612308648715 101.72943780608432 150.38411417682386 103.55852966381707 149 106 C147.42293164210753 106.92304597800171 146.27652328224505 107.1245966978554 144.45815086364746 107.12304782867432 C143.94210961699486 107.12503887712955 143.42606837034225 107.1270299255848 142.89438951015472 107.1290813088417 C142.328245793581 107.12616846740247 141.76210207700728 107.12325562596322 141.17880249023438 107.12025451660156 C140.87780696690083 107.12068172901868 140.87780696690083 107.12068172901868 139.35458719730377 107.12284368276596 C137.68303094692263 107.12420747895845 136.0115914192192 107.12107672204573 134.34004926681519 107.11606562137604 C132.53774993777878 107.11175156114973 130.73545428400183 107.1132082253207 128.9331512451172 107.11396789550781 C125.81033853013284 107.11449252332676 122.68754669124309 107.1113521036844 119.56473922729492 107.1057300567627 C115.04967381597399 107.09760678865712 110.53461851038506 107.09499898776608 106.01954658329487 107.09374206513166 C98.69434043560625 107.09155284887578 91.36914541671058 107.08489628628507 84.0439453125 107.075439453125 C76.92773494192139 107.06626197217832 69.8115275928779 107.05918278047625 62.6953125 107.054931640625 C62.2567495970428 107.05466891713439 61.8181866940856 107.05440619364381 61.3663340061903 107.05413550883532 C59.16621681966578 107.05283048170509 56.96609961171822 107.05156677122204 54.76598238945007 107.05032360553741 C0.025643345166187714 107.01923250887467 0.025643345166187714 107.01923250887467 -4 104 C-4.93356814568169 101.63108847912332 -5.1403454091311005 99.51080753814324 -5.1202545166015625 96.99470520019531 C-5.121108941435814 96.60012089908122 -5.121963366270066 96.20553659796715 -5.122843682765961 95.7989951968193 C-5.124486069476092 94.481591355875 -5.118997664452884 93.1643158688351 -5.113525390625 91.846923828125 C-5.113243224175555 90.90068057256633 -5.113401829253576 89.95443709803828 -5.1139678955078125 89.00819396972656 C-5.1142547205726245 86.44231853574283 -5.108376529664895 83.87648988126483 -5.101393938064575 81.31062531471252 C-5.095141317124927 78.62804034387204 -5.094555088795424 75.94545429266938 -5.0933685302734375 73.26286315917969 C-5.090260847555143 68.18430301820038 -5.082055040085628 63.105764412048956 -5.072019040584564 58.027213752269745 C-5.060840435486604 52.244911381592345 -5.055343046602729 46.46260798085433 -5.0503236055374146 40.68029749393463 C-5.0189853951851475 5.018985395185155 -5.0189853951851475 5.018985395185155 0 0 Z M143 29 C142.84648071289064 29.085642089843745 142.84648071289064 29.085642089843745 142.069580078125 29.51904296875 C140.6522366465876 30.30743193479954 139.23240181578956 31.091228779474307 137.8125 31.875 C137.32974609375 32.144414062500005 136.8469921875 32.41382812500001 136.349609375 32.69140625 C130.50665041947033 35.90699440002304 124.79496308204563 38.73840916762501 118 37 C115.29663623510203 35.83686794535639 112.73136668587509 34.421763325842036 110.15768432617188 33.000244140625 C104.65417577888371 29.98401089639927 100.21242747657993 29.09819601146421 94 30 C92.68 31.319999999999993 91.36000000000001 32.64 90 34 C90.045439453125 34.19372192382812 90.045439453125 34.19372192382812 90.275390625 35.174072265625 C90.69151617817667 36.96848034012464 91.09578308505533 38.765373445718964 91.5 40.5625 C91.64308593750002 41.17158203125 91.78617187499998 41.780664062499994 91.93359375 42.408203125 C93.18811438151431 48.053545966814426 94.01892999252493 53.75155163295469 91.625 59.1875 C91.48924560546874 59.521367187500005 91.3534912109375 59.855234374999995 91.213623046875 60.19921875 C89.3812820109805 64.6375800054843 88.30975046438209 66.84512476780895 84 69 C83.44312500000001 69.35062500000001 82.88625000000002 69.70125000000002 82.3125 70.0625 C79.30183301247456 71.56783349376272 76.03365029750739 71.21176311761707 72.75 71.125 C72.1003125 71.11597656250001 71.450625 71.10695312499999 70.78125 71.09765625 C65.59756262196655 71.02142555326421 62.20905862618963 69.31249160656375 58.5234375 65.57421875 C55.787509171306766 62.58832694802143 54.15611506992718 60.06939948943497 54 56 C53.97566894531249 55.6598486328125 53.951337890625 55.319697265624995 53.92626953125 54.96923828125 C53.45960651398377 48.12581353736455 54.702611594774424 42.427217562238226 57 36 C56 32 56 32 54 30 C45.49225658991048 29.03010232974718 40.265820112429594 30.878329979808044 33.083251953125 35.356201171875 C28.98178658846423 37.79378606405676 23.611852862730387 37.68776306885533 19 37 C16.099238610959105 36.13195991962482 13.556387844312525 34.58777350511754 11 33 C10.470195312499996 32.69191406249999 9.940390625 32.38382812500001 9.39453125 32.06640625 C8.251351519629544 31.397149769194883 7.123322242148987 30.702076401343106 6 30 C4.350000000000001 30 2.700000000000003 30 1 30 C1 45.84 1 61.68000000000001 1 78 C4.647702414745112 79.21590080491504 8.021189625345471 80.32373572641643 11.7421875 81.0703125 C11.948805084228518 81.113289642334 11.948805084228518 81.113289642334 12.994415283203125 81.33078002929688 C14.287272675815146 81.59890529071913 15.5810809535418 81.86205163090312 16.875 82.125 C17.763089419199062 82.3082616953424 18.651110871990568 82.49185307981261 19.5390625 82.67578125 C21.69184509778553 83.1216000342429 23.845850328071336 83.56063877978485 26 84 C26 71.78560737347499 24.568316087963623 64.44019028027549 16.36181640625 56.08056640625 C15.26339972247176 55.02509331914972 14.150430225492869 53.998725140812496 13 53 C13 51.349999999999994 13 49.7 13 48 C14.319999999999993 48.33 15.64 48.66 17 49 C17.659999999999997 50.31999999999999 18.319999999999993 51.64 19 53 C19.659999999999997 52.67 20.319999999999993 52.34 21 52 C21.659999999999997 50.019999999999996 22.319999999999993 48.03999999999999 23 46 C24.319999999999993 46 25.64 46 27 46 C26.959233398437505 46.39791748046875 26.918466796874995 46.7958349609375 26.87646484375 47.205810546875 C26.69662663847079 49.032043649157245 26.535704369599785 50.85948779580255 26.375 52.6875 C26.310546875 53.31333984375 26.24609375 53.9391796875 26.1796875 54.583984375 C25.845807518088122 58.56967665907294 26.088354669574755 61.451132964589746 28 65 C32 63 32 63 37 54 C37.99000000000001 53.67 38.97999999999999 53.34 40 53 C39.67508222459837 58.58419777981263 38.22552957637308 61.91149037587334 34.9375 66.4375 C34.748974609375 66.707880859375 34.748974609375 66.707880859375 33.794921875 68.076171875 C32.87482452364604 69.39226049149363 31.939022514172336 70.69734689947393 31 72 C31.33 75.96000000000001 31.659999999999997 79.92000000000002 32 84 C36.500953170327406 85.12523829258186 36.500953170327406 85.12523829258186 39.21484375 84.546875 C39.8118408203125 84.42352783203125 40.408837890624994 84.30018066406251 41.02392578125 84.173095703125 C41.65540527343751 84.03347412109375 42.28688476562499 83.8938525390625 42.9375 83.75 C43.60644298884168 83.61012935666454 44.27555454703213 83.47106271636252 44.94482421875 83.332763671875 C48.12185349207033 82.66833824858361 51.275719659353456 81.94383749782443 54.41796875 81.12890625 C67.00224318238531 77.88012439835035 76.99553100370512 78.78036698995805 89.44265747070313 81.85653686523438 C97.15646397575904 83.75824495127515 104.03233379271762 84.67649996099567 112 84 C115 80 115 80 116 70 C113.69 67.36000000000001 111.38 64.72 109 62 C108.83500000000001 60.845 108.83500000000001 60.845 108 55 C108.99000000000001 54.67 109.98000000000002 54.34 111 54 C111.17015624999999 54.45890625 111.34031249999998 54.9178125 111.515625 55.390625 C113.09000204589438 59.376813690668726 114.60424526810829 62.22478928002758 118 65 C120 64 120 64 122 59 C121.39998507636633 54.79989553456437 120.45509326490361 50.98384757963903 119 47 C120.32 46.67 121.63999999999999 46.34 123 46 C123.99000000000001 48.31 124.98000000000002 50.620000000000005 126 53 C127.32 52.34 128.64 51.68000000000001 130 51 C130.33 50.010000000000005 130.66 49.019999999999996 131 48 C132.32 48.33 133.64 48.66 135 49 C133 55 133 55 128 58 C120.361442516269 74.4015726681128 120.361442516269 74.4015726681128 121 81 C129.34949947456457 80.11866394435151 137.66664792874928 79.04166900890635 146 78 C146 62.16 146 46.31999999999999 146 30 C145.01 29.67 144.02 29.340000000000003 143 29 Z M57.05108642578125 86.08102416992188 C40.87731510982982 90.30925528629152 27.25304326413209 90.62804460356222 10.943603515625 85.9658203125 C7.893192080895176 85.11229753018753 5.165559823410753 84.8308740299419 2 85 C0.9996999129312769 88.3080790281013 0.8787699636427817 91.3075163304461 0.9375 94.75 C0.9420117187500026 95.25660156250001 0.946523437499998 95.76320312500002 0.951171875 96.28515625 C0.986086309523813 99.98608630952381 0.986086309523813 99.98608630952381 2 101 C49.19 101 96.38 101 145 101 C145.33 100.67000000000002 145.66 100.34 146 100 C146 95.05000000000001 146 90.1 146 85 C139.84237327854055 81.92118663927027 129.64893869984846 84.93644710441421 123.17770385742188 86.78286743164063 C108.91016945567378 90.81200472393937 96.27154700220444 89.32599331266397 82.017333984375 85.779541015625 C72.9955984299616 83.5502431188686 66.017585291167 83.7172108144278 57.05108642578125 86.08102416992188 Z " transform="translate(51,65)" />
  </g>
</svg>