<svg xmlns="http://www.w3.org/2000/svg" viewBox="0 0 162 193" width="162" height="193">
  <g fill="#000000" transform="scale(0.50000000, 0.50000000)">
    <path d="M0 0 C4.445993034527589 2.784248113206644 8.55198606281158 5.946002180229073 9.828125 11.30078125 C9.939989350118196 13.03270036838937 9.922792016253027 14.753736758202749 9.890625 16.48828125 C9.886113281250005 16.951699218750008 9.881601562500009 17.4151171875 9.876953125 17.892578125 C9.790344110416868 26.293652539563226 1.5906002520109723 32.95393825221552 -4.001220703125 38.470703125 C-4.889291628913071 39.35792603782616 -5.7766989342284205 40.24581362016124 -6.6634979248046875 41.134307861328125 C-8.560633876068152 43.032122260802566 -10.462207307756728 44.92530594527065 -12.368158340454102 46.81425476074219 C-15.123689091665028 49.545220702661965 -17.87072426538441 52.284607753162504 -20.615872643887997 55.02600508928299 C-25.07179410833757 59.47538917639824 -29.53434860638751 63.91805696531128 -34.001220703125 68.3564453125 C-38.33582507767446 72.66343831654177 -42.66721175331642 76.97362626085322 -46.994384765625 81.2880859375 C-47.26190075017513 81.55481375157834 -47.52941673472523 81.82154156565667 -47.80503926426172 82.09635204076767 C-49.147304288288126 83.43470145351483 -50.489507088476046 84.77311324910312 -51.83167898654938 86.11155605316162 C-85.10261136189581 119.28956753028308 -85.10261136189581 119.28956753028308 -86.40087890625 119.499755859375 C-86.66860107421874 119.54362426757814 -86.66860107421874 119.54362426757814 -88.0234375 119.765625 C-88.28809814453126 119.80876831054687 -88.28809814453126 119.80876831054687 -89.62744140625 120.027099609375 C-91.50771236372202 120.36029337215183 -93.32864887540222 120.80452806260828 -95.171875 121.30078125 C-95.22666015625 121.60371093750001 -95.22666015625 121.60371093750001 -95.50390625 123.13671875 C-95.92378357927379 125.3954948380673 -96.38519360412519 127.6436590171958 -96.86865234375 129.8896484375 C-97.06214922071212 130.79014114993234 -97.25051386524322 131.69176247494283 -97.43212890625 132.5947265625 C-100.55716581368884 147.60196594850575 -115.04849048566462 159.57701724772213 -127.40884399414063 167.72726440429688 C-135.16084826797402 172.73373941437114 -143.79087361066857 176.9531887794413 -153.171875 177.30078125 C-153.68685546875 177.32124511718746 -154.2018359375 177.34170898437503 -154.732421875 177.36279296875 C-156.56650099115177 177.42409782318487 -158.3994895827658 177.46064240979752 -160.234375 177.48828125 C-160.82452392578125 177.50149414062503 -161.4146728515625 177.51470703125 -162.022705078125 177.5283203125 C-166.0841868528623 177.53513202197541 -169.4070965741322 176.81890643200973 -173.171875 175.30078125 C-173.50187499999998 173.65078125000002 -173.831875 172.00078125 -174.171875 170.30078125 C-173.7489013671875 169.85275146484378 -173.325927734375 169.4047216796875 -172.89013671875 168.943115234375 C-171.28940991658854 167.24670746499112 -169.69080823422627 165.54830880112928 -168.0927734375 163.849365234375 C-167.40680920439354 163.12064832847688 -166.72030407606445 162.39244012462797 -166.033203125 161.664794921875 C-161.61330537377302 156.9831926985359 -157.30994530729217 152.23388392420472 -153.171875 147.30078125 C-152.511875 147.30078125 -151.851875 147.30078125 -151.171875 147.30078125 C-151.171875 146.64078125 -151.171875 145.98078125 -151.171875 145.30078125 C-150.511875 145.30078125 -149.851875 145.30078125 -149.171875 145.30078125 C-149.171875 144.64078125 -149.171875 143.98078125 -149.171875 143.30078125 C-148.511875 143.30078125 -147.851875 143.30078125 -147.171875 143.30078125 C-147.171875 142.64078125 -147.171875 141.98078125 -147.171875 141.30078125 C-146.511875 141.30078125 -145.851875 141.30078125 -145.171875 141.30078125 C-144.94008544921874 140.742294921875 -144.70829589843748 140.18380859375 -144.469482421875 139.6083984375 C-143.00410701423547 136.69220141890256 -140.72992255606692 134.6291240591893 -138.41015625 132.37890625 C-137.6930836049583 131.66978850086699 -136.97601397607625 130.96066767683604 -136.25910472869873 130.25138473510742 C-135.25716133224864 129.26251156061198 -134.25073472256878 128.27826529676005 -133.24420166015625 127.2940673828125 C-131.02228078383297 125.12051509492875 -128.8079383017758 122.93928802712679 -126.59765625 120.75390625 C-126.35988590240478 120.51915084838868 -126.12211555480957 120.28439544677735 -125.87714004516602 120.04252624511719 C-122.27773751195912 116.48244893979836 -118.86451368121755 112.8149429837996 -115.598388671875 108.9482421875 C-114.20659333355218 107.30732024323089 -112.71138547403257 105.80338467122638 -111.171875 104.30078125 C-110.511875 104.30078125 -109.851875 104.30078125 -109.171875 104.30078125 C-109.171875 102.65078125 -109.171875 101.00078124999999 -109.171875 99.30078125 C-107.851875 97.65078125 -107.851875 97.65078125 -101.171875 89.30078125 C-100.511875 89.30078125 -99.851875 89.30078125 -99.171875 89.30078125 C-99.171875 88.64078125 -99.171875 87.98078125 -99.171875 87.30078125 C-98.511875 87.30078125 -97.851875 87.30078125 -97.171875 87.30078125 C-96.94008544921877 86.74229492187499 -96.70829589843748 86.18380859375 -96.469482421875 85.6083984375 C-95.00410701423547 82.69220141890256 -92.72992255606692 80.62912405918934 -90.41015625 78.37890625 C-89.6930836049583 77.66978850086696 -88.97601397607625 76.96066767683604 -88.25910472869873 76.25138473510742 C-87.25716133224859 75.26251156061198 -86.25073472256878 74.27826529676005 -85.24420166015625 73.2940673828125 C-83.02228248014444 71.12051675431354 -80.8076961498563 68.93953049765827 -78.59765625 66.75390625 C-78.3595743370056 66.51865234375 -78.12149242401125 66.28339843750001 -77.87619590759277 66.041015625 C-74.01078516191407 62.214151871706974 -70.3541702722685 58.26049769094621 -66.84963989257813 54.1024169921875 C-65.89970212687967 52.978865043456494 -64.92894864490802 51.87407752494664 -63.95703125 50.76953125 C-63.66376953125001 50.43437499999999 -63.370507812499994 50.099218750000006 -63.068359375 49.75390625 C-61.76953125 48.26953125 -60.470703125 46.78515625 -59.171875 45.30078125 C-58.511875 45.30078125 -57.85187500000001 45.30078125 -57.171875 45.30078125 C-57.171875 44.64078125 -57.171875 43.98078125000001 -57.171875 43.30078125 C-56.511875 43.30078125 -55.85187500000001 43.30078125 -55.171875 43.30078125 C-55.171875 42.64078125 -55.171875 41.98078125000001 -55.171875 41.30078125 C-54.511875 41.30078125 -53.85187500000001 41.30078125 -53.171875 41.30078125 C-52.95813232421875 40.760341796875 -52.744389648437505 40.21990234374999 -52.524169921875 39.6630859375 C-50.88206139104204 36.39801204877077 -48.11929583212782 34.02301726158028 -45.53515625 31.50390625 C-44.97134230496147 30.946382551739106 -44.40805357960943 30.388327264830394 -43.84526062011719 29.82977294921875 C-42.36437176958023 28.36213669763825 -40.87803052139259 26.9001631280193 -39.38995361328125 25.4398193359375 C-36.74446362429279 22.842649612974242 -34.10693222929723 20.23744410098618 -31.47265625 17.62890625 C-31.331905794143665 17.489798278808593 -31.331905794143665 17.489798278808593 -30.6196231842041 16.78582763671875 C-27.013973713182054 13.217683558086847 -23.502240044854943 9.610493650053229 -20.273880004882813 5.69024658203125 C-15.898635639892404 0.4228171180596121 -6.680361235472219 -3.9859488704984187 0 0 Z M-21.061965942382813 14.152725219726563 C-22.34246492412325 15.51764397131467 -23.612197943804944 16.8915509255946 -24.871124267578125 18.276397705078125 C-26.585344406844143 20.16170636270587 -28.32095062214634 22.027185567104866 -30.0546875 23.89453125 C-30.401470489501946 24.269008941650384 -30.748253479003893 24.643486633300782 -31.105545043945313 25.029312133789063 C-34.871087162995934 29.081489606278666 -38.786370459461466 32.977351955921705 -42.746826171875 36.838134765625 C-45.44676314444999 39.484410139681586 -47.990667517650365 42.20871401793573 -50.453125 45.078125 C-54.596259514579145 49.89350915728039 -59.096109816872115 54.33542374856768 -63.609375 58.80078125 C-64.44489827639268 59.63127223154751 -65.28018605617564 60.462000206038 -66.115234375 61.29296875 C-68.13141927053277 63.29830172394361 -70.1504478909213 65.3007333613713 -72.171875 67.30078125 C-72.50187499999998 68.62078125 -72.831875 69.94078124999999 -73.171875 71.30078125 C-71.85099139748766 72.84123531453113 -70.51815112417654 74.37035960546069 -69.174072265625 75.890625 C-68.71993931666685 76.40761316419452 -68.26899125696639 76.92741927316854 -67.821533203125 77.4501953125 C-64.94076000890428 80.810560915591 -62.517171007221464 83.15217272265372 -58.171875 84.30078125 C-53.05421654505088 79.865993408858 -48.09530280782087 75.43634752145789 -43.71875 70.258544921875 C-39.590089412504625 65.38968139454403 -35.11009579369215 60.77741826413285 -30.109375 56.80078125 C-27.860913168309395 54.98963126656895 -26.045476982169134 53.05648353069978 -24.1953125 50.84765625 C-21.20119306445676 47.353192704437475 -18.020732106685784 44.078765692293246 -14.74609375 40.84765625 C-14.627035169601442 40.72995880126953 -14.627035169601442 40.72995880126953 -14.024526596069336 40.13433837890625 C-11.801577715904898 37.93759217338885 -9.572185061220978 35.74745376664117 -7.337646484375 33.5625 C-6.340478084136578 32.58701748265595 -5.346091695755945 31.608842986076397 -4.3544464111328125 30.62774658203125 C-3.4316249360423967 29.715162491991563 -2.5047413951847375 28.806661240591424 -1.5731658935546875 27.90301513671875 C1.0959458015130963 25.255493146278667 3.376081715504995 22.849722092894353 4.05517578125 19.0205078125 C4.044702148437523 18.664404296875006 4.034228515624989 18.308300781249997 4.0234375 17.94140625 C4.016992187500023 17.548242187499994 4.010546874999989 17.155078125000003 4.00390625 16.75 C3.987148437499968 16.35425781250001 3.970390624999993 15.958515625000004 3.953125 15.55078125 C3.944101562500009 15.139570312499998 3.935078125000018 14.728359374999997 3.92578125 14.3046875 C3.8241963955205165 9.936538757381939 3.710268680487559 11.153460850609463 -0.171875 6.30078125 C-2.7920287840256606 5.42739665532477 -4.198629892856275 5.1880785121293655 -6.859375 5.23828125 C-12.472253638990423 5.344184620546983 -17.23853966382859 10.194409281836343 -21.061965942382813 14.152725219726563 Z M-78.171875 74.30078125 C-79.16187500000001 75.29078125000001 -80.15187500000002 76.28078125000002 -81.171875 77.30078125 C-80.171875 81.30078125 -80.171875 81.30078125 -68.171875 93.30078125 C-66.851875 92.64078125 -65.53187500000001 91.98078125 -64.171875 91.30078125 C-63.841875000000016 90.31078124999999 -63.511875 89.32078124999998 -63.171875 88.30078125 C-63.831875 87.31078124999999 -64.491875 86.32078124999998 -65.171875 85.30078125 C-65.831875 85.30078125 -66.491875 85.30078125 -67.171875 85.30078125 C-67.43742187499998 84.71812499999999 -67.70296875 84.13546875 -67.9765625 83.53515625 C-69.12024094702207 81.24779935595589 -70.59721595664263 79.44561645144626 -72.296875 77.55078125 C-72.57402343749999 77.2349609375 -72.851171875 76.91914062500001 -73.13671875 76.59375 C-73.81132755380264 75.82609170601768 -74.49106530036602 75.06294556782925 -75.171875 74.30078125 C-76.16187500000001 74.30078125 -77.15187500000002 74.30078125 -78.171875 74.30078125 Z M-88.171875 84.30078125 C-88.50187499999998 85.62078125 -88.831875 86.94078124999999 -89.171875 88.30078125 C-87.851875 89.95078125 -86.53187500000001 91.60078125000001 -85.171875 93.30078125 C-84.511875 93.30078125 -83.851875 93.30078125 -83.171875 93.30078125 C-82.924375 93.87828124999999 -82.676875 94.45578125 -82.421875 95.05078125 C-81.1591130613302 97.61290692266334 -79.26092536128033 99.39426926980241 -77.171875 101.30078125 C-75.851875 100.97078125000002 -74.53187500000001 100.64078125 -73.171875 100.30078125 C-72.84187500000002 98.65078125 -72.511875 97.00078124999999 -72.171875 95.30078125 C-84.171875 84.30078125 -84.171875 84.30078125 -88.171875 84.30078125 Z M-95.171875 91.30078125 C-97.15187500000002 93.61078125 -99.13187499999998 95.92078125 -101.171875 98.30078125 C-100.171875 102.30078125 -100.171875 102.30078125 -89.171875 113.30078125 C-85.94341497381913 111.68655123690957 -84.45000329806362 110.84168574242324 -82.421875 108.17578125 C-82.2014453125 107.89863281250001 -81.981015625 107.621484375 -81.75390625 107.3359375 C-81.21997731324075 106.6627227536514 -80.6949354114119 105.982474737004 -80.171875 105.30078125 C-80.50187499999998 104.64078125 -80.831875 103.98078125 -81.171875 103.30078125 C-81.831875 103.30078125 -82.491875 103.30078125 -83.171875 103.30078125 C-83.171875 102.64078125 -83.171875 101.98078125 -83.171875 101.30078125 C-83.831875 101.30078125 -84.491875 101.30078125 -85.171875 101.30078125 C-85.37812500000001 100.76453125 -85.584375 100.22828125000001 -85.796875 99.67578125 C-87.44825139152249 96.30017362615257 -90.4761070421967 93.84395856868235 -93.171875 91.30078125 C-93.831875 91.30078125 -94.491875 91.30078125 -95.171875 91.30078125 Z M-106.171875 106.30078125 C-106.27677246093751 106.41820678710937 -106.27677246093751 106.41820678710937 -106.8076171875 107.012451171875 C-109.58510740292911 110.1181496362334 -112.37564260485388 113.21196262404112 -115.171875 116.30078125 C-115.28550384521486 116.42643463134766 -115.28550384521486 116.42643463134766 -115.86053466796875 117.06231689453125 C-122.44226100459522 124.33710175169443 -129.17220740910716 131.42120021882513 -136.188232421875 138.2802734375 C-139.0992847171254 141.1392378245598 -141.8734105194904 144.05938688976107 -144.53125 147.15625 C-148.49529531020573 151.7678841044069 -152.78726284482227 156.0274597112705 -157.109375 160.30078125 C-157.89672178348422 161.08309446980348 -158.68383236699134 161.8656454832209 -159.470703125 162.6484375 C-161.3683955222156 164.53529089563222 -163.26920780565834 166.41894500860298 -165.171875 168.30078125 C-165.50187499999998 169.62078125 -165.831875 170.94078125 -166.171875 172.30078125 C-146.9633296540602 173.3217078727173 -131.1877105996235 164.8739941408943 -117.171875 152.30078125 C-107.93162501043236 143.68190638519084 -101.75263865210118 135.20667160540486 -101.21484375 122.35546875 C-101.20066406249998 121.677421875 -101.18648437500002 120.99937499999999 -101.171875 120.30078125 C-99.851875 118.65078125 -98.53187500000001 117.00078124999999 -97.171875 115.30078125 C-98.171875 111.30078125 -98.171875 111.30078125 -103.171875 106.30078125 C-104.16187500000001 106.30078125 -105.15187499999999 106.30078125 -106.171875 106.30078125 Z " transform="translate(260.171875,93.69921875)" />
    <path d="M0 0 C1.3199999999999932 0.3300000000000125 2.6399999999999864 0.6599999999999966 4 1 C2.691669823762936 5.5220558178668 0.0711599192427741 8.461758929478606 -3.125 11.8125 C-3.598304845870075 12.319056214411347 -4.070966359726896 12.826214329547014 -4.54296875 13.333984375 C-5.689150314391384 14.562036051133646 -6.841423993818154 15.783654776980967 -8 17 C-9.319999999999993 16.670000000000016 -10.639999999999986 16.340000000000003 -12 16 C-11 11 -11 11 0 0 Z " transform="translate(144,220)" />
    <path d="M0 0 C0.3709277343749875 -0.00014602661133267247 0.7418554687500034 -0.00029205322266534495 1.1240234375 -0.0004425048828125 C2.34690247142089 0.00025272572281664907 3.5696281276179604 0.008026566863179596 4.79248046875 0.015869140625 C5.641590543424371 0.017734711579976192 6.490701695893961 0.01915795908740847 7.339813232421875 0.0201568603515625 C9.572357001787765 0.023971107144802772 11.804835497562635 0.033791985993275375 14.037353515625 0.04486083984375 C16.316397268297266 0.055098494132153064 18.595451589004313 0.05965952118219775 20.87451171875 0.064697265625 C25.344592447039048 0.0754153009033871 29.81462477534666 0.09247855147685868 34.28466796875 0.113525390625 C34.44966796874999 0.773525390625025 34.44966796874999 0.773525390625025 35.28466796875 4.113525390625 C34.954667968750016 4.443525390624984 34.62466796875 4.773525390625025 34.28466796875 5.113525390625 C21.414667968749995 5.113525390625 8.544667968749991 5.113525390625 -4.71533203125 5.113525390625 C-5.0453320312500125 3.793525390625007 -5.375332031249997 2.4735253906250136 -5.71533203125 1.113525390625 C-3.877609069780732 -0.06625053100032119 -2.111076448660043 -0.021801449048894028 0 0 Z " transform="translate(134.71533203125,265.886474609375)" />
    <path d="M0 0 C3.3000000000000114 0 6.599999999999994 0 10 0 C10.330000000000013 1.6499999999999773 10.659999999999997 3.3000000000000114 11 5 C7.039999999999992 5 3.0800000000000125 5 -1 5 C-0.6699999999999875 3.3500000000000227 -0.3400000000000034 1.6999999999999886 0 0 Z " transform="translate(178,266)" />
    <path d="M0 0 C0.4188949584960824 0.0014149475097724462 0.8377899169921932 0.0028298950195448924 1.269378662109375 0.0042877197265625 C2.6041383167369077 0.009874506668495542 3.9387287506018254 0.02242414709894547 5.2734375 0.03515625 C6.1796850731560085 0.040172977637098484 7.085935282061882 0.04473558427594071 7.9921875 0.048828125 C10.211002463559453 0.05983954936198188 12.42969131276817 0.07709472987312438 14.6484375 0.09765625 C15.308437499999997 1.4176562499999932 15.968437499999993 2.7376562499999864 16.6484375 4.09765625 C16.318437500000016 4.427656249999984 15.988437500000003 4.757656250000025 15.6484375 5.09765625 C8.718437499999993 5.09765625 1.7884374999999864 5.09765625 -5.3515625 5.09765625 C-5.6815625000000125 3.777656250000007 -6.011562499999997 2.4576562500000136 -6.3515625 1.09765625 C-4.388273946414671 -0.2342460786060201 -2.27462445335982 -0.028967647351009873 0 0 Z " transform="translate(202.3515625,265.90234375)" />
    <path d="M0 0 C0 1.3199999999999932 0 2.6399999999999864 0 4 C-2.3100000000000023 4 -4.6200000000000045 4 -7 4 C-7 2.680000000000007 -7 1.3600000000000136 -7 0 C-5 -1 -5 -1 0 0 Z " transform="translate(232,267)" />
    <path d="M0 0 C1.2474044181555541 -0.005031165360776413 2.494802934494345 -0.011856754927123347 3.7421875 -0.0205078125 C5.534357261873936 -0.03262670110456156 7.326449107519522 -0.038308767439446 9.11865234375 -0.042724609375 C9.677048034667962 -0.047885894775390625 10.235443725585924 -0.05304718017578125 10.810760498046875 -0.0583648681640625 C11.331148986816402 -0.058440399169910506 11.851537475585928 -0.05851593017575851 12.3876953125 -0.05859375 C12.845141296386714 -0.060814361572283815 13.302587280273428 -0.06303497314451079 13.773895263671875 -0.0653228759765625 C15.071126187993968 0.06175576808288952 15.886311807367406 0.3979411512165143 17.00146484375 1.054931640625 C16.671464843750016 2.374931640624993 16.341464843749975 3.6949316406249864 16.00146484375 5.054931640625 C6.761464843749991 5.054931640625 -2.4785351562499898 5.054931640625 -11.99853515625 5.054931640625 C-12.328535156250013 4.064931640624991 -12.658535156249997 3.074931640624982 -12.99853515625 2.054931640625 C-9.745378546610425 -1.198224969014575 -4.491950257949469 0.014787826764404599 0 0 Z " transform="translate(252.99853515625,265.945068359375)" />
  </g>
</svg>