<svg xmlns="http://www.w3.org/2000/svg" viewBox="0 0 112 98" width="112" height="98">
  <g fill="#000000" transform="scale(0.50000000, 0.50000000)">
    <path d="M0 0 C3.776978871931348 3.024925556723783 6.024774230753067 6.47871511415655 8.3125 10.6875 C8.578852539062495 11.175168457031248 8.845205078125005 11.662836914062503 9.11962890625 12.165283203125 C11 15.727864155860132 11 15.727864155860132 11 18 C16.10649097589271 18.570461077198573 19.239495484218224 17.1644497144458 23.5625 14.5625 C27.330857048981557 12.33674525177112 30.595177223799595 10.47482328265825 35 10 C40.46707315561889 15.467073155618905 37.63224486254276 25.277142113397943 38 33 C44.599999999999994 33.33 51.19999999999999 33.66 58 34 C58.329999999999984 34.66 58.329999999999984 34.66 60 38 C59.79318603515625 38.438684082031244 59.58637207031251 38.8773681640625 59.373291015625 39.329345703125 C58.601901896350995 40.96673549375933 57.83273284784701 42.605160159657245 57.064208984375 44.243896484375 C56.732125839463066 44.95120934339181 56.399451988165424 45.65824519381155 56.066162109375 46.364990234375 C55.58549604392755 47.38451960189363 55.10700664521039 48.40504667933287 54.62890625 49.42578125 C54.48095108032226 49.73840408325195 54.33299591064451 50.0510269165039 54.18055725097656 50.37312316894531 C53.32027778239524 52.216181547997806 52.60556586605844 54.05855063542633 52 56 C48 57 48 57 46 56 C46.19569556734734 49.310769697944906 48.170320692781786 45.49902669754414 52 40 C47.379999999999995 40 42.75999999999999 40 38 40 C33 37 33 37 31 34 C30.670000000000016 28.72 30.340000000000003 23.439999999999998 30 18 C29.360625 18.4846875 29.360625 18.4846875 26.125 20.9375 C21.27791172537455 24.379740371775753 16.835484617868275 24.975634719758375 11 25 C7.967285047304884 22.1824842686525 5.567467618907386 19.171497257099304 3.25 15.75 C2.9341796875000057 15.291093750000002 2.618359374999997 14.832187500000003 2.29296875 14.359375 C1.524845185695284 13.242104361011329 0.7606454144832355 12.122368866227376 0 11 C-0.09555175781250114 11.158756103515628 -0.09555175781250114 11.158756103515628 -0.5791015625 11.962158203125 C-1.4613004624425798 13.417361743553741 -2.355481104452423 14.864839828226074 -3.25 16.3125 C-3.5503515624999977 16.81201171875 -3.8507031249999955 17.3115234375 -4.16015625 17.826171875 C-6.2978582431142485 21.260139970321823 -8.33667645536734 24.219781560027982 -12.3642578125 25.399658203125 C-15.855570775192888 26.12486221704588 -17.52324881944358 25.415081826031866 -20.8125 24.125 C-21.264316406250003 23.950976562500003 -21.716132812500007 23.776953125 -22.181640625 23.59765625 C-22.402392578125003 23.51064453125 -22.402392578125003 23.51064453125 -23.51953125 23.0703125 C-23.721148681640628 22.99176025390625 -23.721148681640628 22.99176025390625 -24.741455078125 22.59423828125 C-26 22 -26 22 -29 20 C-29.659999999999997 24.950000000000003 -30.319999999999993 29.9 -31 35 C-36.04854368932038 40.04854368932038 -36.04854368932038 40.04854368932038 -40.2578125 40.31640625 C-40.8830078125 40.358300781249994 -41.508203125 40.4001953125 -42.15234375 40.443359375 C-42.8033203125 40.48267578125001 -43.454296875 40.52199218749999 -44.125 40.5625 C-44.790390276956764 40.60572608368551 -45.455755373028694 40.64934166142271 -46.12109375 40.693359375 C-47.74718879941479 40.79940905213576 -49.373434927345514 40.90146830198762 -51 41 C-50.7133447265625 41.40895507812499 -50.426689453125 41.81791015625001 -50.13134765625 42.2392578125 C-46.18262545976094 47.92189247275549 -44.635295828066845 51.96931401884416 -45 59 C-53.33169194406147 67.65077801851488 -53.33169194406147 67.65077801851488 -58 69 C-58.165 69.33 -58.165 69.33 -59 71 C-58.6480859375 71.074765625 -58.296171875 71.14953125 -57.93359375 71.2265625 C-54.39324116306594 72.16942402445764 -51.919364349840464 73.6323367153222 -49.1875 76 C-48.88577880859375 76.2611962890625 -48.5840576171875 76.522392578125 -48.273193359375 76.79150390625 C-46.42932550490322 78.45377472681005 -45.20379084402422 79.72973639770481 -44.796875 82.26611328125 C-44.65058474623569 86.72644216425152 -46.02449296365856 89.93922903716543 -48 93.875 C-48.989999999999995 95.89625 -49.980000000000004 97.9175 -51 100 C-46.379999999999995 100 -41.76 100 -37 100 C-31.63117810957783 105.36882189042217 -29.90605912245971 109.33391772947499 -29.859375 116.781494140625 C-29.88170387257948 118.52279731319032 -29.92750000920934 120.2600002210242 -30 122 C-29.71390869140626 121.8182421875 -29.427817382812492 121.63648437500001 -29.133056640625 121.44921875 C-22.646204884875957 117.40869619501157 -17.702780105276318 114.9729626526298 -10 116 C-9.009999999999991 116.66 -8.02000000000001 117.32 -7 118 C-7 118.66 -7 119.32 -7 120 C-6.340000000000003 120 -5.680000000000007 120 -5 120 C-4.3283673430481 121.2892948325416 -3.6626266738596627 122.58108710307133 -3 123.875 C-2.8092187499999994 124.2398046875 -2.618437499999999 124.604609375 -2.421875 124.98046875 C-2.241406249999997 125.3349609375 -2.0609374999999943 125.689453125 -1.875 126.0546875 C-1.7074218749999943 126.3793701171875 -1.5398437500000028 126.70405273437501 -1.3671875 127.03857421875 C-1 128 -1 128 -1 130 C1.7747101630421867 127.60365940464538 2.7851898081268303 125.45753669994673 4 122 C5.650000000000006 122 7.299999999999997 122 9 122 C9 128 9 128 3 138 C1.3499999999999943 138.33 -0.29999999999999716 138.66 -2 139 C-3.2677067411744076 137.06387301265048 -4.530962886229034 135.12494190261293 -5.790283203125 133.183349609375 C-6.218775963675512 132.524042943858 -6.64844814712481 131.8655011736737 -7.079345703125 131.207763671875 C-7.700592395934933 130.25901583233522 -8.317463497664363 129.3075449178916 -8.93359375 128.35546875 C-9.12529647827148 128.06471969604493 -9.31699920654296 127.77397064208986 -9.514511108398438 127.47441101074219 C-10.65203711386907 125.70561515683877 -11.41937236500209 124.02015605725077 -12 122 C-19.063215147139957 123.94494330138636 -24.857443499306584 127.0374739901581 -31 131 C-32.650000000000006 130.67 -34.3 130.34 -36 130 C-36.00990966796874 129.7759851074219 -36.00990966796874 129.7759851074219 -36.06005859375 128.642333984375 C-36.13921497591468 126.94397039246027 -36.22591761600543 125.24631297996473 -36.3173828125 123.548583984375 C-36.35513681765575 122.82053958834189 -36.39007170404989 122.09234227756562 -36.421875 121.364013671875 C-36.468723931908386 120.30332457288648 -36.5264729652484 119.24364262340202 -36.5859375 118.18359375 C-36.6173583984375 117.54993896484376 -36.648779296875006 116.9162841796875 -36.68115234375 116.263427734375 C-37.125167328681044 113.1114653107183 -38.125539889385664 110.06061038715018 -39 107 C-45.6 106.67000000000002 -52.2 106.34 -59 106 C-60 101 -60 101 -59.48095703125 100.0537109375 C-58.69487847284688 98.6195554582257 -57.90993226275388 97.18478315935941 -57.125 95.75 C-56.8555859375 95.2588671875 -56.586171875 94.767734375 -56.30859375 94.26171875 C-51.93478687238493 86.26085251046025 -51.93478687238493 86.26085251046025 -53 82 C-53.20681396484375 81.86891845703124 -53.20681396484375 81.86891845703124 -54.25341796875 81.20556640625 C-55.79447148423829 80.22786370330827 -57.333337825257125 79.24676402007685 -58.87158203125 78.2646484375 C-59.536358850091794 77.84087343376143 -60.20171732404052 77.41800938840915 -60.86767578125 76.99609375 C-61.827409186171096 76.3878322198258 -62.784970535228446 75.77627436414089 -63.7421875 75.1640625 C-64.03809783935547 74.97752105712891 -64.33400817871095 74.79097961425781 -64.63888549804688 74.59878540039063 C-66.28332163661963 73.54196457681996 -67.67523724898187 72.43847629187806 -69 71 C-68.67 69.68 -68.34 68.36 -68 67 C-67.58113525390624 66.76289306640625 -67.16227050781251 66.5257861328125 -66.730712890625 66.281494140625 C-65.1773693653422 65.40162467417481 -63.62524752321936 64.51961952738485 -62.073486328125 63.636962890625 C-61.40161760195007 63.25519348403489 -60.72941867015654 62.87400459338065 -60.056884765625 62.493408203125 C-59.090434408387345 61.94634737360376 -58.12518955762286 61.397212015013935 -57.16015625 60.84765625 C-56.85908462524414 60.67782730102539 -56.55801300048828 60.50799835205078 -56.24781799316406 60.33302307128906 C-55.02283202279433 59.633172598576806 -54.00286136275804 59.00286136275804 -53 58 C-53.042600584262814 50.56619804613926 -56.24586555905533 45.24541020144923 -60 39 C-59.67 37.349999999999994 -59.34 35.7 -59 34 C-55.535 33.835 -55.535 33.835 -38 33 C-37.5625 22.6249999999999 -37.5625 22.6249999999999 -37.431884765625 19.35791015625 C-37.39375160633722 18.50161151104257 -37.35528160012703 17.645327771264604 -37.31640625 16.7890625 C-37.30816833496094 16.567464599609373 -37.30816833496094 16.567464599609373 -37.2664794921875 15.446044921875 C-37.24629760742188 15.019929199218751 -37.226115722656246 14.593813476562502 -37.205322265625 14.15478515625 C-37.18977798461914 13.786163635253907 -37.17423370361328 13.417542114257813 -37.15821838378906 13.037750244140625 C-37 12 -37 12 -36 10 C-31 10 -31 10 -28.953125 11.2421875 C-28.052131355793875 11.786537826707871 -27.151086989497287 12.330804205781128 -26.25 12.875 C-25.8065625 13.144414062499997 -25.363124999999997 13.413828125000002 -24.90625 13.69140625 C-17.570913461538467 18.114182692307693 -17.570913461538467 18.114182692307693 -12 17 C-8.700000000000003 11.719999999999999 -5.400000000000006 6.439999999999998 -2 1 C-1.3400000000000034 0.6700000000000017 -0.6800000000000068 0.33999999999999986 0 0 Z " transform="translate(104,27)" />
    <path d="M0 0 C0.38885375976562386 0.0023767089843715894 0.7777075195312477 0.004753417968750284 1.1783447265625 0.0072021484375 C10.684412199401606 0.09760651237798612 19.776089269101405 2.2748016780309896 27.25 8.4375 C27.25 9.097499999999997 27.25 9.7575 27.25 10.4375 C28.569999999999993 11.097499999999997 29.889999999999986 11.757499999999993 31.25 12.4375 C31.579999999999984 13.097499999999997 31.579999999999984 13.097499999999997 33.25 16.4375 C33.91 16.4375 34.56999999999999 16.4375 35.25 16.4375 C37.23000000000002 19.4075 39.20999999999998 22.377499999999998 41.25 25.4375 C41.08500000000001 26.262500000000003 41.08500000000001 26.262500000000003 40.25 30.4375 C38.93000000000001 30.7675 37.610000000000014 31.097499999999997 36.25 31.4375 C36.11013671875 31.140935058593755 35.9702734375 30.844370117187495 35.826171875 30.538818359375 C30.691920786950107 19.876167486403247 24.75735906925081 13.44051352011715 13.45703125 9.3828125 C3.188279596235418 6.120197190355789 -7.757809667397709 6.818844930545957 -17.39453125 11.71875 C-18.93193138477001 12.549042688652307 -20.42577309266767 13.430443346920583 -21.91015625 14.3515625 C-23.464767279812378 15.313825625762561 -24.980648081018998 15.941420022715604 -26.75 16.4375 C-26.75 17.097499999999997 -26.75 17.757499999999993 -26.75 18.4375 C-27.409999999999997 18.4375 -28.069999999999993 18.4375 -28.75 18.4375 C-28.847968750000007 18.717226562500002 -28.9459375 18.996953125000005 -29.046875 19.28515625 C-30.049679464297512 21.973709598245932 -31.281834788429705 24.413843379774278 -32.75 26.875 C-38.24878329577271 36.30148564989608 -38.384238931629426 45.74162039083242 -36.0361328125 56.15478515625 C-35.57064185307257 58.24155094194262 -35.16247539568619 60.339719820032 -34.75 62.4375 C-34.09 62.4375 -33.43000000000001 62.4375 -32.75 62.4375 C-32.09 64.41749999999999 -31.430000000000007 66.3975 -30.75 68.4375 C-30.090000000000003 68.4375 -29.430000000000007 68.4375 -28.75 68.4375 C-28.565664062500005 68.728828125 -28.381328124999996 69.02015625 -28.19140625 69.3203125 C-25.969920197462216 72.46001278758672 -23.494194921800144 74.50387005213324 -20.3125 76.625 C-19.94133056640625 76.87459472656252 -19.5701611328125 77.12418945312498 -19.187744140625 77.38134765625 C-14.3459394782831 80.50801707242812 -9.750507131334004 81.75920631924868 -4.0625 82.5 C-2.9123410493321273 82.65446085796981 -1.7625755170160176 82.811887919007 -0.61328125 82.97265625 C-0.3621154785156193 83.00556762695311 -0.3621154785156193 83.00556762695311 0.908935546875 83.172119140625 C2.1889929231698346 83.42542741807495 3.124201602193793 83.79174766298894 4.25 84.4375 C4.25 85.7575 4.25 87.07749999999999 4.25 88.4375 C-5.587382380588281 89.15051277290169 -13.056593803192186 88.18107598999731 -21.75 83.4375 C-22.1715234375 83.21288085937499 -22.593046875 82.98826171874998 -23.02734375 82.7568359375 C-33.44104032491998 77.04261105972842 -39.37114472730708 67.64089562031347 -42.75 56.4375 C-46.10469560762003 44.615356169380874 -44.40930441959065 33.03201674718139 -38.776123046875 22.171630859375 C-33.84817935297964 13.649306065450588 -25.664472616822323 7.378860082520596 -16.75 3.4375 C-16.172338867187506 3.177834472656251 -15.594677734374997 2.9181689453125017 -14.99951171875 2.650634765625 C-9.9618419729849 0.5049150362425223 -5.44484699154475 -0.08816856790598138 0 0 Z " transform="translate(103.75,52.5625)" />
    <path d="M0 0 C7.009400512365687 2.9102860485992608 14.229659022537419 4.905701853667765 21.541259765625 6.90673828125 C21.98983840942384 7.030558776855472 22.43841705322265 7.154379272460943 22.900588989257813 7.281951904296875 C23.751001326257665 7.516125871865015 24.6022843689168 7.747166788120978 25.454513549804688 7.974639892578125 C28.326039529815404 8.763539529815404 28.326039529815404 8.763539529815404 29.4375 9.875 C30.040925220189365 30.48738662400706 30.260740426833934 53.54131053048266 15.517578125 69.7587890625 C12.037122909166754 73.35567903690998 8.254366821169071 76.64250068609616 4.4375 79.875 C3.7775000000000034 79.875 3.117500000000007 79.875 2.4375 79.875 C2.4375 80.535 2.4375 81.195 2.4375 81.875 C-7.835540630866376 87.58224479492577 -7.835540630866376 87.58224479492577 -13.30029296875 86.3125 C-17.93522562114285 84.70596241526346 -21.832433663569418 80.94505109470057 -25.5625 77.875 C-26.009482421874992 77.51841308593748 -26.456464843749984 77.16182617187502 -26.9169921875 76.79443359375 C-39.14752060155797 66.97486048607414 -45.93836258150421 54.03325151990305 -48.08984375 38.55859375 C-48.43164843740729 35.33221773284805 -48.53123695576042 32.11767242196029 -48.5625 28.875 C-48.56455444335937 28.698015747070315 -48.56455444335937 28.698015747070315 -48.574951171875 27.8023681640625 C-48.75289833612588 12.10776402650194 -48.75289833612588 12.10776402650194 -47.4345703125 10.49609375 C-45.225652630628346 8.299735885826692 -42.54802238639033 7.734892867617546 -39.609375 6.9375 C-39.03092834472656 6.771291503906255 -38.45248168945312 6.605083007812496 -37.85650634765625 6.433837890625 C-36.011005493011595 5.904901557095769 -34.162170764813126 5.3891457719141584 -32.3125 4.875 C-29.888888527712055 4.1934991217465125 -27.46723466297577 3.505457072088319 -25.046875 2.8125 C-24.466837158203134 2.6479028320312494 -23.88679931640624 2.483305664062499 -23.2891845703125 2.313720703125 C-20.263042284729664 1.4369899347421438 -17.430266930957117 0.4616473735838582 -14.578125 -0.875 C-9.291666472413425 -3.2900160268100365 -5.1177194666919945 -2.256126162778301 0 0 Z M-19.431640625 6.7353515625 C-24.81642596517807 9.11490750701627 -30.37641844929108 10.687458961750764 -36.03857421875 12.262451171875 C-36.21814414978027 12.312883224487308 -36.21814414978027 12.312883224487308 -37.12687683105469 12.568099975585938 C-38.10982546042332 12.843107763858058 -39.09429974995851 13.112645517428291 -40.078857421875 13.3818359375 C-41.5625 13.875 -41.5625 13.875 -42.5625 14.875 C-43.17007503640487 36.64176515038166 -41.21982784514745 52.884955423627076 -26.5625 69.875 C-25.902500000000003 69.875 -25.242500000000007 69.875 -24.5625 69.875 C-24.5625 70.535 -24.5625 71.195 -24.5625 71.875 C-23.00611395880128 73.00864712520502 -21.44137640447056 74.13020750659126 -19.875 75.25 C-19.657470703125 75.40855468749999 -19.657470703125 75.40855468749999 -18.556640625 76.2109375 C-15.685414479910378 78.25269831428596 -12.898050862036598 79.73471747112075 -9.5625 80.875 C0.8996521695695492 76.44528025160778 8.705477491461039 70.22929287337377 14.8125 60.5625 C15.122036132812497 60.07845703125 15.431572265624993 59.59441406249999 15.75048828125 59.095703125 C21.445245031708282 49.44651224167862 23.092604317533812 39.14296378567613 23.6875 28.125 C23.76416231948781 26.92698883783433 23.842281297792113 25.729069977488948 23.921875 24.53125 C24.110457956330208 21.646674504280142 24.281404305332273 18.76150681210605 24.4375 15.875 C21.46056294952777 13.97743651538633 18.633744377063493 12.412750432910968 15.2578125 11.375 C14.881960144042978 11.253183593749995 14.506107788085927 11.131367187500004 14.118865966796875 11.005859375 C12.935208841892631 10.62299539555815 11.749185263944213 10.248361033473643 10.5625 9.875 C9.001194702856424 9.37930654476797 7.441347664860984 8.879335344223122 5.8828125 8.375 C5.5045985412597815 8.253062744140621 5.126384582519535 8.131125488281242 4.7367095947265625 8.0054931640625 C1.718861608664298 7.012849358885916 -1.1592132726161708 5.80880190567612 -4.040771484375 4.474609375 C-9.729722971329778 2.2329817716050115 -14.21597008410967 4.386595351602324 -19.431640625 6.7353515625 Z " transform="translate(154.5625,87.125)" />
    <path d="M0 0 C1.416715504086568 0.4751285778699099 2.836885525509416 0.9387425080269338 4.257568359375 1.40185546875 C5.1672994306173905 1.7045629398299695 6.076813499844491 2.0079235391159784 6.986083984375 2.31201171875 C7.40687728881835 2.4485314941406244 7.827670593261729 2.585051269531249 8.261215209960938 2.7257080078125 C10.447919577142727 3.472086887533223 11.965102538043197 4.109692548661755 13.458740234375 5.96826171875 C14.227070277199715 22.611472492552835 12.297076462680195 39.684162515531284 1.095458984375 52.88623046875 C-3.742129720291956 58.159458415214516 -9.05349997018078 61.99078741649299 -15.541259765625 64.96826171875 C-21.098311252684624 63.88340669608638 -24.56317623905653 61.791204581891094 -28.603759765625 57.84326171875 C-29.12834807693997 57.34456738755529 -29.653089301768375 56.84603386337267 -30.177978515625 56.34765625 C-34.124865052469886 52.55574854643547 -37.70637229828361 48.667448062919306 -40.541259765625 43.96826171875 C-40.736552734374996 43.66339843750001 -40.931845703125006 43.358535156250014 -41.133056640625 43.04443359375 C-47.43430155857669 32.88181973617807 -46.99892667008895 17.511638086896355 -46.541259765625 5.96826171875 C-42.52583067840648 3.174502329914162 -38.30375307605348 1.8077896511602773 -33.666259765625 0.46826171875 C-20.074563263006183 -3.4983861525942075 -13.951772773407043 -4.694100424733236 0 0 Z M-23.603759765625 3.71826171875 C-29.062802849488776 6.343557585395388 -34.7759222786773 8.141910857083857 -40.541259765625 9.96826171875 C-39.93663290818603 27.4590143461007 -37.6829053121789 41.817136361338186 -24.373291015625 54.37451171875 C-20.544099360139995 57.828213683843984 -19.3878148284889 57.96826171875 -13.541259765625 57.96826171875 C-2.1494150875897446 48.44503978434503 5.423906748085017 38.838524999973345 6.8280487060546875 23.546600341796875 C7.1903835096944135 19.02716668017075 7.363959278832624 14.500588963522716 7.458740234375 9.96826171875 C2.076353593329827 7.7295699299967 -3.3416002761561288 5.617698791106065 -8.853759765625 3.71826171875 C-9.344570312499997 3.5432714843749977 -9.835380859374993 3.3682812499999955 -10.341064453125 3.18798828125 C-15.249466315598113 1.531860836817458 -18.96940104311841 1.3346891056114032 -23.603759765625 3.71826171875 Z " transform="translate(161.541259765625,99.03173828125)" />
    <path d="M0 0 C0.3299999999999841 1.3199999999999932 0.6599999999999966 2.6400000000000006 1 4 C0.7640209960937341 4.261035156250003 0.5280419921874966 4.522070312500006 0.284912109375 4.791015625 C-0.8315356699126539 6.026763978716019 -1.947077464005929 7.263326157445803 -3.0625 8.5 C-3.4693603515625 8.950527343749997 -3.876220703125 9.401054687499993 -4.29541015625 9.865234375 C-6.234698667128811 12.017806671224008 -8.163572198789268 14.17652764316611 -10.05078125 16.375 C-10.360720214843752 16.735292968750002 -10.670659179687505 17.095585937500005 -10.989990234375 17.466796875 C-11.564293219427498 18.13726590472197 -12.135611913811573 18.810307141703134 -12.703369140625 19.486328125 C-14.318339251390341 21.369710166895317 -15.868235903539784 22.723494553017844 -18 24 C-21.226384968912498 23.40304771500297 -23.17707112287127 22.41228090057001 -25.625 20.25 C-25.777794189453118 20.117790527343743 -25.777794189453118 20.117790527343743 -26.551025390625 19.44873046875 C-28.917104137972757 17.2993868499307 -30.313015882545614 15.168538990707958 -31 12 C-30.340000000000003 11.340000000000003 -29.680000000000007 10.680000000000007 -29 10 C-24.72166427928815 10.493654121620594 -22.072217353319644 13.224763657501256 -19 16 C-17.680000000000007 14.349999999999994 -16.360000000000014 12.699999999999989 -15 11 C-14.340000000000003 11 -13.680000000000007 11 -13 11 C-12.752499999999998 10.4225 -12.504999999999995 9.844999999999999 -12.25 9.25 C-10.987238061330203 6.687874327336658 -9.089050361280357 4.9065119801975925 -7 3 C-6.340000000000003 3 -5.680000000000007 3 -5 3 C-5 2.3400000000000034 -5 1.6800000000000068 -5 1 C-3.2990256485536804 -0.04675344704388351 -1.9736379404366744 -0.08971081547439042 0 0 Z " transform="translate(160,116)" />
  </g>
</svg>