<svg xmlns="http://www.w3.org/2000/svg" viewBox="0 0 308 236" width="308" height="236">
  <g fill="#000000" transform="scale(0.50000000, 0.50000000)">
    <path d="M0 0 C2.3100000000000023 0 4.6200000000000045 0 7 0 C8.154280594707416 1.4104525282586593 9.298189418191896 2.827533950697557 10.4375 4.25 C10.762988281249989 4.645742187500005 11.088476562499977 5.041484374999996 11.423828125 5.44921875 C13.404307973271045 7.940131548856385 14.486635386522948 9.8475074440002 15 13 C15.659999999999968 13 16.319999999999993 13 17 13 C17 13.989999999999995 17 14.980000000000004 17 16 C17.659999999999968 16 18.319999999999993 16 19 16 C19.329999999999984 16.99000000000001 19.329999999999984 16.99000000000001 21 22 C21.495000000000005 22.164999999999992 21.495000000000005 22.164999999999992 24 23 C24.17015624999999 23.270380859374995 24.340312499999982 23.540761718750005 24.515625 23.8193359375 C29.227079357528623 31.293757544589994 34.070210547222075 38.668072639170475 39 46 C39 46.99000000000001 39 47.97999999999999 39 49 C39.65999999999997 49 40.31999999999999 49 41 49 C41.67204881091368 50.12208149679341 42.33764947926983 51.247213978216195 43 52.375 C43.190781249999986 52.692109375 43.38156249999997 53.00921875 43.578125 53.3359375 C44.589578261981956 55.069857377683405 45 55.946741271617924 45 58 C45.65999999999997 58 46.31999999999999 58 47 58 C48.74096391429089 61.284837574133775 50.29507112238855 64.33436983642065 51 68 C51.99000000000001 68.32999999999998 52.98000000000002 68.66 54 69 C54.0863671875 69.268125 54.172734375000005 69.53625 54.26171875 69.8125 C55.854596661443566 74.2550218814572 58.44256039626595 78.06622839578313 61 82 C61 82.99000000000001 61 83.98000000000002 61 85 C61.65999999999997 85 62.31999999999999 85 63 85 C63.671632656951886 86.28929483254154 64.33737332614032 87.58108710307135 65 88.875 C65.19078124999999 89.2398046875 65.38156249999997 89.604609375 65.578125 89.98046875 C65.75859374999999 90.3349609375 65.93906249999998 90.689453125 66.125 91.0546875 C66.20878906249999 91.21702880859374 66.20878906249999 91.21702880859374 66.6328125 92.03857421875 C67 93 67 93 67 95 C67.65999999999997 95 68.32 95 69 95 C72.6746257644561 101.37946699143455 76.0150340472585 107.91521303648796 79.20364379882813 114.54843139648438 C79.60635644337606 115.3845178307393 80.01165314305916 116.21936501631765 80.41964721679688 117.05288696289063 C82.68704842382601 121.69559449048458 84.48804755434412 125.78815624996213 85 131 C86.98000000000002 131 88.96000000000004 131 91 131 C91 130.34 91 129.68 91 129 C96.59177534052606 126.10056093454202 101.56099957218419 123.69353614508086 108 125 C110.14199007555669 125.89291389566534 112.00724613550756 127.06163445994619 113.93408203125 128.33203125 C116.13819714834284 129.71326326107788 118.45719724055857 130.8990109321746 120.75 132.125 C125.62578497881668 134.74216764090718 125.62578497881668 134.74216764090718 127.6328125 136.125 C129.13657724462797 137.0874094365619 130.3926670257551 137.46493084184542 132.125 137.875 C134.94556669323083 138.62558739445643 137.43429889450385 139.6182693228119 140.0625 140.875 C145.59938820545642 143.48203847226543 151.4718776623996 144.93582500335245 157.361083984375 146.528076171875 C158.9468534877103 146.98469652789277 160.4913058469399 147.5088394554707 162.046875 148.05859375 C165.49734286492856 149.2355505626281 168.98089703361728 149.68429605402514 172.587890625 150.123046875 C176.29264157715335 150.6550356921915 178.93635509596288 151.8575614257285 182 154 C183.15823170211542 156.76581684052226 183.14799191865 159.29756696106756 183.145263671875 162.2431640625 C183.14694297790527 162.50443588256837 183.14694297790527 162.50443588256837 183.1554412841797 163.82662963867188 C183.16494315768676 165.55631901898602 183.16689546980217 167.28591111587428 183.16796875 169.015625 C183.1711870850678 170.23093707519143 183.17455158151216 171.44624877123567 183.1780548095703 172.66156005859375 C183.1840478607627 175.21709078944218 183.1858950525094 177.7725877374121 183.185302734375 180.328125 C183.18522210596586 182.92129589485717 183.1920584543709 185.51428778546097 183.205810546875 188.107421875 C183.38730985668508 222.82465554614748 183.38730985668508 222.82465554614748 178.78125 234.8203125 C177.99671323606816 236.90399553885857 177.46063027977885 239.02148501166607 176.92333984375 241.18017578125 C175.78165238430648 245.75156034484053 174.41197013581916 249.5325398974344 171.90234375 253.51953125 C171.08491719556207 254.86067698217306 170.52513463460804 256.08933469760404 170 257.5625 C169.0395078413991 260.16955014477395 167.52803330609095 262.30000414381647 165.953125 264.57421875 C164.78443800109602 266.3224595475408 163.88005174826702 268.09322121208817 163 270 C162.33999999999997 270 161.68 270 161 270 C160.9368359375 270.268125 160.873671875 270.53625 160.80859375 270.8125 C158.43893215113962 278.39541711635326 150.8872441451938 284.20138662618655 145.4375 289.6875 C145.16441009521486 289.963359375 144.89132019042972 290.23921875 144.60995483398438 290.5234375 C137.3643852947298 297.82250091922435 129.56347389581225 304.2210151818859 120.48046875 309.10546875 C119 310 119 310 117.9765625 311.05078125 C116.77690315724817 312.2168501311548 115.78456271719483 312.52804479069704 114.1875 313 C112.21657527302534 313.5936520261972 110.45869157320055 314.26133035794277 108.625 315.1875 C104.60659226301209 316.79229542211976 100.0017217498011 315.870383740583 96.09375 314.28125 C91.92774501964396 312.3879036007487 88.0581961246462 309.8604369900854 84.1875 307.4375 C83.71916748046874 307.1447216796875 83.25083496093748 306.851943359375 82.768310546875 306.55029296875 C80.19336141449958 304.8975955505738 78.11975298833624 303.1963705662279 76 301 C74.97265625000011 300.41015625000006 74.97265625000011 300.41015625000006 74.0625 300.0625 C71.91472355571409 299.0869832180534 70.55383866510624 297.65288048319553 68.94921875 295.953125 C67.73297137063798 294.7318724873896 66.47347612792692 293.8840856767562 65 293 C65 292.34 65 291.68 65 291 C64.34000000000003 291 63.68000000000001 291 63 291 C63 290.34 63 289.68 63 289 C61.68000000000001 288.34 60.360000000000014 287.68 59 287 C59 286.34 59 285.68 59 285 C58.40187500000002 284.731875 57.803750000000036 284.46375 57.1875 284.1875 C55.01529940602882 283.1129950798506 53.62297404196448 281.78527144616095 52 280 C50.35000000000002 279.67 48.69999999999999 279.34 47 279 C47 279.66 47 280.32 47 281 C46.57178955078126 281.1409912109375 46.14357910156252 281.281982421875 45.702392578125 281.42724609375 C44.08983110495558 281.95903206505045 42.477753448748956 282.4922395222349 40.865966796875 283.0263671875 C40.172791597146556 283.2557656081749 39.47943667556467 283.4846217933457 38.785888671875 283.712890625 C37.77993859165804 284.04409151783676 36.774600242462384 284.3770730066657 35.76953125 284.7109375 C35.43818176269531 284.8204977416992 35.106832275390616 284.93005798339846 34.76544189453125 285.0429382324219 C32.967011575553784 285.64587791689263 31.23439439121728 286.3195842526133 29.50390625 287.09375 C26.191686200383117 288.44884272081737 22.653819832479712 288.7429863989144 19.125 289.125 C18.75251129150388 289.1663607788086 18.380022583007815 289.20772155761716 17.996246337890625 289.2503356933594 C1.064731868409467 291.0976470487429 -18.412150388404086 291.0972706931016 -34.056640625 283.43896484375 C-36.28395701482492 282.40254795221136 -38.65666900564804 281.72395591695425 -41 281 C-41 280.34 -41 279.68 -41 279 C-41.28190185546876 278.9756689453125 -41.56380371093749 278.951337890625 -41.854248046875 278.92626953125 C-46.10778645927411 278.33892882591573 -49.31100258978492 276.1980612822835 -52.8125 273.875 C-53.1185919189453 273.6756887817383 -53.424683837890626 273.47637756347655 -53.74005126953125 273.2710266113281 C-58.876603383679424 269.9245664324333 -63.58396232958353 266.26517924068173 -68 262 C-68 261.34 -68 260.68 -68 260 C-68.569765625 259.7718359375 -69.13953125 259.543671875 -69.7265625 259.30859375 C-72.61079350684119 257.85633143564945 -74.38607598408751 255.5475782961921 -76.375 253.0625 C-76.57069580078127 252.82104248046875 -76.57069580078127 252.82104248046875 -77.56103515625 251.59912109375 C-81.09536660620762 247.11262478499475 -83.78465285209151 242.34246286885968 -86.3408203125 237.25390625 C-87.03655425505787 235.9304656837122 -87.79142772027467 234.65891892877505 -88.5703125 233.3828125 C-90.21736870568219 230.67791672740566 -91.46930652480754 227.90153452851825 -92.625 224.95361328125 C-92.98971215807762 224.0261616605136 -93.36965396146263 223.10474431208263 -93.75 222.18359375 C-102.96866933420304 198.4211108073207 -99.58392790601738 172.0077115173309 -90 149 C-89.86188903808593 148.66724060058593 -89.72377807617187 148.33448120117188 -89.58148193359375 147.99163818359375 C-88.53100322139545 145.4656155433847 -87.46072767822656 142.94856548963585 -86.375 140.4375 C-86.22888275146485 140.09916137695313 -86.08276550292967 139.76082275390624 -85.93222045898438 139.4122314453125 C-84.37699038448125 135.83420582294653 -82.7289869256185 132.40794877743608 -80.65625 129.092529296875 C-79.70595364915107 127.5104697098032 -79.01525767377231 125.89419720773276 -78.3125 124.1875 C-78.0611328125 123.58292968749998 -77.80976562500001 122.978359375 -77.55078125 122.35546875 C-77.3690234375 121.90816406250002 -77.18726562500001 121.46085937499998 -77 121 C-76.34 121 -75.68 121 -75 121 C-74.92483154296875 120.718017578125 -74.8496630859375 120.43603515625 -74.772216796875 120.1455078125 C-74.41975158252873 118.8443437105596 -74.05374613401594 117.54734948964852 -73.6875 116.25 C-73.56955078125 115.80656249999998 -73.4516015625 115.363125 -73.330078125 114.90625 C-72.53886213595266 112.1471378330657 -71.5455828605894 110.16053401737724 -69.738525390625 107.9345703125 C-68.58736162820097 106.47782489677797 -67.74838887921197 104.88311485864398 -66.875 103.25 C-66.44981108260203 102.47103055827532 -66.0239712612096 101.6924162228255 -65.59765625 100.9140625 C-65.3541845703125 100.46836914062499 -65.110712890625 100.02267578125 -64.85986328125 99.5634765625 C-63.231460788678675 96.60257662995409 -61.57663782261463 93.65645109540952 -59.92169189453125 90.7103271484375 C-59.32084765760351 89.63987206166775 -58.721663368178895 88.56849963991328 -58.12255859375 87.4970703125 C-57.74455657587856 86.82351695048925 -57.36646773428441 86.1500123051789 -56.98828125 85.4765625 C-56.81759628295899 85.17060150146483 -56.646911315917976 84.86464050292969 -56.47105407714844 84.54940795898438 C-55.39353345765443 82.6359101814574 -54.23704079144662 80.81193541072219 -53 79 C-52.34 79 -51.68000000000001 79 -51 79 C-50.98582031250001 78.7202734375 -50.97164062499999 78.440546875 -50.95703125 78.15234375 C-50.53001134746262 74.56306835299662 -48.99835223937927 72.38423940658134 -46.87060546875 69.592041015625 C-45.3195978793226 67.53244200045259 -44.36680513480968 65.62611782144529 -43.52734375 63.1796875 C-42.677833286866246 61.279301130619274 -41.29307163029381 59.844468520681176 -39.953125 58.26953125 C-38.51211033263556 56.3501469594531 -37.73383308398846 54.26908914128012 -37 52 C-36.34 52 -35.68000000000001 52 -35 52 C-34.9626171875 51.8659375 -34.9626171875 51.8659375 -34.7734375 51.1875 C-33.55917078260492 47.56850899913627 -31.503852876096914 44.91753553686311 -29.179931640625 41.954345703125 C-27.498944417308167 39.77459834337313 -26.24793460719701 37.79570514924765 -25.51953125 35.10546875 C-24.87608508396849 33.736331419271295 -23.90970589844258 32.897360986695105 -22.826904296875 31.863525390625 C-21.317132294110564 30.28689014593121 -20.183825622441645 28.451309625300752 -19 26.625 C-18.739448242187507 26.228693847656245 -18.478896484375014 25.832387695312505 -18.21044921875 25.424072265625 C-16.401784304962433 22.65904325889973 -14.642677067619076 19.867480144352598 -13 17 C-12.340000000000003 17 -11.680000000000007 17 -11 17 C-10.902031249999993 16.624882812500005 -10.804062499999986 16.249765624999995 -10.703125 15.86328125 C-9.512424164523395 11.788210287205018 -7.790034574737831 9.149428858941334 -5 6 C-4.307331999708765 5.175347260744175 -3.6208887528680407 4.345767663072806 -2.934814453125 3.515625 C-1.9619629710525714 2.3391857033191457 -0.9808450880397004 1.1697783631948795 0 0 Z M2 13 C-11 28.317861715749046 -11 28.317861715749046 -11 33 C-11.659999999999997 33 -12.319999999999993 33 -13 33 C-14.111018118902848 34.73640010383082 -15.213173500422641 36.47804543594785 -16.30810546875 38.224609375 C-16.68017802214854 38.81556698780531 -17.054460039059165 39.405140429716596 -17.43115234375 39.9931640625 C-19.89051248963449 43.83632418380216 -21.78764201132742 47.56143394130396 -23 52 C-23.659999999999997 52 -24.319999999999993 52 -25 52 C-27.009646743010933 55.32759643569693 -29.00787931467636 58.66188560194513 -31 62 C-31.223330078125002 62.3723779296875 -31.446660156250005 62.744755859375005 -31.6767578125 63.12841796875 C-32.24755133650888 64.08292675650645 -32.81238156766884 65.04065670113252 -33.375 66 C-33.692109375 66.53625 -34.00921875 67.07249999999999 -34.3359375 67.625 C-35 69 -35 69 -35 71 C-35.66 71 -36.31999999999999 71 -37 71 C-37.30292968750001 71.55687499999999 -37.605859374999994 72.11375000000001 -37.91796875 72.6875 C-40.776450057207 77.90638518744396 -43.79140698935174 82.98913346847695 -47 88 C-47 88.99000000000001 -47 89.98000000000002 -47 91 C-47.66 91 -48.31999999999999 91 -49 91 C-49.17015624999999 91.36351562499999 -49.34031250000001 91.72703124999998 -49.515625 92.1015625 C-50.864276775226244 94.89929756562893 -52.29107812666135 97.5082025421896 -54.0625 100.0625 C-55.240937200399685 101.78142343516947 -56.22646305450644 103.3537944520366 -56.9375 105.3125 C-57.81801476419025 107.7243447888689 -58.993730698841546 109.89383860044836 -60.25 112.125 C-60.46156738281252 112.50197021484377 -60.67313476562501 112.8789404296875 -60.89111328125 113.267333984375 C-61.862186169873155 114.992462375027 -62.83779832939484 116.71495940730472 -63.81689453125 118.435546875 C-64.65463347580825 119.91214059082824 -65.48396952520739 121.39322410318675 -66.3125 122.875 C-66.579013671875 123.33922363281249 -66.84552734375 123.80344726562498 -67.1201171875 124.28173828125 C-69.3786922771304 128.3403472629446 -69.3786922771304 128.3403472629446 -69 131 C-69.66 131 -70.32 131 -71 131 C-76.80667206013283 143.3289960875966 -76.80667206013283 143.3289960875966 -79.375 149.625 C-79.54225585937499 150.0257373046875 -79.70951171875001 150.426474609375 -79.8818359375 150.83935546875 C-80.73519011121965 152.97641124358125 -81.19407504756413 154.65617057941787 -81 157 C-81.66 157 -82.32 157 -83 157 C-84.65 163.93 -86.30000000000001 170.86 -88 178 C-88.33000000000001 178.33000000000004 -88.66 178.65999999999997 -89 179 C-89.61939862056505 192.53528924077847 -89.00338180893394 204.37479413121434 -84.572509765625 217.24267578125 C-83.95147965575975 219.14893366219246 -83.46655976144609 221.05078130645404 -83 223 C-82.34 223 -81.68 223 -81 223 C-79.66666666666669 226.9999999999999 -78.33333333333331 231 -77 235 C-76.34 235 -75.68 235 -75 235 C-74.90203125 235.3751171875 -74.80406249999999 235.750234375 -74.703125 236.13671875 C-73.50670596404774 240.23135976097456 -71.81222258402045 242.84396336965733 -69 246 C-68.5100857100609 246.589793153472 -68.02192237159761 247.1810434434517 -67.53515625 247.7734375 C-62.84656495074154 253.39805034332028 -57.526081745596144 258.2112864994289 -52 263 C-51.34 263 -50.68000000000001 263 -50 263 C-50 263.65999999999997 -50 264.32 -50 265 C-49.648085937500014 265.17015625 -49.296171875 265.3403125 -48.93359375 265.515625 C-46.03515603724185 266.9383568276724 -43.22201507932863 268.43114482205317 -40.4375 270.0625 C-37.69169216809368 271.6528019733215 -34.98989592099511 272.9433064228265 -32 274 C-31.37883300781249 274.221396484375 -30.757666015625006 274.44279296875 -30.11767578125 274.6708984375 C-12.51089713037868 280.81396775070425 3.92802488619418 282.422052397126 22.1875 278.8125 C22.69760620117188 278.71462188720704 23.20771240234376 278.6167437744141 23.7332763671875 278.5158996582031 C31.131001091439373 277.0668285491944 37.43959504474435 274.7211028002082 44 271 C43.84580499023696 270.1993698016309 43.68997133366656 269.3990550781072 43.533447265625 268.598876953125 C43.44684341430661 268.15316848754884 43.36023956298828 267.7074600219727 43.27101135253906 267.2482452392578 C42.96159949212796 265.82313194378287 42.511633004924306 264.5271436781567 41.9375 263.1875 C41.849199218750016 262.97802734375 41.849199218750016 262.97802734375 41.40234375 261.91796875 C41.269570312500036 261.6150390625 41.13679687499996 261.312109375 41 261 C40.34000000000003 261 39.68000000000001 261 39 261 C38.90203124999999 260.6596875 38.804062499999986 260.31937500000004 38.703125 259.96875 C37.75335186125665 256.89017499855606 36.60159315475204 254.1174816626729 35.11328125 251.26953125 C23.842314752122775 229.0938958215433 23.742759271846978 204.45851747920847 23.690818786621094 180.12557220458984 C23.68860877729503 179.12632791890587 23.685584308349917 178.12708509806555 23.681739807128906 177.12784576416016 C23.670815332169298 174.2540896487739 23.67183536264031 171.38081181674067 23.69154167175293 168.50709533691406 C23.696594410965474 167.62316600072415 23.698615081015475 166.73921327078898 23.697359085083008 165.8552703857422 C23.69575568088709 161.27341558696952 23.7177353097386 157.12470053710854 26 153 C28.551853815110178 152.2870800046559 31.106939259003695 151.79911172051052 33.72265625 151.38671875 C41.32897567297937 150.17432691423912 48.432013648419 148.79624014668596 55.6171875 145.91796875 C58.98040719264168 144.57350317604667 62.46840962376211 143.769056930069 66 143 C66 142.34 66 141.68 66 141 C66.13986328124997 140.98130859375 66.13986328124997 140.98130859375 66.84765625 140.88671875 C70.85830500320219 140.22902393838163 74.33315121344026 138.68019872352448 78 137 C78 132 78 132 76.9765625 130.64453125 C74.7205612718248 127.60530176153804 72.7678423432734 124.84235942815974 71.5234375 121.23828125 C70.87945956899483 119.71484092068175 70.0122473968388 118.47821151654853 69.0625 117.125 C67.17279817580118 114.40942848966984 65.95277283691644 111.65198050887986 64.71875 108.59375 C63.91127673156643 106.80326579608203 62.91755635324125 105.45898607920071 61.6796875 103.953125 C60.91368629909698 102.87896239643484 60.50965629774021 101.86448587794655 60.0625 100.625 C59.299603425098326 98.52863714291726 58.288198669279495 96.88309073924009 57 95.0625 C55.003702565438516 92.19468465557398 53.90525829464053 89.35898472485042 53 86 C52.34000000000003 85.67000000000002 51.68000000000001 85.34 51 85 C50.89042968749999 84.7692578125 50.89042968749999 84.7692578125 50.3359375 83.6015625 C47.56030887122938 77.85929424004865 44.34363690985242 72.42754688773644 41 67 C40.34000000000003 67 39.68000000000001 67 39 67 C38.981308593749986 66.84853515625 38.981308593749986 66.84853515625 38.88671875 66.08203125 C38.329288168344306 62.52977754337047 37.004116749781645 59.962059347161556 35 57 C34.34000000000003 56.670000000000016 33.68000000000001 56.34 33 56 C32.78085937499998 55.5269140625 32.56171875000001 55.053828124999995 32.3359375 54.56640625 C29.70469450360855 49.03230807694439 26.50016470786761 44.022280422511415 23 39 C22.340000000000032 39 21.680000000000007 39 21 39 C20.947752685546902 38.85216064453124 20.947752685546902 38.85216064453124 20.683349609375 38.10400390625 C19.365367118941663 34.58068437736884 17.601551991501708 31.52665573208759 15.5625 28.375 C15.262792968749977 27.898046875000006 14.963085937500011 27.421093749999997 14.654296875 26.9296875 C12.968401119676344 24.296618207520567 11.246699974567889 22.162286391708392 9 20 C8.184993090228147 18.6968606095092 7.631809847792283 17.40942196815203 7 16 C6.340000000000032 16 5.680000000000007 16 5 16 C4.835000000000036 15.504999999999995 4.835000000000036 15.504999999999995 4 13 C3.340000000000032 13 2.680000000000007 13 2 13 Z M100.20703125 135.91015625 C98.780660209946 137.19804466480605 97.47348935383081 137.73656847976042 95.6875 138.4375 C93.5769471472745 139.29113986887614 91.59541831929079 140.18372510446605 89.6875 141.4375 C85.77106250371634 143.89815645325717 81.3050766869552 145.3619465343004 77 147 C76.8039013671875 147.07500732421875 76.8039013671875 147.07500732421875 75.8115234375 147.45458984375 C72.56063911456101 148.69576008784017 69.30794705691363 149.91758307312 66 151 C66 151.66 66 152.32 66 153 C65.51273437500004 153.09796875 65.02546875000002 153.1959375 64.5234375 153.296875 C59.633573740612576 154.31662935387658 54.85498005760792 155.59212780963497 50.0625 157 C44.418905452424156 158.65431489712608 38.79135620764731 159.98584545672537 33 161 C32.16241663386927 165.22922885412908 31.852392693539286 169.27978075731727 31.8671875 173.5859375 C31.865777587890648 174.2005332946777 31.86436767578124 174.81512908935548 31.8629150390625 175.44834899902344 C31.861158128725606 177.08714587116253 31.864255451384793 178.72581602532136 31.87102508544922 180.36459732055664 C31.875022460333753 181.3807093004391 31.877520411595185 182.3968159707992 31.87969970703125 183.41293334960938 C31.946422436440002 210.41496730324593 31.946422436440002 210.41496730324593 34.69970703125 220.76416015625 C35.059491946800335 222.24483596317327 35.340883481527044 223.7327038481007 35.62109375 225.23046875 C37.07007202944055 232.83681665781012 39.197427342515255 239.64708384104767 42.41455078125 246.68798828125 C43.34173979293331 248.76585056181136 44.173805655663614 250.88033276126873 45 253 C45.65999999999997 253.32999999999998 46.31999999999999 253.65999999999997 47 254 C47.24234375000003 254.4962890625 47.48468750000001 254.99257812500002 47.734375 255.50390625 C49.99725199787065 260.1025094046264 52.40397135802709 264.5812278434504 55 269 C55.65999999999997 269 56.31999999999999 269 57 269 C57 269.65999999999997 57 270.32 57 271 C57.65999999999997 271.33000000000004 58.31999999999999 271.65999999999997 59 272 C59.22687500000001 272.556875 59.453750000000014 273.11375 59.6875 273.6875 C61.86255283147125 278.02228838948145 65.99402522057079 281.1296969793591 69.7890625 284.0078125 C70.7425200123605 284.78903252625673 71.56486109980528 285.5604211240737 72.41796875 286.44140625 C74.04235688379805 288.0925926651932 75.81954302929887 289.44928393633876 77.6875 290.8125 C81.89326819588297 293.89370543522114 81.89326819588297 293.89370543522114 83.84375 295.51171875 C89.62896053180566 300.22908033861825 96.16760480434004 303.08121578866724 103 306 C106.66215386601084 304.5785655870054 110.2431500835861 303.0143275984598 113.8125 301.375 C114.31458984375001 301.14554687500004 114.81667968750003 300.91609374999996 115.333984375 300.6796875 C116.5564722799731 300.120835886298 117.77846297971058 299.56092620978916 119 299 C119 298.34000000000003 119 297.68 119 297 C119.30292968750001 296.8904296875 119.60585937500002 296.780859375 119.91796875 296.66796875 C120.3369140625 296.5094140625 120.755859375 296.350859375 121.1875 296.1875 C121.59355468749999 296.0366796875 121.99960937499998 295.885859375 122.41796875 295.73046875 C127.46334332119113 293.40087604675864 131.36202655914292 290.0771686132664 135.375 286.3125 C135.6590267944336 286.04876586914065 135.9430535888672 285.78503173828125 136.23568725585938 285.5133056640625 C140.8044041128544 281.26781140683875 145.0737949880712 276.8542171056574 149 272 C149 271.34000000000003 149 270.68 149 270 C149.99 269.66999999999996 150.98000000000002 269.34000000000003 152 269 C152.504923650176 268.04425166216686 153.00377247531378 267.0852921542539 153.5 266.125 C153.7784375 265.591328125 154.056875 265.05765625000004 154.34375 264.5078125 C155 263 155 263 155 261 C155.65999999999997 261 156.32 261 157 261 C157.67494565706937 259.9002001570075 158.3397585986972 258.7960810015118 159 257.6875 C159.095390625 257.533134765625 159.095390625 257.533134765625 159.578125 256.751953125 C160.75706882365603 254.75195913844067 161.23515123197967 253.38825469979372 161 251 C161.65999999999997 251 162.32 251 163 251 C163.1409912109375 250.59684570312498 163.281982421875 250.19369140624997 163.42724609375 249.7783203125 C163.95818016736644 248.26422330649484 164.4914947093385 246.75099101922297 165.0263671875 245.23828125 C165.2561462829235 244.58691866017193 165.4850097441389 243.93523223497834 165.712890625 243.283203125 C167.85389971234315 237.1606683664574 167.85389971234315 237.1606683664574 169.0703125 234.90625 C177.06413548300446 219.6622154742705 175.1784575577101 195.8481697250425 175.25 179.3125 C175.2552670288086 178.6814938354492 175.26053405761718 178.0504876708984 175.26596069335938 177.40036010742188 C175.27766651185732 175.59610131723076 175.274381709124 173.79254474700213 175.265625 171.98828125 C175.26957778930665 171.45592864990238 175.2735305786133 170.9235760498047 175.27760314941406 170.37509155273438 C175.23438950511184 166.8695642774727 174.5292333985654 164.15454799747545 173 161 C172.6167808532715 160.91661880493166 172.23356170654296 160.83323760986332 171.83872985839844 160.74732971191406 C164.11302788834473 159.0613909516636 156.68471945478882 157.06485325487847 149.2578125 154.3671875 C146.3623080713789 153.34439737844727 144.07636993618632 152.7633561587549 141 153 C141 152.34 141 151.68 141 151 C140.66266845703126 150.89453857421876 140.32533691406252 150.7890771484375 139.977783203125 150.680419921875 C138.42051565956376 150.1893944158385 136.866578857224 149.6885219059046 135.3125 149.1875 C134.78205078125 149.02185546875 134.2516015625 148.8562109375 133.705078125 148.685546875 C130.55247328003412 147.66046677203565 127.87006631036024 146.42767943412866 125.074462890625 144.649169921875 C123.7802961185667 143.86725911821605 122.52331508519791 143.43934794951483 121.0625 143.0625 C118.15876674441432 142.17132866836243 115.98145560567843 140.74670012197424 113.50390625 139.01953125 C103.44132653061223 132.1978862973761 103.44132653061223 132.1978862973761 100.20703125 135.91015625 Z " transform="translate(260,98)" />
    <path d="M0 0 C2.3848941202922447 1.0199064887423503 4.668391648456918 2.241124022962026 6.95684814453125 3.45843505859375 C7.627577547412557 3.8063952358578206 8.298801420908148 4.153403951034477 8.97052001953125 4.49945068359375 C11.640877015110846 5.878979870146765 14.30879494653152 7.261552756944184 16.95343017578125 8.68988037109375 C22.12232253314295 11.435302138592476 27.404927379330672 13.163477978693265 33.01934814453125 14.77093505859375 C33.878915640988566 15.024188870900957 34.73829163563505 15.278093581564974 35.59747314453125 15.53265380859375 C40.706876768758605 17.035806448043957 45.84138755071308 18.40025948277645 51.01934814453125 19.64593505859375 C55.834884509071856 24.461471423134356 55.084239499498096 32.33542832846791 55.08988952636719 39.019195556640625 C55.06248661000683 41.47986667366672 54.99099255285404 43.93706227147425 54.89434814453125 46.39593505859375 C54.8742367553711 46.92418884277345 54.85412536621095 47.45244262695314 54.833404541015625 47.9967041015625 C54.054418889405326 66.451138775309 51.03564023137301 89.41528158377736 39.03497314453125 104.30218505859375 C38.0335477999472 105.62714782219729 37.53489464220485 106.70520125084425 37.01934814453125 108.27093505859375 C36.09652150791095 110.90269991117754 34.44634624776285 112.38946606756781 32.43341064453125 114.26702880859375 C30.875309011657578 115.7863931080534 29.52366034131245 117.40451067602169 28.14434814453125 119.08343505859375 C25.350024442272115 122.4286500743982 22.242354330933267 125.20952661996296 18.86749267578125 127.95501708984375 C18.05710356937243 128.61517862442543 17.253785947749634 129.28283674871977 16.45294189453125 129.95452880859375 C15.461423925175382 130.78553995262303 14.465353661060021 131.61115174269457 13.46466064453125 132.43109130859375 C12.52002922494188 133.225092312627 11.596467332139696 134.04504446437159 10.69903564453125 134.89202880859375 C6.1142005613832 139.096977556281 0.7128564857599713 141.28250594203996 -4.98065185546875 143.64593505859375 C-6.923484445562565 142.7118882994581 -8.862070335082137 141.76966455746202 -10.79730224609375 140.82000732421875 C-11.45475120288836 140.49877766722147 -12.113266179321613 140.1797195584531 -12.77288818359375 139.86297607421875 C-16.306440227157168 138.16441017894033 -19.3448881176962 136.6285098144943 -21.98065185546875 133.64593505859375 C-23.14862060546875 132.91546630859375 -23.14862060546875 132.91546630859375 -24.16815185546875 132.45843505859375 C-24.766276855468732 132.19031005859375 -25.36440185546877 131.92218505859375 -25.98065185546875 131.64593505859375 C-25.98065185546875 130.98593505859378 -25.98065185546875 130.32593505859376 -25.98065185546875 129.64593505859375 C-26.28358154296876 129.55956787109375 -26.586511230468773 129.47320068359375 -26.89862060546875 129.38421630859375 C-32.3816845038732 127.54528103189807 -35.55899459017189 123.28749095995624 -39.00018310546875 118.84906005859375 C-40.52500717681181 116.97796119814092 -42.23433825859695 115.30864853646636 -43.98065185546875 113.64593505859375 C-43.98065185546875 112.98593505859378 -43.98065185546875 112.32593505859376 -43.98065185546875 111.64593505859375 C-44.640651855468775 111.64593505859375 -45.30065185546874 111.64593505859375 -45.98065185546875 111.64593505859375 C-46.640651855468775 110.49093505859378 -46.640651855468775 110.49093505859378 -49.98065185546875 104.64593505859375 C-50.640651855468775 104.31593505859377 -51.30065185546874 103.98593505859378 -51.98065185546875 103.64593505859375 C-52.65298278614779 102.02322144265963 -53.31751060701731 100.39742339094425 -53.98065185546875 98.77093505859375 C-54.171433105468736 98.31073974609376 -54.36221435546872 97.85054443359377 -54.55877685546875 97.37640380859375 C-54.73924560546874 96.93167724609373 -54.91971435546873 96.48695068359376 -55.10565185546875 96.02874755859375 C-55.27322998046873 95.62027587890623 -55.44080810546876 95.21180419921876 -55.61346435546875 94.79095458984375 C-55.98065185546875 93.64593505859375 -55.98065185546875 93.64593505859375 -55.98065185546875 91.64593505859375 C-56.640651855468775 91.64593505859375 -57.30065185546874 91.64593505859375 -57.98065185546875 91.64593505859375 C-59.755524810829684 86.66118548183533 -61.308216882871875 81.6521806984947 -62.60565185546875 76.52093505859375 C-62.728515625 76.04301513671874 -62.85137939453125 75.56509521484372 -62.97796630859375 75.07269287109375 C-64.69806842870446 68.1069312875166 -65.13292655151042 61.415612608135234 -65.11346435546875 54.28265380859375 C-65.11413971190944 53.40063958102883 -65.11511166161137 52.518625536200716 -65.11636352539063 51.63661193847656 C-65.11782574383966 49.80368242958383 -65.11573139420705 47.97080214464961 -65.11102294921875 46.13787841796875 C-65.10528402585857 43.78973643667746 -65.10863996947575 41.44170773812186 -65.11459541320801 39.0935697555542 C-65.11820520873857 37.279171157296446 -65.1170612489326 35.46479956282235 -65.11446762084961 33.650400161743164 C-65.11380168973983 32.78402505394456 -65.11461510257254 31.91764747833531 -65.11694717407227 31.0512752532959 C-65.11948522923905 29.845375857874217 -65.11561903345734 28.639662380327138 -65.11004638671875 27.43377685546875 C-65.11207061767578 27.077935180664042 -65.11409484863282 26.72209350585939 -65.11618041992188 26.35546875 C-65.10059450748554 24.535896969019063 -64.97825634043585 23.1938342441058 -63.98065185546875 21.64593505859375 C-63.320651855468725 21.64593505859375 -62.66065185546876 21.64593505859375 -61.98065185546875 21.64593505859375 C-61.98065185546875 20.985935058593725 -61.98065185546875 20.325935058593757 -61.98065185546875 19.64593505859375 C-59.776802865989396 19.070085704845155 -57.57142134573081 18.500679828478212 -55.36444091796875 17.93695068359375 C-54.61529836643234 17.74466430946984 -53.86658833095896 17.550684022330415 -53.11834716796875 17.35491943359375 C-52.037109726598544 17.07235604891565 -50.95441632155109 16.79610529468914 -49.87127685546875 16.52093505859375 C-49.54194152832031 16.433439941406277 -49.212606201171866 16.345944824218748 -48.873291015625 16.25579833984375 C-46.503192804895434 15.662714414747086 -44.40245272064806 15.57054826123408 -41.98065185546875 15.64593505859375 C-41.98065185546875 14.985935058593725 -41.98065185546875 14.325935058593757 -41.98065185546875 13.64593505859375 C-39.87865428604243 12.972292539007753 -37.773738336618976 12.308266194003409 -35.66815185546875 11.64593505859375 C-35.07324951171876 11.455153808593764 -34.478347167968764 11.264372558593777 -33.86541748046875 11.06781005859375 C-33.28856201171874 10.887341308593761 -32.71170654296873 10.706872558593773 -32.11737060546875 10.52093505859375 C-31.58845214843751 10.353356933593773 -31.059533691406273 10.185778808593739 -30.51458740234375 10.01312255859375 C-28.946265888328583 9.637703880083677 -27.586789715396264 9.578574099854961 -25.98065185546875 9.64593505859375 C-25.98065185546875 8.985935058593725 -25.98065185546875 8.325935058593757 -25.98065185546875 7.64593505859375 C-24.713367671171113 6.971655587613554 -23.44253109420538 6.306558972194523 -22.16815185546875 5.64593505859375 C-21.811726074218768 5.455153808593764 -21.45530029296873 5.264372558593749 -21.08807373046875 5.06781005859375 C-18.96099830687507 3.975000666655717 -17.434429157620286 3.3982351416573238 -14.98065185546875 3.64593505859375 C-14.98065185546875 2.9859350585937534 -14.98065185546875 2.325935058593757 -14.98065185546875 1.64593505859375 C-9.113113667269545 -0.8687241649201951 -5.76919248497876 -2.082970411735971 0 0 Z M-9.70819091796875 10.11737060546875 C-21.583344934839317 17.72785853961085 -34.76763740712403 22.59560061609301 -48.38299560546875 26.15374755859375 C-49.822403414952646 26.597183705280713 -51.185008225671936 27.113160650060195 -52.58050537109375 27.67669677734375 C-52.805328445434554 27.767288665771503 -52.805328445434554 27.767288665771503 -53.94306945800781 28.225738525390625 C-54.28547164916995 28.364403381347643 -54.62787384033203 28.50306823730466 -54.98065185546875 28.64593505859375 C-55.07490004979621 33.21093504245505 -55.145173769510905 37.77558170800961 -55.18790054321289 42.341355323791504 C-55.20844656553061 44.463341410934106 -55.2361203655725 46.58464476647339 -55.28240966796875 48.70623779296875 C-55.510635394131725 59.4545538944767 -54.83568808080747 68.87730203690558 -51.47257995605469 79.143310546875 C-50.87755780019438 80.96084216449651 -50.339524599303786 82.79221832112108 -49.80628967285156 84.62863159179688 C-48.72555046028532 88.21232453572935 -47.23263523443319 91.07572213157414 -45.01580810546875 94.11859130859375 C-43.81453264007689 95.8910392594172 -42.903167778375575 97.71860032161874 -41.98065185546875 99.64593505859375 C-39.467838895703096 104.81577884254745 -36.61442905504538 109.2869762589965 -32.42205810546875 113.27484130859375 C-31.56811833491315 114.08712548058566 -30.72284791874671 114.90897064228426 -29.89788818359375 115.75067138671875 C-26.93042396726861 118.77784784412995 -23.837421512694675 121.54258220230713 -20.54315185546875 124.20843505859375 C-20.064506835937493 124.59829589843753 -19.585861816406236 124.98815673828125 -19.09271240234375 125.38983154296875 C-10.102215733855644 132.64593505859375 -10.102215733855644 132.64593505859375 -2.98065185546875 132.64593505859375 C1.9759903703003374 129.44063975259644 6.79590220834541 126.24573076858968 11.22735595703125 122.33197021484375 C12.109707995927238 121.5676640405843 13.012212639619918 120.83177662602162 13.91778564453125 120.09515380859375 C17.658026000283883 117.00688195522002 20.9475387650412 113.77143391662406 23.95684814453125 109.95843505859375 C24.251318359374977 109.59008544921875 24.54578857421876 109.22173583984375 24.84918212890625 108.84222412109375 C26.637951711148844 106.48693119535079 27.499494290958523 104.56106489571664 28.01934814453125 101.64593505859375 C28.679348144531218 101.64593505859375 29.339348144531243 101.64593505859375 30.01934814453125 101.64593505859375 C42.557541949062966 77.52991974094118 42.557541949062966 77.52991974094118 43.59356689453125 64.28656005859375 C43.634691009521475 63.77482238769528 43.6758151245117 63.26308471679687 43.71818542480469 62.73583984375 C44.2072918285761 55.962819280215115 44.12677262842959 49.18207502256138 44.08184814453125 42.39593505859375 C44.07622917569347 41.053490112355576 44.072186258787724 39.711041901752594 44.06817626953125 38.36859130859375 C44.05732278545912 35.12766435182118 44.04072453307856 31.886808841521315 44.01934814453125 28.64593505859375 C38.79286835493855 26.191150536634552 33.7007274435299 24.701152756246245 28.07427978515625 23.49188232421875 C22.571507132216198 22.29411792973019 17.96129567032483 20.320529599293195 13.01934814453125 17.64593505859375 C10.65567906116621 16.393995003874977 8.284414649333144 15.156635215929612 5.90948486328125 13.92620849609375 C5.226962309817964 13.569681563404401 4.546635826864247 13.208921770176914 3.86846923828125 12.84417724609375 C-5.861338199227248 7.624661679331211 -5.861338199227248 7.624661679331211 -9.70819091796875 10.11737060546875 Z " transform="translate(368.98065185546875,247.35406494140625)" />
    <path d="M0 0 C1.9799999999999898 0 3.960000000000008 0 6 0 C7.808029147073398 2.3706938193991505 8.439633465046626 4.335542966644255 8.9375 7.25 C9.018308105468748 7.674746093750002 9.099116210937495 8.099492187500005 9.182373046875 8.537109375 C9.576306186074618 10.611750754331752 9.947429986744908 12.689374579658875 10.2998046875 14.771484375 C11.680092509181662 22.90031788484214 13.2709434823538 29.99433577187665 17.588623046875 37.093017578125 C18 38 18 38 18 40 C18.659999999999997 40 19.319999999999993 40 20 40 C20.2307421875 40.38671875 20.461484374999998 40.7734375 20.69921875 41.171875 C23.041630115521684 44.912326350477315 25.35421334081508 47.45990273745315 29 50 C29 50.65999999999997 29 51.31999999999999 29 52 C29.55687499999999 52.08249999999998 30.11375000000001 52.16500000000002 30.6875 52.25 C32.64151779943569 52.72964970660968 33.78689205557319 53.54907888576321 35.30078125 54.859375 C45.704193827668945 63.36830954912955 59.163703108729806 64.97197067977947 72 67 C72.99000000000001 67.99000000000001 73.98000000000002 68.98000000000002 75 70 C74.67000000000002 71.64999999999998 74.34000000000003 73.30000000000001 74 75 C71.86632594367302 75.81951215618523 70.23739004766941 76.10172035618996 67.9609375 75.94921875 C67.38504882812498 75.91143310546875 66.80916015625002 75.87364746093749 66.2158203125 75.834716796875 C65.60834960937501 75.78613525390625 65.00087890625002 75.7375537109375 64.375 75.6875 C64.06095214843754 75.66288696289064 64.06095214843754 75.66288696289064 62.4716796875 75.538330078125 C52.17175814182403 74.65355253394716 43.19360898197394 71.71251352851755 34 67 C34 66.34000000000003 34 65.68 34 65 C33.65968749999999 64.925234375 33.31937500000001 64.85046875 32.96875 64.7734375 C27.793422197930823 63.36949219199187 24.11613893217259 60.322162894494625 20 57 C20 56.34000000000003 20 55.68000000000001 20 55 C19.340000000000003 55 18.680000000000007 55 18 55 C16.83885555613108 53.61630664051614 15.699288134374797 52.21624425203618 14.5625 50.8125 C14.237011718750011 50.42513671874997 13.911523437499994 50.03777343749999 13.576171875 49.638671875 C11.34842700440808 46.85973239725132 10.358980475557871 44.549501464589355 10 41 C9.340000000000003 41 8.680000000000007 41 8 41 C7.327669069320933 39.377286384065826 6.663141248451467 37.75148833235056 6 36.125 C5.809218750000014 35.66480468750001 5.618437499999999 35.20460937500002 5.421875 34.73046875 C5.331640625000006 34.50810546874999 5.331640625000006 34.50810546874999 4.875 33.3828125 C4.791210937500011 33.17857666015624 4.791210937500011 33.17857666015624 4.3671875 32.14501953125 C4 31 4 31 4 29 C3.3400000000000034 29 2.680000000000007 29 2 29 C-0.49061917540319655 19.386386622601492 -1.4443296696822472 10.92108400921262 -1 1 C-0.6699999999999875 0.6700000000000159 -0.3400000000000034 0.339999999999975 0 0 Z " transform="translate(193,282)" />
  </g>
</svg>