<svg xmlns="http://www.w3.org/2000/svg" viewBox="0 0 282 224" width="282" height="224">
  <g fill="#000000" transform="scale(0.50000000, 0.50000000)">
    <path d="M0 0 C22.91002494628725 8.025804917489154 22.91002494628725 8.025804917489154 26.37646484375 13.43017578125 C27.0586130161806 15.090598464530686 26.975984744880463 16.49360112020544 26.94287109375 18.28173828125 C26.93384765625001 18.913378906250003 26.924824218750018 19.545019531250006 26.91552734375 20.19580078125 C26.903925781249995 20.677910156249993 26.89232421874999 21.16001953125 26.88037109375 21.65673828125 C47.499196707964074 24.453273286056188 67.82313432498586 25.971025075804164 88.6419677734375 25.7940673828125 C91.39197502618805 25.77305272498336 94.14202429603762 25.76435898684835 96.89208984375 25.75439453125 C102.22161981068322 25.733384872802006 107.55097475633139 25.699578619282505 112.88037109375 25.65673828125 C112.88037109375 26.316738281249997 112.88037109375 26.976738281249993 112.88037109375 27.65673828125 C113.17693603515625 27.671320800781245 113.47350097656249 27.685903320312505 113.779052734375 27.700927734375 C120.04482989419682 28.04410848456459 125.31048211031043 28.63417053938349 130.88037109375 31.65673828125 C130.88037109375 32.31673828125 130.88037109375 32.97673828124999 130.88037109375 33.65673828125 C131.06212890625 33.6754296875 131.06212890625 33.6754296875 131.98193359375 33.77001953125 C136.08878559382174 34.30706940818246 139.28524557622143 35.62969942562218 142.88037109375 37.65673828125 C142.88037109375 38.31673828125 142.88037109375 38.97673828124999 142.88037109375 39.65673828125 C143.14849609375 39.67091796874999 143.41662109375 39.68509765625001 143.69287109375 39.69970703125 C147.66743240845489 40.183452980737115 150.4320394587633 42.12356739667399 153.70068359375 44.25830078125 C159.16133924482426 47.81442258126839 165.0156178376658 50.827857298903496 170.88037109375 53.65673828125 C170.88037109375 54.31673828125 170.88037109375 54.97673828124999 170.88037109375 55.65673828125 C171.1564721679688 55.67599365234375 171.43257324218746 55.6952490234375 171.717041015625 55.715087890625 C176.20097677615797 56.29679257034604 179.53730323930984 58.75942566560548 183.19287109375 61.21923828125 C183.8440837809987 61.6490029897131 184.49577347184822 62.078045818958685 185.14794921875 62.50634765625 C186.73104556951785 63.54823644980195 188.3073663387254 64.59968163376533 189.88037109375 65.65673828125 C189.88037109375 66.31673828125 189.88037109375 66.97673828125 189.88037109375 67.65673828125 C190.18330078125 67.69412109375 190.48623046875002 67.73150390625 190.79833984375 67.77001953125 C194.35059355037959 68.3274501129057 196.91831174658842 69.6526215314683 199.88037109375 71.65673828125 C199.88037109375 72.31673828125 199.88037109375 72.97673828125 199.88037109375 73.65673828125 C200.19490234374996 73.69412109375 200.50943359375003 73.73150390625 200.83349609375 73.77001953125 C204.22095648797466 74.2903824231339 206.32725014678078 75.38888224455667 208.88037109375 77.65673828125 C208.88037109375 78.31673828125 208.88037109375 78.97673828125 208.88037109375 79.65673828125 C210.20037109375 80.31673828125 211.52037109375 80.97673828125 212.88037109375 81.65673828125 C215.12085365075285 87.24868648137277 215.50339625353655 92.80641400299646 213.88037109375 98.65673828125 C212.90192578649987 100.90641720858352 211.49051288887938 102.81443650635777 209.88037109375 104.65673828125 C208.56037109375 104.98673828124998 207.24037109375 105.31673828125 205.88037109375 105.65673828125 C205.55037109374996 106.64673828125001 205.22037109375003 107.63673828125002 204.88037109375 108.65673828125 C203.39537109375 108.82173828124999 203.39537109375 108.82173828124999 195.88037109375 109.65673828125 C195.86578857421875 110.65004150390627 195.8512060546875 111.6433447265625 195.836181640625 112.666748046875 C195.78420175643402 115.9758639378187 195.718833295482 119.28451173153732 195.64465618133545 122.59320163726807 C195.60022842667388 124.59619054713622 195.5609167912769 126.5989890159558 195.533935546875 128.602294921875 C195.50761990765204 130.5414036180448 195.46703251896412 132.47976804647126 195.4171848297119 134.41840934753418 C195.4007034095813 135.15216638073272 195.38907392336665 135.88605158013192 195.38275718688965 136.619966506958 C195.3206706480001 143.1800899432199 194.0323293468756 148.5594181649045 189.44287109375 153.46923828125 C186.91962485184376 155.7727423579452 184.64062352485848 157.53100596474226 181.13037109375 157.78173828125 C180.71787109374998 157.74048828125 180.30537109375 157.69923828125 179.88037109375 157.65673828125 C179.88037109375 158.31673828125 179.88037109375 158.97673828125 179.88037109375 159.65673828125 C177.24037109375 160.31673828125 174.60037109375003 160.97673828125 171.88037109375 161.65673828125 C171.88037109375 166.27673828125 171.88037109375 170.89673828125 171.88037109375 175.65673828125 C174.19037109375 175.65673828125 176.50037109375 175.65673828125 178.88037109375 175.65673828125 C180.53116374494857 176.1774581108227 181.6779369814774 176.58861408730388 183.13037109375 177.40673828125 C183.46681640625002 177.584306640625 183.80326171875004 177.761875 184.14990234375 177.94482421875 C186.70206867966994 179.36853269437592 188.53276976739483 181.0176856838045 189.88037109375 183.65673828125 C189.88037109375 184.31673828125 189.88037109375 184.97673828125 189.88037109375 185.65673828125 C190.54037109374997 185.65673828125 191.20037109375 185.65673828125 191.88037109375 185.65673828125 C193.85307704118833 191.1345199745832 194.115236937414 195.90252511148105 193.88037109375 201.65673828125 C194.35404546648363 202.14396233806656 194.82968689343818 202.6292745698887 195.30615234375 203.11376953125 C195.4384826660156 203.24900024414063 195.4384826660156 203.24900024414063 196.108154296875 203.933349609375 C196.96160541122578 204.73283606268558 197.78873107183995 205.23687673436154 198.88037109375 205.65673828125 C198.88037109375 206.31673828124997 198.88037109375 206.97673828125 198.88037109375 207.65673828125 C200.53037109374998 208.31673828124997 202.18037109375 208.97673828125 203.88037109375 209.65673828125 C208.7586299154757 215.33939084485598 209.5632072229247 221.1259557010677 211.88037109375 228.65673828125 C231.02037109375 228.98673828125004 250.16037109374997 229.31673828124997 269.88037109375 229.65673828125 C273.78862670240585 233.5649938899059 273.78862670240585 233.5649938899059 274.0034189224243 236.1209888458252 C274.0024971294403 236.69434408187863 274.0015753364563 237.26769931793217 274.00062561035156 237.85842895507813 C274.0013129425049 238.1879556274414 274.0013129425049 238.1879556274414 274.0047912597656 239.85556030273438 C274.0012523053481 240.58502242796487 273.99761749853894 241.31448409324446 273.993896484375 242.0439453125 C273.9936143869098 242.81270341291327 273.9937727881803 243.5814617828986 273.9943389892578 244.3502197265625 C273.99462608498226 246.43683518844705 273.98874355078874 248.52339325076758 273.9817650318146 250.60999536514282 C273.97551689803623 252.790765033524 273.97492653785196 254.9715359942664 273.97373962402344 257.1523132324219 C273.9706306176124 261.2817611147675 273.96242303140116 265.4111825462259 273.95239013433456 269.5406187772751 C273.94121563649935 274.2419021044907 273.9357151762343 278.94318668992776 273.9306946992874 283.6444799900055 C273.92024006117515 293.3152477540873 273.90264894466634 302.9859908915012 273.88037109375 312.65673828125 C273.22037109375 312.65673828125 272.56037109375 312.65673828125 271.88037109375 312.65673828125 C271.22037109375 313.97673828125 270.56037109375 315.29673828125 269.88037109375 316.65673828125 C167.91037109374997 316.65673828125 65.94037109375 316.65673828125 -39.11962890625 316.65673828125 C-40.43962890624999 315.33673828125 -41.75962890625 314.01673828125 -43.11962890625 312.65673828125 C-43.11962890625 231.65673828125 -43.11962890625 231.65673828125 -41.11962890625 229.65673828125 C-24.28962890625 229.49173828124998 -24.28962890625 229.49173828124998 60.88037109375 228.65673828125 C63.13037109375 225.28173828125 63.13037109375 225.28173828125 63.50537109375 222.46923828125 C63.54275390625 222.2043359375 63.54275390625 222.2043359375 63.73193359375 220.86376953125 C63.756425781250016 220.664609375 63.756425781250016 220.664609375 63.88037109375 219.65673828125 C64.54037109375 219.65673828125 65.20037109375 219.65673828125 65.88037109375 219.65673828125 C65.9235546875 219.43308593749998 65.9235546875 219.43308593749998 66.14208984375 218.30126953125 C67.39647593299284 212.90395690872805 69.63378445849105 209.85347760782463 74.31787109375 206.68408203125 C75.48900647462983 205.96875786395128 76.6648331668656 205.2929560046831 77.88037109375 204.65673828125 C79.75950433073365 201.48341600556557 80.06024407274913 199.41106469953854 79.81787109375 195.78173828125 C79.67822165336867 191.34949237984466 80.30429765978116 188.37029868606226 82.88037109375 184.65673828125 C83.14720703124999 184.21716796875 83.41404296874998 183.77759765625 83.68896484375 183.32470703125 C87.52910710753949 177.6754310787419 94.61203806968425 175.53723818846973 100.88037109375 173.65673828125 C100.88037109375 170.02673828125 100.88037109375 166.39673828125 100.88037109375 162.65673828125 C95.25827668044616 161.5323193985892 95.25827668044616 161.5323193985892 93.052978515625 161.483154296875 C92.80580833435059 161.47640937805176 92.80580833435059 161.47640937805176 91.55497741699219 161.44227600097656 C91.03716201782225 161.4318376159668 90.51934661865235 161.42139923095704 89.98583984375 161.41064453125 C88.85367101009885 161.37769385061603 87.72150974090803 161.34448241741657 86.58935546875 161.31103515625 C84.83216687610604 161.26386066767296 83.07500618252067 161.21939851967824 81.317626953125 161.179931640625 C75.21893437929626 161.0367054193018 69.48702571571715 160.845224822037 63.609130859375 159.140380859375 C60.863830129047585 158.37234799017875 58.0792318212186 158.06544277220996 55.25537109375 157.71923828125 C48.02845745134442 156.7663916986152 40.98245317605276 155.2846385839919 33.88037109375 153.65673828125 C33.88037109375 152.99673828125 33.88037109375 152.33673828125 33.88037109375 151.65673828125 C31.900371093749982 151.32673828125 29.92037109375002 150.99673828125 27.88037109375 150.65673828125 C25.570371093749998 148.34673828125 23.260371093749995 146.03673828125 20.88037109375 143.65673828125 C20.88037109375 142.99673828125 20.88037109375 142.33673828125 20.88037109375 141.65673828125 C20.533693847656252 141.677685546875 20.187016601562505 141.6986328125 19.829833984375 141.72021484375 C11.852163755188087 142.13696865304462 5.854588448599458 141.69349457966416 -1.11962890625 137.65673828125 C-1.284628906249992 136.50173828125 -1.284628906249992 136.50173828125 -2.11962890625 130.65673828125 C-13.999628906249995 130.98673828125 -25.879628906250005 131.31673828125 -38.11962890625 131.65673828125 C-39.769628906250006 130.66673828125 -41.41962890625 129.67673828125 -43.11962890625 128.65673828125 C-43.11962890625 126.67673828125001 -43.11962890625 124.69673828125002 -43.11962890625 122.65673828125 C-38.934200661586004 119.86645278480734 -34.6410543966377 120.42848039646975 -29.67041015625 120.2294921875 C-28.49133836841115 120.18185615268766 -27.31229992815966 120.13338563284296 -26.13330078125 120.083984375 C-18.12354839091273 119.74910564878283 -10.136354088620806 119.59093752735913 -2.11962890625 119.65673828125 C-1.789628906250016 117.67673828124998 -1.4596289062500034 115.69673828125002 -1.11962890625 113.65673828125 C1.88037109375 110.65673828125 1.88037109375 110.65673828125 19.88037109375 109.65673828125 C20.045371093749992 108.99673828125 20.045371093749992 108.99673828125 20.88037109375 105.65673828125 C19.89037109374999 104.33673828125 18.90037109375001 103.01673828125001 17.88037109375 101.65673828125 C17.88037109375 100.99673828125 17.88037109375 100.33673828125 17.88037109375 99.65673828125 C17.31447265624999 99.40794921874999 16.748574218750008 99.15916015624998 16.16552734375 98.90283203125 C13.521017712633352 97.57883051184021 11.482346546768127 95.7085116739901 9.31787109375 93.71923828125 C8.931796875000003 93.37183593750001 8.545722656250007 93.02443359375002 8.14794921875 92.66650390625 C5.996876032537216 90.7206438349059 3.911739908067659 88.7270470728389 1.88037109375 86.65673828125 C0.5603710937500068 86.32673828125002 -0.7596289062499864 85.99673828125 -2.11962890625 85.65673828125 C-2.284628906249992 86.31673828125 -2.284628906249992 86.31673828125 -3.11962890625 89.65673828125 C-5.874689007285809 91.3232136594375 -9.022617695896116 91.01626911422386 -12.11962890625 90.65673828125 C-13.901659363777696 90.06272812874079 -15.53590283831096 89.3244379489775 -17.22900390625 88.51220703125 C-19.335059476161064 87.51442374464867 -21.523356631423823 86.84853476832927 -23.74462890625 86.15673828125 C-26.763471275532964 85.19705622643414 -29.353780745667606 84.10480372163826 -32.00634765625 82.33642578125 C-33.20250814571587 81.60613832452347 -34.35908994621818 81.17490728863257 -35.68212890625 80.71923828125 C-38.46816827805159 79.68769838726018 -40.19861310444678 77.86751624310176 -42.11962890625 75.65673828125 C-42.37635645194095 71.50630962591305 -41.97323887905756 68.39705840495097 -40.11962890625 64.65673828125 C-39.45962890625 64.65673828125 -38.79962890625001 64.65673828125 -38.11962890625 64.65673828125 C-38.02166015624999 64.25583984374998 -37.92369140625 63.85494140625002 -37.82275390625 63.44189453125 C-36.79217202404682 59.52390651356376 -35.42041680950841 55.95116528124518 -33.72216796875 52.276123046875 C-32.35828221216252 49.287461460077566 -31.21229308794682 46.253876065232035 -30.11962890625 43.15673828125 C-28.496066638233984 38.57807049706017 -26.648378863257136 34.15725210376456 -24.61962890625 29.7451171875 C-23.775628873291254 27.9079335220068 -22.945232683266198 26.064752974209085 -22.11962890625 24.21923828125 C-21.954628906250008 23.850405273437502 -21.78962890625 23.481572265625005 -21.61962890625 23.1015625 C-20.202876017007355 19.904183665000232 -18.909712991043392 16.662970681453515 -17.62841796875 13.409423828125 C-10.982327381107154 -3.367019689890242 -10.982327381107154 -3.367019689890242 0 0 Z M-6.11962890625 11.65673828125 C-6.2752026367187455 12.078583984375001 -6.430776367187491 12.500429687500002 -6.591064453125 12.93505859375 C-9.730575757295242 21.42844477149056 -12.953930533218426 29.861696097616516 -16.501953125 38.19482421875 C-17.156246149158292 39.74340391387247 -17.797529970591484 41.29689834230247 -18.43603515625 42.85205078125 C-22.050820299773903 51.64038826218666 -22.050820299773903 51.64038826218666 -23.74462890625 54.71923828125 C-26.015567189388733 59.014555833929535 -26.952120531143123 63.96918589845217 -28.11962890625 68.65673828125 C-28.779628906249997 68.65673828125 -29.439628906249993 68.65673828125 -30.11962890625 68.65673828125 C-29.78962890625 69.97673828125 -29.459628906250003 71.29673828124999 -29.11962890625 72.65673828125 C-28.823789062499998 72.78371093750002 -28.823789062499998 72.78371093750002 -27.32666015625 73.42626953125 C-23.0797518004631 75.2690811079205 -19.021049190091333 77.13969293683624 -15.11962890625 79.65673828125 C-13.469628906249994 79.65673828125 -11.819628906249989 79.65673828125 -10.11962890625 79.65673828125 C-9.448718572870973 78.0333748853061 -8.782786153139853 76.40826585301363 -8.11962890625 74.78173828125 C-7.928847656250014 74.32154296875001 -7.738066406249999 73.86134765624999 -7.54150390625 73.38720703125 C-7.361035156250011 72.94248046875 -7.180566406249994 72.49775390625001 -6.99462890625 72.03955078125 C-6.827050781249994 71.6310791015625 -6.659472656249989 71.22260742187501 -6.48681640625 70.8017578125 C-6.11962890625 69.65673828125 -6.11962890625 69.65673828125 -6.11962890625 67.65673828125 C-5.459628906250003 67.65673828125 -4.799628906250007 67.65673828125 -4.11962890625 67.65673828125 C-3.9943481445312443 67.26518554687499 -3.8690673828124886 66.8736328125 -3.739990234375 66.47021484375 C-0.39396738441541856 56.072505742651074 3.1413152307249277 45.81066300033257 8.18896484375 36.09033203125 C9.076545672637849 34.249980821070096 9.834256509430304 32.375426470895746 10.56787109375 30.46923828125 C10.633693847656247 30.302465820312506 10.633693847656247 30.302465820312506 10.966796875 29.45849609375 C11.716632175643667 27.454225693913727 12.019223089325152 25.792414213191734 11.88037109375 23.65673828125 C12.540371093749997 23.65673828125 13.200371093749993 23.65673828125 13.88037109375 23.65673828125 C14.210371093749984 21.676738281249996 14.540371093749997 19.696738281249992 14.88037109375 17.65673828125 C13.27865415133897 16.983596451793957 11.674432723574824 16.318132220649375 10.06787109375 15.65673828125 C9.616054687499997 15.46595703125 9.164238281249993 15.275175781249999 8.69873046875 15.07861328125 C6.352410048714887 14.119533401527619 4.466483586081637 13.381802733892485 1.88037109375 13.65673828125 C1.88037109375 12.996738281250003 1.88037109375 12.336738281250007 1.88037109375 11.65673828125 C-4.11962890625 10.65673828125 -4.11962890625 10.65673828125 -6.11962890625 11.65673828125 Z M21.88037109375 29.65673828125 C11.495574689357255 46.390876763010496 11.495574689357255 46.390876763010496 11.88037109375 53.65673828125 C11.220371093750003 53.65673828125 10.560371093750007 53.65673828125 9.88037109375 53.65673828125 C9.397211250883345 55.21803090612954 8.919611096990593 56.78097454969368 8.44287109375 58.34423828125 C8.308164062499998 58.779296875 8.173457031249995 59.21435546875 8.03466796875 59.66259765625 C7.132069884963357 62.634566956523116 6.432414447958621 65.60034325757638 5.88037109375 68.65673828125 C5.220371093750003 68.65673828125 4.560371093750007 68.65673828125 3.88037109375 68.65673828125 C3.550371093750016 70.30673828125 3.2203710937500034 71.95673828125001 2.88037109375 73.65673828125 C3.194902343750016 73.89908203125 3.5094335937500034 74.14142578125 3.83349609375 74.39111328125 C5.884950479949566 75.99767394514123 7.88135942968438 77.59273965165738 9.69287109375 79.46923828125 C11.956086768518503 81.80635487601094 14.418489670091333 83.90465899160489 16.887451171875 86.019287109375 C18.600938491370016 87.49683813702904 20.243532310319523 89.00341880014764 21.82568359375 90.62158203125 C24.002907304843916 92.82535725101579 26.3420702685259 94.7803789495297 28.75537109375 96.71923828125 C29.164003906250002 97.0576171875 29.572636718750005 97.39599609375 29.99365234375 97.74462890625 C35.36722114185466 102.07194209724707 40.55137828097622 104.05592466440487 47.31787109375 105.21923828125 C51.65864947182132 105.99675743801816 55.87245017316525 106.88811962307437 60.100830078125 108.145751953125 C61.9614087657032 108.68000784461918 63.828617115362135 109.14119324892235 65.71240234375 109.58642578125 C72.21980212038824 111.12657027941276 78.5328858136917 112.69259373639633 84.693603515625 115.3583984375 C87.69854453624572 116.64650996295174 90.60582116816005 117.39051471006383 93.88037109375 117.65673828125 C93.88037109375 118.31673828125 93.88037109375 118.97673828125 93.88037109375 119.65673828125 C95.83705506021161 120.32831579963391 97.79596750371462 120.9931416420618 99.75537109375 121.65673828125 C100.03316406249999 121.75212890625 100.03316406249999 121.75212890625 101.43896484375 122.23486328125 C101.7064453125 122.32509765625 101.7064453125 122.32509765625 103.06005859375 122.78173828125 C103.55231933593751 122.94931640625 104.044580078125 123.11689453125001 104.5517578125 123.28955078125 C105.88037109375 123.65673828125 105.88037109375 123.65673828125 107.88037109375 123.65673828125 C107.88037109375 124.31673828125 107.88037109375 124.97673828125 107.88037109375 125.65673828125 C111.18037109375001 125.98673828124998 114.48037109375002 126.31673828125 117.88037109375 126.65673828125 C119.20037109375 125.00673828125 120.52037109374999 123.35673828124999 121.88037109375 121.65673828125 C120.96031652720939 115.21635631546559 120.48637373687859 113.36025613203685 115.88037109375 109.65673828125 C113.63018383079543 108.17879041668778 111.20359170670906 107.01827922814138 108.777099609375 105.861572265625 C107.67882248331875 105.33753506001517 106.58903802157184 104.79831215845778 105.49951171875 104.25634765625 C104.80007724939944 103.91366084277217 104.10022214415443 103.57183091732637 103.39990234375 103.23095703125 C103.07592971801756 103.07165206909178 102.75195709228515 102.9123471069336 102.41816711425781 102.74821472167969 C100.73923200923116 101.95288869513033 99.78136929240492 101.65673828125 97.88037109375 101.65673828125 C97.88037109375 100.99673828125 97.88037109375 100.33673828125 97.88037109375 99.65673828125 C97.61409912109374 99.526220703125 97.34782714843749 99.39570312500001 97.073486328125 99.26123046875 C92.03109063399711 96.78289352762926 87.05785599667382 94.2766990515378 82.25537109375 91.35595703125 C80.88037109375 90.65673828125 80.88037109375 90.65673828125 78.88037109375 90.65673828125 C78.88037109375 89.66673828124999 78.88037109375 88.67673828125001 78.88037109375 87.65673828125 C77.56037109375 86.99673828125 76.24037109375001 86.33673828125 74.88037109375 85.65673828125 C74.88037109375 79.16867404513889 74.88037109375 79.16867404513889 77.44287109375 76.02783203125 C86.41405355251698 67.47107919693696 101.98759426168908 68.4621502687838 113.44287109375 68.34423828125 C113.96735839843751 68.33461059570311 114.49184570312502 68.32498291015625 115.0322265625 68.3150634765625 C122.19028828955265 68.202694653762 128.51256825383302 69.03757848293583 135.399658203125 71.011474609375 C137.27845561500448 71.54134464136871 138.91240967827605 71.8134639329551 140.88037109375 71.65673828125 C140.88037109375 72.31673828125 140.88037109375 72.97673828125 140.88037109375 73.65673828125 C141.1915185546875 73.78201904296876 141.50266601562498 73.90729980468751 141.8232421875 74.036376953125 C147.92707303105578 76.50590851460032 153.93409060305174 79.04804699520906 159.7568359375 82.132080078125 C160.1404931640625 82.33228759765626 160.52415039062498 82.5324951171875 160.91943359375 82.73876953125 C161.2515283203125 82.91641845703126 161.583623046875 83.09406738281251 161.92578125 83.277099609375 C162.88037109375 83.65673828125 162.88037109375 83.65673828125 164.88037109375 83.65673828125 C164.88037109375 84.31673828125 164.88037109375 84.97673828125 164.88037109375 85.65673828125 C166.67010694471514 86.3286710620417 168.4624496565317 86.99335734947925 170.25537109375 87.65673828125 C170.76326171874996 87.84751953124999 171.27115234375003 88.03830078125 171.79443359375 88.23486328125 C172.28427734374998 88.41533203124999 172.77412109375 88.59580078125 173.27880859375 88.78173828125 C173.7291748046875 88.94931640625 174.17954101562498 89.11689453125001 174.6435546875 89.28955078125 C175.88037109375 89.65673828125 175.88037109375 89.65673828125 177.88037109375 89.65673828125 C177.88037109375 90.31673828125 177.88037109375 90.97673828125 177.88037109375 91.65673828125 C178.37666015625 91.82689453124999 178.87294921875002 91.99705078125001 179.38427734375 92.17236328125 C180.07108551483157 92.41543750251324 180.75723519893825 92.66037683813693 181.44287109375 92.90673828125 C181.80638671875 93.03733642578123 182.16990234374998 93.1679345703125 182.54443359375 93.302490234375 C185.03490996150884 94.23696122340993 187.15729630471174 95.39930440555591 189.38037109375 96.84423828125 C193.21328324554258 99.17231194388614 196.55672169273237 99.06102757589059 200.88037109375 98.65673828125 C204.12450730202505 95.41260207297495 204.43772699022077 94.0057165984249 204.88037109375 89.65673828125 C204.01764834062288 85.9593550535624 203.65750624687087 86.48958964609068 199.88037109375 83.65673828125 C199.22037109375003 83.65673828125 198.56037109375 83.65673828125 197.88037109375 83.65673828125 C197.88037109375 82.99673828125 197.88037109375 82.33673828125 197.88037109375 81.65673828125 C197.35830078125002 81.43759765625 196.83623046875 81.21845703125001 196.29833984375 80.99267578125 C191.76204469218385 79.0525790294171 187.35169162340787 76.93046764770367 183.00537109375 74.59423828125 C182.54155029296874 74.3491552734375 182.07772949218747 74.104072265625 181.599853515625 73.8515625 C179.25249147430122 72.56962414318573 177.4136438421043 71.31615671644488 175.60107421875 69.355712890625 C174.28361324259026 68.07797211327227 172.68415549683812 67.31110742272477 171.06787109375 66.46923828125 C170.27810466609094 66.04607025128684 169.489096866799 65.62148458728498 168.70068359375 65.19580078125 C168.26143554687496 64.95893554687501 167.82218750000004 64.7220703125 167.36962890625 64.47802734375 C165.64744526679635 63.52828541536934 163.94685726292767 62.545091155836076 162.24755859375 61.55517578125 C161.61320565832045 61.18692036710192 160.97884691633124 60.81867495509454 160.344482421875 60.450439453125 C159.3955229315772 59.8992925309706 158.44740540684916 59.34690594796456 157.50155639648438 58.790435791015625 C156.61051111637818 58.266695216305095 155.7165044407294 57.748375415958606 154.82177734375 57.23095703125 C154.30301025390622 56.92762451171875 153.7842431640625 56.624291992187494 153.249755859375 56.311767578125 C151.88037109375 55.65673828125 151.88037109375 55.65673828125 149.88037109375 55.65673828125 C149.88037109375 54.99673828125 149.88037109375 54.33673828125001 149.88037109375 53.65673828125 C148.5910762612083 52.98510562429804 147.29928399067876 52.31936495510972 146.00537109375 51.65673828125 C145.82296874999997 51.56134765625001 145.82296874999997 51.56134765625001 144.89990234375 51.07861328125 C144.54541015625 50.89814453125 144.19091796875 50.717675781249994 143.82568359375 50.53173828125 C143.50100097656252 50.364160156249994 143.176318359375 50.19658203125 142.841796875 50.02392578125 C141.88037109375 49.65673828125 141.88037109375 49.65673828125 139.88037109375 49.65673828125 C139.88037109375 48.99673828125 139.88037109375 48.33673828125001 139.88037109375 47.65673828125 C138.25765747781588 46.98440735057095 136.6318594261005 46.31987952970145 135.00537109375 45.65673828125 C134.54517578125 45.46595703125 134.08498046875002 45.27517578125 133.61083984375 45.07861328125 C133.3884765625 44.988378906250006 133.3884765625 44.988378906250006 132.26318359375 44.53173828125 C132.05894775390624 44.44794921875 132.05894775390624 44.44794921875 131.025390625 44.02392578125 C129.88037109375 43.65673828125 129.88037109375 43.65673828125 127.88037109375 43.65673828125 C127.88037109375 42.99673828125 127.88037109375 42.33673828125001 127.88037109375 41.65673828125 C113.80460537639374 36.88120215697663 113.80460537639374 36.88120215697663 107.88037109375 37.65673828125 C107.88037109375 36.99673828125 107.88037109375 36.33673828125001 107.88037109375 35.65673828125 C107.6394876098633 35.65784858703614 107.6394876098633 35.65784858703614 106.42047119140625 35.66346740722656 C101.77640781373788 35.68415028779188 97.13235428658663 35.69891995074795 92.48825454711914 35.708550453186035 C90.1033148671097 35.71366865169418 87.71841363309127 35.72055165414369 85.33349609375 35.732177734375 C50.30833632168441 35.897815493553 50.30833632168441 35.897815493553 35.38037109375 33.09423828125 C34.20120783498206 32.88355134702293 33.02152379282569 32.67643304288549 31.8411865234375 32.47242736816406 C30.813408461618764 32.29338609368075 29.787225312827644 32.10525209946567 28.76123046875 31.916259765625 C26.756090054632693 31.639589949918005 24.900779919077138 31.61217043951484 22.88037109375 31.65673828125 C22.550371093750016 30.996738281250003 22.220371093750003 30.336738281250007 21.88037109375 29.65673828125 Z M88.88037109375 80.65673828125 C89.21037109375001 82.30673828125 89.54037109375 83.95673828125001 89.88037109375 85.65673828125 C101.41698610927617 90.01397801672869 112.11832632145388 90.16239456941884 124.311279296875 89.931396484375 C126.75213349427742 89.88971833155375 129.19316634411882 89.87205053595514 131.63427734375 89.85205078125 C145.81130857730244 89.72580079769756 145.81130857730244 89.72580079769756 147.88037109375 87.65673828125 C138.89951303936795 82.98613771901736 130.25084685604588 78.51008433898733 119.93505859375 78.48876953125 C119.65010025024412 78.48710533142088 119.65010025024412 78.48710533142088 118.20803833007813 78.47868347167969 C117.00279542413591 78.4736349785573 115.79753862489122 78.47127450285194 114.59228515625 78.471435546875 C112.78181696233673 78.4692699150641 110.9719799760972 78.45115150913495 109.16162109375 78.43212890625 C102.15490575476545 78.39930634391871 95.6790971678995 78.93313134059014 88.88037109375 80.65673828125 Z M122.88037109375 99.65673828125 C123.18325047809134 100.45848129399849 123.49059841560717 101.25853707516367 123.7998046875 102.057861328125 C123.97047454833984 102.50356979370116 124.14114440917967 102.94927825927735 124.31698608398438 103.40849304199219 C125.11891507308928 105.18526030686746 126.07241248338136 106.14940798222625 127.50537109375 107.46923828125 C127.95138671874997 107.88818359375 128.39740234375 108.30712890625 128.85693359375 108.73876953125 C129.19466796874997 109.04169921875001 129.53240234375 109.34462890625 129.88037109375 109.65673828125 C131.92451622128203 115.8567487093843 132.86552706621035 122.16401686989238 130.13818359375 128.33642578125 C128.22121808863017 131.56788191845195 127.69346193389475 131.75019286117762 123.88037109375 133.65673828125 C123.88037109375 134.31673828125 123.88037109375 134.97673828125 123.88037109375 135.65673828125 C119.26835316695917 136.8584612621744 115.28364845524379 136.60945015505106 110.63037109375 135.84423828125 C110.111201171875 135.7618994140625 109.59203124999999 135.679560546875 109.05712890625 135.5947265625 C106.14012333318229 135.07133133800085 104.33826826119781 134.34453711947134 101.88037109375 132.65673828125 C100.01380851730636 132.00057588311813 98.11006647171322 131.51660317683812 96.19287109375 131.03173828125 C95.6817578125 130.89767578125 95.17064453124999 130.76361328125 94.64404296875 130.62548828125 C93.39070507791985 130.2975120107524 92.13626122494077 129.97477389427422 90.88037109375 129.65673828125 C90.88037109375 128.99673828125 90.88037109375 128.33673828125 90.88037109375 127.65673828125 C90.68141235351561 127.58624267578125 90.68141235351561 127.58624267578125 89.674560546875 127.2294921875 C88.17395033102167 126.69724960985093 86.67366576895617 126.16410101960952 85.173583984375 125.63037109375 C84.52885287040053 125.40117616451039 83.88399948589563 125.172324842481 83.239013671875 124.94384765625 C82.30272501266603 124.61210901708972 81.36693661072141 124.27895957786808 80.43115234375 123.94580078125 C79.87081298828124 123.7468017578125 79.31047363281249 123.54780273437501 78.733154296875 123.3427734375 C77.73400501843787 122.9728156733139 76.73668962723428 122.59624481956487 75.75473022460938 122.18281555175781 C72.54109647171697 120.83302854007206 69.34019438934592 119.94771584512688 65.94287109375 119.18408203125 C65.38148437500001 119.05610733032228 64.82009765625 118.92813262939453 64.24169921875 118.79627990722656 C63.055517447763265 118.5277203248886 61.86881836718112 118.26143649225935 60.681640625 117.997314453125 C58.910904221194585 117.60107078239002 57.1438108399127 117.1908475886442 55.37646484375 116.77978515625 C47.556958470409086 115.00533982655244 39.88904318835921 114.02931366574185 31.88037109375 113.65673828125 C31.550371093750016 113.98673828124998 31.220371093750003 114.31673828125 30.88037109375 114.65673828125 C30.88037109375 122.57673828125002 30.88037109375 130.49673828125 30.88037109375 138.65673828125 C31.87037109375001 139.64673828125 32.86037109375002 140.63673828125 33.88037109375 141.65673828125 C34.54037109375 141.65673828125 35.20037109374999 141.65673828125 35.88037109375 141.65673828125 C35.88037109375 142.31673828125 35.88037109375 142.97673828125 35.88037109375 143.65673828125 C36.25177215576173 143.7171580505371 36.623173217773456 143.77757781982422 37.005828857421875 143.83982849121094 C40.5081888964076 144.41018950709707 44.01001852418665 144.9836812606495 47.51128959655762 145.56068325042725 C49.31128575832639 145.85720559895472 51.111462791213825 146.1525194703369 52.912109375 146.445068359375 C54.65026906034464 146.72751082208927 56.387879262327374 147.0131317274611 58.12515640258789 147.30095100402832 C59.1096780024416 147.46320919168812 60.09473907154728 147.6221830095615 61.079803466796875 147.78111267089844 C61.680274963378906 147.8811408996582 62.28074645996094 147.98116912841797 62.8994140625 148.084228515625 C63.42791961669923 148.17083236694336 63.95642517089843 148.25743621826172 64.50094604492188 148.34666442871094 C65.88037109375 148.65673828125 65.88037109375 148.65673828125 66.75525093078613 149.1566343307495 C68.271845145969 149.83074433542774 69.60545635996158 149.8708510263475 71.26171875 149.96847534179688 C71.59967342376709 149.98893897295 71.93762809753417 150.0094026041031 72.28582382202148 150.03048634529114 C73.4134585499508 150.0962794698313 74.54130611564239 150.15425253400798 75.66943359375 150.2109375 C76.06435626983642 150.23189979314805 76.45927894592285 150.2528620862961 76.86616897583008 150.2744596004486 C86.51251361493146 150.77908336044388 96.15610863724413 150.80442991600893 105.81321716308594 150.79106378555298 C108.28124079315995 150.78847451245753 110.74926132144537 150.7908943264438 113.21728515625 150.79244995117188 C117.33838589486254 150.79424750876265 121.45946845011434 150.79192410301962 125.58056640625 150.787109375 C130.33993261145645 150.78161311549167 135.09925632563647 150.7834773908006 139.85862159729004 150.7889357805252 C143.97618282443398 150.7934675205785 148.09373126222675 150.7941189008363 152.21129417419434 150.7914971113205 C154.6580207871063 150.7899420724306 157.10472732794437 150.78972052516198 159.55145263671875 150.79303359985352 C161.83675784664706 150.79591513374518 164.1220074846359 150.79393156543506 166.40730667114258 150.78813934326172 C167.24501070762665 150.78681575342074 168.08271941472378 150.78719909121304 168.9204216003418 150.78940200805664 C170.0617573939196 150.7921278309331 171.20291396287257 150.78871579071546 172.34423828125 150.78372192382813 C172.66347259521484 150.78353341102599 172.66347259521484 150.78353341102599 174.27899169921875 150.78257942199707 C175.78178756738782 150.66448526704153 176.62182733075605 150.4517191233533 177.88037109375 149.65673828125 C177.88037109375 148.99673828125 177.88037109375 148.33673828125 177.88037109375 147.65673828125 C179.20037109375 147.32673828125002 180.52037109375 146.99673828125 181.88037109375 146.65673828125 C183.6087957242138 141.4755699115461 184.35524148211488 136.59519705472076 184.63037109375 131.15673828125 C184.65227508544922 130.7722149658203 184.67417907714844 130.38769165039062 184.69674682617188 129.99151611328125 C185.78055418024564 110.01753868148313 185.78055418024564 110.01753868148313 182.21630859375 105.88720703125 C178.42072787466816 101.76761332395384 174.64643982422103 99.57299350178329 169.04615211486816 99.34037494659424 C166.4819196172695 99.29716201995853 163.92104953483744 99.32565008370028 161.35693359375 99.36376953125 C160.24450251603707 99.36937362438425 159.1320639704329 99.37363987718817 158.01962280273438 99.37663269042969 C155.10963035032245 99.38801785089697 152.2000961683205 99.41742845102803 149.290283203125 99.45074462890625 C146.3138651211076 99.48158359344092 143.33737207437895 99.49516734264404 140.36083984375 99.51025390625 C134.5338169789569 99.54230592431469 128.70713233270192 99.59342368691114 122.88037109375 99.65673828125 Z M8.88037109375 120.65673828125 C7.88037109375 122.65673828125 7.88037109375 122.65673828125 8.88037109375 130.65673828125 C9.210371093749984 130.98673828125 9.540371093749997 131.31673828125 9.88037109375 131.65673828125 C13.510371093749995 131.65673828125 17.14037109374999 131.65673828125 20.88037109375 131.65673828125 C20.88037109375 128.35673828125 20.88037109375 125.05673828125 20.88037109375 121.65673828125 C20.550371093750016 121.32673828125002 20.220371093750003 120.99673828125 19.88037109375 120.65673828125 C16.250371093750005 120.65673828125 12.620371093750009 120.65673828125 8.88037109375 120.65673828125 Z M113.88037109375 160.65673828125 C110.78019188746029 163.7569174875397 112.24446867656047 169.28756728752433 111.88037109375 173.65673828125 C116.09312084911767 177.86948803661764 120.98676184934777 176.69303064805047 126.72365856170654 176.70855045318604 C128.55839270556862 176.71368595602965 130.39307747680903 176.72060460624968 132.227783203125 176.732177734375 C141.50167801636053 176.78916209665056 150.63939836500788 176.56237582729918 159.88037109375 175.65673828125 C160.21037109374998 175.32673828125 160.54037109374997 174.99673828125 160.88037109375 174.65673828125 C160.88037109375 170.36673828125 160.88037109375 166.07673828125 160.88037109375 161.65673828125 C160.71537109375004 161.49173828125 160.71537109375004 161.49173828125 159.88037109375 160.65673828125 C144.70037109375 160.65673828125 129.52037109375 160.65673828125 113.88037109375 160.65673828125 Z M93.88037109375 187.65673828125 C90.88037109375 191.65673828125 90.88037109375 191.65673828125 89.88037109375 201.65673828125 C94.40234879812266 203.9249066590727 98.50669301230468 203.92943878571214 103.434326171875 203.8837890625 C104.2921955027009 203.88322408414166 105.15006579882214 203.88354319920222 106.0079345703125 203.88467407226563 C108.3237662737381 203.8852452198107 110.63938855874704 203.87353002740235 112.95517182350159 203.85952615737915 C115.3801530344819 203.84697873320272 117.80513964994282 203.84584515312451 120.23014831542969 203.84347534179688 C124.81639559969187 203.8372722958195 129.40254693248784 203.82087756613402 133.98875206708908 203.80077636241913 C139.21245518020885 203.77838059715157 144.4361630025915 203.76741471898742 149.65990221500397 203.75738549232483 C181.84227551936016 203.69483385563979 181.84227551936016 203.69483385563979 182.88037109375 202.65673828125 C182.9095773583116 200.8859399945245 182.9272383544635 199.1152043175648 182.94287109375 197.34423828125 C182.94706054687504 197.094482421875 182.94706054687504 197.094482421875 182.96826171875 195.83056640625 C182.96987304687502 195.58725585937498 182.96987304687502 195.58725585937498 182.97802734375 194.35595703125 C182.98064575195315 194.13339233398438 182.98064575195315 194.13339233398438 182.993896484375 193.007080078125 C182.86227779662886 191.44152532129937 182.3954080353201 190.135904989614 181.88037109375 188.65673828125 C177.40237877193846 185.9345203054215 173.83529913272605 185.22304602703673 168.640869140625 185.284423828125 C167.93537867847198 185.28198913379399 167.2298916947584 185.27826327790518 166.5244140625 185.2733612060547 C164.625277251248 185.2640350930222 162.72666344696398 185.27330862204653 160.82756781578064 185.28669333457947 C158.8258670264937 185.29811395755462 156.82418806315923 185.29389187670031 154.8224639892578 185.2919464111328 C151.4592752949534 185.29106612967124 148.09628915271526 185.30208232999905 144.733154296875 185.320556640625 C140.86819902996535 185.34166868439212 137.00354120381235 185.34524363593317 133.1385399699211 185.33899468183517 C129.39562802779 185.3332571537933 125.65281878039536 185.33900110357203 121.90992164611816 185.3501682281494 C120.3292121874257 185.35476195825237 118.74856663166474 185.35571109844477 117.1678524017334 185.35358238220215 C101.38763794748607 185.3407291151547 101.38763794748607 185.3407291151547 93.88037109375 187.65673828125 Z M77.88037109375 215.65673828125 C77.19219125146856 216.66750242460085 76.53271964356946 217.6856184506239 75.88037109375 218.71923828125 C75.68958984375001 218.994453125 75.49880859375 219.26966796875 75.30224609375 219.55322265625 C73.91297776659769 221.81078368787252 73.78267206959129 223.65130138999325 73.82568359375 226.295166015625 C73.83357910156252 226.9248680114746 73.84147460937498 227.55457000732423 73.849609375 228.20335388183594 C73.85976074218752 228.6829707336426 73.86991210937498 229.16258758544922 73.88037109375 229.65673828125 C74.15582417488099 229.65158454895015 74.43127725601198 229.64643081665042 74.71507740020752 229.64112091064453 C83.8741809321586 229.4702692928421 93.03345598526244 229.3098800835495 102.19287109375 229.15673828125 C102.54795368194578 229.15078974246978 102.9030362701416 229.14484120368957 103.26887893676758 229.13871240615845 C125.97366360978674 228.75905452631542 148.67237221380344 228.56414651530008 171.38037109375 228.59423828125 C172.0310971450806 228.59509429931643 172.68182319641113 228.5959503173828 173.35226821899414 228.59683227539063 C181.19499923713812 228.60794098116594 189.0376868721424 228.62756832188722 196.88037109375 228.65673828125 C197.87037109375 227.99673828125003 198.86037109375002 227.33673828125 199.88037109375 226.65673828125 C199.55037109375002 225.50173828125003 199.55037109375002 225.50173828125003 197.88037109375 219.65673828125 C196.89037109375 219.32673828124996 195.90037109374998 218.99673828125003 194.88037109375 218.65673828125 C194.88037109375 217.66673828125 194.88037109375 216.67673828124998 194.88037109375 215.65673828125 C190.13943525899106 212.87934197533684 184.8674492448859 213.37489785201183 179.56982421875 213.39794921875 C178.5230230422997 213.39523631317854 177.47622377661588 213.39167369813094 176.42942810058594 213.3873291015625 C173.59678624554738 213.37823834228152 170.7642906455144 213.38173555580755 167.9316463470459 213.38808727264404 C164.96179191200162 213.39316449121037 161.99194967399717 213.3884510414361 159.0220947265625 213.38531494140625 C154.03554037374522 213.3816803038422 149.04904533914237 213.38646117494142 144.0625 213.39599609375 C138.30425337849306 213.40687972379533 132.5461484068096 213.4033537874816 126.78790521621704 213.39234328269958 C121.83658720950348 213.38325605862082 116.88531174913408 213.3819921346892 111.93398809432983 213.387220621109 C108.98002139527861 213.3903324463646 106.0261211932216 213.39077139577626 103.07215881347656 213.38414764404297 C100.29450438509133 213.37835386204995 97.51703190336528 213.38240792575476 94.7393970489502 213.39393615722656 C93.72235986335008 213.39657192599452 92.70530726400384 213.39583619821872 91.68827629089355 213.39141082763672 C81.81377923019826 213.35241828861808 81.81377923019826 213.35241828861808 77.88037109375 215.65673828125 Z M238.8137969970703 238.6947021484375 C237.6369849428737 238.69884350154098 236.4601728283327 238.70296773568361 235.28336066007614 238.70707654953003 C232.0815675276869 238.71830417680906 228.87977529380595 238.72977153938092 225.6779831647873 238.74128127098083 C222.57006990827256 238.75243424726136 219.4621558599506 238.7633633785755 216.35424189735204 238.77431745827198 C210.0051254789215 238.79670167986 203.65600971053652 238.81926538158575 197.30689430236816 238.84193420410156 C191.02766768070705 238.86435289956125 184.74844077763674 238.8866900857821 178.46921348571777 238.90892028808594 C178.07763348306992 238.91030663486572 177.68605348042212 238.9116929816455 177.282607417088 238.9131213389337 C175.29367325580108 238.9201625270369 173.30473908942645 238.92720227698885 171.3158049210906 238.93424147367477 C157.25716691890443 238.98400010947705 143.1985295610874 239.03393866810472 129.139892578125 239.083984375 C115.48885123607386 239.13257871448263 101.83780960546252 239.18109072352593 88.186767578125 239.2294921875 C87.76539654293097 239.2309862434119 87.34402550773694 239.2324802993238 86.90988565329462 239.23401962965727 C82.67799929763993 239.24902454507117 78.44611293608745 239.26402779655393 74.21422657021321 239.2790298294276 C65.59469654484585 239.30958609247278 56.97516655885431 239.34015345555224 48.35563659667969 239.3707275390625 C48.15751500881743 239.3714302835241 48.15751500881743 239.3714302835241 47.154899700544775 239.3749865964055 C35.01861562494932 239.4180350204207 22.8823317169269 239.46113045584354 10.746047973632813 239.5042724609375 C10.401733551984648 239.50549640990795 10.057419130336484 239.5067203588784 9.702670938335359 239.50798139721155 C-4.238095779961327 239.55753794196107 -18.178862320811064 239.60714437970375 -32.11962890625 239.65673828125 C-32.44962890625 261.43673828125 -32.77962890625 283.21673828125 -33.11962890625 305.65673828125 C-29.184387845563947 306.31261179136436 -25.77416011581232 306.80269721592 -21.867921829223633 306.7797861099243 C-21.620490298867225 306.7803630320728 -21.620490298867225 306.7803630320728 -20.36833679676056 306.7832826077938 C-18.721037871383828 306.7859156092942 -17.073837997892554 306.78145475273436 -15.426544189453125 306.77699279785156 C-14.229298320330827 306.777429178916 -13.032052544721125 306.7783053193589 -11.834807276725769 306.77958196401596 C-9.23749746872926 306.7813484374408 -6.640208398373488 306.780026840017 -4.042901992797852 306.7759437561035 C-0.18085181337019662 306.76988938085776 3.681183974203634 306.7696097440559 7.5432380344718695 306.7704857448116 C14.040954123052927 306.7717973779612 20.538660015942128 306.76846686244653 27.036373138427734 306.7624683380127 C33.46766078216433 306.7565463866099 39.89894417712475 306.752701396493 46.33023452758789 306.751615524292 C46.53035541834777 306.75158115447266 46.53035541834777 306.75158115447266 47.543088410981 306.75140722235665 C49.575807635255444 306.7510688778017 51.60852686322727 306.7507674983131 53.64124609529972 306.75048034638166 C68.02987658703762 306.748381294954 82.4185015357493 306.74164773277164 96.80712890625 306.732177734375 C110.78336558608319 306.72298978741287 124.75960074778095 306.7159078949371 138.73583984375 306.711669921875 C139.16683284526687 306.7115383957047 139.59782584678385 306.7114068695344 140.0418792422861 306.7112713577226 C144.37018409042355 306.7099528102036 148.69848895029168 306.708677000232 153.02679382031783 306.7074324984569 C161.84363777430917 306.70489645089043 170.6604816294436 306.70207519884127 179.47732543945313 306.69908142089844 C179.8826879985072 306.6989441309404 180.28805055756118 306.6988068409823 180.705696830526 306.69866539072245 C207.7639239120316 306.68946850637855 234.82214783813316 306.67360291521413 261.88037109375 306.65673828125 C262.2126325716772 305.70529100754766 262.54099262916975 304.7524807256759 262.867712020874 303.79911613464355 C263.0509871804714 303.26867002367976 263.2342623400688 302.7382239127159 263.4230912923813 302.19170367717743 C264.0339021028814 300.1413759461695 264.1125398719936 298.33173881055376 264.015625 296.2119140625 C264.006163482666 295.81114151000975 263.996701965332 295.41036895751955 263.98695373535156 294.99745178222656 C263.9537990592153 293.6984649764845 263.9055574614183 292.40054204266056 263.85693359375 291.10205078125 C263.8307117301742 290.19142274663346 263.8054492738485 289.28076663038485 263.7810974121094 288.3700866699219 C263.7149800489118 285.99259419946543 263.63597921741706 283.615704691434 263.55413818359375 281.23870849609375 C263.47269042438853 278.8053674948578 263.4036407318107 276.37167668739266 263.33349609375 273.93798828125 C262.91755364957424 259.69392083707424 262.91755364957424 259.69392083707424 261.88037109375 258.65673828125 C261.55752954483035 258.65719917774203 261.55752954483035 258.65719917774203 259.92375564575195 258.65953159332275 C244.592395048423 258.6811950749789 229.26103858630466 258.69768162095295 213.92966635525227 258.7078036107123 C212.04214082460243 258.7090542992546 210.15461532622862 258.7103486233267 208.26708984375 258.711669921875 C207.89132162421942 258.7119322323054 207.51555340468883 258.7121945427358 207.1283982694149 258.71246480196714 C201.04609411131355 258.7168146720963 194.96379941647558 258.72469847511655 188.8815008699894 258.73389107733965 C182.63929364507032 258.7432465927293 176.3970913723448 258.74879791717495 170.1548774242401 258.7508267760277 C166.30391042531778 258.7521980557212 162.45297017634948 258.7565272866975 158.60201141238213 258.76465474814177 C155.64779964334997 258.7705715649946 152.693601562501 258.77119242843725 149.73938369750977 258.7698459625244 C148.52841909159605 258.7701210943824 147.31745347369156 258.77211049261854 146.10649490356445 258.7759437561035 C144.45257155361833 258.78092245811064 142.79876244694503 258.7797211853383 141.14483642578125 258.77699279785156 C140.9055323660374 258.7784492185712 140.9055323660374 258.7784492185712 139.69450879096985 258.7858195900917 C136.9199327144409 258.7734574036929 134.54453286721395 258.441944822365 131.88037109375 257.65673828125 C131.6829672045343 256.8883816047642 131.49791840420158 256.11684636027644 131.31787109375 255.34423828125 C131.21345703124996 254.91498046875 131.10904296875003 254.48572265625 131.00146484375 254.04345703125 C130.88037109375 252.65673828125006 130.88037109375 252.65673828125006 131.88037109375 249.65673828125 C175.11037109375002 249.32673828124996 218.34037109375004 248.99673828125003 262.88037109375 248.65673828125 C263.21037109375 248.32673828124996 263.54037109375 247.99673828125003 263.88037109375 247.65673828125 C263.88037109375 245.34673828125 263.88037109375 243.03673828125 263.88037109375 240.65673828125 C261.25460900361054 238.03097619111054 259.14378386240287 238.65460363385216 255.62981612607837 238.65418723225594 C250.02442802397132 238.65505168778947 244.419142053477 238.67428394745002 238.8137969970703 238.6947021484375 Z " transform="translate(145.11962890625,69.34326171875)" />
    <path d="M0 0 C0.660000000000025 0 1.3199999999999932 0 2 0 C3.7788646278919487 2.3794214894452352 4.562663420227921 4.601974416839084 5.375 7.4375 C6.5100791815553976 11.025418863326166 7.557805007335787 14.053008457274302 11 16 C13.307831766554898 16.860463137099146 15.588476232730955 17.48518031934705 18 18 C18 18.659999999999997 18 19.319999999999993 18 20 C18.659999999999968 20 19.319999999999993 20 20 20 C20 21.650000000000006 20 23.30000000000001 20 25 C18 27 18 27 10 28 C10 28.659999999999997 10 29.319999999999993 10 30 C9.339999999999975 30.329999999999984 8.680000000000007 30.659999999999997 8 31 C7.722851562500011 31.56589843750001 7.445703125000023 32.13179687499999 7.16015625 32.71484375 C6.794376848226648 33.45578151256649 6.428485611794656 34.196664073010794 6.0625 34.9375 C5.880097656249973 35.310683593750014 5.697695312500002 35.68386718750003 5.509765625 36.068359375 C5.33251953125 36.42607421874999 5.1552734375 36.78378906249998 4.97265625 37.15234375 C4.810314941406261 37.48226318359377 4.647973632812523 37.81218261718749 4.480712890625 38.152099609375 C4 39 4 39 3 40 C1.3500000000000227 40 -0.30000000000001137 40 -2 40 C-2.671251796958643 38.5436233333844 -3.337099647282571 37.085172398553254 -4 35.625 C-4.095390624999993 35.41874999999999 -4.095390624999993 35.41874999999999 -4.578125 34.375 C-4.758593749999989 33.97539062499999 -4.939062499999977 33.575781250000006 -5.125 33.1640625 C-5.292578124999977 32.7974853515625 -5.460156250000011 32.430908203125 -5.6328125 32.05322265625 C-6 31 -6 31 -6 29 C-9.300000000000011 28.340000000000003 -12.600000000000023 27.680000000000007 -16 27 C-16.99000000000001 25.349999999999994 -17.980000000000018 23.69999999999999 -19 22 C-15 18 -15 18 -6 16 C-5.009999999999991 11.710000000000008 -4.019999999999982 7.4199999999999875 -3 3 C-2.009999999999991 2.009999999999991 -1.0199999999999818 1.0200000000000102 0 0 Z " transform="translate(367,221)" />
    <path d="M0 0 C4 2 4 2 7 8 C7.493710937499998 8.204960937500005 7.9874218749999955 8.409921875000009 8.49609375 8.62109375 C9.143283103578085 8.893100869619786 9.790415579906949 9.165243345753424 10.4375 9.4375 C10.762988281249989 9.572207031250002 11.088476562499977 9.706914062500005 11.423828125 9.845703125 C12.834854726380172 10.442116430737997 13.906289946056518 10.906289946056518 15 12 C15 13.649999999999977 15 15.300000000000011 15 17 C14.066544129472277 17.50750998785975 13.128023277576688 18.00571039426626 12.1875 18.5 C11.665429687500023 18.778437499999995 11.143359374999989 19.05687499999999 10.60546875 19.34375 C8.929267023766329 20.028912749409358 7.790225322106835 20.129025248440144 6 20 C5.951015625000025 20.32613281250002 5.902031249999993 20.652265624999984 5.8515625 20.98828125 C5.367566308539324 23.81715554146831 4.782544583926892 25.74211019369261 3 28 C1.6800000000000068 28 0.36000000000001364 28 -1 28 C-1 27.00999999999999 -1 26.019999999999982 -1 25 C-1.660000000000025 25 -2.319999999999993 25 -3 25 C-3.329999999999984 23.350000000000023 -3.660000000000025 21.69999999999999 -4 20 C-4.470507812499989 19.89042968749999 -4.941015624999977 19.780859374999977 -5.42578125 19.66796875 C-9.0346593938404 18.748937669891575 -11.64340522232493 18.049710888755953 -14 15 C-12.350000000000023 13.350000000000023 -10.699999999999989 11.699999999999989 -9 10 C-7.680000000000007 10 -6.360000000000014 10 -5 10 C-4.339999999999975 7.360000000000014 -3.680000000000007 4.720000000000027 -3 2 C-2.009999999999991 1.339999999999975 -1.0199999999999818 0.6800000000000068 0 0 Z " transform="translate(396,259)" />
  </g>
</svg>