<svg xmlns="http://www.w3.org/2000/svg" viewBox="0 0 120 149" width="120" height="149">
  <g fill="#000000" transform="scale(0.50000000, 0.50000000)">
    <path d="M0 0 C2.3100000000000023 0 4.6200000000000045 0 7 0 C7.329999999999998 7.590000000000003 7.659999999999997 15.180000000000007 8 23 C11.299999999999997 23 14.599999999999994 23 18 23 C18 16.400000000000006 18 9.799999999999997 18 3 C18.659999999999997 2.009999999999998 19.319999999999993 1.0200000000000031 20 0 C20.825000000000003 0.16499999999999915 20.825000000000003 0.16499999999999915 25 1 C25 1.6599999999999966 25 2.3200000000000003 25 3 C25.70125 3.1856250000000017 26.402500000000003 3.3712500000000034 27.125 3.5625 C31.09640051147686 5.548200255738429 33.30734180120328 8.539332761683951 36 12 C36 13.319999999999993 36 14.64 36 16 C36.66 16 37.31999999999999 16 38 16 C39.762732918924186 23.89161968318365 40.24817531846425 30.18326735426278 38 38 C37.34 38 36.68000000000001 38 36 38 C35.95875000000001 38.68062499999999 35.91749999999999 39.36125 35.875 40.0625 C34.634473224510515 44.22712560342896 32.06437909342 46.97626253911872 29 50 C28.67 50.16499999999999 28.67 50.16499999999999 27 51 C26.67 84 26.340000000000003 117 26 151 C25.340000000000003 151 24.680000000000007 151 24 151 C23.67 152.65 23.340000000000003 154.3 23 156 C17.93069897180513 160.0554408225559 16.10537474658068 160.68106251323832 10 161 C5.425356360637366 159.93612938619475 3.0915917443526553 157.35658532244003 0 154 C0 152.68 0 151.36 0 150 C-0.990000000000002 149.67 -1.980000000000004 149.34 -3 149 C-3 116.66 -3 84.32 -3 51 C-4.649999999999999 49.349999999999994 -6.299999999999997 47.7 -8 46 C-9.36328125 44.12109375 -9.36328125 44.12109375 -10.3125 42.4375 C-10.6386328125 41.8793359375 -10.964765624999998 41.321171875000005 -11.30078125 40.74609375 C-12.111006068168201 38.722794902395606 -12.127623714629053 37.16014954020285 -12 35 C-12.990000000000002 34.67 -13.979999999999997 34.34 -15 34 C-15.027016086466524 31.895747042996106 -15.04684601869981 29.791842343354077 -15.0625 27.6875 C-15.070878906250002 27.092597656250007 -15.079257812500003 26.4976953125 -15.087890625 25.884765625 C-15.104269229636081 22.95299539514167 -14.936682194561477 20.810046583684425 -14 18 C-13.340000000000003 18 -12.68 18 -12 18 C-11.876249999999999 17.257499999999993 -11.752499999999998 16.515 -11.625 15.75 C-11.045132989345149 13.198585153118671 -10.262912609435098 11.273242696983175 -9 9 C-8.009999999999998 9 -7.019999999999996 9 -6 9 C-5.670000000000002 7.68 -5.340000000000003 6.359999999999999 -5 5 C-4.340000000000003 4.340000000000003 -3.6799999999999997 3.6799999999999997 -3 3 C-2.009999999999998 3 -1.019999999999996 3 0 3 C0 2.009999999999998 0 1.0200000000000031 0 0 Z M-1 11 C-4.948250510332485 15.343075561365737 -7 19.432449812354648 -7 25.390625 C-6.58680895670917 31.003136671367088 -5.279831643279508 35.86679416167256 -3 41 C-2.3400000000000034 41 -1.6799999999999997 41 -1 41 C-1 41.66 -1 42.31999999999999 -1 43 C-0.00999999999999801 43 0.980000000000004 43 2 43 C2 43.66 2 44.31999999999999 2 45 C2.990000000000009 45 3.980000000000004 45 5 45 C4.997234621047966 45.520149936676034 4.994469242095946 46.04029987335204 4.991620063781738 46.57621192932129 C4.925299456268121 59.246292342306475 4.8756899167523216 71.91635723654983 4.8445634841918945 84.58657264709473 C4.829109951099909 90.71386584484719 4.80804964352771 96.84104300833798 4.773681640625 102.96826171875 C4.740529318585658 108.88157627396163 4.723145414305137 114.79477020162881 4.715368270874023 120.70817184448242 C4.709826029657151 122.964012370749 4.699003438472829 125.21984631779591 4.682809829711914 127.47563552856445 C4.661026905703167 130.63575740014926 4.658033492517248 133.79538151244284 4.659423828125 136.95556640625 C4.64863800048829 137.8877700805664 4.6378521728515665 138.81997375488282 4.626739501953125 139.78042602539063 C4.651817741597071 145.0496122011301 5.196459975492132 148.50242853140432 8 153 C14.000000000000014 153 14.000000000000014 153 18 150 C18.770057115536545 143.38718141122789 19.141907944073765 136.89095235535473 19.113525390625 130.23583984375 C19.113671417236333 129.31754394531248 19.11381744384765 128.39924804687502 19.113967895507813 127.453125 C19.113278206234895 124.45570407036752 19.10553057159592 121.45834740439273 19.09765625 118.4609375 C19.095788710546827 116.3677269890382 19.09436639439052 114.2745160378532 19.093368530273438 112.18130493164063 C19.08956980655742 106.70036591353991 19.079762381098362 101.21945384093502 19.06866455078125 95.738525390625 C19.05839328928778 90.13428105020955 19.053858715149417 84.53003231139218 19.048828125 78.92578125 C19.03813750183852 67.95050940849154 19.021288328263793 56.97525614477691 19 46 C19.825000000000003 45.83500000000001 19.825000000000003 45.83500000000001 24 45 C24.987128779655123 43.75627811248346 25.964399046707484 42.504727817421895 26.9375 41.25 C27.210136718749993 40.901953125000006 27.210136718749993 40.901953125000006 28.58984375 39.140625 C31.157939512194673 35.242241405311134 31.158503637276112 31.661323128009656 31.1875 27.0625 C31.20167968749999 26.042851562500005 31.215859375000008 25.02320312500001 31.23046875 23.97265625 C30.99444914094491 20.928403326425 30.2825299518598 18.752623572568666 29 16 C27.680000000000007 15.340000000000003 26.36 14.680000000000007 25 14 C25.017402343750007 14.320332031250004 25.017402343750007 14.320332031250004 25.10546875 15.94140625 C25.28987570912618 21.83364765826981 24.730445797546565 25.766645554702407 22 31 C18.1050280818626 32.274900602070744 14.297091531452807 32.112227967777784 10.25 32.0625 C9.552617187500005 32.057988281250005 8.855234375000009 32.053476562499995 8.13671875 32.048828125 C6.424441974450815 32.037100201879795 4.712209667225977 32.01916652612566 3 32 C3 31.010000000000005 3 30.019999999999996 3 29 C2.3400000000000034 28.67 1.6800000000000068 28.340000000000003 1 28 C0.6700000000000017 22.39 0.3400000000000034 16.78 0 11 C-0.3299999999999983 11 -0.6599999999999966 11 -1 11 Z " transform="translate(63,56)" />
    <path d="M0 0 C1.6500000000000057 0 3.3000000000000114 0 5 0 C10.559314967330323 8.338972450995485 7 19.977802414418065 7 30 C8.319999999999993 30.33 9.639999999999986 30.659999999999997 11 31 C13 34 13 34 13 45 C13.990000000000009 45.16499999999999 13.990000000000009 45.16499999999999 19 46 C23.829297673044323 52.4390635640591 22.292929802619142 61.16118135239017 22.482177734375 69.091796875 C22.5349390815461 71.2484369867238 22.590199678756846 73.4050176841435 22.648193359375 75.5615234375 C23.001472810655258 88.771102920153 23.004628798068012 101.81935397571249 22 115 C23.97999999999999 115 25.960000000000008 115 28 115 C32.01459854014598 119.01459854014598 32.01459854014598 119.01459854014598 32.0625 122.8125 C32.074101562500005 123.5201953125 32.08570312500001 124.22789062499999 32.09765625 124.95703125 C32 127 32 127 31 130 C25.275448408116063 133.81636772792262 19.70250505336557 133.29282789068102 13 133 C13 136.63 13 140.26 13 144 C13.546562499999993 144.061875 13.546562499999993 144.061875 16.3125 144.375 C19.007879589134205 144.751480145041 20.90377148876695 145.15038660773556 23 147 C23 147.99 23 148.98 23 150 C23.659999999999997 150 24.319999999999993 150 25 150 C25 155 25 155 22 160 C18.407175115802886 161.1222005764226 14.914245607505563 161.1449209292498 11.1875 161.1328125 C10.536765136718742 161.1337692260742 9.886030273437484 161.13472595214844 9.215576171875 161.13571166992188 C7.843911773037576 161.13639018241082 6.472244111367502 161.13455887117138 5.1005859375 161.13037109375 C3.0070877397891422 161.12501812299806 0.9138040652031805 161.13032715997002 -1.1796875 161.13671875 C-2.515625471096655 161.13605791007546 -3.8515633093087445 161.1347766263095 -5.1875 161.1328125 C-5.810520019531253 161.13483673095703 -6.433540039062507 161.13686096191407 -7.075439453125 161.13894653320313 C-10.201290559338815 161.12217257564853 -13.007870747971651 160.93457635136244 -16 160 C-19 155 -19 155 -19 149 C-17.680000000000007 147.35 -16.36 145.7 -15 144 C-12.36 144 -9.719999999999999 144 -7 144 C-7 140.37 -7 136.74 -7 133 C-8.485 133.061875 -9.969999999999999 133.12375 -11.5 133.1875 C-16.561027864733262 133.20912832420825 -20.448463877772625 132.13591639255364 -25 130 C-25 128.68 -25 127.36000000000001 -25 126 C-25.659999999999997 126 -26.319999999999993 126 -27 126 C-27 124.01999999999998 -27 122.04000000000002 -27 120 C-26.340000000000003 120 -25.680000000000007 120 -25 120 C-24.67 118.68 -24.340000000000003 117.36000000000001 -24 116 C-22.845 115.83500000000001 -22.845 115.83500000000001 -17 115 C-16.67 93.55000000000001 -16.340000000000003 72.1 -16 50 C-15.504999999999995 49.83500000000001 -15.504999999999995 49.83500000000001 -13 49 C-13 48.00999999999999 -13 47.02000000000001 -13 46 C-12.010000000000005 45.83500000000001 -12.010000000000005 45.83500000000001 -7 45 C-7 41.370000000000005 -7 37.74000000000001 -7 34 C-6.010000000000005 33.00999999999999 -5.019999999999996 32.02000000000001 -4 31 C-3.010000000000005 31 -2.019999999999996 31 -1 31 C-1.0026184082031193 30.583753662109373 -1.0026184082031193 30.583753662109373 -1.015869140625 28.477294921875 C-1.03292230756594 25.38549099661961 -1.045455629717594 22.29373713574411 -1.054931640625 19.201904296875 C-1.0599570638570128 17.86433116502492 -1.06677844027584 16.52676351589224 -1.075439453125 15.189208984375 C-1.0875835039563952 13.26544846149605 -1.093246222983339 11.341760642276327 -1.09765625 9.41796875 C-1.1028175354003906 8.820986785888664 -1.1079788208007813 8.224004821777342 -1.1132965087890625 7.6089324951171875 C-1.1136798118515259 4.76525818179212 -0.9105075522791424 2.731522656837406 0 0 Z M1 38 C0.6700000000000159 38.99000000000001 0.3400000000000034 39.97999999999999 0 41 C2 44 2 44 5 45 C5.329999999999984 43.019999999999996 5.659999999999997 41.03999999999999 6 39 C4.349999999999994 38.67 2.6999999999999886 38.34 1 38 Z M-8 54 C-7.670000000000002 55.31999999999999 -7.340000000000003 56.64 -7 58 C-4.359999999999999 58 -1.7199999999999989 58 1 58 C1 58.99000000000001 1 59.980000000000004 1 61 C1.6599999999999966 61 2.319999999999993 61 3 61 C3 61.99000000000001 3 62.980000000000004 3 64 C1.1850000000000023 64.33 1.1850000000000023 64.33 -8 66 C-7.670000000000002 67.32 -7.340000000000003 68.64 -7 70 C-5.906874999999999 69.979375 -4.813749999999999 69.95875 -3.6875 69.9375 C-1.026754892856303 69.88729726212937 0.37984621597436785 70.12661540532478 3 71 C3 71.99 3 72.98000000000002 3 74 C2.3400000000000034 74.32999999999998 1.6800000000000068 74.66 1 75 C1 75.66 1 76.32 1 77 C-1.6400000000000006 77 -4.280000000000001 77 -7 77 C-7 77.99000000000001 -7 78.98000000000002 -7 80 C-4.359999999999999 80 -1.7199999999999989 80 1 80 C0.6700000000000159 81.98000000000002 0.3400000000000034 83.96000000000001 0 86 C-2.6400000000000006 86.32999999999998 -5.280000000000001 86.66 -8 87 C-8 88.32 -8 89.63999999999999 -8 91 C-5.359999999999999 91.32999999999998 -2.719999999999999 91.66 0 92 C0 93.65 0 95.30000000000001 0 97 C-1 98 -1 98 -8 99 C-7.670000000000002 99.66 -7.340000000000003 100.32 -7 101 C-4.689999999999998 101.66 -2.3799999999999955 102.32 0 103 C-0.3299999999999983 104.65 -0.6599999999999966 106.30000000000001 -1 108 C-2.155000000000001 108.16499999999999 -2.155000000000001 108.16499999999999 -8 109 C-8 110.97999999999999 -8 112.96000000000001 -8 115 C-0.7399999999999949 115 6.52000000000001 115 14 115 C14.153128934957635 107.21160541700803 14.301904313103478 99.42316136722354 14.442963600158691 91.6345386505127 C14.508634439776046 88.0181817926734 14.576231475127372 84.4018821082154 14.648193359375 80.78564453125 C14.71753808241985 77.2973939834985 14.781871695020527 73.80908406911368 14.842695236206055 70.32067489624023 C14.866816829076754 68.98815414466655 14.892760291120425 67.65566511528957 14.920534133911133 66.32321548461914 C14.959053544948006 64.46048189270437 14.991160631472525 62.59774191515058 15.021728515625 60.73486328125 C15.041714019775384 59.67341094970703 15.061699523925768 58.61195861816407 15.082290649414063 57.518341064453125 C15 55 15 55 14 53 C9.741733722110894 50.93193186504047 6.302625941707845 50.75142299229206 1.6875 50.875 C1.0423242187499966 50.88402343749999 0.3971484374999932 50.89304687500001 -0.267578125 50.90234375 C-4.9720394736842195 50.97203947368422 -4.9720394736842195 50.97203947368422 -8 54 Z M18 121 C18 121.66 18 122.32 18 123 C6.1200000000000045 123 -5.760000000000005 123 -18 123 C-18.33 123.66 -18.659999999999997 124.32 -19 125 C-4.810000000000002 125 9.379999999999995 125 24 125 C23.835000000000008 124.34 23.835000000000008 124.34 23 121 C21.349999999999994 121 19.69999999999999 121 18 121 Z M1 132 C-0.18968297144201074 135.71775928575627 -0.07433577862698826 139.13453951139684 0 143 C0.6599999999999966 143.66 1.3199999999999932 144.32 2 145 C2.990000000000009 145 3.9799999999999898 145 5 145 C5.9607043402697 142.11788697919093 6.1058188342185815 140.30149956108147 6.0625 137.3125 C6.053476562500009 136.5042578125 6.044453125000018 135.696015625 6.03515625 134.86328125 C6.0235546874999955 134.2483984375 6.011953124999991 133.633515625 6 133 C4.349999999999994 132.67 2.6999999999999886 132.34 1 132 Z M-11 151 C-11 151.66 -11 152.32 -11 153 C-1.759999999999991 153 7.480000000000018 153 17 153 C17 152.34 17 151.68 17 151 C7.759999999999991 151 -1.480000000000004 151 -11 151 Z " transform="translate(128,56)" />
    <path d="M0 0 C3.3000000000000114 0 6.599999999999994 0 10 0 C18.239094294545595 10.56294140326358 16.565507822859473 22.989943909482548 15 35.6875 C13.487342557121451 48.08010543056467 13.818340516572789 60.53955681753581 14 73 C15.319999999999993 73.66 16.639999999999986 74.32 18 75 C18.164999999999992 76.97999999999999 18.164999999999992 76.97999999999999 19 87 C19.329999999999984 87.32999999999998 19.329999999999984 87.32999999999998 21 89 C21.97206603880477 92.26429039357433 22.13219684456476 95.22366945997794 22.145263671875 98.623046875 C22.151643524169913 99.75101684570313 22.158023376464854 100.87898681640627 22.164596557617188 102.0411376953125 C22.166125122409255 103.2670080258975 22.16723914258006 104.49287893353667 22.16796875 105.71875 C22.171183898342633 106.98140500492264 22.174548165773018 108.24405963815866 22.178054809570313 109.5067138671875 C22.18403339170726 112.14950423127948 22.185895938183023 114.79226194678108 22.185302734375 117.43505859375 C22.18520100016991 120.8178226473375 22.198870317169536 124.20037733870109 22.21607494354248 127.58309173583984 C22.227202357621934 130.18936115221368 22.229221742822915 132.7955799887863 22.22869300842285 135.40187072753906 C22.22987134528114 136.64897891936803 22.23428494286489 137.89608849077635 22.24202537536621 139.14317321777344 C22.25184280000451 140.88773892243918 22.247678424063338 142.6323662866972 22.242919921875 144.376953125 C22.244344940185556 145.36860473632814 22.245769958496084 146.36025634765625 22.247238159179688 147.3819580078125 C21.993884178963185 150.06476134729445 21.37118552923394 151.7046701386958 20 154 C19.340000000000003 154 18.680000000000007 154 18 154 C17.670000000000016 154.99 17.340000000000003 155.98 17 157 C16.340000000000003 157 15.680000000000007 157 15 157 C15 157.66 15 158.32 15 159 C9.027054020100508 161.45043937636902 3.1406121271273832 162.02550600069466 -3.0625 160 C-3.701875000000001 159.67 -4.341250000000002 159.34 -5 159 C-5 158.34 -5 157.68 -5 157 C-5.659999999999997 157 -6.319999999999993 157 -7 157 C-14.796184739346216 149.20381526065378 -13.103653345868338 136.13590687135078 -13.125 125.625 C-13.101838215207579 117.55838204184187 -12.92193864492063 109.49854866795388 -12.625 101.4375 C-12.594223632812486 100.4682861328125 -12.563447265625001 99.49907226562499 -12.53173828125 98.50048828125 C-12.337488229896564 93.95374745268265 -12.143982545598504 90.12237294336626 -10 86 C-9.340000000000003 86 -8.680000000000007 86 -8 86 C-8 82.37 -8 78.74000000000001 -8 75 C-7.009999999999991 74.00999999999999 -6.02000000000001 73.01999999999998 -5 72 C-4.949070033139606 66.43159921287092 -4.914170302370252 60.863259059188536 -4.89013671875 55.294677734375 C-4.880111846728482 53.40240229457177 -4.866488447049477 51.51014221673914 -4.84912109375 49.617919921875 C-4.824717775564068 46.88977249761945 -4.813481551425781 44.161830846507684 -4.8046875 41.43359375 C-4.794364929199219 40.59477157592774 -4.7840423583984375 39.755949401855474 -4.773406982421875 38.89170837402344 C-4.772456383466448 33.85559354127852 -5.414808161449287 29.781335363622773 -7 25 C-8.024258490805465 18.149439964093318 -5.8324678356579795 11.544527984492817 -4 5 C-3.3400000000000034 5 -2.680000000000007 5 -2 5 C-1.3400000000000034 3.3500000000000014 -0.6800000000000068 1.7000000000000028 0 0 Z M4 8 C3.66339357916587 9.124025012428262 3.3308293855145337 10.249261118735262 3 11.375 C2.8143750000000125 12.001484375000004 2.6287499999999966 12.627968750000008 2.4375 13.2734375 C2 15 2 15 2 17 C1.3400000000000034 17 0.6800000000000068 17 0 17 C0 18.980000000000004 0 20.960000000000008 0 23 C0.3300000000000125 23.164999999999992 0.3300000000000125 23.164999999999992 2 24 C2.8444752288299924 26.93557293117594 3.122094233448081 29.534452892487593 3.113525390625 32.5849609375 C3.113449859619152 33.485592651367185 3.1133743286132756 34.38622436523437 3.1132965087890625 35.31414794921875 C3.108135223388672 36.27782287597657 3.1029739379882813 37.24149780273437 3.09765625 38.234375 C3.0962413024902276 39.22753723144531 3.094826354980455 40.22069946289062 3.0933685302734375 41.24395751953125 C3.0877758798570767 44.41266912201736 3.075224699278465 47.58130979099428 3.0625 50.75 C3.0574840512250034 52.89973856208502 3.0529213095337298 55.049478232891516 3.048828125 57.19921875 C3.0378088561329832 62.46616999151601 3.0210780042117165 67.73307992717562 3 73 C3.990000000000009 73 4.97999999999999 73 6 73 C5.994763183593761 72.40276123046874 5.989526367187494 71.80552246093751 5.984130859375 71.190185546875 C5.90411132993529 60.59620759231696 5.880087915824049 50.01986793582603 6.4375 39.4375 C6.476735839843741 38.672038574218746 6.51597167968751 37.90657714843749 6.556396484375 37.117919921875 C6.7954909637299465 33.012011463547395 7.302576877591463 29.057734530376976 8 25 C8.31254437309002 19.567243397170785 7.91153986080829 14.355296682248635 7 9 C6.009999999999991 8.670000000000002 5.02000000000001 8.340000000000003 4 8 Z M0 80 C-0.6599999999999966 81.65 -1.3199999999999932 83.30000000000001 -2 85 C1.960000000000008 85 5.920000000000016 85 10 85 C10.329999999999984 83.68 10.659999999999997 82.36000000000001 11 81 C8.59454361932768 79.79727180966384 7.050030472951761 79.89928527895785 4.375 79.9375 C3.5577343749999955 79.94652343749999 2.740468749999991 79.95554687499998 1.8984375 79.96484375 C1.2719531250000102 79.9764453125 0.645468749999992 79.98804687500001 0 80 Z M-3 93 C-3.3300000000000125 93.32999999999998 -3.6599999999999966 93.66 -4 94 C-4 95.65 -4 97.30000000000001 -4 99 C-4.659999999999997 99 -5.319999999999993 99 -6 99 C-6 103.28999999999999 -6 107.57999999999998 -6 112 C-5.6699999999999875 112 -5.340000000000003 112 -5 112 C-4.6699999999999875 119.59 -4.340000000000003 127.18 -4 135 C-4.659999999999997 135 -5.319999999999993 135 -6 135 C-6 135.66 -6 136.32 -6 137 C0.9300000000000068 137 7.860000000000014 137 15 137 C14 94 14 94 13 93 C7.719999999999999 93 2.4399999999999977 93 -3 93 Z M-3 145 C-2 151 -2 151 0 153 C3.3000000000000114 153 6.599999999999994 153 10 153 C11.319999999999993 151.68 12.639999999999986 150.36 14 149 C14 147.68 14 146.36 14 145 C8.389999999999986 145 2.780000000000001 145 -3 145 Z " transform="translate(181,56)" />
    <path d="M0 0 C0.9899999999999949 0.16499999999999204 0.9899999999999949 0.16499999999999204 6 1 C7 7 7 7 6 9 C5.340000000000003 9 4.680000000000007 9 4 9 C4 9.659999999999997 4 10.319999999999993 4 11 C1.6899999999999977 10.669999999999987 -0.6200000000000045 10.340000000000003 -3 10 C-3 7.689999999999998 -3 5.3799999999999955 -3 3 C-2.010000000000005 2.009999999999991 -1.019999999999996 1.0200000000000102 0 0 Z " transform="translate(73,194)" />
  </g>
</svg>