<svg xmlns="http://www.w3.org/2000/svg" viewBox="0 0 164 110" width="164" height="110">
  <g fill="#000000" transform="scale(0.50000000, 0.50000000)">
    <path d="M0 0 C3.5085592300440993 -0.010266284054729624 7.017027289052379 -0.024236183984214676 10.525527954101563 -0.04725456237792969 C13.916629564999681 -0.06949190734312083 17.307636769488738 -0.08097212705825996 20.698806762695313 -0.08613014221191406 C21.98727399299858 -0.08980213066869425 23.275736544307136 -0.09697209947403707 24.564163208007813 -0.10783576965332031 C34.314604484209525 -0.18671787993877587 44.534248474226814 -0.16454065990974698 52.15736389160156 6.85997200012207 C57.27810202266073 12.092097788412744 58.98865728239332 18.508315875983243 60.86439514160156 25.40587043762207 C61.636788532528385 28.183131885659805 62.50783987907016 30.92507987943341 63.39906311035156 33.66612434387207 C63.54940002441407 34.15435676574707 63.699736938476576 34.642589187622065 63.85462951660156 35.14561653137207 C64.86640442548003 38.260274843773416 66.19985633742829 40.619225974856676 68.33656311035156 43.10362434387207 C68.33656311035156 43.76362434387207 68.33656311035156 44.42362434387206 68.33656311035156 45.10362434387207 C76.44351656505935 49.26616322532517 83.43238501256698 51.38651875749929 92.45912170410156 48.77940559387207 C98.46721781105282 46.752184050302105 102.31084137236144 42.571757424738536 105.33656311035156 37.10362434387207 C106.76371890323736 33.754782792375835 107.56285962111926 30.198527676712715 108.39906311035156 26.66612434387207 C110.37773050710732 18.47766757031215 112.71777579482847 8.859685743919044 120.09046936035156 3.8067493438720703 C125.85762304407052 0.5525560427140306 131.89997976388926 -0.054212813003196914 138.43373107910156 -0.009901046752929688 C138.72189949035646 -0.009974060058596024 138.72189949035646 -0.009974060058596024 140.18020629882813 -0.010343551635742188 C142.06309426778682 -0.0096533721857881 143.94588017369446 -0.0019034660405949921 145.82875061035156 0.0059680938720703125 C147.14296921775062 0.007835460594627364 148.45718852588956 0.009257858694972754 149.7714080810547 0.010255813598632813 C152.86303943249627 0.013346848765593222 155.9546348401479 0.021529755432808884 159.04625046253204 0.031605303287506104 C162.56989667636958 0.04283618191933414 166.0935447314913 0.04829435420441541 169.61720442771912 0.05330073833465576 C191.31745350852947 0.08451474204997567 191.31745350852947 0.08451474204997567 192.33656311035156 1.1036243438720703 C192.33656311035156 3.4136243438720726 192.33656311035156 5.723624343872075 192.33656311035156 8.10362434387207 C190.47774955417492 9.033031121960391 189.8902967672458 9.230357090109322 187.94125366210938 9.248384475708008 C187.70092658996583 9.251833724975583 187.70092658996583 9.251833724975583 186.48472595214844 9.269289016723633 C185.96057098388673 9.27190238952636 185.436416015625 9.274515762329102 184.89637756347656 9.27720832824707 C184.34162246704102 9.283895339965824 183.78686737060548 9.290582351684577 183.21530151367188 9.29747200012207 C182.0094554689694 9.31152564061891 180.80358276939296 9.323418715222914 179.5976963043213 9.333419799804688 C177.68423533582944 9.349852140404295 175.77096905476773 9.37309462163708 173.85760498046875 9.398317337036133 C168.41685200841033 9.469002733000494 162.97601764088645 9.529005691103364 157.53504943847656 9.58043098449707 C154.2063534181197 9.611975096914662 150.8779029656195 9.653717396920001 147.54938316345215 9.700626373291016 C146.28526476063814 9.716554286099367 145.02109589607068 9.728917922688339 143.7569065093994 9.737533569335938 C127.96706507249496 9.84662682237402 127.96706507249496 9.84662682237402 123.59437561035156 13.28721809387207 C123.22054748535157 13.701007156372071 122.84671936035156 14.114796218872073 122.46156311035156 14.54112434387207 C122.07226623535155 14.952335281372072 121.68296936035156 15.363546218872074 121.28187561035156 15.78721809387207 C120.27253765111527 17.192783764378802 119.79183588603243 18.442363045376965 119.33656311035156 20.10362434387207 C119.51457458496094 20.12082527160645 119.51457458496094 20.12082527160645 120.41542053222656 20.20787239074707 C128.77863681786138 21.07054222990179 135.83302438797423 22.701035776907332 143.59437561035156 25.98253059387207 C152.24162144638407 29.612202497221986 160.5336871048123 29.10876233875115 169.10609436035156 25.64683723449707 C170.28468078654885 25.159497124473404 171.46070593571878 24.666485769506608 172.63587951660156 24.170976638793945 C178.5490800517214 21.67777732435546 183.8286257878067 19.989163134681576 190.33656311035156 20.10362434387207 C191.32656311035157 21.093624343872065 192.31656311035158 22.083624343872074 193.33656311035156 23.10362434387207 C193.00656311035152 24.753624343872076 192.6765631103516 26.403624343872067 192.33656311035156 28.10362434387207 C189.20449526144967 29.175121239549014 186.0727361013502 30.187797901156884 182.89564514160156 31.11461067199707 C178.72505649887887 32.33246176214581 174.65361514563887 33.69931276912777 170.58656311035156 35.22862434387207 C166.85768757444615 36.611544093241946 163.3361634443185 37.84207009859904 159.33656311035156 38.10362434387207 C158.77066467285155 38.15518684387207 158.20476623535157 38.206749343872076 157.62171936035156 38.25987434387207 C148.8786244043622 38.688983298767255 140.6207645651708 35.704363554347196 132.64906311035156 32.41612434387207 C127.37553839290621 30.242268998349886 122.99771728881896 29.44535060218982 117.33656311035156 30.10362434387207 C117.2520489501953 30.414771804809575 117.16753479003907 30.725919265747066 117.08045959472656 31.04649543762207 C114.31580235660172 40.91380516111941 110.57803662771954 50.02074993360816 101.52406311035156 55.60362434387207 C93.53253788814956 60.08878808117106 85.23546331270953 60.89769678534492 76.33656311035156 59.10362434387207 C75.98883850097656 59.035787429809574 75.64111389160155 58.96795051574708 75.28285217285156 58.89805793762207 C68.10684812398057 57.31933704687046 61.35827035805249 51.80643382736524 57.43959045410156 45.70762825012207 C55.75884477237258 42.62538303441215 54.48917811218473 39.41424234683598 53.33656311035156 36.10362434387207 C53.20814025878906 35.75042121887208 53.07971740722657 35.39721809387207 52.94740295410156 35.03331184387207 C52.355628770396365 33.40448444033106 51.808029824866 31.771349886258932 51.33656311035156 30.10362434387207 C43.49408228110987 29.169995673724245 37.240473991258284 31.684034969397857 29.995254516601563 34.47081184387207 C15.837563135394262 39.87215656864235 4.884207064405757 38.407143047724915 -8.942245483398438 32.52354621887207 C-13.373680542109412 30.696223619451743 -17.949399846606525 29.865894163598 -22.663436889648438 29.10362434387207 C-23.323436889648434 28.443624343872074 -23.983436889648438 27.783624343872077 -24.663436889648438 27.10362434387207 C-24.663436889648438 25.453624343872065 -24.663436889648438 23.803624343872073 -24.663436889648438 22.10362434387207 C-20.57933860686022 19.380892155346586 -16.39942614301563 20.185505695927134 -11.663436889648438 21.10362434387207 C-9.92688769112786 21.622712102803675 -8.269063255907511 22.27210831549388 -6.6009368896484375 22.97862434387207 C-6.184489135742183 23.154581375122063 -5.768041381835943 23.33053840637207 -5.3389739990234375 23.51182746887207 C-4.111665115969501 24.037646269790997 -2.887382585275944 24.5700322548916 -1.6634368896484375 25.10362434387207 C6.256507778253223 28.544945434084212 15.18001341625498 30.07102818780433 23.520156860351563 27.08409309387207 C26.050506612861597 26.06276644554245 28.51587754801514 24.91299738740652 30.977188110351563 23.73643684387207 C37.098625878230735 20.88680202089384 42.599412975235026 19.607975696329433 49.33656311035156 20.10362434387207 C46.33656311035155 14.10362434387207 46.33656311035155 14.10362434387207 44.21156311035156 12.66612434387207 C44.01433654785157 12.532706375122075 44.01433654785157 12.532706375122075 43.01625061035156 11.85753059387207 C38.806782204832956 9.968164542092794 33.971865659078816 9.949494577092409 29.422988891601563 9.89830207824707 C28.86615921020507 9.888402481079098 28.309329528808604 9.878502883911125 27.735626220703125 9.868303298950195 C25.91775075492251 9.837027920978386 24.099849269096012 9.812067338773232 22.281875610351563 9.78721809387207 C21.012490526143395 9.76661910836961 19.74311184705357 9.745621919014155 18.473739624023438 9.724245071411133 C15.488418115894376 9.6749237545462 12.50305343636579 9.629581448919453 9.517640948295593 9.58622270822525 C6.114847747867174 9.536575852900029 2.7121436814874755 9.481760971307935 -0.6905629634857178 9.426543116569519 C-7.681437503023403 9.31321199744778 -14.672397860431758 9.206269624937335 -21.663436889648438 9.10362434387207 C-22.65343688964844 8.113624343872075 -23.643436889648434 7.123624343872066 -24.663436889648438 6.10362434387207 C-22.689963955308393 -3.7637403278281454 -8.835956831729845 0.02517964665473471 0 0 Z " transform="translate(74.66343688964844,61.89637565612793)" />
    <path d="M0 0 C1.5 1 1.5 1 2.5 5 C2.1700000000000017 5.4950000000000045 2.1700000000000017 5.4950000000000045 0.5 8 C-9.493779160186634 9.611197511664074 -9.493779160186634 9.611197511664074 -13.5 7 C-13.829999999999998 6.670000000000002 -14.159999999999997 6.340000000000003 -14.5 6 C-14.5 4.349999999999994 -14.5 2.700000000000003 -14.5 1 C-10.441604453750458 -1.7055970308330188 -4.444036997170386 -2.222018498585186 0 0 Z " transform="translate(77.5,110)" />
    <path d="M0 0 C0.9899999999999949 0.6599999999999966 1.980000000000004 1.3199999999999932 3 2 C3 3.6500000000000057 3 5.299999999999997 3 7 C-0.04314335468497177 10.043143354684972 -4.743305290694707 9.988057369553047 -9 10 C-10.989107401865965 9.575948531909887 -12.218511982996432 9.009509876302019 -14 8 C-14 6.019999999999996 -14 4.040000000000006 -14 2 C-11 0 -11 0 0 0 Z " transform="translate(120,109)" />
    <path d="M0 0 C1.783569284251655 0.48296175393038254 3.3748445051192846 1.1249162719873027 5 2 C5.329999999999984 3.319999999999993 5.659999999999997 4.640000000000001 6 6 C5.670000000000016 6.4950000000000045 5.670000000000016 6.4950000000000045 4 9 C-0.28999999999999204 9 -4.5800000000000125 9 -9 9 C-9.990000000000009 8.010000000000005 -10.97999999999999 7.019999999999996 -12 6 C-10.324858872320704 -0.7005645107172 -5.868911252985498 -0.5439889073479094 0 0 Z " transform="translate(207,109)" />
    <path d="M0 0 C0.22945312499999204 0.0045117187499954525 0.22945312499999204 0.0045117187499954525 1.390625 0.02734375 C4.7071572580645125 0.09643817204300831 4.7071572580645125 0.09643817204300831 7.75 2.125 C7.420000000000016 4.105000000000004 7.090000000000003 6.084999999999994 6.75 8.125 C2.5140703254383823 10.178784084635936 -1.9704086594300918 11.23737601025178 -6.5859375 9.671875 C-7.6875 9.125 -7.6875 9.125 -9.25 8.125 C-9.25 6.144999999999996 -9.25 4.165000000000006 -9.25 2.125 C-6.036621732965585 0.2179951405917251 -3.699866483900877 -0.13982053572881625 0 0 Z " transform="translate(248.25,108.875)" />
    <path d="M0 0 C0.2900390625 0.0016113281249943157 0.2900390625 0.0016113281249943157 1.7578125 0.009765625 C2.361093749999995 0.018144531249987494 2.964375000000004 0.02652343750000341 3.5859375 0.03515625 C3.8914453124999966 0.037412109374997726 3.8914453124999966 0.037412109374997726 5.4375 0.048828125 C6.945411409294351 0.06060868288511756 8.453124959073293 0.07705771802011441 9.9609375 0.09765625 C10.620937499999997 1.7476562500000057 11.280937499999993 3.3976562500000114 11.9609375 5.09765625 C9.832251172922255 8.290685740616624 9.832251172922255 8.290685740616624 6.9609375 9.09765625 C5.395781220369884 9.21600587472372 3.8419061889817954 9.192676334460543 2.2734375 9.16015625 C1.8577148437500028 9.155644531250005 1.4419921875000057 9.151132812500009 1.013671875 9.146484375 C-2.025163517441854 9.111555232558146 -2.025163517441854 9.111555232558146 -6.0390625 5.09765625 C-5.0390625 1.09765625 -5.0390625 1.09765625 -4.22900390625 0.603759765625 C-2.744180596546272 -0.027762335527199866 -1.6115390867008017 -0.015799402810785068 0 0 Z " transform="translate(90.0390625,131.90234375)" />
    <path d="M0 0 C0.2900390625 0.0016113281249943157 0.2900390625 0.0016113281249943157 1.7578125 0.009765625 C2.361093750000009 0.018144531249987494 2.9643749999999898 0.02652343750000341 3.5859375 0.03515625 C3.8914453124999966 0.037412109374997726 3.8914453124999966 0.037412109374997726 5.4375 0.048828125 C9.947342519685037 0.08406126968503713 9.947342519685037 0.08406126968503713 11.9609375 2.09765625 C11.630937500000016 4.07765624999999 11.300937500000003 6.057656250000008 10.9609375 8.09765625 C9.032236333659341 9.06200683317033 8.40278928469067 9.219073131217328 6.359375 9.1953125 C6.114453125000011 9.193701171875006 6.114453125000011 9.193701171875006 4.875 9.185546875 C4.3671093750000125 9.177167968750013 3.8592187499999966 9.168789062499997 3.3359375 9.16015625 C2.8203125 9.155644531250005 2.3046875 9.151132812500009 1.7734375 9.146484375 C-2.0254088785046633 9.111309871495337 -2.0254088785046633 9.111309871495337 -6.0390625 5.09765625 C-5.0390625 1.09765625 -5.0390625 1.09765625 -4.22900390625 0.603759765625 C-2.744180596546272 -0.027762335527199866 -1.6115390867007875 -0.015799402810785068 0 0 Z " transform="translate(134.0390625,131.90234375)" />
    <path d="M0 0 C4.6200000000000045 0 9.240000000000009 0 14 0 C14.659999999999997 0.6599999999999966 15.319999999999993 1.3199999999999932 16 2 C15.670000000000016 3.6500000000000057 15.340000000000003 5.300000000000011 15 7 C12 9 12 9 2 9 C0.6800000000000068 8.009999999999991 -0.6399999999999864 7.02000000000001 -2 6 C-1 1 -1 1 0 0 Z " transform="translate(174,132)" />
    <path d="M0 0 C3.960000000000008 0 7.9199999999999875 0 12 0 C12.990000000000009 0.9900000000000091 13.97999999999999 1.9799999999999898 15 3 C14.670000000000016 4.319999999999993 14.340000000000003 5.639999999999986 14 7 C10 9 10 9 -1 8 C-1.6599999999999966 6.349999999999994 -2.319999999999993 4.699999999999989 -3 3 C-2.009999999999991 2.009999999999991 -1.0200000000000102 1.0200000000000102 0 0 Z " transform="translate(219,132)" />
    <path d="M0 0 C0.18012145489454667 -0.000576922148468384 0.18012145489454667 -0.000576922148468384 1.0916451811790466 -0.003496497869491577 C2.3050996696759327 -0.006154421762744278 3.5184228686120207 -0.0016479178515567128 4.731870651245117 0.0027933120727539063 C5.608054755873027 0.0023574406429247574 6.484238734326702 0.0014822389877338082 7.3604220151901245 0.0002041459083557129 C9.77305355993839 -0.0020376926576375354 12.185640926554157 0.001976221499461417 14.598266839981079 0.006982207298278809 C17.198119650792705 0.011290969516977611 19.79796986550457 0.00983997972502948 22.397825241088867 0.009079933166503906 C26.903895367605827 0.008554969145876612 31.409951041332903 0.01169889984709016 35.91601753234863 0.017317771911621094 C42.43107341947483 0.025436490506365317 48.94612230090593 0.028048374524388464 55.461182698607445 0.02930576354265213 C66.03081661521652 0.031495695642178134 76.60044282490446 0.038154196824763176 87.17007255554199 0.047608375549316406 C97.4389523708879 0.05678400657981797 107.70783009474991 0.06386410296477152 117.97671318054199 0.0681161880493164 C118.60943079605698 0.06837891153992359 119.24214841157197 0.06864163503050236 119.89403928816319 0.0689123198390007 C123.06812111209703 0.07021733446993039 126.24220295087511 0.07148104794279675 129.4162847995758 0.07272422313690186 C155.75853578521944 0.0830950093777858 182.1007784043269 0.10071173715854798 208.443021774292 0.1230478286743164 C209.433021774292 1.773047828674322 210.423021774292 3.4230478286743278 211.443021774292 5.123047828674316 C210.78302177429202 6.44304782867431 210.123021774292 7.763047828674303 209.443021774292 9.123047828674316 C138.823021774292 9.123047828674316 68.20302177429198 9.123047828674316 -4.556978225708008 9.123047828674316 C-5.216978225708004 8.133047828674307 -5.876978225708008 7.143047828674327 -6.556978225708008 6.123047828674316 C-6.2269782257080095 4.473047828674311 -5.896978225708011 2.823047828674305 -5.556978225708008 1.1230478286743164 C-3.3961218254742818 0.042619628557446276 -2.3770521619731753 -0.001403218513559068 0 0 Z " transform="translate(56.55697822570801,153.87695217132568)" />
  </g>
</svg>