<svg color="#2C3440" xmlns="http://www.w3.org/2000/svg" viewBox="0 0 1002 928" width="1002" height="928">
  <g fill="currentColor">
    <path d="M0 0 C0.5352832031250045 0.22913085937500455 1.070566406250009 0.4582617187499949 1.6220703125 0.6943359375 C14.49087832449959 6.30966761594695 26.07568322313159 15.144913171923832 36 25 C36.41201660156253 25.40798828125 36.824033203125055 25.815976562499998 37.24853515625 26.236328125 C51.66875405236112 40.75072440153133 61.55900196893015 59.361317904758266 67 79 C67.1651611328125 79.57814453125002 67.330322265625 80.15628906249998 67.50048828125 80.751953125 C72.93957716345983 100.70840333604482 71.82073884716544 124.25705859419509 66 144 C65.8958074951172 144.3539080810547 65.7916149902344 144.70781616210937 65.68426513671875 145.07244873046875 C56.3473496604671 176.2343817008915 34.19235676650942 200.97879482240853 5.875 216.25 C-8.785172076351728 224.0089098954582 -24.688590663407922 227.6359347819315 -41 230 C-40.804787597656286 230.40387939453126 -40.60957519531257 230.80775878906252 -40.408447265625 231.223876953125 C-22.96063263517965 267.78385269514547 -13.95212683000591 308.715559278775 -13.796875 349.21875 C-13.789852983430137 350.35875486662815 -13.782766163754445 351.4987593356595 -13.775619506835938 352.6387634277344 C-13.756230556847413 356.2591814137531 -13.751186088629765 359.87953532453446 -13.75 363.5 C-13.749779071807893 363.80814258575435 -13.749779071807893 363.80814258575435 -13.748661041259766 365.3675308227539 C-13.741746793289849 383.74933935821764 -13.894096438982956 401.83544229740215 -17 420 C-17.084856567382758 420.5119390869141 -17.16971313476563 421.0238781738281 -17.25714111328125 421.55133056640625 C-25.200933145816634 469.4151213805053 -43.41656693984851 515.1521505548626 -84 560 C-82.49682017388204 563.4470825331919 -80.49125714868626 565.8881309430852 -77.9375 568.625 C-77.12620089619293 569.5103239507532 -76.3150059543309 570.3957433635202 -75.50390625 571.28125 C-75.0889892578125 571.7311328125 -74.674072265625 572.181015625 -74.24658203125 572.64453125 C-72.27327995801693 574.7901977424775 -70.32396536681563 576.9572432183792 -68.375 579.125 C-67.9991577148437 579.5421728515626 -67.62331542968752 579.959345703125 -67.236083984375 580.38916015625 C-64.68416856820295 583.2256116356261 -62.164408037437624 586.088153833884 -59.6591796875 588.9658203125 C-55.826863708057886 593.3587493723634 -51.90728100258252 597.6738480021658 -48 602 C-43.522765694964846 606.9572058218229 -39.050689495281404 611.9158735852396 -34.66796875 616.95703125 C-32.2694299710281 619.7092716000645 -29.824285695005983 622.4179213101129 -27.375 625.125 C-24.159947888344277 628.6804375488612 -21.01499479938559 632.2729210017645 -18 636 C-17.711572265625023 635.88462890625 -17.423144531250045 635.7692578125 -17.1259765625 635.650390625 C-16.25139185337082 635.3005567413484 -15.37670742991827 634.950972095776 -14.501953125 634.6015625 C-13.505137752089922 634.2023178512922 -12.509034195358936 633.801291106663 -11.513671875 633.3984375 C-9.928469278619332 632.7586877931593 -8.339517077890264 632.1289456063595 -6.75 631.5 C-6.227929687500023 631.2873046875 -5.7058593750000455 631.074609375 -5.16796875 630.85546875 C3.359592355287191 627.5060893279233 11.511134593658085 626.5861625053707 20.625 626.625 C21.151904296875045 626.6262084960938 21.678808593749977 626.6274169921875 22.2216796875 626.628662109375 C42.1965486875979 626.75252321479 60.52744974889413 634.1034414849038 75 648 C75.18264404296883 648.173056640625 75.18264404296883 648.173056640625 76.10693359375 649.048828125 C82.60717882077802 655.3546343553613 86.91440977715547 663.0109338399039 91 671 C91.22703613281249 671.439248046875 91.45407226562497 671.87849609375 91.68798828125 672.3310546875 C100.2945959807173 689.5161209197969 99.48860250773612 710.4872870448283 94.00390625 728.421875 C91.07285153479495 737.115414745635 86.26867617472294 744.5703921557013 81 752 C80.74138183593755 752.373505859375 80.48276367187498 752.74701171875 80.21630859375 753.1318359375 C70.15144364767389 767.3934357233106 51.04603726181665 776.4673462939572 34.259490966796875 779.529052734375 C13.540052613649095 782.9274253908156 -7.290812756342007 778.2437056585912 -24.337722778320313 766.0232849121094 C-40.270647633822364 754.3555200240908 -51.76794331818053 736.8097429543409 -55.3125 717.1875 C-58.561339067124436 695.6913139956455 -53.68332403203931 675.0601982357815 -40.99951171875 657.41064453125 C-39.27623391567727 654.9785245639431 -37.64087747029794 652.488238126156 -36 650 C-41.265814023071016 643.9383877162077 -46.61823057516676 637.9587095306781 -52 632 C-56.48005322215704 627.0396730655849 -60.95195622210758 622.0755113778578 -65.3408203125 617.0341796875 C-69.173136291942 612.6412506276369 -73.09271899741759 608.3261519978341 -77 604 C-81.49547615363736 599.0225967545153 -85.98625575310461 594.0435972236813 -90.391357421875 588.98583984375 C-93.89659858640675 584.9631631960002 -97.44964935471342 580.9828453772428 -101 577 C-103.77752456244593 578.3083733192548 -106.1625484952408 579.7478521745264 -108.58984375 581.6171875 C-109.28699640713182 582.1417505451468 -109.98478083800899 582.6654747214134 -110.68310546875 583.1884765625 C-111.0490179443359 583.4630871582032 -111.4149304199218 583.7376977539062 -111.79193115234375 584.0206298828125 C-151.8157915605408 613.8705951443577 -200.51402871725043 627.7698477054365 -264 631 C-264.44126220703123 631.0068078613281 -264.8825244140625 631.0136157226563 -265.337158203125 631.0206298828125 C-274.11662220195063 631.143273950271 -282.8632007543058 630.7736877997081 -291.625 630.25 C-291.80327520370486 630.2393929290772 -291.80327520370486 630.2393929290772 -292.7054557800293 630.1857147216797 C-341.5822170093416 627.248440917159 -390.16590781803376 613.5180585815209 -451.48583984375 565.44677734375 C-452.9103682592083 564.0810415120864 -454.35550229637744 562.7382971731802 -455.80078125 561.39453125 C-463.5939126637338 554.0192395558223 -469.9823470856841 545.6855532861383 -476.2623291015625 537.0157470703125 C-476.9449121180662 536.0758540899504 -477.6330210983357 535.1403448599276 -478.3232421875 534.2060546875 C-491.79150556101206 515.8837304183374 -501.85921965626073 494.52236090192434 -509 473 C-509.06822967529297 472.79629791259765 -509.06822967529297 472.79629791259765 -509.41351318359375 471.76544189453125 C-515.7126024479892 452.9110821579362 -519.7050991310925 433.69339945479436 -522.25 414 C-522.3330841064453 413.3615414428711 -522.4161682128906 412.7230828857422 -522.5017700195313 412.0652770996094 C-524.5103975428053 396.41146076812737 -525.2098108882278 380.88559260093473 -525.1875 365.125 C-525.1872331237793 364.70020481109617 -525.1869662475585 364.2754096221924 -525.1866912841797 363.83774185180664 C-525.1751548259763 349.151615326473 -524.7967205475767 334.5929786229543 -523 320 C-522.9368359375001 319.4847174072266 -522.873671875 318.9694348144531 -522.80859375 318.43853759765625 C-517.5701104018004 276.3621534249393 -505.14499903402907 233.72925228902858 -480 199 C-479.645830078125 198.5045166015625 -479.29166015625003 198.009033203125 -478.9267578125 197.49853515625 C-474.01322603452616 190.65298360149998 -468.74201379590806 184.29561156534723 -463.01708984375 178.11865234375 C-462.08553383338614 177.09407489788174 -461.1870148508722 176.05207864925802 -460.30078125 174.98828125 C-442.25709823512545 153.34242098374636 -416.46396058521935 137.43709046902978 -391 126 C-390.63706848144534 125.83691345214845 -390.2741369628906 125.67382690429687 -389.90020751953125 125.50579833984375 C-362.4200897398096 113.24310928579396 -331.9841883141771 106.21357059419131 -302 104 C-301.44960052490234 103.95869964599609 -300.8992010498047 103.91739929199218 -300.3321228027344 103.87484741210938 C-290.2375191627877 103.13481478752891 -280.1870370820027 102.7931213650217 -270.0625 102.8125 C-269.88613447189334 102.81270708084105 -269.88613447189334 102.81270708084105 -268.9936180114746 102.81375503540039 C-235.17771221727418 102.86305819099255 -201.12258036677906 106.97451470515631 -169 118 C-169.0743627929687 117.668388671875 -169.14872558593743 117.33677734374999 -169.225341796875 116.9951171875 C-170.13894808544728 112.37490192423422 -170.0662200921014 107.92026788425082 -169.8125 103.25 C-169.79077728271477 102.83881927490233 -169.76905456542977 102.42763854980467 -169.74667358398438 102.00399780273438 C-168.10870391849198 73.13816167065733 -155.84157948339816 47.0516314398204 -136.06298828125 26.134765625 C-135.09394710152924 25.100290796487712 -134.15248660109717 24.047212981074637 -133.21484375 22.984375 C-103.36785615502004 -9.895505265405284 -50.02216864338038 -18.19510087504807 0 0 Z M-93 54 C-93.4149169921875 54.324521484375 -93.829833984375 54.649042968749995 -94.25732421875 54.9833984375 C-105.08653014754555 63.58514370812341 -112.73843950190246 74.85272326813157 -117 88 C-117.16226074218753 88.49403320312501 -117.32452148437505 88.98806640625 -117.49169921875 89.4970703125 C-122.89990841795179 106.76538740468811 -121.01725105553078 125.87393648692301 -112.81887817382813 141.9144287109375 C-109.18070645695775 148.81583851990587 -104.61503869434273 154.5835094613003 -99 160 C-98.8189672851563 160.18087158203124 -98.8189672851563 160.18087158203124 -97.90283203125 161.09619140625 C-90.91921538533677 168.0358661946159 -82.92147954977463 172.49181858466338 -73.875 176.25 C-73.51607666015627 176.401142578125 -73.15715332031255 176.55228515625 -72.787353515625 176.7080078125 C-65.57553759914288 179.52470117904318 -58.12554797482585 180.41549992348274 -50.4375 180.375 C-50.222372589111274 180.37439575195313 -50.222372589111274 180.37439575195313 -49.133697509765625 180.371337890625 C-30.024835467162916 180.22728248254913 -13.083884290925312 173.3186241952033 0.41796875 159.7109375 C1.284053289802614 158.81247303003423 2.145162422976796 157.90917190386912 3 157 C3.3552978515624545 156.622626953125 3.7105957031250227 156.24525390625 4.07666015625 155.8564453125 C12.250371069555285 146.90018864258246 17.683717900227748 134.8189198938573 20 123 C20.092812500000036 122.53198974609376 20.18562499999996 122.06397949218751 20.28125 121.581787109375 C23.59630667329793 103.49400913569309 19.117491872418896 84.25115504008511 8.748046875 69.1298828125 C-2.3278681351841897 53.624180614647315 -19.277469036336925 43.179679343931454 -37.97265625 39.6015625 C-39.98137081592563 39.29633687807291 -41.973535737266275 39.11331334629071 -44 39 C-44.419428710937495 38.97276855468749 -44.83885742187499 38.94553710937501 -45.27099609375 38.91748046875 C-62.767856581594174 37.922843065257965 -79.34679454606942 43.101436477445745 -93 54 Z M-397.242919921875 220.158935546875 C-401.1642746384467 224.51529381794552 -404.65010262547366 229.19620562501495 -408 234 C-408.338056640625 234.48307617187498 -408.67611328124997 234.96615234374997 -409.0244140625 235.4638671875 C-428.3339807105911 263.6324405797997 -437.9924408018589 298.2495519909344 -441 332 C-441.04203552246094 332.4670736694336 -441.08407104492187 332.9341473388672 -441.12738037109375 333.4153747558594 C-442.0034030463447 343.465618719812 -442.2448366530865 353.4811788100224 -442.25 363.5625 C-442.25044185638427 363.96135910034184 -442.25088371276854 364.36021820068356 -442.25133895874023 364.7711639404297 C-442.2605021759438 380.65849852075735 -441.3569703812424 396.2654883527746 -439 412 C-438.9198565673828 412.5358874511719 -438.83971313476565 413.07177490234375 -438.75714111328125 413.6239013671875 C-432.9709336623834 451.55362307247515 -418.1716737179962 487.64183202201934 -392 516 C-391.77916748046874 516.240087890625 -391.77916748046874 516.240087890625 -390.66162109375 517.455078125 C-362.57498075751613 547.6028410269817 -323.22348086579314 561.9881048446707 -275.5835418701172 565.15234375 C-242.49127618874303 566.2107817333399 -209.08524996974165 560.1019941331301 -180 544 C-179.7628125 543.8719799804687 -179.7628125 543.8719799804687 -178.5625 543.22412109375 C-142.16281308787939 523.4669993657798 -118.91260852455116 486.44150403799426 -107.3125 447.6875 C-92.24372750430211 396.11619689172835 -92.26307823779052 336.1155126888391 -123.3109130859375 247.64205932617188 C-127.79048098291901 239.47729849387417 -132.97515330992928 232.09527584934972 -139 225 C-139.37479492187504 224.55752929687503 -139.74958984375007 224.11505859375 -140.1357421875 223.6591796875 C-142.30550517240374 221.12555530177394 -144.53867366681163 218.66281512617604 -146.83154296875 216.240234375 C-147.62400092519897 215.3990963852882 -148.40929972773665 214.55116659531382 -149.18798828125 213.697265625 C-176.1443696159365 184.18848222226686 -216.7593144022269 170.872506772555 -255.81231689453125 168.90887451171875 C-304.2449857787693 166.90789001775684 -352.10262124341943 176.8312951535717 -397.242919921875 220.158935546875 Z M-6 668 C-6.295678710937523 668.20818359375 -6.5913574218750455 668.4163671875 -6.89599609375 668.630859375 C-14.813515634344412 674.2338944336678 -21.123936543062655 683.8349055079099 -22.80078125 693.43896484375 C-24.58360369646391 707.4087770039098 -22.58541126612363 719.6312670564197 -13.81640625 730.984375 C-9.05051197829198 736.9132386872923 -3.8656359750431193 740.759002418576 3 744 C3.3204931640625546 744.1598437499999 3.6409863281249955 744.3196875 3.97119140625 744.484375 C13.749182757912422 749.282881596691 25.286571465846464 748.8349468402849 35.44775390625 745.5595703125 C47.706727834282106 741.1403239704035 56.418490805146234 732.6835971061781 62 721 C66.35081424975897 711.5673721611245 66.77104265294838 699.3312645603626 63.4765625 689.498291015625 C58.970761246417396 677.6582112960957 50.87591874565783 668.2231687596642 39.37255859375 662.82861328125 C24.149765637715973 656.1119620406934 7.386672290065462 657.887282659984 -6 668 Z " transform="translate(723,64)" />
  </g>
</svg>