<svg color="#2C3440" xmlns="http://www.w3.org/2000/svg" viewBox="0 0 350 241" width="350" height="241">
  <g fill="currentColor" transform="scale(0.50000000, 0.50000000)">
    <path d="M0 0 C0.41612548828123863 0.058672485351564774 0.8322509765624773 0.11734497070312955 1.260986328125 0.17779541015625 C6.476351451687208 0.9409621835509796 11.324382518151651 2.2397907162535375 16.292236328125 3.989501953125 C18.7619527326392 4.858124217560871 21.27332447296112 5.495260798596121 23.8125 6.125 C30.015117965321906 7.765761907565647 35.530954159737405 10.25473127312776 41.22544860839844 13.177078247070313 C42.29887880969784 13.727691500745948 43.37361689145848 14.275688854368838 44.448486328125 14.823486328125 C45.881094706597366 15.553827059911555 47.306701463358195 16.295934363353652 48.729248046875 17.045654296875 C49.39875400076721 17.390145251988656 50.06842506033456 17.734315567873594 50.73828125 18.078125 C51.03904571533201 18.24043106079101 51.339810180664074 18.402737121582035 51.649688720703125 18.569961547851563 C54.00140378605511 19.759802383021423 55.74351518705964 19.83294753922378 58.3125 19.6875 C58.36148437500003 19.536035156249994 58.36148437500003 19.536035156249994 58.609375 18.76953125 C59.73251319541703 15.622807857667851 61.230027278503655 13.326440096224076 63.41015625 10.80078125 C64.3125 9.687499999999972 64.3125 9.687499999999972 65.3125 7.6875 C66.96249999999998 7.357500000000002 68.61250000000001 7.027500000000003 70.3125 6.6875 C74.84314820000708 11.793763340171921 76.61889075288263 17.177073191036015 78.41796875 23.69921875 C78.92514222433232 25.51555493424584 79.47444108380694 27.134572626105353 80.37109375 28.79296875 C81.50313813143327 30.89486880988261 81.82236321643472 32.973109612438066 82.1875 35.3125 C82.91912513965184 39.47206792850784 84.1860769965864 43.12391053911654 85.8466796875 46.995361328125 C87.17774306286935 50.16381659547926 88.00363344688571 53.27297728615733 88.65966796875 56.640380859375 C89.06011174649075 58.66757073195143 89.55390351992395 60.42872139317123 90.4375 62.3125 C91.78423420880773 65.31108788679845 91.47951560636665 68.46781025504322 91.3125 71.6875 C87.51173425405443 75.48826574594557 85.47199180165592 74.73194191279 80.31889343261719 74.74201965332031 C73.40380118953158 74.72378926177748 66.52346935238648 74.34499092473416 59.625 73.875 C58.9802874755859 73.83248107910157 58.33557495117191 73.78996215820314 57.67132568359375 73.74615478515625 C27.33954458198184 71.71454458198187 27.33954458198184 71.71454458198187 24.3125 68.6875 C24.64250000000004 66.04750000000001 24.972499999999968 63.4075 25.3125 60.6875 C26.30250000000001 60.357500000000016 27.292500000000018 60.0275 28.3125 59.6875 C29.754897784524985 56.54513339799911 30.551345563222867 54.15076066673177 30.3125 50.6875 C30.3125 50.0275 30.3125 49.36750000000001 30.3125 48.6875 C30.032773437499998 48.6501171875 29.753046874999995 48.612734375 29.46484375 48.57421875 C26.814942859181997 48.13966908623243 24.5172084945861 47.40538886355699 22.0625 46.3125 C15.543926811526717 43.41847828270366 8.755437677056761 41.45513375260259 1.8544921875 39.689453125 C1.4075097656250364 39.57279296875001 0.9605273437499591 39.456132812500016 0.5 39.3359375 C0.10167968749999545 39.2345849609375 -0.2966406250000091 39.13323242187499 -0.70703125 39.02880859375 C-1.6875 38.6875 -1.6875 38.6875 -2.6875 37.6875 C-8.488724049638336 36.80946378320269 -14.13839918940198 36.551801365433874 -20 36.58984375 C-20.862954884015664 36.59171494795041 -21.725910849486866 36.59313552230009 -22.5888671875 36.59413146972656 C-24.831187650856123 36.597901515225544 -27.073440595343072 36.60768275558874 -29.31573486328125 36.61883544921875 C-31.615428541745416 36.62917000145569 -33.91513341254148 36.63365455957367 -36.21484375 36.638671875 C-40.705758402971924 36.64931159590941 -45.19662353020743 36.6663193390317 -49.6875 36.6875 C-49.6875 37.3475 -49.6875 38.00749999999999 -49.6875 38.6875 C-51.60605443196869 39.26413986124717 -53.52661432856945 39.83349064999942 -55.44921875 40.396484375 C-56.10148576982277 40.588555098228454 -56.75319613677084 40.78252772601789 -57.404296875 40.978515625 C-64.06346466287573 42.98035134037369 -64.06346466287573 42.98035134037369 -67.6875 42.6875 C-67.6875 43.3475 -67.6875 44.00749999999999 -67.6875 44.6875 C-67.85092895507813 44.750140380859364 -67.85092895507813 44.750140380859364 -68.677978515625 45.067138671875 C-75.25348975131936 47.61663792890084 -81.2279689380129 50.16993028321491 -86.6875 54.6875 C-87.67750000000001 54.6875 -88.66750000000002 54.6875 -89.6875 54.6875 C-90.01749999999998 55.67750000000001 -90.34749999999997 56.66749999999999 -90.6875 57.6875 C-91.0858203125 57.94144531250001 -91.48414062500001 58.195390625000016 -91.89453125 58.45703125 C-92.42433593750002 58.8012109375 -92.95414062499998 59.145390625000005 -93.5 59.5 C-94.02207031249998 59.83644531249999 -94.54414062500001 60.17289062500001 -95.08203125 60.51953125 C-96.51911008951879 61.56499736439446 -97.66598312495495 62.61718897110717 -98.890380859375 63.886474609375 C-100.36565436334638 65.36897763128314 -101.97646173664657 66.70092261156083 -103.5625 68.0625 C-106.74731134636886 70.81909524513893 -109.75361399275641 73.66193005503004 -112.6875 76.6875 C-119.69982394366195 76.6875 -119.69982394366195 76.6875 -123.96875 73.828125 C-125.0656311131346 73.09604371408437 -126.16880528922292 72.38078584510305 -127.28125 71.671875 C-130.47804037261514 69.61679547474742 -133.10387184025623 67.46329884931146 -135.6875 64.6875 C-136.4349182672851 63.934927123975 -137.18487305401433 63.184863820489255 -137.9375 62.4375 C-138.52083333333334 61.85416666666666 -139.10416666666666 61.27083333333334 -139.6875 60.6875 C-139.6875 60.0275 -139.6875 59.36750000000001 -139.6875 58.6875 C-140.6775 58.357500000000016 -141.6675 58.0275 -142.6875 57.6875 C-142.5225 56.69749999999999 -142.5225 56.69749999999999 -141.6875 51.6875 C-141.0275 51.6875 -140.3675 51.6875 -139.6875 51.6875 C-139.0275 50.037499999999994 -138.3675 48.38749999999999 -137.6875 46.6875 C-136.3675 46.0275 -135.0475 45.36750000000001 -133.6875 44.6875 C-133.0275 43.36750000000001 -132.3675 42.047500000000014 -131.6875 40.6875 C-130.3675 40.0275 -129.0475 39.36750000000001 -127.6875 38.6875 C-127.35749999999999 37.69749999999999 -127.0275 36.70750000000001 -126.6875 35.6875 C-123.44394564922499 33.491691728169485 -120.21941857882962 31.349629637305213 -116.765625 29.49609375 C-115.6875 28.6875 -115.6875 28.6875 -114.80859375 27.25 C-113.33759641467253 25.19982949780146 -111.71108607948372 24.384471840237495 -109.5 23.25 C-108.69240273385952 22.820887149518796 -107.88511468965902 22.391191870703807 -107.078125 21.9609375 C-106.67658203125 21.749208984375002 -106.27503906250001 21.537480468750005 -105.861328125 21.3193359375 C-104.76213578805829 20.72767417210791 -103.68382136093373 20.11184195029965 -102.609375 19.4765625 C-102.29379638671878 19.290212402343755 -101.9782177734375 19.103862304687496 -101.653076171875 18.911865234375 C-100.80039156155868 18.40495702726885 -99.94898273263425 17.895904565854536 -99.09765625 17.38671875 C-97.6875 16.6875 -97.6875 16.6875 -95.6875 16.6875 C-95.6875 16.027500000000003 -95.6875 15.367500000000007 -95.6875 14.6875 C-66.18171422260258 -0.6797412333987154 -32.75605175543001 -4.692172942452956 0 0 Z M-73.52587890625 16.23046875 C-75.50375735264379 17.008650433827057 -77.5350737862106 17.615458821103374 -79.5625 18.25 C-82.49047999352922 19.188983833244464 -85.0011300208929 20.295699397442547 -87.578125 22.0078125 C-88.7541512160729 22.72833560421367 -89.88838686078367 23.167904636201655 -91.1875 23.625 C-93.69095841694804 24.555973598802552 -95.41322353819947 26.02766062532092 -97.4296875 27.74609375 C-99.01729279537221 28.934332495915243 -100.58780748186155 29.53356498619354 -102.4765625 30.09765625 C-103.89819471022463 30.79012871369008 -104.76491010027291 31.774880319858852 -105.86093139648438 32.89280700683594 C-107.11336729831578 34.0969442452203 -108.510986466325 35.07962727318957 -109.9375 36.0625 C-110.236884765625 36.2731005859375 -110.53626953125001 36.483701171875 -110.8447265625 36.70068359375 C-112.10826294736216 37.589375242957004 -113.37658695210177 38.471129899319806 -114.64453125 39.353515625 C-115.57723241982222 40.00410347802415 -116.50738823732081 40.65821793658682 -117.4375 41.3125 C-117.71883789062503 41.506342773437495 -118.00017578125 41.70018554687499 -118.2900390625 41.89990234375 C-119.74997480863414 42.9274256549445 -121.05084890800958 44.00990441229797 -122.296875 45.28125 C-123.6875 46.6875 -123.6875 46.6875 -125.1875 47.5625 C-127.35608752593794 49.18894064445345 -128.41775159499377 51.32810934672602 -129.6875 53.6875 C-128.6875 57.6875 -128.6875 57.6875 -119.6875 65.6875 C-114.0625 64.5625 -114.0625 64.5625 -111.6875 62.6875 C-111.6875 62.0275 -111.6875 61.36750000000001 -111.6875 60.6875 C-111.39939453124998 60.55794921875 -111.39939453124998 60.55794921875 -109.94140625 59.90234375 C-107.51454227998886 58.687308816533374 -105.62467077856616 57.064730128525355 -103.625 55.25 C-103.28662109375 54.950292968750006 -102.9482421875 54.65058593750001 -102.599609375 54.341796875 C-101.07519127737004 52.98249949974388 -99.60479710128482 51.610328941246166 -98.20703125 50.12109375 C-96.51058618576474 48.40526074217345 -94.5523521380278 47.318952685277566 -92.4375 46.1875 C-92.04635009765627 45.97391845703126 -91.65520019531249 45.76033691406249 -91.252197265625 45.540283203125 C-87.81974680809435 43.69536723885585 -84.31037940411125 42.120342979761034 -80.6875 40.6875 C-80.6875 40.0275 -80.6875 39.36750000000001 -80.6875 38.6875 C-80.36781250000001 38.64625000000001 -80.36781250000001 38.64625000000001 -78.75 38.4375 C-76.11974208960442 37.91885759513326 -73.85426649621695 36.929366559290145 -71.4375 35.8125 C-63.60250261206909 32.2515785865379 -56.28869043978608 30.29596697386387 -47.73974609375 29.33349609375 C-47.1153564453125 29.2621142578125 -46.490966796875 29.190732421874998 -45.84765625 29.1171875 C-45.56732543945316 29.087458496093745 -45.56732543945316 29.087458496093745 -44.148681640625 28.93701171875 C-42.770509828076 28.701674777659775 -41.90589033446565 28.33146075531053 -40.6875 27.6875 C-39.10100532348099 27.360239263440633 -37.48824282601947 27.258704774722844 -35.875 27.125 C-35.37452148437501 27.082541503906242 -34.87404296875002 27.040083007812484 -34.3583984375 26.996337890625 C-25.49506703373504 26.354198574637962 -16.567377086969714 26.606388137907118 -7.6875 26.6875 C-7.6875 27.347499999999997 -7.6875 28.007499999999993 -7.6875 28.6875 C-7.159064941406257 28.757431640624986 -6.630629882812514 28.82736328125 -6.086181640625 28.8994140625 C12.11253670274806 31.347903510132824 12.11253670274806 31.347903510132824 19.30908203125 35.201171875 C21.25599855818143 36.14478689243248 23.318565503124432 36.776875428684036 25.375 37.4375 C25.572629394531248 37.50130859375 25.572629394531248 37.50130859375 26.57275390625 37.82421875 C27.484787512915204 38.1158074019738 28.39845868798983 38.402267250152846 29.3125 38.6875 C29.64250000000004 39.3475 29.972499999999968 40.00749999999999 30.3125 40.6875 C32.952499999999986 41.67750000000001 35.59249999999997 42.66749999999999 38.3125 43.6875 C38.97249999999997 44.51249999999999 38.97249999999997 44.51249999999999 42.3125 48.6875 C42.97249999999997 48.6875 43.63249999999999 48.6875 44.3125 48.6875 C44.3125 50.337500000000006 44.3125 51.98750000000001 44.3125 53.6875 C43.65250000000003 53.6875 42.99250000000001 53.6875 42.3125 53.6875 C41.82660115391502 54.43315609084735 41.34914384640433 55.18431455977873 40.875 55.9375 C40.60816406250001 56.35515624999999 40.34132812500002 56.772812499999986 40.06640625 57.203125 C39.3125 58.6875 39.3125 58.6875 38.3125 62.6875 C45.24250000000001 63.182500000000005 45.24250000000001 63.182500000000005 80.3125 65.6875 C80.3125 59.6875 80.3125 59.6875 79.372802734375 58.4091796875 C78.25539914641627 56.72800274281741 77.79469598715121 55.11668156141795 77.34765625 53.140625 C77.26881698608395 52.8063348388672 77.18997772216801 52.472044677734374 77.10874938964844 52.12762451171875 C76.77596652981487 50.71604232859488 76.45710455972807 49.30143205465458 76.137939453125 47.88671875 C75.1296531285625 43.459792564459235 73.89005342835787 39.47827318755978 72.014892578125 35.33056640625 C70.96153673650707 32.86651190013646 70.28132821563327 30.343034425698505 69.625 27.75 C69.56022460937498 27.50346679687499 69.56022460937498 27.50346679687499 69.232421875 26.255859375 C68.92092903871139 25.067571888417575 68.61431802574413 23.878274011537115 68.3125 22.6875 C67.65250000000003 22.6875 66.9925 22.6875 66.3125 22.6875 C64.9925 24.997500000000002 63.672500000000014 27.307500000000005 62.3125 29.6875 C61.65250000000003 30.017499999999984 60.99250000000001 30.347499999999997 60.3125 30.6875 C60.3125 31.347499999999997 60.3125 32.00749999999999 60.3125 32.6875 C56.680759139558575 32.53617746414827 53.88908644356087 31.62930728350773 50.875 29.625 C42.216253175828456 23.9067957391413 33.10039997338947 18.528080647656992 22.875 16.35546875 C20.788112739698363 15.889782571604329 18.989280718546524 15.113423363266946 17.05078125 14.21484375 C12.972616434115139 12.407789142473646 8.886965903059377 11.729114287881245 4.5 11.0625 C3.3545117148597683 10.881849517755668 2.2095328571668915 10.69858832120083 1.0650177001953125 10.511871337890625 C0.36113222596162586 10.397688134914773 -0.34337537622729997 10.287253072286845 -1.0485382080078125 10.181243896484375 C-3.504198931755923 9.79230928482771 -3.504198931755923 9.79230928482771 -4.5799102783203125 9.177230834960938 C-6.108820952374629 8.501209121930046 -7.415982337894093 8.537426709372923 -9.08544921875 8.510498046875 C-9.424627809524509 8.50402881622314 -9.763806400299075 8.497559585571281 -10.113263130187988 8.490894317626953 C-11.239565909938165 8.471413416700926 -12.365767631960807 8.459767413936405 -13.4921875 8.44921875 C-13.687026338577255 8.446807107925423 -13.687026338577255 8.446807107925423 -14.673028945922852 8.434602737426758 C-17.636172456606516 8.398223817367764 -20.599155734007354 8.382668127065898 -23.5625 8.375 C-23.995555763244624 8.373554840087891 -24.42861152648925 8.372109680175782 -24.87479019165039 8.370620727539063 C-41.93903644081644 8.324392691390514 -57.57954042652068 9.640297786516726 -73.52587890625 16.23046875 Z " transform="translate(382.6875,106.3125)" />
    <path d="M0 0 C1.6969424328922855 0.6008093478618548 3.3515262067360823 1.277477443803491 5 2 C5 2.6599999999999966 5 3.319999999999993 5 4 C5.659999999999968 4 6.319999999999993 4 7 4 C9 10 9 10 6 17 C7.060336992848477 22.301684964242355 7.714887195257518 22.739994350925826 11.16259765625 26.217529296875 C11.866673502711706 26.929085044378667 12.568119773515491 27.64323960132461 13.26953125 28.357421875 C13.491894531250011 28.581396484375006 13.491894531250011 28.581396484375006 14.6171875 29.71484375 C14.821423339843761 29.92169799804688 14.821423339843761 29.92169799804688 15.85498046875 30.968505859375 C16.883616167526554 31.895155289509518 17.733151679325033 32.46833072485728 19 33 C19 33.66 19 34.31999999999999 19 35 C19.221074218750005 35.05736328124999 19.221074218750005 35.05736328124999 20.33984375 35.34765625 C22.2403975985859 36.09446211520907 23.165857402910206 36.96204998363868 24.5625 38.4375 C24.976289062499973 38.86933593750001 25.390078125000002 39.301171874999994 25.81640625 39.74609375 C26.206992187499964 40.1598828125 26.59757812500004 40.573671875 27 41 C27.664410622819673 41.66891510161847 28.330254091031406 42.33642686438594 29 43 C29 44.31999999999999 29 45.639999999999986 29 47 C30.649999999999977 47 32.30000000000001 47 34 47 C34.33000000000004 46.00999999999999 34.65999999999997 45.02000000000001 35 44 C45.93922651933701 42.906077348066304 45.93922651933701 42.906077348066304 50 46 C52.920843702184015 49.833607359116456 53.03763335789 52.354916164375595 52.421875 56.953125 C51.99130084419335 59.49490146814912 50.85384631789617 61.22776955773449 49 63 C48.34000000000003 63 47.68000000000001 63 47 63 C46.66999999999996 63.99000000000001 46.34000000000003 64.98000000000002 46 66 C45.17500000000001 66.16499999999999 45.17500000000001 66.16499999999999 41 67 C41 67.66 41 68.32 41 69 C35.17129057805488 72.16301978870058 29.547238997054308 72.67806295613508 23 73 C23 73.66 23 74.32 23 75 C19.036284653693087 76.00480580513698 15.261809757678293 76.12154796750258 11.1875 76.0625 C10.590019531249993 76.05798828125 9.992539062499986 76.05347656250001 9.376953125 76.048828125 C7.9178608292313015 76.03715538663386 6.4589861176347085 76.020783278029 5 76 C5.010473632812477 76.46784912109376 5.020947265625011 76.9356982421875 5.03173828125 77.417724609375 C5.339647717433138 93.25947022160801 3.770063215519997 107.35013423548014 -7.3046875 119.7421875 C-9.109894572223311 121.61104729640817 -11.003585279796084 123.33809093770259 -13 125 C-13.659999999999968 125 -14.319999999999993 125 -15 125 C-15 125.65999999999997 -15 126.32 -15 127 C-28.123414003713037 132.60805327273636 -39.830692583268274 134.57630189287488 -54 135 C-53.97381591796875 135.45624755859376 -53.9476318359375 135.91249511718752 -53.920654296875 136.382568359375 C-53.09900192526686 153.05899130414127 -55.68821589638304 167.45209466057088 -66 181 C-69.95196336691049 183.30018152876858 -73.5132435262127 183.4620026468058 -78 183 C-79.77711504399883 182.5056466544272 -81.37714495457982 181.87384502445707 -83 181 C-83 180.34000000000003 -83 179.68 -83 179 C-83.65999999999997 179 -84.32 179 -85 179 C-86 177 -86 177 -85 167 C-84.34000000000003 167 -83.68 167 -83 167 C-83 164.69 -83 162.38 -83 160 C-83.72187500000001 159.773125 -84.44375000000002 159.54625 -85.1875 159.3125 C-89.20885375182854 157.70167363918233 -92.36329646695918 154.5447267097498 -94.3125 150.6875 C-94.539375 150.130625 -94.76625000000001 149.57375000000002 -95 149 C-95.29930419921874 148.91508300781254 -95.59860839843748 148.83016601562497 -95.906982421875 148.74267578125 C-99.97439346189168 147.38030964393562 -102.40751153332565 144.94783224474884 -105.3125 141.875 C-105.53969726562502 141.64103515624998 -105.53969726562502 141.64103515624998 -106.689453125 140.45703125 C-107.80015667963926 139.31125284626683 -108.903198061316 138.1590658041988 -110 137 C-115 138 -115 138 -116 139 C-122 139 -122 139 -128 135 C-128.32999999999998 133.35000000000002 -128.66000000000003 131.7 -129 130 C-129.66000000000003 130 -130.32 130 -131 130 C-130.47318308427225 125.89446127743213 -128.9744517737492 122.61361928403153 -127 119 C-126.05598958333331 118.57682291666669 -125.11197916666669 118.15364583333331 -124.16796875 117.73046875 C-123 117 -123 117 -121.7890625 115.62109375 C-119.66428099966737 113.42792231182136 -116.90030270419624 112.42083138968144 -114.121826171875 111.26513671875 C-113.19596009291695 110.87853259171186 -112.27661647281207 110.47642769888256 -111.357421875 110.07421875 C-104.38621522160156 107.11764671400539 -98.0652331600528 106.85935248563561 -90.625 106.9375 C-89.78515893624768 106.94252801718352 -88.94531493845278 106.94708860881735 -88.10546875 106.951171875 C-86.07023858870173 106.96206766038472 -84.03515266130717 106.97925918422936 -82 107 C-82.01571044921877 106.44650878906248 -82.03142089843749 105.89301757812501 -82.047607421875 105.32275390625 C-82.5729305967846 85.08162873082233 -82.5729305967846 85.08162873082233 -79 77 C-78.34000000000003 77 -77.68 77 -77 77 C-76.98130859374999 76.81244140625 -76.98130859374999 76.81244140625 -76.88671875 75.86328125 C-76.38485585927214 71.95662306139286 -75.2616364869948 69.21465311987947 -73 66 C-72.34000000000003 65.67000000000002 -71.68 65.34 -71 65 C-70.34000000000003 63.68000000000001 -69.68 62.360000000000014 -69 61 C-68.38125000000002 60.731875 -67.76249999999999 60.463750000000005 -67.125 60.1875 C-65.55061164570998 59.411239075315336 -65.06678854205506 59.10972403337621 -64.125 57.5625 C-62.34423754911336 55.08921881821294 -59.82038826259753 54.036060994423565 -57 53 C-55.551263946145184 52.78798984577736 -54.46542319769537 52.83091270795822 -53 53 C-53 52.34 -53 51.68000000000001 -53 51 C-43.48519387461465 48.020349442133636 -32.77995724723422 46.02766005231118 -23 49 C-23.095390624999993 48.42894531249999 -23.190781249999986 47.85789062500001 -23.2890625 47.26953125 C-24.794764204583146 36.892809531565064 -22.87232145258281 26.67640326617007 -19 17 C-18.853046875000018 16.618598632812507 -18.70609374999998 16.237197265625014 -18.5546875 15.84423828125 C-15.329920261364805 7.56027583030675 -10.224346077314749 -2.514636467663877 0 0 Z M-6 9 C-13.803964415550922 23.414942737473353 -16.00947156313549 36.05977831232701 -12.7822265625 52.4208984375 C-12.235519443532667 55.26953026790889 -11.881712571183357 58.07697881128854 -11.71484375 60.97265625 C-11.695271148681627 61.31227386474609 -11.675698547363254 61.65189147949218 -11.655532836914063 62.001800537109375 C-11.564214513956813 63.672323012331645 -11.489976549634605 65.34161991400825 -11.429931640625 67.013671875 C-11.401491699218752 67.61888671874999 -11.373051757812505 68.22410156250001 -11.34375 68.84765625 C-11.334404296874993 69.11582153320313 -11.334404296874993 69.11582153320313 -11.287109375 70.472900390625 C-10.934978174183527 72.3458431296616 -10.13463760311322 73.48913151501617 -9 75 C-8.28028865106387 87.28381185399547 -8.489047350978012 99.02894881365876 -16.875 109 C-17.867579080708197 110.06153922269368 -18.910275776011474 111.03926082753912 -20 112 C-20.265385742187505 112.24186035156248 -20.53077148437501 112.48372070312502 -20.80419921875 112.73291015625 C-25.369189373138454 116.77946150051662 -30.04702192215757 118.09557929429604 -36 119 C-36 119.65999999999997 -36 120.32 -36 121 C-41.50047773345557 121.19921247324385 -46.27051615672423 121.21001585282545 -51.52734375 119.4453125 C-53.4493312407817 118.86412795371587 -55.01168624689268 118.8409348997514 -57 119 C-57 120.32 -57 121.63999999999999 -57 123 C-54.462882539984946 124.01494822572431 -52.26584158343883 124.16049196931249 -49.578125 124.16796875 C-49.36658782958983 124.16963294982907 -49.36658782958983 124.16963294982907 -48.29608154296875 124.17805480957031 C-47.40182576045328 124.1831023976194 -46.50755126334241 124.1854638060633 -45.61328125 124.185302734375 C-44.26789830517521 124.18747115244508 -42.92336112365092 124.20559630937572 -41.578125 124.224609375 C-32.52615725632256 124.28555762955034 -22.336748358969373 122.0842846355647 -15.4609375 115.69140625 C-14.40453828736247 114.48847424335145 -13.473204230430497 113.27814009279876 -12.60498046875 111.93359375 C-12.167118167519618 111.2578934110553 -11.713475624164175 110.59233274473917 -11.25048828125 109.93359375 C-1.3889173481844068 95.88814571014802 -4.027793597651339 80.22497728880421 -6 64.125 C-6.041612548828141 63.78425445556641 -6.083225097656282 63.443508911132824 -6.1260986328125 63.092437744140625 C-6.82437444040562 57.48217046011365 -6.82437444040562 57.48217046011365 -7.50927734375 55.601806640625 C-8.165833537229105 53.45868963295507 -8.251095200058444 51.406068655019226 -8.3515625 49.17578125 C-8.374715270996091 48.71068649291993 -8.397868041992183 48.24559173583984 -8.421722412109375 47.76640319824219 C-8.469227634058598 46.78227975341437 -8.5144775375893 45.798045177766255 -8.5576171875 44.813720703125 C-8.62402271863209 43.33427283743262 -8.702182033757651 41.85577118112636 -8.78125 40.376953125 C-9.143512312977805 32.974905597802206 -9.354620553290204 25.78594258285898 -5.9375 19 C-5.751230468750009 18.606835937499994 -5.564960937500018 18.21367187499999 -5.373046875 17.80859375 C-4.079645850932252 15.089135186575504 -3.854715706467573 14.903143804311753 -1 13 C-0.6700000000000159 11.680000000000007 -0.34000000000003183 10.360000000000014 0 9 C-3 8 -3 8 -6 9 Z M-1 29 C-1 30.650000000000006 -1 32.30000000000001 -1 34 C0.3199999999999932 35.31999999999999 1.6399999999999864 36.639999999999986 3 38 C3.659999999999968 38 4.319999999999993 38 5 38 C5.226875000000007 38.55687499999999 5.453750000000014 39.11374999999998 5.6875 39.6875 C6.90319991835247 42.12746110373564 8.671121986559228 43.7622549335878 10.625 45.62890625 C12.932783215941754 47.9301332636237 14.954238558182794 50.46673795928166 17 53 C18.980000000000018 53 20.960000000000036 53 23 53 C23 51.68000000000001 23 50.360000000000014 23 49 C21.680000000000007 48.34 20.360000000000014 47.68000000000001 19 47 C18.670000000000016 46.34 18.340000000000032 45.68000000000001 18 45 C17.340000000000032 45 16.680000000000007 45 16 45 C15.881406249999998 44.553984375 15.762812499999995 44.10796875 15.640625 43.6484375 C14.927900773944316 41.81447638173478 14.172392060516643 40.966369727955566 12.75 39.625 C12.307851562499991 39.2008984375 11.865703124999982 38.776796875 11.41015625 38.33984375 C10.944804687499982 37.89769531249999 10.479453124999964 37.45554687499998 10 37 C9.05668478379755 36.06814978980134 8.122460951736116 35.12778836456653 7.1875 34.1875 C6.7685546875 33.7685546875 6.349609375 33.349609375 5.91796875 32.91796875 C5.615039062499989 32.61503906249999 5.312109374999977 32.312109375000006 5 32 C4.340000000000032 32 3.680000000000007 32 3 32 C3 31.340000000000003 3 30.680000000000007 3 30 C1.6800000000000068 29.670000000000016 0.36000000000001364 29.340000000000003 -1 29 Z M1 48 C0.6699999999999591 48.66 0.34000000000003183 49.31999999999999 0 50 C0.3300000000000409 50.99000000000001 0.6599999999999682 51.97999999999999 1 53 C2.319999999999993 53 3.6399999999999864 53 5 53 C3 49 3 49 1 48 Z M36.875 53.5 C36.33617187499999 53.778437499999995 35.79734374999998 54.05687499999999 35.2421875 54.34375 C34.83226562499999 54.56031250000001 34.42234374999998 54.77687499999999 34 55 C34 55.66 34 56.31999999999999 34 57 C27.30082082868205 59.93823647864821 20.503671133657747 60.67153506447727 13.29736328125 61.35302734375 C12.913177337646516 61.38986633300783 12.528991394042976 61.42670532226563 12.133163452148438 61.46466064453125 C11.41160302549838 61.53263920625824 10.689735579681383 61.59747105181248 9.967544555664063 61.65838623046875 C7.553852886346931 61.87982381373746 5.331870430572394 62.369272171046845 3 63 C3.330000000000041 63.99000000000001 3.659999999999968 64.98000000000002 4 66 C20.257144252845478 66.20638952664746 20.257144252845478 66.20638952664746 27 65 C27.241054687499968 64.698359375 27.482109374999993 64.39671874999999 27.73046875 64.0859375 C29.445490126598884 62.61893459940154 31.168797507505815 62.2292503638256 33.3125 61.625 C37.27922164547891 60.42182754512007 40.02030701224072 58.94974632456572 43 56 C42.835000000000036 55.34 42.835000000000036 55.34 42 52 C39.77174355956174 52 38.824995016586286 52.482611295694085 36.875 53.5 Z M-54 61 C-54 61.66 -54 62.31999999999999 -54 63 C-54.278437499999995 63.05156249999999 -54.278437499999995 63.05156249999999 -55.6875 63.3125 C-60.82444191212841 64.65572862719966 -63.55163384170112 67.32696248592549 -66.30078125 71.79296875 C-67 73 -67 73 -67 75 C-67.65999999999997 75 -68.32 75 -69 75 C-71.49281432865376 82.02322518334836 -72.49438797950745 88.25190751823084 -72.375 95.6875 C-72.37234130859372 96.170022277832 -72.3696826171875 96.65254455566406 -72.366943359375 97.14968872070313 C-72.2943484932511 108.54871143312516 -70.7728920278123 119.75753840874006 -69 131 C-68.34000000000003 131 -67.68 131 -67 131 C-66.3428494952633 145.02005326836314 -67.37508114735476 157.29980270399358 -76 169 C-75.67000000000002 170.64999999999998 -75.34000000000003 172.3 -75 174 C-68.77384226921026 170.26430536152617 -66.0243603371515 165.34798082868713 -64.27197265625 158.4205322265625 C-63.255111567772076 153.1093955629101 -63.460784606505285 147.57175662363335 -63.5 142.1875 C-63.50209472656252 141.55711822509767 -63.504189453125036 140.92673645019534 -63.50634765625 140.27725219726563 C-63.555364578866886 133.28178847018705 -63.99470474119357 126.75162661394495 -65.7623291015625 119.98226928710938 C-69.51478848870107 104.47374202801461 -69.22810300959719 89.63604207255344 -63 75 C-61.35000000000002 73.68 -59.69999999999999 72.36000000000001 -58 71 C-58 70.34 -58 69.68 -58 69 C-57.37351562499998 68.7950390625 -56.747031249999964 68.59007812499999 -56.1015625 68.37890625 C-55.276015272275856 68.1068509135909 -54.45049589071641 67.83471106825772 -53.625 67.5625 C-53.21249999999998 67.42779296875 -52.80000000000001 67.2930859375 -52.375 67.154296875 C-51.97539062499999 67.02216796875001 -51.57578124999998 66.8900390625 -51.1640625 66.75390625 C-50.7974853515625 66.63345947265626 -50.430908203125 66.51301269531251 -50.05322265625 66.388916015625 C-48.989576186833006 65.99615087288478 -48.00373527095849 65.52567163399999 -47 65 C-47 64.34 -47 63.68000000000001 -47 63 C-37.69553121361827 61.6908285124689 -28.371415839069755 61.90043445087616 -19 62 C-19 61.34 -19 60.68000000000001 -19 60 C-29.763185237323455 53.7904700553903 -43.09616245522341 57.00794263209738 -54 61 Z M-30 70 C-29 73 -29 73 -19 81 C-18.670000000000016 81 -18.340000000000032 81 -18 81 C-18.329999999999984 78.36000000000001 -18.659999999999968 75.72 -19 73 C-24 70 -24 70 -30 70 Z M-44 72 C-44.65999999999997 72.66 -45.31999999999999 73.32 -46 74 C-45.00999999999999 75.32 -44.01999999999998 76.63999999999999 -43 78 C-42.34000000000003 78 -41.68000000000001 78 -41 78 C-41 78.66 -41 79.32 -41 80 C-40.69707031249999 80.30292968750001 -40.39414062499998 80.605859375 -40.08203125 80.91796875 C-39.19986955142991 81.80013044857009 -38.31840951919878 82.6829941469399 -37.4375 83.56640625 C-36.50645052520781 84.49808823122885 -35.56846403102685 85.42050237885735 -34.625 86.33984375 C-32.48102757824512 88.43915007963494 -30.50814238445139 90.39502679049303 -29 93 C-28.340000000000032 93 -27.680000000000007 93 -27 93 C-26.731875000000002 93.59812499999998 -26.463750000000005 94.19624999999996 -26.1875 94.8125 C-25.112995079850634 96.98470059397107 -23.785271446160834 98.37702595803557 -22 100 C-21.670000000000016 99.00999999999999 -21.340000000000032 98.01999999999998 -21 97 C-20.340000000000032 97 -19.680000000000007 97 -19 97 C-19 95.01999999999998 -19 93.03999999999996 -19 91 C-20.649999999999977 90.34000000000003 -22.30000000000001 89.68 -24 89 C-24.329999999999984 87.68 -24.659999999999968 86.36000000000001 -25 85 C-25.349335937499973 84.73445312500002 -25.698671875000002 84.46890625000003 -26.05859375 84.1953125 C-26.286113281249982 84.01871093750003 -26.286113281249982 84.01871093750003 -27.4375 83.125 C-27.889960937500007 82.77695312499998 -28.342421875000014 82.42890625000001 -28.80859375 82.0703125 C-30 81 -30 81 -31 79 C-32.64999999999998 78.00999999999999 -34.30000000000001 77.01999999999998 -36 76 C-36.329999999999984 75.00999999999999 -36.65999999999997 74.01999999999998 -37 73 C-39.31 72.67000000000002 -41.620000000000005 72.34 -44 72 Z M-57 79 C-57 85.2443531041265 -55.97630120375061 86.81199536334668 -52.06640625 91 C-50.05679086538464 93 -50.05679086538464 93 -48 93 C-47.88656249999997 93.2784375 -47.88656249999997 93.2784375 -47.3125 94.6875 C-46.10552590051799 97.10144819896402 -44.37662853033669 98.713929463559 -42.44140625 100.5625 C-39.754049943371 103.17661598799975 -37.406449622475066 106.13045354295923 -35 109 C-34.34000000000003 109 -33.68000000000001 109 -33 109 C-33 109.65999999999997 -33 110.32 -33 111 C-32.00999999999999 111 -31.019999999999982 111 -30 111 C-29.340000000000032 109.35000000000002 -28.680000000000007 107.69999999999999 -28 106 C-28.314531250000016 105.708671875 -28.629062500000032 105.41734374999999 -28.953125 105.1171875 C-31.265301989428167 102.90251194988502 -33.214800909269854 100.82898338291818 -34.9375 98.125 C-38.544174289563216 92.4677568603222 -43.20025647356135 87.65526964102747 -48 83 C-48.772089782877345 82.2304251675555 -49.543017817516215 81.4596821199662 -50.3125 80.6875 C-50.86937499999999 80.13062500000001 -51.42624999999998 79.57375000000002 -52 79 C-53.64999999999998 79 -55.30000000000001 79 -57 79 Z M-60 94 C-60.45693573423472 99.56784653937882 -59.51019412421476 103.08420317341279 -57 108 C-56.00999999999999 108.32999999999998 -55.01999999999998 108.65999999999997 -54 109 C-53.670000000000016 109.65999999999997 -53.34000000000003 110.32 -53 111 C-50.360000000000014 111.32999999999998 -47.72000000000003 111.65999999999997 -45 112 C-47 107 -47 107 -51 105 C-51.65999999999997 103.35000000000002 -52.31999999999999 101.69999999999999 -53 100 C-53.65999999999997 100 -54.31999999999999 100 -55 100 C-55.10957031250001 99.73445312500002 -55.21914062500002 99.46890625000003 -55.33203125 99.1953125 C-56.49605336244224 96.6022876316328 -57.50130034203579 95.3629270861623 -60 94 Z M-112 119 C-112 119.65999999999997 -112 120.32 -112 121 C-112.55687499999999 121.10312499999998 -113.11374999999998 121.20625000000001 -113.6875 121.3125 C-116.43051232428547 121.9810478066359 -118.65675051490848 123.47304644209203 -121 125 C-121 126.64999999999998 -121 128.3 -121 130 C-116 129 -116 129 -114.80859375 127.59765625 C-112.84050207631822 125.63187318825214 -110.70577913920562 125.10126548963706 -108.0625 124.4375 C-103.18276724991381 123.15721029795338 -103.18276724991381 123.15721029795338 -101.23046875 121.94921875 C-97.97293771945652 120.21991215353864 -93.86087012873872 120.51782799025915 -90.25 120.375 C-89.44917916388329 120.33675764521985 -88.64839671112048 120.29770238822243 -87.84765625 120.2578125 C-85.89875439786186 120.16248409959019 -83.94966056580819 120.07821534559503 -82 120 C-82 119.00999999999999 -82 118.01999999999998 -82 117 C-92.53354566568919 115.41008337956424 -101.70805827604926 116.78649964365002 -112 119 Z M-84 129 C-83.00999999999999 130.98000000000002 -82.01999999999998 132.96000000000004 -81 135 C-79.68 135.33000000000004 -78.36000000000001 135.65999999999997 -77 136 C-77 134.35000000000002 -77 132.7 -77 131 C-80 129 -80 129 -84 129 Z M-103 132 C-100.66260530373637 135.33693848085005 -97.97846106830156 138.05922286424322 -94.9375 140.75 C-94.59718750000002 141.05558837890624 -94.25687499999998 141.36117675781247 -93.90625 141.676025390625 C-92.02113436085733 143.31128985677822 -90.48489615082985 144.41167567768514 -88 145 C-87.67000000000002 145.99 -87.34000000000003 146.98000000000002 -87 148 C-85.68 148.32999999999998 -84.36000000000001 148.65999999999997 -83 149 C-82.34000000000003 150.32 -81.68 151.64 -81 153 C-79.68 153.32999999999998 -78.36000000000001 153.65999999999997 -77 154 C-76.67000000000002 152.68 -76.34000000000003 151.36 -76 150 C-76.99000000000001 148.68 -77.98000000000002 147.36 -79 146 C-79.65999999999997 146 -80.32 146 -81 146 C-81.65999999999997 144.35000000000002 -82.32 142.7 -83 141 C-84.32 140.66999999999996 -85.63999999999999 140.34000000000003 -87 140 C-87.65999999999997 138.35000000000002 -88.32 136.7 -89 135 C-89.99000000000001 134.66999999999996 -90.98000000000002 134.34000000000003 -92 134 C-92.99000000000001 132.68 -93.98000000000002 131.36 -95 130 C-100 130 -100 130 -103 132 Z " transform="translate(396,174)" />
    <path d="M0 0 C3.453296206850098 5.262165648533511 6.842349649129858 11.510787888184893 6 18 C6.659999999999997 18 7.319999999999993 18 8 18 C8.130517578124994 18.498142089843753 8.261035156249989 18.996284179687507 8.3955078125 19.509521484375 C9.00432031487287 21.821387271896867 9.624445772252727 24.13011133776007 10.25 26.4375 C10.36226928710937 26.851832885742198 10.474538574218741 27.266165771484367 10.5902099609375 27.69305419921875 C11.960279765159157 32.70956112408817 13.422055067954886 37.46377566626376 15.751953125 42.13037109375 C17.433602094237017 45.615043277911695 17.791411486242964 49.17240077255889 18 53 C18.659999999999968 53 19.319999999999993 53 20 53 C21.466589569060943 56.81051396961368 22.24057455212727 59.910232613836115 22 64 C16.725427882963743 67.16474327022178 16.47621955385398 66.91605739401336 11.3125 66.0625 C10.782050781250007 65.97548828125 10.251601562500014 65.88847656249999 9.705078125 65.798828125 C9.179785156250006 65.71181640625 8.654492187500011 65.62480468749999 8.11328125 65.53515625 C7.636730957031261 65.45660400390625 7.160180664062494 65.3780517578125 6.669189453125 65.297119140625 C4.438888899292408 64.9001210750971 2.2199383213559827 64.45092550924284 0 64 C0.08570287684023015 67.59146283575598 0.18103481403579735 71.18254760531511 0.28752708435058594 74.77345752716064 C0.3367387669816253 76.44226426100204 0.38211049798519525 78.11095574615985 0.421875 79.780029296875 C0.7408135329554284 93.01099499994814 2.5600038510026764 104.5424923573105 7.52734375 116.7890625 C7.595115203857404 116.95658020019528 7.595115203857404 116.95658020019528 7.938079833984375 117.8043212890625 C8.622579833532285 119.49357112227415 9.313955253601563 121.17938161154217 10.0185546875 122.8603515625 C10.276791092713637 123.48758971212146 10.53493316516085 124.11486670943509 10.79296875 124.7421875 C10.909105224609391 125.01989990234375 10.909105224609391 125.01989990234375 11.496826171875 126.42529296875 C12.01471117520748 128.046039340169 12.098312063799483 129.31055968033934 12 131 C12.659999999999997 131 13.319999999999993 131 14 131 C14.671632656951886 132.2892948325416 15.337373326140323 133.58108710307135 16 134.875 C16.190781249999986 135.2398046875 16.3815625 135.604609375 16.578125 135.98046875 C16.75859374999999 136.3349609375 16.939062500000006 136.689453125 17.125 137.0546875 C17.292578124999977 137.37937011718748 17.46015625000001 137.704052734375 17.6328125 138.03857421875 C18 139 18 139 18 141 C18.659999999999968 141 19.319999999999993 141 20 141 C20.67204881091368 142.12208149679338 21.337649479269885 143.24721397821622 22 144.375 C22.190781249999986 144.69210937499997 22.381562499999973 145.00921875 22.578125 145.3359375 C23.589578261981956 147.06985737768338 24 147.94674127161795 24 150 C24.278437499999995 150.11343750000003 24.278437499999995 150.11343750000003 25.6875 150.6875 C28.67532993467364 152.18141496733682 30.7255563501501 154.60838804091543 33 157 C33.852810782304175 157.8347208566189 34.706958728172935 158.6680779657387 35.5625 159.5 C37.21951375668135 161.14147925271243 38.66280667767364 162.8230647542449 40.0625 164.6875 C41.80899626196572 166.95438086246975 43.3493807971239 167.9586853131558 46 169 C46 169.65999999999997 46 170.32 46 171 C46.65999999999997 171 47.31999999999999 171 48 171 C48 171.65999999999997 48 172.32 48 173 C48.278437499999995 173.0515625 48.278437499999995 173.0515625 49.6875 173.3125 C52.43051232428547 173.98104780663584 54.656750514908424 175.47304644209197 57 177 C57 177.65999999999997 57 178.32 57 179 C57.17595703124999 179.04898437500003 57.17595703124999 179.04898437500003 58.06640625 179.296875 C61.01731470671325 180.19062273101497 63.56166445641753 181.26554707484104 66.19140625 182.8828125 C70.07094780293511 185.17801668458753 74.12103928799434 186.6757261304606 78.375 188.125 C79.13208243386919 188.3884209639691 79.8891624922449 188.6518487552961 80.646240234375 188.915283203125 C84.74634029238075 190.32578664665652 88.81333823941645 191.57706558344177 93.081298828125 192.37890625 C96.89234717028796 193.10716828701948 100.42162992556001 194.5374509232534 104 196 C105.02883476746081 200.50629628147846 105.0269326304695 204.76055174427898 104.703125 209.331298828125 C104.62538062796386 210.43211054592416 104.55792463062141 211.53317811148992 104.4921875 212.634765625 C103.70734742538332 225.11581571827082 103.70734742538332 225.11581571827082 99 231 C91.28654294293295 231.38782744979665 83.91141386189611 230.20283950172097 76.640625 227.5703125 C73.93404011943528 226.629452041518 71.17711556610311 225.85190026117488 68.42578125 225.052978515625 C68.01199218750003 224.93108154296874 67.598203125 224.80918457031248 67.171875 224.68359375 C66.80159179687502 224.57587646484376 66.43130859375003 224.46815917968752 66.0498046875 224.357177734375 C64.97438660795387 223.99128549010152 64.00304036850179 223.530704692148 63 223 C63 222.34000000000003 63 221.68 63 221 C62.59910156249998 220.98582031249998 62.19820312500002 220.97164062499996 61.78515625 220.95703125 C56.384097190671014 220.50388117019236 52.617135027736595 218.40424643051853 48.0537109375 215.6376953125 C46.59180453445089 214.75296418998744 45.10996694086839 213.90800749264758 43.625 213.0625 C43.079726562500014 212.7492578125 42.53445312500003 212.43601562499998 41.97265625 212.11328125 C37.685620771320544 209.67636736276353 33.334785637982804 207.35051131035414 29 205 C28.670000000000016 204.34000000000003 28.340000000000032 203.68 28 203 C27.708671874999993 202.82984375 27.417343749999986 202.65968750000002 27.1171875 202.484375 C17.208877284595303 196.62663185378585 17.208877284595303 196.62663185378585 16 193 C15.697070312499989 192.8414453125 15.394140625000006 192.68289062500003 15.08203125 192.51953125 C9.778372099880585 189.56580107716422 5.700206919490569 185.9634123295565 4 180 C3.443125000000009 179.79375 2.8862499999999898 179.58749999999998 2.3125 179.375 C-0.8499750051230421 177.8050570510282 -3.039983227727248 174.8635189275211 -5 172 C-5.167578125000006 171.4856640625 -5.335156250000011 170.971328125 -5.5078125 170.44140625 C-6.098423534415758 168.71175964921105 -6.820079102159269 168.0698337942298 -8.1875 166.875 C-10.540071007541599 164.61817316136995 -12.375557720121634 162.207551462421 -14.1875 159.5 C-14.43717529296876 159.1324560546875 -14.686850585937492 158.76491210937502 -14.944091796875 158.38623046875 C-16.47258802219784 156.05301835549164 -17.54074550835884 153.73948648552488 -18.524169921875 151.1337890625 C-19.159838919974618 149.6191421527131 -20.056874109270893 148.41740133485337 -21.0625 147.125 C-23.316097775080493 143.9079682318553 -23.771310189343353 140.86485780009752 -24 137 C-24.659999999999997 137 -25.319999999999993 137 -26 137 C-27.73711104441594 132.64564164866397 -29.241005491635207 128.35656563054295 -30.30029296875 123.78662109375 C-30.727971204292032 121.97721317414914 -31.233826390886662 120.31770913641316 -32 118.625 C-34.592368683752625 112.3992326886256 -35.143579012576254 105.52400364799973 -35.5546875 98.86328125 C-35.575901012420644 98.52426788330081 -35.59711452484132 98.18525451660156 -35.61897087097168 97.83596801757813 C-36.14953757413096 89.14440419635537 -36.11640178361793 80.45366154112673 -36.06866455078125 71.74957275390625 C-36.058175563192975 69.6234238143524 -36.053813989597785 67.49726145119021 -36.048828125 65.37109375 C-36.03830930189366 61.24736119979383 -36.021394676380766 57.12369045887601 -36 53 C-36.372861328125 52.89453857421876 -36.745722656249995 52.789077148437514 -37.1298828125 52.680419921875 C-38.839233768498616 52.19154130426088 -40.54450382108257 51.68965358586968 -42.25 51.1875 C-42.836523437500006 51.021855468750005 -43.42304687500001 50.85621093750001 -44.02734375 50.685546875 C-47.60418784987823 49.62053149694637 -50.16951070459487 48.44515040617918 -53 46 C-53 41 -53 41 -51 39 C-50.00999999999999 39 -49.02000000000001 39 -48 39 C-48 38.00999999999999 -48 37.02000000000001 -48 36 C-44 33 -44 33 -42 33 C-41.8865625 32.721562500000005 -41.8865625 32.721562500000005 -41.3125 31.3125 C-39.11939855611172 26.957185864954226 -35.35379077787809 24.058667854783153 -31.1796875 21.73828125 C-29.567109091336448 20.72908482868408 -28.38290547371045 19.46193432751295 -27.078125 18.08984375 C-22.250075546205323 13.209315497794506 -16.428102727104886 9.182576149442525 -11 5 C-10.340000000000003 5 -9.680000000000007 5 -9 5 C-8.670000000000016 4.009999999999991 -8.340000000000003 3.0200000000000102 -8 2 C-5 0 -5 0 0 0 Z M-7 13 C-7.244921874999989 13.256523437499993 -7.489843750000006 13.513046874999986 -7.7421875 13.77734375 C-10.761358211307027 16.86939099571788 -13.920142697698225 19.78961467121931 -17.125 22.6875 C-17.556674804687503 23.079938964843734 -17.988349609375007 23.472377929687497 -18.43310546875 23.876708984375 C-20.534576086560804 25.76640664437548 -22.58628089598278 27.52494943643393 -25 29 C-25 29.659999999999997 -25 30.319999999999993 -25 31 C-25.99000000000001 31 -26.97999999999999 31 -28 31 C-28.115371093750014 31.151464843750006 -28.115371093750014 31.151464843750006 -28.69921875 31.91796875 C-31.247354845304073 35.19126610562776 -34.013694461476604 38.123845075602475 -37 41 C-37 41.329999999999984 -37 41.66 -37 42 C-34.360000000000014 42.329999999999984 -31.72 42.66 -29 43 C-29 43.66 -29 44.31999999999999 -29 45 C-27.349999999999994 45.329999999999984 -25.69999999999999 45.66 -24 46 C-24.405946266507556 49.89639676121976 -24.814979442104885 53.79245284380909 -25.226806640625 57.688232421875 C-25.366577548821056 59.01201642811344 -25.504998775679212 60.33592165126305 -25.642822265625 61.659912109375 C-25.841709572957086 63.5690866588192 -26.043620675194518 65.47792155346977 -26.24609375 67.38671875 C-26.306553802490242 67.97337814331055 -26.367013854980485 68.56003753662111 -26.429306030273438 69.16447448730469 C-26.748259178296678 72.14311081543605 -27.154116675308927 75.05806442150015 -27.791351318359375 77.98616027832031 C-30.48410249865171 91.0704418837147 -24.389530164298634 108.08366773635669 -22 121 C-21.84341918945313 121.14115234375004 -21.84341918945313 121.14115234375004 -21.051025390625 121.85546875 C-19.954941756149793 123.04906690991169 -19.607198221065232 123.77234814073097 -19.18359375 125.3125 C-19.059199218749995 125.74820312500003 -18.93480468749999 126.18390625 -18.806640625 126.6328125 C-18.68482421875001 127.083984375 -18.563007812500018 127.53515625 -18.4375 128 C-18.187820102724174 128.89628681073367 -17.93657301032846 129.79213884826152 -17.68359375 130.6875 C-17.57587646484376 131.0832421875 -17.468159179687518 131.47898437499998 -17.357177734375 131.88671875 C-17.00156136787919 132.99513339881815 -16.54797717932732 133.9748467504736 -16 135 C-15.340000000000003 135 -14.680000000000007 135 -14 135 C-13.962617187500001 135.2797265625 -13.925234375000002 135.559453125 -13.88671875 135.84765625 C-13.22902393838163 139.8583050032022 -11.680198723524484 143.33315121344032 -10 147 C-9.340000000000003 147 -8.680000000000007 147 -8 147 C-7.878828124999984 147.38671875 -7.757656249999997 147.7734375 -7.6328125 148.171875 C-6.635992266576068 151.26968557156363 -5.542967623517143 154.13448869918238 -4 157 C-3.3400000000000034 157 -2.680000000000007 157 -2 157 C-1.8904296874999886 157.3029296875 -1.7808593750000057 157.60585937500002 -1.66796875 157.91796875 C-0.43471995893852977 161.1765529540242 1.127198786845355 164.06594476605773 3 167 C3.6599999999999966 167 4.319999999999993 167 5 167 C5.329999999999984 168.32 5.659999999999997 169.64 6 171 C6.659999999999997 171 7.319999999999993 171 8 171 C8.329999999999984 171.99 8.659999999999997 172.98000000000002 9 174 C9.659999999999997 174 10.319999999999993 174 11 174 C11.226875000000007 174.53625 11.453750000000014 175.0725 11.6875 175.625 C13.990721489805082 180.18278337067056 17.22400366975819 183.83610193390433 21.73046875 186.2109375 C24.169385830370516 187.72681826995336 26.05655279590161 189.90769301005582 28 192 C29.319999999999993 192.33000000000004 30.639999999999986 192.65999999999997 32 193 C32 193.65999999999997 32 194.32 32 195 C34.31 196.32 36.620000000000005 197.64 39 199 C39.329999999999984 199.65999999999997 39.65999999999997 200.32 40 201 C41.267284184297694 201.67427947098025 42.538120761263315 202.33937608639917 43.8125 203 C44.16892578124998 203.19078125 44.52535156250002 203.38156249999997 44.892578125 203.578125 C47.01965354859368 204.67093439193803 48.54622269784841 205.24769991693643 51 205 C51 205.65999999999997 51 206.32 51 207 C52.815 207.65999999999997 52.815 207.65999999999997 62 211 C62.329999999999984 211.65999999999997 62.65999999999997 212.32 63 213 C63.48355957031248 213.1409912109375 63.967119140625016 213.281982421875 64.46533203125 213.42724609375 C66.28842332687577 213.9591359678762 68.1110683853812 214.4925416887874 69.93359375 215.0263671875 C70.71700462345439 215.2556111889944 71.50053017418367 215.48446372389856 72.2841796875 215.712890625 C73.42154129246643 216.04449989089812 74.55851711209141 216.37739264964853 75.6953125 216.7109375 C76.06737823486327 216.81977264404293 76.43944396972654 216.92860778808597 76.82278442382813 217.04074096679688 C79.00978194523742 217.68675774066156 81.16206225705713 218.39532587557403 83.3125 219.15625 C85.61946426647205 219.94006195559655 87.44340330321245 220.2222638678715 89.875 220.125 C90.47054687499997 220.10695312500002 91.06609375 220.08890625000004 91.6796875 220.0703125 C93 220 93 220 94 219 C94.33000000000004 214.38 94.65999999999997 209.76 95 205 C92 202 92 202 90.12890625 201.703125 C84.32636279971496 200.70622749730637 79.35520909112586 199.07454164923269 74.07470703125 196.496826171875 C72.92132812265544 195.96363078818808 71.7526833277526 195.5058075614782 70.56640625 195.05078125 C67.83594200017694 193.976174319719 65.30889300329454 192.61673760864846 62.75 191.1875 C62.2769140625 190.92541748046875 61.803828124999995 190.6633349609375 61.31640625 190.393310546875 C60.347783628081174 189.8565754579531 59.37968078068752 189.3189012443098 58.412109375 188.7802734375 C57.077345554056706 188.0427379652084 55.73597520100827 187.31956333468816 54.390625 186.6015625 C53.98618164062498 186.38346923828124 53.58173828125001 186.16537597656247 53.1650390625 185.940673828125 C52.41383812707676 185.53563610665725 51.66070550582384 185.13415095388643 50.9052734375 184.737060546875 C48.83611802471563 183.6098121359766 47.295706289030136 182.39546802505265 45.68359375 180.680419921875 C44.73215751785801 179.73340107223942 43.677315355626035 179.13393903764478 42.5 178.5 C40.64118516093896 177.49909970204408 39.287695934267276 176.34404074417716 37.8212890625 174.8251953125 C36.33757646406008 173.33442581704014 34.71962084885382 171.99470420988087 33.125 170.625 C28.536753118187676 166.63544684634417 24.334896030612413 162.43426826556663 20.3125 157.875 C20.163572998046902 157.7064953613281 20.163572998046902 157.7064953613281 19.409912109375 156.853759765625 C17.77939407212034 154.98137460263945 16.32437036495091 153.10072540647388 15 151 C14.340000000000003 151 13.680000000000007 151 13 151 C12.867226562500008 150.590078125 12.734453125000016 150.18015624999998 12.59765625 149.7578125 C12.421054687500003 149.218984375 12.244453125000007 148.68015624999998 12.0625 148.125 C11.888476562499989 147.59132812500002 11.714453125000006 147.05765625000004 11.53515625 146.5078125 C11.096628901227518 145.27225369250965 10.620368977470605 144.1513153996301 10 143 C9.340000000000003 143 8.680000000000007 143 8 143 C7.841445312500014 142.46632812500002 7.682890624999999 141.93265625000004 7.51953125 141.3828125 C6.018773273002864 136.5287811886543 4.132442366820442 132.11433470846072 1.77783203125 127.6142578125 C0.0026435462260678833 124.16182227610858 -1.1593125579398418 120.78936727615172 -2 117 C-2.6599999999999966 117 -3.319999999999993 117 -4 117 C-6.787127275204085 102.64853498870798 -9.516632362024922 88.35724330598464 -9.5 73.6875 C-9.501973876953116 73.4462841796875 -9.501973876953116 73.4462841796875 -9.511962890625 72.2255859375 C-9.538404660580994 65.53466849646335 -8.399475466170998 60.26033359657913 -6 54 C-0.7199999999999989 54 4.560000000000002 54 10 54 C9.340000000000003 53.00999999999999 8.680000000000007 52.02000000000001 8 51 C7.577335138876606 49.64778501496795 7.227889526792126 48.365330189198744 6.9296875 46.98828125 C6.843733215332037 46.61519332885743 6.757778930664074 46.24210540771486 6.669219970703125 45.85771179199219 C6.39864290088849 44.677212966014764 6.136705346013514 43.494993676692786 5.875 42.3125 C5.691975859993818 41.50703181570725 5.508387615571394 40.70169159099288 5.32421875 39.896484375 C4.876276683472952 37.932408862768995 4.436066978863579 35.96674459098807 4 34 C3.3400000000000034 34 2.680000000000007 34 2 34 C1.9775622558593682 33.8543359375 1.9775622558593682 33.8543359375 1.864013671875 33.1171875 C0.7484276200893021 26.048567535509818 -0.6623549213533693 19.389206293409273 -4 13 C-4.990000000000009 13 -5.980000000000018 13 -7 13 Z " transform="translate(239,188)" />
    <path d="M0 0 C2.4772436038953742 2.223167336829192 3.7956441558128517 4.25368012097735 5.0625 7.3125 C5.233864746093786 7.714204101562501 5.405229492187459 8.115908203125002 5.581787109375 8.52978515625 C7.256316824410305 12.50809085024423 8.605546819773338 16.500110731839385 9.71484375 20.671875 C9.844313964843764 21.156723632812486 9.973784179687527 21.641572265625 10.107177734375 22.14111328125 C10.362861621935565 23.10695956378146 10.613924095841867 24.074045010494302 10.859619140625 25.04248046875 C10.978132324218791 25.495102539062486 11.096645507812468 25.947724609375 11.21875 26.4140625 C11.269990234374973 26.614914550781236 11.269990234374973 26.614914550781236 11.529296875 27.63134765625 C12 28.99999999999997 12 28.99999999999997 12.94873046875 30.75830078125 C18.22027502148876 41.121039623232804 17.47688318927908 54.75362623686897 17.39111328125 66.0322265625 C17.374123811663253 68.28535383864937 17.384148573496987 70.53740985402294 17.401413917541504 72.79049968719482 C17.508464521121596 89.22723410404035 16.009825285960687 105.16251033908691 10.3125 120.6875 C9.987443696266666 121.61210822170807 9.66388132636473 122.53724297581806 9.341796875 123.462890625 C8.577959906796423 125.64827491171332 7.795411014209435 127.82592007975006 7 130 C6.340000000000032 130 5.680000000000007 130 5 130 C4.9713183593750045 130.34683837890623 4.942636718750009 130.6936767578125 4.9130859375 131.051025390625 C4.348877549920303 135.73657564758832 2.500427809818234 139.3867553507929 0.25 143.4375 C-0.11365834438026923 144.10641021282873 -0.4771012309659568 144.77543760451493 -0.84033203125 145.444580078125 C-2.99928245784713 149.38490907764913 -5.302204639594493 153.13280437765212 -8.03515625 156.703125 C-9.28584841031136 158.38421729645086 -10.158237812489233 160.08690411929365 -11 162 C-11.659999999999968 162 -12.319999999999993 162 -13 162 C-13.329999999999984 162.99 -13.329999999999984 162.99 -15 168 C-15.659999999999968 168.32999999999998 -15.659999999999968 168.32999999999998 -19 170 C-19.659999999999968 171.64999999999998 -20.319999999999993 173.3 -21 175 C-21.99000000000001 175.33000000000004 -22.980000000000018 175.65999999999997 -24 176 C-24.12568359375001 176.28875 -24.12568359375001 176.28875 -24.76171875 177.75 C-26.026630614987766 180.2731604541284 -27.794392727704576 182.05813651924188 -29.8125 184 C-30.172148437500027 184.3517529296875 -30.531796874999998 184.703505859375 -30.90234375 185.06591796875 C-33.477422456048544 187.55878867653888 -36.119467959547706 189.8650174288412 -39 192 C-39.5890908301252 192.45241082313555 -40.177583594367206 192.9056009766258 -40.765625 193.359375 C-47.485778687549725 198.5147001348347 -54.4270941279467 203.22047735976912 -61.8125 207.375 C-62.04054321289061 207.506484375 -62.04054321289061 207.506484375 -63.194580078125 208.171875 C-65.96137183113535 209.68909855941752 -67.84210327373432 210.3091647144596 -71 210 C-72.26045229987483 215.85625530095695 -71.76944972252716 221.11666904467717 -71 227 C-70.34000000000003 227 -69.68 227 -69 227 C-70 232 -70 232 -71 233 C-78.033692182952 233.5585579086462 -84.26757058479507 231.90234979467715 -91 230 C-91 229.34000000000003 -91 228.68 -91 228 C-91.54527343749999 227.96261718749997 -92.09054687499997 227.925234375 -92.65234375 227.88671875 C-98.45961273220632 227.40764827058257 -103.55549630963077 226.04651557155722 -109 224 C-109 223.34000000000003 -109 222.68 -109 222 C-109.55687499999999 221.97421874999998 -110.11374999999998 221.9484375 -110.6875 221.921875 C-115.79063862636713 221.581590640282 -119.54440513942382 220.51726341447483 -124.00390625 218.0546875 C-126.09497266830664 216.907265747226 -128.2610883046591 216.06297083167868 -130.5 215.25 C-130.85070556640625 215.1225439453125 -131.2014111328125 214.99508789062497 -131.562744140625 214.86376953125 C-132.37386152452007 214.57220074137496 -133.18673005532213 214.2855096614295 -134 214 C-136 211 -136 211 -135 205 C-134.33999999999997 204.67000000000002 -134.33999999999997 204.67000000000002 -131 203 C-130.33999999999997 201.01999999999998 -129.68 199.03999999999996 -129 197 C-128.33999999999997 196.67000000000002 -128.33999999999997 196.67000000000002 -125 195 C-124.33999999999997 193.35000000000002 -123.68 191.7 -123 190 C-122.33999999999997 190 -121.68 190 -121 190 C-120.7525 189.46375 -120.505 188.9275 -120.25 188.375 C-118.77842640212299 185.41052565065354 -116.86994873555523 182.72322631391535 -115 180 C-114.33999999999997 180 -113.68 180 -113 180 C-112.89187988281247 179.69489501953126 -112.783759765625 179.38979003906252 -112.67236328125 179.075439453125 C-111.44716643007291 175.8017686445295 -109.8659465164842 173.05008099618897 -107.875 170.1875 C-107.59785156250001 169.78080078125004 -107.32070312500002 169.37410156249996 -107.03515625 168.955078125 C-106.36097301477542 167.96705096992946 -105.68262867427711 166.9822018413047 -105 166 C-104.33999999999997 166 -103.68 166 -103 166 C-102.87882812499998 165.74605468749996 -102.75765624999997 165.49210937500004 -102.6328125 165.23046875 C-101.56100931599218 163.02914990284552 -100.40399827995509 161.0057118285073 -99 159 C-97.35000000000002 158.66999999999996 -95.69999999999999 158.34000000000003 -94 158 C-90 162 -90 162 -87 176 C-86.17500000000001 175.67000000000002 -86.17500000000001 175.67000000000002 -82 174 C-80.1875 173.875 -80.1875 173.875 -79 174 C-79 173.34000000000003 -79 172.68 -79 172 C-77.87791850320662 171.32795118908632 -76.75278602178378 170.66235052073017 -75.625 170 C-75.30789062500003 169.80921875 -74.99078125 169.61843750000003 -74.6640625 169.421875 C-72.93014262231668 168.41042173801804 -72.05325872838199 168 -70 168 C-70 167.34000000000003 -70 166.68 -70 166 C-69.00999999999999 166 -68.01999999999998 166 -67 166 C-66.67000000000002 165.01 -66.34000000000003 164.01999999999998 -66 163 C-64.35000000000002 162.66999999999996 -62.69999999999999 162.34000000000003 -61 162 C-60.77312499999999 161.443125 -60.546249999999986 160.88625000000002 -60.3125 160.3125 C-58.820322474673276 157.3281449493465 -56.39676205413605 155.26514795289734 -54 153 C-51.135069336840274 150.23543314988092 -48.40988238224412 147.39085395529293 -45.8125 144.375 C-45.56250244140625 144.0857666015625 -45.312504882812505 143.79653320312502 -45.054931640625 143.49853515625 C-43.560274846406514 141.7408874164767 -42.243011343709384 139.9440461773654 -41 138 C-40.34000000000003 138 -39.68000000000001 138 -39 138 C-38.89687500000002 137.46375 -38.79374999999999 136.9275 -38.6875 136.375 C-38.096890029340614 134.03683175999237 -37.06614460623962 132.04787820016554 -35.9609375 129.9140625 C-34.68642150664698 127.4175593720222 -33.53616351952803 124.86312217547123 -32.375 122.3125 C-32.265913085937484 122.07462768554689 -32.265913085937484 122.07462768554689 -31.7138671875 120.870849609375 C-30.686771631302634 118.60940243412392 -29.71743051830066 116.38346361079891 -29 114 C-28.340000000000032 114 -27.680000000000007 114 -27 114 C-26.962617187499973 113.57332031250002 -26.925234375000002 113.14664062500003 -26.88671875 112.70703125 C-26.182384477317612 106.00895042154968 -24.590525628693115 99.53566881103632 -23 93 C-22.340000000000032 93 -21.680000000000007 93 -21 93 C-20.976511549392796 88.64382449373943 -20.95890363126466 84.28767179002102 -20.948187828063965 79.93144607543945 C-20.943036866738794 77.90723637984013 -20.93608696401492 75.88307094675179 -20.924560546875 73.85888671875 C-20.78274330391247 48.179253970611256 -20.78274330391247 48.179253970611256 -23.4560546875 41.4091796875 C-24.122708510138523 39.68210344680449 -24.60077094011382 37.920769129115456 -25.0703125 36.1328125 C-25.157465209960947 35.804161987304695 -25.244617919921893 35.47551147460939 -25.33441162109375 35.13690185546875 C-25.599576622842847 34.133357147944935 -25.862339992594514 33.12920290124086 -26.125 32.125 C-26.308416434072114 31.429640704809685 -26.492009221224293 30.734327901940134 -26.67578125 30.0390625 C-27.11921397853456 28.359903999793943 -27.560284344595516 26.680136237899205 -28 25 C-28.329999999999984 24.670000000000016 -28.329999999999984 24.670000000000016 -30 23 C-30.329999999999984 19.69999999999999 -30.659999999999968 16.400000000000006 -31 13 C-21.9339875434531 6.723529837775203 -21.9339875434531 6.723529837775203 -16.74609375 4.72265625 C-15.433306770232775 4.179332779626549 -14.267721933564246 3.6211596730424276 -13.03515625 2.93359375 C-8.479496195605407 0.4076615342188177 -5.317634734502462 -0.5982339076315384 0 0 Z M-10.91796875 12.3125 C-11.44970703125 12.583203125000011 -11.9814453125 12.853906249999994 -12.529296875 13.1328125 C-13.076503906249968 13.418984375000008 -13.623710937499993 13.705156249999987 -14.1875 14 C-14.466904296874986 14.14308593749999 -14.466904296874986 14.14308593749999 -15.880859375 14.8671875 C-17.256682305424135 15.572737720730345 -18.62872067450155 16.285659142065924 -20 17 C-19.835000000000036 18.485000000000014 -19.835000000000036 18.485000000000014 -19 26 C-18.340000000000032 26 -17.680000000000007 26 -17 26 C-16.951015624999968 26.473085937500002 -16.902031249999993 26.946171875000005 -16.8515625 27.43359375 C-16.457362347512117 31.005230480448517 -15.941038428612046 34.49962463516414 -15.125 38 C-14.952808323634429 38.76946045183752 -14.780955227606569 39.53899672177937 -14.609375 40.30859375 C-14.290758048388966 41.734242048790264 -13.961982983371627 43.15558994749546 -13.615234375 44.57470703125 C-8.760730177772587 64.72320016263347 -10.490903042077662 84.18296248343933 -15.136444091796875 104.20185852050781 C-15.89076277654317 107.45306566895687 -16.5338000886577 110.69325375977718 -17 114 C-17.659999999999968 114 -18.319999999999993 114 -19 114 C-22.25968109339408 123.41002277904329 -22.25968109339408 123.41002277904329 -23 128 C-23.659999999999968 128 -24.319999999999993 128 -25 128 C-28.25968109339408 135.2984054669704 -28.25968109339408 135.2984054669704 -29 139 C-29.659999999999968 139 -30.319999999999993 139 -31 139 C-31.17015624999999 139.3751171875 -31.340312499999982 139.750234375 -31.515625 140.13671875 C-33.26996877461863 143.8413702315085 -35.308602140227606 146.91240651620024 -38 150 C-38 150.65999999999997 -38 151.32 -38 152 C-38.99000000000001 152.33000000000004 -39.98000000000002 152.65999999999997 -41 153 C-45 158 -45 158 -45 160 C-45.65999999999997 160 -46.31999999999999 160 -47 160 C-47 160.65999999999997 -47 161.32 -47 162 C-47.30292968750001 162.0863671875 -47.60585937500002 162.172734375 -47.91796875 162.26171875 C-51.305402656535364 163.3978119678842 -53.252231038286425 165.05268582056857 -55.6796875 167.6328125 C-58.98570698966381 171.0562054626696 -62.58682358755618 174.13288690242763 -67 176 C-67 176.65999999999997 -67 177.32 -67 178 C-67.3751171875 178.12117187499996 -67.75023437499999 178.24234375000003 -68.13671875 178.3671875 C-71.47812731681938 179.46135151432372 -74.75362264857318 180.6497368538313 -78 182 C-78.32999999999998 182.65999999999997 -78.65999999999997 183.32 -79 184 C-83.4988218526467 186.53200023867555 -88.00997882633379 186.19568710484964 -93 186 C-93.08564208984376 185.70754394531252 -93.17128417968752 185.415087890625 -93.259521484375 185.11376953125 C-93.65023587832042 183.78359939332108 -94.0438367031357 182.45430024894637 -94.4375 181.125 C-94.57220703125 180.6648046875 -94.7069140625 180.20460937500002 -94.845703125 179.73046875 C-94.97783203124999 179.28574218749998 -95.10996093749998 178.841015625 -95.24609375 178.3828125 C-95.36654052734377 177.97434082031248 -95.48698730468749 177.565869140625 -95.611083984375 177.14501953125 C-96 176 -96 176 -97 174 C-97.65999999999997 174.32999999999998 -97.65999999999997 174.32999999999998 -101 176 C-101.32999999999998 177.32 -101.65999999999997 178.64 -102 180 C-102.65999999999997 180.32999999999998 -102.65999999999997 180.32999999999998 -106 182 C-106.99000000000001 183.64999999999998 -107.98000000000002 185.3 -109 187 C-109.66000000000003 187.33000000000004 -110.32 187.65999999999997 -111 188 C-114.25968109339408 193.1867881548975 -114.25968109339408 193.1867881548975 -115 196 C-115.66000000000003 196 -116.32 196 -117 196 C-118.32 198.31 -119.63999999999999 200.62 -121 203 C-121.66000000000003 203.33000000000004 -122.32 203.65999999999997 -123 204 C-123 205.64999999999998 -123 207.3 -123 209 C-121.39661446763887 209.5440629550926 -119.7924576283715 210.08560133401977 -118.1875 210.625 C-117.9290832519531 210.71193115234377 -117.9290832519531 210.71193115234377 -116.621337890625 211.15185546875 C-113.11905149764755 212.32012281604113 -109.60523510521102 213.44064951192047 -106.078125 214.53125 C-105.22110800066804 214.7973567584682 -104.36409303305453 215.06347006032644 -103.507080078125 215.32958984375 C-102.22681723830163 215.7268824524631 -100.94612852342857 216.12237512300862 -99.66366577148438 216.51251220703125 C-98.45020535062753 216.88169881371346 -97.23869392569532 217.25676930769123 -96.02734375 217.6328125 C-95.84630096435546 217.68693298339844 -95.84630096435546 217.68693298339844 -94.93011474609375 217.9608154296875 C-92.65885746112099 218.67306758163056 -90.92231099487725 219.59163368143743 -89 221 C-86.69 221 -84.38 221 -82 221 C-82.14437499999997 220.16855468749998 -82.28875 219.337109375 -82.4375 218.48046875 C-82.62512975679402 217.382834672755 -82.8126225802472 216.28517718193046 -83 215.1875 C-83.095390625 214.64029296875003 -83.19078124999999 214.0930859375 -83.2890625 213.529296875 C-83.37929687500002 212.99755859375 -83.46953124999999 212.4658203125 -83.5625 211.91796875 C-83.64628906249999 211.43094482421873 -83.73007812499998 210.9439208984375 -83.81640625 210.442138671875 C-84.0068775830839 208.94597621904722 -84.03126480755031 207.506572913831 -84 206 C-83.56429687499997 205.87882812500004 -83.12859375 205.75765624999997 -82.6796875 205.6328125 C-78.7460465945577 204.5259438469535 -74.86443254747576 203.33061047422245 -71 202 C-71 201.34000000000003 -71 200.68 -71 200 C-70.6248828125 199.87882812500004 -70.24976562500001 199.75765624999997 -69.86328125 199.6328125 C-68.23789200432782 199.1005691701829 -66.61829518099688 198.55342641802963 -65 198 C-64.53593749999999 197.84402343750003 -64.07187499999998 197.688046875 -63.59375 197.52734375 C-63.170937500000036 197.37394531250004 -62.748125000000016 197.22054687499997 -62.3125 197.0625 C-61.937382812500005 196.92972656250004 -61.56226562500001 196.79695312499996 -61.17578125 196.66015625 C-59.84898440321837 195.915210512106 -58.9576664534589 194.95442358947048 -57.912353515625 193.862548828125 C-56.0629742783982 192.11412580293847 -53.9090276096847 190.74507735383594 -51.8125 189.3125 C-51.34908203125002 188.99216796874998 -50.885664062499984 188.67183593749996 -50.408203125 188.341796875 C-49.27402302667025 187.55839412666916 -48.13795929128412 186.77789811861413 -47 186 C-47 185.34000000000003 -47 184.68 -47 184 C-44.333333333333314 182.66666666666663 -41.666666666666686 181.33333333333337 -39 180 C-38.34000000000003 178.35000000000002 -37.68000000000001 176.7 -37 175 C-35.68000000000001 174.66999999999996 -34.360000000000014 174.34000000000003 -33 174 C-32.00999999999999 172.35000000000002 -31.019999999999982 170.7 -30 169 C-29.00999999999999 168.66999999999996 -28.019999999999982 168.34000000000003 -27 168 C-23.74031890660592 162.8132118451025 -23.74031890660592 162.8132118451025 -23 160 C-22.340000000000032 160 -21.680000000000007 160 -21 160 C-15.88701570680638 151.85560209424096 -15.88701570680638 151.85560209424096 -13.80078125 148.3125 C-13.195033050179404 147.31966392614765 -12.562568315798103 146.34306288581956 -11.91796875 145.375 C-5.424289774693875 135.56993990016662 -1.3658124007714605 124.99733969662617 1.562744140625 113.654052734375 C2.0182161350480783 111.93109195145121 2.511696892796124 110.22224482777915 3.01171875 108.51171875 C6.482479890732861 96.40923824383793 7.67877455639092 84.52553544752055 8 72 C8.016596679687495 71.39381835937502 8.033193359374991 70.78763671875004 8.05029296875 70.1630859375 C8.194653453368232 63.950238414301566 8.003425018249459 57.764738610789294 7.625 51.5625 C7.594223632812486 50.994990234374995 7.563447265624973 50.42748046874999 7.53173828125 49.8427734375 C7.290468726058521 46.45699071692968 6.623237865354099 43.5622451205997 5.46826171875 40.373779296875 C4.941155710839894 38.827363495774875 4.661120704957909 37.33865600966027 4.41796875 35.728515625 C3.6100006711828883 30.420353246724574 1.8720867334470768 25.506528447533924 0 20.5 C-0.06580261230465112 20.32151519775391 -0.06580261230465112 20.32151519775391 -0.3988037109375 19.41827392578125 C-0.7798428548769039 18.3906748808171 -1.1693501304636698 17.366769144333006 -1.5625 16.34375 C-1.6765820312500068 16.045654296875 -1.6765820312500068 16.045654296875 -2.25390625 14.537109375 C-2.994692706486717 13.010934136112496 -3.72872323430812 12.104865000225772 -5 11 C-7.369947594656026 10.85245462445721 -8.816369744105202 11.227803738892987 -10.91796875 12.3125 Z " transform="translate(496,193)" />
  </g>
</svg>