<svg color="#2C3440" xmlns="http://www.w3.org/2000/svg" viewBox="0 0 121 127" width="121" height="127">
  <g fill="currentColor" transform="scale(0.50000000, 0.50000000)">
    <path d="M0 0 C1.1877459538535362 -0.002024322060911743 2.375490690517722 -0.004938737667384174 3.563232421875 -0.008697509765625 C6.044554752916127 -0.013104127827027412 8.525551640612733 -0.0067442840472971 11.0068359375 0.00732421875 C14.174290058374424 0.024415896411298377 17.340981400187133 0.014565649278516446 20.508407592773438 -0.0033931732177734375 C22.958675756312516 -0.014276571812143146 25.408765527918618 -0.01076402458244985 27.859039306640625 -0.003009796142578125 C29.02633760806465 -0.0010203238184907093 30.193652543335517 -0.0034226819001190734 31.360931396484375 -0.010448455810546875 C44.21189597456579 -0.07083832694814873 44.21189597456579 -0.07083832694814873 48.82615661621094 4.3751220703125 C50.89011744742902 6.7048802866073345 51.47707548421613 9.235694331798754 51.75 12.2734375 C51.79157226562501 12.71179931640625 51.833144531250014 13.1501611328125 51.8759765625 13.601806640625 C52.08107774494735 17.30935234866496 51.303903468042705 19.325776580113 48.92578125 22.21875 C48.55839843749999 22.608046875 48.191015625000006 22.99734375 47.8125 23.3984375 C47.5379296875 23.725859375 47.26335937499999 24.053281249999998 46.98046875 24.390625 C45.43221125364971 26.12930988894952 43.9973863027528 26.73873498753447 41.8125 27.3984375 C41.76566313928504 34.61354475753694 41.73058742370846 41.82862824741068 41.70887565612793 49.043856620788574 C41.69858750806287 52.394446458003586 41.684322695089406 55.74492759750237 41.66162109375 59.095458984375 C41.639837071251065 62.330935815559044 41.627919711062816 65.56631437375678 41.622745513916016 68.80185890197754 C41.61905970287222 70.03419350773684 41.61186222030287 71.26652294021943 41.60103988647461 72.49881553649902 C41.58645057051781 74.22938901517755 41.5845250883295 75.95956013509306 41.58544921875 77.690185546875 C41.58185394287109 77.94301803588867 41.58185394287109 77.94301803588867 41.56365966796875 79.22250366210938 C41.5811509486211 82.26396827092731 42.085009368410226 84.564282743567 43.37077522277832 87.32836627960205 C43.94413359341647 88.71731777843601 43.96867089716338 89.91481397694788 43.8125 91.3984375 C44.4725 91.3984375 45.13249999999999 91.3984375 45.8125 91.3984375 C46.0024755859375 91.7888623046875 46.19245117187501 92.179287109375 46.38818359375 92.58154296875 C50.27136062791266 100.5299569692408 54.286731020862476 108.37543163335738 58.625 116.0859375 C63.0521329810465 123.95843087001413 67.27705469337042 131.92425263816676 71.44281005859375 139.937744140625 C71.66793273925782 140.37078857421875 71.8930554199219 140.8038330078125 72.125 141.25 C72.34867248535156 141.68046630859374 72.57234497070311 142.1109326171875 72.80279541015625 142.554443359375 C74.32608206497966 145.4804122178654 75.87414803680164 148.3921405806507 77.4375 151.296875 C77.85346487097746 152.07216781382104 78.26939977656448 152.84747670570428 78.685302734375 153.622802734375 C79.26919499534799 154.7109158653371 79.85441986657395 155.79815382481598 80.44509887695313 156.88259887695313 C83.91372606793658 163.25163824158517 87.39726520767076 169.95291082009814 85.8125 177.3984375 C83.81460845454583 183.6149073147647 80.57284432062477 189.11539190691164 74.8125 192.3984375 C69.12029538333061 194.4441648476962 63.56870188166957 194.68375894256548 57.58935546875 194.641357421875 C56.69464479194528 194.64243357321863 55.799934811552134 194.64437717021718 54.90522766113281 194.64710998535156 C52.49774294545671 194.65191270454758 50.0904467796928 194.64435690519358 47.682984828948975 194.63415694236755 C45.14177813807959 194.6252810571257 42.600575728135766 194.62713584165417 40.059356689453125 194.6275177001953 C35.78758657267586 194.62658406506182 31.515887896935467 194.6179474351686 27.244140625 194.604248046875 C22.343208640761233 194.5885863738953 17.442355057786813 194.58324811581002 12.541399836540222 194.58398360013962 C7.2790070208695 194.58466604371097 2.0166434401539846 194.57768037037343 -3.2457404136657715 194.56853699684143 C-4.740021618983604 194.56643132014307 -6.234297931096478 194.56569933252774 -7.728580474853516 194.56529808044434 C-25.591332593718995 194.55592069729792 -25.591332593718995 194.55592069729792 -34.27685546875 193.958251953125 C-34.829123706817626 193.92071146965026 -35.38139194488525 193.88317098617554 -35.950395584106445 193.84449291229248 C-42.13889584204798 193.34797207178178 -46.36427572544186 191.70293279047573 -50.5 186.9609375 C-54.07646735920356 182.7180329206796 -55.561338816347224 179.24982709136034 -55.5 173.6484375 C-55.497542724609374 173.38268920898437 -55.497542724609374 173.38268920898437 -55.485107421875 172.037841796875 C-55.34532684392573 167.3046563804699 -54.35493565245754 163.57757769996488 -52.1875 159.3984375 C-52.10435546875 159.23609619140626 -52.10435546875 159.23609619140626 -51.68359375 158.41455078125 C-49.99808583195899 155.17931197189907 -48.14622164548538 152.04082025228269 -46.3076171875 148.89111328125 C-45.32675628282764 147.20796411720943 -44.34908523356963 145.52301415879998 -43.375 143.8359375 C-43.20513580322266 143.54209167480468 -43.03527160644531 143.24824584960936 -42.860260009765625 142.94549560546875 C-40.11625021970363 138.18327653408977 -37.60756668087255 133.3320899692069 -35.1875 128.3984375 C-32.715388141364194 123.35938150659487 -30.139582878066065 118.43792822461475 -27.3125 113.5859375 C-23.981143886306874 107.86748720960159 -20.835336704204245 102.06553240670564 -17.75 96.2109375 C-17.528543090820307 95.79266693115234 -17.307086181640628 95.3743963623047 -17.07891845703125 94.94345092773438 C-16.447075152812587 93.74883996257876 -15.818625353311333 92.55251290496304 -15.19140625 91.35546875 C-15.003238372802741 90.99981842041015 -14.815070495605468 90.64416809082032 -14.621200561523438 90.27774047851563 C-14.533889236450193 90.10997604370118 -14.533889236450193 90.10997604370118 -14.092041015625 89.260986328125 C-13.940742340087894 88.9723420715332 -13.789443664550788 88.68369781494141 -13.633560180664063 88.38630676269531 C-12.182397480033075 85.17248250923004 -12.018094728881138 82.36924503139389 -11.978759765625 78.888916015625 C-11.968975982666024 78.33894958496094 -11.959192199707033 77.78898315429687 -11.949111938476563 77.22235107421875 C-11.919263601474057 75.40737298475962 -11.89780698321799 73.59246767588684 -11.87890625 71.77734375 C-11.872334423065183 71.15623151779175 -11.865762596130367 70.53511928558349 -11.858991622924805 69.89518547058105 C-11.833135444498154 67.2847020077916 -11.809647934936748 64.6742291761837 -11.794495582580566 62.063660621643066 C-11.772583310489011 58.33372308747431 -11.730571059308588 54.605223503053594 -11.661058008670807 50.8758607506752 C-11.608011477212443 47.92913062079006 -11.588003531051925 44.982716423663106 -11.57929801940918 42.035505294799805 C-11.570740715478351 40.78549956027102 -11.551914596988325 39.53551972267019 -11.522554397583008 38.28582954406738 C-11.31001256155217 28.72749522746048 -11.31001256155217 28.72749522746048 -12.776378631591797 26.506511688232422 C-14.346894522266425 24.97100901339256 -16.207571544823153 24.258569177287 -18.1875 23.3984375 C-20.91708000067009 20.64506580974573 -21.48792693342198 17.71211810942956 -21.5625 13.9609375 C-21.482129735847955 9.91144825308912 -20.75409819156571 6.637229258871386 -18.1875 3.3984375 C-13.104542770114534 -0.8816950678899929 -6.217892446208609 -0.03742508176908288 0 0 Z M-13.1875 11.3984375 C-13.5859375 12.6796875 -13.5859375 12.6796875 -13.5625 13.8984375 C-13.570234374999998 14.300624999999997 -13.577968749999997 14.7028125 -13.5859375 15.1171875 C-12.985842812244044 17.04690375082305 -11.826689048956283 18.280857373839822 -10.1875 19.3984375 C-8.562884489558684 19.831355091003218 -6.994949873317779 19.81922293670037 -5.320556640625 19.802490234375 C-5.079710922241219 19.80592185974121 -5.079710922241219 19.80592185974121 -3.8608856201171875 19.823287963867188 C-2.272840312283762 19.84154898421788 -0.6857837474597801 19.837720382335554 0.90234375 19.83203125 C2.009489140011084 19.836593868240577 3.1166316948578014 19.84189968317311 4.2237701416015625 19.847915649414063 C6.543096018319034 19.856845503260573 8.862077564187615 19.854426113349106 11.181396484375 19.844482421875 C14.148660036906449 19.832998338529585 17.114732504047936 19.853192773146546 20.081839561462402 19.882399559020996 C22.368204830049507 19.900778767075046 24.654285624571543 19.900465848781955 26.940706253051758 19.89476203918457 C28.03431429339932 19.894608993784573 29.127941823017522 19.90063971772164 30.221479415893555 19.913053512573242 C39.837015196989555 20.006823312286784 39.837015196989555 20.006823312286784 42.521728515625 17.531494140625 C43.541361092225685 16.26811821216313 43.80522141961373 15.659364283651257 43.85069274902344 14.029281616210938 C43.610168284307434 12.178333975301967 43.14693201829502 10.881020311960256 42.08164978027344 9.343826293945313 C40.14091398946246 7.898173545027063 38.31264052236368 8.11119878230091 35.951416015625 8.123779296875 C35.70496337890626 8.121223831176756 35.70496337890626 8.121223831176756 34.457763671875 8.108291625976563 C32.82718791856543 8.094383377942307 31.197034296775783 8.095353220614761 29.56640625 8.09765625 C28.433017400891714 8.093769716065154 27.299630006854287 8.089435133983393 26.166244506835938 8.084671020507813 C23.78973674481327 8.077206033260047 21.41337752578235 8.077501789206018 19.036865234375 8.082763671875 C15.992337904127993 8.088556383598885 12.948419326891155 8.071634761225411 9.903992652893066 8.048418998718262 C7.562804654279731 8.033680945732073 5.221763201979456 8.032810019814008 2.8805370330810547 8.035928726196289 C1.7581963342670264 8.03541545541664 0.6358474441011168 8.03017650035892 -0.4864482879638672 8.020116806030273 C-2.0570404476455906 8.007767751658868 -3.6264480530424663 8.01453192205603 -5.197021484375 8.026123046875 C-5.659981231689457 8.018479309082032 -6.122940979003914 8.010835571289064 -6.5999298095703125 8.002960205078125 C-9.884369380356503 8.056492888509027 -11.160097535027802 8.79638968197726 -13.1875 11.3984375 Z M-3.1875 28.3984375 C-3.303818702697754 29.382599830627427 -3.303818702697754 29.382599830627427 -3.2918853759765625 30.612930297851563 C-3.2901129150390602 31.079203338623046 -3.288340454101558 31.54547637939453 -3.2865142822265625 32.02587890625 C-3.283107833862303 32.282684326171875 -3.283107833862303 32.282684326171875 -3.265869140625 33.582275390625 C-3.259747030396767 34.702966322863844 -3.253820916717359 35.8236583381628 -3.2480621337890625 36.94435119628906 C-3.2457260227203335 37.2433535861969 -3.2457260227203335 37.2433535861969 -3.2339038848876953 38.756486892700195 C-3.2146695738455264 41.945106422295964 -3.229968274728833 45.133628419164026 -3.240234375 48.322265625 C-3.252913545286617 52.37061249034586 -3.25477918184221 56.41788196327279 -3.211669921875 60.466064453125 C-2.9351675947855966 88.57902085516447 -2.9351675947855966 88.57902085516447 -11.201446533203125 100.90646362304688 C-12.607098972597555 103.03332265277527 -13.746381050082235 105.27047864615628 -14.90234375 107.5390625 C-15.279524282277634 108.244765057358 -15.65897675244885 108.94925943553218 -16.041015625 109.65234375 C-16.13016235351563 109.81677978515626 -16.13016235351563 109.81677978515626 -16.581298828125 110.64892578125 C-16.955646348986335 111.33710663010777 -17.33068679582078 112.02491085413146 -17.706298828125 112.71240234375 C-18.27552767581504 113.75674119834292 -18.83923764333494 114.80391293861175 -19.40234375 115.8515625 C-19.56895004272461 116.15257873535157 -19.735556335449218 116.45359497070314 -19.907211303710938 116.76373291015625 C-21.0739635253845 118.9446963333009 -21.663882521111923 121.00118437855389 -22.1875 123.3984375 C-21.830510253906247 123.32987548828123 -21.473520507812502 123.26131347656252 -21.105712890625 123.190673828125 C-5.801454029277764 120.42317226618152 6.6603043356183065 124.51664985570915 20.613037109375 130.29150390625 C22.341502738185312 131.00609673682652 24.075631358539326 131.70456026937813 25.8125 132.3984375 C26.052990722656247 132.49958862304686 26.052990722656247 132.49958862304686 27.27001953125 133.011474609375 C31.371532235087756 134.59022589231907 35.28502070679119 134.73834743401915 39.6259765625 134.714111328125 C40.81147551112463 134.71094024040235 41.994493338309454 134.7345226558821 43.1796875 134.759765625 C48.142947277309815 134.79902700011814 51.55822862290256 134.15432947295795 55.8125 131.3984375 C55.432531676190024 127.00092014150306 53.42434401726052 123.58520918697536 51.233795166015625 119.8697509765625 C50.192033151160445 118.10070340449198 49.17490857942576 116.31757559500991 48.15625 114.53515625 C47.952885284423814 114.18031158447266 47.74952056884766 113.82546691894532 47.53999328613281 113.45986938476563 C45.26458956023174 109.47150185609362 43.21895465369312 105.38188041008718 41.2265625 101.24609375 C40.276581674028876 99.28499471816852 39.250075352929144 97.39943113859132 38.1484375 95.51953125 C33.55751245731838 87.47366320210638 32.78628443132007 80.49898491317721 32.8125 71.3984375 C32.4291650390625 71.389091796875 32.04583007812499 71.37974609375 31.65087890625 71.3701171875 C29.91178262348967 71.31637958651801 28.17537031840945 71.23276454076671 26.4375 71.1484375 C25.83421874999999 71.13425781250001 25.23093750000001 71.12007812499999 24.609375 71.10546875 C20.29396218880356 70.86572359382242 20.29396218880356 70.86572359382242 18.9169921875 69.529296875 C18.06898523222091 67.9929078030826 17.65739778403828 67.03316349147411 18.082275390625 65.29443359375 C18.8125 64.3984375 18.8125 64.3984375 20.211181640625 64.07958984375 C20.792468261718753 64.0481689453125 21.373754882812506 64.016748046875 21.97265625 63.984375 C22.286865234375 63.9650390625 22.286865234375 63.9650390625 23.876953125 63.8671875 C24.5429590002351 63.83573039592986 25.208974815919134 63.80448310217129 25.875 63.7734375 C26.544972609760265 63.73525504747562 27.214896273921738 63.696203097448816 27.884765625 63.65625 C29.52706145587635 63.561729376640216 31.16933852424782 63.47618662926237 32.8125 63.3984375 C32.841428232849225 61.41930132337693 32.85927358505779 59.44021915201185 32.875 57.4609375 C32.87918945312501 57.178955078125 32.87918945312501 57.178955078125 32.900390625 55.751953125 C32.90361328125 55.213769531249994 32.906835937500006 54.6755859375 32.91015625 54.12109375 C32.91539306640625 53.62359619140625 32.920629882812506 53.1260986328125 32.926025390625 52.613525390625 C32.8125 51.3984375 32.8125 51.3984375 31.8125 50.3984375 C30.505615234375 50.193115234375 30.505615234375 50.193115234375 28.87109375 50.08203125 C28.579443359375006 50.061083984375 28.579443359375006 50.061083984375 27.103515625 49.955078125 C26.491855468750003 49.915761718750005 25.880195312500007 49.876445312499996 25.25 49.8359375 C24.634472656249997 49.79275390625 24.018945312499994 49.7495703125 23.384765625 49.705078125 C21.860957497920822 49.598765930087495 20.336759044362054 49.49807613015997 18.8125 49.3984375 C18.647500000000008 48.40843749999999 18.647500000000008 48.40843749999999 17.8125 43.3984375 C18.8115234375 43.33785156249999 19.810546875 43.277265625 20.83984375 43.21484375 C21.806255374392038 43.152270335471016 22.772665207548783 43.089664414976625 23.739013671875 43.026123046875 C24.41110871505137 42.982788254185294 25.083312815209425 42.94111190162022 25.755615234375 42.901123046875 C26.72146167233906 42.84338610113693 27.686916150339755 42.77920558997735 28.65234375 42.71484375 C29.233630371093753 42.678186035156244 29.814916992187506 42.6415283203125 30.413818359375 42.603759765625 C31.8125 42.3984375 31.8125 42.3984375 32.8125 41.3984375 C32.94189453125 40.107421874999986 32.94189453125 40.107421874999986 32.9453125 38.4921875 C32.94660156250001 37.91339843750001 32.947890625 37.334609375 32.94921875 36.73828125 C32.947285156250004 36.43470703125 32.947285156250004 36.43470703125 32.9375 34.8984375 C32.94136718749999 34.2912890625 32.945234375 33.684140625 32.94921875 33.05859375 C32.94857421875 32.76919921875 32.94857421875 32.76919921875 32.9453125 31.3046875 C32.94474853515625 31.038173828124997 32.94474853515625 31.038173828124997 32.94189453125 29.689453125 C32.8125 28.3984375 32.8125 28.3984375 31.8125 27.3984375 C30.408203125 27.271453857421875 30.408203125 27.271453857421875 28.59375 27.26904296875 C28.263588867187508 27.267290649414065 27.933427734375 27.26553833007813 27.59326171875 27.26373291015625 C26.499621337930392 27.259324093075804 25.406142086173787 27.26224878535261 24.3125 27.265625 C23.554036141544515 27.2649516769457 22.79557249306066 27.263981413141693 22.037109375 27.262725830078125 C20.44659370782057 27.26125018082282 18.85613415262644 27.263399080027213 17.265625 27.26806640625 C15.224360491421393 27.27376371548447 13.183227455466323 27.270483989426282 11.1419677734375 27.264493942260742 C9.57551071121442 27.260884697072342 8.009084945323934 27.262028572106743 6.442626953125 27.26462173461914 C5.6898598689197115 27.2652900003864 4.937089965655829 27.264466060642462 4.184326171875 27.262142181396484 C3.1332239392828 27.259609606888596 2.082336209249263 27.26346436332024 1.03125 27.26904296875 C0.7318652343749932 27.269440765380864 0.7318652343749932 27.269440765380864 -0.783203125 27.271453857421875 C-2.1875 27.3984375 -2.1875 27.3984375 -3.1875 28.3984375 Z M-24.1875 131.3984375 C-24.5176611328125 131.4949560546875 -24.847822265625 131.591474609375 -25.18798828125 131.69091796875 C-28.889396077602214 133.08500127353219 -30.287246900629412 136.46427332636813 -32.0625 139.7734375 C-32.41117467546782 140.40427215313622 -32.760549690477 141.0347201819121 -33.110595703125 141.664794921875 C-35.56409645938818 146.1120700064876 -37.885233553920244 150.628957931501 -40.095703125 155.201904296875 C-41.198647380596896 157.47691777699646 -42.32679802741845 159.68331275676806 -43.66796875 161.828125 C-46.95496839726979 167.1100399309703 -48.063475920072186 171.16649452577218 -47.1875 177.3984375 C-46.6640625 179.15625 -46.6640625 179.15625 -46.1875 180.3984375 C-45.5275 180.3984375 -44.8675 180.3984375 -44.1875 180.3984375 C-44.1875 181.0584375 -44.1875 181.7184375 -44.1875 182.3984375 C-42.3342490861687 184.52527257482487 -39.76606165018377 185.41557820136293 -37.020877838134766 185.68162536621094 C-34.28748953639501 185.84267690179087 -31.55397385198667 185.8273834342097 -28.81689453125 185.818359375 C-27.76347965199652 185.8257065261376 -26.710072810540765 185.83429463940448 -25.65667724609375 185.84402465820313 C-22.80528286793372 185.86618394956434 -19.954177948222522 185.8691741628892 -17.10270929336548 185.86727714538574 C-14.717177209499482 185.86715716539888 -12.331705836630647 185.87573260861893 -9.94619071483612 185.88405466079712 C-4.314834367507871 185.90326921260242 1.316373765151468 185.90617998967008 6.94775390625 185.8994140625 C12.74479423369965 185.8927768469894 18.541197702782867 185.9156280601402 24.338108897209167 185.95272779464722 C29.32600074030931 185.98348399185892 34.31368835556316 185.99477842000704 39.30167305469513 185.99089097976685 C42.27599608453657 185.98882922686226 45.24982355763956 185.99421169380605 48.224056243896484 186.01878356933594 C51.0233314497587 186.04114723453435 53.821576130835524 186.03909643849414 56.62085723876953 186.01885604858398 C57.643515887514354 186.0154624521948 58.666245205577525 186.02046404040624 59.68880844116211 186.03483963012695 C65.61440946356228 186.1123440751392 69.81254217442302 185.66257685047947 74.45962715148926 181.7635269165039 C77.11413385669604 179.0850497681855 78.34241708479126 176.8554852927425 78.386962890625 173.069091796875 C78.0475399531793 167.38593338271988 74.49703292007399 162.14086111404646 71.8134765625 157.24169921875 C70.82078978346021 155.42554183441757 69.87323987809714 153.5881131351575 68.9296875 151.74609375 C68.32889504475497 150.5881418111199 67.72736105049842 149.430574238626 67.125 148.2734375 C66.85228271484374 147.74145751953125 66.5795654296875 147.2094775390625 66.298583984375 146.661376953125 C64.54756934844568 143.37512501964991 62.60902490692624 140.8628356960618 59.8125 138.3984375 C59.31105468750002 138.615 58.80960937499998 138.8315625 58.29296875 139.0546875 C43.66103252384579 144.69494974018002 28.11019349962754 141.81840517052603 14.23486328125 135.703125 C12.321881668491699 134.84330246045866 10.417924159121839 133.96572956891256 8.519287109375 133.07470703125 C-1.6651762741597338 128.3294774239789 -13.48725511201738 127.76674082835797 -24.1875 131.3984375 Z " transform="translate(83.1875,29.6015625)" />
    <path d="M0 0 C1.864200886025401 0.25257617610934346 2.841923812909414 0.7913774781324605 4.08984375 2.1875 C4.583991058365143 2.8797050055982396 5.060123191108175 3.585048361580732 5.51953125 4.30078125 C5.771059570312502 4.665102539062502 6.0225878906250045 5.0294238281250045 6.28173828125 5.40478515625 C7.004705009506324 6.463230936633039 7.7021400887543905 7.534668892954457 8.39453125 8.61328125 C8.740000000000009 9.132773437499992 9.08546874999999 9.652265624999998 9.44140625 10.1875 C11.39453125 13.255380306603769 11.39453125 13.255380306603769 11.39453125 15.61328125 C12.054531249999997 15.61328125 12.714531249999993 15.61328125 13.39453125 15.61328125 C14.74775874671306 18.028985649846646 16.098534596256542 20.446040066597988 17.447265625 22.8642578125 C17.904311988818108 23.682972517434678 18.36197249675081 24.501344746730098 18.8203125 25.3193359375 C20.363511453737004 28.074081438249834 21.888087724776653 30.838265371322862 23.39453125 33.61328125 C23.591939086914067 33.97430938720703 23.789346923828134 34.33533752441406 23.99273681640625 34.707305908203125 C26.36100597885428 39.07363696155886 28.10746245176921 43.06588385816855 28.76953125 48.05078125 C28.844780273437493 48.6100732421875 28.920029296874986 49.16936523437499 28.99755859375 49.74560546875 C29.98716321755768 58.42271805180931 27.8662645237859 63.895806088063125 22.626953125 70.86181640625 C19.654397982727147 74.56426365342139 16.91269746354925 76.97292791132287 12.39453125 78.61328125 C12.015385742187505 78.7623291015625 11.636240234375009 78.911376953125 11.24560546875 79.06494140625 C5.372242735773398 81.32894903376896 0.5734901965817301 82.26335959605154 -5.60546875 80.61328125 C-6.029731445312507 80.51160644531251 -6.453994140625014 80.40993164062502 -6.89111328125 80.30517578125 C-15.075794722032384 78.25537101544126 -19.774688350132067 74.44660519480334 -24.60546875 67.61328125 C-24.790449218750013 67.360625 -24.790449218750013 67.360625 -25.7265625 66.08203125 C-29.406536824257017 60.02504001773008 -29.232096848522275 51.1791840200205 -27.777099609375 44.4453125 C-26.30810480643848 38.77745011037308 -23.412451342250392 33.70766258117078 -20.60546875 28.61328125 C-20.308662109375007 28.061240234374992 -20.011855468750014 27.50919921875 -19.7060546875 26.9404296875 C-16.14296181138107 20.32433676482316 -12.314591310029414 13.88673132762024 -8.0645751953125 7.68646240234375 C-7.637266039011735 7.05985793348097 -7.21534153559918 6.429543571873197 -6.7991943359375 5.79547119140625 C-3.144190452827843 0.2598553204079934 -3.144190452827843 0.2598553204079934 0 0 Z M-0.60546875 11.61328125 C-10.190328379919123 21.991791677300967 -20.187219250893747 39.32860212430023 -19.957763671875 53.656005859375 C-19.667967042073087 59.28164559047829 -18.14041374554145 63.49079085295986 -13.85546875 67.36328125 C-9.19099505487128 70.85299860709631 -4.348369069955254 73.20386243241921 1.57421875 72.8984375 C8.746260491729515 71.7749202314458 14.862133089406058 68.3373494204235 19.20703125 62.42578125 C21.61493480552943 57.72672097799713 22.24293550598864 52.058143046977165 20.72265625 47 C19.53789114053052 43.74716417325993 17.990673654027972 40.67988555380175 16.39453125 37.61328125 C16.197385253906248 37.232685546875004 16.000239257812495 36.85208984375001 15.797119140625 36.4599609375 C14.191913228962107 33.37025962329278 12.55208791520218 30.300176112212625 10.89453125 27.23828125 C10.661734619140617 26.80590148925782 10.428937988281234 26.373521728515627 10.1890869140625 25.92803955078125 C7.410970986100352 20.798441705544704 4.6079972866842525 15.725739539229494 0.39453125 11.61328125 C0.06453125000001592 11.61328125 -0.2654687499999966 11.61328125 -0.60546875 11.61328125 Z " transform="translate(179.60546875,81.38671875)" />
    <path d="M0 0 C0.6470464451986118 0.30998039002537325 1.292598365496275 0.6230817653843133 1.9375 0.9375 C2.297148437499999 1.1115234375000114 2.6567968749999977 1.2855468749999943 3.02734375 1.46484375 C4 2 4 2 5 3 C5.6840854381980535 6.442856221750873 5.203266696312539 9.119613125900628 3.3125 12.0625 C2.5585269191938664 13.054707630644202 1.787290136996205 14.034015720067146 1 15 C0.649374999999992 15.491132812500013 0.2987500000000125 15.982265624999997 -0.0625 16.48828125 C-1.5135311868987174 18.276878719961985 -2.7494377024393373 19.76129656764897 -5.1025390625 20.21044921875 C-7.75460610592765 20.42418838303587 -10.356810401876714 20.259136235110134 -13 20 C-13.547555434003442 18.33094548430276 -13.936555228370622 16.76059241271531 -14 15 C-12.391603794766326 12.540099921407318 -10.736113352577746 11.891445489999654 -8.0625 10.8125 C-4.363149307111826 9.11006249207881 -3.284871543213285 6.307387736398482 -1.76171875 2.7421875 C-1 1 -1 1 0 0 Z " transform="translate(190,129)" />
  </g>
</svg>