<svg color="#2C3440" xmlns="http://www.w3.org/2000/svg" viewBox="0 0 302 227" width="302" height="227">
  <g fill="currentColor" transform="scale(0.50000000, 0.50000000)">
    <path d="M0 0 C1.8477611460818935 0.012892804496658528 3.695414718536199 0.0008556839420492679 5.543182373046875 -0.006930828094482422 C8.643022540878064 -0.015961412633771488 11.742262096428988 -0.004217224153507004 14.842010498046875 0.019772052764892578 C18.39728697728947 0.046973526303162316 21.951128723857607 0.03815441324246649 25.506370544433594 0.01064002513885498 C28.589628045249526 -0.01224262831642875 31.67246024513156 -0.015159751056955884 34.755775451660156 -0.0021666288375854492 C36.583830918331955 0.005525161235752307 38.411218068407834 0.00696421514592771 40.239227294921875 -0.009849071502685547 C49.154462884590885 -0.08102765623461039 55.98971792814632 0.7226012794711352 63.584197998046875 5.671627521514893 C63.91419799804686 6.496627521514895 63.91419799804686 6.496627521514895 65.58419799804688 10.671627521514893 C66.57419799804688 11.00162752151489 67.5641979980469 11.33162752151489 68.58419799804688 11.671627521514893 C71.89934126119726 19.94142120088074 71.95844346945887 27.970000847420067 71.79019165039063 36.72869539260864 C71.75895506564086 38.532479298107916 71.74568668001496 40.33639852183762 71.73068237304688 42.14037752151489 C71.6989460537311 45.65111291015489 71.64806308215543 49.161316723171794 71.58419799804688 52.67162752151489 C72.19102416992189 52.50864168167115 72.7978503417969 52.345655841827394 73.42306518554688 52.17773103713989 C75.03448807825487 51.775761587691136 76.49394560868382 51.55201893744433 78.16232299804688 51.57397127151489 C78.60060424804686 51.577193927764895 79.03888549804685 51.5804165840149 79.49044799804688 51.58373689651489 C79.93388549804683 51.592115802764894 80.3773229980469 51.600494709014896 80.83419799804688 51.60912752151489 C81.29310424804692 51.61363924026489 81.75201049804684 51.61815095901488 82.22482299804688 51.62279939651489 C83.34475577703597 51.634465362962686 84.46440391298347 51.650831345649436 85.58419799804688 51.67162752151489 C85.54939331054686 51.23334627151489 85.51458862304685 50.79506502151489 85.47872924804688 50.34350252151489 C85.01076367631447 39.37973769807003 88.27628902901415 29.874302043929774 95.58419799804688 21.671627521514893 C97.42372325502794 19.75216924351784 99.37072054002942 18.153751316503204 101.58419799804688 16.671627521514893 C101.94255737304684 16.427994709014897 102.30091674804692 16.1843618965149 102.67013549804688 15.933346271514893 C105.22811453097324 14.429254600154167 107.67646043116952 14.457122291171487 110.58419799804688 14.671627521514893 C110.58419799804688 14.011627521514896 110.58419799804688 13.3516275215149 110.58419799804688 12.671627521514893 C116.97192763393718 10.98055964263304 122.92440339811645 10.34357537664404 129.52169799804688 10.421627521514893 C129.95663574218747 10.423399982452395 130.39157348632813 10.425172443389897 130.83969116210938 10.426998615264893 C137.2579310240248 10.457688130006929 143.39152551544038 10.846418789799301 149.58419799804688 12.671627521514893 C149.58419799804688 13.33162752151489 149.58419799804688 13.991627521514886 149.58419799804688 14.671627521514893 C150.01990112304685 14.709010334014891 150.45560424804688 14.74639314651489 150.90451049804688 14.784908771514893 C155.3821720926848 15.279196090403502 158.6657252315796 16.389440086099867 162.58419799804688 18.671627521514893 C162.91419799804686 19.33162752151489 163.2441979980469 19.991627521514886 163.58419799804688 20.671627521514893 C163.9103308105469 20.792799396514894 164.23646362304686 20.913971271514896 164.57247924804688 21.038815021514893 C167.14026396571893 22.023511225931898 169.36891247250088 23.039311871112574 171.58419799804688 24.671627521514893 C171.58419799804688 25.33162752151489 171.58419799804688 25.991627521514886 171.58419799804688 26.671627521514893 C172.15396362304688 26.916549396514895 172.72372924804688 27.1614712715149 173.31076049804688 27.413815021514893 C175.97556530003942 28.7520767118735 177.89314315980118 30.678250515287658 179.95919799804688 32.79662752151489 C180.3520397949219 33.19696199417115 180.74488159179685 33.5972964668274 181.14962768554688 34.00976228713989 C188.94411877820363 42.089923712635624 194.21046087912094 50.94749244133524 197.58419799804688 61.67162752151489 C197.7595104980469 62.20771638870241 197.93482299804685 62.743805255889896 198.11544799804688 63.29613924026489 C203.58137425030168 80.3325995971569 202.84911253507022 96.2277525505232 195.58419799804688 112.67162752151489 C194.92419799804685 112.67162752151489 194.26419799804688 112.67162752151489 193.58419799804688 112.67162752151489 C193.69963069680034 113.92316099221051 193.8262513862054 115.17192937020491 193.95919799804688 116.42162752151489 C193.97466674804684 116.5956509590149 193.97466674804684 116.5956509590149 194.05294799804688 117.47631502151489 C194.26412391961338 119.37689831561369 194.59569439740477 120.8241717723607 195.54513549804688 122.49194002151489 C200.60569822919518 131.93955394438797 199.538588488639 148.67535480460515 196.58419799804688 158.6716275215149 C194.9467317162834 163.03196018944325 192.3635617371362 166.95914406186802 189.58419799804688 170.6716275215149 C188.92419799804685 170.6716275215149 188.26419799804688 170.6716275215149 187.58419799804688 170.6716275215149 C188.33080265247793 172.04856233501482 189.08139197588093 173.4230867091419 189.83419799804688 174.7966275215149 C190.03915893554688 175.17561189651488 190.24411987304688 175.5545962715149 190.45529174804688 175.9450650215149 C191.71695095400662 178.23899085053262 193.07554291547808 180.38650454012173 194.58419799804688 182.5270962715149 C196.7687171336496 185.78010773739823 198.16065885649436 189.13459726729684 199.33419799804688 192.8591275215149 C199.4415930175781 193.19633821487423 199.54898803710938 193.53354890823368 199.65963745117188 193.8809781074524 C203.55608680167222 206.4880848902697 202.74883623779425 220.24902510089856 198.58419799804688 232.6716275215149 C198.31734299249922 233.52150270222637 198.05169250109373 234.3717571491489 197.78732299804688 235.2224087715149 C196.55739555058494 239.10266660355194 195.18366761814644 242.9269868815171 193.58419799804688 246.6716275215149 C192.92419799804685 246.6716275215149 192.26419799804688 246.6716275215149 191.58419799804688 246.6716275215149 C191.50943237304688 247.01194002151487 191.43466674804688 247.35225252151486 191.35763549804688 247.7028775215149 C189.95369019003874 252.8782053235841 186.90636089254156 256.55548858934225 183.58419799804688 260.6716275215149 C182.92419799804685 260.6716275215149 182.26419799804688 260.6716275215149 181.58419799804688 260.6716275215149 C181.45142456054685 260.9371743965149 181.3186511230469 261.2027212715149 181.18185424804688 261.4763150215149 C180.31596883138025 263.20808585484815 179.4500834147135 264.93985668818164 178.58419799804688 266.6716275215149 C177.59419799804687 266.6716275215149 176.60419799804686 266.6716275215149 175.58419799804688 266.6716275215149 C175.46302612304686 266.9371743965149 175.3418542480469 267.2027212715149 175.21701049804688 267.4763150215149 C174.23713520478208 269.54159063962686 173.3510531379012 271.15718025878266 171.58419799804688 272.6716275215149 C170.59419799804687 272.6716275215149 169.60419799804686 272.6716275215149 168.58419799804688 272.6716275215149 C168.2541979980469 273.6616275215149 167.92419799804685 274.6516275215149 167.58419799804688 275.6716275215149 C165.9341979980469 276.0016275215149 164.28419799804686 276.3316275215149 162.58419799804688 276.6716275215149 C162.58419799804688 277.3316275215149 162.58419799804688 277.9916275215149 162.58419799804688 278.6716275215149 C159.2030502921893 280.47011034377954 155.88300275116984 281.98908724282984 152.22872924804688 283.1364712715149 C149.91906595510807 283.88807191553536 147.65653957658333 284.7538395854304 145.38742065429688 285.6188931465149 C144.45441651701344 285.97351915344615 143.5193452170679 286.32269199202943 142.58419799804688 286.6716275215149 C142.15848510742188 286.8465371894836 141.7327722167969 287.0214468574524 141.29415893554688 287.2016568183899 C138.97939433563005 287.8378535423819 136.78378906791676 287.8534994358394 134.39279174804688 287.8747525215149 C133.888048248291 287.88045259475706 133.38330474853518 287.8861526679993 132.86326599121094 287.89202547073364 C131.79329505977182 287.90145660951407 130.72329532828246 287.9080019637326 129.65328979492188 287.9118618965149 C128.05093098349465 287.92145255227683 126.44992153988551 287.95243804332677 124.84786987304688 287.9841275215149 C117.92275817733838 288.05331026018376 112.08018896422828 287.0746639341684 105.58419799804688 284.6716275215149 C105.58419799804688 284.01162752151487 105.58419799804688 283.3516275215149 105.58419799804688 282.6716275215149 C103.60419799804686 282.01162752151487 101.62419799804684 281.3516275215149 99.58419799804688 280.6716275215149 C98.9241979980469 279.3516275215149 98.26419799804688 278.0316275215149 97.58419799804688 276.6716275215149 C96.26419799804688 276.01162752151487 94.94419799804689 275.3516275215149 93.58419799804688 274.6716275215149 C92.9241979980469 273.0216275215149 92.26419799804688 271.3716275215149 91.58419799804688 269.6716275215149 C90.9241979980469 269.6716275215149 90.26419799804688 269.6716275215149 89.58419799804688 269.6716275215149 C88.9241979980469 266.8666275215149 88.9241979980469 266.8666275215149 85.58419799804688 252.6716275215149 C80.96419799804687 252.34162752151485 76.34419799804687 252.01162752151492 71.58419799804688 251.6716275215149 C71.61900268554689 253.73283845901489 71.6538073730469 255.79404939651488 71.68966674804688 257.9177212715149 C71.70903566361255 259.58836251112524 71.72527667062866 261.2589709177062 71.73944854736328 262.9296612739563 C71.75512139751424 264.67844315566674 71.7759630993246 266.4267702549217 71.81051635742188 268.1752896308899 C71.96400968848991 276.14469011317783 71.94735150835504 283.31212248937493 68.58419799804688 290.6716275215149 C67.59419799804687 291.0016275215149 66.60419799804686 291.3316275215149 65.58419799804688 291.6716275215149 C65.25419799804683 292.6616275215149 64.9241979980469 293.6516275215149 64.58419799804688 294.6716275215149 C63.92419799804691 294.6716275215149 63.26419799804688 294.6716275215149 62.584197998046875 294.6716275215149 C62.584197998046875 295.3316275215149 62.584197998046875 295.9916275215149 62.584197998046875 296.6716275215149 C61.737885959344794 297.1645345330666 60.881412828326916 297.63998809715844 60.021697998046875 298.1091275215149 C59.783865966796895 298.2425454902649 59.783865966796895 298.2425454902649 58.580291748046875 298.9177212715149 C51.81205057231102 301.83214035329354 43.199211450008875 300.81742874303563 36.021697998046875 300.8044400215149 C34.70325706139113 300.805114894941 33.3848162466424 300.8060864481098 32.066375732421875 300.80733919143677 C29.312866014586575 300.8091486503346 26.559383287217543 300.80678693746614 23.805877685546875 300.8019986152649 C20.64131347634998 300.7965583449698 17.47681374178211 300.79832187396926 14.312251091003418 300.8038250207901 C11.243722001538686 300.8089436438657 8.175221054981819 300.80835891520536 5.106689453125 300.80544328689575 C3.811828519130927 300.8047804834204 2.5169659170228442 300.8055796104112 1.22210693359375 300.8079228401184 C-18.132049446169447 300.8352683332388 -18.132049446169447 300.8352683332388 -25.040802001953125 294.2966275215149 C-33.797661392867894 284.96329776317316 -32.73764354725512 271.8836984034419 -32.8205189704895 259.815470457077 C-32.83639898186152 257.798829334362 -32.863106244405515 255.78232855053227 -32.8885498046875 253.76578950881958 C-32.9349060591731 249.96607641398498 -32.97185526443951 246.1663355900581 -33.00522267818451 242.36648863554 C-33.04375384729633 238.0324917536551 -33.09307999045649 233.69863731811142 -33.14320683479309 229.36476147174835 C-33.245882736484646 220.4671551110547 -33.33534715182583 211.5694612217152 -33.415802001953125 202.6716275215149 C-33.613110389709476 202.670433344841 -33.613110389709476 202.670433344841 -34.611610412597656 202.66439008712769 C-44.244952970242196 202.6050713959936 -53.878042996816816 202.52941515500083 -63.51111602783203 202.43591260910034 C-68.16975125031627 202.39108177313187 -72.82831220090381 202.35163869878852 -77.48709106445313 202.3251919746399 C-81.55104402882199 202.30210791439504 -85.61475941325557 202.26859609656208 -89.67852354049683 202.2229259610176 C-91.82727715922357 202.19913197270193 -93.975797542842 202.18031365050444 -96.12467956542969 202.17401361465454 C-98.15393493616244 202.16789870218014 -100.18259463694051 202.14767616833092 -102.21162796020508 202.11735200881958 C-102.95000165053762 202.10867246573042 -103.68845353888378 202.1048278874449 -104.42687606811523 202.10661935806274 C-109.9905761316653 202.11584239860758 -114.34888547835163 200.8867541566101 -119.41580200195313 198.6716275215149 C-119.41580200195313 198.01162752151492 -119.41580200195313 197.3516275215149 -119.41580200195313 196.6716275215149 C-121.06580200195313 196.01162752151492 -122.71580200195314 195.3516275215149 -124.41580200195313 194.6716275215149 C-127.16208702851935 191.39208326648918 -128.73529972362454 188.37949916008017 -129.53201293945313 184.2158169746399 C-129.61566982269287 183.7837635707855 -129.6993267059326 183.35171016693116 -129.78551864624023 182.90656423568726 C-130.75390694858538 177.41002975618406 -130.70461352698374 171.90351786269872 -130.68142700195313 166.3395962715149 C-130.68277979613708 165.17433768203804 -130.68472538733212 164.00907964910584 -130.68722534179688 162.8438229560852 C-130.69015132047292 160.41584507662216 -130.6859638408849 157.98801567503816 -130.67654418945313 155.5600552558899 C-130.66518954837886 152.48771241879015 -130.67169976247638 149.41572075926038 -130.68368911743164 146.34339094161987 C-130.6910097997706 143.94005998586243 -130.68857313133827 141.5368085370315 -130.68343353271484 139.13347482681274 C-130.68212301312295 138.00266459405526 -130.68365061087334 136.87184652432398 -130.68839263916016 135.7410454750061 C-130.76709622792697 111.69684431095192 -130.76709622792697 111.69684431095192 -125.23660278320313 105.42895174026489 C-120.71327732063327 101.25543728907758 -114.24194421455519 97.5416021805218 -108.01792907714844 97.55137300491333 C-107.85330534547569 97.55094579249621 -107.85330534547569 97.55094579249621 -107.0202094912529 97.54878383874893 C-105.92390846615609 97.54714497508019 -104.82776260952943 97.5526238794557 -103.73147583007813 97.55810213088989 C-102.94286604420006 97.55838437422437 -102.15425599563605 97.5582255420363 -101.36564636230469 97.55765962600708 C-99.22950537435051 97.55737310031944 -97.09342071187211 97.56324641664071 -94.95729279518127 97.57023358345032 C-92.7231437917491 97.57649121194643 -90.48899345110704 97.57707282715089 -88.25483703613281 97.57825899124146 C-84.02625801687162 97.58136520437398 -79.79770489758099 97.58956901492536 -75.56913727521896 97.59960848093033 C-70.75416899945677 97.61079166679687 -65.93919947718649 97.61628562586077 -61.124221444129944 97.62130391597748 C-51.22140051627764 97.63175222702591 -41.31860289177894 97.64933791893785 -31.415802001953125 97.67162752151489 C-31.57747863769532 97.15214540481566 -31.739155273437518 96.63266328811648 -31.905731201171875 96.09743928909302 C-32.66154039608105 93.04838824429169 -32.57142432607324 89.98301168560016 -32.576934814453125 86.85863924026489 C-32.58157166638378 86.17477324938716 -32.58659747265659 85.490909802977 -32.59197998046875 84.80704927444458 C-32.60503112953569 82.95750100823665 -32.611535697790515 81.10798893492785 -32.61599063873291 79.25840187072754 C-32.618935946954196 78.09779020447482 -32.62304359626893 76.93718809055002 -32.62749481201172 75.77658128738403 C-32.641156655426784 72.13086001560933 -32.650827139624596 68.48516098543189 -32.65469670295715 64.8394159078598 C-32.65916078707167 60.65847540504268 -32.67663617063624 56.47786454453998 -32.70569729804993 52.29702413082123 C-32.727478403855514 49.04839991133059 -32.73740977942907 45.79986723998934 -32.73873782157898 42.55117094516754 C-32.73977515720847 40.619176996112486 -32.745446943580305 38.68749332418844 -32.76355743408203 36.7555775642395 C-32.85335583499875 26.590937254190862 -32.1628645480676 17.83003504340776 -27.415802001953125 8.671627521514893 C-26.75580200195313 8.671627521514893 -26.095802001953132 8.671627521514893 -25.415802001953125 8.671627521514893 C-25.08580200195314 7.681627521514898 -24.75580200195313 6.691627521514889 -24.415802001953125 5.671627521514893 C-16.49369414181632 0.5090990361867966 -9.249662898197016 -0.08507464374619644 0 0 Z M-15.790802001953125 14.484127521514893 C-16.011231689453126 14.652350177764887 -16.011231689453126 14.652350177764887 -17.126739501953125 15.503658771514893 C-18.415802001953125 16.671627521514893 -18.415802001953125 16.671627521514893 -20.415802001953125 19.671627521514893 C-20.74580200195311 48.7116275215149 -21.07580200195312 77.7516275215149 -21.415802001953125 107.67162752151489 C-24.415802001953125 109.67162752151489 -24.415802001953125 109.67162752151489 -25.766133308410645 109.68445158004761 C-36.60766152987205 109.78774611781864 -47.44912474355823 109.89638207367685 -58.29053974151611 110.01096677780151 C-63.53336180797962 110.06625014302551 -68.77619068195256 110.1197240483923 -74.01907348632813 110.16894197463989 C-78.58864716278094 110.21184375162414 -83.15817172707875 110.25813675786307 -87.72766941785812 110.30850607156754 C-90.14728595889301 110.33505882203332 -92.56689306398766 110.35991052085751 -94.9865665435791 110.38070154190063 C-97.26428766883745 110.40032641775065 -99.54191573787557 110.42448727575476 -101.81955337524414 110.45211839675903 C-102.65519325351491 110.4614579470753 -103.49085350996089 110.4691442759351 -104.32652473449707 110.47504663467407 C-105.4685120176052 110.48336093894784 -106.61027663108172 110.49765119124254 -107.75218200683594 110.51340913772583 C-108.07158327579498 110.51663541316987 -108.07158327579498 110.51663541316987 -109.6879472732544 110.53296232223511 C-111.41717725777656 110.67173788966079 -112.80278144657592 111.0496409666467 -114.41580200195313 111.67162752151489 C-119.55129764286275 117.94011030592085 -118.9851553287441 124.70798761933611 -118.91189575195313 132.4528775215149 C-118.91205099289502 133.79375896869777 -118.9134911901291 135.1345874928104 -118.91630554199219 136.4754605293274 C-118.91899357084463 139.2762166317778 -118.90565605424422 142.0765407345897 -118.88235473632813 144.8771939277649 C-118.8557525641038 148.09648402830302 -118.85400241958084 151.31505285598337 -118.86574310064316 154.53441524505615 C-118.87659355747388 157.65535360658612 -118.87027773253232 160.77603586004543 -118.85618782043457 163.89695405960083 C-118.85169986791863 165.21413598520772 -118.85131308226624 166.53133898489196 -118.85525321960449 167.84852266311646 C-118.87595023660342 180.85336921623005 -118.87595023660342 180.85336921623005 -115.41580200195313 186.6716275215149 C-115.07812522865208 187.33610472377887 -114.7429046709789 188.0018817492462 -114.41580200195313 188.6716275215149 C-112.10097634874083 189.5675777702918 -110.15238006583607 189.8053989651719 -107.67625427246094 189.82984590530396 C-107.31025483787059 189.83478388249875 -106.94425540328027 189.83972185969355 -106.56716507673264 189.84480947256088 C-105.3465490533346 189.86010987344645 -104.12598531372737 189.86852444859562 -102.90530395507813 189.8769497871399 C-102.02802067528407 189.88653421675832 -101.1507419613448 189.8965446303862 -100.27346801757813 189.90694856643677 C-97.89565157181269 189.9339426423437 -95.51781539108839 189.95498179378245 -93.13993096351624 189.9749505519867 C-90.65349767303965 189.99684415005083 -88.16712483720536 190.02421629441335 -85.68074035644531 190.05100679397583 C-80.97409131747696 190.1008881482943 -76.26740864006581 190.14584381101542 -71.56069391965866 190.1890291571617 C-66.20155710263526 190.23844055300282 -60.8424809551081 190.293344175154 -55.48340284824371 190.34870874881744 C-44.46092577841699 190.46245879549338 -33.43839076149311 190.56931296067796 -22.415802001953125 190.6716275215149 C-21.091956322763338 194.67483452438 -21.27082496496854 198.74188073454235 -21.273956298828125 202.9091763496399 C-21.270920895451297 203.74569045212422 -21.26739838952443 204.58220290683698 -21.263427734375 205.41871309280396 C-21.255566520685676 207.21495732475557 -21.250404310072497 209.0111819512814 -21.24713706970215 210.8074402809143 C-21.24119863538823 213.65356229529675 -21.224631089592748 216.49956112390987 -21.205795288085938 219.34562349319458 C-21.199458583715455 220.32240049872928 -21.1931329518778 221.2991775761551 -21.18681812286377 222.27595472335815 C-21.18523521721363 222.520480119586 -21.18523521721363 222.520480119586 -21.17722475528717 223.75792682170868 C-21.135253590495495 230.37863409834256 -21.10218914720167 236.99928234168544 -21.089874267578125 243.6201138496399 C-21.081469092912414 248.0931813987762 -21.05889066308393 252.56594152634557 -21.020518600940704 257.0388552546501 C-21.00084267387632 259.40167026268443 -20.988324569241115 261.76402670201037 -20.99335289001465 264.12692880630493 C-20.99803160497919 266.35247431384533 -20.984024381722634 268.5771523388274 -20.956340789794922 270.8025231361389 C-20.949482709969402 271.6138987018497 -20.949244038762572 272.4253650375989 -20.956541061401367 273.2367367744446 C-21.003715811076347 279.07722829464205 -19.764112731045373 282.87025736204566 -16.415802001953125 287.6716275215149 C-12.636201717190147 288.59329472029333 -9.041201225820771 288.82503650673067 -5.160186767578125 288.8327603340149 C-4.554619445800768 288.83772523880003 -3.94905212402341 288.84269014358523 -3.32513427734375 288.8478055000305 C-1.6783742053688115 288.8598265030499 -0.031684712389846936 288.8673482135628 1.6151111125946045 288.8718161582947 C2.64755259526504 288.8747661245509 3.6799834568411143 288.87887420093244 4.712419509887695 288.8833203315735 C7.953405539171172 288.8969576483661 11.194366746225796 288.90664420086 14.435379445552826 288.9105222225189 C18.157352286852642 288.91500249599886 21.878957815471665 288.9325636854193 25.600819051265717 288.9615228176117 C28.491867632133335 288.9832257812105 31.38281345546318 288.99323093951784 34.27394253015518 288.99456334114075 C35.994539919542376 288.9956047290652 37.71479029778811 289.00136758879165 39.43530082702637 289.0193829536438 C41.35687642946709 289.0365381537621 43.277566038559826 289.0345414403552 45.199188232421875 289.0280728340149 C45.75885787963864 289.0372876167297 46.31852752685546 289.0465023994446 46.89515686035156 289.05599641799927 C51.065172384172854 289.01227047873965 54.01372783335739 287.7840553210654 57.584197998046875 285.6716275215149 C59.37268016379983 281.0915720711856 59.91514809447261 276.98123462941936 59.998260498046875 272.0856900215149 C60.01702297759152 271.3767959384087 60.0365999454491 270.66792299572336 60.05694580078125 269.95907258987427 C60.10773957080073 268.11472860666316 60.14764179603401 266.2703126011141 60.185089111328125 264.4256558418274 C60.22546544132865 262.534816975121 60.27640198481106 260.6442637436531 60.326385498046875 258.7536587715149 C60.42251719721804 255.05984605041817 60.50711616054559 251.36589217436403 60.584197998046875 247.6716275215149 C59.31489685926766 246.70865301287745 58.04348570310242 245.74850246007145 56.771697998046875 244.7888150215149 C56.41527221679689 244.51835359573363 56.05884643554691 244.24789216995237 55.691619873046875 243.9692349433899 C48.66039662818389 238.6716275215149 48.66039662818389 238.6716275215149 45.584197998046875 238.6716275215149 C45.584197998046875 238.01162752151492 45.584197998046875 237.3516275215149 45.584197998046875 236.6716275215149 C40.39740984314943 233.4119464281208 40.39740984314943 233.4119464281208 37.584197998046875 232.6716275215149 C37.584197998046875 232.01162752151492 37.584197998046875 231.3516275215149 37.584197998046875 230.6716275215149 C36.26419799804688 229.3516275215149 34.94419799804689 228.0316275215149 33.584197998046875 226.6716275215149 C32.92419799804691 226.6716275215149 32.26419799804688 226.6716275215149 31.584197998046875 226.6716275215149 C30.25086466471356 224.00496085484826 28.91753133138019 221.33829418818152 27.584197998046875 218.6716275215149 C26.924197998046907 218.34162752151485 26.264197998046882 218.01162752151492 25.584197998046875 217.6716275215149 C23.890209440317903 214.35161908275586 22.230282608466155 211.0156134614224 20.584197998046875 207.6716275215149 C20.392449951171898 207.28764802932739 20.200701904296864 206.90366853713988 20.003143310546875 206.5080533027649 C13.838755753840815 194.06138006668363 10.551556533259259 178.49961193806413 14.568572998046875 164.8395962715149 C16.469557930600672 159.35489988040115 19.013163986142672 154.25627380754037 22.584197998046875 149.6716275215149 C24.358472932474342 147.04445551334516 24.5668071075375 146.4808613658837 24.146697998046875 143.3591275215149 C24.10609252929686 143.05168611526489 24.10609252929686 143.05168611526489 23.900604248046875 141.4958462715149 C23.584197998046875 139.67162752151486 23.584197998046875 139.67162752151486 23.079315185546875 138.4028286933899 C22.386810330921037 135.98145200495213 22.382961400862655 133.65612781527216 22.345916748046875 131.1481900215149 C22.336258850097693 130.60997621536256 22.326600952148397 130.0717624092102 22.316650390625 129.51723909378052 C22.291821097232287 127.77696550480107 22.27925807627429 126.03705912735788 22.271697998046875 124.29662752151489 C22.268747253417928 123.70748567581177 22.265796508789094 123.11834383010864 22.26275634765625 122.51134920120239 C22.25001866509041 111.38507853727589 23.77557077620122 102.99564360110335 28.907196044921875 93.06200838088989 C29.55908720949367 91.72319836205247 30.087515972364827 90.38684791795032 30.584197998046875 88.98412752151489 C31.35309064474211 86.96578432394 32.25254566745957 85.90196180167533 33.853729248046875 84.49584627151489 C35.30249477110124 82.86114292731986 35.897502982147216 80.71555503942804 36.584197998046875 78.67162752151489 C37.574197998046884 78.34162752151491 38.56419799804689 78.0116275215149 39.584197998046875 77.67162752151489 C40.574197998046884 76.3516275215149 41.56419799804689 75.0316275215149 42.584197998046875 73.67162752151489 C43.574197998046884 73.34162752151491 44.56419799804689 73.0116275215149 45.584197998046875 72.67162752151489 C46.24419799804684 71.3516275215149 46.90419799804687 70.0316275215149 47.584197998046875 68.67162752151489 C47.91033081054684 68.4898697090149 48.236463623046916 68.3081118965149 48.572479248046875 68.12084627151489 C50.8879500251503 66.78893830238457 52.974445893643974 65.52229176911095 54.778778076171875 63.53954744338989 C55.719748469975116 62.525558431577025 56.69389631971376 61.55010792508995 57.674041748046875 60.57397127151489 C58.03232055664063 60.21682039260864 58.39059936523438 59.859669513702386 58.759735107421875 59.49169588088989 C59.03180786132816 59.22107332229615 59.303880615234334 58.950450763702406 59.584197998046875 58.67162752151489 C59.764179497569955 54.96796074735259 59.92982749573929 51.26386269712479 60.0789737701416 47.55883073806763 C60.14870161479246 45.8369378213725 60.222697930674656 44.11548929137932 60.307830810546875 42.39428377151489 C60.740533265281215 33.571579632479214 60.50978084236414 25.32326411039233 58.584197998046875 16.671627521514893 C52.471322817531416 11.445168780750933 45.34788017109361 12.141397148383902 37.74904942512512 12.266051769256592 C35.94606808544245 12.29131043600745 34.14305102462413 12.293426332906748 32.33992004394531 12.298153400421143 C28.936428084282454 12.310512683789256 25.53345918833918 12.343235263769415 22.130196034908295 12.383551359176636 C18.251100835898114 12.42849213847795 14.371978685005502 12.450311459461062 10.492687344551086 12.470333099365234 C-13.342560390334029 12.594877491739467 -13.342560390334029 12.594877491739467 -15.790802001953125 14.484127521514893 Z M104.58419799804688 28.671627521514893 C104.25419799804683 29.6616275215149 103.9241979980469 30.651627521514897 103.58419799804688 31.671627521514893 C103.30704956054689 31.804400959014885 103.0299011230469 31.93717439651489 102.74435424804688 32.07397127151489 C102.38212768554683 32.25057283401489 102.0199011230469 32.427174396514886 101.64669799804688 32.60912752151489 C101.28704956054685 32.78315095901489 100.92740112304688 32.95717439651489 100.55685424804688 33.13647127151489 C99.58419799804688 33.67162752151489 99.58419799804688 33.67162752151489 98.58419799804688 34.67162752151489 C96.58419799804688 47.67162752151489 96.58419799804688 47.67162752151489 98.58419799804688 50.67162752151489 C98.86505249023435 50.73632234573364 99.14590698242188 50.80101716995239 99.43527221679688 50.86767244338989 C111.05763115415198 53.614132516821684 120.74900430755474 57.33525445423531 127.58419799804688 67.67162752151489 C128.6055828003847 69.58109138912073 129.24801943633844 71.52848919062353 129.58419799804688 73.67162752151489 C130.24419799804684 73.67162752151489 130.90419799804687 73.67162752151489 131.58419799804688 73.67162752151489 C131.7491979980469 76.64162752151489 131.7491979980469 76.64162752151489 132.58419799804688 91.67162752151489 C133.57419799804688 92.00162752151488 134.5641979980469 92.33162752151489 135.58419799804688 92.67162752151489 C135.58419799804688 93.33162752151489 135.58419799804688 93.99162752151489 135.58419799804688 94.67162752151489 C136.05728393554688 95.08412752151489 136.53036987304688 95.49662752151488 137.01779174804688 95.92162752151489 C137.33272583007812 96.19668123245239 137.64765991210936 96.47173494338989 137.97213745117188 96.75512361526489 C138.67987212779826 97.3731361707558 139.38805281933327 97.99063828345268 140.09664916992188 98.60766267776489 C142.08796144787914 100.34599281188929 144.0620086075985 102.10000757216568 146.01388549804688 103.88256502151489 C146.41164184570312 104.2435025215149 146.80939819335936 104.6044400215149 147.21920776367188 104.97631502151489 C147.99140986874943 105.67822960344728 148.76026441928684 106.38384854991136 149.52536010742188 107.09350252151489 C151.45576706685648 108.84166368016065 152.96937288852916 110.09422134591162 155.58419799804688 110.67162752151489 C155.91419799804686 111.33162752151489 156.24419799804684 111.99162752151489 156.58419799804688 112.67162752151489 C162.58126251543638 115.41687776380763 169.00846550699907 117.4459816608807 175.49826049804688 115.05053377151489 C180.47971480052604 112.58175135288536 183.85811091754374 108.4520877019971 186.58419799804688 103.67162752151489 C186.85562622070313 103.19950838088988 187.12705444335938 102.7273892402649 187.40670776367188 102.24096345901489 C190.14011288763822 96.80175516362596 190.09472729078425 91.52233403634665 190.02169799804688 85.54662752151489 C190.0205096435547 85.2925663948059 190.0205096435547 85.2925663948059 190.01449584960938 84.00686311721802 C189.9405965335519 73.91821589684147 188.82051781067986 64.13712176627425 182.46701049804688 55.88256502151489 C181.08416065656604 53.985735592934944 180.32794665560607 51.883301161098785 179.58419799804688 49.67162752151489 C178.9241979980469 49.67162752151489 178.26419799804688 49.67162752151489 177.58419799804688 49.67162752151489 C177.58419799804688 48.6816275215149 177.58419799804688 47.69162752151489 177.58419799804688 46.67162752151489 C176.9241979980469 46.67162752151489 176.26419799804688 46.67162752151489 175.58419799804688 46.67162752151489 C175.50870727539063 46.3715982246399 175.4332165527344 46.0715689277649 175.35543823242188 45.76244783401489 C174.09790487452642 41.794197359923814 171.64448934221173 39.59586654732169 168.47116088867188 37.07690095901489 C167.6431888287138 36.41883847487884 166.82913652521142 35.746141834021 166.01583862304688 35.07006502151489 C162.00989347392044 31.798534280907177 162.00989347392044 31.798534280907177 160.09371948242188 31.227291584014893 C158.58419799804688 30.671627521514893 158.58419799804688 30.671627521514893 155.58419799804688 27.671627521514893 C153.60419799804686 27.176627521514888 153.60419799804686 27.176627521514888 143.58419799804688 24.671627521514893 C143.58419799804688 24.011627521514896 143.58419799804688 23.3516275215149 143.58419799804688 22.671627521514893 C128.7314628336419 20.5223945261488 117.84495114486822 21.650048699446117 104.58419799804688 28.671627521514893 Z M77.58419799804688 63.67162752151489 C77.07292358398439 63.84887361526489 76.5616491699219 64.02611970901489 76.03488159179688 64.20873689651489 C74.27432798029793 64.82640486807682 72.52211382663722 65.46331266066397 70.77169799804688 66.10912752151489 C70.20773315429688 66.31433015823364 69.64376831054688 66.5195327949524 69.06271362304688 66.73095369338989 C65.8276366200351 67.97525151178655 63.90827769717407 69.13135436200375 61.584197998046875 71.67162752151489 C60.706784593156044 72.23805253831779 59.80496599684028 72.71605656279255 58.882293701171875 73.20458650588989 C53.381066233815204 76.16028687168051 50.11403476820715 80.60004940374043 46.450897216796875 85.53930330276489 C45.72842300149773 86.48320060151343 44.9922612966742 87.36265105119895 44.181854248046875 88.23022127151489 C34.76113706402816 98.37329376676826 31.01233680116337 113.13257535547328 31.164520263671875 126.69775056838989 C31.688028939529545 137.80253106560207 34.78821946808898 147.590964382317 42.584197998046875 155.6716275215149 C43.90419799804687 156.00162752151488 45.22419799804686 156.3316275215149 46.584197998046875 156.6716275215149 C46.584197998046875 157.3316275215149 46.584197998046875 157.99162752151489 46.584197998046875 158.6716275215149 C56.702567631170496 162.2096067360727 68.29096989885159 164.052733902482 78.32638549804688 159.3278775215149 C81.84052247410739 157.49441475139636 83.35232205524864 153.21213023118688 84.58419799804688 149.6716275215149 C84.80978393554688 149.06834627151488 85.03536987304688 148.46506502151487 85.26779174804688 147.8435025215149 C86.73062865533677 143.80865526800835 87.79315386183464 139.81459443325173 88.60934448242188 135.5988736152649 C90.35017527394768 126.63110466687453 92.70429077515769 116.30013268072145 100.58419799804688 110.67162752151489 C101.90871428644795 109.86315654028309 103.14148361115315 109.25940004950863 104.58419799804688 108.67162752151489 C104.58419799804688 108.0116275215149 104.58419799804688 107.3516275215149 104.58419799804688 106.67162752151489 C105.14107299804687 106.42412752151489 105.69794799804686 106.17662752151489 106.27169799804688 105.92162752151489 C109.00891343534494 104.56773601489434 111.26217509842547 102.63202390398217 113.58419799804688 100.67162752151489 C113.58419799804688 100.0116275215149 113.58419799804688 99.3516275215149 113.58419799804688 98.67162752151489 C114.24419799804684 98.67162752151489 114.90419799804687 98.67162752151489 115.58419799804688 98.67162752151489 C122.87162693045371 86.39620111595582 122.87162693045371 86.39620111595582 121.58419799804688 78.67162752151489 C120.83904978618693 76.48722043469249 119.80482163597833 74.62352568127014 118.58419799804688 72.67162752151489 C118.2980261230469 72.1830728340149 118.01185424804686 71.6945181465149 117.71701049804688 71.19115877151489 C115.66445367986506 67.7018121806058 115.66445367986506 67.7018121806058 114.70138549804688 67.33959627151489 C111.77330818162216 66.20703806421852 109.04376870040119 64.89523435986587 106.30685424804688 63.35522127151489 C97.80298835897554 59.98067131553421 86.07780748421294 60.644481165069465 77.58419799804688 63.67162752151489 Z M126.58419799804688 101.67162752151489 C126.31607299804688 101.9513540840149 126.04794799804688 102.2310806465149 125.77169799804688 102.51928377151489 C122.82193618004612 105.53696773664066 119.7338681208912 108.32247046337386 116.53634643554688 111.07299470901489 C114.53868451090875 112.80177701915193 112.65936957902477 114.57445725623245 110.83419799804688 116.48412752151489 C108.89841575486537 118.47896752804766 107.1535787959391 119.62484275200325 104.58419799804688 120.67162752151489 C102.29814942875817 124.08631395530014 100.9316832817209 127.23645425114319 100.02169799804688 131.2341275215149 C99.96022583007812 131.491013507843 99.96022583007812 131.491013507843 99.64913940429688 132.7910122871399 C98.55815249621764 137.4851082452349 97.74723127975653 142.2188477012038 97.01388549804688 146.9802212715149 C96.61540914486937 149.5609636621645 96.11908299508309 152.1159886850263 95.58419799804688 154.6716275215149 C94.9241979980469 154.6716275215149 94.26419799804688 154.6716275215149 93.58419799804688 154.6716275215149 C93.25419799804683 155.49662752151488 93.25419799804683 155.49662752151488 91.58419799804688 159.6716275215149 C91.25419799804683 159.83662752151488 91.25419799804683 159.83662752151488 89.58419799804688 160.6716275215149 C89.58419799804688 161.3316275215149 89.58419799804688 161.99162752151489 89.58419799804688 162.6716275215149 C88.9241979980469 162.6716275215149 88.26419799804688 162.6716275215149 87.58419799804688 162.6716275215149 C86.59419799804687 164.3216275215149 85.60419799804686 165.9716275215149 84.58419799804688 167.6716275215149 C86.20832482116714 172.21918262625167 87.99933039337066 174.34204792488225 91.95919799804688 176.9841275215149 C92.14671630859374 177.11118074417115 92.14671630859374 177.11118074417115 93.09567260742188 177.7541470527649 C95.83248844615139 179.48309534512953 98.3846560005478 180.24463043794725 101.58419799804688 180.6716275215149 C101.58419799804688 181.3316275215149 101.58419799804688 181.99162752151489 101.58419799804688 182.6716275215149 C103.66419380722016 183.24615712610563 105.74548732532094 183.8156416504363 107.82809448242188 184.3806118965149 C108.5354978869567 184.57326093882824 109.24253710880231 184.76725271752986 109.94918823242188 184.9626431465149 C110.96850906503624 185.2442314244464 111.98906803621492 185.5208687322473 113.00997924804688 185.7966275215149 C113.6226867675781 185.96420564651487 114.23539428710939 186.1317837715149 114.86666870117188 186.3044400215149 C116.50035022110734 186.65370185605406 117.92053146025046 186.74289569984086 119.58419799804688 186.6716275215149 C119.58419799804688 187.33162752151486 119.58419799804688 187.99162752151489 119.58419799804688 188.6716275215149 C120.57419799804688 188.83662752151486 120.57419799804688 188.83662752151486 125.58419799804688 189.6716275215149 C125.89872924804689 189.0077603340149 126.2132604980469 188.34389314651492 126.53732299804688 187.6599087715149 C128.81523364897743 182.9325069106194 130.95506847257474 178.52377617983728 134.58419799804688 174.6716275215149 C134.58419799804688 174.0116275215149 134.58419799804688 173.3516275215149 134.58419799804688 172.6716275215149 C134.73566284179685 172.6168423652649 134.73566284179685 172.6168423652649 135.50216674804688 172.3395962715149 C138.26448052997756 171.2941667478919 140.709168942068 170.0752180440153 143.17794799804688 168.4528775215149 C143.6420104980469 168.1950650215149 144.1060729980469 167.9372525215149 144.58419799804688 167.6716275215149 C144.88930297851562 167.49591218948365 145.19440795898436 167.3201968574524 145.50875854492188 167.1391568183899 C149.5261242476294 165.16511399001297 153.69653860087686 165.40378654942603 158.06686401367188 165.4658169746399 C159.38338960588442 165.4839442776353 160.6992016881215 165.4863268849542 162.01583862304688 165.4860806465149 C167.2780422780903 165.50869066433256 172.3799593191569 165.87834855081582 177.58419799804688 166.6716275215149 C182.93089147178705 163.19375133481753 185.02598037828807 157.43884969170168 186.32492065429688 151.3469204902649 C186.85736878553968 147.90656354432497 186.92490854986409 144.459925139517 186.95919799804688 140.9841275215149 C186.9669625854492 140.6246805000305 186.97472717285154 140.26523347854615 186.98272705078125 139.8948941230774 C187.07492044314142 134.4806557040681 186.09017149321744 130.49995534535333 183.58419799804688 125.67162752151489 C182.97012084960937 125.6925747871399 182.35604370117187 125.71352205276489 181.72335815429688 125.73510408401489 C179.39385319229348 125.80878658287475 177.06444500242867 125.85387668516267 174.73410034179688 125.89135408401489 C173.7352249914597 125.91118446240776 172.73646106633305 125.93825882412415 171.73800659179688 125.97338533401489 C162.30702600114546 126.29629907025071 154.38304827255934 124.08977613328148 146.58419799804688 118.67162752151489 C146.41919799804685 118.34162752151491 146.41919799804685 118.34162752151491 145.58419799804688 116.67162752151489 C144.9241979980469 116.67162752151489 144.26419799804688 116.67162752151489 143.58419799804688 116.67162752151489 C143.58419799804688 116.0116275215149 143.58419799804688 115.3516275215149 143.58419799804688 114.67162752151489 C142.26419799804688 113.3516275215149 140.9441979980469 112.0316275215149 139.58419799804688 110.67162752151489 C138.9241979980469 110.67162752151489 138.26419799804688 110.67162752151489 137.58419799804688 110.67162752151489 C137.58419799804688 110.0116275215149 137.58419799804688 109.3516275215149 137.58419799804688 108.67162752151489 C136.12713952005527 107.6905534203226 134.66833483647952 106.71210727365457 133.20919799804688 105.73412752151489 C132.79669799804685 105.45633455276487 132.3841979980469 105.17854158401491 131.95919799804688 104.89233064651489 C131.55958862304686 104.6248501777649 131.15997924804685 104.3573697090149 130.74826049804688 104.08178377151489 C130.38168334960938 103.83565340042114 130.01510620117188 103.58952302932738 129.63742065429688 103.33593416213989 C128.64413523424065 102.70943216214616 127.64370478529133 102.17625427196137 126.58419799804688 101.67162752151489 Z M29.584197998046875 156.6716275215149 C24.799055223054097 165.4406798626644 24.27193075988862 172.74551573835691 24.584197998046875 182.6716275215149 C24.590482177734373 182.8775552558899 24.590482177734373 182.8775552558899 24.622283935546875 183.9196743965149 C24.973699145283547 192.31060899634986 27.714681226596326 200.6321848664628 32.709197998046875 207.4020962715149 C33.83534717987209 209.03601807550234 34.475882905148865 210.71334467510087 35.146697998046875 212.5700650215149 C35.759750633386545 214.1136439783523 36.60180183524966 215.3383755862901 37.584197998046875 216.6716275215149 C38.24419799804684 216.6716275215149 38.90419799804687 216.6716275215149 39.584197998046875 216.6716275215149 C39.81107299804688 217.22850252151488 40.03794799804689 217.78537752151487 40.271697998046875 218.3591275215149 C41.93004437432478 221.6758202740707 44.75439470117283 224.96123330037557 48.244354248046875 226.3161587715149 C48.686502685546884 226.4334634590149 49.12865112304689 226.55076814651488 49.584197998046875 226.6716275215149 C49.584197998046875 227.33162752151486 49.584197998046875 227.99162752151489 49.584197998046875 228.6716275215149 C52.22419799804686 229.99162752151489 54.86419799804685 231.31162752151488 57.584197998046875 232.6716275215149 C57.91419799804686 233.33162752151486 58.24419799804684 233.99162752151489 58.584197998046875 234.6716275215149 C59.007171630859375 234.8126187324524 59.430145263671875 234.9536099433899 59.865936279296875 235.0988736152649 C60.7840576171875 235.40491406122845 61.702178955078125 235.71095450719196 62.62030029296875 236.01699495315552 C62.95127716064451 236.12732057571412 63.282254028320324 236.23764619827273 63.623260498046875 236.3513150215149 C67.72482299805085 237.7185025215162 67.72482299805085 237.7185025215162 68.72283935546875 238.05154085159302 C69.38703716161376 238.27269545770332 70.05152930637917 238.49296797652016 70.71630859375 238.71236848831177 C72.2336361890184 239.21419775120268 73.74256373333742 239.7294480209252 75.24386596679688 240.2775845527649 C78.41851718261597 241.42102716069974 81.08953057715246 241.94562642107826 84.45919799804688 241.7966275215149 C84.86138549804684 241.7876040840149 85.26357299804687 241.7785806465149 85.67794799804688 241.7692837715149 C86.64697012653596 241.74621181607466 87.61567575045581 241.71036841141853 88.58419799804688 241.6716275215149 C88.74919799804684 241.1766275215149 88.74919799804684 241.1766275215149 89.58419799804688 238.6716275215149 C90.24419799804684 238.6716275215149 90.90419799804687 238.6716275215149 91.58419799804688 238.6716275215149 C91.74919799804684 238.1766275215149 91.74919799804684 238.1766275215149 92.58419799804688 235.6716275215149 C93.24419799804684 235.3416275215149 93.90419799804687 235.01162752151492 94.58419799804688 234.6716275215149 C94.58419799804688 233.68162752151488 94.58419799804688 232.69162752151487 94.58419799804688 231.6716275215149 C95.17201049804686 231.4047915840149 95.75982299804684 231.1379556465149 96.36544799804688 230.8630337715149 C98.94554345829033 229.57412164678942 100.86636301515597 227.76857315591104 102.93966674804688 225.7946743965149 C105.07401922725535 223.8583048395859 106.74118963130701 223.17663558665947 109.58419799804688 222.6716275215149 C109.99540893554689 222.24623689651492 110.4066198730469 221.82084627151488 110.83029174804688 221.3825650215149 C112.02121462918194 220.1895442139891 113.25298965136966 219.09130983168677 114.55685424804688 218.0231900215149 C121.5260961252722 212.30450062449904 121.5260961252722 212.30450062449904 122.48654174804688 209.0036587715149 C122.69395671785549 206.1745185833255 122.17248143477093 203.4301998531804 121.58419799804688 200.6716275215149 C117.2643704173272 196.35179994079522 115.12337942700856 196.1346020017288 109.63131713867188 194.9626431465149 C108.73003951004995 194.7697318638219 107.82899377594367 194.57573374852797 106.92819213867188 194.3806118965149 C105.63053426870033 194.0997273658529 104.3320822741689 193.82281069290258 103.03341674804688 193.5466275215149 C102.83335777282718 193.50287996292116 102.83335777282718 193.50287996292116 101.82093811035156 193.2814908027649 C99.70266290643576 192.83527232512841 97.76355102026673 192.57409004359738 95.58419799804688 192.6716275215149 C95.58419799804688 192.01162752151492 95.58419799804688 191.3516275215149 95.58419799804688 190.6716275215149 C95.03892456054689 190.57108064651493 94.4936511230469 190.4705337715149 93.93185424804688 190.3669400215149 C86.22295168219796 188.57641845889435 82.3406346191814 183.68997589927693 77.58419799804688 177.6716275215149 C76.83050542871513 176.73135203586872 76.07660658495729 175.7912418472293 75.32247924804688 174.8513150215149 C74.74277726995257 174.12497183272603 74.16324369570407 173.39849400948304 73.58419799804688 172.6716275215149 C73.04794799804688 172.6948306465149 72.51169799804688 172.71803377151488 71.95919799804688 172.7419400215149 C49.01134745207088 173.40847509961378 49.01134745207088 173.40847509961378 41.845916748046875 166.7927212715149 C40.466739343248946 165.5672602338152 39.35395144595253 165.13352798152545 37.584197998046875 164.6716275215149 C37.254197998046834 164.0116275215149 36.92419799804691 163.3516275215149 36.584197998046875 162.6716275215149 C35.92419799804691 162.6716275215149 35.26419799804688 162.6716275215149 34.584197998046875 162.6716275215149 C34.254197998046834 161.68162752151488 33.92419799804691 160.6916275215149 33.584197998046875 159.6716275215149 C32.26419799804688 158.68162752151488 30.94419799804689 157.6916275215149 29.584197998046875 156.6716275215149 Z M140.05685424804688 184.3786587715149 C136.5538144287242 189.4262365052162 135.1029520592624 195.09713527063894 133.87850952148438 201.0080533027649 C131.6031891045631 211.8155257412219 127.83905487110007 222.0750644362139 118.21652221679688 228.5988736152649 C117.01928247071237 229.31957904888884 115.81607369640807 230.01220240442035 114.58419799804688 230.6716275215149 C114.58419799804688 231.33162752151486 114.58419799804688 231.99162752151489 114.58419799804688 232.6716275215149 C114.30576049804688 232.72319002151488 114.30576049804688 232.72319002151488 112.89669799804688 232.9841275215149 C110.1536856737614 233.6526753281508 107.9274474831384 235.14467396360692 105.58419799804688 236.6716275215149 C105.33669799804687 237.24912752151488 105.08919799804687 237.82662752151487 104.83419799804688 238.4216275215149 C103.75800244225644 240.61273070344794 102.30643057095142 242.04415510835724 100.48654174804688 243.6442837715149 C98.56633787186536 245.83048991625833 98.45666161440738 248.36901673315958 98.45138549804688 251.1755337715149 C98.45009643554687 251.83360017776488 98.44880737304686 252.49166658401487 98.44747924804688 253.1696743965149 C98.4495739746094 253.50861726760866 98.45166870117191 253.84756013870242 98.45382690429688 254.1967740058899 C98.4592012892503 255.23476317257462 98.45385472203134 256.27232318974103 98.44747924804688 257.3102993965149 C98.44876831054688 257.9670767402649 98.45005737304689 258.6238540840149 98.45138549804688 259.3005337715149 C98.4525134277344 259.8993838691712 98.45364135742187 260.4982339668274 98.45480346679688 261.1152310371399 C98.57762851242 262.5926077651542 98.80974021873135 263.4284189810347 99.58419799804688 264.6716275215149 C100.24419799804684 264.6716275215149 100.90419799804687 264.6716275215149 101.58419799804688 264.6716275215149 C101.70536987304683 264.9255728340149 101.8265417480469 265.1795181465149 101.95138549804688 265.4411587715149 C102.03517456054686 265.61324861526487 102.03517456054686 265.61324861526487 102.45919799804688 266.4841275215149 C102.62161987304688 266.8205728340149 102.78404174804689 267.1570181465149 102.95138549804688 267.5036587715149 C103.16021362304684 267.8890884590149 103.36904174804687 268.2745181465149 103.58419799804688 268.6716275215149 C103.83814331054691 269.1576040840149 104.09208862304683 269.6435806465149 104.35372924804688 270.1442837715149 C106.05079996680331 272.2508064732094 107.98514370752275 273.1459005846521 110.39669799804688 274.2966275215149 C110.82273315429688 274.5131900215149 111.2487683105469 274.7297525215149 111.68771362304688 274.9528775215149 C120.07517753275135 279.06413063307957 128.73815330767178 277.8752819707168 137.58419799804688 276.1716275215149 C138.3666293529359 276.02644411942464 139.14918144283524 275.8819098478377 139.93185424804688 275.7380337715149 C141.81743715763787 275.3899920298765 143.70119364253657 275.03334906664696 145.58419799804688 274.6716275215149 C145.58419799804688 274.0116275215149 145.58419799804688 273.3516275215149 145.58419799804688 272.6716275215149 C145.82074096679685 272.6284439277649 145.82074096679685 272.6284439277649 147.01779174804688 272.4099087715149 C151.14031043794034 271.56726552945173 154.7123572935318 270.28369959495757 158.39669799804688 268.2341275215149 C158.76915649414065 268.02892488479614 159.14161499023436 267.8237222480774 159.52536010742188 267.6123013496399 C161.9055001900137 266.23443895634415 163.7149249583871 264.67266135215107 165.58419799804688 262.6716275215149 C166.03021362304685 262.2488150215149 166.47622924804688 261.8260025215149 166.93576049804688 261.3903775215149 C167.35599487304688 260.9881900215149 167.7762292480469 260.5860025215149 168.20919799804688 260.1716275215149 C168.63458862304685 259.7694400215149 169.0599792480469 259.3672525215149 169.49826049804688 258.9528775215149 C170.67741985843202 257.5616391394778 171.12605563186605 256.42274945447264 171.58419799804688 254.6716275215149 C172.57419799804688 254.3416275215149 173.5641979980469 254.01162752151492 174.58419799804688 253.6716275215149 C174.84974487304686 253.2733072090149 175.11529174804684 252.87498689651488 175.38888549804688 252.4645962715149 C177.1206563313802 249.8669400215149 178.85242716471356 247.2692837715149 180.58419799804688 244.6716275215149 C180.58419799804688 243.68162752151488 180.58419799804688 242.69162752151487 180.58419799804688 241.6716275215149 C181.57419799804688 241.3416275215149 182.5641979980469 241.01162752151492 183.58419799804688 240.6716275215149 C183.65731201171877 240.431902179718 183.65731201171877 240.431902179718 184.02731323242188 239.2187466621399 C184.57019854061838 237.44172071049616 185.11721587381447 235.66598953485976 185.66549682617188 233.8906216621399 C185.90230574962345 233.12176362897316 186.13798965770638 232.35255815805323 186.37252807617188 231.5830044746399 C186.70966795551914 230.47749928887333 187.05082191986406 229.3733030058711 187.39279174804688 228.2692837715149 C187.49699935913088 227.92446458816528 187.60120697021483 227.57964540481566 187.7085723876953 227.22437715530396 C188.1710756047819 225.74359854418265 188.47049385858236 224.7853316609794 189.58419799804688 223.6716275215149 C190.9560755048289 209.29944834473338 190.7395462636067 197.22276634156094 182.58419799804688 184.6716275215149 C181.9241979980469 184.6716275215149 181.26419799804688 184.6716275215149 180.58419799804688 184.6716275215149 C180.33669799804687 184.07350252151488 180.08919799804687 183.4753775215149 179.83419799804688 182.8591275215149 C178.5545566069477 180.35279541756893 176.9870791654164 179.08151994148565 174.58419799804688 177.6716275215149 C174.12400268554688 177.39061189651488 173.6638073730469 177.1095962715149 173.18966674804688 176.8200650215149 C161.8388607853953 170.90991301176444 147.8031112915861 174.67558180287241 140.05685424804688 184.3786587715149 Z " transform="translate(269.4158020019531,70.32837247848511)" />
    <path d="M0 0 C0 0.6599999999999966 0 1.3199999999999932 0 2 C0.8249999999999886 2.1650000000000063 0.8249999999999886 2.1650000000000063 5 3 C8.289728620986352 6.055676782339134 10.911879962187243 9.010502366780486 13 13 C13 13.989999999999995 13 14.980000000000004 13 16 C13.659999999999968 16 14.319999999999993 16 15 16 C17.535885590177998 21.773668084780212 17.96385517375404 28.14784945317544 16.3125 34.25 C14.922166230764844 37.81521302253867 12.186838733212369 40.926829140182804 8.734375 42.62109375 C2.3966757142957817 44.00568120656152 -5.544479638843711 44.20349676835707 -11.14453125 40.65625 C-11.426835937500016 40.43968749999999 -11.709140624999975 40.22312500000001 -12 40 C-12 39.34 -12 38.68000000000001 -12 38 C-13.319999999999993 37.670000000000016 -14.639999999999986 37.34 -16 37 C-16.99000000000001 36.00999999999999 -17.980000000000018 35.02000000000001 -19 34 C-19 33.34 -19 32.68000000000001 -19 32 C-20.319999999999993 31.340000000000003 -21.639999999999986 30.680000000000007 -23 30 C-27.170990516671736 24.212943046979433 -29.748067440690306 19.463159188071643 -28.7421875 12.1171875 C-27.431445311393475 6.612070307852619 -24.644894453467543 2.733945483317825 -19.875 -0.3125 C-13.913672923188301 -3.734743321873367 -6.044867476876561 -2.752134786220239 0 0 Z M-15 10 C-15 10.659999999999997 -15 11.319999999999993 -15 12 C-15.660000000000025 12 -16.319999999999993 12 -17 12 C-17 19.374769071426954 -15.329912736398228 22.695939029451267 -10.5625 27.75 C-7.2248260054134334 30.91468479364761 -4.275681882985452 32.09268885997898 0.3125 32.125 C3.2911845254534455 32.01995822832154 2.975471132966163 32.01635257802255 6 30 C6 20.734882690754418 5.38932094453088 19.73027394048006 -0.06396484375 13.92724609375 C-3.057429250936366 10.961889333579492 -6.145221766540033 9.900479638330012 -10.267822265625 9.806640625 C-11.851532157717088 9.815021890140073 -13.419971157714713 9.891723911823092 -15 10 Z " transform="translate(426,107)" />
    <path d="M0 0 C0.30164062500000455 -0.003867187499992042 0.30164062500000455 -0.003867187499992042 1.828125 -0.0234375 C5.6279607414460315 -0.006916475037201053 8.599550556881127 0.5301874360262673 12 2.25 C12.16500000000002 2.7450000000000045 12.16500000000002 2.7450000000000045 13 5.25 C14.319999999999993 5.5800000000000125 15.639999999999986 5.909999999999997 17 6.25 C19.026490602013723 10.256819686897302 19.306973945215816 13.806032273166181 19.25 18.25 C19.25386718750002 18.551640625000005 19.25386718750002 18.551640625000005 19.2734375 20.078125 C19.25677416166974 23.910692815959635 18.67415804252289 26.813189256291338 17 30.25 C16.727708192627347 30.91607230127562 16.45662943377073 31.582643658330028 16.1875 32.25 C14.740158574477789 35.07630451598041 12.270536709484873 37.089549918853805 10 39.25 C9.33255105203267 39.95759625310825 8.665821934690314 40.665872573622494 8 41.375 C2.2153797634340435 47.09020479372717 -4.191170945245176 47.464925105404376 -11.960205078125 47.43115234375 C-18.96731821909549 47.270455242793275 -23.006562996843513 44.88929253484753 -28 40.25 C-29.060755464986983 36.77072207484264 -29.183324727261777 33.49913673676633 -29.1875 29.875 C-29.19974609374998 29.323281250000008 -29.211992187500016 28.771562500000016 -29.224609375 28.203125 C-29.251496023146615 20.567316926355716 -26.087141443636312 13.872221869872448 -21 8.25 C-18.28640263770683 5.842419731552411 -15.221435366991102 3.9044758611843235 -12 2.25 C-11.622465820312527 2.0542236328124943 -11.244931640624998 1.8584472656249886 -10.85595703125 1.65673828125 C-7.27634088357695 0.00651915886416532 -3.894958954907736 -0.04993537121677605 0 0 Z M-12.3125 15.1875 C-16.41751860398216 19.29251860398216 -18.16023126310273 25.05879651467677 -18.1875 30.8125 C-18.051724137931046 33.198275862068954 -18.051724137931046 33.198275862068954 -15 36.25 C-13.62373526139254 36.33257588431644 -12.252605935661052 36.39113826178064 -10.875 36.4375 C-10.496015624999984 36.46263671874999 -10.117031250000025 36.48777343749998 -9.7265625 36.513671875 C-6.0056116342937 36.60669564664266 -3.0236274920802657 35.38682654514855 0 33.25 C1.686075372193443 31.492412470443497 3.031050263580312 29.588883357442114 4.375 27.5625 C4.7294921875 27.051386718749995 5.083984375 26.54027343749999 5.44921875 26.013671875 C8.510133988363805 21.58775389520366 8 22.023895811127943 8 15.25 C6 12.25 6 12.25 4.78515625 11.9609375 C-0.9263267039289644 10.847133567941285 -7.780079347837784 11.216618189698579 -12.3125 15.1875 Z " transform="translate(350,143.75)" />
    <path d="M0 0 C0.48082031249998636 -0.0012890625000068212 0.9616406249999727 -0.0025781250000136424 1.45703125 -0.00390625 C1.706464843749984 -0.001972656249989768 1.706464843749984 -0.001972656249989768 2.96875 0.0078125 C3.467617187500025 0.003945312500007958 3.966484374999993 0.00007812499998749445 4.48046875 -0.00390625 C4.720878906249993 -0.0032617187499965894 4.720878906249993 -0.0032617187499965894 5.9375 0 C6.375136718750014 0.0011279296874988631 6.812773437500027 0.0022558593749977263 7.263671875 0.00341796875 C8.543365631421125 0.14082430807397373 9.36482815618416 0.4880043232467699 10.46875 1.1328125 C10.46875 1.7928124999999966 10.46875 2.452812499999993 10.46875 3.1328125 C11.458750000000009 3.297812499999992 11.458750000000009 3.297812499999992 16.46875 4.1328125 C17.046249999999986 4.875312500000007 17.623749999999973 5.617812500000014 18.21875 6.3828125 C19.887193923572227 8.484695592329473 21.643896421698344 10.346290951409657 23.63671875 12.140625 C25.6709038512858 14.566366857871344 25.601737506029167 17.321882435836244 25.53125 20.3203125 C25.526738281250005 20.688339843749986 25.52222656250001 21.0563671875 25.517578125 21.435546875 C25.480168800795013 24.316064838781784 24.8333047297873 25.064023930324822 22.82421875 27.109375 C20.36613903227135 28.965331443933422 17.4382226181595 29.498880143314267 14.46875 30.1328125 C13.563373759352146 27.19033971789443 13.437667895193215 24.66360616173364 13.5 21.59375 C13.458110822022661 19.63543092955831 13.04297880351362 17.999056111419264 12.46875 16.1328125 C9.011832429589447 15.067209268344328 5.819342118485849 15.014322431171877 2.21875 15.0703125 C1.6644531250000227 15.074824218749995 1.1101562499999886 15.079335937499991 0.5390625 15.083984375 C-0.8178229606035643 15.09568166345349 -2.1744777243206954 15.112071625606973 -3.53125 15.1328125 C-4.53125 18.1328125 -4.53125 18.1328125 -3.53125 21.1328125 C-1.8812500000000227 21.792812499999997 -1.8812500000000227 21.792812499999997 6.46875 25.1328125 C7.128750000000025 26.782812500000006 7.788749999999993 28.43281250000001 8.46875 30.1328125 C5.004754909629753 33.59680759037025 2.4251825403965768 33.928271767136664 -2.26904296875 34.1767578125 C-5.571134707081967 34.06179136899908 -8.599977477046139 32.54653249063443 -11.53125 31.1328125 C-11.53125 30.472812500000003 -11.53125 29.812812500000007 -11.53125 29.1328125 C-12.521250000000009 28.802812500000016 -13.511250000000018 28.472812500000003 -14.53125 28.1328125 C-17.149760058085747 23.877733655610626 -18.520042051661164 20.139222782621232 -17.53125 15.1328125 C-16.48500501021215 12.32142253345819 -15.036508468845568 9.71997549332832 -13.53125 7.1328125 C-12.871249999999975 7.1328125 -12.211250000000007 7.1328125 -11.53125 7.1328125 C-11.53125 6.472812500000003 -11.53125 5.812812500000007 -11.53125 5.1328125 C-9.144460637702423 3.775856111282593 -7.359307312975602 2.8500067687024284 -4.53125 3.1328125 C-4.53125 2.4728125000000034 -4.53125 1.8128125000000068 -4.53125 1.1328125 C-2.961906325273958 0.21614830020351405 -1.8090871603094456 0.0046625957739934165 0 0 Z " transform="translate(412.53125,197.8671875)" />
    <path d="M0 0 C0.9654656719484365 0.5714513031262527 1.9239148782901907 1.154922150624202 2.875 1.75 C3.367421874999991 1.9936328124999818 3.859843749999982 2.2372656250000205 4.3671875 2.48828125 C9.844139431058522 5.482159119050095 13.478350846676335 11.17378121622329 15.279296875 17.07470703125 C16.390761709904496 21.925560910383865 16.376583192425755 26.64219799994703 14.109375 31.14453125 C11.855783133721047 34.43404840964911 8.164337193353447 36.61700937343113 4.875 38.75 C-2.89492767426799 39.98404733650136 -8.508179495644697 36.45541948243897 -15.125 32.75 C-15.785000000000025 31.100000000000023 -16.444999999999993 29.44999999999999 -17.125 27.75 C-18.11500000000001 27.420000000000016 -19.105000000000018 27.089999999999975 -20.125 26.75 C-21.93364202900466 23.025598190842288 -22.437691814754032 19.866762502182212 -22.375 15.75 C-22.382734374999984 15.242109374999984 -22.390468750000025 14.734218750000025 -22.3984375 14.2109375 C-22.380296840193125 10.673508837657607 -21.668459028491952 7.928330209012984 -20.125 4.75 C-19.13499999999999 4.420000000000016 -18.144999999999982 4.089999999999975 -17.125 3.75 C-16.795000000000016 2.759999999999991 -16.464999999999975 1.7699999999999818 -16.125 0.75 C-11.132487944557283 -1.9382757221614781 -5.177176027527821 -2.486675099836191 0 0 Z M-10.125 11.75 C-10.145624999999995 12.843124999999986 -10.166249999999991 13.936249999999973 -10.1875 15.0625 C-10.199101562500005 15.677382812500014 -10.210703125000009 16.292265625000027 -10.22265625 16.92578125 C-10.107143558972325 19.083558318397422 -9.84981038633714 21.06046799529878 -8.2421875 22.58984375 C-5.003038978297127 25.45211021100158 -2.424340163501654 26.45451270353942 1.875 26.75 C2.535000000000025 26.089999999999975 3.194999999999993 25.430000000000007 3.875 24.75 C2.875 17.75 2.875 17.75 -1.125 13.75 C-1.785000000000025 13.75 -2.444999999999993 13.75 -3.125 13.75 C-3.125 13.089999999999975 -3.125 12.430000000000007 -3.125 11.75 C-5.435000000000002 11.75 -7.7450000000000045 11.75 -10.125 11.75 Z " transform="translate(338.125,255.25)" />
    <path d="M0 0 C5.331518744774598 5.214158269260736 7.918052619875084 9.841007430613615 8.0185546875 17.39453125 C7.92217357681659 22.691922666823018 7.650663834303771 27.84421286786801 4 32 C3.340000000000032 32 2.680000000000007 32 2 32 C1.3400000000000318 33.64999999999998 0.6800000000000068 35.30000000000001 0 37 C-1.3199999999999932 37.65999999999997 -2.6399999999999864 38.31999999999999 -4 39 C-4.1650000000000205 39.329999999999984 -4.1650000000000205 39.329999999999984 -5 41 C-5.990000000000009 41 -6.980000000000018 41 -8 41 C-8 41.65999999999997 -8 42.31999999999999 -8 43 C-15.814892517278338 45.79340838915482 -23.75274694039979 47.865436765000084 -31.8125 44.8125 C-35.999034830337166 42.71923258483139 -39.58977715976937 39.52567241010382 -41.622802734375 35.255615234375 C-42.44958946440636 32.50340542689855 -42.20015640039327 29.594380691807146 -42.125 26.75 C-42.11597656250001 26.100312499999973 -42.10695312500002 25.450625000000002 -42.09765625 24.78125 C-42.00268744918151 18.32337154434174 -38.55935912019771 13.481680411281673 -33.99609375 8.87890625 C-33.317044741911104 8.244860254003811 -32.63098973247844 7.6182183039770734 -31.9375 7 C-31.621679687499977 6.709880371093732 -31.30585937500001 6.4197607421875205 -30.98046875 6.120849609375 C-28.507322103314266 4.023362788889187 -26.195222873515945 3.3788866376977467 -23 3 C-23 2.339999999999975 -23 1.6800000000000068 -23 1 C-14.754881970256065 -1.7317246461464038 -8.403123709517558 -2.3712032636809113 0 0 Z M-26.6611328125 17.65625 C-29.648740296039534 21.381412459566945 -30.471684823037947 25.342200888824493 -31 30 C-30.00999999999999 31.319999999999993 -29.019999999999982 32.639999999999986 -28 34 C-26.04169785154653 34.02904829750105 -24.08345118709451 34.04681446417658 -22.125 34.0625 C-21.569414062500016 34.070878906250016 -21.013828124999975 34.07925781250003 -20.44140625 34.087890625 C-19.90644531250001 34.09111328124999 -19.371484375000023 34.09433593749998 -18.8203125 34.09765625 C-18.32805175781249 34.10289306640624 -17.835791015624977 34.10812988281248 -17.32861328125 34.113525390625 C-15.970134445141525 33.99744809206004 -15.159437435652478 33.69518136701987 -14 33 C-14 32.34000000000003 -14 31.680000000000007 -14 31 C-11.333333333333314 29.666666666666686 -8.666666666666686 28.333333333333314 -6 27 C-5.8672265624999795 26.650664062500027 -5.734453125000016 26.301328124999998 -5.59765625 25.94140625 C-5.421054687500032 25.48636718749998 -5.244453125000007 25.031328125000016 -5.0625 24.5625 C-4.975488281250023 24.336269531250025 -4.975488281250023 24.336269531250025 -4.53515625 23.19140625 C-4 22 -4 22 -3 21 C-3 15 -3 15 -6 10 C-15.102398909384931 9.514298872424149 -20.448489553699574 10.62457660097192 -26.6611328125 17.65625 Z " transform="translate(431,290)" />
    <path d="M0 0 C0.318894424438497 -0.0015383148193564011 0.318894424438497 -0.0015383148193564011 1.9326934814453125 -0.0093231201171875 C2.6187882429352953 -0.0024192958486537464 3.304879427638184 0.004848125958289984 3.990966796875 0.012451171875 C4.708347745484616 0.013646560692450294 5.425730283610164 0.014095376720945296 6.1431121826171875 0.0138397216796875 C7.6435229073466076 0.015398014632694412 9.143692854322751 0.023630232948335106 10.64404296875 0.037109375 C12.546767675614092 0.05400584559697563 14.449226459969907 0.05792576969190577 16.352017402648926 0.05716419219970703 C17.833800657626966 0.05743921534315177 19.315528244938548 0.06297432374276468 20.797292709350586 0.07016563415527344 C21.497647787282688 0.07330183412659608 22.19800904639152 0.07530758189608378 22.89837074279785 0.07605934143066406 C27.57556556488896 0.08657013037702654 32.0188383663895 0.46336870480445214 36.627685546875 1.242919921875 C36.627685546875 1.572919921874984 36.627685546875 1.902919921875025 36.627685546875 2.242919921875 C22.107685546875018 2.242919921875 7.5876855468749795 2.242919921875 -7.372314453125 2.242919921875 C-2.871760563740736 -0.0073570228171320196 -2.871760563740736 -0.0073570228171320196 0 0 Z " transform="translate(292.372314453125,451.757080078125)" />
  </g>
</svg>