<svg color="#2C3440" xmlns="http://www.w3.org/2000/svg" viewBox="0 0 131 163" width="131" height="163">
  <g fill="currentColor" transform="scale(0.50000000, 0.50000000)">
    <path d="M0 0 C3.0180554084852247 2.1107395693433233 5.494926963950547 4.818647509121156 8.060882568359375 7.44439697265625 C8.676194899758997 8.065992885137604 9.292034036212954 8.687067713807522 9.908370971679688 9.307647705078125 C11.518049756516717 10.930533297488289 13.122036159938489 12.558916764729183 14.724395751953125 14.18902587890625 C17.297797858231036 16.80581702088388 19.878185512596957 19.41567815781459 22.461755752563477 22.02242660522461 C23.360450299826482 22.931317971288138 24.2556437929656 23.8435538244304 25.150527954101563 24.756195068359375 C25.70020162038867 25.31269574627961 26.24998510216699 25.86908798466309 26.799896240234375 26.42535400390625 C27.046671142578134 26.67886627197265 27.293446044921893 26.932378540039068 27.547698974609375 27.193572998046875 C28.781436550099613 28.43540127290362 29.88486771867258 29.402098363248342 31.517913818359375 30.06158447265625 C31.517913818359375 30.721584472656247 31.517913818359375 31.381584472656243 31.517913818359375 32.06158447265625 C32.83791381835937 32.72158447265625 34.15791381835936 33.38158447265624 35.517913818359375 34.06158447265625 C35.84791381835936 34.72158447265625 35.84791381835936 34.72158447265625 37.517913818359375 38.06158447265625 C38.17791381835937 38.06158447265625 38.83791381835937 38.06158447265625 39.517913818359375 38.06158447265625 C39.517913818359375 38.72158447265625 39.517913818359375 39.38158447265624 39.517913818359375 40.06158447265625 C40.17791381835937 40.06158447265625 40.83791381835937 40.06158447265625 41.517913818359375 40.06158447265625 C41.70901733398438 40.28298095703124 41.90012084960938 40.50437744140625 42.097015380859375 40.73248291015625 C49.11758293730048 48.85133419985529 49.11758293730048 48.85133419985529 52.517913818359375 52.06158447265625 C52.474279427200315 56.795915913413936 49.72377328598543 59.87687397971435 46.563323974609375 63.06842041015625 C43.229689225335335 66.23545127424939 39.580425559698625 69.05343564612134 35.977874755859375 71.90435791015625 C33.622052169456765 73.77168216760582 31.286222813085033 75.66317302799065 28.955413818359375 77.56158447265625 C28.500938720703118 77.93122314453124 28.04646362304686 78.30086181640625 27.578216552734375 78.68170166015625 C24.431339731493125 81.26116409468894 21.395988087058697 83.94180147205677 18.392913818359375 86.68658447265625 C15.228828281137282 89.5737890343384 12.015415478018497 92.3569871707742 8.642913818359375 94.99908447265625 C8.464298095703128 95.1403173828125 8.464298095703128 95.1403173828125 7.560394287109375 95.85504150390625 C5.321091732325158 97.57863870393129 3.081867402428145 98.8715880782566 0.517913818359375 100.06158447265625 C0.517913818359375 100.72158447265625 0.517913818359375 101.38158447265624 0.517913818359375 102.06158447265625 C-17.437070104470223 118.06158447265625 -17.437070104470223 118.06158447265625 -20.482086181640625 118.06158447265625 C-20.482086181640625 118.72158447265625 -20.482086181640625 119.38158447265624 -20.482086181640625 120.06158447265625 C-20.943570556640623 120.46248291015627 -21.40505493164062 120.86338134765623 -21.880523681640625 121.27642822265625 C-22.539438984815405 121.85057681755802 -23.198287172405998 122.42480244158003 -23.857086181640625 122.99908447265625 C-24.212867431640632 123.30829833984376 -24.56864868164064 123.61751220703127 -24.935211181640625 123.93609619140625 C-26.971302421918494 125.71328789897638 -28.980132224001977 127.51336908384192 -30.958648681640625 129.35455322265625 C-31.16852416992188 129.54827514648437 -31.16852416992188 129.54827514648437 -32.230621337890625 130.52862548828125 C-33.034648974985515 131.27257848920615 -33.83422204051047 132.02139110626004 -34.628082275390625 132.77618408203125 C-41.43955515198806 139.0502092243304 -47.267801471161164 141.79181485845834 -56.482086181640625 142.37408447265625 C-57.36115451619747 142.44568941087928 -58.24006596196226 142.51924802413953 -59.118804931640625 142.59478759765625 C-61.23939992401091 142.77649583146575 -63.35720967770868 142.91806962813666 -65.48208618164063 143.06158447265625 C-67.79208618164063 145.70158447265624 -70.10208618164063 148.34158447265625 -72.48208618164063 151.06158447265625 C-77.48208618164064 150.06158447265625 -77.48208618164064 150.06158447265625 -79.20474243164063 148.30377197265625 C-83.78826452639547 143.65649299590527 -88.43367713641389 139.20095523321194 -93.48208618164063 135.06158447265625 C-93.81208618164062 133.41158447265624 -94.14208618164062 131.76158447265624 -94.48208618164063 130.06158447265625 C-94.06056274414063 129.59107666015626 -93.63903930664063 129.12056884765624 -93.20474243164063 128.63580322265625 C-92.6511161624623 128.00710898477578 -92.09774409143014 127.3781908368791 -91.54458618164063 126.74908447265625 C-91.26679321289062 126.44035400390624 -90.98900024414063 126.13162353515625 -90.70278930664063 125.81353759765625 C-90.43530883789063 125.50738525390625 -90.16782836914062 125.20123291015625 -89.89224243164063 124.88580322265625 C-89.64611206054687 124.608251953125 -89.39998168945313 124.33070068359376 -89.14639282226563 124.04473876953125 C-87.5592952332404 121.69588099995957 -87.3509540601328 119.28666509624733 -87.27114868164063 116.51470947265625 C-87.24304216521197 115.82718721301543 -87.2143775256156 115.13968758732352 -87.18521118164063 114.45220947265625 C-87.14437114404686 113.38842373152323 -87.1074238789633 112.32504233633034 -87.08071899414063 111.26080322265625 C-86.86547380156352 103.33384233740284 -84.62204048086903 97.68597651843646 -78.91958618164063 91.99908447265625 C-75.09664380987041 87.99516611337839 -71.75780832463131 83.86166204742251 -68.60708618164063 79.31158447265625 C-65.17299928439246 74.36688576437399 -61.59422800300479 69.60647591864854 -57.794586181640625 64.93658447265625 C-53.040006226991494 59.08629084037001 -48.480213495476704 53.1110362328848 -43.982086181640625 47.06158447265625 C-39.24996042013291 40.69743234438704 -34.433622385480874 34.42989223577091 -29.429962158203125 28.277099609375 C-25.847610896348044 23.865317844420744 -22.488905993351807 19.343043690205633 -19.232086181640625 14.68658447265625 C-16.33875801888533 10.556787621652106 -13.37666116836607 6.543169856700757 -10.044586181640625 2.74908447265625 C-9.726510009765605 2.3818627929687466 -9.408433837890641 2.0146411132812503 -9.080718994140625 1.63629150390625 C-5.928466786510285 -1.8400081588679882 -3.9978895521607853 -2.4065749661522986 0 0 Z M-4.482086181640625 7.06158447265625 C-5.472086181640634 8.051584472656252 -6.462086181640643 9.041584472656254 -7.482086181640625 10.06158447265625 C-6.435919277406015 15.292418993829337 -5.2199048599816535 16.35296637515701 -1.794586181640625 19.80401611328125 C-1.266279722898247 20.337243695888105 -0.7388841700505395 20.871375858172186 -0.212554931640625 21.40655517578125 C2.8617981669343635 24.53116212308293 6.0025483611727 27.519823571737703 9.330413818359375 30.37408447265625 C14.134228455621724 34.50618667383124 18.563798482198933 38.99718206912405 23.017913818359375 43.49908447265625 C23.848404799906888 44.334607749048956 24.679132774397374 45.16989552883189 25.510101318359375 46.00494384765625 C27.515434292303013 48.02112874318905 29.517865929730675 50.04015736357755 31.517913818359375 52.06158447265625 C32.17791381835937 52.06158447265625 32.83791381835937 52.06158447265625 33.517913818359375 52.06158447265625 C33.517913818359375 52.72158447265625 33.517913818359375 53.38158447265624 33.517913818359375 54.06158447265625 C34.17791381835937 54.06158447265625 34.83791381835937 54.06158447265625 35.517913818359375 54.06158447265625 C36.17791381835937 55.38158447265624 36.83791381835937 56.70158447265625 37.517913818359375 58.06158447265625 C38.342913818359364 57.89658447265626 38.342913818359364 57.89658447265626 42.517913818359375 57.06158447265625 C43.17791381835937 55.74158447265626 43.83791381835937 54.42158447265625 44.517913818359375 53.06158447265625 C42.86791381835937 51.411584472656244 41.217913818359364 49.76158447265625 39.517913818359375 48.06158447265625 C38.85791381835938 48.06158447265625 38.19791381835938 48.06158447265625 37.517913818359375 48.06158447265625 C37.517913818359375 47.40158447265625 37.517913818359375 46.74158447265626 37.517913818359375 46.06158447265625 C37.03068847656249 45.645413665771486 36.54346313476563 45.22924285888672 36.041473388671875 44.80046081542969 C31.06588434512767 40.51821212430556 26.358573037920166 36.036878360842564 21.736663818359375 31.37799072265625 C21.030871607180416 30.670326216575802 20.324852941660794 29.962887502074537 19.618621826171875 29.255661010742188 C17.788372662868284 27.42165041327138 15.961150205012387 25.584654737197013 14.134613037109375 23.7469482421875 C12.259045300071193 21.861026747965205 10.380531889198977 19.978043995148752 8.502288818359375 18.09478759765625 C4.837995677882844 14.419870052166587 1.176903821682231 10.74178169119655 -2.482086181640625 7.06158447265625 C-3.1420861816406216 7.06158447265625 -3.802086181640618 7.06158447265625 -4.482086181640625 7.06158447265625 Z M-13.482086181640625 19.06158447265625 C-18.135022821577536 23.964737381925076 -22.30928846789388 29.077877380971756 -26.169586181640625 34.62408447265625 C-29.814052015080478 39.85489546660634 -33.66710131631473 44.83863509289753 -37.732086181640625 49.74908447265625 C-42.627378562933984 55.667412902717416 -47.26936401486091 61.73084827307882 -51.794586181640625 67.93658447265625 C-55.64716391850975 73.21854133814716 -59.49642057617439 78.46966020030331 -63.629791259765625 83.53717041015625 C-66.48241305272366 87.03498198142925 -69.23563945752977 90.6052624840065 -71.98208618164063 94.18658447265625 C-72.09522155761718 94.33405120849608 -72.09522155761718 94.33405120849608 -72.66775512695313 95.080322265625 C-76.48208618164063 100.0533357997659 -76.48208618164063 100.0533357997659 -76.48208618164063 104.06158447265625 C-75.16208618164063 105.38158447265624 -73.84208618164062 106.70158447265624 -72.48208618164063 108.06158447265625 C-71.82208618164063 108.06158447265625 -71.16208618164063 108.06158447265625 -70.48208618164063 108.06158447265625 C-70.48208618164063 108.72158447265625 -70.48208618164063 109.38158447265624 -70.48208618164063 110.06158447265625 C-70.04380493164062 110.43927978515626 -69.60552368164062 110.81697509765627 -69.15396118164063 111.20611572265625 C-64.78693865216256 114.98906661673317 -60.49325674946982 118.84783004646596 -56.232086181640625 122.74908447265625 C-55.976328124999995 122.9826968383789 -55.72057006835938 123.21630920410155 -55.457061767578125 123.45700073242188 C-52.394348485506725 126.25630102371369 -49.38331857790064 129.09403217764282 -46.482086181640625 132.06158447265625 C-43.0087663824678 130.55489323557214 -40.597319774223365 128.5202176986378 -37.857086181640625 125.93658447265625 C-34.463800862046895 122.80105710847025 -31.005463344580903 119.83318001173473 -27.357086181640625 116.99908447265625 C-24.263038240182112 114.58449278224685 -21.434515725236707 112.09359607935164 -18.732086181640625 109.24908447265625 C-15.083878758167032 105.42823696830067 -11.008553581612887 102.26031264364389 -6.828277587890625 99.05636596679688 C-1.7054426538779808 95.12283462327292 3.0955543608908727 90.9397577324384 7.786468505859375 86.50177001953125 C8.018016357421885 86.28347534179687 8.018016357421885 86.28347534179687 9.189788818359375 85.17877197265625 C9.391365966796883 84.9859765625 9.391365966796883 84.9859765625 10.411468505859375 84.01031494140625 C11.420492139447845 83.14511947800713 12.30369728986463 82.58404449891714 13.517913818359375 82.06158447265625 C13.517913818359375 81.40158447265625 13.517913818359375 80.74158447265626 13.517913818359375 80.06158447265625 C14.065765380859375 79.82181884765626 14.613616943359375 79.58205322265624 15.178070068359375 79.33502197265625 C18.09458992213075 77.87483737362774 20.472663264753805 75.77660282039574 22.955413818359375 73.68658447265625 C23.891396888068925 72.90768039245415 24.827593578581258 72.1290329390548 25.764007568359375 71.35064697265625 C26.21759643554688 70.97198486328125 26.671185302734386 70.59332275390625 27.138519287109375 70.20318603515625 C29.242883934674012 68.46159150559657 31.377837929215502 66.75898633308623 33.517913818359375 65.06158447265625 C33.18791381835939 64.23658447265625 33.18791381835939 64.23658447265625 31.517913818359375 60.06158447265625 C30.85791381835938 60.06158447265625 30.197913818359382 60.06158447265625 29.517913818359375 60.06158447265625 C29.517913818359375 59.40158447265625 29.517913818359375 58.74158447265626 29.517913818359375 58.06158447265625 C28.85791381835938 58.06158447265625 28.197913818359382 58.06158447265625 27.517913818359375 58.06158447265625 C27.517913818359375 57.40158447265625 27.517913818359375 56.74158447265626 27.517913818359375 56.06158447265625 C26.85791381835938 56.06158447265625 26.197913818359382 56.06158447265625 25.517913818359375 56.06158447265625 C25.517913818359375 55.40158447265625 25.517913818359375 54.74158447265626 25.517913818359375 54.06158447265625 C24.85791381835938 54.06158447265625 24.197913818359382 54.06158447265625 23.517913818359375 54.06158447265625 C23.517913818359375 53.40158447265625 23.517913818359375 52.74158447265626 23.517913818359375 52.06158447265625 C22.85791381835938 52.06158447265625 22.197913818359382 52.06158447265625 21.517913818359375 52.06158447265625 C21.517913818359375 51.40158447265625 21.517913818359375 50.74158447265626 21.517913818359375 50.06158447265625 C21.294060058593743 49.87454956054688 21.294060058593743 49.87454956054688 20.161224365234375 48.92803955078125 C15.945084197394806 45.34958541640313 11.972233644325172 41.583268827315635 8.099945068359375 37.63580322265625 C7.6258141226109615 37.153716725777244 7.151682854241102 36.67163054619547 6.67755126953125 36.189544677734375 C4.731015731894217 34.20768219185133 2.7881037068220564 32.22239808419704 0.855072021484375 30.22735595703125 C-0.11300919997387382 29.228751557067966 -1.0850925540853495 28.234371692323435 -2.0617523193359375 27.244155883789063 C-2.9696677887380076 26.323245186270334 -3.871686107978576 25.39646803515393 -4.7665557861328125 24.462875366210938 C-7.441205208998838 21.7659233809692 -9.82271092483785 20.13909593270226 -13.482086181640625 19.06158447265625 Z M-79.48208618164063 110.06158447265625 C-79.48208618164063 121.58961410010915 -79.0754704831985 123.13947918962089 -72.48208618164063 130.06158447265625 C-70.24541662603377 132.18674221916285 -67.87335216025303 134.10953061256447 -65.48208618164063 136.06158447265625 C-61.85208618164063 135.73158447265627 -58.22208618164062 135.40158447265625 -54.482086181640625 135.06158447265625 C-56.732663646191895 130.5604295435537 -56.732663646191895 130.5604295435537 -58.282135009765625 129.00274658203125 C-58.6262190246582 128.6523582458496 -58.970303039550785 128.30196990966797 -59.32481384277344 127.94096374511719 C-59.69253402709961 127.57729202270508 -60.060254211425786 127.21362030029297 -60.439117431640625 126.83892822265625 C-60.823957977294924 126.45217422485351 -61.20879852294922 126.06542022705077 -61.60530090332031 125.66694641113281 C-62.417323334020864 124.85356877882336 -63.23185379853774 124.04268811263546 -64.04873657226563 123.23419189453125 C-65.28735678866207 122.00625153106864 -66.51497931072934 120.76804657863619 -67.74185180664063 119.52838134765625 C-68.53613353286804 118.73542190501541 -69.33103580003531 117.94308345427183 -70.12661743164063 117.15142822265625 C-70.4882649230957 116.78573226928711 -70.84991241455077 116.42003631591797 -71.22251892089844 116.04325866699219 C-71.57605941772461 115.6960224914551 -71.92959991455078 115.34878631591795 -72.29385375976563 114.99102783203125 C-72.59648635864258 114.68998641967772 -72.89911895751953 114.38894500732422 -73.21092224121094 114.07878112792969 C-75.14923347867219 112.52772729064253 -77.35335788489938 111.338821450701 -79.48208618164063 110.06158447265625 Z M-84.48208618164063 129.06158447265625 C-84.81208618164062 129.55658447265625 -84.81208618164062 129.55658447265625 -86.48208618164063 132.06158447265625 C-82.85208618164063 135.69158447265625 -79.22208618164062 139.32158447265624 -75.48208618164063 143.06158447265625 C-74.16208618164063 142.73158447265624 -72.84208618164062 142.40158447265625 -71.48208618164063 142.06158447265625 C-73.0152497322344 138.38873113167338 -75.25649922160508 136.04636633744036 -78.10708618164063 133.31158447265625 C-78.31720336914063 133.10597900390624 -78.31720336914063 133.10597900390624 -79.38052368164063 132.06549072265625 C-82.45428821652435 129.06158447265625 -82.45428821652435 129.06158447265625 -84.48208618164063 129.06158447265625 Z " transform="translate(167.48208618164063,36.93841552734375)" />
    <path d="M0 0 C0.22945312499999204 0.0022558593749977263 0.22945312499999204 0.0022558593749977263 1.390625 0.013671875 C2.5104741915475586 0.02533697074528618 3.6302552047349366 0.043267742066063875 4.75 0.0625 C8.313952259987047 7.190404519974081 5.499376085631042 19.20504570387652 3.130859375 26.810302734375 C1.2978304410086707 31.907044070574557 -2.3189433729100983 36.09702586592502 -6.875 39 C-11.532481122282064 41.05329812917813 -17.27482385232412 40.2978613170298 -22.25 40.0625 C-31.958839547549232 33.87272203602848 -31.958839547549232 33.87272203602848 -33.25 28.0625 C-33.846824409605446 23.42028306964791 -33.87753315567829 18.63263517981588 -31.3984375 14.52734375 C-25.530968115640206 7.043326678112507 -18.18258420092309 3.8597764551041394 -9.25 1.0625 C-8.888740234375007 0.9468872070312528 -8.527480468750014 0.8312744140625057 -8.1552734375 0.712158203125 C-5.432298987752432 -0.07162430120446572 -2.8038457523721263 -0.05297964357680485 0 0 Z M-8.04296875 8.15625 C-8.218414688110357 8.211740112304682 -8.218414688110357 8.211740112304682 -9.106277465820313 8.4925537109375 C-10.218012042701417 8.845185290197676 -11.327731891134135 9.2037335686244 -12.4375 9.5625 C-13.19453585095485 9.8037798754915 -13.951696227520358 10.044669411202179 -14.708984375 10.28515625 C-20.99381321876669 12.281432662587449 -20.849221135262667 12.761591324473102 -26.25 19.0625 C-26.25 27.0625 -26.25 27.0625 -23.875 30 C-23.6321728515625 30.30413818359375 -23.389345703125002 30.6082763671875 -23.13916015625 30.921630859375 C-20.97682749863958 33.55460955922365 -20.97682749863958 33.55460955922365 -19.25 34.0625 C-17.52343749999997 34.16015625 -17.52343749999997 34.16015625 -15.625 34.125 C-15.068125000000009 34.1146875 -15.068125000000009 34.1146875 -12.25 34.0625 C-6.095295497937116 29.95936366529142 -4.075967984720876 27.085700877113666 -2.60546875 20.32421875 C-2.417981373352262 19.36322409413222 -2.2369603007320222 18.400944782266833 -2.0625 17.4375 C-1.978872070312491 16.982702636718756 -1.8952441406250102 16.527905273437497 -1.80908203125 16.059326171875 C-1.3003760914923816 13.03826928447576 -1.1533740742955274 10.123146843254005 -1.25 7.0625 C-3.6995876403382226 6.929910682525673 -5.7377435145080256 7.402520572868994 -8.04296875 8.15625 Z " transform="translate(155.25,94.9375)" />
    <path d="M0 0 C1.3199999999999932 0.3300000000000125 2.6400000000000006 0.6599999999999966 4 1 C4.193359375 1.5426953125000011 4.38671875 2.0853906250000023 4.5859375 2.64453125 C4.848749250658074 3.3672635643096953 5.11178186199264 4.089915592297103 5.375 4.8125 C5.501328125000001 5.16892578125001 5.627656250000001 5.525351562499992 5.7578125 5.892578125 C5.88671875 6.243847656250011 6.015625 6.595117187499994 6.1484375 6.95703125 C6.206042480468753 7.116754150390619 6.206042480468753 7.116754150390619 6.49755859375 7.925048828125 C7.181948508284265 9.389270788131967 8.0837345017395 10.671911200174748 9 12 C9.236542968750001 12.004672851562503 9.236542968750001 12.004672851562503 10.43359375 12.0283203125 C28.584905861112105 12.448181738326127 28.584905861112105 12.448181738326127 34 17 C35.65655903268737 19.06502564348699 36.2832916500078 20.804559442895 36.8125 23.375 C37.72265741367755 26.8335981719747 39.19314152303883 28.523277993975597 41.82421875 30.8671875 C43.44035513855822 32.42426242585344 44.16013472303915 33.93851250200515 45 36 C44.56685580639095 40.05787718223215 44.116769232703234 43.47205127882796 42 47 C25.114185866407027 57.13148848015578 2.6920739836559022 50 -17 50 C-24.34356894553882 45.5938586326767 -24.34356894553882 45.5938586326767 -25.40234375 41.41015625 C-26.430372422939328 35.4250578116546 -25.644029661791933 36.288059323583866 -22 29 C-20.35 28.00999999999999 -18.700000000000003 27.02000000000001 -17 26 C-16.95681640625 25.607480468749998 -16.95681640625 25.607480468749998 -16.73828125 23.62109375 C-15.816563987319768 16.316018929490156 -14.704463674775283 10.756733608682083 -8.79052734375 6.0341796875 C-5.94623876666806 3.89086794576005 -3.007513530747943 1.9060718941596235 0 0 Z M-3 10 C-9.759390184332986 18.27724503175051 -9.759390184332986 18.27724503175051 -10 23 C-9.711250000000007 23.554296875000006 -9.4225 24.10859375000001 -9.125 24.6796875 C-8.74978850593017 25.41134991343617 -8.374800128593932 26.143126775921303 -8 26.875 C-7.809218749999999 27.239804687499998 -7.618437499999999 27.604609374999995 -7.421875 27.98046875 C-7.241406249999997 28.3349609375 -7.060937499999994 28.689453125 -6.875 29.0546875 C-6.707421874999994 29.379370117187506 -6.539843750000003 29.70405273437501 -6.3671875 30.03857421875 C-6 31 -6 31 -6 33 C-8.969999999999999 33 -11.939999999999998 33 -15 33 C-16.32 33.99000000000001 -17.64 34.98000000000002 -19 36 C-18 41 -18 41 -14 44 C33 44 33 44 38 41 C38 39.349999999999994 38 37.69999999999999 38 36 C36 34 36 34 24 33 C25 28 25 28 29 25 C28 21 28 21 27.215576171875 20.51318359375 C25.62346795867859 19.84103829064921 24.277541214943483 19.83835327810104 22.55078125 19.7890625 C21.860004457618118 19.76094196100101 21.169249643397677 19.732277314405536 20.478515625 19.703125 C19.40374644666163 19.662338638590285 18.329363928970622 19.625420139406884 17.254150390625 19.5986328125 C11.797341029797423 19.451323088074588 7.926540274776215 18.414844118959763 3 16 C1.6800000000000068 14.02000000000001 0.35999999999999943 12.039999999999992 -1 10 C-1.6599999999999966 10 -2.319999999999993 10 -3 10 Z " transform="translate(78,184)" />
  </g>
</svg>