<svg color="#2C3440" xmlns="http://www.w3.org/2000/svg" viewBox="0 0 358 274" width="358" height="274">
  <g fill="currentColor" transform="scale(0.50000000, 0.50000000)">
    <path d="M0 0 C2.292306776155783 -0.026033214922300374 4.58463544397182 -0.04407757133554924 6.877028286457062 -0.060612261295318604 C7.922762162167032 -0.07005530091179679 8.968471998355767 -0.08303061289339553 10.014109671115875 -0.1000707745552063 C16.475845270753325 -0.20393969905056508 22.274916969501305 0.3522430717650735 28.518706738948822 2.061366379261017 C29.570702814264337 3.787629310488086 29.644823028828455 5.141494273496143 29.647507905960083 7.145197689533234 C29.650780099928397 7.783567261695865 29.65405229389671 8.421936833858489 29.65742364525795 9.079650938510895 C29.656013513820653 9.790981294811601 29.654511497495946 10.502311473624374 29.652927815914154 11.213641464710236 C29.654880367868373 11.970157463773987 29.657269067909056 12.726672441532756 29.66005578637123 13.483185827732086 C29.66647118125138 15.574431715669704 29.666616188398848 17.66563926401807 29.665778377093375 19.75689312070608 C29.665947577875954 22.027459934988116 29.671850374908104 24.298012885510232 29.677019238471985 26.56857281923294 C29.68635791471786 31.07768277415866 29.690269422888832 35.58678290867202 29.692538204370067 40.095901327207685 C29.69549707183296 45.494864258424556 29.704192740618737 50.8938141151653 29.71295248437673 56.29277019947767 C29.733813042379893 69.34534232172332 29.744270004868667 82.3979167304312 29.75308209238574 95.45050163939595 C29.757287116192174 101.62514456076713 29.762509365026403 107.79978650623633 29.767766621429473 113.97442860528827 C29.785660003909243 135.1091973506518 29.800655359520306 156.24396637229012 29.808086812496185 177.37874156236649 C29.808561570858274 178.70604816119564 29.809037459478986 180.033354759621 29.809514474123716 181.36066135764122 C29.809632662237846 181.68977668936364 29.809632662237846 181.68977668936364 29.810230765724555 183.3552997317165 C29.811311622282005 186.35613058619833 29.812400896754184 189.3569614373813 29.8135049456032 192.35779228340834 C29.81375018049266 193.02613921754528 29.813994036351232 193.69448615218965 29.81423651415389 194.36283308733255 C29.822021721383408 215.81529277322278 29.84439329439965 237.26769767036183 29.87691294227261 258.7201334191486 C29.911782467248145 281.7304881423878 29.932390491721094 304.74080824394804 29.935731053352356 327.75119000673294 C29.93614859252193 330.24134667070564 29.93662815563721 332.7315033150252 29.937154233455658 335.2216599583626 C29.93727742512249 335.8348115409538 29.937400616789205 336.44796312354504 29.937527541536838 337.0796950571239 C29.939858702285846 346.9431687827525 29.95551423291988 356.80657822712465 29.975996079854667 366.6700290516019 C29.996264649681848 376.5882948813121 30.001726568797267 386.50648359796077 29.99222544580698 396.42476630210876 C29.98701408801412 402.3149455736713 29.992870258318476 408.20486789907943 30.014760117279366 414.0950101297349 C30.028290166235365 418.033923931054 30.027171990257898 421.97266130851125 30.014358159853145 425.9115769583732 C30.007475649678895 428.15321279460426 30.006741023389054 430.3943582556869 30.023918248713017 432.6359498500824 C30.103044427063764 443.6414368006973 29.904111854418034 454.18890317140625 21.995269238948822 462.752772629261 C20.292648442460177 464.26170904942956 18.548633763398925 465.5709594619419 16.643706738948822 466.811366379261 C16.49208076238631 466.9108256077766 16.49208076238631 466.9108256077766 15.724761426448822 467.414149582386 C9.309522576837253 471.26428391772185 2.5297551563973 471.3514506218946 -4.697941362857819 471.31863528490067 C-5.727735773433665 471.32133198787824 -6.757528198486739 471.3249016968881 -7.787316918373108 471.32925975322723 C-10.614054019038917 471.3386905645789 -13.440661786816918 471.3357260092748 -16.26740512624383 471.3307042103261 C-19.34393512436543 471.3274319927648 -22.42043780111885 471.33572476150096 -25.496959030628204 471.34252256155014 C-30.888090824885353 471.3528236060072 -36.279175305288845 471.3557357828639 -41.67031341791153 471.35361033678055 C-47.45324795520355 471.35135916276874 -53.236156763051554 471.3534374723765 -59.01908737421036 471.36075526475906 C-59.38475737939359 471.3612145709002 -59.75042738457671 471.3616738770413 -60.12717829900794 471.36214710155036 C-61.61657787086733 471.36403044505903 -63.105977403185875 471.36594182758176 -64.59537689236458 471.3678894827026 C-80.12235270808128 471.38816395527624 -95.6493140827165 471.3943009278454 -111.17630162835121 471.395473703742 C-112.84693046465759 471.395603201983 -114.5175593002864 471.39573908067996 -116.18818813562393 471.3958805203438 C-116.39548028436604 471.3958975248278 -116.39548028436604 471.3958975248278 -117.44450418860652 471.39598357782234 C-126.63684475211153 471.39680093422305 -135.82918256193932 471.40118220669365 -145.0215216644574 471.40619220992085 C-148.80812944922945 471.4082489631544 -152.59473727588033 471.41022904255954 -156.38134509325027 471.41222470998764 C-156.79974957531203 471.4124458886781 -157.21815405737374 471.41266706736883 -157.64923746313434 471.41289494844386 C-181.62225355231658 471.4255411318368 -205.59526784121755 471.43379339472665 -229.56828743219376 471.4328778386116 C-230.4652162212849 471.4328462819683 -231.36214501037898 471.4328148098365 -232.25907379947603 471.4327834220603 C-236.30851637397143 471.43263665773225 -240.35795894707792 471.43246031901776 -244.40740152000217 471.4322756532638 C-246.2131026296194 471.432193406009 -248.0188037393213 471.43211311227947 -249.8245048490353 471.4320330263581 C-250.72829024390768 471.431992236003 -251.63207563872447 471.43195019596374 -252.53586103348061 471.4319069071207 C-281.11095465321944 471.4305465907605 -309.6859986928481 471.4451788673232 -338.2610784173012 471.472987473011 C-345.4602270847528 471.47998972337587 -352.659375798189 471.48692873506934 -359.85852485895157 471.493516266346 C-360.0801759379601 471.49371914034646 -360.0801759379601 471.49371914034646 -361.2018647317309 471.49474580574315 C-374.8690414984679 471.5071794871035 -388.5362141935077 471.5147076421292 -402.20339637994766 471.51723223924637 C-402.63261378315974 471.5173121407686 -403.0618311863718 471.5173920422909 -403.5040551775601 471.5174743650714 C-412.9273096689135 471.5191810732016 -422.3505639056694 471.5197032544753 -431.7738185239723 471.51913361257175 C-435.1458019932969 471.5189406504592 -438.5177854651199 471.5188365582553 -441.88976893923245 471.51877615379635 C-442.72860661026994 471.51876032542157 -443.56744428123363 471.51873991567095 -444.4062819520477 471.51871490699705 C-457.761026905683 471.5183625582828 -471.1157293622384 471.5297462013002 -484.47046214016154 471.54702253849246 C-497.9248050456535 471.56433924241264 -511.3790891793536 471.56869053310675 -524.8334385504713 471.5554998947191 C-526.6949238991544 471.5536754495763 -528.5564093497244 471.5519888561969 -530.4178948998451 471.5503838658333 C-530.7827761833487 471.5500636912102 -531.1476574668521 471.5497435165871 -531.5235957589466 471.54941363970283 C-537.2878576655779 471.54471808360154 -543.0520175172298 471.55339842550427 -548.8162602448137 471.56772623973666 C-554.4922201541192 471.58155210650614 -560.1679914775534 471.58063601598815 -565.8439622735605 471.56534196669236 C-568.8769299851717 471.5575778925885 -571.9095376045984 471.55602949283264 -574.9424799382687 471.5722566694021 C-577.7074361134682 471.58692009519154 -580.4717356932151 471.5828207096241 -583.2366636618972 471.5644089356065 C-584.2251352320959 471.56099566856733 -585.2136595702721 471.56412622338826 -586.2020770981908 471.5750113502145 C-595.0527085399359 471.665870846708 -604.8432310793692 469.7843793093948 -611.4187932610512 463.373866379261 C-611.6005510735512 463.2051603245735 -611.6005510735512 463.2051603245735 -612.5203557610512 462.351405441761 C-616.0447906781166 458.8746839937894 -618.0986513589802 454.7807307906651 -619.4812932610512 450.061366379261 C-619.6507243937253 449.5301024484634 -619.8201555263996 448.9988385176659 -619.9947209358215 448.4514756798744 C-620.7847985750816 445.24086081297446 -620.617088526413 441.95107237359474 -620.6043410897255 438.66629725694656 C-620.605081280707 437.90783556515646 -620.6062604540896 437.1493741977397 -620.607837587595 436.39091378450394 C-620.6109041547097 434.3036490728307 -620.6077335478124 432.216433129059 -620.6035594539717 430.1291720531881 C-620.6001236844239 427.8596057438593 -620.602496352522 425.59004435531347 -620.6041369438171 423.3204770684242 C-620.6062108446066 419.3418499434796 -620.6045666248393 415.3632377699426 -620.6004987359047 411.3846123814583 C-620.5944667159467 405.4685327068996 -620.5941626539983 399.55246247035194 -620.5950407246128 393.63638028129935 C-620.5963550811351 383.6848667488688 -620.5930114813033 373.7333598527288 -620.5870233178139 363.7818482518196 C-620.5811085260174 353.9270352960129 -620.577257821953 344.07222510351346 -620.5761705040932 334.2174103856087 C-620.5761017644545 333.60492006750775 -620.5760330248158 332.9924297494069 -620.5759622021578 332.36137911863625 C-620.5756238741482 329.2509151039216 -620.5753224885353 326.14045108679204 -620.5750353261828 323.0299870669842 C-620.5729343000472 300.9922678724077 -620.5661952242269 278.9545522892089 -620.5567327141762 256.916835129261 C-620.5544418319186 251.57532309848654 -620.5521656820382 246.2338110622723 -620.5499578118324 240.89229899644852 C-620.5498208626528 240.56101667191604 -620.5496839134732 240.2297343473835 -620.5495428143186 239.8884131645318 C-620.5431984072003 224.48713211822133 -620.5394730383783 209.08585076229224 -620.5364230166888 193.68456875206903 C-620.536224952902 192.68467186033408 -620.5360256453737 191.68477496884574 -620.5358263375238 190.684878077358 C-620.5345078300987 184.05849379752937 -620.5332320141738 177.43210951004605 -620.5319874782581 170.80572521593422 C-620.5294511898474 157.30673071365447 -620.5266299374905 143.80773627587956 -620.5236364006996 130.30874186754227 C-620.5234991107416 129.68806492332368 -620.5233618207835 129.06738797910512 -620.5232203705236 128.4279026426375 C-620.4956180158395 4.082853511443446 -620.4956180158395 4.082853511443446 -618.4812932610512 1.0613663792610168 C-596.9352339299683 0.9925208914221528 -575.3891874171476 0.9397469559101452 -553.8430396541953 0.9081703908741474 C-551.2924443229388 0.9044188051510673 -548.7418492075909 0.9005357862060137 -546.1912541985512 0.8965714573860168 C-545.6835314185918 0.8957845260947934 -545.1758086386324 0.89499759480357 -544.6527003198862 0.8941868171095848 C-536.4593355319352 0.881175171552492 -528.2660346601614 0.8575450725952649 -520.0727076381445 0.8299079909920692 C-511.6495315909479 0.8017350862833581 -503.22638874294114 0.7851651785521483 -494.8031675219536 0.7791008949279785 C-489.6163006689286 0.7750089022033748 -484.4296145513464 0.7621420357523121 -479.2428034096956 0.7376169785857201 C-475.67360881516015 0.721612516638352 -472.1045060154122 0.716998747094209 -468.5352782458067 0.7208622470498085 C-466.4838504602555 0.7227613373477411 -464.4327357246672 0.7201018565039377 -462.3813653588295 0.70374995470047 C-449.64692975817576 0.6073280668144747 -437.64465761323106 1.7838166609219286 -425.7937932610512 6.936366379261017 C-425.23369560480114 7.167108566761016 -424.6735979485512 7.397850754261015 -424.0965276360512 7.635585129261017 C-421.354919746684 8.778685854593597 -418.6501536523276 9.975594755894761 -415.9676213860512 11.250087082386017 C-409.556069029696 14.278321148641382 -403.1799654473485 16.588249501866045 -396.3562932610512 18.498866379261017 C-395.84750633478166 18.643775131702427 -395.33871940851213 18.788683884143836 -394.81451469659805 18.937983810901642 C-374.5915757613166 24.694975562458723 -354.3229430922799 29.21991568307098 -333.4812932610512 32.06136637926102 C-333.2970076775551 32.087409470081326 -333.2970076775551 32.087409470081326 -332.3644109368324 32.21920329332352 C-324.5750593000675 33.302757825182454 -316.70755347825616 33.45625093148202 -308.8562932610512 33.68636637926102 C-308.49197448968886 33.697120735645285 -308.1276557183266 33.70787509202958 -307.7522969841957 33.71895533800125 C-263.03103535897395 35.020887694160535 -211.21163918008006 30.748618239728728 -168.41879326105118 8.436366379261017 C-159.2087259240928 3.546806720262154 -148.09769195502668 0.9234115503214682 -137.68898063898087 0.9031479954719543 C-137.1379630094766 0.8982100182771688 -136.58694537997246 0.8932720410823833 -136.01923024654388 0.8881844282150269 C-134.1891231606843 0.8729375610951422 -132.3590508333216 0.8644827454980444 -130.52890068292618 0.8560441136360168 C-129.208985074481 0.8464527176827872 -127.88907730879464 0.8364823799640106 -126.56916862726212 0.8260453343391418 C-123.3611788646698 0.8015376753565704 -120.15317759997856 0.7820787195156669 -116.94514431804419 0.7642925903201103 C-113.18379190501128 0.7432139869377963 -109.4224824196956 0.7167889791874558 -105.66116616874933 0.6901211217045784 C-98.92146188821027 0.6424917336335483 -92.18173677483264 0.5992554386065052 -85.44198662042618 0.5586808323860168 C-78.9605220171311 0.5196538258640615 -72.47907980150774 0.47822391426095123 -65.99765068292618 0.43368083238601685 C-65.60115671359006 0.430956560298803 -65.20466274425382 0.4282322882115821 -64.79615380614996 0.4254254624247551 C-63.200432409554764 0.4144546992600837 -61.6047110706171 0.40347560390711834 -60.008989822119474 0.39248332008719444 C-53.012463317697666 0.34434484792325293 -46.01592376943859 0.2981431701984363 -39.01938185095787 0.25230690836906433 C-37.907843431583956 0.2450164141323654 -36.79630523581011 0.23769255696771552 -35.684767067432404 0.2303639054298401 C-33.52320879018964 0.21613675494408824 -31.36164938384445 0.20209128829426248 -29.200089037418365 0.18818217515945435 C-28.850274970457008 0.185926008448007 -28.500460903495537 0.18366984173655254 -28.140046410262585 0.18134530633687973 C-22.455524278028406 0.1449038169485135 -16.77099485023109 0.11731619706912966 -11.086406826972961 0.09293997287750244 C-7.390704621149439 0.07559818255271722 -3.695476632859368 0.04418366441275623 0 0 Z M-610.4812932610512 10.061366379261017 C-610.4812932610512 17.321366379261022 -610.4812932610512 24.581366379261027 -610.4812932610512 32.06136637926102 C-608.6425934948871 32.98071626234301 -608.11890374379 33.18609612218805 -606.2095094323158 33.18162089586258 C-605.7535531008243 33.182995245456695 -605.2975967693329 33.18436959505081 -604.8278235793114 33.185785591602325 C-604.3286330640316 33.18219063043594 -603.8294425487518 33.178595669269555 -603.3151250481606 33.17489176988602 C-602.7831537616253 33.17504062891007 -602.25118247509 33.17518948793412 -601.7030908465385 33.17534285783768 C-599.913460962839 33.17464631778202 -598.1239327292365 33.16679381823968 -596.3343206048012 33.15902262926102 C-595.0527863618399 33.157103732971606 -593.7712513683987 33.1556398016144 -592.4897161126137 33.15459758043289 C-589.7221778899808 33.1514294487954 -586.9546715516088 33.14525858731844 -584.1871457695961 33.13653117418289 C-580.1596449369197 33.123929705647214 -576.132153875096 33.1178876832042 -572.1046365648508 33.1135978102684 C-565.5356823931024 33.106519695416935 -558.966740417118 33.09572251913076 -552.3977971673012 33.08187419176102 C-552.004481241256 33.081046379804604 -551.6111653152109 33.080218567848206 -551.20593072474 33.079365670681 C-547.6334925801272 33.07181282176151 -544.0610549718543 33.06401782219879 -540.4886174798012 33.056163132190704 C-538.1367295969411 33.05099677841369 -535.7848415841845 33.04589398040764 -533.4329534173012 33.04085856676102 C-533.0467911331356 33.04003044009208 -532.66062884897 33.03920231342316 -532.2627646774054 33.03834909200668 C-525.7446776669385 33.02449802713518 -519.2265904538887 33.01482386104665 -512.7084924578667 33.007948219776154 C-509.0636263261323 33.00392986006878 -505.41878826269283 32.99781217968457 -501.7739377617836 32.98620158433914 C-488.1596802890628 32.94342364024388 -474.55757801494 32.94224446785104 -460.9524846673012 33.51449137926102 C-460.46152329444885 33.534823696613316 -459.9705619215965 33.555156013965615 -459.46472293138504 33.57610446214676 C-440.15758188797565 34.40193439644463 -421.70348265711544 39.14109673861337 -404.4812932610512 48.06136637926102 C-403.49129326105117 47.73136637926102 -402.50129326105116 47.40136637926102 -401.4812932610512 47.06136637926102 C-411.33512459477424 30.675085892077405 -420.3360264661776 17.4043546425238 -439.9148870110512 12.409022629261017 C-450.9604486542304 9.891946347021872 -462.37388786449424 9.911437759986143 -473.6400721669197 9.94530075788498 C-475.4844588612999 9.949700580028363 -477.32884308831797 9.948152224118772 -479.17323356866837 9.947398483753204 C-482.353710499283 9.946879167192037 -485.5341666001865 9.949963253382549 -488.71463829278946 9.955636322498322 C-493.312820012873 9.963832760232492 -497.9109918668363 9.966374794277101 -502.50918009877205 9.967624314129353 C-509.97303469706924 9.969802178697108 -517.4368782424817 9.976427613733094 -524.9007268548012 9.985926926136017 C-532.1425882795392 9.995134014797841 -539.3844466806688 10.00219863625712 -546.6263127923012 10.006434738636017 C-547.0741964426636 10.00669746212661 -547.5220800930261 10.006960185617203 -547.9835359752178 10.007230870425701 C-550.2308831027318 10.008536096217014 -552.4782302513313 10.009799759142993 -554.7255774140358 10.011042773723602 C-573.310824142165 10.021375909515555 -591.896057105445 10.039238469821868 -610.4812932610512 10.061366379261017 Z M-173.18051201105118 24.569178879261017 C-173.60976982355118 25.061600754261008 -174.03902763605117 25.554022629261013 -174.48129326105118 26.061366379261017 C-175.09024995556558 26.706224507197135 -175.7010882859879 27.34930855151839 -176.31332451105118 27.991053879261017 C-181.51890365633602 33.53719671953664 -185.5988393328593 39.53362305586643 -189.48129326105118 46.06136637926102 C-189.1512932610512 47.051366379261026 -188.82129326105115 48.04136637926101 -188.48129326105118 49.06136637926102 C-188.29075371026994 48.968433029651635 -188.29075371026994 48.968433029651635 -187.32650810480118 48.49813395738602 C-175.85522024585646 42.93728407655607 -164.41599940215178 37.89452243611625 -151.85629326105118 35.31136637926102 C-151.29555107355122 35.195673019886016 -150.73480888605116 35.079979660511015 -150.15707451105118 34.96078044176102 C-139.62427444772118 32.98737997431479 -128.91694188533893 32.913421496107205 -118.23797136545181 32.94530075788498 C-116.38131461142416 32.949699883249366 -114.52466031769382 32.94815227098097 -112.66799980401993 32.947398483753204 C-109.4662420077724 32.94687912511874 -106.26450490017544 32.94996366560372 -103.06275230646133 32.95563632249832 C-98.43380150347741 32.96383216917587 -93.8048605015415 32.96637473538482 -89.17590323090553 32.96762431412935 C-81.66213437038834 32.96980226904306 -74.14837648829325 32.976427955159224 -66.63461357355118 32.98592692613602 C-59.34424954097892 32.995133776835345 -52.053888511464834 33.00219851623447 -44.76351982355118 33.00643473863602 C-44.312649177610865 33.00669746212661 -43.86177853167055 33.0069601856172 -43.39724513888359 33.0072308704257 C-41.134913939989815 33.00853609463117 -38.87258272015106 33.00979975793712 -36.61025148630142 33.0110427737236 C-17.900591001425823 33.02137619200586 0.809057006880721 33.038959914746385 19.518706738948822 33.06136637926102 C19.848706738948863 32.73136637926102 20.17870673894879 32.40136637926102 20.518706738948822 32.06136637926102 C20.518706738948822 25.13136637926101 20.518706738948822 18.201366379261017 20.518706738948822 11.061366379261017 C13.462726985217387 4.005386625529653 -28.59691749134572 9.970510859601944 -39.05569587275386 9.959235720336437 C-41.367239491210285 9.95673467609285 -43.67878300376469 9.954145995537147 -45.99032646417618 9.951503098011017 C-46.4504617182165 9.950978477150201 -46.91059697225694 9.950453856289386 -47.38467571884394 9.949913337826729 C-54.80918216031125 9.941239939500619 -62.23365723903589 9.925487104646777 -69.65814515203238 9.907060787081718 C-77.29143973525981 9.88827598951832 -84.92471803300418 9.877231641608176 -92.5580347776413 9.873189389705658 C-97.25811936843388 9.870461997256797 -101.95811527315607 9.861887295558006 -106.65817252546549 9.845533445477486 C-109.89282226037858 9.834860279010087 -113.12742698086822 9.831788752309905 -116.3620929941535 9.834363624453545 C-118.22093366098511 9.835629114920522 -120.07962076082117 9.833862991280313 -121.93843322992325 9.822955429553986 C-138.84483756273028 9.728937784494647 -160.93418339401575 11.018258553881594 -173.18051201105118 24.569178879261017 Z M-401.4812932610512 28.061366379261017 C-401.27560722589493 28.46226481676102 -401.0699211907387 28.863163254261025 -400.8580022454262 29.276210129261017 C-399.8734505813006 31.202186437015484 -398.8942398270358 33.13076534385178 -397.9187932610512 35.06136637926102 C-397.73999626398086 35.41507304430007 -397.56119926691053 35.76877970933914 -397.3769841790199 36.13320475816727 C-394.2574177431708 42.32530899012923 -391.4123744548456 48.60914214104453 -388.7408147454262 55.00667887926102 C-388.6031116509438 55.331613266468054 -388.46540855646134 55.65654765367508 -388.323532640934 55.99132853746414 C-387.95319552578064 56.865770020066975 -387.5883661538765 57.74253842383773 -387.2239690423012 58.61947184801102 C-386.0428396222542 60.912617921251496 -385.1066700999895 61.81899261385831 -382.6790471673012 62.75985270738602 C-381.9408472654633 62.97859115484498 -381.2002146539749 63.1892190859042 -380.4578557610512 63.39339762926102 C-380.04856834650036 63.51029948472976 -379.6392809319496 63.627201340198525 -379.21759086847305 63.74764567613602 C-377.84967105606796 64.13289097964127 -376.4786696516164 64.50482671080236 -375.1062932610512 64.87386637926102 C-374.6308708977699 65.00320567369461 -374.15544853448864 65.1325449681282 -373.6656194329262 65.26580363512039 C-365.18238308482375 67.55349088214612 -356.6258003578557 69.31629356648068 -347.9812932610512 70.87386637926102 C-347.6957357048988 70.9263000035286 -347.6957357048988 70.9263000035286 -346.2506414055824 71.19164592027664 C-337.677696632187 72.75020894550792 -329.17868311562785 73.59777160771804 -320.4812932610512 74.06136637926102 C-320.4812932610512 75.71136637926102 -320.4812932610512 77.36136637926103 -320.4812932610512 79.06136637926102 C-322.1447572265002 80.72483034471003 -324.8378696355637 80.24172015583775 -327.1165471673012 80.26131755113602 C-339.8262694701885 80.10065551166912 -352.6057085964054 77.45575136790373 -364.9187932610512 74.49886637926102 C-365.35922966241833 74.39313304185868 -365.79966606378554 74.28739970445633 -366.2534490227699 74.17846232652664 C-371.0727087803487 73.01003004838357 -375.8122046142179 71.7438261792327 -380.4812932610512 70.06136637926102 C-380.4812932610512 75.06136637926102 -380.4812932610512 75.06136637926102 -375.4812932610512 83.06136637926102 C-363.56350981582835 86.19061678107931 -351.5805482260938 88.738608173009 -339.4812932610512 91.06136637926102 C-339.4812932610512 92.71136637926102 -339.4812932610512 94.36136637926103 -339.4812932610512 96.06136637926102 C-346.00983274461515 96.40693334176655 -351.93007699894713 95.35452305728808 -358.2937932610512 93.99886637926102 C-360.15277442443556 93.60330467213171 -362.0134620572275 93.21799203559414 -363.8758245110512 92.83871012926102 C-364.08520904779436 92.79238192796709 -364.08520904779436 92.79238192796709 -365.144821703434 92.55793315172195 C-367.5752192813991 92.06395949080974 -369.14217187821134 92.00275494980662 -371.4812932610512 93.06136637926102 C-369.8819270449666 96.55705538274339 -368.2623983296455 100.04287739974026 -366.6289983391762 103.52279216051102 C-366.07653882476336 104.70587266404453 -365.52860580391103 105.89107849486973 -364.9854436516762 107.07845622301102 C-364.200519163731 108.79219603078866 -363.3992321959197 110.4974441450897 -362.5945745110512 112.20199137926102 C-362.3578955864906 112.72819072008133 -362.1212166619301 113.25439006090164 -361.8773656487465 113.79653483629227 C-359.9485436723975 117.81881111587555 -357.3501852346777 120.86175203387126 -353.15113884210587 122.6175644993782 C-351.8122581820702 123.04977352285044 -350.48599307532226 123.34819890484937 -349.1062932610512 123.62386637926102 C-348.56520927667617 123.73972087144853 -348.02412529230116 123.85557536363604 -347.4666448235512 123.97494059801102 C-334.08734663155917 126.67033734031335 -320.34103846987546 128.2356535326856 -306.7088323235512 128.77083903551102 C-303.4880373553971 128.90388251746975 -300.5681454308685 129.10795887364657 -297.4812932610512 130.06136637926102 C-297.81129326105116 131.71136637926102 -298.14129326105115 133.36136637926103 -298.4812932610512 135.06136637926102 C-305.3162174005183 136.77483511570324 -312.09438899944126 135.56284933220732 -318.9812932610512 134.74886637926102 C-320.2387119049387 134.60657824541903 -321.4961994224434 134.46489747216214 -322.7537541985512 134.32381755113602 C-331.34376212667587 133.35098890416737 -339.9264047002128 132.3087676694147 -348.4812932610512 131.06136637926102 C-347.90623265990007 134.9098488638876 -346.13879374742845 137.04967002361894 -343.5437932610512 139.87386637926102 C-343.1448284173012 140.31110026597975 -342.74586357355116 140.74833415269853 -342.3348088860512 141.19881755113602 C-338.1945489376145 145.58778285028552 -333.5931695545825 148.90189970290265 -328.4812932610512 152.06136637926102 C-328.11568290948867 152.296942551136 -327.75007255792616 152.53251872301104 -327.3733831048012 152.77523356676102 C-324.8287465105637 154.40650037294344 -322.23018314215915 155.80479279867586 -319.4812932610512 157.06136637926102 C-319.0510686516762 157.25891520738602 -318.6208440423012 157.456464035511 -318.1775823235512 157.65999919176102 C-305.428209500895 163.1886484427496 -286.8634991700238 163.50192068789337 -273.8377385735512 158.61361247301102 C-265.9888306571237 155.41810676621495 -259.00604432408954 151.47307167272223 -252.48129326105118 146.06136637926102 C-252.48129326105118 145.40136637926102 -252.48129326105118 144.74136637926102 -252.48129326105118 144.06136637926102 C-251.89734794855121 143.819022629261 -251.31340263605114 143.576678879261 -250.71176201105118 143.32699137926102 C-248.09276864286528 142.00656784536667 -246.5625389371894 140.10435368621347 -244.79379326105118 137.81136637926102 C-244.45928154230114 137.38678141832352 -244.12476982355122 136.96219645738603 -243.78012138605118 136.52474528551102 C-239.2654589733421 130.66108844101183 -235.3804719780461 124.34307399106785 -231.48129326105118 118.06136637926102 C-231.81129326105122 117.07136637926101 -232.14129326105115 116.081366379261 -232.48129326105118 115.06136637926102 C-232.76039039850235 115.11956553697587 -233.03948753595353 115.17776469469072 -233.32704216241837 115.23772746324539 C-245.62739641721572 117.79293883240203 -257.8980692357409 120.26783680215806 -270.4187932610512 121.43636637926102 C-270.6404868340492 121.45798838853835 -270.6404868340492 121.45798838853835 -271.76239067316055 121.56740885972977 C-273.01056223040246 121.68627122676662 -274.2590496224116 121.79450477278647 -275.5086370110512 121.89730387926102 C-275.6893172478676 121.91381999254227 -275.6893172478676 121.91381999254227 -276.6036687493324 121.99740153551102 C-278.7981824783735 122.15468616041989 -280.4458966260597 121.8910872622593 -282.4812932610512 121.06136637926102 C-282.81129326105116 119.41136637926101 -283.14129326105115 117.761366379261 -283.4812932610512 116.06136637926102 C-283.11005836725235 116.0201365208626 -282.7388234734535 115.97890666246414 -282.35633903741837 115.93642741441727 C-250.60715571917115 112.39527348929533 -250.60715571917115 112.39527348929533 -239.35629326105118 109.99886637926102 C-239.17326149225232 109.96098002672196 -239.17326149225232 109.96098002672196 -238.24700981378555 109.76925212144852 C-233.37752710764005 108.74544571374264 -228.97705391131382 107.1692463727376 -224.48129326105118 105.06136637926102 C-223.27132182769043 102.52096860992262 -222.06291511323707 99.97983397532096 -220.85580497980118 97.43807536363602 C-220.44702952368016 96.5778571148872 -220.0378649858668 95.71782362345891 -219.62826591730118 94.85799723863602 C-218.23422874281835 91.93120420277458 -216.85359555948372 88.99840713003312 -215.48129326105118 86.06136637926102 C-215.28366386651993 85.6415146946907 -215.08603447198868 85.22166301012038 -214.88241630792618 84.78908854722977 C-214.31021208165396 83.56880803781195 -213.7462018587238 82.34506687659177 -213.18441826105118 81.11996012926102 C-213.01198601007462 80.75475764513016 -212.83955375909807 80.3895551609993 -212.66189628839493 80.01328593492508 C-211.72357602775276 77.94054096293885 -211.28270445618466 76.38658621605862 -211.48129326105118 74.06136637926102 C-216.65126779502077 74.92682467129117 -221.7917406716116 75.88564040913948 -226.90316826105118 77.04964762926102 C-227.28941368341447 77.13731395006181 -227.67565910577775 77.22498027086257 -228.0736089348793 77.31530314683914 C-229.99952330021472 77.75369715797837 -231.92365862670363 78.19855681615235 -233.84603935480118 78.65218669176102 C-239.0343208214922 79.85522705722096 -244.17836577409935 80.57921102125198 -249.48129326105118 81.06136637926102 C-250.4712932610512 80.40136637926102 -251.4612932610512 79.74136637926102 -252.48129326105118 79.06136637926102 C-252.15129326105114 77.74136637926102 -251.8212932610512 76.42136637926103 -251.48129326105118 75.06136637926102 C-250.84328788995742 74.93084880113602 -250.20528251886367 74.80033122301103 -249.54794365167618 74.66585856676102 C-228.11759016015628 70.27436155802536 -228.11759016015628 70.27436155802536 -218.80352836847305 68.12130290269852 C-218.09601929586415 67.95803312724063 -217.38811713671788 67.79645628382295 -216.6798101067543 67.63668376207352 C-213.0186341887445 66.80785417174239 -209.74833017724472 65.93413754081642 -206.48129326105118 64.06136637926102 C-205.80851853496745 62.60577531631118 -205.14417061381346 61.146488115750884 -204.48129326105118 59.68636637926102 C-204.2905120110512 59.27386637926102 -204.0997307610512 58.861366379261014 -203.90316826105118 58.43636637926102 C-203.7226995110512 58.03675700426102 -203.5422307610512 57.63714762926102 -203.35629326105118 57.22542887926102 C-203.2725041985512 57.04214030504227 -203.2725041985512 57.04214030504227 -202.84848076105118 56.11458903551102 C-202.48129326105118 55.06136637926102 -202.48129326105118 55.06136637926102 -202.48129326105118 53.06136637926102 C-207.8346895084946 54.22393160716645 -213.17063335154563 55.45293498346257 -218.50082451105118 56.71761637926102 C-220.11133161709142 57.098445239645585 -221.7218563211295 57.479199506092556 -223.33239990472794 57.859874069690704 C-224.97305507951228 58.247937931139774 -226.6133591397877 58.63739025945435 -228.25302177667618 59.02962809801102 C-236.62242113255877 61.0301333189083 -244.96492102673432 62.81403822369309 -253.48129326105118 64.06136637926102 C-253.67496986627577 64.09035014390946 -253.67496986627577 64.09035014390946 -254.65509086847305 64.23702555894852 C-257.1132294675971 64.60065029902859 -259.57401322165714 64.91324517439449 -262.0437932610512 65.18636637926102 C-262.42016929864883 65.22872416734695 -262.7965453362465 65.27108195543289 -263.1843267083168 65.31472331285477 C-275.22468493728377 66.6209113214702 -287.3907049897108 66.24273445680447 -299.4812932610512 66.06136637926102 C-299.64629326105114 65.40136637926102 -299.64629326105114 65.40136637926102 -300.4812932610512 62.06136637926102 C-298.7352978931935 61.00838954731016 -297.2254871715521 60.87018768343228 -295.2068791985512 60.73592692613602 C-294.8805562996864 60.71284339189529 -294.55423340082166 60.689759857654565 -294.21802192926407 60.66597682237625 C-293.50782715789944 60.61609160484596 -292.7974995842832 60.568070029703435 -292.0870671868324 60.521691620349884 C-290.55100985620686 60.42086774080147 -289.0157757242783 60.3094436172145 -287.4804158806801 60.19857436418533 C-286.66464557174424 60.13969834829413 -285.84884374452383 60.081257614091186 -285.0330129265785 60.02322608232498 C-270.71554166397493 59.00302867951834 -256.6228703124325 57.76795508272299 -242.57211357355118 54.72396403551102 C-239.85874770160433 54.13715875660337 -237.13961259437428 53.5805985491243 -234.41897636651993 53.028779327869415 C-230.68405600166204 52.27115100321531 -226.95152096699712 51.50222752848018 -223.219772875309 50.729136765003204 C-222.12204333474006 50.50212353412705 -221.0240384346751 50.27648179531916 -219.92599540948868 50.05099040269852 C-199.61940929745003 45.86808096980937 -199.61940929745003 45.86808096980937 -193.21225029230118 36.18148356676102 C-189.48129326105118 30.46417199048345 -189.48129326105118 30.46417199048345 -189.48129326105118 28.061366379261017 C-194.8358173354511 28.612356714144738 -199.7761089233718 29.91577871450174 -204.92507988214493 31.415736496448517 C-234.0601191461202 39.83728942884932 -263.79161663139917 43.295647676063695 -294.0437932610512 43.31136637926102 C-294.4386026406288 43.31180823564529 -294.8334120202064 43.31225009202957 -295.24018532037735 43.31270533800125 C-328.1503634973001 43.33183693791807 -360.3782112392187 38.7570893407873 -392.0926824212074 29.95023661851883 C-395.19205004030783 29.104162264997 -398.2915580814811 28.468428040768174 -401.4812932610512 28.061366379261017 Z M-610.4812932610512 42.06136637926102 C-611.1533033400958 43.90017798985863 -611.6062863763368 45.43668231115183 -611.5635839104652 47.396251022815704 C-611.5565444207191 47.83791102647781 -611.5495049309731 48.27957103013992 -611.5422521233559 48.73461467027664 C-611.5293061089516 49.21006724596023 -611.5163600945473 49.68551982164382 -611.5030217766762 50.17538005113602 C-611.4934142327309 50.68300379991531 -611.4838066887855 51.19062754869461 -611.4739080071449 51.713633835315704 C-611.4410184561193 53.38567987247738 -611.4006488643397 55.05745632691294 -611.3601995110512 56.72933512926102 C-611.3358885229529 57.89089070677271 -611.3120454531968 59.05245616429873 -611.2886510491371 60.21403056383133 C-611.225907303143 63.26699665772543 -611.1568135149066 66.31978719527513 -611.0863958001137 69.37258464097977 C-611.0156243860513 72.48946721933766 -610.9508602010249 75.6064739795701 -610.8855901360512 78.72347575426102 C-610.75670307833 84.83624245423255 -610.6211071523843 90.94884052508746 -610.4812932610512 97.06136637926102 C-610.351510694027 97.15985361814501 -610.351510694027 97.15985361814501 -609.6947322487831 97.65825873613358 C-608.506477942863 98.56282484500525 -607.3218880926759 99.47207471066247 -606.1372991204262 100.38143473863602 C-605.9331274819374 100.53630728960036 -605.9331274819374 100.53630728960036 -604.8998952507973 101.32005625963211 C-601.6953720992599 103.78813809102303 -599.3911590468715 106.32504461773806 -597.0437932610512 109.62386637926102 C-592.9730730558176 114.98860254844618 -588.4705408629156 118.09800169942412 -582.4812932610512 121.06136637926102 C-572.3155533128482 121.06136637926102 -570.2956932389383 120.0377678555052 -563.4812932610512 114.06136637926102 C-562.2467600702955 112.80193085485422 -561.1069885056626 111.48073118303364 -559.9812932610512 110.12386637926102 C-548.9157044850768 96.8698366305735 -548.9157044850768 96.8698366305735 -541.4812932610512 96.06136637926102 C-541.1192278313637 96.02043864488601 -540.7571624016762 95.97951091051101 -540.3841252923012 95.93734294176102 C-533.8037969831705 95.29548907202718 -528.9611526247021 96.386673215381 -523.4812932610512 100.06136637926102 C-522.9708245110512 100.40038981676102 -522.4603557610512 100.73941325426102 -521.9344182610512 101.08871012926102 C-517.3158527715534 104.5774652436397 -514.005388216937 109.27300881589991 -510.4705510735512 113.79915934801102 C-500.7172798810551 126.24348611632416 -500.7172798810551 126.24348611632416 -494.4935002923012 127.21566325426102 C-489.00862491884504 127.65126594735875 -485.7775513794571 125.77546438392795 -481.6712346673012 122.39437419176102 C-478.4402728221892 119.55017573510622 -475.67586318598103 116.3947088079999 -473.1297307610512 112.92855387926102 C-473.027441637516 112.78939555406572 -473.027441637516 112.78939555406572 -472.5097966790199 112.08517009019852 C-472.3025194573403 111.80306681871414 -472.0952422356605 111.52096354722977 -471.8816838860512 111.23031169176102 C-467.4679809399767 105.22865914561021 -463.28209726363826 100.44279099749303 -456.4812932610512 97.06136637926102 C-455.97211357355116 96.78808512926102 -455.4629338860512 96.51480387926102 -454.9383245110512 96.23324137926102 C-449.97285410545715 94.06345599194259 -443.6156034092169 94.9947848465867 -438.6101995110512 96.69808512926102 C-435.73486253525374 98.05329382857701 -433.54655932699296 99.65188930232893 -431.4812932610512 102.06136637926102 C-430.8212932610512 102.06136637926102 -430.1612932610512 102.06136637926102 -429.4812932610512 102.06136637926102 C-429.2582854485512 102.57956950426103 -429.0352776360512 103.09777262926102 -428.8055120110512 103.63167887926102 C-427.09913157024613 107.03247565611522 -424.6406820586318 109.96210015510877 -422.2937932610512 112.93636637926102 C-422.04862968683244 113.24851084947585 -421.8034661126137 113.56065531969071 -421.5508733391762 113.88225871324539 C-412.209166602643 125.72533636906343 -412.209166602643 125.72533636906343 -406.4812932610512 127.06136637926102 C-405.0813778265792 127.1664120396486 -403.6965401547996 127.15684234602185 -402.2937932610512 127.12386637926102 C-401.9257659173012 127.11935466051102 -401.5577385735512 127.11484294176103 -401.1785588860512 127.11019450426102 C-397.22502613328 127.05884992305619 -394.3317954841972 124.82640364029385 -391.5086370110512 122.13363200426102 C-386.45356086437926 116.92987714739289 -382.31390038408847 111.20224824685488 -378.4812932610512 105.06136637926102 C-378.92533083100403 99.16421501574263 -380.7557078694108 94.35907475542564 -383.1062932610512 88.99886637926102 C-383.285251390934 88.58672892808914 -383.4642095208168 88.17459147691727 -383.6485906243324 87.74996501207352 C-384.5637172620078 85.64388397643799 -385.48872152670697 83.54256024237156 -386.4246526360512 81.44564372301102 C-387.09268927593143 79.94692655199535 -387.7467338177878 78.44402053911065 -388.3816838860512 76.93099528551102 C-392.1239150774793 68.02927733556231 -395.8447265251375 62.590429536141926 -404.4812932610512 58.06136637926102 C-405.0724309950402 57.73766797027919 -405.66289652420846 57.4127397559738 -406.2527776360512 57.08675700426102 C-428.305157456401 44.957858349793 -449.97867616819735 41.86917425370926 -474.903726041317 41.94530075788498 C-476.73374481127485 41.949728149763615 -478.5637614677032 41.94815038569739 -480.39378410577774 41.947398483753204 C-483.5447423982022 41.94688081912378 -486.69567956153344 41.949946977641474 -489.846632540226 41.95563632249832 C-494.40205717003744 41.96385610029479 -498.95747186220217 41.96637710982071 -503.51290310174227 41.96762431412935 C-510.9085408596526 41.96979862698751 -518.3041674212357 41.97641415241421 -525.6997991204262 41.98592692613602 C-532.8726501239998 41.99514339706097 -540.0454980574899 42.00220335914025 -547.2183538079262 42.00643473863602 C-547.6624622922391 42.00669746212661 -548.106570776552 42.0069601856172 -548.5641370937228 42.0072308704257 C-550.7926882464932 42.00853615860862 -553.0212394205626 42.009799806581725 -555.2497906088829 42.0110427737236 C-573.6602993869403 42.02136478813989 -592.0707954425848 42.03893824868058 -610.4812932610512 42.06136637926102 Z M-137.60897880792618 42.49325114488602 C-137.79153719007968 42.50258675754071 -137.79153719007968 42.50258675754071 -138.71539324522018 42.54983061552048 C-156.00640579286045 43.476792818805976 -170.89123910534954 49.18246101037241 -185.73129326105118 57.74886637926102 C-186.1477007317543 57.988793137073515 -186.56410820245742 58.22871989488601 -186.99313408136368 58.47591716051102 C-188.18614338317968 59.168044694388996 -189.37379856145884 59.8683863829485 -190.55941826105118 60.57308512926102 C-190.73565727472305 60.676137115955356 -190.73565727472305 60.676137115955356 -191.62753349542618 61.197642624378204 C-195.9450877349194 63.80681915229013 -197.90675423553625 66.46004203107057 -199.75082451105118 71.14730387926102 C-199.85170624017718 71.39430537462235 -199.85170624017718 71.39430537462235 -200.3622289299965 72.64428263902664 C-200.79137574608933 73.69672172586098 -201.2172344139547 74.75050670304117 -201.64004570245743 75.80550700426102 C-202.732110419097 78.5298062507002 -203.84783437562845 81.24438774391282 -204.96176201105118 83.95980387926102 C-205.07038566827777 84.22542124986649 -205.07038566827777 84.22542124986649 -205.62008720636368 85.56960612535477 C-208.05020506845972 91.49057102063233 -210.69970873036738 97.29728585739574 -213.48129326105118 103.06136637926102 C-210.81180757679607 107.71781257055247 -207.6604371372103 111.81594524934314 -204.31283622980118 115.99642497301102 C-203.59705784058895 116.91310886430392 -202.9244333997716 117.84129211175349 -202.26644951105118 118.79964762926102 C-198.73185689581715 123.66757411358691 -193.89232868271762 125.71422146564151 -188.48129326105118 128.06136637926102 C-181.32783732805348 127.14130773836098 -176.14498051787564 122.74367459220082 -171.78671318292618 117.17367106676102 C-170.26284216074362 115.14322570341744 -168.78989619431462 113.07587289162936 -167.31332451105118 111.01092082262039 C-161.85243075332164 103.38546356915379 -156.73122086830762 97.18187304857503 -147.09286552667618 95.16292887926102 C-141.0748415913081 94.27469868278234 -134.4135143371227 95.92278346041829 -129.43441826105118 99.38949137926102 C-125.62281075792691 102.34460242394593 -122.8692266318883 105.87877500922323 -120.48129326105118 110.06136637926102 C-119.82129326105121 110.06136637926102 -119.16129326105124 110.06136637926102 -118.48129326105118 110.06136637926102 C-118.39347587823863 110.36212077379227 -118.3056584954262 110.66287516832352 -118.21517997980118 110.97274333238602 C-116.8682591832627 114.94071989966301 -114.58736427993313 117.37643497476981 -111.60629326105118 120.24886637926102 C-111.38908622980125 120.46768473863602 -111.38908622980125 120.46768473863602 -110.28988701105118 121.57503825426102 C-107.68590681316198 124.13600977020306 -105.91086385131234 125.34658108413043 -102.48129326105118 127.06136637926102 C-93.00959265812355 126.00895520115796 -87.85210395614502 123.31252737763828 -82.12077385187149 116.26884013414383 C-80.72922849011809 114.52121084445065 -79.35248239577265 112.76249464992082 -77.98129326105118 110.99886637926102 C-72.89435620073527 104.47166866075753 -67.17411610136378 97.14306312496484 -58.37875419855118 95.90633708238602 C-50.87096941173138 95.19236147030608 -44.54106184405407 96.40801245691318 -38.48129326105118 101.06136637926102 C-34.634985626239086 104.55041152392019 -31.523252246480638 108.67208773202171 -28.418793261051178 112.81136637926102 C-23.974918137556642 118.41957559624754 -18.37178597033426 120.86224167400917 -11.481293261051178 122.06136637926102 C-3.0461031821298548 120.4957439782491 2.731467103139721 113.17535832792589 7.933989942073822 106.87777262926102 C11.733980778215141 102.4318471244973 15.606331044391936 99.88210303058298 20.518706738948822 96.06136637926102 C20.518706738948822 78.57136637926101 20.518706738948822 61.08136637926101 20.518706738948822 43.06136637926102 C14.01287258380978 36.555532224122004 -25.424952755465256 42.015979577900836 -35.30966346338391 42.01030104979873 C-37.478282924687505 42.00905067667573 -39.64690235765602 42.00775632194781 -41.81552177667618 42.00643473863602 C-42.031344705931815 42.00630358342082 -42.031344705931815 42.00630358342082 -43.12353952974081 42.00563985854387 C-50.068690738607984 42.001314966890746 -57.01383348022182 41.993445339343936 -63.958979703485966 41.98421358317137 C-71.11091940773713 41.974787823857525 -78.26285474702831 41.969292112141616 -85.41480040550232 41.96727788448334 C-89.42114742226613 41.966041242631775 -93.42747677074726 41.96309420232191 -97.43381744623184 41.95563632249832 C-126.42528032114478 41.90339593429978 -126.42528032114478 41.90339593429978 -137.60897880792618 42.49325114488602 Z M-156.81088310480118 111.59066325426102 C-158.23847507412734 113.34376218802177 -159.61309589044515 115.1367628759495 -160.98129326105118 116.93636637926102 C-174.07607729698464 134.0725982458901 -174.07607729698464 134.0725982458901 -185.25473076105118 136.43636637926102 C-192.1094046792747 136.95127146232005 -199.4192510237874 133.41470828487707 -204.54379326105118 129.06136637926102 C-209.6344205348139 124.48960406767645 -213.55452636833195 118.62382911800472 -217.48129326105118 113.06136637926102 C-220.48728022834194 115.65086117638498 -221.96576699257156 118.67504887367772 -223.73129326105118 122.18636637926102 C-226.75031129475383 128.01571456415223 -230.23687439893746 133.06869130437346 -234.48129326105118 138.06136637926102 C-234.48129326105118 138.721366379261 -234.48129326105118 139.381366379261 -234.48129326105118 140.06136637926102 C-235.1412932610512 140.06136637926102 -235.80129326105117 140.06136637926102 -236.48129326105118 140.06136637926102 C-236.58357231378557 140.19917521715163 -236.58357231378557 140.19917521715163 -237.10116630792618 140.89657145738602 C-243.35061223040515 149.19552086060133 -250.3866748045561 155.6259283732955 -258.4812932610512 162.06136637926102 C-261.9237230724526 193.48418638988443 -262.7199439898326 224.80928139244395 -257.9226995110512 256.138026535511 C-257.5357804854333 258.67193954592517 -257.1789548954944 261.20926069002894 -256.8285833001137 263.74845439195633 C-251.92875434288794 299.14608611527507 -244.91124177850588 336.3223858613494 -222.48129326105118 365.061366379261 C-222.13356865167617 365.52309245347976 -221.78584404230116 365.9848185276985 -221.42758232355118 366.460536301136 C-219.4317788590124 369.0634852049113 -217.47294975803982 371.078094800063 -214.73129326105118 372.873866379261 C-214.1511793684242 373.2635471696188 -213.57145244836312 373.6538044272781 -212.99203544855118 374.044520676136 C-209.462029224711 376.42048640372076 -202.80504630580447 375.47375765773126 -198.75308281183243 374.75466471910477 C-194.98335508444382 373.910380355282 -191.26606170271089 372.86632823500133 -187.55050712823868 371.812587082386 C-184.10975441708774 370.83974093857904 -180.64821602565303 369.9437030684156 -177.18832451105118 369.041835129261 C-177.01779249429705 368.99727624177933 -177.01779249429705 368.99727624177933 -176.1547971367836 368.7717812657356 C-145.38832252905695 360.744831392416 -111.36046228330156 361.76097203293784 -80.71957451105118 369.951991379261 C-48.22658266404744 378.6276416743209 -13.332906312784644 382.19902240647116 19.518706738948822 373.061366379261 C19.84870673894875 372.73136637926103 20.178706738948904 372.401366379261 20.518706738948822 372.061366379261 C20.518706738948822 285.601366379261 20.518706738948822 199.141366379261 20.518706738948822 110.06136637926102 C19.198706738948886 110.06136637926102 17.878706738948836 110.06136637926102 16.518706738948822 110.06136637926102 C7.518706738948822 120.06136637926096 7.518706738948822 120.06136637926096 7.518706738948822 122.06136637926102 C6.85870673894874 122.06136637926102 6.198706738948886 122.06136637926102 5.518706738948822 122.06136637926102 C5.518706738948822 122.72136637926101 5.518706738948822 123.38136637926101 5.518706738948822 124.06136637926102 C5.367241895198845 124.11615153551102 5.367241895198845 124.11615153551102 4.600737988948822 124.39339762926102 C2.235057225390392 125.28871681054619 0.09587539082849617 126.26829990415706 -2.043793261051178 127.62386637926102 C-4.147646734517821 128.90955461304617 -6.014911996601882 129.7899846220077 -8.481293261051178 130.06136637926102 C-9.034301073551205 130.12581950426102 -9.587308886051233 130.19027262926102 -10.157074511051178 130.25667887926102 C-16.51670225114617 130.63902122836492 -22.889757682143227 128.78724979299628 -28.004730761051178 124.90511637926102 C-28.92038441899672 123.9959567188896 -29.733376925929406 123.11068183450647 -30.481293261051178 122.06136637926102 C-31.141293261051146 122.06136637926102 -31.801293261051114 122.06136637926102 -32.48129326105118 122.06136637926102 C-32.48129326105118 121.40136637926102 -32.48129326105118 120.74136637926102 -32.48129326105118 120.06136637926102 C-33.141293261051146 120.06136637926102 -33.801293261051114 120.06136637926102 -34.48129326105118 120.06136637926102 C-34.48129326105118 119.40136637926102 -34.48129326105118 118.74136637926102 -34.48129326105118 118.06136637926102 C-35.141293261051146 118.06136637926102 -35.801293261051114 118.06136637926102 -36.48129326105118 118.06136637926102 C-36.745551073551155 117.47484294176101 -37.00980888605113 116.888319504261 -37.28207451105118 116.28402262926102 C-38.427608224037385 114.00399891130152 -39.86862702801011 112.29101628618778 -41.66879326105118 110.49886637926102 C-41.81965385675426 110.3473612523079 -41.81965385675426 110.3473612523079 -42.58309990167618 109.58065348863602 C-45.53509206042736 106.76287745490174 -48.610565833266946 105.2967049200432 -52.48129326105118 104.06136637926102 C-60.850046620614194 104.65489498632223 -66.13029969264801 110.12889817642471 -71.48129326105118 116.06136637926102 C-74.48129326105118 119.68460581588073 -74.48129326105118 119.68460581588073 -74.48129326105118 122.06136637926102 C-75.14129326105115 122.06136637926102 -75.80129326105111 122.06136637926102 -76.48129326105118 122.06136637926102 C-76.66192314386365 122.28276286363601 -76.84255302667611 122.504159348011 -77.02865654230118 122.73226481676102 C-80.74877430201548 127.2490470872417 -84.2007288303721 131.3501088355521 -89.48129326105118 134.06136637926102 C-89.94019951105122 134.29726481676101 -90.39910576105115 134.533163254261 -90.87191826105118 134.77621012926102 C-95.90710492535766 136.8926484799173 -101.62773272098923 136.26414628473185 -106.62582451105118 134.27230387926102 C-108.67553153677 133.35733406849042 -110.58684473630046 132.26160197882714 -112.48129326105118 131.06136637926102 C-112.73137138605125 130.904100754261 -112.73137138605125 130.904100754261 -113.99691826105118 130.10824137926102 C-119.18745803726506 126.2866351704003 -122.75775740786185 120.6094563447817 -126.48666435480118 115.43587809801102 C-127.79552557113084 113.62711799787934 -129.133304284622 111.84107703077308 -130.48129326105118 110.06136637926102 C-131.14129326105115 110.06136637926102 -131.80129326105111 110.06136637926102 -132.48129326105118 110.06136637926102 C-132.48129326105118 109.40136637926102 -132.48129326105118 108.74136637926102 -132.48129326105118 108.06136637926102 C-141.51539609719464 101.73749439396056 -149.59805363215753 103.04261064172564 -156.81088310480118 111.59066325426102 Z M-544.4812932610512 107.06136637926102 C-548.6501422599796 109.94844371366474 -552.143169221207 113.59103880642127 -555.3814397454262 117.46322184801102 C-560.696832349599 123.79164069104576 -566.9860847465084 129.11483142045802 -575.4812932610512 130.12386637926102 C-582.7589417722559 130.57605321524443 -588.8770699170931 128.70925928531076 -594.4368596673012 123.98250895738602 C-598.8207042871198 120.01621272176362 -602.815322769965 115.69598760986185 -606.4812932610512 111.06136637926102 C-607.8012932610512 110.73136637926103 -609.1212932610512 110.40136637926102 -610.4812932610512 110.06136637926102 C-611.4323188829688 123.5006438410496 -611.6228889432058 136.88709279422272 -611.5973588824272 150.35632210969925 C-611.5929645918116 153.27627821601564 -611.5945070442485 156.1962327172202 -611.595261156559 159.11619120836258 C-611.5957808069206 164.15291060779225 -611.5926931100132 169.1896168673154 -611.5870233178139 174.22633296251297 C-611.5788315758542 181.50821766684322 -611.5762819821562 188.7900980877866 -611.5750353261828 196.071986541152 C-611.5729454997139 207.8916922225094 -611.566238038215 219.7113910886726 -611.5567327141762 231.53109294176102 C-611.5475201350081 243.0001680990431 -611.5404503956095 254.46924137825306 -611.5362249016762 265.938319504261 C-611.5360933755059 266.29303139613944 -611.5359618493355 266.6477432880178 -611.5358263375238 267.01320402510464 C-611.5345076021434 270.5759834375353 -611.5332318201181 274.13876286428433 -611.5319874782581 277.7015423034318 C-611.5294525588143 284.9566868045033 -611.5266313093299 292.2118311848865 -611.5236364006996 299.4669755101204 C-611.5234991107416 299.80041614351796 -611.5233618207835 300.1338567769155 -611.5232203705236 300.47740167193115 C-611.4957129160406 367.0469467242716 -611.4957129160406 367.0469467242716 -610.4812932610512 368.061366379261 C-605.2305080370868 367.5687001113335 -600.0694978025854 366.8902193087595 -594.9039006829262 365.809901535511 C-564.9784512512636 359.9002783499761 -533.3583180789813 364.65680913949234 -504.2747502923012 372.192225754261 C-467.51788312888493 381.6710419370285 -430.8849525184075 379.0435892790305 -394.61077934503555 369.177089035511 C-386.64291519804965 367.0124918122939 -378.62155453083324 365.42857612609953 -370.4812932610512 364.061366379261 C-368.80691339177497 362.40228541234364 -367.1420027587177 360.73412746979886 -365.4812932610512 359.061366379261 C-365.1454924798012 358.727499191761 -364.8096916985512 358.393632004261 -364.4637151360512 358.049647629261 C-356.35538526823643 349.7486792548675 -352.5835528235668 338.6973026918531 -348.4812932610512 328.061366379261 C-348.30815605401995 327.6149680638313 -348.13501884698866 327.16856974840164 -347.9566350579262 326.70864421129227 C-345.31621242589733 319.8496329749239 -343.2284088602842 312.94766502922255 -341.4812932610512 305.811366379261 C-341.3546730828285 305.29935679674145 -341.2280529046059 304.787347214222 -341.09759575128555 304.2598221898079 C-337.267229344566 288.68869955335884 -334.73427093507473 272.97035566431316 -332.7937932610512 257.061366379261 C-332.73285484552383 256.5660541844368 -332.6719164299965 256.07074198961254 -332.6091313958168 255.56042033433914 C-332.18492139283586 252.0650846190838 -331.8134110548328 248.56662934422218 -331.4812932610512 245.06136637926102 C-331.4315032219887 244.54243815660476 -331.3817131829262 244.0235099339485 -331.3304143548012 243.48885661363602 C-330.2486858514599 231.66659938982588 -330.3269088887309 219.8249298390902 -330.3509221673012 207.96419841051102 C-330.35548294831284 205.69561706980875 -330.35548294831284 203.4271156887133 -330.3509221673012 201.15853434801102 C-330.30793947216523 179.7692285646544 -330.30793947216523 179.7692285646544 -330.8016057610512 170.28011637926102 C-330.82359031915666 169.7043485569954 -330.8455748772621 169.12858073472978 -330.86822563409805 168.53536540269852 C-331.1573456038639 164.15809740445386 -332.5968949530574 160.98939038051503 -335.6729436516762 157.84212809801102 C-336.05442558526994 157.56127360582352 -336.4359075188637 157.28041911363601 -336.8289495110512 156.99105387926102 C-337.2640081048012 156.65847575426102 -337.6990666985512 156.32589762926102 -338.1473088860512 155.98324137926102 C-338.6081487298012 155.637772629261 -339.06898857355117 155.29230387926103 -339.5437932610512 154.93636637926102 C-350.25127435442096 146.46138798397766 -357.50661879763254 136.47016979184735 -364.6412816643715 125.00297099351883 C-366.4287915609723 122.13082759905481 -368.278225362601 119.30433827306743 -370.1687932610512 116.49886637926102 C-370.4127483391762 116.13518962144852 -370.6567034173012 115.77151286363602 -370.9080510735512 115.39681559801102 C-371.43126195641116 114.61752337052351 -371.9560351896037 113.83928023191106 -372.4812932610512 113.06136637926102 C-376.09197229125 116.53376408489902 -379.3380428568054 120.16908609145025 -382.4812932610512 124.06136637926102 C-382.4812932610512 124.72136637926101 -382.4812932610512 125.38136637926101 -382.4812932610512 126.06136637926102 C-383.14129326105115 126.06136637926102 -383.80129326105117 126.06136637926102 -384.4812932610512 126.06136637926102 C-384.62115654230115 126.21863200426102 -384.62115654230115 126.21863200426102 -385.3289495110512 127.01449137926102 C-390.5787249249379 132.61875323588606 -396.089257033202 135.94699530446724 -403.8641057610512 136.22152262926102 C-406.6526225526285 136.1558245896689 -409.0758324587076 135.49581251287776 -411.6687932610512 134.49886637926102 C-411.85848686456677 134.42700114488602 -411.85848686456677 134.42700114488602 -412.8184514641762 134.06331950426102 C-420.17354216332785 130.80904917997267 -425.05333124905655 124.38725138804432 -429.5437932610512 117.99886637926102 C-438.2022340744653 105.70735405058338 -438.2022340744653 105.70735405058338 -444.4812932610512 104.06136637926102 C-446.3055120110512 103.96371012926102 -446.3055120110512 103.96371012926102 -448.1687932610512 103.99886637926102 C-448.4801018548012 104.00337809801101 -448.4801018548012 104.00337809801101 -450.0555120110512 104.02621012926102 C-452.88281006335 104.09592432781085 -455.58465070016575 106.24588872995022 -457.6248479485512 108.10140544176102 C-458.7352267927693 109.27070649363208 -459.8018681269573 110.46638399977823 -460.8562932610512 111.68636637926102 C-461.2442205071449 112.12440593004226 -461.63214775323866 112.5624454808235 -462.0318303704262 113.01375895738602 C-464.50152675565454 115.83373088337646 -466.79742002641945 118.75023443769186 -469.0437932610512 121.74886637926102 C-473.9424967421425 128.20502655474493 -480.07692846650497 134.8180947887009 -488.4812932610512 136.06136637926102 C-495.5848019016221 136.73178980381155 -501.5993746900745 134.35653464474518 -507.2181096673012 130.11996012926102 C-511.4426550412698 126.57963760480646 -514.9461252704039 122.26720798611149 -518.4812932610512 118.06136637926102 C-533.2883521620791 100.69342594351235 -533.2883521620791 100.69342594351235 -544.4812932610512 107.06136637926102 Z M-322.4812932610512 166.06136637926102 C-322.45100029230116 166.61034587144852 -322.4207073235512 167.15932536363601 -322.3894963860512 167.72494059801102 C-320.87654330192305 195.8689905943802 -320.70988906209544 223.99127593358764 -323.4812932610512 252.06136637926102 C-323.5067522454262 252.32124339342118 -323.5067522454262 252.32124339342118 -323.6355901360512 253.63637858629227 C-327.1681697619276 289.2234851259259 -334.5177212767692 329.6406852603551 -354.4812932610512 360.061366379261 C-354.4812932610512 361.051366379261 -354.4812932610512 362.04136637926104 -354.4812932610512 363.061366379261 C-354.1092627739906 363.0842019200325 -353.73723228693007 363.107037460804 -353.3539281487465 363.13056498765945 C-349.78189198972296 363.35000040687964 -346.2099186473555 363.5704243149869 -342.63800579309464 363.7918570637703 C-340.8033286639397 363.9055615074818 -338.9686324420005 364.0189327984042 -337.1338811516762 364.131434738636 C-327.90951319720835 364.6973302283649 -318.6933197517407 365.3163395838824 -309.4812932610512 366.061366379261 C-306.3354405347566 358.9184996478965 -304.28370519290365 351.9021162237981 -302.7937932610512 344.248866379261 C-302.68634788751604 343.71443919420244 -302.5789025139809 343.18001200914387 -302.46820122003555 342.62939006090164 C-300.7425766199418 333.9643364139248 -299.8601858477074 325.4430069604788 -299.7579045891762 316.610926926136 C-299.75081474542617 316.1969767308235 -299.74372490167616 315.783026535511 -299.7364202141762 315.356532394886 C-299.7256667158794 314.597086058653 -299.7235627668576 313.83743474228845 -299.7327581048012 313.077967941761 C-299.6998971806576 310.24455152326084 -298.84510989623857 308.47500072668936 -297.4812932610512 306.061366379261 C-295.8312932610512 306.061366379261 -294.18129326105117 306.061366379261 -292.4812932610512 306.061366379261 C-291.4397429867996 308.14446692776414 -291.3420824318628 309.09971238604015 -291.3133245110512 311.377772629261 C-291.30899910211565 311.70552180528637 -291.30467369318006 312.03327098131183 -291.3002172112465 312.3709519505501 C-291.2899980752113 313.45540032915517 -291.2900742075641 314.5393785759002 -291.2937932610512 315.623866379261 C-291.2950621819496 316.0016221165657 -291.29633110284806 316.3793778538704 -291.2976384758949 316.76858073472977 C-291.38704817623307 330.87684030957075 -293.64339602994283 343.8063780120843 -297.4485784173012 357.395839035511 C-297.58147270441054 357.8748314976692 -297.7143669915199 358.3538239598274 -297.8512883782387 358.84733134508133 C-298.10172383452846 359.74481374456366 -298.356849518493 360.641006628958 -298.6176458001137 361.5355332493782 C-299.34540144873733 364.13349588432726 -299.604650012202 366.3626465121031 -299.4812932610512 369.061366379261 C-279.1682062021398 375.69847161375117 -259.06686408030487 378.0850856506239 -237.73129326105118 378.186366379261 C-237.34448387384413 378.18913584947586 -236.95767448663713 378.1919053196907 -236.55914360284805 378.1947587132454 C-235.45497011075167 378.20057870462847 -234.35109256197302 378.19876881889206 -233.24691826105118 378.194178879261 C-232.6155999016762 378.1930509495735 -231.98428154230118 378.191923019886 -231.33383232355118 378.190760910511 C-229.26034669812555 378.0459338966107 -227.48006241203063 377.6183006722982 -225.48129326105118 377.061366379261 C-225.81129326105122 376.071366379261 -226.14129326105115 375.081366379261 -226.48129326105118 374.061366379261 C-227.14129326105115 374.061366379261 -227.80129326105117 374.061366379261 -228.48129326105118 374.061366379261 C-228.72879326105118 373.522538254261 -228.97629326105118 372.983710129261 -229.23129326105118 372.428553879261 C-230.12418196935232 370.6412154684134 -231.15573812482722 369.0231045565071 -232.29379326105118 367.381678879261 C-254.24477753113007 335.56748048320037 -261.77800229174704 295.7372711258811 -266.4812932610512 258.061366379261 C-266.55648185968397 257.46038127183914 -266.6316704583168 256.85939616441726 -266.7091374993324 256.2401993870735 C-268.8687224768035 238.70067345524507 -269.7550855290218 221.2934382108981 -269.7312932610512 203.62386637926102 C-269.7311598229408 203.4102967953682 -269.7311598229408 203.4102967953682 -269.73048454523087 202.32950526475906 C-269.7184410667936 190.21191590444408 -269.27268533971534 178.15264392859453 -268.4812932610512 166.06136637926102 C-268.7820124077797 166.1555283665657 -269.0827315545082 166.2496903538704 -269.39256340265274 166.34670573472977 C-279.94330879805494 169.62153099352878 -290.516162411553 169.78246128036287 -301.4812932610512 170.06136637926102 C-301.81129326105116 170.39136637926103 -302.14129326105115 170.721366379261 -302.4812932610512 171.06136637926102 C-302.46647407770155 171.2523238682747 -302.46647407770155 171.2523238682747 -302.3914800286293 172.2186844944954 C-301.5881706146394 182.8790196901459 -301.3213417691834 193.48550311543625 -301.3509221673012 204.17415934801102 C-301.3567120635683 206.29408850981793 -301.35325930430514 208.41389353486625 -301.3473497033119 210.5338185429573 C-301.34371928476935 212.19995609201897 -301.34489244826784 213.86606454889278 -301.3474774956703 215.5322030186653 C-301.3481351092126 216.31433055928903 -301.3473601520924 217.0964609099159 -301.34499794244766 217.8785851597786 C-301.3343505352151 222.37536057434727 -301.60248000090314 226.63064649666745 -302.4812932610512 231.06136637926102 C-304.7912932610512 230.73136637926103 -307.1012932610512 230.40136637926105 -309.4812932610512 230.06136637926102 C-309.49160072565076 229.51616343736646 -309.5019081902504 228.97096049547196 -309.5125280022621 228.4092362523079 C-309.6114194483152 223.20400210341097 -309.71423318531185 217.99885731867892 -309.8206325173378 212.79377108812332 C-309.87517932580397 210.11949300248443 -309.92846855680006 207.44520367770622 -309.9786077141762 204.77083903551102 C-310.3641148517311 184.30143834916396 -310.3641148517311 184.30143834916396 -310.9539495110512 175.69417887926102 C-310.9910453057289 175.13487681627274 -311.02814110040663 174.57557475328446 -311.0663610100746 173.9993241429329 C-311.3770966083582 170.00813720261564 -311.3770966083582 170.00813720261564 -312.4812932610512 168.06136637926102 C-313.3950806605335 167.72021908345428 -314.3125204270318 167.38884976564415 -315.2312932610512 167.06136637926102 C-315.74176201105115 166.87574137926103 -316.2522307610512 166.690116379261 -316.7781682610512 166.49886637926102 C-318.1997582867875 166.13368729008104 -319.1559720876472 166.0133473009447 -320.5877385735512 166.03402262926102 C-321.2126116204262 166.043046066761 -321.83748466730117 166.05206950426103 -322.4812932610512 166.06136637926102 Z M-352.4631047844887 372.08742839097977 C-370.41444555122393 372.5673940616366 -386.93508252437937 375.5702366805278 -404.31524711847305 380.0321915745735 C-414.3141002203587 382.59576842767956 -424.2373397220081 384.7677707384933 -434.4812932610512 386.061366379261 C-434.7534465813637 386.0959293675423 -434.7534465813637 386.0959293675423 -436.1307073235512 386.270839035511 C-439.57751938600967 386.68345488253306 -443.01281035007526 386.93052137790386 -446.4812932610512 387.061366379261 C-447.0492864251137 387.083280441761 -447.6172795891762 387.105194504261 -448.2024846673012 387.127772629261 C-468.639533778061 387.78228180814847 -489.2721216701126 385.17175143881144 -508.9300237298012 379.555995285511 C-527.1819839143313 374.36384822936697 -545.0994506952046 372.6697201092997 -564.0051122307777 372.6279099583626 C-565.394228845834 372.6239366413314 -566.7832458697321 372.6150852589689 -568.1723333001137 372.6054337620735 C-577.699822174326 372.5526607585988 -587.0145537580889 372.8689345408305 -596.4226995110512 374.463710129261 C-596.7922620224953 374.5261094403267 -597.1618245339394 374.58850875139234 -597.5425859093666 374.65279895067215 C-601.9878948118316 375.423140528687 -606.2454375800831 376.4919099110692 -610.4812932610512 378.061366379261 C-610.6140021177534 383.39148319298374 -610.744504641129 388.7216495158413 -610.8724446892738 394.0518830418587 C-610.931962932116 396.52886599502847 -610.9921474578697 399.0058284226258 -611.0540471673012 401.482753098011 C-611.5263668355514 420.4259885235489 -611.5263668355514 420.4259885235489 -611.5694127678871 428.99689799547195 C-611.5747728293038 429.9507419871367 -611.5846156563618 430.90455766973963 -611.5946965813637 431.8583634495735 C-611.6025831350846 439.44575389937586 -611.372773130428 447.8399493958659 -606.4812932610512 453.811366379261 C-606.2144573235512 454.15941325426104 -605.9476213860512 454.507460129261 -605.6726995110512 454.866053879261 C-602.3512759376783 458.8517621673085 -597.3305898566446 461.81607731152974 -592.1338357999921 462.43054616451263 C-589.4841567682888 462.62066643156413 -586.8375272927248 462.5922586131653 -584.1828628182411 462.5647309422493 C-583.1564082173709 462.56891080510024 -582.1299595388689 462.574841236205 -581.1035238802433 462.58234840631485 C-578.2906055524151 462.5978723820133 -575.478239066953 462.58863354602727 -572.6653301017359 462.5752365961671 C-569.6022098582868 462.5650673671935 -566.5391726159882 462.5781382617729 -563.4760642051697 462.58820992708206 C-558.1100653692147 462.602645880806 -552.7442731982525 462.6023606274284 -547.378277361393 462.5920212864876 C-541.6231583660704 462.58099986890625 -535.8681337387206 462.57870796955706 -530.1130090355873 462.5869706273079 C-529.9309741177203 462.5872289725603 -529.9309741177203 462.5872289725603 -529.0097671091207 462.5885363561101 C-527.5268623611003 462.5906695421769 -526.0439577214249 462.59286438808 -524.5610531810962 462.59513745852746 C-510.76181019875395 462.6162746537361 -496.9626304463834 462.61773849238875 -483.1633782982826 462.6065476536751 C-482.9590918751044 462.6063820627937 -482.9590918751044 462.6063820627937 -481.92527876386885 462.60554407257587 C-481.51604898761843 462.6052123542037 -481.106819211368 462.6048806358315 -480.68518853280693 462.60453886538744 C-468.21274536774126 462.5944421724396 -455.7403283256443 462.5918423944621 -443.2678819298744 462.59662944078445 C-442.4323472489417 462.5969393590999 -441.59681256752833 462.5972479843613 -440.7612778856419 462.59755532070994 C-437.40351506074705 462.5987972144476 -434.04575224955045 462.60007188340364 -430.68798945541494 462.6013943757862 C-421.30182482026567 462.60506225608924 -411.91566009445097 462.6073447717963 -402.5294948220253 462.60853892564774 C-402.31578941318 462.6085662172013 -402.31578941318 462.6085662172013 -401.23431052599335 462.60870432900265 C-387.6168689162861 462.61034123275476 -373.99943640244476 462.60583499344943 -360.3819976449013 462.59714061021805 C-359.9403860564687 462.59685961419245 -359.4987744680361 462.596578618167 -359.0437807102571 462.59628910711035 C-351.87251609204657 462.591709437942 -344.7012516735374 462.5868315279739 -337.52998727036174 462.58192841243 C-309.09128605615535 462.5625051214222 -280.6526601660502 462.56340340625 -252.21395927667618 462.582850754261 C-245.04748374034142 462.58773562796125 -237.88100818607853 462.5925798793795 -230.71453243494034 462.59714061021805 C-230.49389104876343 462.5972815065388 -230.49389104876343 462.5972815065388 -229.3773119126563 462.59799452731386 C-215.7748350188332 462.60662119029007 -202.17236438664713 462.6102759942104 -188.56988483667374 462.60853892564774 C-188.1427752836555 462.60848458840974 -187.71566573063728 462.60843025117174 -187.2756134638912 462.6083742673509 C-177.89922251736039 462.6071242672467 -168.52283223313566 462.60458954671094 -159.14644194146967 462.60089691425674 C-155.7913841230452 462.5995803818987 -152.43632628031594 462.5983280536866 -149.08126843062928 462.5970940697007 C-148.24663708311255 462.59678451515674 -147.41200573756873 462.596469593757 -146.57737439410994 462.59614928485826 C-134.10935594761736 462.5913775667009 -121.64136695249613 462.5954355513984 -109.17335218156222 462.60554407257587 C-108.7648621306464 462.60587525433857 -108.35637207973048 462.6062064361013 -107.93550354242325 462.6065476536751 C-107.52776890237237 462.6068783830385 -107.1200342623215 462.6072091124021 -106.69994402711745 462.60754986386746 C-92.93898879115216 462.6185898315764 -79.17810934513773 462.61451006338007 -65.41716492921114 462.5934246778488 C-63.93843621542305 462.5912153302637 -62.45970742454767 462.5890685055332 -60.980978548526764 462.5869706273079 C-60.61808058801978 462.58644980005454 -60.255182627512795 462.5859289728012 -59.88128775911173 462.5853923629038 C-54.14293720274793 462.5775132384738 -48.40468114527687 462.5829845347091 -42.66633912923862 462.59404665068723 C-37.01918982629536 462.6046470496218 -31.372238641620015 462.6005431609151 -25.72509510605596 462.5819902997464 C-22.70620635537159 462.5724759374418 -19.68767447461687 462.5692191809088 -16.668796963989735 462.58361423015594 C-13.9189525084862 462.5965926135856 -11.169779463581335 462.59096640851965 -8.419983383268118 462.5708915889263 C-7.434750073147825 462.5668836649852 -6.449460388043235 462.569472832157 -5.464272167533636 462.5797153413296 C1.7975372456564855 462.6498177619658 8.923186989829446 461.5777311010097 14.405721303075552 456.3699732720852 C19.277889320849567 451.4498511197897 20.747028256988642 445.560784292595 20.745299756526947 438.6943162083626 C20.734977185726166 438.07423182725904 20.724654614925385 437.45414744615556 20.714019238948822 436.815272629261 C20.711189343929277 436.15929591417313 20.708359448909732 435.50331919908524 20.705443799495697 434.82746440172195 C20.697919639765473 433.10943022229327 20.67837363132719 431.39175103078514 20.656035840511322 429.67385417222977 C20.63533024075116 427.9104955946319 20.626390133299992 426.1470779052844 20.616362988948822 424.383632004261 C20.595112257108894 420.94273380432026 20.56111863207468 417.50206727363343 20.518706738948822 414.061366379261 C19.566703966079785 413.57349322428126 18.613306388301908 413.08834118634275 17.659331738948822 412.604335129261 C17.128560254573813 412.33387370347975 16.597788770198804 412.0634122776985 16.050933301448822 411.784755051136 C13.848039586186474 410.74473368747726 11.93700551305335 410.2732791584351 9.518706738948822 410.061366379261 C9.356607129573831 410.04509196519854 9.356607129573831 410.04509196519854 8.536284863948822 409.962733566761 C-1.4386939849599685 409.0825883742102 -10.762484541841445 412.4389952687416 -19.481293261051178 417.061366379261 C-20.801293261051228 416.73136637926103 -22.121293261051164 416.40136637926105 -23.481293261051178 416.061366379261 C-23.81129326105122 414.741366379261 -24.141293261051146 413.42136637926103 -24.481293261051178 412.061366379261 C-20.370349308034974 406.51954138182475 -14.810412916419978 405.0600357441143 -8.481293261051178 403.061366379261 C-8.005226366519878 402.88267009019853 -7.529159471988692 402.70397380113604 -7.038666307926178 402.519862473011 C-5.302400551578216 402.00869973740646 -3.8482354610598577 401.9320053964117 -2.039887011051178 401.928553879261 C-1.7156122612952913 401.92723460435866 -1.3913375115394047 401.9259153294563 -1.0572362542152405 401.92455607652664 C-0.010988867933065194 401.9226525887308 1.034986947477364 401.92894638073994 2.081206738948822 401.936366379261 C2.436424024105122 401.93725260972974 2.7916413092613084 401.9381388401985 3.157622754573822 401.939051926136 C9.002271343251891 401.95619939434926 14.715923293448782 402.3360184485735 20.518706738948822 403.061366379261 C20.518706738948822 396.461366379261 20.518706738948822 389.861366379261 20.518706738948822 383.061366379261 C17.518706738948822 382.061366379261 17.518706738948822 382.061366379261 16.614409863948822 382.305018723011 C-2.638569216900919 387.3185173618207 -22.757154345778076 387.82134973588023 -42.48129326105118 386.061366379261 C-42.90934257745744 386.02482951402664 -43.337391893863696 385.98829264879225 -43.77841240167618 385.9506486058235 C-57.914901309304355 384.7279969962104 -71.48414850426855 381.54676415924575 -85.16635185480118 377.930262863636 C-121.2594552330902 368.4144449382118 -157.10122534827792 371.1465028799692 -192.78598076105118 381.237147629261 C-210.46532674930262 386.1967538260441 -230.14500471678537 388.2117906343102 -248.48129326105118 387.061366379261 C-248.6728600335121 387.04987559556963 -248.6728600335121 387.04987559556963 -249.64230400323868 386.99172526597977 C-266.24778380221653 385.972958869967 -281.9323327017806 382.6613705024055 -298.0552678704262 378.738856613636 C-299.15559778347426 378.4713109897214 -300.25593956335683 378.2038141655569 -301.3562932610512 377.936366379261 C-301.89787071466446 377.80465037584304 -302.43944816827775 377.67293437242506 -302.9974370598793 377.53722697496414 C-319.37750166838737 373.5644259734422 -335.58522854582384 371.6394081775078 -352.4631047844887 372.08742839097977 Z " transform="translate(667.4812932610512,54.93863362073898)" />
    <path d="M0 0 C-1 5 -1 5 -2 6 C-7.001200017581198 6.859114169433184 -11.837136788896032 7.13657588417712 -16.90234375 7.09765625 C-17.632206234765533 7.095784791263924 -18.362069999344385 7.09436434155441 -19.091934204101563 7.0933685302734375 C-20.987392562203922 7.089600511887198 -22.882770904453935 7.07982121821621 -24.7781982421875 7.06866455078125 C-26.722563867837493 7.058325447475426 -28.66694277213145 7.053844497328356 -30.611328125 7.048828125 C-41.977355270329156 7.016983547253119 -41.977355270329156 7.016983547253119 -46 4 C-45 0 -45 0 -44 -1 C-39.687882510110285 -1.1316305541358815 -35.375732023029116 -1.2621002274522084 -31.063536643981934 -1.3911514282226563 C-29.06048829179656 -1.4511318655343075 -27.057452862193145 -1.5114887721227888 -25.054443359375 -1.57275390625 C-23.115765666756488 -1.6320366909587563 -21.177058813005033 -1.69026809979556 -19.23832893371582 -1.7478179931640625 C-18.504465423000056 -1.7697780336859523 -17.77061250551867 -1.792095556006302 -17.036771774291992 -1.8148040771484375 C-3.3559349582309324 -2.2372899721539454 -3.3559349582309324 -2.2372899721539454 0 0 Z " transform="translate(394,151)" />
    <path d="M0 0 C0.6470464451986118 0.30998039002537325 1.2925983654962465 0.6230817653843133 1.9375 0.9375 C2.1173242187500136 1.0245117187500057 2.1173242187500136 1.0245117187500057 3.02734375 1.46484375 C4 2 4 2 5 3 C5.329999999999984 27.089999999999975 5.660000000000025 51.18000000000001 6 76 C3 78 3 78 -2 77 C-2.992788007508466 75.01442398498307 -3.319656669740141 73.41472172135593 -3.552001953125 71.255126953125 C-3.594041566848773 70.86559247016908 -3.6360811805724893 70.47605798721315 -3.6793947219848633 70.07471942901611 C-4.2584619645060116 64.04169906973215 -4.164538224498983 57.972385706805596 -4.16796875 51.91796875 C-4.170372910001731 50.913603839711755 -4.172779397484192 49.909238915164906 -4.175429165363312 48.90487462282181 C-4.183497723263599 45.762829886866996 -4.1860198679888185 42.62081368834026 -4.185302734375 39.478759765625 C-4.184698880576036 36.25042686646657 -4.195328904299743 33.02225935771503 -4.211046397686005 29.793968379497528 C-4.224143834021845 27.003081445353473 -4.2294859507014735 24.21224863498594 -4.228847324848175 21.421331226825714 C-4.228593651948927 19.762413835688903 -4.232309502377859 18.103677674296648 -4.242025375366211 16.44478416442871 C-4.251832320141091 14.600011261179418 -4.248946524891096 12.755668622173971 -4.242919921875 10.910888671875 C-4.248539428710956 10.369014129638686 -4.2541589355468545 9.827139587402343 -4.25994873046875 9.268844604492188 C-4.232472323611887 5.955843038223094 -3.718743523569799 3.8457360696641842 -2 1 C-1.339999999999975 0.6699999999999875 -0.6800000000000068 0.3400000000000034 0 0 Z " transform="translate(382,233)" />
    <path d="M0 0 C1.6499999999999773 0.3300000000000125 3.3000000000000114 0.6599999999999966 5 1 C7 4 7 4 6.97308349609375 5.1984710693359375 C6.549656325810815 24.997225730566925 6.465050259560712 44.20088045886831 10.708984375 63.6591796875 C10.992728853139226 64.96649904483263 11.265310602628233 66.27568696776154 11.53515625 67.5859375 C14.223034498181562 80.48853377040246 18.534084738960246 92.79436211569435 23.109375 105.13671875 C23.28521621704101 105.61485519409177 23.461057434082022 106.0929916381836 23.642227172851563 106.58561706542969 C23.806376190185574 107.02231216430664 23.97052520751953 107.4590072631836 24.1396484375 107.908935546875 C24.282230834960956 108.29051315307618 24.424813232421855 108.67209075927735 24.57171630859375 109.06523132324219 C25 110 25 110 26 111 C26.14622802734374 110.55084228515625 26.292456054687477 110.1016845703125 26.443115234375 109.638916015625 C26.9867686917529 107.97388295556362 27.533107698893446 106.30978217325423 28.081298828125 104.646240234375 C28.318060909456676 103.92589281900047 28.553745013719322 103.20519017007769 28.788330078125 102.484130859375 C29.12559154115752 101.44810357441452 29.46670160644379 100.41341320526442 29.80859375 99.37890625 C30.01282958984376 98.75572509765624 30.217065429687523 98.13254394531248 30.427490234375 97.490478515625 C31 96 31 96 32 95 C33.64999999999998 95 35.30000000000001 95 37 95 C40.819600006252074 100.72940000937814 37.50085603652491 110.66649048136753 36.38037109375 117.285888671875 C36.20876248230786 118.3117669198175 36.04216993501416 119.33849571208077 35.88037109375 120.365966796875 C35.64216835747095 121.87752784783208 35.389182409387445 123.38595819758604 35.1328125 124.89453125 C35.063938293457 125.3487495422363 34.995064086914056 125.80296783447267 34.924102783203125 126.27095031738281 C34.35251973511197 129.4867716470264 33.161294282286576 131.56141505319806 31 134 C24.80501326562336 133.71292112228798 20.54226047733698 130.5102303921032 15.5 127.1875 C14.663350012296462 126.64687293349829 13.826113476933585 126.1071524581684 12.98828125 125.568359375 C8.629453274028435 122.75709576690184 4.3051854187112895 119.89268072170398 0 117 C-0.16500000000002046 116.17500000000001 -0.16500000000002046 116.17500000000001 -1 112 C1.298308353132711 109.70169164686729 1.9189834263847274 109.69690840504097 5.013671875 109.677734375 C7.55819817920559 109.92027523535575 9.560368551350507 111.24265838307184 11.72265625 112.51953125 C12.135841064453132 112.7565979003906 12.549025878906264 112.99366455078126 12.9747314453125 113.2379150390625 C13.986633548292843 113.81959412212063 14.994724174011367 114.40696718407793 16 115 C15.873294219970717 114.6538212585449 15.746588439941434 114.30764251708985 15.616043090820313 113.95097351074219 C-4.138833885595545 59.900178260747566 -4.138833885595545 59.900178260747566 -4.16796875 33.2109375 C-4.171197577022895 32.49687641981416 -4.17456273337325 31.782815944820243 -4.1780548095703125 31.068756103515625 C-4.1839711707253855 29.588139509191706 -4.185902193029335 28.10758066472465 -4.185302734375 26.626953125 C-4.18520063437245 24.746577378306483 -4.198934866022057 22.866575117918558 -4.2160749435424805 20.98628807067871 C-4.227276685970651 19.517429083836987 -4.2292195953224905 18.04865880050852 -4.228693008422852 16.579761505126953 C-4.2298576886802834 15.88693562884032 -4.234192364334376 15.19410627426339 -4.242025375366211 14.501323699951172 C-4.289941086747831 9.833526617062546 -4.264991237209642 4.469401161948895 -0.9305877685546875 0.834075927734375 C-0.623493804931627 0.5588308715820176 -0.31639984130856647 0.28358581542968864 0 0 Z " transform="translate(436,250)" />
    <path d="M0 0 C2.3100000000000023 0.3299999999999841 4.6200000000000045 0.660000000000025 7 1 C7.367301667319282 10.533518831753895 6.415709441179331 19.567689704437498 4.697269439697266 28.92233657836914 C4.497096581991514 30.015861085174834 4.300950096625513 31.110048772282028 4.105560302734375 32.204437255859375 C2.161638500044944 43.04032116821742 -0.2568772212738395 53.70167168843824 -3.1875 64.3125 C-3.355400390624993 64.92569091796872 -3.5233007812499864 65.5388818359375 -3.6962890625 66.170654296875 C-4.176011956360185 67.90483847629434 -4.668538924516781 69.6346800333148 -5.16796875 71.36328125 C-5.308451385498074 71.86386550903319 -5.4489340209960915 72.36444976806638 -5.5936737060546875 72.88020324707031 C-6.600161755507713 76.25320005793355 -8.061124814928291 79.06606849621232 -10 82 C-10.660000000000025 82.32999999999998 -10.660000000000025 82.32999999999998 -14 84 C-17.08269018743107 81.94487320837925 -17.08269018743107 81.94487320837925 -17.65625 79.98828125 C-18.341441616439056 76.48034488512371 -17.09217968533278 73.58733976932388 -15.911041259765625 70.3343505859375 C-12.625945908549454 61.16857114435288 -10.388349366447642 51.74696814428671 -8.3125 42.25 C-8.237302589416515 41.90724029541013 -8.16210517883303 41.564480590820324 -8.08462905883789 41.211334228515625 C-5.808513718276856 30.81221647418795 -3.9822580931227662 20.41356417363187 -2.885986328125 9.8154296875 C-2.8378982543945313 9.371030426025413 -2.7898101806640625 8.92663116455077 -2.740264892578125 8.468765258789063 C-2.654024424207307 7.656529215216267 -2.575012944883781 6.843472482649645 -2.505340576171875 6.0296478271484375 C-2.233634536939917 3.441966066896839 -1.5578760120155835 2.003774043366377 0 0 Z " transform="translate(356,311)" />
    <path d="M0 0 C1.6499999999999773 0 3.3000000000000114 0 5 0 C7.502056078213343 3.6228811991011867 8.655454832741043 6.914565223693103 9.47265625 11.21484375 C9.728874410957701 12.45631426457777 9.985995579644452 13.697598667260024 10.243896484375 14.938720703125 C10.377896339934523 15.596295219954243 10.511754539351045 16.253898617840832 10.645477294921875 16.911529541015625 C15.396621138442868 40.130876078500705 22.640929910629666 62.64526892191253 33 84 C32 91 32 91 31 92 C29.350000000000023 92 27.69999999999999 92 26 92 C20.487331033499288 81.6330423753542 15.995705436658227 71.0353105035349 12 60 C11.865514526367178 59.629193115234386 11.731029052734357 59.25838623046877 11.59246826171875 58.8763427734375 C7.227538790320125 46.792009988507516 3.841220734169781 34.52683257129553 1 22 C0.8657763671874932 21.410415039062514 0.7315527343749864 20.820830078125027 0.59326171875 20.21337890625 C-0.8362064670408813 13.753630269195014 -1.2580362075648281 7.60859398263284 -1 1 C-0.6700000000000159 0.6700000000000159 -0.339999999999975 0.339999999999975 0 0 Z " transform="translate(385,337)" />
    <path d="M0 0 C0.17055908203121817 -0.0016113281250227374 0.17055908203121817 -0.0016113281250227374 1.03369140625 -0.009765625 C6.782835291720858 -0.04288599303919227 12.170721232950882 0.7022276256284385 16.8125 4.3125 C16.8125 5.962499999999977 16.8125 7.612500000000011 16.8125 9.3125 C13.8125 11.3125 13.8125 11.3125 12.50244140625 11.18896484375 C4.334420593840036 10.453517551477205 -3.1699343363668504 9.872301569344302 -11.1796875 12.052734375 C-12.708253060613629 12.44672511058451 -14.254213472506535 12.692214157709373 -15.8125 12.9375 C-16.204375000000027 12.999374999999986 -16.204375000000027 12.999374999999986 -18.1875 13.3125 C-19.17750000000001 11.662500000000023 -20.167500000000018 10.012499999999989 -21.1875 8.3125 C-15.275530773687365 0.9225384671091774 -9.107126589137351 0.004200704146285261 0 0 Z " transform="translate(555.1875,443.6875)" />
    <path d="M0 0 C0.9900000000000091 0.9900000000000091 1.9799999999999898 1.9800000000000182 3 3 C2 8 2 8 0 10 C-0.4427929687499983 9.984289550781227 -0.8855859374999966 9.968579101562511 -1.341796875 9.952392578125 C-14.103348988252137 9.55898885142875 -21.89418377167891 10.694954216619124 -32 19 C-33.650000000000006 18.670000000000016 -35.3 18.339999999999975 -37 18 C-37.33 15.689999999999998 -37.66 13.379999999999995 -38 11 C-26.13851043746297 0.8479604038286084 -15.0771045984429 -0.8183131253329634 0 0 Z " transform="translate(115,447)" />
    <path d="M0 0 C2.7726440014406535 2.166982614538199 4.918573021182738 4.954841507624167 6.990234375 7.77392578125 C6.330234375000032 9.423925781249977 5.670234375000007 11.073925781250011 4.990234375 12.77392578125 C3.670234375000007 13.103925781249984 2.3502343750000136 13.433925781250025 0.990234375 13.77392578125 C0.6525000000000318 13.496777343750011 0.3147656250000068 13.219628906250023 -0.033203125 12.93408203125 C-0.4792187499999727 12.571855468750016 -0.9252343750000023 12.209628906249975 -1.384765625 11.83642578125 C-1.8256250000000023 11.476777343749973 -2.2664843750000045 11.117128906250002 -2.720703125 10.74658203125 C-3.800650243208395 9.931712842056413 -4.779648625501181 9.320005757663012 -6.009765625 8.77392578125 C-6.009765625 8.113925781249975 -6.009765625 7.453925781250007 -6.009765625 6.77392578125 C-6.574375000000032 6.6411523437499795 -7.138984375000007 6.508378906250016 -7.720703125 6.37158203125 C-9.255829408331863 5.989485190754294 -10.742585955691482 5.540289798589811 -12.236328125 5.02001953125 C-21.30728757235312 1.909436354095135 -28.61404572620779 1.996182567311621 -37.669921875 5.03955078125 C-40.7297880298338 6.050702605535378 -43.80401061696989 6.466088379816654 -47.009765625 6.77392578125 C-47.669765625000025 5.783925781249991 -48.32976562499999 4.793925781249982 -49.009765625 3.77392578125 C-47.99380448690147 -0.28991877114418685 -47.99380448690147 -0.28991877114418685 -45.197265625 -2.03857421875 C-31.26190296372448 -10.178456901773018 -13.255839842971966 -9.032908007282344 0 0 Z " transform="translate(351.009765625,454.22607421875)" />
    <path d="M0 0 C1.3498739639235282 0.0031465593564803385 2.6975164932053417 -0.020329269969522556 4.047119140625 -0.045654296875 C12.019352360397164 -0.10419357768955706 20.05689498117374 1.4965138326944043 26.924072265625 5.753173828125 C27.32279541015626 5.996323242187486 27.721518554687492 6.239472656249973 28.13232421875 6.489990234375 C35.7219595137004 11.439055813388904 42.04480394896166 18.840611712779776 47.799072265625 25.753173828125 C52.375613121631034 31.19808397475782 58.84940408760883 35.529995753143055 66.049072265625 36.315673828125 C73.37423037066935 36.45405101097754 80.1782784907781 34.68542699558844 87.049072265625 32.315673828125 C87.544072265625 32.645673828124984 87.544072265625 32.645673828124984 90.049072265625 34.315673828125 C90.049072265625 36.29567382812502 90.049072265625 38.27567382812498 90.049072265625 40.315673828125 C86.97941300941977 42.91251826998581 84.32000354353471 44.08788736289904 80.424072265625 45.003173828125 C79.89700683593753 45.128374023437516 79.36994140625 45.25357421875003 78.826904296875 45.382568359375 C68.87470045311181 47.585178966169906 59.3190249590931 46.7143719474754 50.503662109375 41.314453125 C43.18835147771051 36.51837409393653 37.59092574604466 29.994317766066672 32.049072265625 23.315673828125 C32.049072265625 22.655673828124975 32.049072265625 21.995673828125007 32.049072265625 21.315673828125 C31.76225585937499 21.180966796874998 31.76225585937499 21.180966796874998 30.310791015625 20.499267578125 C28.392035254450434 19.541153700015457 26.694513618660267 18.40901098545362 24.95703125 17.157958984375 C15.402041591504513 10.356390682784934 5.570808429297301 8.994131862251095 -5.950927734375 10.315673828125 C-12.202901004627051 11.570016341301312 -17.964986130324633 14.360580910144108 -22.950927734375 18.315673828125 C-27.950927734375 17.315673828125 -27.950927734375 17.315673828125 -29.950927734375 15.315673828125 C-28.841189129784937 10.87671940976469 -26.876651565992233 8.237349577892928 -23.041748046875 5.718505859375 C-22.067478304246606 5.153906115558243 -21.082648910517776 4.632513716951394 -20.075927734375 4.128173828125 C-19.924462890624994 4.050991210937525 -19.924462890624994 4.050991210937525 -19.157958984375 3.660400390625 C-12.859146401656915 0.6730005957350613 -6.868678582697754 -0.03331315281712932 0 0 Z " transform="translate(206.950927734375,455.684326171875)" />
    <path d="M0 0 C0.8249999999999886 0.3299999999999841 0.8249999999999886 0.3299999999999841 5 2 C5.1650000000000205 2.4950000000000045 5.1650000000000205 2.4950000000000045 6 5 C3.2152297406248067 10.099384500933809 -0.862867414662503 12.157597966529067 -6.0625 14.3125 C-6.37141174316406 14.441104125976551 -6.6803234863281205 14.569708251953102 -6.99859619140625 14.70220947265625 C-17.26732690288287 18.929791967747803 -29.172961161581384 19.93386356367705 -39.7734375 15.99609375 C-43.72080911502093 14.330850500643066 -47.953691308330804 12.046308691669196 -51 9 C-51 4 -51 4 -49 2 C-44.694258124020905 2.3377052451748455 -41.16966619944935 3.6602634375566367 -37.336181640625 5.5400390625 C-30.248313762708506 8.937135872968383 -21.750440112829153 8.71888155546526 -14.29296875 6.48974609375 C-10.761341102517122 5.2129427727191455 -7.362500553451184 3.667410113726305 -4 2 C-3.5953955078124977 1.8000341796874864 -3.1907910156249955 1.6000683593749727 -2.77392578125 1.39404296875 C-1.8474460637710308 0.933037059351193 -0.9234049450878956 0.4671342663385758 0 0 Z " transform="translate(480,456)" />
    <path d="M0 0 C0 0.660000000000025 0 1.3199999999999932 0 2 C0.6599999999999682 2 1.32000000000005 2 2 2 C2.1649999999999636 2.990000000000009 2.1649999999999636 2.990000000000009 3 8 C1.3500000000000227 8.990000000000009 -0.2999999999999545 9.980000000000018 -2 11 C-2.3717333984375273 10.768129882812502 -2.7434667968750546 10.536259765625005 -3.12646484375 10.29736328125 C-13.321332041837763 4.0107903187311535 -22.31683941976962 -0.6509040261616974 -34.65869140625 1.68017578125 C-38.90491513093798 2.6926535896485007 -42.96791140140556 4.3519029492437085 -47 6 C-52 5 -52 5 -53 4 C-53 -1.4227150537634543 -53 -1.4227150537634543 -50.53515625 -3.9140625 C-36.06719252505195 -14.148398162940339 -13.434828792112057 -9.187952821353235 0 0 Z " transform="translate(617,487)" />
    <path d="M0 0 C1.3125 1.125 1.3125 1.125 2 2 C1.670000000000016 3.6499999999999773 1.3400000000000034 5.300000000000011 1 7 C-3.687301336714711 7.83236709185104 -8.03553117325248 8.053447817803203 -12.7938232421875 7.90240478515625 C-23.142266472776015 7.624007480750379 -30.75200415876114 9.976496913573271 -39.8037109375 15.01806640625 C-43.07168587634335 16.783306783358398 -45.28346868383758 17.304633714439547 -49 17 C-49.33 14.689999999999998 -49.66 12.379999999999995 -50 10 C-48.68000000000001 9.339999999999975 -47.36 8.680000000000007 -46 8 C-46 7.339999999999975 -46 6.680000000000007 -46 6 C-33.03465583743653 -1.5548697537583394 -14.381306667443482 -7.477434956769628 0 0 Z " transform="translate(163,485)" />
    <path d="M0 0 C-1 5 -1 5 -2 6 C-2.2741271972656136 5.989526367187523 -2.2741271972656136 5.989526367187523 -3.661376953125 5.9365234375 C-24.329252584261724 5.2162831717884615 -24.329252584261724 5.2162831717884615 -33 10 C-33.30534667968749 10.165483398437516 -33.61069335937498 10.330966796874975 -33.92529296875 10.50146484375 C-37.972788929758735 12.77687661323398 -41.49889239716748 15.97067285428676 -45 19 C-50 18 -50 18 -51 17 C-51 11.392072971461403 -50.05180625837471 10.842472848755108 -46.546875 7.27880859375 C-40.836504451038365 1.6988904754327336 -33.96654202367466 -2.605078747065477 -25.9931640625 -3.84423828125 C-24.9759462393028 -4.00377244329519 -23.97097409055982 -4.202729883524455 -22.9609375 -4.40234375 C-15.53321094648578 -5.692638160490958 -5.4009017518925475 -5.4009017518925475 0 0 Z " transform="translate(414,487)" />
    <path d="M0 0 C3.43062445724604 1.3034370450454276 6.682008338427067 2.811118175568936 9.9375 4.5 C17.017183126569478 8.071029594679317 23.129738416390296 9.40895268739689 31 10 C32.32000000000005 10.990000000000009 33.639999999999986 11.980000000000018 35 13 C34.66999999999996 14.649999999999977 34.34000000000003 16.30000000000001 34 18 C27.419919627296622 21.29004018635169 18.222244317378568 18.92108066826654 11.60107421875 16.779052734375 C6.04971325000264 14.827547532249184 1.178544182041719 12.178544182041719 -3 8 C-3 6.019999999999982 -3 4.0400000000000205 -3 2 C-2.009999999999991 1.339999999999975 -1.0199999999999818 0.6800000000000068 0 0 Z " transform="translate(494,483)" />
  </g>
</svg>