<svg color="#2C3440" xmlns="http://www.w3.org/2000/svg" viewBox="0 0 136 478" width="136" height="478">
  <g fill="currentColor" transform="scale(0.50000000, 0.50000000)">
    <path d="M0 0 C1.6500000000000057 0.3299999999999983 3.3000000000000114 0.6599999999999966 5 1 C4 6 4 6 3.025390625 6.9111328125 C-10.812691742544189 19.969465888292405 -18.752655824251917 33.68670219617303 -24.0625 51.875 C-26.41811746852636 59.84270560710283 -29.799712311363805 65.9065124774604 -35.25 72.1875 C-35.417054443359376 72.38355834960937 -35.417054443359376 72.38355834960937 -36.262451171875 73.375732421875 C-42.961317566766354 80.71302457169756 -51.80854921913132 84.45586799282745 -60.875 88 C-67.0879212594546 90.44565867065336 -73.18630757212807 92.9530562816779 -79.0703125 96.125 C-79.52300506591797 96.36661865234373 -79.97569763183594 96.60823730468752 -80.44210815429688 96.857177734375 C-83.03844062795471 98.29812529985264 -85.00849331396337 99.79392295000284 -87 102 C-87.66 102 -88.32 102 -89 102 C-89 102.66 -89 103.32 -89 104 C-90.32 105.32 -91.64 106.63999999999999 -93 108 C-93.66 108 -94.32 108 -95 108 C-95.2475 108.55687499999999 -95.495 109.11374999999998 -95.75 109.6875 C-97.10389150662054 112.42471543729806 -99.03960361753272 114.67797710037854 -101 117 C-101.825 117.16499999999999 -101.825 117.16499999999999 -106 118 C-106.66 117.00999999999999 -107.32 116.01999999999998 -108 115 C-105.81316291584828 110.95190675936752 -103.1057962669509 107.56584821474826 -100 104.1875 C-99.76145294189453 103.92676696777343 -99.52290588378906 103.66603393554686 -99.27713012695313 103.39739990234375 C-94.76214595150928 98.50051794641504 -89.87642845317227 94.48101586438986 -84.28369140625 90.8408203125 C-83.11041974104202 90.07232514038583 -81.96750973740026 89.27298480657356 -80.82421875 88.4609375 C-74.37322443090878 84.0760048749961 -67.07392518656829 81.60318439452263 -59.75048828125 79.06640625 C-51.71915786338778 76.22808626473879 -43.759340160948284 72.34718926889084 -38.8125 65.125 C-38.48918701171874 64.66649658203124 -38.16587402343748 64.2079931640625 -37.832763671875 63.735595703125 C-33.27419994795008 56.8701804279668 -30.925524140120388 48.86180925760043 -28.373046875 41.09375 C-22.95534321959687 24.649016074917824 -13.608160120240768 10.864280422971511 0 0 Z " transform="translate(172,51)" />
    <path d="M0 0 C1.6500000000000057 0 3.3000000000000114 0 5 0 C5.164999999999992 0.6599999999999966 5.164999999999992 0.6599999999999966 6 4 C5.3125 4.6875 4.625 5.375 3.9375 6.0625 C3.4798828124999943 6.5252734375000045 3.0222656249999886 6.988046874999995 2.55078125 7.46484375 C1.5104666976945396 8.507834352600796 0.44568635684532865 9.513321886662496 -0.64453125 10.50390625 C-11.486988412929719 20.532792447494472 -16.41642902173686 33.91463343780991 -20.810028076171875 47.6572265625 C-22.981284923317872 54.40547825539841 -26.05157347518957 60.158492264664034 -30 66 C-29.340000000000003 66 -28.680000000000007 66 -28 66 C-28 66.99 -28 67.98 -28 69 C-29.980000000000018 69 -31.95999999999998 69 -34 69 C-33.670000000000016 70.98000000000002 -33.34 72.95999999999998 -33 75 C-35.77138470767363 76.52903983871647 -36.68216460537937 77 -40 77 C-41.650000000000006 78.32 -43.30000000000001 79.63999999999999 -45 81 C-44.00999999999999 81.99000000000001 -43.02000000000001 82.98000000000002 -42 84 C-42.16499999999999 84.495 -42.16499999999999 84.495 -43 87 C-44.31999999999999 86.67000000000002 -45.639999999999986 86.34 -47 86 C-47.329999999999984 85.00999999999999 -47.66 84.01999999999998 -48 83 C-48.25072265624999 83.13986328125 -48.25072265624999 83.13986328125 -49.51953125 83.84765625 C-54.918343772075346 86.74229677632377 -60.41848060280776 88.91545022519773 -66.18551635742188 90.93478393554688 C-77.55545550074399 94.93262359776313 -86.91228970157317 99.83737057311134 -95 109 C-95.3201708984375 109.35835937500002 -95.64034179687499 109.71671874999998 -95.97021484375 110.0859375 C-98.00612159884908 112.3688295598501 -100.01283734372515 114.67459689159327 -102 117 C-103.65 116.67000000000002 -105.3 116.34 -107 116 C-105.14079421109878 106.70397105549392 -94.33273635868362 97.20341266769873 -86.55224609375 91.94873046875 C-78.13104288151145 86.80170378067845 -68.73369452693873 83.16474186057306 -59.490234375 79.80322265625 C-54.272927156147404 77.84923115953413 -49.63224115273948 75.06856180649743 -45 72 C-44.34 72 -43.68000000000001 72 -43 72 C-43 69.69 -43 67.38 -43 65 C-41.01999999999998 64.34 -39.04000000000002 63.68000000000001 -37 63 C-32.46110722206174 54.5740767047848 -28.566173765861265 46.17966116103712 -25.434814453125 37.1248779296875 C-21.238405344327873 24.99608135234672 -16.478138707072958 15.652889273398273 -6.90478515625 6.84033203125 C-5.586892714529085 5.616320756451472 -4.326991587384896 4.341567859285604 -3.0625 3.0625 C-2.041666666666714 2.041666666666721 -1.0208333333333144 1.020833333333293 0 0 Z " transform="translate(180,60)" />
    <path d="M0 0 C1.6500000000000057 0.3299999999999983 3.299999999999997 0.6599999999999966 5 1 C5 1.6599999999999966 5 2.319999999999993 5 3 C5.584267578124994 3.2582958984374955 6.168535156250002 3.516591796875005 6.7705078125 3.78271484375 C9.1538246261388 4.978301363106979 10.831276931513997 6.574169049260547 12.671875 8.4765625 C12.999155883789058 8.806673278808589 13.32643676757813 9.136784057617191 13.66363525390625 9.476898193359375 C14.697258398583614 10.521623926419807 15.723666764329423 11.573116899843498 16.75 12.625 C17.453959897211206 13.339002583273583 18.158382756375445 14.05254902965126 18.86328125 14.765625 C20.580917547974508 16.505189667654264 22.292123200742637 18.250854802247574 24 20 C23.988398437499995 19.4573046875 23.976796875000005 18.914609374999998 23.96484375 18.35546875 C23.955458648864635 17.632815962577098 23.94635922238092 16.910159425644068 23.9375 16.1875 C23.92912109375 15.831074218750004 23.920742187499997 15.474648437500008 23.912109375 15.107421875 C23.891576988997556 12.869391800733737 24.1545671648132 11.110253612237912 25 9 C26.650000000000006 9 28.299999999999997 9 30 9 C32.78794155818066 11.787941558180663 32.062165657389755 18.42433958454255 32.0703125 22.141845703125 C32.036360681538255 29.945458977692624 32.036360681538255 29.945458977692624 30 33 C11 33 11 33 8 31 C8 29.680000000000007 8 28.36 8 27 C9.530783271256439 26.111653884752798 10.62018107570114 25.879745911226934 12.3828125 25.90234375 C12.827539062499994 25.905566406250003 13.272265625000003 25.908789062500006 13.73046875 25.912109375 C14.190664062500005 25.92048828125 14.650859374999996 25.928867187500003 15.125 25.9375 C15.592929687500003 25.942011718749995 16.060859375000007 25.946523437500005 16.54296875 25.951171875 C17.695443284564234 25.96293181923025 18.847655799614657 25.979365737458664 20 26 C19.735500488281247 25.735500488281247 19.471000976562493 25.471000976562493 19.198486328125 25.198486328125 C12.465657552083329 18.46565755208333 5.732828776041671 11.732828776041671 -1 5 C-0.6700000000000017 3.3499999999999943 -0.3400000000000034 1.7000000000000028 0 0 Z " transform="translate(94,82)" />
    <path d="M0 0 C1.6500000000000057 0.3299999999999983 3.3000000000000114 0.6599999999999966 5 1 C5.164999999999992 1.6599999999999966 5.164999999999992 1.6599999999999966 6 5 C2.603354772730029 8.81089316566215 -0.8352408838314602 12.578941227883647 -4.33599853515625 16.29449462890625 C-4.908878136713383 16.903182496761644 -5.478884508814247 17.514572222559153 -6.04833984375 18.12646484375 C-15.340114162178281 27.90171359825908 -29.915040004026707 32.613782228253 -42.2607421875 37.210693359375 C-46.78960991534598 38.92346065577402 -50.47207049747223 40.5788412215054 -54 44 C-54.66 44 -55.31999999999999 44 -56 44 C-56 44.66 -56 45.31999999999999 -56 46 C-56.66 46 -57.31999999999999 46 -58 46 C-58 48.31 -58 50.620000000000005 -58 53 C-58.66 53.16499999999999 -58.66 53.16499999999999 -62 54 C-62.329999999999984 53.00999999999999 -62.66 52.02000000000001 -63 51 C-63.66 51 -64.32 51 -65 51 C-64.34 52.97999999999999 -63.68000000000001 54.96000000000001 -63 57 C-63.82499999999999 57.16499999999999 -63.82499999999999 57.16499999999999 -68 58 C-68.1716064453125 58.51626953125 -68.34321289062501 59.03253906250001 -68.52001953125 59.564453125 C-69.19191835850279 61.584317058207205 -69.86574792925518 63.6035329205086 -70.5401611328125 65.62255859375 C-70.84580765250882 66.53811880831148 -71.15106720196829 67.45380830149514 -71.4559326171875 68.36962890625 C-72.41656861237573 71.25382593707724 -73.38788071794707 74.13414971247943 -74.36962890625 77.01123046875 C-74.70617475819333 78.00265878041682 -75.03951860233971 78.99517988009262 -75.36962890625 79.98876953125 C-78.38222250915774 89.04442923375905 -82.05141452078823 97.20851067831552 -88.25 104.5625 C-88.62697021484375 105.01794189453125 -89.0039404296875 105.4733837890625 -89.392333984375 105.942626953125 C-93.19251679795562 110.42261937557998 -97.47684579923245 114.26813045846836 -102 118 C-103.65 117.67000000000002 -105.3 117.34 -107 117 C-107 115.35 -107 113.69999999999999 -107 112 C-106.5037109375 111.65968750000002 -106.007421875 111.31937499999998 -105.49609375 110.96875 C-93.00170278057905 102.16011144843006 -86.30742981675056 90.43380272283076 -81.9375 76 C-81.31121498834472 73.95493481967503 -80.67541085717369 71.9132699583966 -80.02734375 69.875 C-79.9489752960205 69.62767623901368 -79.9489752960205 69.62767623901368 -79.55238342285156 68.37606811523438 C-78.27371240885356 64.49544701402422 -76.60813144779124 60.91098498798132 -74.60508728027344 57.351318359375 C-72.5399935665775 53.56949432463426 -72.4671323797503 50.23925795665306 -73 46 C-72.00999999999999 45.670000000000016 -71.02000000000001 45.34 -70 45 C-70 46.650000000000006 -70 48.30000000000001 -70 50 C-66.96942044622068 47.09064362837185 -64.20587373547218 43.99542320768626 -61.462646484375 40.818359375 C-60.02417388953478 39.155162991325085 -58.58777381062379 37.52489167950998 -57 36 C-57.99000000000001 35.34 -58.97999999999999 34.68000000000001 -60 34 C-60 32.349999999999994 -60 30.700000000000003 -60 29 C-58.68000000000001 28.67 -57.360000000000014 28.340000000000003 -56 28 C-54.68000000000001 29.650000000000006 -53.360000000000014 31.299999999999997 -52 33 C-51.3077734375 32.624882812500005 -50.61554687500001 32.24976562500001 -49.90234375 31.86328125 C-44.170568632122894 28.83922773414676 -38.55236763528407 26.41086153995967 -32.375 24.5 C-25.956788560714074 22.493966711194147 -20.45347664957211 19.939764233644695 -15 16 C-14.681279296875005 15.772319335937496 -14.362558593750009 15.544638671874992 -14.0341796875 15.31005859375 C-8.354681312650712 11.13964951019453 -4.234785553461961 5.565718155978601 0 0 Z " transform="translate(213,93)" />
    <path d="M0 0 C1.3199999999999932 1.3199999999999932 2.6399999999999864 2.6400000000000006 4 4 C-7.036877560688367 22.30823218890656 -24.420882549905343 32.31330767004167 -43.92303466796875 39.7008056640625 C-54.340837128090016 43.65899617369118 -63.11528025450639 48.58410432188799 -68 59 C-70.09936968868794 63.92591831063959 -71.87686525357248 68.97069567924558 -73.65362548828125 74.01971435546875 C-79.69189418184524 91.10881276733326 -87.73179369955238 104.49972846935322 -101 117 C-101.66 117 -102.32 117 -103 117 C-103 117.66 -103 118.32 -103 119 C-103.66 119.16499999999999 -103.66 119.16499999999999 -107 120 C-107.66 119.34 -108.32 118.68 -109 118 C-108 113 -108 113 -106.49609375 111.75 C-91.85938868788523 99.39551791360913 -83.82988426349942 84.17727108895977 -79.0625 65.8125 C-75.08816941555995 51.169582158205344 -66.86737295861158 42.63270738431271 -54.0546875 35.2578125 C-48.87266479366781 32.45275915973025 -43.447076454647714 30.38454342177488 -37.92236328125 28.380126953125 C-23.6571831639107 23.20276437906969 -11.770974384993451 15.282581376067299 -3.12109375 2.49609375 C-2 1 -2 1 0 0 Z " transform="translate(224,100)" />
    <path d="M0 0 C5 1 5 1 7 3 C6.6699999999999875 4.650000000000006 6.340000000000003 6.299999999999997 6 8 C5.009999999999991 8.329999999999998 4.02000000000001 8.659999999999997 3 9 C1.3499999999999943 8.010000000000005 -0.30000000000001137 7.019999999999996 -2 6 C-1 1 -1 1 0 0 Z " transform="translate(160,113)" />
    <path d="M0 0 C4 2 4 2 6 7 C5.009999999999991 8.319999999999993 4.02000000000001 9.639999999999986 3 11 C1.3499999999999943 10.669999999999987 -0.29999999999999716 10.340000000000003 -2 10 C-2.3299999999999983 7.689999999999998 -2.6599999999999966 5.3799999999999955 -3 3 C-2.010000000000005 2.009999999999991 -1.019999999999996 1.0200000000000102 0 0 Z " transform="translate(128,147)" />
    <path d="M0 0 C6.930000000000007 0 13.860000000000014 0 21 0 C21.659999999999997 1.3199999999999932 22.319999999999993 2.6399999999999864 23 4 C22.670000000000016 4.659999999999997 22.340000000000003 5.319999999999993 22 6 C18.69999999999999 6 15.400000000000006 6 12 6 C18.542461211022527 13.788644298836346 25.76518287841367 20.862971007526397 33 28 C32.83500000000001 28.82499999999999 32.83500000000001 28.82499999999999 32 33 C27 32 27 32 25.395263671875 30.363525390625 C23.42674497961923 28.358770917430576 21.451585405200262 26.360671905154277 19.474365234375 24.364501953125 C18.620002445662806 23.5000897443976 17.767444349430946 22.63388990198422 16.916748046875 21.765869140625 C15.692708748614734 20.517534841698733 14.46229499264939 19.275801314681843 13.23046875 18.03515625 C12.852224578857431 17.64658950805665 12.473980407714834 17.25802276611327 12.084274291992188 16.857681274414063 C10.176803151766563 14.949410054015544 8.739527061758821 13.549421056645969 6 13 C6.081210937500003 13.134062499999999 6.081210937500003 13.134062499999999 6.4921875 13.8125 C7.118661054665807 15.277484312449246 7.132948161315312 16.410367736937104 7.125 18 C7.127578125000014 18.515625 7.130156249999999 19.03125 7.1328125 19.5625 C7 21 7 21 6 23 C4.349999999999994 23 2.6999999999999886 23 1 23 C-4.206833117271117 17.793166882728883 -0.6497505019132745 8.355239459821291 -1 1 C-0.6699999999999875 0.6699999999999875 -0.3400000000000034 0.3400000000000034 0 0 Z " transform="translate(167,156)" />
    <path d="M0 0 C4.357965985815156 2.086381931823894 6.5269976020896365 5.211422029677749 8.859375 9.31640625 C8.859375 20.31640625 8.859375 20.31640625 6.671875 24.12890625 C6.45635986328125 24.519250488281273 6.2408447265625 24.90959472656249 6.018798828125 25.311767578125 C3.993502687862758 28.684977513217177 2.6776709377331827 29.02542868736009 -1.140625 31.31640625 C-14.579600050573163 31.31640625 -14.579600050573163 31.31640625 -19.140625 27.31640625 C-23.3422929342467 22.564047118322094 -24.56188131572047 18.756404250289904 -24.25634765625 12.4619140625 C-23.816851212740133 8.111455596364408 -21.293866193279413 5.18988096098235 -18.078125 2.50390625 C-13.045873017883281 -1.4527498886108674 -6.1246672700965235 -2.333914469429999 0 0 Z M-17.140625 10.31640625 C-17.140625 19.31640625 -17.140625 19.31640625 -15.265625 21.75390625 C-14.917578125000006 22.206367187500007 -14.569531250000011 22.658828125000014 -14.2109375 23.125 C-12.624432441642341 24.891000156201017 -11.795276748385902 25.27937843617724 -9.4140625 25.4140625 C-8.78757812500001 25.402460937499995 -8.161093749999992 25.39085937499999 -7.515625 25.37890625 C-7.199804687500006 25.374394531250005 -7.199804687500006 25.374394531250005 -5.6015625 25.3515625 C-3.0093263211295778 25.289182485000424 -0.989504280595014 23.031980754878134 0.859375 21.31640625 C2.828741534809069 18.387097233399572 2.8964458703617026 16.38461505134262 2.33984375 12.98046875 C1.479295101662018 10.00003196795143 -0.4999564730091208 7.467004957240363 -3.04296875 5.68359375 C-4.635505280927703 5.150859109760859 -6.092931789634804 5.222930449808075 -7.765625 5.25390625 C-11.140625 5.31640625 -11.140625 5.31640625 -17.140625 10.31640625 Z " transform="translate(148.140625,279.68359375)" />
    <path d="M0 0 C3.239202897179439 4.858804345769158 1.019211949848966 12.281823865782485 0 18 C-0.7548234105866243 21.0912717843849 -1.8028035282977157 24.05489667961234 -3 27 C-3.990000000000009 27.329999999999984 -4.97999999999999 27.660000000000025 -6 28 C-6.659999999999997 27.670000000000016 -7.319999999999993 27.339999999999975 -8 27 C-9.073628720060583 23.726558587787395 -8.92831177893612 21.55191572836503 -8.0625 18.25 C-8.012548828125006 18.04439453125002 -8.012548828125006 18.04439453125002 -7.759765625 17.00390625 C-7.514760883898475 16.000553500727165 -7.2585345888165875 14.99995196335675 -7 14 C-7.240087890625006 14.19521240234377 -7.480175781250011 14.390424804687484 -7.7275390625 14.591552734375 C-10.31190073662907 16.68785174991382 -12.91431319889773 18.76020382673994 -15.52490234375 20.82373046875 C-16.941347232006933 21.95322922274238 -18.33979800465616 23.10230271642837 -19.73828125 24.25390625 C-30.78463708938625 33.16232025909267 -43.135732330915516 38.4480196131376 -56.6875 42.375 C-57.10095672607423 42.496604919433594 -57.51441345214843 42.61820983886719 -57.940399169921875 42.743499755859375 C-60.93691282609922 43.61134169314141 -63.95013065345387 44.344997209091275 -67 45 C-67.45620727539063 45.10024475097657 -67.91241455078125 45.20048950195314 -68.3824462890625 45.30377197265625 C-80.75394314675343 47.87892765642556 -93.50383403190506 47.23223545601792 -106.0665283203125 47.1373291015625 C-109.11072989503616 47.11657551674665 -112.15496627003708 47.107673429289605 -115.19921875 47.09765625 C-132.96585810867245 47.03414189132752 -132.96585810867245 47.03414189132752 -135 45 C-134.67000000000002 43.68000000000001 -134.34 42.360000000000014 -134 41 C-132.55694038038865 40.181542869834175 -131.51676454726282 39.87349816031758 -129.86180114746094 39.861968994140625 C-129.4376693725586 39.85651565551757 -129.01353759765624 39.85106231689451 -128.57655334472656 39.84544372558594 C-128.11486251831053 39.8444013977051 -127.65317169189453 39.8433590698242 -127.177490234375 39.84228515625 C-126.68756591796875 39.83720443725588 -126.1976416015625 39.8321237182617 -125.69287109375 39.82688903808594 C-124.62618741914781 39.81618109699855 -123.55948121824831 39.80756256598943 -122.49276542663574 39.8007698059082 C-120.78657113132776 39.7889094125581 -119.08062198639885 39.76942534181683 -117.37452697753906 39.747650146484375 C-112.52198917832368 39.686373280875785 -107.66946158336921 39.632640934813594 -102.816650390625 39.5986328125 C-72.2811143466592 39.372565406624574 -41.231160792244225 34.925340726299 -18 13 C-17.709316406249997 12.727524414062486 -17.418632812499993 12.455048828124973 -17.119140625 12.17431640625 C-15.697523650172883 10.826144013851604 -14.321367704412978 9.446549907988981 -13 8 C-13.317512207031257 8.035529785156257 -13.635024414062514 8.071059570312514 -13.962158203125 8.107666015625 C-15.411626820580068 8.266015769747867 -16.8619562782456 8.414336013288619 -18.3125 8.5625 C-18.81201171875 8.618574218749984 -19.3115234375 8.674648437500025 -19.826171875 8.732421875 C-22.47491655236371 8.995542207188464 -24.51176938187325 9.146454380365583 -27 8 C-27 6.680000000000007 -27 5.360000000000014 -27 4 C-17.87416499778945 1.6088827687084404 -9.460248268930542 -0.22114866083217066 0 0 Z " transform="translate(200,295)" />
    <path d="M0 0 C5 6 5 6 5 12 C4.403389931184947 12.963055847122803 3.797341054534641 13.920267562563765 3.1875 14.875 C3.019277343749991 15.141835937499991 3.019277343749991 15.141835937499991 2.16796875 16.4921875 C0.8754777763621604 18.160754442555856 -0.2037828673547608 18.939768683882733 -2 20 C-8.022120786516851 20 -8.022120786516851 20 -10.9375 17.625 C-11.076396484374996 17.514140624999982 -11.076396484374996 17.514140624999982 -11.779296875 16.953125 C-14.490655637254903 14.731770833333314 -14.490655637254903 14.731770833333314 -15 13 C-15.09765625 11.2734375 -15.09765625 11.2734375 -15.0625 9.375 C-15.053476562499995 8.743359375000011 -15.044453125000004 8.111718750000023 -15.03515625 7.4609375 C-14.972169623106524 4.843493226870919 -12.779000489620799 2.813102735428231 -11 1 C-6.874415039702782 -1.325754694331863 -5.1061268081068505 -0.8510211346844585 0 0 Z M-6 6 C-6.659999999999997 6.660000000000025 -7.319999999999993 7.319999999999993 -8 8 C-7.670000000000002 9.319999999999993 -7.340000000000003 10.639999999999986 -7 12 C-6.340000000000003 12.16500000000002 -6.340000000000003 12.16500000000002 -3 13 C-2.3400000000000034 11.680000000000007 -1.6800000000000068 10.360000000000014 -1 9 C-1.6599999999999966 8.009999999999991 -2.319999999999993 7.019999999999982 -3 6 C-3.989999999999995 6 -4.980000000000004 6 -6 6 Z " transform="translate(116,309)" />
    <path d="M0 0 C7 0 7 0 13 5 C13 7.639999999999986 13 10.279999999999973 13 13 C8 18 8 18 2 19 C-2.135634447781058 16.876295824112447 -3.876295824112418 15.135634447781058 -6 11 C-5 5 -5 5 0 0 Z M3 7 C2.6699999999999875 8.319999999999993 2.3400000000000034 9.639999999999986 2 11 C2.990000000000009 11 3.9799999999999898 11 5 11 C5 9.680000000000007 5 8.360000000000014 5 7 C4.340000000000003 7 3.680000000000007 7 3 7 Z " transform="translate(172,334)" />
    <path d="M0 0 C1.6500000000000057 0.3299999999999841 3.3000000000000114 0.660000000000025 5 1 C6 8 6 8 5 10 C2.6899999999999977 9.670000000000016 0.37999999999999545 9.339999999999975 -2 9 C-2.3300000000000125 7.350000000000023 -2.6599999999999966 5.699999999999989 -3 4 C-2.009999999999991 2.680000000000007 -1.0200000000000102 1.3600000000000136 0 0 Z " transform="translate(134,344)" />
    <path d="M0 0 C6 1 6 1 21 15 C19.356143485677308 23.219282571613462 11.366308192550889 28.747795741145524 5 34 C3.3499999999999943 34 1.6999999999999886 34 0 34 C-0.16499999999999204 33.34000000000003 -0.16499999999999204 33.34000000000003 -1 30 C1.6399999999999864 27.360000000000014 4.280000000000001 24.720000000000027 7 22 C7 21.670000000000016 7 21.339999999999975 7 21 C6.683233976364136 21.000921792984002 6.3664679527282715 21.001843585968004 6.040102958679199 21.002793312072754 C-1.6719111101391775 21.02488954629473 -9.383914149107852 21.04143155143629 -17.095952033996582 21.051812171936035 C-20.825454205608764 21.05696574842034 -24.554935230418295 21.06399054946297 -28.284423828125 21.075439453125 C-31.535513129769043 21.085414983292196 -34.78658711377747 21.0918602584386 -38.03769129514694 21.09408849477768 C-39.75870102649034 21.095390733014142 -41.479666941060344 21.09844570424002 -43.20066261291504 21.105730056762695 C-45.123122545622124 21.11380093284805 -47.04553983346017 21.11398928969885 -48.968017578125 21.113525390625 C-49.53697753906249 21.117120666503922 -50.10593750000001 21.120715942382787 -50.692138671875 21.124420166015625 C-53.321925254697305 21.117544808212983 -55.546213343303094 21.07700952988955 -58 20 C-58.33000000000001 18.350000000000023 -58.66 16.69999999999999 -59 15 C-52.47572414592236 10.650482763948219 -40.966567577997864 12.959291375496889 -33.12931442260742 12.948187828063965 C-29.58928983150247 12.943038784047587 -26.049287588125964 12.936022698718148 -22.50927734375 12.924560546875 C-19.0922652037508 12.913501954217793 -15.675276286464282 12.907713549156085 -12.258247375488281 12.905122756958008 C-10.955321094393469 12.90327668160478 -9.652396066399035 12.899671771533917 -8.349479675292969 12.894269943237305 C-6.522997707900089 12.886999365732947 -4.696611324245453 12.886011595450327 -2.8701171875 12.886474609375 C-2.601460952758771 12.884676971435567 -2.601460952758771 12.884676971435567 -1.2418975830078125 12.875579833984375 C1.6839238336966105 12.883592888094597 4.195492337974287 13.153548501266812 7 14 C5.439744995816511 9.787311488704631 2.4590186777814154 7.654089803077568 -1 5 C-0.6700000000000159 3.3500000000000227 -0.3400000000000034 1.6999999999999886 0 0 Z " transform="translate(206,346)" />
    <path d="M0 0 C4 1 4 1 6 3 C6 4.649999999999977 6 6.300000000000011 6 8 C5.340000000000003 8.660000000000025 4.680000000000007 9.319999999999993 4 10 C2.3499999999999943 10 0.7000000000000028 10 -1 10 C-1.6599999999999966 9.339999999999975 -2.319999999999993 8.680000000000007 -3 8 C-3 6.350000000000023 -3 4.699999999999989 -3 3 C-2.010000000000005 2.009999999999991 -1.019999999999996 1.0199999999999818 0 0 Z " transform="translate(80,347)" />
    <path d="M0 0 C0.815579472785231 0.7884938076373942 1.6273566655522416 1.5809218308245931 2.4375 2.375 C2.6637304687500034 2.5954296874999727 2.6637304687500034 2.5954296874999727 3.80859375 3.7109375 C6.0423019157414615 6.1277364989989564 6.136758283129552 7.8919085960515645 6.0625 11.125 C6.0579882812500045 11.497539062499982 6.053476562499995 11.87007812500002 6.048828125 12.25390625 C6.013998445931122 14.9706212173719 5.289102272744856 15.894767715759826 3.625 17.9375 C3.514140624999996 18.076396484374982 3.514140624999996 18.076396484374982 2.953125 18.779296875 C0.7162043539325964 21.509655898876417 0.7162043539325964 21.509655898876417 -1 22 C-2.3941237888292477 22.069986133977352 -3.7341355792506192 22.094445649239844 -5.125 22.0625 C-5.497539062499996 22.057988281250005 -5.870078124999992 22.05347656250001 -6.25390625 22.048828125 C-9.776531678968567 22.003666260526018 -11.770965542817208 20.05452776869322 -14.31640625 17.7275390625 C-15.83483752510476 16.111494348281383 -16.47808055738051 14.114673603716938 -17 12 C-16.679937682246816 7.343093276691093 -15.527505396179123 4.1593145972513526 -12 1 C-8.152591371553996 -1.6891921901248566 -4.380861711597589 -0.934247166162038 0 0 Z M-8 7 C-8.659999999999997 8.319999999999993 -9.319999999999993 9.639999999999986 -10 11 C-9.010000000000005 12.319999999999993 -8.019999999999996 13.639999999999986 -7 15 C-5.349999999999994 14.670000000000016 -3.700000000000003 14.339999999999975 -2 14 C-1.3400000000000034 12.680000000000007 -0.6800000000000068 11.360000000000014 0 10 C-0.6599999999999966 9.009999999999991 -1.3199999999999932 8.019999999999982 -2 7 C-3.980000000000004 7 -5.960000000000008 7 -8 7 Z " transform="translate(114,352)" />
    <path d="M0 0 C1.9799999999999898 0 3.960000000000008 0 6 0 C6.990000000000009 0.9900000000000091 7.97999999999999 1.9800000000000182 9 3 C9 5.310000000000002 9 7.6200000000000045 9 10 C7.680000000000007 10.990000000000009 6.360000000000014 11.980000000000018 5 13 C-1 12 -1 12 -3 10 C-3 7.689999999999998 -3 5.3799999999999955 -3 3 C-2.010000000000005 2.009999999999991 -1.0200000000000102 1.0199999999999818 0 0 Z " transform="translate(130,370)" />
    <path d="M0 0 C5 1 5 1 6 2 C6 3.6499999999999773 6 5.300000000000011 6 7 C4.019999999999996 7.329999999999984 2.0400000000000063 7.660000000000025 0 8 C-0.6599999999999966 6.680000000000007 -1.3199999999999932 5.360000000000014 -2 4 C-1.3400000000000034 2.680000000000007 -0.6800000000000068 1.3600000000000136 0 0 Z " transform="translate(82,371)" />
    <path d="M0 0 C2.6399999999999864 0 5.280000000000001 0 8 0 C13 5 13 5 14 10 C10.649253731343293 16.701492537313413 10.649253731343293 16.701492537313413 7 18 C3.711367209266996 18.45724306181313 0.8267523560154189 18.253201866902657 -2.140625 16.73046875 C-3 16 -3 16 -5 13 C-5 5 -5 5 0 0 Z M2 7 C2 8.319999999999993 2 9.639999999999986 2 11 C3.6500000000000057 10.670000000000016 5.300000000000011 10.339999999999975 7 10 C6.6699999999999875 9.009999999999991 6.340000000000003 8.019999999999982 6 7 C4.680000000000007 7 3.3600000000000136 7 2 7 Z " transform="translate(178,375)" />
    <path d="M0 0 C2.998278618866337 -0.015437002228793517 5.996287259898992 -0.03625331719274527 8.994410514831543 -0.07088184356689453 C34.06124265204312 -0.35251293678015827 57.12453104420837 1.8199830244908526 79.64455699920654 13.530436515808105 C80.07999828338623 13.755055656433115 80.51543956756592 13.979674797058124 80.9640760421753 14.211100578308105 C87.39556521276944 17.56268304467949 93.06422325366327 21.529566401486363 98.64455699920654 26.155436515808105 C98.64455699920654 26.81543651580813 98.64455699920654 27.4754365158081 98.64455699920654 28.155436515808105 C99.24268199920652 28.423561515808103 99.84080699920656 28.6916865158081 100.45705699920654 28.967936515808105 C102.81004541472763 30.022724426214097 103.5991515735605 31.110031090162067 105.64455699920654 33.155436515808105 C105.47955699920655 31.340436515808108 105.47955699920655 31.340436515808108 104.64455699920654 22.155436515808105 C104.97455699920653 21.6604365158081 104.97455699920653 21.6604365158081 106.64455699920654 19.155436515808105 C108.29455699920655 19.48543651580809 109.94455699920655 19.81543651580813 111.64455699920654 20.155436515808105 C114.03117792400468 28.8677614451683 114.81076140770327 37.143464143985625 114.64455699920654 46.155436515808105 C112.99841584977926 47.80157766523541 110.31430315797402 47.27423899115422 108.05398082733154 47.289469718933105 C104.43046445663799 47.256110961308195 100.91093213202637 46.90136637549449 97.33205699920654 46.342936515808105 C97.08665172576906 46.307890129089344 97.08665172576906 46.307890129089344 95.84475231170654 46.130534172058105 C92.27320713770035 45.52315327179434 89.62061919038035 44.20153007909255 86.64455699920654 42.155436515808105 C87.30455699920654 40.83543651580811 87.96455699920654 39.51543651580812 88.64455699920654 38.155436515808105 C92.60455699920652 38.155436515808105 96.56455699920656 38.155436515808105 100.64455699920654 38.155436515808105 C81.49108792992791 19.87257967695126 57.58141000066817 9.165042401835763 30.984400749206543 7.6007490158081055 C30.621259632110593 7.578980350494362 30.258118515014644 7.557211685180675 29.883973121643066 7.534783363342285 C23.953409172343157 7.188958358572279 18.04128389436667 7.0869255115694045 12.101588249206543 7.1280927658081055 C11.705353851318364 7.130701732635487 11.309119453430185 7.133310699462868 10.900877952575684 7.135998725891113 C7.2575890229545905 7.162034855940703 3.614503913224624 7.201950901794191 -0.02853870391845703 7.2513837814331055 C-2.058146062336462 7.278345664506389 -4.087646793582195 7.295249857578028 -6.117400169372559 7.306252479553223 C-6.874449452109673 7.3123692495955765 -7.63147988970735 7.32225263828974 -8.388422966003418 7.336331367492676 C-13.051117118577338 7.422720933386586 -17.01204369833833 6.979477326808706 -21.355443000793457 5.1554365158081055 C-19.34697688646574 -2.878427941502764 -7.333244395237671 0.03649552462786687 0 0 Z " transform="translate(86.35544300079346,384.8445634841919)" />
    <path d="M0 0 C5 6 5 6 5 12 C4.3808271248813355 12.982861796911664 3.7544387463070024 13.961180776713604 3.125 14.9375 C2.7769531250000057 15.482773437499986 2.428906249999997 16.028046874999973 2.0703125 16.58984375 C0.5725429017160764 18.56318252730108 0.5725429017160764 18.56318252730108 -1 19 C-2.3941237888292477 19.069986133977352 -3.7341355792506192 19.094445649239844 -5.125 19.0625 C-5.497539062499996 19.057988281250005 -5.870078124999992 19.05347656250001 -6.25390625 19.048828125 C-8.778104555537226 19.016466608262363 -9.445912125921978 18.670878406508166 -11.4375 17.125 C-11.889960937500007 16.776953124999977 -12.342421875 16.42890625000001 -12.80859375 16.0703125 C-14.499585867801713 14.551191712204343 -14.928815600903775 13.672113163559686 -15.16796875 11.4140625 C-15.208705161157269 7.682607237994091 -15.026788811315072 5.166857517679773 -13 2 C-7 -1 -7 -1 0 0 Z M-7 6 C-7.329999999999998 7.980000000000018 -7.659999999999997 9.95999999999998 -8 12 C-7.174999999999997 12.16500000000002 -7.174999999999997 12.16500000000002 -3 13 C-2 8 -2 8 -3 6 C-4.319999999999993 6 -5.640000000000001 6 -7 6 Z " transform="translate(116,399)" />
    <path d="M0 0 C3.148919422645463 2.464753085691825 5.67453089012767 5.460191987919131 6.6875 9.375 C7.426600712806618 15.690549204641059 7.189414315038192 20.449698130891477 3.35107421875 25.60107421875 C0.5555325816721677 28.86151093307552 -3.701736202125005 31.046283977022995 -7.92578125 31.578125 C-12.374693728483464 31.700853620096098 -15.696792092497446 31.06181057214968 -19.3125 28.375 C-21.210492368659544 26.50322299554847 -22.776172362138794 24.549048544143204 -24.3125 22.375 C-24.561289062499995 22.046289062500023 -24.810078125000004 21.71757812499999 -25.06640625 21.37890625 C-27.06759935301872 18.230175843152324 -26.850800422188897 13.951233497908447 -26.3125 10.375 C-24.757730918266333 4.7699921339181515 -20.751493654773725 1.6676624365157977 -16.12890625 -1.4140625 C-11.312907655299455 -3.9137157498445845 -4.496946447043939 -2.647948161711156 0 0 Z M-18.3125 8.375 C-20.3125 15.375 -20.3125 15.375 -17.3125 22.375 C-13.47139821910784 24.935734520594792 -9.75443563833619 24.569065149247706 -5.3125 24.375 C-0.3125 19.375 -0.3125 19.375 0.6875 12.375 C-1.268403557812519 8.756578418046843 -2.872828425525597 6.628577928103937 -6.3125 4.375 C-13.3125 4.375 -13.3125 4.375 -18.3125 8.375 Z " transform="translate(150.3125,416.625)" />
    <path d="M0 0 C3.180278460775469 0.6450888416661655 5.798019237175993 2.377338347234172 8.5272216796875 4.06036376953125 C23.620309364988998 13.288027169336601 39.36309395253559 17.296655740412348 56.44000244140625 21.371429443359375 C67.5837644369586 24.04226053070863 67.5837644369586 24.04226053070863 69.0234375 25.48193359375 C69.36025948098376 42.64788891484625 69.29309807693213 59.27942220829027 66.38720703125 76.2587890625 C65.81616157568467 79.65081029855708 65.41926381311049 83.06579323723304 65.0234375 86.48193359375 C65.32000244140625 86.65732666015629 65.61656738281249 86.83271972656246 65.922119140625 87.013427734375 C72.36346311928662 90.86177858828023 78.16724201379009 94.71085314129857 83.0234375 100.48193359375 C83.41015625 100.93955078124998 83.796875 101.39716796874995 84.1953125 101.86865234375 C85.3026561772333 103.35504827972852 86.16781469530048 104.8367876001646 87.0234375 106.48193359375 C87.2053564453125 106.82611328124995 87.387275390625 107.17029296875 87.57470703125 107.52490234375 C92.39011737039598 117.06617185766231 93.01706288033253 129.96965165620327 89.8896484375 140.20166015625 C89.09036342066051 142.38658440705376 88.13049315392448 144.43716641561093 87.0234375 146.48193359375 C86.80913085937499 146.88202636718756 86.59482421875 147.282119140625 86.3740234375 147.6943359375 C80.77973915874199 157.7469472069713 72.06300095065578 164.38996962478927 61.23046875 168.09521484375 C50.256626446777716 170.51567484505688 37.93290452070718 168.92807176903227 28.49609375 162.91552734375 C27.313050903724417 162.13605022276897 26.15253383762888 161.34371367054734 25.013671875 160.5009765625 C22.70496614139836 158.80046634125313 20.852640057706594 158.00726650714967 18.0234375 157.48193359375 C17.757165527343744 157.67303710937495 17.49089355468749 157.864140625 17.216552734375 158.06103515625 C8.278560746816197 164.45438255600152 8.278560746816197 164.45438255600152 4.2734375 166.91943359375 C3.7835937499999943 167.22751953124998 3.2937499999999886 167.53560546874996 2.7890625 167.85302734375 C-0.42780046498378965 168.99885685118898 -3.381889229913014 169.10021243933613 -6.59423828125 167.854736328125 C-8.330361550424982 166.9660495284745 -10.001393949607817 165.9986060003714 -11.6640625 164.98193359375 C-12.272014181939781 164.62272854146659 -12.880254308720595 164.26401127019335 -13.48876953125 163.90576171875 C-19.24989096195668 160.47190518282378 -24.66727265927055 156.5766369799046 -29.9765625 152.48193359375 C-29.9765625 151.82193359375003 -29.9765625 151.16193359375006 -29.9765625 150.48193359375 C-30.512812499999995 150.27568359375005 -31.04906249999999 150.06943359374998 -31.6015625 149.85693359375 C-34.9771701238474 148.2055572022275 -37.43338518131762 145.17770155155335 -39.9765625 142.48193359375 C-39.9765625 141.82193359375003 -39.9765625 141.16193359375006 -39.9765625 140.48193359375 C-40.6365625 140.48193359375 -41.29656249999999 140.48193359375 -41.9765625 140.48193359375 C-59.17548049617534 116.93421619483217 -69.52961770276059 93.57997308603126 -72.9765625 64.48193359375 C-73.02561737060546 64.07280731201172 -73.07467224121095 63.66368103027344 -73.12521362304688 63.242156982421875 C-74.04981625398139 55.25670976012725 -74.09609213266154 47.3248514909784 -74.0390625 39.29443359375 C-74.03403068612616 38.04378437123455 -74.02947079167515 36.7931331580163 -74.025390625 35.54248046875 C-74.01453375911316 32.52225365243066 -73.9979326546341 29.502103406835204 -73.9765625 26.48193359375 C-70.5882706667731 24.207763881653136 -67.52790769822096 22.89198955487086 -63.546875 22.05224609375 C-62.50121185269006 21.814817620834333 -61.455557902517924 21.577348639793286 -60.409912109375 21.33984375 C-59.86962371826172 21.22054504394532 -59.32933532714844 21.101246337890643 -58.772674560546875 20.97833251953125 C-55.94258914423165 20.34935573915618 -53.121601969128534 19.682313364349625 -50.30078125 19.01318359375 C-49.74663040161133 18.88174957275396 -49.192479553222654 18.750315551757808 -48.62153625488281 18.614898681640625 C-35.32039067125045 15.429569028871128 -12.150538180575182 -1.747554813621889 0 0 Z M-9.421875 9.11474609375 C-10.500280139725191 9.677231855922287 -11.578987044046244 10.239139362661035 -12.657958984375 10.800537109375 C-13.219738464355459 11.095984191894559 -13.781517944335945 11.391431274414117 -14.360321044921875 11.695831298828125 C-31.529781128574754 20.67972864354408 -47.99526272140656 25.94240096011208 -66.9765625 29.48193359375 C-67.81654040228689 30.946507802192173 -68.09390056102326 31.943637975133583 -68.030029296875 33.62646484375 C-68.01628265380859 34.04944351196286 -68.00253601074219 34.47242218017573 -67.98837280273438 34.90821838378906 C-67.96771759033203 35.36566940307614 -67.94706237792968 35.82312042236333 -67.92578125 36.29443359375 C-67.90786529541016 36.77504745483395 -67.88994934082031 37.25566131591802 -67.87149047851563 37.75083923339844 C-67.80966608878387 39.32827732245346 -67.73818233815611 40.9050273688606 -67.6640625 42.48193359375 C-67.63911712646484 43.02447784423828 -67.61417175292969 43.56702209472655 -67.58847045898438 44.126007080078125 C-67.41047694002104 47.91291498509884 -67.20439831976788 51.697708414938006 -66.9765625 55.48193359375 C-66.95098266601562 55.91044616699219 -66.92540283203125 56.338958740234375 -66.8990478515625 56.78045654296875 C-65.67740365394425 76.51758250928197 -61.324039600361985 96.954976469229 -51.9765625 114.48193359375 C-51.81134094238281 114.79479309082035 -51.646119384765626 115.10765258789058 -51.47589111328125 115.42999267578125 C-46.149005959621974 125.473065689333 -39.60361046525247 134.07736060359707 -31.9765625 142.48193359375 C-31.316562500000003 142.48193359375 -30.656562500000007 142.48193359375 -29.9765625 142.48193359375 C-29.9765625 143.14193359374997 -29.9765625 143.80193359374994 -29.9765625 144.48193359375 C-8.403259177288362 161.83825479179336 -8.403259177288362 161.83825479179336 -1.91015625 161.26708984375 C2.5414300341248293 160.6311489460179 5.428574174051249 158.570470757301 8.9609375 155.91943359375 C9.554459968697302 155.48918255067736 10.148858496292462 155.0601373416846 10.744140625 154.63232421875 C12.180905819443382 153.59585206917404 13.605247742646924 152.54373639200287 15.0234375 151.48193359375 C14.363437500000003 150.16193359375006 13.703437500000007 148.84193359375 13.0234375 147.48193359375 C3.531431755624226 152.7139106162491 3.531431755624226 152.7139106162491 -0.9765625 155.48193359375 C-4.843866871937848 154.9769212409251 -7.714086784249986 153.77837374532464 -10.9765625 151.66943359375 C-11.210849609375003 151.51804931640618 -11.210849609375003 151.51804931640618 -12.396484375 150.751953125 C-32.9069201857658 136.9458154849674 -47.06363781433207 116.69863213457188 -54.66339111328125 93.4384765625 C-54.960963845803676 92.52957773886101 -55.26521267476596 91.6228726621008 -55.56982421875 90.71630859375 C-59.89085775810284 77.55319506950309 -67.71149540401096 48.63821398083576 -61.46649169921875 35.40074157714844 C-61.38565338134765 35.24913825988767 -61.38565338134765 35.24913825988767 -60.9765625 34.48193359375 C-60.67270629882813 34.40676513671872 -60.67270629882813 34.40676513671872 -59.135009765625 34.0263671875 C-42.33965005020285 29.85037447698835 -25.920482465516443 25.73231118304693 -10.794921875 17.109375 C-10.49979202270508 16.942275238037155 -10.20466217041016 16.775175476074196 -9.900588989257813 16.603012084960938 C-9.109874122200694 16.15233314820057 -8.323659256323083 15.693784062468012 -7.537841796875 15.234619140625 C-5.691693832273245 14.344599723132092 -3.9754389224166857 13.921659413077009 -1.9765625 13.48193359375 C-1.4556201171874932 13.748205566406227 -0.9346777343749864 14.014477539062455 -0.39794921875 14.288818359375 C18.037422342164746 23.649741663424265 36.90067870478731 29.879060943035142 57.0234375 34.48193359375 C57.4407472218474 47.51483721452223 56.59963630919327 59.96903456893449 54.57994079589844 72.85031127929688 C53.97453358608408 76.71780457039984 53.48172163290093 80.59437281212263 53.0234375 84.48193359375 C54.673437500000006 84.48193359375 56.32343750000001 84.48193359375 58.0234375 84.48193359375 C59.51613863353532 79.72878703126014 60.502909097202405 75.12895273936192 61.0859375 70.16943359375 C61.12668395996093 69.83277679443358 61.167430419921885 69.49611999511717 61.20941162109375 69.14926147460938 C62.75017923482517 56.32059902100582 63.24920307489779 43.39572447790317 63.0234375 30.48193359375 C60.602890497132364 28.628929675723043 58.48432164276525 27.980287678146283 55.515625 27.40380859375 C54.61112958042915 27.214752389219825 53.706756167767594 27.025111757118566 52.802490234375 26.8349609375 C52.329313659667974 26.73737487792971 51.85613708496095 26.63978881835942 51.368621826171875 26.53924560546875 C35.2616251328314 23.172406857115107 21.367867326425255 18.104240433513382 6.976318359375 10.0888671875 C6.75986663818361 9.969961242675822 6.75986663818361 9.969961242675822 5.66448974609375 9.36822509765625 C4.853647787095696 8.92155380098859 4.04662236428814 8.467851032400404 3.24444580078125 8.00579833984375 C-1.695854676177504 5.291338564320654 -4.7279479438174405 6.577676906982333 -9.421875 9.11474609375 Z M-6.953125 21.02099609375 C-7.537583468750228 21.355310804727992 -8.122484670238407 21.688852385640644 -8.707763671875 22.021728515625 C-8.86141891479491 22.110205535888667 -8.86141891479491 22.110205535888667 -9.639007568359375 22.557952880859375 C-24.09907833015805 30.805066572054898 -39.87101896202323 34.74112924899782 -55.9765625 38.48193359375 C-57.01628574620706 73.71255589791986 -48.76777089076191 107.53777691852167 -24.446151733398438 133.9684295654297 C-18.57244888277573 140.1708378387375 -11.359490665475079 145.2511289034154 -3.9765625 149.48193359375 C-0.41256654969004103 148.8240932197442 2.2211657014061643 147.3315399094389 5.2734375 145.41943359375 C5.502890624999992 145.27860351562504 5.502890624999992 145.27860351562504 6.6640625 144.56591796875 C7.7868293486862115 143.87588417632833 8.906404137142545 143.18119647889876 10.0234375 142.48193359375 C9.993144531249982 142.20631591796882 9.96285156250002 141.93069824218753 9.931640625 141.646728515625 C9.56889000311196 138.2626837718194 9.277893979638236 134.8757603116254 9.0234375 131.48193359375 C9.004987792968734 131.25239990234377 9.004987792968734 131.25239990234377 8.91162109375 130.0908203125 C8.080921394727909 118.47380452156028 11.441915349055023 107.895630810169 18.82421875 98.85693359375 C24.215646446063545 92.76666159498961 31.152107771509748 89.73805597637852 38.6533203125 87.0078125 C41.48016534278253 85.92281175245398 44.24804878753227 84.69124569521489 47.0234375 83.48193359375 C55.47700949936072 47.38907759247138 55.47700949936072 47.38907759247138 51.0234375 38.48193359375 C50.42619873046874 38.34207031250003 49.82895996093748 38.202207031250055 49.213623046875 38.05810546875 C32.62612360968984 34.13286239595948 16.880879759115487 29.06541813436172 1.873779296875 20.852783203125 C-1.560508001280624 19.00516733606264 -3.6120433489718096 19.054335767066846 -6.953125 21.02099609375 Z M21.9375 103.741455078125 C16.04165883241157 111.64471018976519 13.108737983518779 120.93088653778909 14.371826171875 130.8017578125 C14.564239515332133 132.03445860508737 14.786231504778186 133.25711521590654 15.0234375 134.48193359375 C15.057355957031234 134.6719897460937 15.057355957031234 134.6719897460937 15.22900390625 135.6337890625 C17.051070639128 144.94612569062383 24.53096249782959 152.23736027487712 32.013671875 157.633544921875 C39.479818068962516 162.60671421888082 48.210270236945576 163.82925171113595 57.0234375 162.48193359375 C64.97703189446338 160.56762196214981 71.5235553292463 156.45531555403875 77.0234375 150.48193359375 C77.27174316406251 150.22218750000002 77.520048828125 149.96244140625004 77.77587890625 149.69482421875 C83.15878607787124 143.8903865478958 86.04607673833289 134.6638588360313 86.4609375 126.85693359375 C85.67888241616788 116.63976233723349 81.48338055605285 105.93950069131552 73.6484375 99.10693359375 C66.3068648030409 93.17461701504214 56.629716514983016 89.434741590925 47.109375 90.333984375 C37.70195001702959 91.61566142978415 27.946332250249185 96.26549379974153 21.9375 103.741455078125 Z " transform="translate(136.9765625,506.51806640625)" />
    <path d="M0 0 C1.7795350212627454 2.8547450591599954 1.2440812353656838 6.612890279935414 1.25 9.875 C1.251007080078125 10.255494995117147 1.25201416015625 10.635989990234407 1.2530517578125 11.02801513671875 C1.2359896989762547 20.57323340508401 0.06258740407281493 31.52036836685727 -6.7666015625 38.8193359375 C-13.417465460100516 45.423527105994594 -19.79332275354139 47.472344584689154 -29 48 C-30.649477736329573 53.69079510442259 -31.380580244246175 59.09064319682648 -31.625 65 C-31.6633334992178 65.78258813233606 -31.70239306277108 66.56514104580185 -31.7421875 67.34765625 C-31.83644961096718 69.23147257031201 -31.921050524584246 71.11548244048265 -32 73 C-32.66 73.33000000000004 -32.66 73.33000000000004 -36 75 C-36.66 74.66999999999996 -37.31999999999999 74.34000000000003 -38 74 C-38.66 70.03999999999996 -39.31999999999999 66.08000000000004 -40 62 C-41.794375 61.62874999999997 -43.588750000000005 61.25750000000005 -45.4375 60.875 C-52.49622497674201 59.20631164149006 -59.15254577884086 56.237442451243965 -63.375 50.0625 C-65.17342769319463 46.37448007616774 -65.97270075879686 42.37038290910425 -66.8125 38.375 C-66.88225036621094 38.04944122314453 -66.95200073242188 37.72388244628905 -67.02386474609375 37.388458251953125 C-67.86507578315725 33.352143355883186 -68.2409975219749 29.975379128500663 -67 26 C-66.67 25.66999999999996 -66.34 25.340000000000032 -66 25 C-54.5287433565222 25.338850463621952 -46.2012472714424 27.688422047775816 -38 36 C-38.015710449218744 35.67837890625003 -38.03142089843749 35.35675781249995 -38.047607421875 35.025390625 C-38.47852390431899 24.82885208683183 -37.51530443436039 18.00583215115614 -30.607421875 10.2294921875 C-23.58784869946294 3.1039396656182134 -9.968363773166061 -2.7941625727813744 0 0 Z M-27.44140625 16.1875 C-31.739653712428378 20.95145455871284 -32.37528816041052 26.07959189287044 -32.10546875 32.27734375 C-32.070664062499986 32.845820312499995 -32.035859375 33.41429687499999 -32 34 C-28.066822571927844 30.48327665254726 -25.089319712373253 26.242665738325968 -22 22 C-22 21.340000000000032 -22 20.67999999999995 -22 20 C-20.019999999999982 20 -18.039999999999992 20 -16 20 C-16.329999999999984 21.980000000000018 -16.659999999999997 23.960000000000036 -17 26 C-17.659999999999997 26 -18.319999999999993 26 -19 26 C-27 39 -27 39 -27 41 C-20.3498314267639 40.95723364261585 -16.153290195322995 37.854851081581614 -11 34 C-10.347489518458701 32.60696599522112 -9.703032789287107 31.21103352955072 -9.0625 29.8125 C-8.880097656250001 29.425136718749968 -8.697695312500002 29.03777343750005 -8.509765625 28.638671875 C-6.099440824056018 23.335957312923256 -5.860090580470569 18.46938818177432 -5.9375 12.6875 C-5.9420117187499955 12.042324218749968 -5.946523437499991 11.39714843750005 -5.951171875 10.732421875 C-5.962857601801943 9.154848756736783 -5.979239542578966 7.5774753723460435 -6 6 C-13.629080194596725 5.697291935961289 -22.206137927467182 10.918355581554351 -27.44140625 16.1875 Z M-61 32 C-60.716932299099625 38.906851901969276 -59.571371071425574 44.05325189037046 -56 50 C-48.617021276595736 54.57446808510633 -48.617021276595736 54.57446808510633 -44 55 C-44.35105830159395 51.95749471951899 -45.47158603330067 50.30163965793952 -47.5 48.0625 C-49.76805202905493 45.54600410910507 -50.83384570057672 43.41371560633297 -51 40 C-45.74035916250479 41.140364606359526 -43.136358912614256 44.96907823602157 -40 49 C-39.670000000000016 48.34000000000003 -39.34 47.67999999999995 -39 47 C-41.87015049701748 41.14151633844085 -45.141374511605434 36.31020879973346 -51.5390625 34.02734375 C-57.82292103607382 32 -57.82292103607382 32 -61 32 Z " transform="translate(168,551)" />
    <path d="M0 0 C0.4911328124999841 -0.016757812500031832 0.9822656249999966 -0.03351562499994998 1.48828125 -0.05078125 C4.82390522457959 -0.09525623632771385 6.888263509791159 0.39433078925469545 9.75 2.125 C10.642242596861252 3.6808678735302465 10.92142315574165 4.945341627683092 11.06640625 6.7265625 C11.085460205078107 6.9473950195312 11.085460205078107 6.9473950195312 11.181884765625 8.06494140625 C11.224987792968761 8.621010742187536 11.268090820312494 9.177080078124959 11.3125 9.75 C11.456874999999997 11.52374999999995 11.601249999999993 13.297500000000014 11.75 15.125 C13.564999999999998 15.289999999999964 13.564999999999998 15.289999999999964 22.75 16.125 C26.75 21.125 26.75 21.125 26.75 32.125 C23.75 36.125 23.75 36.125 11.75 38.125 C11.420000000000016 41.754999999999995 11.090000000000003 45.38499999999999 10.75 49.125 C9.759999999999991 50.11500000000001 8.77000000000001 51.10500000000002 7.75 52.125 C3.1299999999999955 52.125 -1.490000000000009 52.125 -6.25 52.125 C-10.25 48.125 -10.25 48.125 -11.25 37.125 C-14.879999999999995 36.79499999999996 -18.50999999999999 36.46500000000003 -22.25 36.125 C-25.25 32.125 -25.25 32.125 -25.25 20.125 C-20.25 16.125 -20.25 16.125 -11.25 15.125 C-10.919999999999987 11.825000000000045 -10.590000000000003 8.524999999999977 -10.25 5.125 C-5.21794041450778 0.09294041450777968 -5.21794041450778 0.09294041450777968 0 0 Z M-3.25 6.125 C-3.310585937500008 6.956445312500023 -3.371171875000016 7.7878906250000455 -3.43359375 8.64453125 C-3.518030025899378 9.742202836691831 -3.6026764753357554 10.839858270389641 -3.6875 11.9375 C-3.7071582031250045 12.211103515625041 -3.7071582031250045 12.211103515625041 -3.806640625 13.595703125 C-4.015101875308886 16.241557455843576 -4.21555341343722 18.647543889324425 -5.25 21.125 C-5.603041992187514 21.119763183593705 -5.956083984374999 21.114526367187523 -6.31982421875 21.109130859375 C-7.9215313299890795 21.088326048163594 -9.523209982212933 21.07532898183581 -11.125 21.0625 C-11.680585937500013 21.05412109375004 -12.236171874999997 21.045742187499968 -12.80859375 21.037109375 C-13.343554687499989 21.033886718749955 -13.878515625000006 21.030664062500023 -14.4296875 21.02734375 C-14.675817871093756 21.024725341796852 -14.675817871093756 21.024725341796852 -15.92138671875 21.011474609375 C-17.25 21.125 -17.25 21.125 -19.25 22.125 C-19.25 24.764999999999986 -19.25 27.404999999999973 -19.25 30.125 C-14.300000000000011 30.45500000000004 -9.349999999999994 30.784999999999968 -4.25 31.125 C-4.25 35.745000000000005 -4.25 40.36500000000001 -4.25 45.125 C-3.920000000000016 45.45500000000004 -3.5900000000000034 45.78499999999997 -3.25 46.125 C-0.9399999999999977 46.125 1.3700000000000045 46.125 3.75 46.125 C7.083333333333314 42.79166666666663 5.38844923696891 36.8251599194042 5.75 32.125 C12.124999999999034 31.687500000000114 12.124999999999034 31.687500000000114 14.12646484375 31.556884765625 C14.649340820312489 31.518776855468786 15.172216796875006 31.48066894531246 15.7109375 31.44140625 C16.245092773437506 31.404748535156273 16.77924804687501 31.368090820312545 17.32958984375 31.330322265625 C18.75 31.125 18.75 31.125 20.75 30.125 C20.75 27.815000000000055 20.75 25.504999999999995 20.75 23.125 C17.416666666666657 19.79166666666663 11.4501599194042 21.48655076303112 6.75 21.125 C3.416666666666657 17.79166666666663 5.11155076303109 11.8251599194042 4.75 7.125 C4.420000000000016 6.794999999999959 4.090000000000003 6.465000000000032 3.75 6.125 C1.4399999999999977 6.125 -0.8700000000000045 6.125 -3.25 6.125 Z " transform="translate(186.25,606.875)" />
    <path d="M0 0 C1.9800000000000182 0 3.9599999999999795 0 6 0 C5.128826526441628 5.880420946518825 0.7989366441198911 9.264880194431498 -3.50732421875 12.916748046875 C-6.895872503111946 15.827266234783337 -10.042738453836364 18.956735550397298 -13.1875 22.125 C-13.439350585937518 22.378713684082072 -13.69120117187498 22.63242736816403 -13.95068359375 22.893829345703125 C-14.931531085916447 23.882954538084732 -15.912233740154136 24.872149709513337 -16.887786865234375 25.866500854492188 C-18.043390993033796 27.043200248342373 -19.210824182352667 28.200931493921075 -20.40478515625 29.3388671875 C-22.91487570909419 31.745098263057002 -24.68273776935939 33.7667199793367 -26 37 C-25.847044677734374 37.00467285156253 -25.847044677734374 37.00467285156253 -25.072998046875 37.0283203125 C-10.905042413188369 37.56644411612547 -0.5016609796327316 41.820552641979816 9.1875 52.1875 C14.843769608253695 58.53642992330117 19.167226166741386 67.26395532406855 19.09765625 75.890625 C19.096948776245114 76.06536346435541 19.096948776245114 76.06536346435541 19.093368530273438 76.94964599609375 C19.087836349206555 78.04985657952409 19.075298028808362 79.14985246696506 19.0625 80.25 C19.057476176333267 81.00260119704069 19.052914826070435 81.7552056308673 19.048828125 82.5078125 C19.037889464390446 84.33860969171701 19.02067347991087 86.16928384050846 19 88 C19.659999999999997 88 20.319999999999993 88 21 88 C21.245324707031244 87.427978515625 21.49064941406249 86.85595703125 21.743408203125 86.2666015625 C23.07135028634258 83.62218206188356 24.99407775098075 81.77162809241327 27.10546875 79.734375 C27.507761993408195 79.33728332519536 27.91005523681642 78.9401916503906 28.324539184570313 78.53106689453125 C29.607494673576127 77.26582283887205 30.89692062824858 76.00746280049657 32.1875 74.75 C33.87202434217832 73.10252295163514 35.553091282216656 71.45162824609702 37.23046875 69.796875 C37.63928787231444 69.39396240234373 38.04810699462891 68.99104980468746 38.46931457519531 68.575927734375 C41.372000585969204 65.68938415449747 44.11855519240322 62.70175796889032 46.75236511230469 59.56805419921875 C48.916703001434655 57.006343242555204 51.24436273074946 54.930215967401296 54 53 C54.99000000000001 53.99000000000001 55.97999999999999 54.98000000000002 57 56 C55.6747973591811 58.877582877206805 54.235726439745434 61.14804768142653 52.125 63.5 C51.83109375000001 63.832578125000055 51.53718749999999 64.16515625 51.234375 64.5078125 C47.823445246589074 68.30076638579294 44.18066278117573 71.87708320991055 40.52783203125 75.435546875 C37.76079177249295 78.14584333527523 35.150093356377056 80.93709643760849 32.625 83.875 C28.647420851784688 88.49419529684644 24.330642181447615 92.73628938392119 19.9794921875 97 C15.348488975184978 101.54664169646264 10.947734097660202 106.21170465644673 6.73114013671875 111.14599609375 C5.758216841935848 112.28241338572786 4.7724284110398685 113.40729327059626 3.78515625 114.53125 C3.6385253906250057 114.69882812499998 3.6385253906250057 114.69882812499998 2.896484375 115.546875 C1.59765625 117.03125 0.298828125 118.515625 -1 120 C-1.6599999999999966 120 -2.319999999999993 120 -3 120 C-3.2633715820312545 120.59006835937498 -3.526743164062509 121.18013671874996 -3.798095703125 121.7880859375 C-4.939186738737305 124.06239798461343 -6.402943688463495 125.6465725978835 -8.23046875 127.390625 C-8.541621246337911 127.69621337890624 -8.852773742675765 128.00180175781247 -9.173355102539063 128.316650390625 C-9.833755739950874 128.96472179451837 -10.496276799626884 129.61063862433252 -11.1607666015625 130.2545166015625 C-12.887940722153132 131.92912187482568 -14.598515169184793 133.6204655370825 -16.30859375 135.3125 C-16.639973449707043 135.6399420166016 -16.971353149414057 135.9673840332032 -17.312774658203125 136.30474853515625 C-19.561680284541836 138.53706731679438 -21.711660901835472 140.82240388696016 -23.75 143.25 C-24.828654560050893 144.50409011746706 -25.913919858040458 145.75233954264263 -27 147 C-27.358842773437516 147.41701171875002 -27.717685546875003 147.83402343750004 -28.08740234375 148.263671875 C-33.564035840477516 154.51887902800593 -38.86858671719517 158.95371076453705 -46.3125 162.625 C-46.65070770263671 162.79330322265628 -46.988915405273445 162.96160644531255 -47.337371826171875 163.135009765625 C-51.4552195130879 165.152323387053 -55.389161381623865 166.59466943831399 -60 167 C-60.42998291015624 167.0388330078125 -60.85996582031251 167.07766601562503 -61.302978515625 167.11767578125 C-72.4179307638356 167.86709463828595 -82.24225818153536 165.4813520648762 -91.10205078125 158.67919921875 C-92.36377428698562 157.72484500641815 -93.6745418203989 156.86299302036332 -95 156 C-95 155.34000000000003 -95 154.68000000000006 -95 154 C-95.66 154 -96.32 154 -97 154 C-106.05125308263655 142.13263191947738 -110.25772083234185 131.04306242840403 -109 116 C-106.39831209503147 98.95225084193999 -92.65047518805517 87.4372167010871 -81 76 C-80.34 76 -79.68 76 -79 76 C-79 75.34000000000003 -79 74.68000000000006 -79 74 C-78.34 74 -77.68 74 -77 74 C-78 70 -78 70 -79.3203125 69.00390625 C-87.3279144922491 62.715936219918035 -92.85572849113203 54.01392780143283 -95 44 C-95.55358803048652 39.130906168418505 -95.40521884907866 34.227678647418884 -95.274658203125 29.33782958984375 C-95.2328909452319 27.60107670532318 -95.21529459866693 25.864068997295135 -95.1953125 24.126953125 C-95.06953108281618 14.069531082816184 -95.06953108281618 14.069531082816184 -92 11 C-91.71503662109374 10.945778808593786 -91.4300732421875 10.891557617187459 -91.136474609375 10.835693359375 C-81.69494222506451 8.954857926931709 -73.54116326374995 5.2828837188803845 -65 1 C-60.77470412980131 1.5149736345961173 -57.123881645784266 3.145013607459191 -53.29718017578125 4.896148681640625 C-48.14492759974587 7.2521548357051415 -43.02825304751491 9.566869538076503 -37.5634765625 11.11279296875 C-35.329513576957936 11.76710598532759 -34.77183703996934 12.228162960030659 -33 14 C-32 30 -32 30 -33 32 C-25.87045224098597 26.064543793524763 -19.388134329630105 19.508592804355203 -12.86163330078125 12.9302978515625 C-11.408349893862209 11.466616936383957 -9.952080422878964 10.00591287832492 -8.49609375 8.544921875 C-5.661207124125667 5.699445396732472 -2.829532674119548 2.850800466410419 0 0 Z M-65.341796875 8.503173828125 C-72.89453125 11.33544921875 -80.447265625 14.167724609375 -88 17 C-88 18.649999999999977 -88 20.299999999999955 -88 22 C-87.8615869140625 21.874477539062468 -87.8615869140625 21.874477539062468 -87.1611328125 21.2392578125 C-81.28906594521726 16.20266691016616 -70.55939088531304 11.083302071700473 -62.578857421875 11.2021484375 C-57.6695917037282 11.774190585967403 -52.82802681677359 14.42373754156597 -48.406494140625 16.508544921875 C-48.06513427734376 16.6694511413574 -47.72377441406249 16.8303573608398 -47.3720703125 16.996139526367188 C-46.724771747000375 17.30416525260273 -46.07938311550856 17.616247301126123 -45.436279296875 17.932937622070313 C-43.78206623610237 18.72789604415493 -42.88535693597825 19 -41 19 C-40.4577541149076 48.95282846806515 -40.4577541149076 48.95282846806515 -50 62 C-46.511064587007496 60.57270824013949 -44.88792550076536 58.95969304484743 -42.875 55.8125 C-42.623632812500006 55.45091796874999 -42.37226562500001 55.08933593749998 -42.11328125 54.716796875 C-37.54558724746312 47.76959735805258 -37.70883888090131 40.495234011911066 -37.794189453125 32.473388671875 C-37.81263662448433 30.674174558629375 -37.81469736276031 28.875471455182378 -37.814453125 27.076171875 C-37.81936269178817 25.92968303922862 -37.82518854648799 24.78319767776236 -37.83203125 23.63671875 C-37.833144073486324 23.100282440185538 -37.83425689697265 22.563846130371076 -37.83540344238281 22.011154174804688 C-37.841783294677725 21.51335952758791 -37.84816314697267 21.01556488037113 -37.854736328125 20.502685546875 C-37.85854812622071 20.06635299682614 -37.86235992431642 19.630020446777394 -37.86628723144531 19.180465698242188 C-38.009370543886746 17.91727337821419 -38.36460250175469 17.09184566843294 -39 16 C-39.437556152343745 15.864245605468795 -39.87511230468749 15.728491210937477 -40.325927734375 15.588623046875 C-64.34506721621815 8.129400206081755 -64.34506721621815 8.129400206081755 -65.341796875 8.503173828125 Z M-70.816650390625 18.398681640625 C-71.47407210636428 18.671868649249177 -72.13258998605782 18.942434360151537 -72.792236328125 19.210205078125 C-79.53821841998375 21.952515739236446 -79.53821841998375 21.952515739236446 -82 25 C-82.3329864768491 36.02185238370532 -82.46620156700455 46.183893481696145 -75 55 C-70.56639373291668 59.50515878902672 -68.00942227442461 60.12382221569692 -61 61 C-54.1798416292913 56.94038192219716 -48.55542782781974 51.72229332370796 -46.45703125 43.8203125 C-45.23712953287027 37.74148021464168 -45.778643338680894 31.165066808328447 -46 25 C-48.32219061684563 21.516714074731567 -49.97398287953084 21.142812678464566 -53.6875 19.5625 C-54.21794921874999 19.332402343750005 -54.7483984375 19.10230468750001 -55.294921875 18.865234375 C-61.56808000242805 16.209725719831113 -64.64228461802247 15.818007602039074 -70.816650390625 18.398681640625 Z M-88 43 C-87 46 -87 46 -87 46 Z M-31 44 C-31.659999999999997 45.32000000000005 -32.31999999999999 46.639999999999986 -33 48 C-32.801605224609375 47.98952636718752 -32.801605224609375 47.98952636718752 -31.797607421875 47.9365234375 C-20.376761893842115 47.41582120306657 -9.865601470388128 48.38439067330319 -0.78515625 56.16796875 C6.251518546031889 62.91509980780859 9.1305342146876 71.9678088656458 9.375 81.4375 C9.40257733215941 86.5189863100037 8.576458973584522 90.21897294558187 5.875 94.51171875 C5 96 5 96 5 98 C4.340000000000003 98 3.680000000000007 98 3 98 C2.590078124999991 98.49371093750005 2.1801562500000102 98.987421875 1.7578125 99.49609375 C1.213718569418944 100.14337790879472 0.6694379306901794 100.79050515678443 0.125 101.4375 C-0.14441406250000455 101.76298828125005 -0.4138281250000091 102.08847656249998 -0.69140625 102.423828125 C-0.9556640625000057 102.73642578124998 -1.2199218750000114 103.04902343749995 -1.4921875 103.37109375 C-1.7330810546874886 103.65911865234375 -1.9739746093750057 103.9471435546875 -2.22216796875 104.243896484375 C-3.080917690626052 105.07865727805051 -3.908954448121392 105.52035167247595 -5 106 C-5 106.65999999999997 -5 107.31999999999994 -5 108 C-5.659999999999997 108 -6.319999999999993 108 -7 108 C-7 108.65999999999997 -7 109.31999999999994 -7 110 C-7.659999999999997 110 -8.319999999999993 110 -9 110 C-9 110.65999999999997 -9 111.31999999999994 -9 112 C-9.659999999999997 112 -10.319999999999993 112 -11 112 C-11 112.65999999999997 -11 113.31999999999994 -11 114 C-11.659999999999997 114 -12.319999999999993 114 -13 114 C-13 114.65999999999997 -13 115.31999999999994 -13 116 C-13.659999999999997 116 -14.319999999999993 116 -15 116 C-15 116.65999999999997 -15 117.31999999999994 -15 118 C-15.659999999999997 118 -16.319999999999993 118 -17 118 C-33 137.39774667121878 -33 137.39774667121878 -33 141 C-29.969244147030594 139.62238370319574 -27.650209775045084 138.03901717296947 -25.1875 135.8125 C-25.015128173828145 135.65873901367195 -25.015128173828145 135.65873901367195 -24.142822265625 134.880615234375 C-19.21853322592392 130.44638385191547 -14.598104755148995 125.75695316931683 -10.1875 120.8125 C-9.897380371093732 120.49160400390622 -9.607260742187492 120.17070800781244 -9.308349609375 119.840087890625 C-7.4324104983949155 117.69750099094176 -6.17907044357068 115.59395497585547 -5 113 C-4.340000000000003 113 -3.680000000000007 113 -3 113 C-1.8464944120995028 111.73595199892327 -0.7036821335569243 110.46267612184147 0.4375 109.1875 C0.7629882812499886 108.83107421875002 1.0884765625000057 108.47464843750004 1.423828125 108.107421875 C3.157169303158696 106.15964673665667 4.414953712077988 104.61210807424334 5 102 C5.659999999999997 102 6.319999999999993 102 7 102 C12.207063147136978 92.72333895631425 15.08923811431319 82.10804219256374 12.6455078125 71.45458984375 C9.954342227881284 62.26901707282252 4.239886497339228 53.89309605621793 -4.14453125 49.08203125 C-7.026595125567212 47.56186938032363 -9.962808442776918 46.18189096486458 -13 45 C-13.474938964843744 44.815180664062495 -13.949877929687489 44.63036132812499 -14.439208984375 44.43994140625 C-16.21846207642568 43.93842192058207 -17.72700166322693 43.88655556977119 -19.57421875 43.90234375 C-19.90291458129883 43.903758697509716 -20.23161041259766 43.905173645019545 -20.570266723632813 43.90663146972656 C-21.609441162501696 43.912182763918054 -22.648391832086475 43.92472506775698 -23.6875 43.9375 C-24.396481240242395 43.94252134303122 -25.10546589301336 43.94708313663796 -25.814453125 43.951171875 C-27.543040182641448 43.96213597468659 -29.271498211993702 43.979365910703336 -31 44 Z M-87 46 C-86.95471047833345 51.97821685998338 -83.73011559473944 55.697793642696524 -80 60 C-79.72349609375 60.321782226562505 -79.4469921875 60.64356445312501 -79.162109375 60.97509765625 C-75.02885463722922 65.68671766470413 -70.77019226188638 68.58701050866568 -65 71 C-59.05313163143154 70.9549479669048 -55.34478829537247 67.63614635414865 -51 64 C-53.42880288918484 63.8285550901752 -54.68565288040364 64.24747478136851 -56.75 65.5 C-60.17712220663101 67.33411314073464 -63.19089442228157 67.30427766449225 -67 67 C-76.14701800672124 61.49773566128761 -81.68365170023225 55.775259384768106 -86 46 C-86.33 46 -86.66 46 -87 46 Z M-26 54 C-25.670000000000016 55.64999999999998 -25.340000000000003 57.299999999999955 -25 59 C-24.5758984375 59.02578125000002 -24.151796875000002 59.051562500000045 -23.71484375 59.078125 C-19.57934520771198 59.47804134255091 -16.776630871278428 60.39358068525439 -13.310302734375 62.6279296875 C-11.660078261459262 63.68632608378016 -11.036338241005666 64 -9 64 C-9 64.65999999999997 -9 65.31999999999994 -9 66 C-8.340000000000003 66 -7.680000000000007 66 -7 66 C-6.523160224846208 67.19209943788451 -6.047009981477515 68.38441096875181 -5.57421875 69.578125 C-5.214531186116943 70.46877992009138 -4.843785440867748 71.3551352567323 -4.45703125 72.234375 C-3.076498569631269 75.43139804927489 -2.45009524830013 78.55321796696467 -2 82 C-0.3499999999999943 82.33000000000004 1.3000000000000114 82.65999999999997 3 83 C3.8939144247829063 75.50105121432114 1.2099886353374814 68.57894400050782 -3.327392578125 62.652099609375 C-7.210645622117568 58.014902460332564 -12.154633417913118 54.584626132088374 -18.27880859375 53.845703125 C-20.87113914504124 53.68545351685384 -23.414294085812458 53.77993992219683 -26 54 Z M-34 55 C-34.29543701171875 55.33096679687503 -34.59087402343749 55.66193359374995 -34.895263671875 56.0029296875 C-40.87981995494363 62.67514168005607 -46.982714974435055 69.06699234432256 -53.648040771484375 75.06430053710938 C-56.980610480861344 78.06544496571314 -60.12658110490196 81.10658735380048 -63 84.5625 C-65.38353464949343 87.42046884075137 -67.57716647832349 89.41535485107568 -71 91 C-71.54140625 91.27585937499998 -72.0828125 91.55171874999996 -72.640625 91.8359375 C-74.08687809789554 92.57258043304023 -75.53942832887327 93.29230032429939 -77 94 C-77 94.65999999999997 -77 95.31999999999994 -77 96 C-72.05 95.00999999999999 -67.1 94.01999999999998 -62 93 C-62 92.34000000000003 -62 91.68000000000006 -62 91 C-61.4503759765625 90.7756225585938 -60.900751953124995 90.55124511718748 -60.33447265625 90.320068359375 C-57.263808644281596 88.77682183688069 -55.03293292611281 86.30113682847991 -52.6484375 83.87890625 C-52.14364628665794 83.37292027214892 -51.63848191349888 82.86730632742717 -51.132965087890625 82.36204528808594 C-50.07932251630065 81.30684645044118 -49.029099598006695 80.24839977762804 -47.9814453125 79.187255859375 C-46.643935227625235 77.83273532714861 -45.29991513013847 76.48491254909527 -43.9534969329834 75.13925266265869 C-42.911687387029446 74.09717019399352 -41.8725117606584 73.05249416055437 -40.83418655395508 72.0069408416748 C-40.33962691167051 71.50921816990126 -39.84447622080984 71.012082018628 -39.34870529174805 70.51556587219238 C-38.65492352657924 69.81959644542917 -37.96484234253899 69.11994410812349 -37.27490234375 68.420166015625 C-36.882815856933604 68.02426773071284 -36.49072937011718 67.62836944580079 -36.086761474609375 67.22047424316406 C-32.087631947041416 62.72930051506705 -33 62.02386677399079 -33 55 C-33.329999999999984 55 -33.66 55 -34 55 Z M-31 70 C-31 70.65999999999997 -31 71.31999999999994 -31 72 C-31.581931152343742 72.25595947265629 -32.163862304687484 72.51191894531246 -32.763427734375 72.775634765625 C-35.19525791806498 73.9959240130936 -36.906035567397964 75.65009196014478 -38.78515625 77.58984375 C-39.127518157958974 77.93503555297855 -39.46988006591798 78.2802273559571 -39.82261657714844 78.63587951660156 C-40.90740539859067 79.73177597161714 -41.98501632892817 80.83442518639322 -43.0625 81.9375 C-43.78924457673628 82.67429099006017 -44.51645422247347 83.4106235577068 -45.244140625 84.146484375 C-46.583714025135095 85.50231125297557 -47.9205115674157 86.86074822393755 -49.254150390625 88.222412109375 C-49.40119667053223 88.37172431945805 -49.40119667053223 88.37172431945805 -50.14533996582031 89.12733459472656 C-50.71102440862492 89.70493647593628 -51.272548857161865 90.28664474258494 -51.82963562011719 90.87254333496094 C-53.68995189161885 92.80362405342112 -55.07065324735292 93.54563192859598 -57.6875 94.1875 C-57.99880859375 94.26677734374994 -57.99880859375 94.26677734374994 -59.57421875 94.66796875 C-60.0447265625 94.77753906249995 -60.515234375000006 94.88710937500002 -61 95 C-61 95.65999999999997 -61 96.31999999999994 -61 97 C-59.349999999999994 97.33000000000004 -57.7 97.65999999999997 -56 98 C-55.67 99.31999999999994 -55.34 100.63999999999999 -55 102 C-57.31 102 -59.620000000000005 102 -62 102 C-62.989999999999995 101.00999999999999 -63.980000000000004 100.01999999999998 -65 99 C-71.11488500327727 99.54114026577679 -75.36203781570299 103.02305333457309 -79.3125 107.4375 C-79.56700927734374 107.71352050781252 -79.8215185546875 107.98954101562504 -80.083740234375 108.27392578125 C-83.22051691453835 111.97995747350978 -83.1941589005547 116.65376669941998 -83.1875 121.3125 C-83.18814453125 121.78598876953129 -83.1887890625 122.25947753906246 -83.189453125 122.747314453125 C-83.12574164399904 127.04132347376981 -82.30719527129244 130.92668616356195 -81 135 C-79.70902397253529 135.8136151242859 -78.41725828504738 136.62592602513462 -77.125 137.4375 C-76.7601953125 137.66759765625 -76.395390625 137.8976953125 -76.01953125 138.134765625 C-75.6650390625 138.35712890624995 -75.310546875 138.57949218750002 -74.9453125 138.80859375 C-74.6206298828125 139.0128295898437 -74.295947265625 139.21706542968752 -73.96142578125 139.427490234375 C-69.75930620152664 141.929768145612 -64.47657591729264 141.7997498750451 -59.7646484375 140.7158203125 C-53.86401675516643 138.89234424165465 -48.41065079161109 135.2098361269999 -45 130 C-44.29773498577532 128.47448302492285 -43.775567741543256 126.90616715651458 -43.25 125.3125 C-41.053699252195656 118.87303930217092 -36.41524431077943 114.5386330306003 -31.7509765625 109.791015625 C-28.688015450433852 106.66873737764058 -25.68909989199389 103.48484356518748 -22.6854248046875 100.30569458007813 C-21.652070619819426 99.21604537184305 -20.612289901543676 98.13287676790651 -19.5712890625 97.050537109375 C-8.782984106019853 85.75496113805298 -8.782984106019853 85.75496113805298 -8.82421875 78.9375 C-9.214426634398365 74.63654198529798 -11.146856935760013 71.58037574403988 -14.35693359375 68.80517578125 C-20.209435210514215 64.01238639138955 -24.70644906162829 65.80429937441886 -31 70 Z M-72 75 C-72.1993212890625 75.2243774414062 -72.39864257812499 75.44875488281252 -72.60400390625 75.679931640625 C-73.60915656782404 76.80911125344528 -74.61714595000664 77.93573086867286 -75.625 79.0625 C-76.01598876953125 79.50223144531253 -76.4069775390625 79.94196289062506 -76.809814453125 80.39501953125 C-79.31265151731192 83.18952805189667 -81.87202664484604 85.9086361403904 -84.50390625 88.58203125 C-91.53812711373288 95.76688813603505 -97.5969033516366 102.3297433149462 -101 112 C-101.1435693359375 112.3988037109375 -101.287138671875 112.797607421875 -101.43505859375 113.20849609375 C-104.59627500758124 122.5255567663844 -102.78968147104067 132.35790268481196 -98.63671875 141.0703125 C-94.0077249155521 149.841342771158 -87.17016469109436 155.52469554445656 -78 159 C-77.4057421875 159.24363281249998 -76.81148437499999 159.48726562499996 -76.19921875 159.73828125 C-68.43187810137283 162.46333870906483 -58.8428331415837 161.8428232063934 -51.30322265625 158.64697265625 C-44.53548890759342 155.2871947555493 -38.28230732421065 150.2460173126608 -34 144 C-34.495000000000005 143.83500000000004 -34.495000000000005 143.83500000000004 -37 143 C-37.328710937500006 143.44730468750004 -37.65742187500001 143.89460937500007 -37.99609375 144.35546875 C-43.562088203914044 151.57064674581443 -50.84017840741858 155.64702753022857 -59.8837890625 156.86669921875 C-60.252138671875 156.91068847656243 -60.620488281250005 156.95467773437497 -61 157 C-61.36061523437499 157.0452783203125 -61.72123046875001 157.09055664062498 -62.0927734375 157.13720703125 C-70.72411198218884 158.0639320591838 -78.99036491051166 154.95766997219812 -85.8125 149.75 C-93.66912911317408 143.3080471873975 -97.90782207516433 136.22964323785027 -99 126 C-99.4213743550956 118.03903450551525 -97.97327547613926 108.53283989070223 -92.625 102.26953125 C-89.49416633355713 99.09422551443151 -88.9104130536098 98.98208261072193 -84 98 C-84 96.01999999999998 -84 94.03999999999996 -84 92 C-73.12349195710456 84.93607573726536 -73.12349195710456 84.93607573726536 -68.1484375 82.62109375 C-66.41237785628186 81.68220435084629 -65.27774550051849 80.49070308393823 -64 79 C-64 78.34000000000003 -64 77.68000000000006 -64 77 C-64.76793570253764 76.66004427397547 -65.53952750735266 76.32834229776176 -66.3125 76 C-66.7417578125 75.81437500000004 -67.171015625 75.62874999999997 -67.61328125 75.4375 C-69.14400488392033 74.95456747324204 -70.40452613735307 74.92513905629812 -72 75 Z M-4 89 C-5.650000000000006 90.64999999999998 -7.300000000000011 92.29999999999995 -9 94 C-9 94.65999999999997 -9 95.31999999999994 -9 96 C-9.5841064453125 96.26031005859375 -10.168212890625 96.52062011718749 -10.77001953125 96.788818359375 C-13.125198151119918 97.97093462036139 -14.830754201038985 99.52454602328123 -16.6796875 101.37890625 C-17.014934387207035 101.70986801147455 -17.35018127441407 102.04082977294922 -17.695587158203125 102.38182067871094 C-18.402295120700842 103.08281100568718 -19.106431495687588 103.78640244979874 -19.80810546875 104.492431640625 C-20.856665709479728 105.54411116811207 -21.917703440041834 106.58184409748151 -22.98046875 107.619140625 C-26.479724114910255 111.08489313506675 -29.634642963337967 114.61859362987002 -32.3828125 118.71484375 C-32.62095672607421 119.06946182250977 -32.859100952148424 119.42407989501953 -33.104461669921875 119.78944396972656 C-34.7825315918343 122.4064801409429 -35.90970921145595 125.09033021609514 -37 128 C-30.00426766308908 126.60085353261775 -26.122759830650637 121.38827422203258 -21.5625 116.0625 C-18.842610526394196 112.88916773968026 -15.970300364682316 109.93230035764896 -12.9873046875 107.0068359375 C-10.335294870213403 104.38569335378031 -7.876911957129266 101.63477233909316 -5.448974609375 98.806640625 C-3.0900413975417393 96.06838491646886 -0.6104222662334564 93.50215590496111 2 91 C2 90.34000000000003 2 89.68000000000006 2 89 C0.020000000000010232 89 -1.960000000000008 89 -4 89 Z M-87 105 C-87.99000000000001 105.99000000000001 -88.98 106.98000000000002 -90 108 C-90 108.99000000000001 -90 109.98000000000002 -90 111 C-89.01 110.66999999999996 -88.02 110.34000000000003 -87 110 C-86.34 108.35000000000002 -85.68 106.70000000000005 -85 105 C-85.66 105 -86.32 105 -87 105 Z M-92 115 C-92.33 116.31999999999994 -92.66 117.63999999999999 -93 119 C-92.67 119.16499999999996 -92.67 119.16499999999996 -91 120 C-90.34 119.66999999999996 -89.68 119.34000000000003 -89 119 C-89.33 117.68000000000006 -89.66 116.36000000000001 -90 115 C-90.66 115 -91.32 115 -92 115 Z M-93 125 C-92.34 128.29999999999995 -91.68 131.60000000000002 -91 135 C-90.00999999999999 134.66999999999996 -89.02 134.34000000000003 -88 134 C-88.33 131.69000000000005 -88.66 129.38 -89 127 C-90.32 126.34000000000003 -91.64 125.68000000000006 -93 125 Z M-39 133 C-39.329999999999984 134.64999999999998 -39.66 136.29999999999995 -40 138 C-39.34 138 -38.68000000000001 138 -38 138 C-38 136.35000000000002 -38 134.70000000000005 -38 133 C-38.329999999999984 133 -38.66 133 -39 133 Z M-45 138 C-44.67 138.99 -44.34 139.98000000000002 -44 141 C-43.670000000000016 140.01 -43.34 139.01999999999998 -43 138 C-43.66 138 -44.31999999999999 138 -45 138 Z M-87 139 C-86.34 140.31999999999994 -85.68 141.64 -85 143 C-83.68 143 -82.36 143 -81 143 C-81.33 142.01 -81.66 141.01999999999998 -82 140 C-83.65 139.66999999999996 -85.3 139.34000000000003 -87 139 Z M-46 141 C-46 141.65999999999997 -46 142.31999999999994 -46 143 C-46.99000000000001 142.66999999999996 -47.980000000000004 142.34000000000003 -49 142 C-49.219140624999994 142.26554687500004 -49.43828125 142.53109374999997 -49.6640625 142.8046875 C-52.40637845771647 145.85913698135903 -55.05624126065484 147.00091445269925 -59 148 C-59.33 148.99 -59.66 149.98000000000002 -60 151 C-51.678896389785734 149.94599354270622 -51.678896389785734 149.94599354270622 -49.3125 147.203125 C-48.75 146.375 -48.75 146.375 -48 145 C-47.00999999999999 144.66999999999996 -46.019999999999996 144.34000000000003 -45 144 C-45.33 143.01 -45.66 142.01999999999998 -46 141 Z M-79 145 C-78.67 146.31999999999994 -78.34 147.64 -78 149 C-77.01 149 -76.02000000000001 149 -75 149 C-75.33 147.68000000000006 -75.66 146.36 -76 145 C-76.99000000000001 145 -77.98 145 -79 145 Z M-70 147 C-70.99000000000001 147.99 -71.97999999999999 148.98000000000002 -73 150 C-71.14791936918975 151.18795070764088 -69.53507713551996 151.10250142843552 -67.375 151.0625 C-67.0591796875 151.05798828125 -67.0591796875 151.05798828125 -65.4609375 151.03515625 C-64.978828125 151.0235546875 -64.49671875 151.011953125 -64 151 C-64 150.01 -64 149.01999999999998 -64 148 C-64.99000000000001 147.83500000000004 -64.99000000000001 147.83500000000004 -70 147 Z " transform="translate(172,735)" />
    <path d="M0 0 C1.3199999999999932 0.3300000000000409 2.6400000000000006 0.6599999999999682 4 1 C3 7 3 7 1.35546875 8.35546875 C-2.500828929664735 11.593286657483873 -5.7650162829332885 14.390346083549844 -8 19 C-9.650000000000006 19 -11.299999999999997 19 -13 19 C-15.333333333333343 16.66666666666663 -17.66666666666667 14.333333333333371 -20 12 C-20 10.350000000000023 -20 8.700000000000045 -20 7 C-18.349999999999994 7 -16.700000000000003 7 -15 7 C-13.680000000000007 8.32000000000005 -12.36 9.639999999999986 -11 11 C-9.349696609559444 9.546661100813594 -7.705572733433968 8.086505350885318 -6.0625 6.625 C-5.828212890624997 6.4187500000000455 -5.828212890624997 6.4187500000000455 -4.642578125 5.375 C-4.418603515624994 5.175195312500023 -4.418603515624994 5.175195312500023 -3.28515625 4.1640625 C-3.0783020019531193 3.98077392578125 -3.0783020019531193 3.98077392578125 -2.031494140625 3.05322265625 C-1.0622975350276818 2.063609838132379 -0.524456477307254 1.2697367345333532 0 0 Z " transform="translate(116,764)" />
    <path d="M0 0 C1.6500000000000057 0 3.3000000000000114 0 5 0 C5.990000000000009 0.9900000000000091 6.97999999999999 1.9800000000000182 8 3 C8 4.980000000000018 8 6.960000000000036 8 9 C4 11 4 11 -1 10 C-1.6599999999999966 9.340000000000032 -2.319999999999993 8.67999999999995 -3 8 C-2 2 -2 2 0 0 Z " transform="translate(147,803)" />
    <path d="M0 0 C4.875 1.875 4.875 1.875 6 3 C6 4.649999999999977 6 6.2999999999999545 6 8 C4.349999999999994 9.32000000000005 2.6999999999999886 10.639999999999986 1 12 C-0.3199999999999932 11.340000000000032 -1.6399999999999864 10.67999999999995 -3 10 C-3.3300000000000125 8.019999999999982 -3.6599999999999966 6.039999999999964 -4 4 C-2.680000000000007 2.67999999999995 -1.3600000000000136 1.3600000000000136 0 0 Z " transform="translate(133,820)" />
    <path d="M0 0 C1.9799999999999898 0 3.960000000000008 0 6 0 C6.990000000000009 0.9900000000000091 7.97999999999999 1.9800000000000182 9 3 C8.669999999999987 4.649999999999977 8.340000000000003 6.2999999999999545 8 8 C7.009999999999991 8.659999999999968 6.02000000000001 9.32000000000005 5 10 C1 9 1 9 -2 6 C-1 1 -1 1 0 0 Z " transform="translate(145,821)" />
    <path d="M0 0 C2.6400000000000006 0 5.280000000000001 0 8 0 C12 5 12 5 12 10 C7 15 7 15 1 16 C-4 13 -4 13 -5 11 C-5.130111393713264 8.991080081067253 -5.043819692442568 7.01570585235811 -5 5 C-3.3499999999999943 3.3500000000000227 -1.7000000000000028 1.7000000000000455 0 0 Z M2 5 C1.6700000000000017 6.32000000000005 1.3400000000000034 7.639999999999986 1 9 C2.319999999999993 9 3.6400000000000006 9 5 9 C5 7.67999999999995 5 6.360000000000014 5 5 C4.010000000000005 5 3.019999999999996 5 2 5 Z " transform="translate(121,838)" />
    <path d="M0 0 C0.9899999999999949 1.32000000000005 1.980000000000004 2.6399999999999864 3 4 C2.6700000000000017 5.980000000000018 2.3400000000000034 7.960000000000036 2 10 C-4 14 -4 14 -9 13 C-12 10 -12 10 -13 6 C-9.368391214257898 -0.7480957579037977 -8.348058976587566 -1.192579853798179 0 0 Z M-5 4 C-5.659999999999997 5.32000000000005 -6.319999999999993 6.639999999999986 -7 8 C-5.680000000000007 8 -4.359999999999999 8 -3 8 C-3.3299999999999983 6.67999999999995 -3.6599999999999966 5.360000000000014 -4 4 C-4.329999999999998 4 -4.659999999999997 4 -5 4 Z " transform="translate(107,845)" />
    <path d="M0 0 C5 2 5 2 7 5 C6.670000000000002 6.649999999999977 6.340000000000003 8.299999999999955 6 10 C3 12 3 12 -3 11 C-3.6599999999999966 10.009999999999991 -4.319999999999993 9.019999999999982 -5 8 C-4 3 -4 3 0 0 Z " transform="translate(115,858)" />
    <path d="M0 0 C1.6500000000000057 0 3.299999999999997 0 5 0 C6 1 6 1 6 6 C1 7 1 7 -1 6 C-1 1 -1 1 0 0 Z " transform="translate(98,865)" />
  </g>
</svg>