<svg color="#2C3440" xmlns="http://www.w3.org/2000/svg" viewBox="0 0 136 138" width="136" height="138">
  <g fill="currentColor" transform="scale(0.50000000, 0.50000000)">
    <path d="M0 0 C0.5124023437500114 -0.012246093750000853 1.0248046874999943 -0.024492187500001705 1.552734375 -0.037109375 C5.123976591827926 -0.0507227506677026 7.855955490438021 0.6184534074363981 11.0625 2.1875 C11.0625 2.8474999999999966 11.0625 3.5075000000000003 11.0625 4.1875 C11.639999999999986 4.290624999999999 12.217500000000001 4.393749999999997 12.8125 4.5 C15.345558821044506 5.115171427967958 17.100597504247048 6.528231399868524 19.0625 8.1875 C19.0625 8.847499999999997 19.0625 9.5075 19.0625 10.1875 C21.73215594147942 11.617672825792553 24.10221783844321 12.553153822523548 27.0625 13.1875 C27.0625 14.177500000000002 27.0625 15.167500000000004 27.0625 16.1875 C27.383788757324226 16.222863616943357 27.70507751464845 16.258227233886714 28.036102294921875 16.294662475585938 C31.378269662903108 16.663286591009474 34.71980976657852 17.037241831703682 38.06103515625 17.414306640625 C39.308277801270975 17.554349628219732 40.5556742357133 17.693029904767712 41.80322265625 17.830322265625 C43.59579922680291 18.0278336856899 45.38776664075732 18.230229917150297 47.1796875 18.43359375 C47.45888534545898 18.46382377624512 47.45888534545898 18.46382377624512 48.871795654296875 18.616806030273438 C49.13198989868164 18.646799392700196 49.13198989868164 18.646799392700196 50.44873046875 18.798583984375 C50.906176452636714 18.84965805053711 51.36362243652343 18.900732116699217 51.834930419921875 18.953353881835938 C53.06874506367447 19.188691180883588 53.97551794696747 19.569468529941844 55.0625 20.1875 C55.0625 20.847499999999997 55.0625 21.507499999999993 55.0625 22.1875 C55.66062500000001 22.31125 56.25874999999999 22.435000000000002 56.875 22.5625 C58.959745492324345 23.074412594200638 60.35368765154638 23.905890738659792 62.0625 25.1875 C62.39250000000001 26.177499999999995 62.7225 27.167500000000004 63.0625 28.1875 C63.7225 28.5175 64.3825 28.847499999999997 65.0625 29.1875 C65.19527343749999 29.597421874999995 65.32804687500001 30.007343750000004 65.46484375 30.4296875 C65.55314453124998 30.699101562500005 65.55314453124998 30.699101562500005 66 32.0625 C66.17402343750001 32.59617187500001 66.348046875 33.12984374999999 66.52734375 33.6796875 C67.06250000000003 35.18750000000003 67.06250000000003 35.18750000000003 67.58056640625 36.048095703125 C68.25676406840805 37.64678592059792 68.25698133924772 39.21574979428378 68.30859375 40.92578125 C68.34156099988246 41.67123442716962 68.37477211488894 42.41667685191018 68.408203125 43.162109375 C68.45532551682459 44.32698466720262 68.49972229510098 45.49182581666777 68.539306640625 46.656982421875 C68.81949480024016 54.53077303908549 68.81949480024016 54.53077303908549 70.632568359375 58.22216796875 C71.22869035607042 59.56064972623649 71.21408884502293 60.74740597228225 71.0625 62.1875 C72.3825 62.8475 73.70249999999999 63.50749999999999 75.0625 64.1875 C75.7225 65.5075 76.3825 66.8275 77.0625 68.1875 C78.05250000000001 68.5175 79.04249999999999 68.8475 80.0625 69.1875 C80.39250000000001 70.8375 80.7225 72.4875 81.0625 74.1875 C82.05250000000001 74.5175 83.04249999999999 74.8475 84.0625 75.1875 C85.83959328255074 78.87494313065048 86.41652878602889 82.04739232178832 86.375 86.125 C86.37435546875 86.38780761718749 86.37435546875 86.38780761718749 86.37109375 87.7177734375 C86.26914060222543 91.82903412150944 85.54367765494754 94.8201874682855 83.0625 98.1875 C82.4025 98.1875 81.7425 98.1875 81.0625 98.1875 C80.73249999999999 99.8375 80.4025 101.48750000000001 80.0625 103.1875 C79.07249999999999 103.51749999999998 78.08250000000001 103.8475 77.0625 104.1875 C77.0625 104.8475 77.0625 105.5075 77.0625 106.1875 C76.4025 106.1875 75.7425 106.1875 75.0625 106.1875 C74.794375 106.74437499999999 74.52625 107.30124999999998 74.25 107.875 C73.23249268857685 109.93908626031555 72.02942799169026 111.83771588800462 70.74609375 113.74609375 C68.98626252556807 117.45682358894507 68.96082260605294 121.46482178035336 68.8232421875 125.50439453125 C68.51048238921857 133.75916814055807 67.46350978387247 140.93684040327298 61.5 147.0625 C60.69167018197771 147.7755885403701 59.87972866842216 148.48462756163008 59.0625 149.1875 C58.600121802079144 149.72571800816183 58.14120002166575 150.26694659971483 57.6875 150.8125 C52.38673777787065 155.8679281105366 44.94707297786681 155.71392166741575 38.125 155.875 C37.14513893971858 155.90825136854124 36.16531931072609 155.94274796982015 35.185546875 155.978515625 C32.81143056664234 156.0625172569087 30.437393459035803 156.12973145866343 28.0625 156.1875 C28.0625 156.8475 28.0625 157.5075 28.0625 158.1875 C27.75957031249999 158.35765625 27.456640625000006 158.5278125 27.14453125 158.703125 C22.625399550518182 161.31726887539256 18.658380191074286 164.4023629567639 15.0625 168.1875 C14.402500000000003 168.1875 13.742500000000007 168.1875 13.0625 168.1875 C13.0625 168.8475 13.0625 169.5075 13.0625 170.1875 C8.36850182158463 173.01456708472745 3.2461306629961655 175.00370612861528 -2.271484375 173.92724609375 C-10.545508045754843 171.84143050310988 -10.545508045754843 171.84143050310988 -11.7734375 169.79296875 C-12.95432598812502 168.16429368751884 -13.82508084253945 167.46015269228084 -15.5625 166.5 C-16.008515625 166.2486328125 -16.454531250000002 165.997265625 -16.9140625 165.73828125 C-17.251796874999997 165.5565234375 -17.589531249999993 165.374765625 -17.9375 165.1875 C-18.2675 164.1975 -18.597499999999997 163.2075 -18.9375 162.1875 C-19.240429687499997 162.0779296875 -19.543359374999994 161.968359375 -19.85546875 161.85546875 C-20.2744140625 161.6969140625 -20.693359375 161.538359375 -21.125 161.375 C-21.328027343749994 161.29958984375 -21.328027343749994 161.29958984375 -22.35546875 160.91796875 C-23.937500000000057 160.18749999999997 -23.937500000000057 160.18749999999997 -24.88623046875 159.476806640625 C-29.40006176659685 156.22601988024905 -34.62842485867752 156.4716949823808 -39.98828125 156.178955078125 C-48.393153909453176 155.68856503813802 -56.192144026709485 153.85688046671078 -62.0078125 147.359375 C-64.76628768776285 143.88230543559303 -64.9375 143.27273487291552 -64.9375 138.1875 C-65.5975 138.1875 -66.2575 138.1875 -66.9375 138.1875 C-68.15574153711181 136.30091335764146 -68.12242521572989 134.36852164085525 -68.18359375 132.1953125 C-68.21654562145325 131.39972913704486 -68.24975703433262 130.60415648936274 -68.283203125 129.80859375 C-68.33045508218906 128.56241518993627 -68.37488056891166 127.31627580273084 -68.414306640625 126.06982421875 C-68.45437034562082 124.86119580097201 -68.50583041868724 123.65344426805564 -68.55859375 122.4453125 C-68.56700790405273 122.07850372314454 -68.57542205810547 121.71169494628907 -68.58409118652344 121.33377075195313 C-68.69890687110271 118.89411983961912 -69.29123544515791 117.163417506759 -70.49424743652344 115.03640747070313 C-71.34175031810268 113.41328876390497 -71.06450850444566 111.96561906223906 -70.9375 110.1875 C-71.9275 110.1875 -72.9175 110.1875 -73.9375 110.1875 C-76.9375 105.1875 -76.9375 105.1875 -76.9375 103.1875 C-77.9275 103.1875 -78.9175 103.1875 -79.9375 103.1875 C-82.9375 98.1875 -82.9375 98.1875 -82.9375 94.1875 C-83.5975 94.1875 -84.2575 94.1875 -84.9375 94.1875 C-87.16258707293923 90.26280350212394 -86.7124209403794 84.48799621059332 -85.9375 80.1875 C-84.50669276853432 76.23423261232074 -82.27490352794717 72.66459496444624 -79.9375 69.1875 C-79.4425 69.02250000000001 -79.4425 69.02250000000001 -76.9375 68.1875 C-75.9475 66.5375 -74.9575 64.8875 -73.9375 63.1875 C-73.4425 63.02250000000001 -73.4425 63.02250000000001 -70.9375 62.1875 C-69.1944589189896 55.94301302045788 -68.59572933963035 49.789783857624144 -68.367431640625 43.329833984375 C-68.1147030785049 37.80345502968649 -68.1147030785049 37.80345502968649 -65.9375 35.1875 C-65.41015625 33.75781250000003 -65.41015625 33.75781250000003 -65 32.3125 C-63.65359866435088 28.083958305227 -61.99326312542148 24.31194735141125 -57.9375 22.1875 C-56.61750000000001 22.1875 -55.2975 22.1875 -53.9375 22.1875 C-53.77250000000001 21.692499999999995 -53.77250000000001 21.692499999999995 -52.9375 19.1875 C-49.735671766296164 18.756586802445625 -46.5333146855981 18.329782130395905 -43.33056640625 17.90576171875 C-42.242225679507655 17.76118867124515 -41.15400709367955 17.6156929150481 -40.06591796875 17.46923828125 C-38.49738657167367 17.258283006437352 -36.928438609334506 17.050704888987028 -35.359375 16.84375 C-34.87692321777344 16.778128662109374 -34.394471435546876 16.71250732421875 -33.89739990234375 16.6448974609375 C-31.217075733308178 16.295060428851713 -28.640538653910895 16.120758304841708 -25.9375 16.1875 C-25.6075 15.197499999999998 -25.277500000000003 14.207499999999996 -24.9375 13.1875 C-24.744140625 13.066328124999998 -24.744140625 13.066328124999998 -23.765625 12.453125 C-20.444275635548294 10.315622933768708 -17.58860062484851 8.119305396891292 -14.9375 5.1875 C-13.617500000000007 4.857500000000002 -12.297500000000014 4.527500000000003 -10.9375 4.1875 C-10.607500000000016 3.197499999999998 -10.277500000000003 2.207500000000003 -9.9375 1.1875 C-6.59064116098989 0.1842449523351064 -3.4837604461007174 0.004349263977651674 0 0 Z M-17.6953125 18.06640625 C-21.725783672503667 22.490659088782763 -27.18664082667786 23.694083088679463 -32.9375 24.1875 C-32.9375 24.847499999999997 -32.9375 25.507499999999993 -32.9375 26.1875 C-33.42629638671875 26.202082519531245 -33.91509277343749 26.216665039062505 -34.418701171875 26.231689453125 C-36.25517156355727 26.290245896415158 -38.0904874817229 26.36745931838648 -39.926025390625 26.449951171875 C-40.71619747771902 26.482935345740657 -41.5065901789751 26.511047913950748 -42.297119140625 26.533935546875 C-47.20647122213754 26.67988086492123 -50.952637241006585 26.974541518830918 -54.9375 30.1875 C-54.9375 30.847499999999997 -54.9375 31.507499999999993 -54.9375 32.1875 C-55.5975 32.1875 -56.25749999999999 32.1875 -56.9375 32.1875 C-59.07544181369431 37.373648424139446 -59.554990126475914 42.52753517528021 -60.0625 48.0625 C-60.14910270503529 48.95058316998734 -60.23633773807461 49.83860491482085 -60.32421875 50.7265625 C-60.53593367614471 52.879570432000776 -60.739105164335584 55.0332255304221 -60.9375 57.1875 C-61.2675 57.35249999999999 -61.2675 57.35249999999999 -62.9375 58.1875 C-63.0960546875 58.779179687500005 -63.254609375 59.37085937500001 -63.41796875 59.98046875 C-65.20601090204505 66.19848730082037 -67.49834896332223 69.98097749363271 -73.0625 73.5625 C-75.85932172141705 75.61730779532681 -77.32018171553818 78.82374526629988 -77.9375 82.1875 C-78.18868180271902 86.99344515869058 -77.14735561280811 91.91797313641928 -74.9375 96.1875 C-74.2775 96.1875 -73.6175 96.1875 -72.9375 96.1875 C-72.6075 97.17750000000001 -72.2775 98.16750000000002 -71.9375 99.1875 C-71.2775 99.1875 -70.6175 99.1875 -69.9375 99.1875 C-69.6075 100.8375 -69.2775 102.48750000000001 -68.9375 104.1875 C-67.94749999999999 104.1875 -66.9575 104.1875 -65.9375 104.1875 C-64.94749999999999 107.48750000000001 -63.957499999999996 110.7875 -62.9375 114.1875 C-62.2775 114.51749999999998 -61.61750000000001 114.8475 -60.9375 115.1875 C-60.922917480468755 115.6501123046875 -60.908334960937495 116.112724609375 -60.893310546875 116.58935546875 C-60.580484398845485 125.48776709997833 -60.21704068481745 133.79270088854906 -56.9375 142.1875 C-55.947500000000005 142.1875 -54.957499999999996 142.1875 -53.9375 142.1875 C-53.6075 143.1775 -53.2775 144.1675 -52.9375 145.1875 C-47.825380346931894 146.6104434344253 -42.860283914418545 147.52742722602923 -37.580291748046875 148.02203369140625 C-31.069830854943277 148.642568030041 -24.994738387458625 149.59893658655614 -18.9375 152.1875 C-18.9375 152.8475 -18.9375 153.5075 -18.9375 154.1875 C-18.277500000000003 154.1875 -17.617500000000007 154.1875 -16.9375 154.1875 C-16.9375 154.8475 -16.9375 155.5075 -16.9375 156.1875 C-16.648750000000007 156.31125 -16.648750000000007 156.31125 -15.1875 156.9375 C-13.441717888853816 157.79207865580582 -12.34902775559641 158.73880488025276 -11.0625 160.1875 C-8.775204141686515 162.63948116011207 -6.123065186005931 163.3804901528785 -2.9375 164.1875 C-2.9375 164.8475 -2.9375 165.5075 -2.9375 166.1875 C-0.29750000000001364 166.1875 2.342500000000001 166.1875 5.0625 166.1875 C5.495625000000018 165.713125 5.9287499999999795 165.23875 6.375 164.75 C7.809857655692781 163.3014770333006 9.05309679229839 162.66592933516705 11.0625 162.1875 C11.0625 161.5275 11.0625 160.8675 11.0625 160.1875 C11.722499999999997 160.1875 12.382499999999993 160.1875 13.0625 160.1875 C13.353828125000007 159.87296875 13.645156250000014 159.5584375 13.9453125 159.234375 C17.9113974286646 155.0936825587527 22.205351157821326 151.08859982187363 28.0625 150.1875 C28.0625 149.5275 28.0625 148.8675 28.0625 148.1875 C28.31418945312501 148.18020874023438 28.31418945312501 148.18020874023438 29.587890625 148.143310546875 C31.497060654247946 148.08431707803024 33.405171312344464 148.00712244355785 35.3134765625 147.925048828125 C36.13165803978467 147.8922639956693 36.95004057946238 147.86409551810826 37.7685546875 147.841064453125 C42.194548393365864 147.71328699355763 46.284638364273405 147.36296667323373 50.46875 145.83203125 C50.78847778320312 145.71695724487304 51.10820556640624 145.6018832397461 51.4376220703125 145.4833221435547 C53.88388377205777 144.49302304501563 55.31754683871583 143.09913226302248 57.0625 141.1875 C59.241749894807526 131.49055550099763 60.64257091412523 122.13819530009351 61.0625 112.1875 C61.7225 112.1875 62.38249999999999 112.1875 63.0625 112.1875 C63.7225 109.8775 64.3825 107.5675 65.0625 105.1875 C65.66062500000001 104.92195312500002 66.25874999999999 104.65640625 66.875 104.3828125 C69.07363112242524 103.27769069462605 70.50388433659094 101.94313054009024 72.0625 100.0625 C72.31596191406251 99.76335693359374 72.569423828125 99.46421386718748 72.83056640625 99.156005859375 C75.5370939290608 95.82469728395841 77.33748922821934 92.09414204197384 79.0625 88.1875 C78.55233236796687 83.384887463964 77.09968937572708 79.51812898739469 75.0625 75.1875 C74.4025 75.1875 73.7425 75.1875 73.0625 75.1875 C73.0625 74.5275 73.0625 73.8675 73.0625 73.1875 C72.74796875000001 72.896171875 72.4334375 72.60484375 72.109375 72.3046875 C67.9686825587527 68.33860257133543 63.96359982187363 64.04464884217867 63.0625 58.1875 C62.4025 58.1875 61.74250000000001 58.1875 61.0625 58.1875 C61.05315429687499 57.6945947265625 61.043808593749986 57.201689453125 61.0341796875 56.69384765625 C60.63500046612316 38.651942723334955 60.63500046612316 38.651942723334955 56.0625 30.1875 C51.67959844849864 26.572548704416363 47.1553386862326 26.647350868285216 41.75 26.5 C40.9055479462441 26.46676662103667 40.06114455772149 26.432271513090967 39.216796875 26.396484375 C37.16563618611394 26.312264736385274 35.1145723388546 26.245147849345443 33.0625 26.1875 C33.0625 25.527500000000003 33.0625 24.867500000000007 33.0625 24.1875 C32.53140625 24.054726562500008 32.00031250000001 23.921953125 31.453125 23.78515625 C28.936848958333314 23.15608723958333 26.420572916666686 22.52701822916667 23.904296875 21.89794921875 C23.53884765625 21.806586914062507 23.173398437499998 21.715224609375 22.796875 21.62109375 C22.224531249999984 21.478007812499996 21.652187499999997 21.334921874999992 21.0625 21.1875 C21.0625 20.197499999999998 21.0625 19.207499999999996 21.0625 18.1875 C20.796953125000016 18.066328125 20.796953125000016 18.066328125 19.453125 17.453125 C13.020940209034052 14.431048114535521 13.020940209034052 14.431048114535521 10.875 12.0625 C7.8960741197435595 8.786971110021064 4.590591892683278 8.067329269629155 0.25 7.8125 C-7.390989353636655 7.828838537463227 -12.931833338005418 12.54175258273824 -17.6953125 18.06640625 Z " transform="translate(141.9375,42.8125)" />
    <path d="M0 0 C1 1 1 1 1 7 C-3 8 -3 8 -7 6 C-7 4.019999999999996 -7 2.0400000000000063 -7 0 C-5 -1 -5 -1 0 0 Z " transform="translate(152,72)" />
    <path d="M0 0 C0.3299999999999841 0 0.660000000000025 0 1 0 C1 3.9599999999999937 1 7.920000000000002 1 12 C0.339999999999975 11.670000000000002 -0.3199999999999932 11.340000000000003 -1 11 C-1 1 -1 1 0 0 Z " transform="translate(271,81)" />
    <path d="M0 0 C1.9181250000000034 1.0518749999999955 3.836250000000007 2.103750000000005 5.8125 3.1875 C6.411672363281241 3.5074291992187483 7.01084472656251 3.8273583984374966 7.628173828125 4.156982421875 C11.528600667360394 6.366241822167368 14.00143236663348 8.681434585647935 15.317138671875 13.053955078125 C15.51171875 14.01953125 15.51171875 14.01953125 15.6875 15.8125 C15.720371093750003 16.114785156250008 15.720371093750003 16.114785156250008 15.88671875 17.64453125 C15.905410156250014 17.868183593750004 15.905410156250014 17.868183593750004 16 19 C16.329999999999984 19.33 16.659999999999997 19.659999999999997 17 20 C17.538186059439 25.26226369229255 16.11445618942642 29.29272689477874 14 34 C13.795039062499995 34.476953124999994 13.590078124999991 34.95390625 13.37890625 35.4453125 C11.9688454238794 38.230401585132626 10.040483929584582 39.93730373049661 7.5625 41.75 C7.274072265624994 41.961003417968755 6.985644531249989 42.17200683593751 6.6884765625 42.389404296875 C2.7447300814154687 45.080028645812035 -1.2991869064987895 45.18170934694945 -5.9375 45.1875 C-6.449902343749997 45.19974609375001 -6.962304687499994 45.211992187500016 -7.490234375 45.224609375 C-11.061476591827955 45.23822275066772 -13.793455490438006 44.56904659256361 -17 43 C-17 42.34 -17 41.68000000000001 -17 41 C-18.319999999999993 40.67 -19.64 40.34 -21 40 C-21.659999999999997 39.34 -22.319999999999993 38.68000000000001 -23 38 C-23 37.00999999999999 -23 36.02000000000001 -23 35 C-23.989999999999995 34.67 -24.980000000000004 34.34 -26 34 C-27.586576308282417 28.8075684456212 -28.1983032414238 24.12076769605966 -27.75 18.6875 C-27.71140869140625 18.184443359374995 -27.672817382812497 17.681386718750005 -27.633056640625 17.1630859375 C-27.313599881170035 14.017826939647776 -26.586107172160425 11.736684915899744 -25 9 C-24.340000000000003 9 -23.680000000000007 9 -23 9 C-22.814375 8.443124999999995 -22.628749999999997 7.886250000000004 -22.4375 7.3125 C-18.331590114059523 -1.173047097610322 -7.768819626966078 0 0 0 Z M-16 10 C-16.646505298497928 11.124618519247562 -17.292224886248704 12.249675926191514 -17.9375 13.375 C-18.028701171875 13.5335546875 -18.028701171875 13.5335546875 -18.490234375 14.3359375 C-18.997641045967413 15.221592780234033 -19.499012907729735 16.11069761131141 -20 17 C-20.202382812500005 17.350625000000008 -20.404765624999996 17.70125 -20.61328125 18.0625 C-22.10300436754048 21.673949981916294 -20.959923308409586 25.689145331459116 -19.6875 29.1875 C-19.569873046875003 29.520239257812506 -19.452246093750006 29.852978515624997 -19.3310546875 30.19580078125 C-18.346297234994424 32.703028515186816 -16.99328541798377 34.196551288490866 -15 36 C-8.922009101970588 37.550342229598854 -2.6681806949893883 37.98537630910474 3 35 C3.3931640625000057 34.80921875 3.7863281250000114 34.6184375 4.19140625 34.421875 C5.134515050914672 33.96182192638308 6.068448480006936 33.483026714070476 7 33 C8.096353511837862 29.458604132396772 8.149906238853816 26.12777439017296 8.125 22.4375 C8.128867187499992 21.860644531250003 8.132734374999984 21.283789062500006 8.13671875 20.689453125 C8.136074218749997 20.410048828125 8.136074218749997 20.410048828125 8.1328125 18.99609375 C8.131684570312501 18.492634277343754 8.130556640625002 17.989174804687508 8.12939453125 17.470458984375 C7.987345647314271 15.856194025988373 7.56677731065389 14.51318848033064 7 13 C6.340000000000003 13 5.680000000000007 13 5 13 C5 12.340000000000003 5 11.680000000000007 5 11 C-2.8189693028077585 7.770867222996273 -7.844731892517331 5.922365946258665 -16 10 Z " transform="translate(128,84)" />
    <path d="M0 0 C1.6500000000000057 0 3.299999999999997 0 5 0 C5.329999999999998 1.6500000000000057 5.659999999999997 3.299999999999997 6 5 C5.670000000000002 5.329999999999998 5.340000000000003 5.659999999999997 5 6 C3.3499999999999943 6 1.7000000000000028 6 0 6 C-1 2 -1 2 0 0 Z " transform="translate(97,85)" />
    <path d="M0 0 C0.027037833306422954 1.2918075913062665 0.046853501580272905 2.5830462733426884 0.0625 3.875 C0.0708789062499875 4.239804687499998 0.07925781250000341 4.6046093749999955 0.087890625 4.98046875 C0.1068646089775882 7.06760698753591 -0.04242636600909577 8.084852732018192 -1 10 C-2.6500000000000057 10 -4.300000000000011 10 -6 10 C-8 7 -8 7 -7 0 C-3 -1 -3 -1 0 0 Z " transform="translate(183,90)" />
    <path d="M0 0 C6 1 6 1 7 2 C7 3.980000000000004 7 5.959999999999994 7 8 C6.009999999999991 8.989999999999995 5.02000000000001 9.980000000000004 4 11 C3.009999999999991 10.670000000000002 2.0200000000000102 10.340000000000003 1 10 C1 9.340000000000003 1 8.680000000000007 1 8 C0.3400000000000034 8 -0.3199999999999932 8 -1 8 C-1 1 -1 1 0 0 Z " transform="translate(176,105)" />
    <path d="M0 0 C0.8249999999999886 0.3299999999999983 0.8249999999999886 0.3299999999999983 5 2 C5 3.319999999999993 5 4.640000000000001 5 6 C3.3499999999999943 6.659999999999997 1.6999999999999886 7.319999999999993 0 8 C-0.6599999999999966 7.340000000000003 -1.3199999999999932 6.680000000000007 -2 6 C-2 4.349999999999994 -2 2.700000000000003 -2 1 C-1.3400000000000034 0.6700000000000017 -0.6800000000000068 0.3400000000000034 0 0 Z " transform="translate(192,123)" />
    <path d="M0 0 C3.6299999999999955 0 7.259999999999991 0 11 0 C11 0.6599999999999966 11 1.3199999999999932 11 2 C13.310000000000002 2.3300000000000125 15.620000000000005 2.6599999999999966 18 3 C22 8 22 8 22 11 C22.99000000000001 11.330000000000013 23.97999999999999 11.659999999999997 25 12 C26.606663084363248 26.075765717356262 26.606663084363248 26.075765717356262 24 32 C23.340000000000003 32 22.680000000000007 32 22 32 C22 33.650000000000006 22 35.30000000000001 22 37 C21.00999999999999 38.650000000000006 20.02000000000001 40.30000000000001 19 42 C18.00999999999999 42 17.02000000000001 42 16 42 C15.340000000000003 43.650000000000006 14.680000000000007 45.30000000000001 14 47 C9 50 9 50 4 50 C3.670000000000016 50.99000000000001 3.3400000000000034 51.97999999999999 3 53 C-4.3111600146407625 54.94964267057088 -11.92423273315012 54.62412560889797 -19 52 C-19 51.34 -19 50.68000000000001 -19 50 C-20.319999999999993 49.670000000000016 -21.639999999999986 49.34 -23 49 C-29 40 -29 40 -29.0625 34.6875 C-29.07160400390626 34.14053466796875 -29.08070800781249 33.5935693359375 -29.090087890625 33.030029296875 C-29.104549300732202 30.487153603506925 -29.030343933698276 28.377092697429873 -28 26 C-27.340000000000003 26 -26.680000000000007 26 -26 26 C-25.9626171875 25.624882812500005 -25.925234375000002 25.24976562500001 -25.88671875 24.86328125 C-24.760664214741325 16.09771947553537 -18.8134798565178 11.326067874647947 -12.1875 6.1875 C-7.594668719578436 2.661087631600765 -7.282300209980946 2.910287526247629 0 2 C0 1.3400000000000034 0 0.6800000000000068 0 0 Z M-6 11 C-6 11.659999999999997 -6 12.319999999999993 -6 13 C-7.319999999999993 13.330000000000013 -8.639999999999986 13.659999999999997 -10 14 C-10 14.659999999999997 -10 15.319999999999993 -10 16 C-10.659999999999997 16 -11.319999999999993 16 -12 16 C-12 16.659999999999997 -12 17.319999999999993 -12 18 C-12.659999999999997 18 -13.319999999999993 18 -14 18 C-18.622623187603665 22.669553372249396 -21.17188411527087 28.972596644301632 -21.1875 35.5625 C-21.070069707168244 37.62591800261535 -20.70588629036692 38.568017146323314 -19.6875 40.375 C-19.44386718749999 40.815859375 -19.200234375000008 41.256718750000005 -18.94921875 41.7109375 C-17.828070462932686 43.23348455651117 -16.58329674314976 43.98954490176209 -15 45 C-12.688871692855457 45.07508664110182 -10.378477968403814 45.129026485637326 -8.06640625 45.164794921875 C-7.282751560213114 45.17972932477463 -6.499178176547446 45.20008544017037 -5.7158203125 45.226318359375 C-0.502051065691262 45.396332573944846 3.571546470113958 45.137361908468876 8 42 C9.390625 40.6484375 9.390625 40.6484375 10.25 39.375 C11.382140286193646 37.736375901561814 12.123939931395313 36.740550027080786 14 36 C17.187498984061847 28.657368411714685 17.359412259430343 21.931030524762775 17 14 C15.12930507837001 11.080582167759275 13.39488052336776 9.018464157010328 10 8 C8.363027556535144 7.720735535129194 6.783490279771598 7.667111337321273 5.125 7.6875 C4.906906738281236 7.688144531250003 4.906906738281236 7.688144531250003 3.80322265625 7.69140625 C-0.04382927268065373 7.805350772145289 -2.7965533269668867 8.81228032085545 -6 11 Z " transform="translate(167,127)" />
    <path d="M0 0 C1.980000000000004 0 3.9599999999999937 0 6 0 C7 6 7 6 5 10 C3.680000000000007 9.669999999999987 2.3599999999999994 9.340000000000003 1 9 C1 8.340000000000003 1 7.680000000000007 1 7 C0.010000000000005116 6.6699999999999875 -0.980000000000004 6.340000000000003 -2 6 C-1.3400000000000034 4.02000000000001 -0.6800000000000068 2.039999999999992 0 0 Z " transform="translate(88,130)" />
    <path d="M0 0 C5 1 5 1 9 6 C8.478358103513358 9.216791695001007 8.022843591103808 11.437731451268519 6 14 C5.010000000000005 14 4.019999999999996 14 3 14 C3 14.659999999999997 3 15.319999999999993 3 16 C2.010000000000005 16 1.019999999999996 16 0 16 C0 15.340000000000003 0 14.680000000000007 0 14 C-1.3199999999999932 13.669999999999987 -2.6400000000000006 13.340000000000003 -4 13 C-4.329999999999998 12.669999999999987 -4.659999999999997 12.340000000000003 -5 12 C-4.670000000000002 9.030000000000001 -4.340000000000003 6.060000000000002 -4 3 C-2.680000000000007 2.009999999999991 -1.3599999999999994 1.0200000000000102 0 0 Z M1 7 C0.6700000000000017 7.659999999999997 0.3400000000000034 8.319999999999993 0 9 C0.6599999999999966 9 1.3199999999999932 9 2 9 C1.6700000000000017 8.340000000000003 1.3400000000000034 7.680000000000007 1 7 Z " transform="translate(100,145)" />
    <path d="M0 0 C2.3100000000000023 0 4.6200000000000045 0 7 0 C7.659999999999997 0.6599999999999966 8.319999999999993 1.3199999999999932 9 2 C8 7 8 7 7 8 C4.689999999999998 8 2.3799999999999955 8 0 8 C-0.3299999999999983 7.6699999999999875 -0.6599999999999966 7.340000000000003 -1 7 C-1 1 -1 1 0 0 Z " transform="translate(118,175)" />
    <path d="M0 0 C0.9900000000000091 0.6599999999999966 1.9799999999999898 1.3199999999999932 3 2 C2.6699999999999875 3.319999999999993 2.3400000000000034 4.639999999999986 2 6 C0.3499999999999943 6 -1.3000000000000114 6 -3 6 C-3 4.680000000000007 -3 3.3600000000000136 -3 2 C-2.009999999999991 1.3400000000000034 -1.0200000000000102 0.6800000000000068 0 0 Z " transform="translate(140,183)" />
  </g>
</svg>