<svg color="#2C3440" xmlns="http://www.w3.org/2000/svg" viewBox="0 0 108 94" width="108" height="94">
  <g fill="currentColor" transform="scale(0.50000000, 0.50000000)">
    <path d="M0 0 C5.1468062187746 2.9179297551795855 8.978112396006651 2.882890505679079 14.7451171875 1.333740234375 C14.910117187499992 2.1587402343749993 14.910117187499992 2.1587402343749993 15.7451171875 6.333740234375 C14.735880375253942 6.876703504185187 13.71168978071313 7.3918815788002235 12.6826171875 7.896240234375 C12.114140625000005 8.186279296875 11.545664062500009 8.476318359375 10.9599609375 8.775146484375 C4.860373671441593 10.31349036276363 -0.22474895963824792 7.5637919924716215 -5.5048828125 4.771240234375 C-12.742345686488676 1.1990750024595265 -18.621964178662807 -0.5221385870382491 -26.6142578125 2.111083984375 C-28.892192239945132 3.0890247989160997 -31.066034309492366 4.170792103081141 -33.2548828125 5.333740234375 C-38.52691838485222 8.091837746497518 -42.515513797630106 10.047646273152466 -48.5244140625 8.896240234375 C-50.8448068033089 8.141981645940504 -52.50084694617432 7.014691272937114 -54.2548828125 5.333740234375 C-53.9248828125 4.013740234375 -53.5948828125 2.6937402343749994 -53.2548828125 1.333740234375 C-52.646445312500006 1.4987402343749991 -52.0380078125 1.6637402343749983 -51.4111328125 1.833740234375 C-43.597261699343775 3.3045865615573433 -38.76385604218153 1.171399546642835 -31.9150390625 -2.681884765625 C-20.57912745407384 -9.049866983904238 -10.580992528008608 -6.353984278727761 0 0 Z " transform="translate(117.2548828125,29.666259765625)" />
    <path d="M0 0 C4.291639642882245 2.197834470922956 8.401190147365725 4.282499227736395 13.315185546875 3.00390625 C13.868193359374999 2.722890624999998 14.421201171874998 2.441874999999996 14.990966796875 2.15234375 C17.07925852342757 1.1250002339488532 19.076269254008707 0.21367048526393262 21.303466796875 -0.47265625 C21.633466796874984 -0.30765625000000085 21.633466796874984 -0.30765625000000085 23.303466796875 0.52734375 C23.303466796875 2.1773437499999986 23.303466796875 3.827343749999997 23.303466796875 5.52734375 C22.368991071836604 6.177545306256505 21.430739855281047 6.8223225105545 20.490966796875 7.46484375 C19.968896484374994 7.824492187499999 19.44682617187499 8.184140624999998 18.908935546875 8.5546875 C14.915803291492125 10.973884413845099 10.863970953929055 11.190292437367283 6.303466796875 10.52734375 C1.4797432300662194 9.020959086645036 -3.168640989083059 6.808809902068788 -7.669189453125 4.52734375 C-12.509244627004193 2.147363900905738 -17.39162050435442 1.1865584780692515 -22.696533203125 2.52734375 C-26.62780250694709 4.024229011236407 -30.42784473185101 5.798246523469359 -34.18798828125 7.680908203125 C-39.9161949904034 10.485986856576957 -44.137969601665134 11.669270875841598 -50.313720703125 9.6875 C-51.058798828125006 9.325273437500002 -51.803876953125 8.963046875000003 -52.571533203125 8.58984375 C-53.332080078125 8.230195312500001 -54.092626953125 7.870546875000002 -54.876220703125 7.5 C-56.696533203125 6.52734375 -56.696533203125 6.52734375 -57.696533203125 5.52734375 C-57.696533203125 3.8773437500000014 -57.696533203125 2.227343750000003 -57.696533203125 0.52734375 C-56.912783203125 0.6510937500000011 -56.129033203125 0.7748437500000023 -55.321533203125 0.90234375 C-54.763369140625 0.980976562500004 -54.205205078125 1.0596093750000009 -53.630126953125 1.140625 C-51.696533203125 1.52734375 -51.696533203125 1.52734375 -49.669189453125 2.3203125 C-42.96034992827269 4.579528545121207 -38.98448953554441 2.7652487365270844 -32.821533203125 -0.28515625 C-30.720121331346547 -1.3681051003792177 -28.62744323183361 -2.460183804287837 -26.552490234375 -3.593017578125 C-17.35491887046487 -7.95224536346678 -8.377193781860157 -4.324833488004515 0 0 Z " transform="translate(115.696533203125,45.47265625)" />
    <path d="M0 0 C4.713955074367817 2.4292774616373976 9.702902036288677 3.6567846291246866 14.9296875 2.265625 C17.814427832630997 1.0925770639093884 19.65218951287943 0.035310487120582934 21.875 -2.1875 C23.525000000000006 -2.1875 25.17500000000001 -2.1875 26.875 -2.1875 C27.039999999999992 -1.5275000000000034 27.039999999999992 -1.5275000000000034 27.875 1.8125 C21.616762448138445 7.547714816979749 17.240929819160556 10.31342573175074 8.55859375 10.1328125 C1.7533408215961401 9.320540680306962 -4.432210995500796 5.78930592928873 -10.43359375 2.64453125 C-14.623856682215916 0.583270269487322 -18.496861086974675 0.1647604717839286 -23.125 0.8125 C-27.23959183086785 2.3499368098120073 -31.034122649069303 4.512275151049309 -34.8828125 6.61328125 C-41.65161416503592 10.097223283474378 -47.48327941353608 10.969697750664409 -54.9296875 9.11328125 C-59.48138180702997 6.940491326078146 -62.387529199482564 5.097236905157729 -65.125 0.8125 C-64.795 -0.177500000000002 -64.465 -1.167500000000004 -64.125 -2.1875 C-61.21168189695328 -1.7713116995647553 -59.25913815869442 -1.272218837070156 -56.75 0.3125 C-52.846949792771596 2.7534168478642016 -49.20830237172409 3.218425260835133 -44.69921875 2.33984375 C-39.97614251061462 1.0282762965743188 -35.99784459422726 -0.7196304246635847 -31.8359375 -3.26953125 C-20.926715917859767 -9.122652418499896 -10.138610019223847 -5.524631806882454 0 0 Z " transform="translate(117.125,63.1875)" />
    <path d="M0 0 C0.9010546874999932 0.11085937500000398 1.8021093749999864 0.22171874999999375 2.73046875 0.3359375 C3.4175390624999977 0.4313281249999932 4.1046093749999955 0.5267187500000006 4.8125 0.625 C4.8125 1.2849999999999966 4.8125 1.9449999999999932 4.8125 2.625 C4.281406250000003 2.6739843750000034 3.750312500000007 2.722968750000007 3.203125 2.7734375 C-0.6422083413319228 3.18042533539645 -3.837751746998407 3.531407341874001 -7.1875 5.625 C-7.1875 6.614999999999995 -7.1875 7.605000000000004 -7.1875 8.625 C-1.9074999999999989 8.954999999999998 3.3725000000000023 9.284999999999997 8.8125 9.625 C9.142499999999984 8.965000000000003 9.472499999999997 8.305000000000007 9.8125 7.625 C10.472499999999997 7.625 11.132499999999993 7.625 11.8125 7.625 C12.142499999999984 8.120000000000005 12.142499999999984 8.120000000000005 13.8125 10.625 C16.7825 10.625 19.752499999999998 10.625 22.8125 10.625 C23.472499999999997 9.305000000000007 24.132499999999993 7.984999999999999 24.8125 6.625 C26.132499999999993 6.625 27.452499999999986 6.625 28.8125 6.625 C28.152500000000003 8.605000000000004 27.492500000000007 10.585000000000008 26.8125 12.625 C30.11250000000001 12.625 33.412499999999994 12.625 36.8125 12.625 C36.48249999999999 10.974999999999994 36.1525 9.325000000000003 35.8125 7.625 C37.462500000000006 7.625 39.11250000000001 7.625 40.8125 7.625 C40.48249999999999 9.275000000000006 40.1525 10.924999999999997 39.8125 12.625 C40.366796875000006 12.673984375000003 40.92109375000001 12.722968750000007 41.4921875 12.7734375 C42.216640625 12.848203124999998 42.94109374999999 12.922968749999995 43.6875 13 C44.406796875 13.069609374999999 45.126093749999995 13.139218749999998 45.8671875 13.2109375 C47.8125 13.625 47.8125 13.625 49.8125 15.625 C49.48249999999999 17.275000000000006 49.1525 18.924999999999997 48.8125 20.625 C36.9599037620286 20.948117051084083 25.330811819930148 20.855645142847266 13.5625 19.3125 C12.648474121093756 19.19479248046875 11.734448242187511 19.077084960937498 10.792724609375 18.955810546875 C5.098795892746352 18.146092542681515 -0.2968716195295542 16.870217925639963 -5.799072265625 15.240234375 C-8.741884674496987 14.482196220000773 -11.174364319709923 14.380691701598096 -14.1875 14.625 C-15.213558110316868 18.457428968335847 -15.112407412333667 20.66925183845241 -13.75 24.375 C-11.826365935167459 30.498116882424696 -10.544835962612424 35.62422495763204 -13.58203125 41.57421875 C-15.729732674558022 45.423677371216314 -18.08435916862645 49.1246141542199 -20.6953125 52.67578125 C-24.170306100637447 57.53452978741822 -24.976714452363638 61.93653876521188 -25.468017578125 67.79052734375 C-25.885772450239443 72.25276827403911 -25.885772450239443 72.25276827403911 -27.7421875 74.54296875 C-29.1875 75.625 -29.1875 75.625 -34.1875 75.625 C-41.517053201976154 67.88367414622743 -46.639090181157286 60.25433014362807 -46.62109375 49.3125 C-46.07006134298487 45.89709192769007 -44.74492901873977 43.249533483236576 -43.1875 40.1875 C-40.405071844082215 34.65324637121071 -38.81641375422558 29.902535373215102 -40.1875 23.625 C-41.451067270498214 20.873231277581652 -43.058426257827506 18.754073742172494 -45.1875 16.625 C-50.61974279700142 16.980609573618608 -55.51170125926083 17.67632413625458 -60.75 19.15625 C-70.01590527959496 21.49022362630997 -79.5176297383861 20.946744223274564 -89 20.8125 C-90.867827681748 20.797417254979365 -92.73566722263111 20.783735239029525 -94.603515625 20.771484375 C-108.13876101808535 20.673738981914653 -108.13876101808535 20.673738981914653 -109.1875 19.625 C-109.1875 17.974999999999994 -109.1875 16.325000000000003 -109.1875 14.625 C-106.95948967556355 13.51099483778178 -105.7633822681629 13.490008551567598 -103.29541015625 13.46728515625 C-102.49342193603516 13.457023010253906 -101.69143371582031 13.446760864257811 -100.86514282226563 13.436187744140625 C-99.99441131591797 13.428886413574219 -99.12367980957032 13.421585083007813 -98.2265625 13.4140625 C-96.37368964215398 13.385956973926099 -94.52082519710996 13.357292350607267 -92.66796875 13.328125 C-89.75440034072933 13.287150657729995 -86.84098272850932 13.250260292323489 -83.92724609375 13.2236328125 C-64.27366936222953 13.028543397742482 -64.27366936222953 13.028543397742482 -55.61376953125 10.277587890625 C-51.50012177412458 9.171149929788186 -47.42468639052808 9.371893733309165 -43.1875 9.625 C-36.77892483373611 14.41826306956176 -33.82773418688241 18.59300634499418 -32.3125 26.4375 C-31.722325543979963 32.516296897006384 -33.899932725678184 38.51160403373001 -36.875 43.75 C-38.75385876774983 47.327826802417235 -38.83768011195971 50.67550166032987 -38.1875 54.625 C-35.34741471215354 63.46508528784648 -35.34741471215354 63.46508528784648 -33.1875 65.625 C-33.06375 64.9817578125 -32.94 64.33851562500001 -32.8125 63.67578125 C-31.13843302057174 56.34127529637996 -28.13998181475027 50.744039105379386 -24.02734375 44.47265625 C-20.465746256642404 39.01332535541977 -19.591198688455876 35.161379761156766 -20.1875 28.625 C-20.640625 27.0234375 -20.640625 27.0234375 -21.1875 25.625 C-22.683469974543087 21.693984008499896 -22.90642802415394 17.760689046163904 -22.1875 13.625 C-20.039499444868937 9.365874435748708 -16.812650621877907 7.1332176616860465 -12.53515625 5.2734375 C-10.706037102565048 4.3933395913791315 -9.545413858656218 3.112238988052056 -8.1875 1.625 C-5.4786146397320294 -0.77261592446078 -3.4871563534037477 -0.45287744849399303 0 0 Z " transform="translate(128.1875,85.375)" />
    <path d="M0 0 C3.898301950727813 1.7400956956422675 7.038459663868338 3.0933921986095214 11.3125 2.03515625 C13.059376102500217 1.2971010966936518 14.581482264865478 0.3824787181052187 16.1875 -0.625 C20.61924496752789 -3.282086031416057 24.72533157834217 -4.06738762280014 29.875 -3.625 C34.69537081702239 -2.4020948531929207 39.29210341186618 -0.533439645490887 43.875 1.375 C44.03999999999999 2.0349999999999966 44.03999999999999 2.0349999999999966 44.875 5.375 C43.885000000000005 6.034999999999997 42.89500000000001 6.694999999999993 41.875 7.375 C40.43706608256397 7.064502739002279 38.999668199538235 6.75152239766625 37.5625 6.4375 C37.16224609375 6.350488281249994 37.16224609375 6.350488281249994 35.13671875 5.91015625 C32.875 5.375 32.875 5.375 31.27734375 4.828125 C26.641212572022113 3.3300993268929346 22.733700681364553 4.264570141525709 18.4375 6.3125 C9.931007211243433 10.301258803467363 4.271598676176524 9.315765607034223 -4.3671875 6.3828125 C-7.1250000000000036 5.375 -7.1250000000000036 5.375 -9.125 4.375 C-10.82863821624504 4.14877918767894 -12.538287005080289 3.9661152687748427 -14.25 3.8125 C-15.160078124999998 3.728710937499997 -16.07015625 3.6449218749999943 -17.0078125 3.55859375 C-17.706484375 3.4980078125000063 -18.40515625 3.4374218749999983 -19.125 3.375 C-19.455 2.055000000000007 -19.785 0.7349999999999994 -20.125 -0.625 C-13.645205614340597 -5.850640633596299 -6.896874621266967 -3.113919530344333 0 0 Z " transform="translate(38.125,119.625)" />
    <path d="M0 0 C8.374520514468486 3.72503022883825 8.374520514468486 3.72503022883825 13.37890625 1.953125 C14.750759420322822 1.3875479499148469 16.114161478290526 0.8010752071393483 17.46875 0.1953125 C22.300522752346325 -1.8983033188974616 26.087246357533672 -3.5093727276031075 31.40625 -2.9296875 C33.78125 -1.4296875 33.78125 -1.4296875 35.40625 0.0703125 C35.076250000000016 1.3903124999999932 34.74625 2.7103125000000006 34.40625 4.0703125 C33.54902343750001 4.179882812499997 32.691796874999994 4.289453124999994 31.80859375 4.40234375 C26.16866816219735 5.168575231583603 21.11100093413245 5.92608528201508 15.93359375 8.39453125 C9.395436020954946 11.287373416559575 3.8671200169744395 9.433776061765002 -2.59375 7.0703125 C-3.4806250000000034 6.678437500000001 -4.367500000000007 6.286562500000002 -5.28125 5.8828125 C-8.910595774357859 4.607636957658045 -12.581911347081757 4.2234801716426915 -16.19921875 5.74609375 C-17.196291578826006 6.2869224566382655 -18.187510554899916 6.838715720950759 -19.171875 7.40234375 C-21.31572664700768 8.409482847907455 -23.275929049665578 8.274826113264794 -25.59375 8.0703125 C-25.92375 7.080312500000005 -26.253749999999997 6.090312499999996 -26.59375 5.0703125 C-19.339207886206978 -3.753721898027095 -9.848042510018985 -4.960767682285677 0 0 Z " transform="translate(143.59375,118.9296875)" />
    <path d="M0 0 C2.969999999999999 0 5.939999999999998 0 9 0 C9.659999999999997 0.9900000000000091 10.32 1.9799999999999898 11 3 C9.68 3.990000000000009 8.36 4.97999999999999 7 6 C4.689999999999998 5.6699999999999875 2.379999999999999 5.340000000000003 0 5 C0 3.3499999999999943 0 1.6999999999999886 0 0 Z " transform="translate(28,137)" />
    <path d="M0 0 C3.299999999999997 0 6.600000000000001 0 10 0 C10.329999999999998 0.9900000000000091 10.659999999999997 1.9799999999999898 11 3 C10.670000000000002 3.4950000000000045 10.670000000000002 3.4950000000000045 9 6 C6.359999999999999 6 3.719999999999999 6 1 6 C0.3400000000000034 5.340000000000003 -0.3200000000000003 4.680000000000007 -1 4 C-0.6700000000000017 2.680000000000007 -0.3400000000000034 1.3600000000000136 0 0 Z " transform="translate(57,137)" />
    <path d="M0 0 C3.3000000000000114 0 6.599999999999994 0 10 0 C10.330000000000013 1.3199999999999932 10.659999999999997 2.6399999999999864 11 4 C10.340000000000003 4.659999999999997 9.680000000000007 5.319999999999993 9 6 C6.030000000000001 5.6699999999999875 3.0600000000000023 5.340000000000003 0 5 C0 3.3499999999999943 0 1.6999999999999886 0 0 Z " transform="translate(131,137)" />
    <path d="M0 0 C2.969999999999999 0 5.939999999999998 0 9 0 C8.669999999999987 1.6500000000000057 8.340000000000003 3.3000000000000114 8 5 C5.085172222871648 5.809674382535661 3.538867832716363 6.218459932182299 0.6875 5.0625 C0.1306250000000091 4.711874999999992 -0.42625000000001023 4.3612500000000125 -1 4 C-0.6699999999999875 2.680000000000007 -0.3400000000000034 1.3600000000000136 0 0 Z " transform="translate(160,137)" />
    <path d="M0 0 C2.6400000000000006 0 5.280000000000001 0 8 0 C8.659999999999997 1.3199999999999932 9.32 2.6399999999999864 10 4 C9.340000000000003 4.659999999999997 8.68 5.319999999999993 8 6 C5.030000000000001 5.6699999999999875 2.0600000000000023 5.340000000000003 -1 5 C-0.6700000000000017 3.3499999999999943 -0.3400000000000034 1.6999999999999886 0 0 Z " transform="translate(43,149)" />
    <path d="M0 0 C2.6399999999999864 0 5.280000000000001 0 8 0 C8.659999999999997 0.6599999999999966 9.319999999999993 1.3199999999999932 10 2 C9.669999999999987 3.319999999999993 9.340000000000003 4.639999999999986 9 6 C7.708448200571723 6.027032479522916 6.41673447061504 6.046410780615105 5.125 6.0625 C4.405703125000002 6.0741015625000045 3.6864062500000045 6.085703125000009 2.9453125 6.09765625 C1 6 1 6 -1 5 C-0.6699999999999875 3.3499999999999943 -0.3400000000000034 1.6999999999999886 0 0 Z " transform="translate(146,149)" />
    <path d="M0 0 C0.3173297327756899 -0.0004272124171222913 0.3173297327756899 -0.0004272124171222913 1.9232105016708374 -0.0025891661643981934 C4.0590546445918605 -0.004241965959892013 6.194820998889192 0.0012741277585917032 8.330657958984375 0.0067291259765625 C9.85802712139968 0.007011066883848116 11.385396419552386 0.006853128891037841 12.912765502929688 0.00628662109375 C17.06748504334483 0.005998915508143909 21.222175896834926 0.011891315930057544 25.376888751983643 0.018860578536987305 C29.715755585297345 0.025098576548572282 34.05462302678487 0.025698270051947247 38.39349365234375 0.026885986328125 C46.61347942206524 0.02999798107319407 54.83345194174224 0.038209603890635435 63.05343186855316 0.04823547601699829 C72.41000941737715 0.05940069150500449 81.7665875885742 0.06490809533795527 91.1231701374054 0.06993091106414795 C148.8561418574742 0.10130482134135832 148.8561418574742 0.10130482134135832 150.87509155273438 2.1202545166015625 C150.00009155273438 5.9952545166015625 150.00009155273438 5.9952545166015625 148.87509155273438 7.1202545166015625 C128.70014545903848 7.1435888649481 108.52520138017366 7.1612363356760795 88.35024452209473 7.172066688537598 C78.9831967631483 7.177228502092106 69.61615737635765 7.18426903073626 60.249114990234375 7.1956939697265625 C52.08720213636846 7.2056442936618055 43.925295344001455 7.212108779344874 35.76337659358978 7.214343011379242 C31.439550001681063 7.215649522220474 27.115740754714636 7.218731642683196 22.791919708251953 7.225984573364258 C18.72578353446078 7.232750270291035 14.659671922626075 7.234870347253974 10.593530654907227 7.233362197875977 C9.097916201053621 7.233638277101903 7.602300961822067 7.235640155080603 6.106691360473633 7.239459991455078 C4.071096970848821 7.244405808331777 2.035596379163593 7.243249501427869 0 7.240509033203125 C-0.5972713029384593 7.243421874642365 -1.1945426058769222 7.246334716081606 -1.8099130392074585 7.249335825443268 C-4.258255579134797 7.240373344755227 -5.9042138255085845 7.230601827480086 -8.124908447265625 6.1202545166015625 C-8.124908447265625 4.470254516601557 -8.124908447265625 2.820254516601551 -8.124908447265625 1.1202545166015625 C-5.433984123131683 -0.22520764546541727 -2.9429195507291297 -0.01435236881056312 0 0 Z " transform="translate(27.124908447265625,163.87974548339844)" />
  </g>
</svg>