<svg color="#2C3440" xmlns="http://www.w3.org/2000/svg" viewBox="0 0 104 117" width="104" height="117">
  <g fill="currentColor" transform="scale(0.50000000, 0.50000000)">
    <path d="M0 0 C0.26719895839691077 -0.02095529079437597 0.26719895839691077 -0.02095529079437597 1.6193876266479492 -0.12700176239013672 C1.9117475366592416 -0.1471630334854126 1.9117475366592416 -0.1471630334854126 3.391265869140625 -0.2491912841796875 C4.0102692127227755 -0.29367054939270076 4.629272556304933 -0.338149814605714 5.267033576965332 -0.38397693634033203 C13.417522744999474 -0.9419046596522094 21.575389751927062 -1.2792919612973463 29.741363525390625 -1.5038299560546875 C30.1322643327713 -1.5150389146804812 30.523165140151974 -1.526247873306275 30.92591142654419 -1.5377964973449707 C66.16072707516187 -2.5247035872631756 66.16072707516187 -2.5247035872631756 78.17361450195313 8.278167724609375 C80.10032380225368 10.116711551731655 81.85093560344578 12.075561905671748 83.55386352539063 14.121170043945313 C83.82857231140139 14.449819297790526 84.1032810974121 14.77846855163574 84.38631439208984 15.117076873779297 C94.5430246899553 27.444050685656507 94.5430246899553 27.444050685656507 94.49917602539063 35.43367004394531 C94.50013275146483 35.82183898925781 94.50108947753907 36.210007934570314 94.5020751953125 36.60993957519531 C94.50275265747251 37.42683576524331 94.50092874005443 38.24373746481059 94.49673461914063 39.06062316894531 C94.49137980266542 40.30488779718226 94.49669392794934 41.5487915269199 94.50308227539063 42.79304504394531 C94.50242141639731 43.58992083370893 94.50114009233022 44.38679640058203 94.49917602539063 45.18367004394531 C94.50120025634766 45.55250305175781 94.50322448730469 45.92133605957031 94.50531005859375 46.30134582519531 C94.48561849387713 48.49069551253905 94.1721331328084 50.273041562047794 93.36636352539063 52.30867004394531 C91.71636352539062 52.30867004394531 90.06636352539061 52.30867004394531 88.36636352539063 52.30867004394531 C87.35557435853724 50.28709171023857 87.15773475248508 48.80378295519266 87.04995727539063 46.61335754394531 C87.02917617797851 46.261050720214854 87.0083950805664 45.90874389648437 86.98698425292969 45.54576110839844 C86.92183342658535 44.42525390806537 86.86276711926047 43.30452128729685 86.80386352539063 42.18367004394531 C86.76064528960984 41.421928405052824 86.71702994762444 40.660209185492704 86.67300415039063 39.89851379394531 C86.56618882281899 38.03547020071507 86.46482603231371 36.17217588236731 86.36636352539063 34.30867004394531 C86.07390747070312 34.313906860351565 86.07390747070312 34.313906860351565 84.59390258789063 34.34040832519531 C82.40972082716289 34.37679432521159 80.22556549972953 34.39963715489394 78.04116821289063 34.41853332519531 C77.09841394447847 34.42854887773842 76.15569040794821 34.44216540762814 75.21304321289063 34.45954895019531 C73.8526142129329 34.483996405797086 72.49259824339299 34.49519695336765 71.13198852539063 34.50398254394531 C70.92357330322265 34.5091438293457 70.92357330322265 34.5091438293457 69.86886596679688 34.53526306152344 C67.05337447680262 34.53632604597725 64.6433479661453 34.06594636056366 62.366363525390625 32.30867004394531 C61.67319202182078 30.785000606853117 61.363346808038486 29.791681893439147 61.116363525390625 28.183670043945313 C61.04917114257813 27.782368774414067 60.981978759765624 27.381067504882807 60.912750244140625 26.967605590820313 C60.28189146248103 22.62037195630137 60.280430577452734 18.320517191208054 60.319488525390625 13.941482543945313 C60.323260834412366 13.197425011253813 60.32668104097209 12.453365606923256 60.329742431640625 11.709304809570313 C60.33790094566096 9.909053504678212 60.35078702393321 8.108874275202837 60.366363525390625 6.3086700439453125 C52.430129395845995 6.415816419763942 44.49399596620988 6.528560847382138 36.55793857574463 6.648009300231934 C32.87326311030979 6.703337465691412 29.188577965136176 6.756818661434735 25.503814697265625 6.8059844970703125 C22.292970188276342 6.848831480554743 19.082196857733877 6.895110590649836 15.871462285518646 6.945548593997955 C14.170679213798081 6.972145624439875 12.469910221302086 6.996998315383877 10.769044876098633 7.017744064331055 C8.872428742373444 7.041739293156176 6.97600165751777 7.071799831706137 5.079498291015625 7.1033477783203125 C4.512698516845703 7.109103240966796 3.94589874267578 7.1148587036132795 3.3619232177734375 7.12078857421875 C2.8472851562500026 7.130577392578125 2.3326470947265605 7.140366210937501 1.8024139404296875 7.15045166015625 C1.3535007572174038 7.1569042110443135 0.9045875740051272 7.163356761932377 0.44207096099853516 7.170004844665527 C-0.633636474609375 7.3086700439453125 -0.633636474609375 7.3086700439453125 -1.633636474609375 8.308670043945313 C-1.7578349709510803 9.215136110782623 -1.7578349709510803 9.215136110782623 -1.7566843032836914 10.337037086486816 C-1.7586753517389297 10.764002395272257 -1.760666400194168 11.190967704057691 -1.7627177834510803 11.6308713555336 C-1.759804942011833 12.102654206156728 -1.7568921005725855 12.574437056779864 -1.7538909912109375 13.060516357421875 C-1.7547454160451892 13.559564170241359 -1.7555998408794409 14.058611983060835 -1.7564801573753357 14.572782456874847 C-1.7581356584652994 16.255695487739615 -1.752612527737952 17.938510239576743 -1.747161865234375 19.621414184570313 C-1.7468799821509364 20.823516821702952 -1.7470377489377995 22.025619631327316 -1.7476043701171875 23.22772216796875 C-1.7478325581019263 25.82125878897517 -1.7449844674482762 28.41477292217506 -1.7393665313720703 31.008302688598633 C-1.731249157788028 34.75813710026527 -1.728636069468024 38.50795933901233 -1.7273785397410393 42.257801584899426 C-1.7251883934546228 48.34125225443748 -1.718529319509436 54.42468953666801 -1.709075927734375 60.50813293457031 C-1.6999008456227074 66.41861403341686 -1.6928319463080328 72.32909148122677 -1.688568115234375 78.23957824707031 C-1.6883001178503036 78.60744561851024 -1.6880321204662323 78.97531298995018 -1.6877560019493103 79.35432785749435 C-1.6854432424752304 82.55410389540859 -1.6832904013676995 85.75388003731427 -1.6811532974243164 88.95365619659424 C-1.671738894444232 102.7386734104341 -1.6518198446837147 116.52365515314091 -1.633636474609375 130.3086700439453 C27.40636352539063 130.3086700439453 56.44636352539064 130.3086700439453 86.36636352539063 130.3086700439453 C86.69636352539061 126.34867004394533 87.02636352539062 122.3886700439453 87.36636352539063 118.30867004394531 C89.01636352539063 117.97867004394533 90.66636352539064 117.64867004394532 92.36636352539063 117.30867004394531 C94.2759685640712 119.2182750826259 93.61568302040726 122.50133542603578 93.61734008789063 125.07600402832031 C93.54839593297908 128.27302806024238 93.24921238402663 130.70336477984227 91.41323852539063 133.4063262939453 C87.33180230519645 136.92428064791866 82.97516142822846 136.59430339116298 77.89761352539063 136.5674591064453 C77.0365265373309 136.57017185743186 76.17544187190236 136.57373438747854 75.31436157226563 136.5780792236328 C72.98376743992412 136.5871719304584 70.65335101728013 136.58367204406125 68.32275390625 136.57732105255127 C65.87960341174904 136.57224480752853 63.43646776571994 136.57695701163297 60.993316650390625 136.58009338378906 C56.89107542418161 136.58372831247416 52.78890629652051 136.57894641753484 48.686676025390625 136.5694122314453 C43.949182859123255 136.5585285028788 39.21186185976809 136.56205442176028 34.47437286376953 136.57306504249573 C30.40121236297996 136.5821514683001 26.328103583342113 136.58341659419906 22.25493621826172 136.5781877040863 C19.824683425176246 136.57507542310387 17.39451146281114 136.5746381373142 14.964263916015625 136.58126068115234 C12.67907686026669 136.58705334856378 10.39411100488374 136.5830026372124 8.10894775390625 136.57147216796875 C7.27209845600742 136.5688357749098 6.435230427429659 136.5695732323858 5.598388671875 136.5739974975586 C-3.02512495399084 136.61537299737347 -3.02512495399084 136.61537299737347 -5.633636474609375 134.3086700439453 C-8.186655970698318 131.0155271378627 -9.075564039303316 128.23245015004505 -9.021316528320313 124.11618041992188 C-9.026702066063883 123.61794830262662 -9.032087603807447 123.11971618533136 -9.03763633966446 122.60638612508774 C-9.051856383743697 120.94968021488566 -9.044828175412434 119.2937801176098 -9.037689208984375 117.63703918457031 C-9.043395999066597 116.44407513077275 -9.050361459492223 115.2511165354237 -9.058486938476563 114.05816650390625 C-9.07454245441955 111.1617981011265 -9.076525894509395 108.26567908426273 -9.071274034678936 105.369275636971 C-9.067221211973894 103.01339815451462 -9.068688981502028 100.65758459069923 -9.07402229309082 98.30171012878418 C-9.074770715124906 97.96552584450691 -9.075519137158992 97.62934156022965 -9.076290238648653 97.28296987339854 C-9.077821826780472 96.59985791620335 -9.079360174682044 95.91674597413137 -9.080905206501484 95.23363404721022 C-9.09461167973948 88.83729939009137 -9.089205820738876 82.44108727111677 -9.077719993889332 76.0447554513812 C-9.067790384909507 70.20326488721369 -9.08072633084771 64.36209119774439 -9.104654185473919 58.52064950019121 C-9.129083962193349 52.511023382832064 -9.138643582006218 46.501544611705356 -9.132001459598541 40.49186986684799 C-9.128517611168306 37.12252837540552 -9.13068511824747 33.75343040086251 -9.148252487182617 30.384126663208008 C-9.163752284296109 27.214817173878245 -9.159733662613924 24.046111234352182 -9.140947341918945 20.8768253326416 C-9.137269655416404 19.716688669615138 -9.140346149409964 18.556506989059713 -9.150833129882813 17.396411895751953 C-9.238927500661383 6.84180586440182 -9.238927500661383 6.84180586440182 -5.686310768127441 2.3039464950561523 C-3.8790536242905773 0.5952313801925726 -2.4546805144667942 0.18781959201586318 0 0 Z M65.36636352539063 10.308670043945313 C65.46009728163152 12.551421626196849 65.56622361314632 14.793142783350973 65.68374633789063 17.034744262695313 C65.7219700736809 17.796951468750464 65.75683492587088 18.5593349868563 65.78823852539063 19.321853637695313 C65.83404015461294 20.419661438117714 65.89199420349524 21.51626261395768 65.95230102539063 22.613357543945313 C65.96385223388671 22.953015441894536 65.97540344238281 23.29267333984376 65.9873046875 23.642623901367188 C66.08460782847513 25.2105705617941 66.30131477276507 26.21062554723433 67.17495727539063 27.527420043945313 C68.79855170369814 28.592072128081384 69.91042220677244 28.536736845955787 71.84292602539063 28.503982543945313 C72.17303680419921 28.501152648925782 72.50314758300783 28.49832275390625 72.84326171875 28.495407104492188 C73.89300483984167 28.48425119494327 74.94188037331435 28.459161614550283 75.99136352539063 28.433670043945313 C76.70489282669286 28.423634014752764 77.41843556654254 28.414509240721088 78.13198852539063 28.406326293945313 C79.87705998954954 28.384328507432855 81.62162702006594 28.349834426103612 83.36636352539063 28.308670043945313 C83.36636352539063 27.648670043945316 83.36636352539063 26.98867004394532 83.36636352539063 26.308670043945313 C82.70636352539063 26.308670043945313 82.04636352539063 26.308670043945313 81.36636352539063 26.308670043945313 C81.36636352539063 25.648670043945316 81.36636352539063 24.98867004394532 81.36636352539063 24.308670043945313 C80.73965454101563 23.562576293945313 80.73965454101563 23.562576293945313 79.87026977539063 22.871170043945313 C79.55896118164063 22.615935668945312 79.24765258789063 22.36070129394531 78.92691040039063 22.097732543945313 C78.59755493164062 21.837341918945313 78.2681994628906 21.576951293945314 77.92886352539063 21.308670043945313 C77.28178383162489 20.791006288932735 76.63715250348918 20.270263982763936 75.99526977539063 19.746170043945313 C75.70724487304688 19.518005981445313 75.41921997070313 19.289841918945314 75.12246704101563 19.054763793945313 C74.27034864659063 18.213926269449743 73.84357031717224 17.399428425160394 73.36636352539063 16.308670043945313 C72.70636352539063 16.308670043945313 72.04636352539063 16.308670043945313 71.36636352539063 16.308670043945313 C71.36636352539063 15.648670043945316 71.36636352539063 14.988670043945312 71.36636352539063 14.308670043945313 C70.70636352539063 14.308670043945313 70.04636352539063 14.308670043945313 69.36636352539063 14.308670043945313 C69.36636352539063 13.648670043945316 69.36636352539063 12.988670043945312 69.36636352539063 12.308670043945313 C68.70636352539063 12.308670043945313 68.04636352539063 12.308670043945313 67.36636352539063 12.308670043945313 C67.36636352539063 11.648670043945316 67.36636352539063 10.988670043945312 67.36636352539063 10.308670043945313 C66.70636352539063 10.308670043945313 66.04636352539063 10.308670043945313 65.36636352539063 10.308670043945313 Z " transform="translate(55.633636474609375,48.69132995605469)" />
    <path d="M0 0 C7.397328627020954 -0.02314716054689825 14.794649555540502 -0.040993701732148224 22.192007064819336 -0.051812171936035156 C25.626715166396323 -0.05696884943178304 29.061400354859785 -0.06399957229020004 32.49609375 -0.075439453125 C35.80935235942587 -0.08646961420497234 39.12259338179928 -0.09228076930659768 42.43587112426758 -0.09487724304199219 C43.70137532796734 -0.09672814942736352 44.96687819524712 -0.10034239206788698 46.23237228393555 -0.10573005676269531 C48.00178621140161 -0.11296502516077567 49.77110105903175 -0.11398990366741657 51.54052734375 -0.113525390625 C52.06632888793945 -0.11712066650390796 52.5921304321289 -0.12071594238281591 53.13386535644531 -0.124420166015625 C53.616221466064445 -0.12304550170898665 54.09857757568359 -0.1216708374023483 54.595550537109375 -0.1202545166015625 C55.014044551849366 -0.12117630958556447 55.43253856658936 -0.12209810256958065 55.86371421813965 -0.1230478286743164 C57.107823188430814 0.011676120065004625 57.92410245312928 0.37642842690233635 59 1 C59 2.319999999999993 59 3.6400000000000006 59 5 C57.50704988709943 5.853606606365759 56.40536852078883 6.132888647608084 54.69166564941406 6.1716766357421875 C54.230473327636716 6.1843557739257875 53.76928100585937 6.197034912109373 53.29411315917969 6.2100982666015625 C52.791726226806645 6.218995819091802 52.2893392944336 6.227893371582027 51.771728515625 6.237060546875 C51.23980895996094 6.250172729492192 50.70788940429688 6.26328491210937 50.15985107421875 6.27679443359375 C48.39960944540826 6.318609501046836 46.639322494441046 6.353109177703871 44.87890625 6.38671875 C43.655835371779986 6.412375430580553 42.4327671583018 6.438159431741738 41.20970153808594 6.4640655517578125 C38.64498345382978 6.517044225487751 36.08022267980776 6.5659669642761855 33.515380859375 6.612548828125 C30.22867162179091 6.672920690550782 26.94243565104695 6.747149179204854 23.65609836578369 6.824923515319824 C21.12977278626728 6.8825250877252415 18.603331569323174 6.930820851958259 16.076765060424805 6.976511001586914 C14.865052083050912 6.999914726226621 13.653399007805973 7.026668112279054 12.441835403442383 7.056829452514648 C10.747129286512717 7.0980055016272985 9.052678093246698 7.1261738201889955 7.357666015625 7.151123046875 C6.857303314208991 7.166093292236326 6.356940612792968 7.181063537597652 5.8414154052734375 7.1964874267578125 C2.8888499049990344 7.223337669722866 1.271684193640894 6.931284102706769 -1 5 C-0.6700000000000017 3.3499999999999943 -0.3400000000000034 1.7000000000000028 0 0 Z " transform="translate(64,90)" />
    <path d="M0 0 C7.292735621463805 6.18449457505794 11.388819783593874 13.398983507501015 12.5087890625 22.9560546875 C12.724226516345936 27.408428733649174 11.741052911025946 31.211808413797826 10.29541015625 35.3935546875 C9.397069256639668 38.01931029442747 9.074606028219819 40.11527123140985 9.2275390625 42.8935546875 C9.557539062499984 43.05855468749999 9.557539062499984 43.05855468749999 11.2275390625 43.8935546875 C11.2275390625 44.5535546875 11.2275390625 45.21355468749999 11.2275390625 45.8935546875 C11.354511718750018 45.95414062500001 11.354511718750018 45.95414062500001 11.9970703125 46.2607421875 C14.191016578114159 47.32895572506496 16.317343540847645 48.365398270178105 18.2275390625 49.8935546875 C18.2275390625 50.5535546875 18.2275390625 51.21355468749999 18.2275390625 51.8935546875 C18.790859374999997 52.130742187500005 19.354179687499993 52.36792968750001 19.9345703125 52.6123046875 C22.74544882403012 54.01960217057547 24.74731501365494 56.15797766183772 26.9150390625 58.3935546875 C27.116455078125 58.595292968750016 27.116455078125 58.595292968750016 28.1357421875 59.6162109375 C31.401921284860293 62.931628915725014 32.56873189022235 65.08456442790327 32.612548828125 69.7783203125 C32.47623790670491 73.01441526859253 31.264249758515405 74.76843666868285 29.0048828125 77.0810546875 C26.136950910817006 78.39210927112651 23.28336704716429 78.90460939572313 20.2275390625 77.8935546875 C17.152485488305814 76.12793776285233 14.705015211043644 73.4525150467677 12.2275390625 70.9560546875 C11.519335234173184 70.26555595488134 10.810347732271026 69.575860094051 10.1005859375 68.886962890625 C0.573248228689323 59.54618428682795 0.573248228689323 59.54618428682795 -2.7724609375 53.8935546875 C-2.7724609375 53.2335546875 -2.7724609375 52.57355468750001 -2.7724609375 51.8935546875 C-3.219765625000008 52.17070312499999 -3.667070312500016 52.447851562500006 -4.1279296875 52.7333984375 C-7.588643682105413 54.829635311142624 -10.65476462646592 56.623734131506296 -14.7724609375 56.8935546875 C-15.076035156249986 56.91353515624999 -15.076035156249986 56.91353515624999 -16.6123046875 57.0146484375 C-25.17065609002111 57.38375862225786 -31.61428665611018 54.23703768459083 -38.7724609375 49.8935546875 C-39.07990234375001 49.71824218750001 -39.38734375 49.54292968749999 -39.7041015625 49.3623046875 C-40.53808593749997 48.86230468750003 -40.53808593749997 48.86230468750003 -41.7724609375 47.8935546875 C-41.7724609375 47.2335546875 -41.7724609375 46.57355468750001 -41.7724609375 45.8935546875 C-42.4324609375 45.8935546875 -43.09246093749999 45.8935546875 -43.7724609375 45.8935546875 C-50.14277132598954 38.03275500939591 -51.66478698985537 29.426787033040398 -50.98095703125 19.5126953125 C-50.29912191038616 14.217694701763548 -47.77647239830269 7.609852749921657 -43.7724609375 3.8935546875 C-43.1124609375 3.8935546875 -42.45246093750001 3.8935546875 -41.7724609375 3.8935546875 C-41.7724609375 3.2335546875000034 -41.7724609375 2.573554687500007 -41.7724609375 1.8935546875 C-41.1124609375 1.8935546875 -40.45246093750001 1.8935546875 -39.7724609375 1.8935546875 C-39.7724609375 1.2335546875000034 -39.7724609375 0.5735546875000068 -39.7724609375 -0.1064453125 C-38.933837890625 -0.868408203125 -38.933837890625 -0.868408203125 -37.7607421875 -1.5791015625 C-37.332128906250006 -1.838847656249996 -36.903515625 -2.0985937500000063 -36.4619140625 -2.3662109375 C-36.00751953125 -2.631113281249995 -35.553124999999994 -2.896015625000004 -35.0849609375 -3.1689453125 C-34.64990234375 -3.437714843750001 -34.21484375 -3.7064843750000023 -33.7666015625 -3.9833984375 C-22.716220085262307 -10.548143581755284 -9.53129666920563 -7.633149077210632 0 0 Z M-35.7724609375 3.8935546875 C-36.55771799349108 5.1826190245652555 -37.194988503453985 6.500097888839733 -37.7724609375 7.8935546875 C-38.4324609375 7.8935546875 -39.09246093749999 7.8935546875 -39.7724609375 7.8935546875 C-44.45814548029861 16.676488970048098 -44.45814548029861 16.676488970048098 -44.7724609375 20.8935546875 C-44.8240234375 21.39113281249999 -44.875585937500006 21.888710937500008 -44.9287109375 22.4013671875 C-45.33694861106851 29.71562550560236 -42.85285337581254 36.949369696860884 -38.7373046875 42.9326171875 C-37.7724609375 43.8935546875 -37.7724609375 43.8935546875 -35.7724609375 43.8935546875 C-35.7724609375 44.5535546875 -35.7724609375 45.21355468749999 -35.7724609375 45.8935546875 C-29.13362006339196 50.20579271750975 -21.203783822791507 52.05625548931053 -13.30859375 50.62890625 C-10.688501443742126 49.95570103821416 -8.229921479962002 49.01750950924617 -5.7724609375 47.8935546875 C-5.7724609375 47.2335546875 -5.7724609375 46.57355468750001 -5.7724609375 45.8935546875 C-5.176914062500003 45.6525 -4.581367187500007 45.41144531250001 -3.9677734375 45.1630859375 C-1.3787236029634755 43.863998817880145 -0.15268572164626448 41.99021075736374 1.3525390625 39.5810546875 C1.4782226562500114 39.39188476562501 1.4782226562500114 39.39188476562501 2.1142578125 38.4345703125 C5.961594978721905 32.48227642444465 7.266170209226232 26.92224526099764 6.2275390625 19.8935546875 C5.001819059712886 14.77083318685004 2.207913830056441 10.505671289921253 -1.1474609375 6.5185546875 C-1.281241455078117 6.357663574218748 -1.281241455078117 6.357663574218748 -1.958251953125 5.54345703125 C-5.430541541745811 1.7159434130151112 -9.63399943154559 -0.28768721467722 -14.7958984375 -0.5400390625 C-16.2477628882356 -0.5775156662790408 -17.695436184524965 -0.5680122412559854 -19.1474609375 -0.5439453125 C-19.522749328613287 -0.5415686035156284 -19.898037719726574 -0.5391918945312568 -20.284698486328125 -0.5367431640625 C-25.93917769766236 -0.48054732995129257 -31.43857097149518 -0.17653328057409112 -35.7724609375 3.8935546875 Z M3.2275390625 46.8935546875 C2.5595703125 48.1513671875 2.5595703125 48.1513671875 2.2275390625 49.8935546875 C2.867452129131493 51.377101540306796 3.8833957629933593 52.53648586413826 4.9150390625 53.7685546875 C5.221030273437492 54.14423583984376 5.527021484374984 54.51991699218752 5.84228515625 54.906982421875 C6.954527685606138 56.250295077093995 8.089369071484384 57.57213888315948 9.2275390625 58.8935546875 C9.705413869397347 59.45639614419588 10.183107305879247 60.01939162852457 10.66064453125 60.58251953125 C11.945224220289276 62.09155945627046 13.248547874482938 63.582624869299366 14.564605712890625 65.06427001953125 C15.087360816784468 65.65592537589617 15.605803536869303 66.25142076648325 16.119720458984375 66.85076904296875 C20.257628792179645 71.6531577855163 20.257628792179645 71.6531577855163 22.70703125 72.26025390625 C23.944305452148825 72.26417208634126 25.02558701018259 72.17634747911569 26.2275390625 71.8935546875 C26.683989541209513 70.10071864056877 26.6859867023351 68.6910610743409 26.2275390625 66.8935546875 C24.411532798552315 64.42842604917169 22.214527388827833 62.40996250543398 19.9775390625 60.3310546875 C19.3839460909891 59.76258648676577 18.79148631495923 59.19293252134193 18.2001953125 58.6220703125 C17.062295688625824 57.52634895118399 15.918338930403422 56.43770124412697 14.76806640625 55.35498046875 C13.166189511083417 53.84345016499597 11.610682205487166 52.289663070116546 10.07275390625 50.713134765625 C6.13370528233915 46.8935546875 6.13370528233915 46.8935546875 3.2275390625 46.8935546875 Z " transform="translate(150.7724609375,107.1064453125)" />
    <path d="M0 0 C0.19041366577148722 0.0048037719726607975 0.19041366577148722 0.0048037719726607975 1.154022216796875 0.02911376953125 C2.404069292338903 0.06191236956846069 3.653745468645795 0.10231477391329236 4.903564453125 0.142822265625 C5.773653358466277 0.16714224081408702 6.643755726656281 0.19098484822278294 7.5138702392578125 0.2143707275390625 C9.797489464375118 0.2770254231486149 12.080868569309814 0.34614360485507234 14.3642578125 0.4166259765625 C16.696910805280595 0.4874785348288526 19.02973324764595 0.552193956864329 21.362548828125 0.617431640625 C25.935000715365007 0.74620361466107 30.50722236976148 0.8818069905498049 35.079345703125 1.021728515625 C35.177001953125 4.049072265624986 35.177001953125 4.049072265624986 35.079345703125 5.021728515625 C33.83514907809045 6.265925140659547 33.11389739124158 6.139243957478371 31.416473388671875 6.146148681640625 C31.046039123535166 6.142553405761717 30.67560485839843 6.138958129882809 30.2939453125 6.13525390625 C29.903656463623037 6.135399932861333 29.5133676147461 6.135545959472651 29.111251831054688 6.1356964111328125 C27.818008314722732 6.134998355355805 26.52490788396986 6.12721122512481 25.231689453125 6.119384765625 C24.33630959791222 6.11752019875631 23.440928724191167 6.116096478000827 22.545547485351563 6.1150970458984375 C20.186403341913206 6.1112748890297866 17.827320549991768 6.101447239447339 15.46820068359375 6.09039306640625 C13.061898092090644 6.080172427954594 10.655585608748282 6.075598029083352 8.249267578125 6.070556640625 C3.5259332984216485 6.059824654763389 -1.1973554020070054 6.042751889020337 -5.920654296875 6.021728515625 C-6.250654296874998 4.371728515624994 -6.580654296874997 2.721728515625003 -6.920654296875 1.021728515625 C-4.560703685337245 0.08403229051171479 -2.504529442973748 -0.09161999968533507 0 0 Z " transform="translate(69.920654296875,103.978271484375)" />
    <path d="M0 0 C6.14205256373657 2.8290160585688824 10.942480161410117 7.346416346297147 14.62109375 12.9453125 C15.185318270322739 14.515834360692168 15.09324144797867 15.964961809151575 15.0625 17.625 C15.053476562500009 18.25664062499999 15.04445312499999 18.888281250000006 15.03515625 19.5390625 C15.023554687499995 20.021171874999993 15.011953124999991 20.503281249999986 15 21 C13.349999999999994 21 11.699999999999989 21 10 21 C9.780859375000006 20.408320312499995 9.561718750000011 19.81664062499999 9.3359375 19.20703125 C7.2316675820448495 13.839042096101451 5.211178290409094 9.918259842629098 0 7 C-2.2698263159880128 6.063246282290663 -4.592330222332208 5.477259985514024 -7 5 C-7.3300000000000125 3.680000000000007 -7.659999999999997 2.3599999999999994 -8 1 C-5.332658057611667 -0.5011552326929802 -2.979276546932084 -0.6627627911607448 0 0 Z " transform="translate(136,111)" />
    <path d="M0 0 C0.5662559509277401 0.002220611572269604 1.132511901855466 0.004441223144524997 1.7159271240234375 0.0067291259765625 C2.3565156555175832 0.006804656982424717 2.9971041870117148 0.006880187988286934 3.6571044921875 0.0069580078125 C4.35892310481394 0.012065040950517414 5.060740931778483 0.017281042527741874 5.7625579833984375 0.0225982666015625 C6.478575658278729 0.024463059281913502 7.194594607812462 0.025886673831266194 7.910614013671875 0.026885986328125 C9.796295319473955 0.030706381430405827 11.681899752089294 0.0405324746328688 13.567550659179688 0.0515899658203125 C15.491266479452804 0.06181441974061386 17.414994705821215 0.06638581801072974 19.338729858398438 0.0714263916015625 C23.11415555109201 0.08215526478147694 26.889517876224474 0.09922585501628589 30.664901733398438 0.1202545166015625 C30.859387537098883 0.9311107135680743 31.045293221182163 1.7440291392300793 31.227401733398438 2.5577545166015625 C31.27960876464843 2.783984985351566 31.27960876464843 2.783984985351566 31.543807983398438 3.9288482666015625 C31.56378845214843 4.125430297851565 31.56378845214843 4.125430297851565 31.664901733398438 5.1202545166015625 C30.248710213142942 6.536446036857058 28.76596274672079 6.49096432223682 26.852401733398438 6.6827545166015625 C26.436598510742186 6.724487915039063 26.020795288085935 6.766221313476564 25.592391967773438 6.8092193603515625 C20.480351948860374 7.2399845554104445 15.353918868016038 7.231380160805443 10.227401733398438 7.2452545166015625 C10.003442230224607 7.246548614501947 10.003442230224607 7.246548614501947 8.870071411132813 7.2530975341796875 C7.573737459568548 7.258993327948659 6.277644291402922 7.257348221840161 4.9813079833984375 7.2530670166015625 C4.5909939575195295 7.255045928955084 4.200679931640622 7.257024841308592 3.7985382080078125 7.259063720703125 C1.562183085264735 7.240194493468863 -0.22732472767312117 6.96269466492501 -2.3350982666015625 6.1202545166015625 C-2.362075657323885 5.307935307073933 -2.3814842409208623 4.495361811642738 -2.3975982666015625 3.6827545166015625 C-2.40919982910156 3.2302935791015557 -2.4208013916015645 2.777832641601563 -2.4327545166015625 2.3116607666015625 C-2.286681632602587 0.529571581814082 -1.7499884756295927 0.15762436628040177 0 0 Z " transform="translate(65.33509826660156,117.87974548339844)" />
    <path d="M0 0 C0 1.3199999999999932 0 2.6399999999999864 0 4 C-1.5841279046245518 4.920614741809175 -2.8199285938691787 5.152171106402932 -4.64208984375 5.237060546875 C-5.169588317871089 5.263461151123039 -5.6970867919921915 5.289861755371106 -6.240570068359375 5.3170623779296875 C-6.524430694580076 5.328555679321283 -6.524430694580076 5.328555679321283 -7.9609375 5.38671875 C-8.54791412353515 5.412243194580071 -9.134890747070315 5.437767639160143 -9.739654541015625 5.4640655517578125 C-10.981933130404045 5.516061724975316 -12.224321449001351 5.565490231974849 -13.466796875 5.612548828125 C-15.361339059611097 5.686963420074278 -17.254650622954728 5.777704532940675 -19.1484375 5.869140625 C-20.3567307318191 5.917675509579112 -21.56506368710272 5.965233296522229 -22.7734375 6.01171875 C-23.33711029052735 6.040778045654292 -23.900783081054684 6.069837341308585 -24.481536865234375 6.0997772216796875 C-27.932148759917112 6.209307539815768 -30.052101328008717 5.82869797885121 -33 4 C-33 2.680000000000007 -33 1.3600000000000136 -33 0 C-29.104243189204155 -0.1691497309302008 -25.20817928115892 -0.3288589563723008 -21.311767578125 -0.482177734375 C-19.987718423840292 -0.5347033340262044 -18.663944502441936 -0.5906771233621555 -17.340087890625 -0.648193359375 C-15.431334881643778 -0.7307456707826248 -13.522406843838525 -0.805541528854036 -11.61328125 -0.87890625 C-11.026621856689445 -0.9059413146972588 -10.439962463378905 -0.9329763793945176 -9.835525512695313 -0.9608306884765625 C-6.405349876916588 -1.0838820305742445 -3.3276298629480436 -0.8616358174970458 0 0 Z " transform="translate(96,133)" />
    <path d="M0 0 C0.6340576171874943 -0.00637985229491278 1.2681152343750028 -0.012759704589853982 1.92138671875 -0.0193328857421875 C2.611652868661153 -0.020861424933769968 3.3019200432840563 -0.021975458953363614 3.9921875 -0.022705078125 C4.701986360486217 -0.025919579765684375 5.411784557356995 -0.02928379918188284 6.12158203125 -0.0327911376953125 C7.6077630270848715 -0.03877236469790546 9.093885945258563 -0.0406320114361165 10.580078125 -0.0400390625 C12.483439983044718 -0.03993732196877886 14.386429776907079 -0.05360513869374017 16.289703369140625 -0.07081127166748047 C17.754981571413794 -0.08193344432589811 19.22016974559338 -0.08395824687346476 20.68548583984375 -0.08342933654785156 C21.387199768367793 -0.08460853654830203 22.08891608792895 -0.08902710124141322 22.79058837890625 -0.09676170349121094 C23.771801632557654 -0.10656775872635649 24.75312429921769 -0.10241756018248793 25.734375 -0.09765625 C26.292377929687504 -0.09908126831055597 26.850380859375008 -0.10050628662108352 27.42529296875 -0.1019744873046875 C29.192349248594866 0.20101836850219001 29.781325428443353 0.7464328689062256 30.8671875 2.145263671875 C31.120966736752948 3.535973889281138 30.962330070123258 4.718125120026116 30.8671875 6.145263671875 C28.23944944004569 7.217440424862843 25.936973233049073 7.2909151542624215 23.1484375 7.278076171875 C22.69344879150391 7.279395446777357 22.23846008300781 7.280714721679686 21.769683837890625 7.282073974609375 C20.302114281477657 7.283980112008322 18.83473739023532 7.277684910257989 17.3671875 7.270263671875 C16.87152282714844 7.269377441406249 16.37585815429688 7.268491210937498 15.86517333984375 7.267578125 C8.819361105818075 7.252693614085132 1.8600832222799113 7.082110945673264 -5.1328125 6.145263671875 C-5.1328125 4.495263671874994 -5.1328125 2.8452636718749886 -5.1328125 1.145263671875 C-3.0864875430304437 0.12210119339022185 -2.22349969544986 0.015189045530036083 0 0 Z " transform="translate(68.1328125,145.854736328125)" />
  </g>
</svg>